<?xml version="1.0" encoding="UTF-8" standalone="no"?>
<!DOCTYPE svg PUBLIC "-//W3C//DTD SVG 1.1//EN"
 "http://www.w3.org/Graphics/SVG/1.1/DTD/svg11.dtd">
<!-- Generated by graphviz version 2.38.0 (20140413.2041)
 -->
<!-- Title: controllers_diagram Pages: 1 -->
<svg width="732pt" height="800pt"
 viewBox="0.00 0.00 731.70 800.00" xmlns="http://www.w3.org/2000/svg" xmlns:xlink="http://www.w3.org/1999/xlink">
<g id="graph0" class="graph" transform="scale(1 1) rotate(0) translate(270.214 435.5)">
<title>controllers_diagram</title>
<polygon fill="none" stroke="none" points="-270.214,364.5 -270.214,-435.5 461.49,-435.5 461.49,364.5 -270.214,364.5"/>
<!-- _diagram_info -->
<g id="node1" class="node"><title>_diagram_info</title>
<text text-anchor="start" x="46.3123" y="168.9" font-family="Times,serif" font-size="13.00">Controllers diagram</text>
<text text-anchor="start" x="46.3123" y="181.9" font-family="Times,serif" font-size="13.00">Date: May 14 2016 &#45; 15:14</text>
<text text-anchor="start" x="46.3123" y="194.9" font-family="Times,serif" font-size="13.00">Migration version: 20160514191334</text>
<text text-anchor="start" x="46.3123" y="207.9" font-family="Times,serif" font-size="13.00">Generated by RailRoady 1.3.1</text>
<text text-anchor="start" x="46.3123" y="220.9" font-family="Times,serif" font-size="13.00">http://railroady.prestonlee.com</text>
</g>
<!-- ApplicationController -->
<g id="node2" class="node"><title>ApplicationController</title>
<path fill="none" stroke="black" d="M49.8516,360C49.8516,360 170.148,360 170.148,360 176.148,360 182.148,354 182.148,348 182.148,348 182.148,282 182.148,282 182.148,276 176.148,270 170.148,270 170.148,270 49.8516,270 49.8516,270 43.8516,270 37.8516,276 37.8516,282 37.8516,282 37.8516,348 37.8516,348 37.8516,354 43.8516,360 49.8516,360"/>
<text text-anchor="middle" x="110" y="285.2" font-family="Times,serif" font-size="14.00">ApplicationController</text>
<polyline fill="none" stroke="black" points="37.8516,292 182.148,292 "/>
<text text-anchor="start" x="45.8516" y="307.2" font-family="Times,serif" font-size="14.00">after_sign_in_path_for</text>
<polyline fill="none" stroke="black" points="37.8516,314 182.148,314 "/>
<polyline fill="none" stroke="black" points="37.8516,338 182.148,338 "/>
<text text-anchor="start" x="45.8516" y="353.2" font-family="Times,serif" font-size="14.00">_layout</text>
</g>
<!-- ArticlesController -->
<g id="node3" class="node"><title>ArticlesController</title>
<path fill="none" stroke="black" d="M335.069,-172C335.069,-172 428.931,-172 428.931,-172 434.931,-172 440.931,-178 440.931,-184 440.931,-184 440.931,-362 440.931,-362 440.931,-368 434.931,-374 428.931,-374 428.931,-374 335.069,-374 335.069,-374 329.069,-374 323.069,-368 323.069,-362 323.069,-362 323.069,-184 323.069,-184 323.069,-178 329.069,-172 335.069,-172"/>
<text text-anchor="middle" x="382" y="-358.8" font-family="Times,serif" font-size="14.00">ArticlesController</text>
<polyline fill="none" stroke="black" points="323.069,-352 440.931,-352 "/>
<text text-anchor="start" x="331.069" y="-336.8" font-family="Times,serif" font-size="14.00">create</text>
<text text-anchor="start" x="331.069" y="-322.8" font-family="Times,serif" font-size="14.00">destroy</text>
<text text-anchor="start" x="331.069" y="-308.8" font-family="Times,serif" font-size="14.00">edit</text>
<text text-anchor="start" x="331.069" y="-294.8" font-family="Times,serif" font-size="14.00">index</text>
<text text-anchor="start" x="331.069" y="-280.8" font-family="Times,serif" font-size="14.00">new</text>
<text text-anchor="start" x="331.069" y="-266.8" font-family="Times,serif" font-size="14.00">show</text>
<text text-anchor="start" x="331.069" y="-252.8" font-family="Times,serif" font-size="14.00">update</text>
<polyline fill="none" stroke="black" points="323.069,-246 440.931,-246 "/>
<polyline fill="none" stroke="black" points="323.069,-222 440.931,-222 "/>
<text text-anchor="start" x="331.069" y="-206.8" font-family="Times,serif" font-size="14.00">_layout</text>
<text text-anchor="start" x="331.069" y="-192.8" font-family="Times,serif" font-size="14.00">article_params</text>
<text text-anchor="start" x="331.069" y="-178.8" font-family="Times,serif" font-size="14.00">set_article</text>
</g>
<!-- BackgroundInfosController -->
<g id="node4" class="node"><title>BackgroundInfosController</title>
<path fill="none" stroke="black" d="M-83.3726,113C-83.3726,113 63.3726,113 63.3726,113 69.3726,113 75.3726,107 75.3726,101 75.3726,101 75.3726,-77 75.3726,-77 75.3726,-83 69.3726,-89 63.3726,-89 63.3726,-89 -83.3726,-89 -83.3726,-89 -89.3726,-89 -95.3726,-83 -95.3726,-77 -95.3726,-77 -95.3726,101 -95.3726,101 -95.3726,107 -89.3726,113 -83.3726,113"/>
<text text-anchor="middle" x="-10" y="-73.8" font-family="Times,serif" font-size="14.00">BackgroundInfosController</text>
<polyline fill="none" stroke="black" points="-95.3726,-67 75.3726,-67 "/>
<text text-anchor="start" x="-87.3726" y="-51.8" font-family="Times,serif" font-size="14.00">create</text>
<text text-anchor="start" x="-87.3726" y="-37.8" font-family="Times,serif" font-size="14.00">destroy</text>
<text text-anchor="start" x="-87.3726" y="-23.8" font-family="Times,serif" font-size="14.00">edit</text>
<text text-anchor="start" x="-87.3726" y="-9.8" font-family="Times,serif" font-size="14.00">index</text>
<text text-anchor="start" x="-87.3726" y="4.2" font-family="Times,serif" font-size="14.00">new</text>
<text text-anchor="start" x="-87.3726" y="18.2" font-family="Times,serif" font-size="14.00">show</text>
<text text-anchor="start" x="-87.3726" y="32.2" font-family="Times,serif" font-size="14.00">update</text>
<polyline fill="none" stroke="black" points="-95.3726,39 75.3726,39 "/>
<polyline fill="none" stroke="black" points="-95.3726,63 75.3726,63 "/>
<text text-anchor="start" x="-87.3726" y="78.2" font-family="Times,serif" font-size="14.00">_layout</text>
<text text-anchor="start" x="-87.3726" y="92.2" font-family="Times,serif" font-size="14.00">background_info_params</text>
<text text-anchor="start" x="-87.3726" y="106.2" font-family="Times,serif" font-size="14.00">set_background_info</text>
</g>
<!-- ExperiencesController -->
<g id="node5" class="node"><title>ExperiencesController</title>
<path fill="none" stroke="black" d="M-215.976,-229C-215.976,-229 -98.0239,-229 -98.0239,-229 -92.0239,-229 -86.0239,-235 -86.0239,-241 -86.0239,-241 -86.0239,-419 -86.0239,-419 -86.0239,-425 -92.0239,-431 -98.0239,-431 -98.0239,-431 -215.976,-431 -215.976,-431 -221.976,-431 -227.976,-425 -227.976,-419 -227.976,-419 -227.976,-241 -227.976,-241 -227.976,-235 -221.976,-229 -215.976,-229"/>
<text text-anchor="middle" x="-157" y="-415.8" font-family="Times,serif" font-size="14.00">ExperiencesController</text>
<polyline fill="none" stroke="black" points="-227.976,-409 -86.0239,-409 "/>
<text text-anchor="start" x="-219.976" y="-393.8" font-family="Times,serif" font-size="14.00">create</text>
<text text-anchor="start" x="-219.976" y="-379.8" font-family="Times,serif" font-size="14.00">destroy</text>
<text text-anchor="start" x="-219.976" y="-365.8" font-family="Times,serif" font-size="14.00">edit</text>
<text text-anchor="start" x="-219.976" y="-351.8" font-family="Times,serif" font-size="14.00">index</text>
<text text-anchor="start" x="-219.976" y="-337.8" font-family="Times,serif" font-size="14.00">new</text>
<text text-anchor="start" x="-219.976" y="-323.8" font-family="Times,serif" font-size="14.00">show</text>
<text text-anchor="start" x="-219.976" y="-309.8" font-family="Times,serif" font-size="14.00">update</text>
<polyline fill="none" stroke="black" points="-227.976,-303 -86.0239,-303 "/>
<polyline fill="none" stroke="black" points="-227.976,-279 -86.0239,-279 "/>
<text text-anchor="start" x="-219.976" y="-263.8" font-family="Times,serif" font-size="14.00">_layout</text>
<text text-anchor="start" x="-219.976" y="-249.8" font-family="Times,serif" font-size="14.00">experience_params</text>
<text text-anchor="start" x="-219.976" y="-235.8" font-family="Times,serif" font-size="14.00">set_experience</text>
</g>
<!-- HomepageInfosController -->
<g id="node6" class="node"><title>HomepageInfosController</title>
<path fill="none" stroke="black" d="M144.521,-134C144.521,-134 283.479,-134 283.479,-134 289.479,-134 295.479,-140 295.479,-146 295.479,-146 295.479,-324 295.479,-324 295.479,-330 289.479,-336 283.479,-336 283.479,-336 144.521,-336 144.521,-336 138.521,-336 132.521,-330 132.521,-324 132.521,-324 132.521,-146 132.521,-146 132.521,-140 138.521,-134 144.521,-134"/>
<text text-anchor="middle" x="214" y="-320.8" font-family="Times,serif" font-size="14.00">HomepageInfosController</text>
<polyline fill="none" stroke="black" points="132.521,-314 295.479,-314 "/>
<text text-anchor="start" x="140.521" y="-298.8" font-family="Times,serif" font-size="14.00">create</text>
<text text-anchor="start" x="140.521" y="-284.8" font-family="Times,serif" font-size="14.00">destroy</text>
<text text-anchor="start" x="140.521" y="-270.8" font-family="Times,serif" font-size="14.00">edit</text>
<text text-anchor="start" x="140.521" y="-256.8" font-family="Times,serif" font-size="14.00">index</text>
<text text-anchor="start" x="140.521" y="-242.8" font-family="Times,serif" font-size="14.00">new</text>
<text text-anchor="start" x="140.521" y="-228.8" font-family="Times,serif" font-size="14.00">show</text>
<text text-anchor="start" x="140.521" y="-214.8" font-family="Times,serif" font-size="14.00">update</text>
<polyline fill="none" stroke="black" points="132.521,-208 295.479,-208 "/>
<polyline fill="none" stroke="black" points="132.521,-184 295.479,-184 "/>
<text text-anchor="start" x="140.521" y="-168.8" font-family="Times,serif" font-size="14.00">_layout</text>
<text text-anchor="start" x="140.521" y="-154.8" font-family="Times,serif" font-size="14.00">homepage_info_params</text>
<text text-anchor="start" x="140.521" y="-140.8" font-family="Times,serif" font-size="14.00">set_homepage_info</text>
</g>
<!-- PersonalInfosController -->
<g id="node7" class="node"><title>PersonalInfosController</title>
<path fill="none" stroke="black" d="M-45.2656,-134C-45.2656,-134 81.2656,-134 81.2656,-134 87.2656,-134 93.2656,-140 93.2656,-146 93.2656,-146 93.2656,-324 93.2656,-324 93.2656,-330 87.2656,-336 81.2656,-336 81.2656,-336 -45.2656,-336 -45.2656,-336 -51.2656,-336 -57.2656,-330 -57.2656,-324 -57.2656,-324 -57.2656,-146 -57.2656,-146 -57.2656,-140 -51.2656,-134 -45.2656,-134"/>
<text text-anchor="middle" x="18" y="-320.8" font-family="Times,serif" font-size="14.00">PersonalInfosController</text>
<polyline fill="none" stroke="black" points="-57.2656,-314 93.2656,-314 "/>
<text text-anchor="start" x="-49.2656" y="-298.8" font-family="Times,serif" font-size="14.00">create</text>
<text text-anchor="start" x="-49.2656" y="-284.8" font-family="Times,serif" font-size="14.00">destroy</text>
<text text-anchor="start" x="-49.2656" y="-270.8" font-family="Times,serif" font-size="14.00">edit</text>
<text text-anchor="start" x="-49.2656" y="-256.8" font-family="Times,serif" font-size="14.00">index</text>
<text text-anchor="start" x="-49.2656" y="-242.8" font-family="Times,serif" font-size="14.00">new</text>
<text text-anchor="start" x="-49.2656" y="-228.8" font-family="Times,serif" font-size="14.00">show</text>
<text text-anchor="start" x="-49.2656" y="-214.8" font-family="Times,serif" font-size="14.00">update</text>
<polyline fill="none" stroke="black" points="-57.2656,-208 93.2656,-208 "/>
<polyline fill="none" stroke="black" points="-57.2656,-184 93.2656,-184 "/>
<text text-anchor="start" x="-49.2656" y="-168.8" font-family="Times,serif" font-size="14.00">_layout</text>
<text text-anchor="start" x="-49.2656" y="-154.8" font-family="Times,serif" font-size="14.00">personal_info_params</text>
<text text-anchor="start" x="-49.2656" y="-140.8" font-family="Times,serif" font-size="14.00">set_personal_info</text>
</g>
<!-- PhotoLinksController -->
<g id="node8" class="node"><title>PhotoLinksController</title>
<path fill="none" stroke="black" d="M-254.055,18C-254.055,18 -139.945,18 -139.945,18 -133.945,18 -127.945,12 -127.945,6 -127.945,6 -127.945,-172 -127.945,-172 -127.945,-178 -133.945,-184 -139.945,-184 -139.945,-184 -254.055,-184 -254.055,-184 -260.055,-184 -266.055,-178 -266.055,-172 -266.055,-172 -266.055,6 -266.055,6 -266.055,12 -260.055,18 -254.055,18"/>
<text text-anchor="middle" x="-197" y="-168.8" font-family="Times,serif" font-size="14.00">PhotoLinksController</text>
<polyline fill="none" stroke="black" points="-266.055,-162 -127.945,-162 "/>
<text text-anchor="start" x="-258.055" y="-146.8" font-family="Times,serif" font-size="14.00">create</text>
<text text-anchor="start" x="-258.055" y="-132.8" font-family="Times,serif" font-size="14.00">destroy</text>
<text text-anchor="start" x="-258.055" y="-118.8" font-family="Times,serif" font-size="14.00">edit</text>
<text text-anchor="start" x="-258.055" y="-104.8" font-family="Times,serif" font-size="14.00">index</text>
<text text-anchor="start" x="-258.055" y="-90.8" font-family="Times,serif" font-size="14.00">new</text>
<text text-anchor="start" x="-258.055" y="-76.8" font-family="Times,serif" font-size="14.00">show</text>
<text text-anchor="start" x="-258.055" y="-62.8" font-family="Times,serif" font-size="14.00">update</text>
<polyline fill="none" stroke="black" points="-266.055,-56 -127.945,-56 "/>
<polyline fill="none" stroke="black" points="-266.055,-32 -127.945,-32 "/>
<text text-anchor="start" x="-258.055" y="-16.8" font-family="Times,serif" font-size="14.00">_layout</text>
<text text-anchor="start" x="-258.055" y="-2.8" font-family="Times,serif" font-size="14.00">photo_link_params</text>
<text text-anchor="start" x="-258.055" y="11.2" font-family="Times,serif" font-size="14.00">set_photo_link</text>
</g>
<!-- ProjectsController -->
<g id="node9" class="node"><title>ProjectsController</title>
<path fill="none" stroke="black" d="M334.676,322C334.676,322 429.324,322 429.324,322 435.324,322 441.324,316 441.324,310 441.324,310 441.324,132 441.324,132 441.324,126 435.324,120 429.324,120 429.324,120 334.676,120 334.676,120 328.676,120 322.676,126 322.676,132 322.676,132 322.676,310 322.676,310 322.676,316 328.676,322 334.676,322"/>
<text text-anchor="middle" x="382" y="135.2" font-family="Times,serif" font-size="14.00">ProjectsController</text>
<polyline fill="none" stroke="black" points="322.676,142 441.324,142 "/>
<text text-anchor="start" x="330.676" y="157.2" font-family="Times,serif" font-size="14.00">create</text>
<text text-anchor="start" x="330.676" y="171.2" font-family="Times,serif" font-size="14.00">destroy</text>
<text text-anchor="start" x="330.676" y="185.2" font-family="Times,serif" font-size="14.00">edit</text>
<text text-anchor="start" x="330.676" y="199.2" font-family="Times,serif" font-size="14.00">index</text>
<text text-anchor="start" x="330.676" y="213.2" font-family="Times,serif" font-size="14.00">new</text>
<text text-anchor="start" x="330.676" y="227.2" font-family="Times,serif" font-size="14.00">show</text>
<text text-anchor="start" x="330.676" y="241.2" font-family="Times,serif" font-size="14.00">update</text>
<polyline fill="none" stroke="black" points="322.676,248 441.324,248 "/>
<polyline fill="none" stroke="black" points="322.676,272 441.324,272 "/>
<text text-anchor="start" x="330.676" y="287.2" font-family="Times,serif" font-size="14.00">_layout</text>
<text text-anchor="start" x="330.676" y="301.2" font-family="Times,serif" font-size="14.00">project_params</text>
<text text-anchor="start" x="330.676" y="315.2" font-family="Times,serif" font-size="14.00">set_project</text>
</g>
<!-- ShowcasesController -->
<g id="node10" class="node"><title>ShowcasesController</title>
<path fill="none" stroke="black" d="M334.51,75C334.51,75 445.49,75 445.49,75 451.49,75 457.49,69 457.49,63 457.49,63 457.49,-115 457.49,-115 457.49,-121 451.49,-127 445.49,-127 445.49,-127 334.51,-127 334.51,-127 328.51,-127 322.51,-121 322.51,-115 322.51,-115 322.51,63 322.51,63 322.51,69 328.51,75 334.51,75"/>
<text text-anchor="middle" x="390" y="-111.8" font-family="Times,serif" font-size="14.00">ShowcasesController</text>
<polyline fill="none" stroke="black" points="322.51,-105 457.49,-105 "/>
<text text-anchor="start" x="330.51" y="-89.8" font-family="Times,serif" font-size="14.00">create</text>
<text text-anchor="start" x="330.51" y="-75.8" font-family="Times,serif" font-size="14.00">destroy</text>
<text text-anchor="start" x="330.51" y="-61.8" font-family="Times,serif" font-size="14.00">edit</text>
<text text-anchor="start" x="330.51" y="-47.8" font-family="Times,serif" font-size="14.00">index</text>
<text text-anchor="start" x="330.51" y="-33.8" font-family="Times,serif" font-size="14.00">new</text>
<text text-anchor="start" x="330.51" y="-19.8" font-family="Times,serif" font-size="14.00">show</text>
<text text-anchor="start" x="330.51" y="-5.8" font-family="Times,serif" font-size="14.00">update</text>
<polyline fill="none" stroke="black" points="322.51,1 457.49,1 "/>
<polyline fill="none" stroke="black" points="322.51,25 457.49,25 "/>
<text text-anchor="start" x="330.51" y="40.2" font-family="Times,serif" font-size="14.00">_layout</text>
<text text-anchor="start" x="330.51" y="54.2" font-family="Times,serif" font-size="14.00">set_showcase</text>
<text text-anchor="start" x="330.51" y="68.2" font-family="Times,serif" font-size="14.00">showcase_params</text>
</g>
<!-- SocialLinksController -->
<g id="node11" class="node"><title>SocialLinksController</title>
<path fill="none" stroke="black" d="M-254.214,265C-254.214,265 -137.786,265 -137.786,265 -131.786,265 -125.786,259 -125.786,253 -125.786,253 -125.786,75 -125.786,75 -125.786,69 -131.786,63 -137.786,63 -137.786,63 -254.214,63 -254.214,63 -260.214,63 -266.214,69 -266.214,75 -266.214,75 -266.214,253 -266.214,253 -266.214,259 -260.214,265 -254.214,265"/>
<text text-anchor="middle" x="-196" y="78.2" font-family="Times,serif" font-size="14.00">SocialLinksController</text>
<polyline fill="none" stroke="black" points="-266.214,85 -125.786,85 "/>
<text text-anchor="start" x="-258.214" y="100.2" font-family="Times,serif" font-size="14.00">create</text>
<text text-anchor="start" x="-258.214" y="114.2" font-family="Times,serif" font-size="14.00">destroy</text>
<text text-anchor="start" x="-258.214" y="128.2" font-family="Times,serif" font-size="14.00">edit</text>
<text text-anchor="start" x="-258.214" y="142.2" font-family="Times,serif" font-size="14.00">index</text>
<text text-anchor="start" x="-258.214" y="156.2" font-family="Times,serif" font-size="14.00">new</text>
<text text-anchor="start" x="-258.214" y="170.2" font-family="Times,serif" font-size="14.00">show</text>
<text text-anchor="start" x="-258.214" y="184.2" font-family="Times,serif" font-size="14.00">update</text>
<polyline fill="none" stroke="black" points="-266.214,191 -125.786,191 "/>
<polyline fill="none" stroke="black" points="-266.214,215 -125.786,215 "/>
<text text-anchor="start" x="-258.214" y="230.2" font-family="Times,serif" font-size="14.00">_layout</text>
<text text-anchor="start" x="-258.214" y="244.2" font-family="Times,serif" font-size="14.00">set_social_link</text>
<text text-anchor="start" x="-258.214" y="258.2" font-family="Times,serif" font-size="14.00">social_link_params</text>
</g>
<!-- UsersController -->
<g id="node12" class="node"><title>UsersController</title>
<path fill="none" stroke="black" d="M-82.7139,360C-82.7139,360 -1.28613,360 -1.28613,360 4.71387,360 10.7139,354 10.7139,348 10.7139,348 10.7139,170 10.7139,170 10.7139,164 4.71387,158 -1.28613,158 -1.28613,158 -82.7139,158 -82.7139,158 -88.7139,158 -94.7139,164 -94.7139,170 -94.7139,170 -94.7139,348 -94.7139,348 -94.7139,354 -88.7139,360 -82.7139,360"/>
<text text-anchor="middle" x="-42" y="173.2" font-family="Times,serif" font-size="14.00">UsersController</text>
<polyline fill="none" stroke="black" points="-94.7139,180 10.7139,180 "/>
<text text-anchor="start" x="-86.7139" y="195.2" font-family="Times,serif" font-size="14.00">create</text>
<text text-anchor="start" x="-86.7139" y="209.2" font-family="Times,serif" font-size="14.00">destroy</text>
<text text-anchor="start" x="-86.7139" y="223.2" font-family="Times,serif" font-size="14.00">edit</text>
<text text-anchor="start" x="-86.7139" y="237.2" font-family="Times,serif" font-size="14.00">index</text>
<text text-anchor="start" x="-86.7139" y="251.2" font-family="Times,serif" font-size="14.00">new</text>
<text text-anchor="start" x="-86.7139" y="265.2" font-family="Times,serif" font-size="14.00">show</text>
<text text-anchor="start" x="-86.7139" y="279.2" font-family="Times,serif" font-size="14.00">update</text>
<polyline fill="none" stroke="black" points="-94.7139,286 10.7139,286 "/>
<polyline fill="none" stroke="black" points="-94.7139,310 10.7139,310 "/>
<text text-anchor="start" x="-86.7139" y="325.2" font-family="Times,serif" font-size="14.00">_layout</text>
<text text-anchor="start" x="-86.7139" y="339.2" font-family="Times,serif" font-size="14.00">set_user</text>
<text text-anchor="start" x="-86.7139" y="353.2" font-family="Times,serif" font-size="14.00">user_params</text>
</g>
<!-- WebsiteSettingsController -->
<g id="node13" class="node"><title>WebsiteSettingsController</title>
<path fill="none" stroke="black" d="M126.292,113C126.292,113 265.708,113 265.708,113 271.708,113 277.708,107 277.708,101 277.708,101 277.708,-77 277.708,-77 277.708,-83 271.708,-89 265.708,-89 265.708,-89 126.292,-89 126.292,-89 120.292,-89 114.292,-83 114.292,-77 114.292,-77 114.292,101 114.292,101 114.292,107 120.292,113 126.292,113"/>
<text text-anchor="middle" x="196" y="-73.8" font-family="Times,serif" font-size="14.00">WebsiteSettingsController</text>
<polyline fill="none" stroke="black" points="114.292,-67 277.708,-67 "/>
<text text-anchor="start" x="122.292" y="-51.8" font-family="Times,serif" font-size="14.00">create</text>
<text text-anchor="start" x="122.292" y="-37.8" font-family="Times,serif" font-size="14.00">destroy</text>
<text text-anchor="start" x="122.292" y="-23.8" font-family="Times,serif" font-size="14.00">edit</text>
<text text-anchor="start" x="122.292" y="-9.8" font-family="Times,serif" font-size="14.00">index</text>
<text text-anchor="start" x="122.292" y="4.2" font-family="Times,serif" font-size="14.00">new</text>
<text text-anchor="start" x="122.292" y="18.2" font-family="Times,serif" font-size="14.00">show</text>
<text text-anchor="start" x="122.292" y="32.2" font-family="Times,serif" font-size="14.00">update</text>
<polyline fill="none" stroke="black" points="114.292,39 277.708,39 "/>
<polyline fill="none" stroke="black" points="114.292,63 277.708,63 "/>
<text text-anchor="start" x="122.292" y="78.2" font-family="Times,serif" font-size="14.00">_layout</text>
<text text-anchor="start" x="122.292" y="92.2" font-family="Times,serif" font-size="14.00">set_website_setting</text>
<text text-anchor="start" x="122.292" y="106.2" font-family="Times,serif" font-size="14.00">website_setting_params</text>
</g>
</g>
</svg>
