<?xml version="1.0" encoding="UTF-8" standalone="no"?>
<!DOCTYPE svg PUBLIC "-//W3C//DTD SVG 1.1//EN"
 "http://www.w3.org/Graphics/SVG/1.1/DTD/svg11.dtd">
<!-- Generated by graphviz version 2.38.0 (20140413.2041)
 -->
<!-- Title: controllers_diagram Pages: 1 -->
<svg width="807pt" height="914pt"
 viewBox="0.00 0.00 807.20 914.00" xmlns="http://www.w3.org/2000/svg" xmlns:xlink="http://www.w3.org/1999/xlink">
<g id="graph0" class="graph" transform="scale(1 1) rotate(0) translate(345.714 549.5)">
<title>controllers_diagram</title>
<polygon fill="none" stroke="none" points="-345.714,364.5 -345.714,-549.5 461.49,-549.5 461.49,364.5 -345.714,364.5"/>
<!-- _diagram_info -->
<g id="node1" class="node"><title>_diagram_info</title>
<text text-anchor="start" x="46.3123" y="168.9" font-family="Times,serif" font-size="13.00">Controllers diagram</text>
<text text-anchor="start" x="46.3123" y="181.9" font-family="Times,serif" font-size="13.00">Date: May 14 2016 &#45; 17:44</text>
<text text-anchor="start" x="46.3123" y="194.9" font-family="Times,serif" font-size="13.00">Migration version: 20160514204317</text>
<text text-anchor="start" x="46.3123" y="207.9" font-family="Times,serif" font-size="13.00">Generated by RailRoady 1.3.1</text>
<text text-anchor="start" x="46.3123" y="220.9" font-family="Times,serif" font-size="13.00">http://railroady.prestonlee.com</text>
</g>
<!-- ApplicationController -->
<g id="node2" class="node"><title>ApplicationController</title>
<path fill="none" stroke="black" d="M49.8516,360C49.8516,360 170.148,360 170.148,360 176.148,360 182.148,354 182.148,348 182.148,348 182.148,282 182.148,282 182.148,276 176.148,270 170.148,270 170.148,270 49.8516,270 49.8516,270 43.8516,270 37.8516,276 37.8516,282 37.8516,282 37.8516,348 37.8516,348 37.8516,354 43.8516,360 49.8516,360"/>
<text text-anchor="middle" x="110" y="285.2" font-family="Times,serif" font-size="14.00">ApplicationController</text>
<polyline fill="none" stroke="black" points="37.8516,292 182.148,292 "/>
<text text-anchor="start" x="45.8516" y="307.2" font-family="Times,serif" font-size="14.00">after_sign_in_path_for</text>
<polyline fill="none" stroke="black" points="37.8516,314 182.148,314 "/>
<polyline fill="none" stroke="black" points="37.8516,338 182.148,338 "/>
<text text-anchor="start" x="45.8516" y="353.2" font-family="Times,serif" font-size="14.00">_layout</text>
</g>
<!-- ArticlesController -->
<g id="node3" class="node"><title>ArticlesController</title>
<path fill="none" stroke="black" d="M-101.931,360C-101.931,360 -8.06885,360 -8.06885,360 -2.06885,360 3.93115,354 3.93115,348 3.93115,348 3.93115,170 3.93115,170 3.93115,164 -2.06885,158 -8.06885,158 -8.06885,158 -101.931,158 -101.931,158 -107.931,158 -113.931,164 -113.931,170 -113.931,170 -113.931,348 -113.931,348 -113.931,354 -107.931,360 -101.931,360"/>
<text text-anchor="middle" x="-55" y="173.2" font-family="Times,serif" font-size="14.00">ArticlesController</text>
<polyline fill="none" stroke="black" points="-113.931,180 3.93115,180 "/>
<text text-anchor="start" x="-105.931" y="195.2" font-family="Times,serif" font-size="14.00">create</text>
<text text-anchor="start" x="-105.931" y="209.2" font-family="Times,serif" font-size="14.00">destroy</text>
<text text-anchor="start" x="-105.931" y="223.2" font-family="Times,serif" font-size="14.00">edit</text>
<text text-anchor="start" x="-105.931" y="237.2" font-family="Times,serif" font-size="14.00">index</text>
<text text-anchor="start" x="-105.931" y="251.2" font-family="Times,serif" font-size="14.00">new</text>
<text text-anchor="start" x="-105.931" y="265.2" font-family="Times,serif" font-size="14.00">show</text>
<text text-anchor="start" x="-105.931" y="279.2" font-family="Times,serif" font-size="14.00">update</text>
<polyline fill="none" stroke="black" points="-113.931,286 3.93115,286 "/>
<polyline fill="none" stroke="black" points="-113.931,310 3.93115,310 "/>
<text text-anchor="start" x="-105.931" y="325.2" font-family="Times,serif" font-size="14.00">_layout</text>
<text text-anchor="start" x="-105.931" y="339.2" font-family="Times,serif" font-size="14.00">article_params</text>
<text text-anchor="start" x="-105.931" y="353.2" font-family="Times,serif" font-size="14.00">set_article</text>
</g>
<!-- BackgroundInfosController -->
<g id="node4" class="node"><title>BackgroundInfosController</title>
<path fill="none" stroke="black" d="M-83.3726,113C-83.3726,113 63.3726,113 63.3726,113 69.3726,113 75.3726,107 75.3726,101 75.3726,101 75.3726,-77 75.3726,-77 75.3726,-83 69.3726,-89 63.3726,-89 63.3726,-89 -83.3726,-89 -83.3726,-89 -89.3726,-89 -95.3726,-83 -95.3726,-77 -95.3726,-77 -95.3726,101 -95.3726,101 -95.3726,107 -89.3726,113 -83.3726,113"/>
<text text-anchor="middle" x="-10" y="-73.8" font-family="Times,serif" font-size="14.00">BackgroundInfosController</text>
<polyline fill="none" stroke="black" points="-95.3726,-67 75.3726,-67 "/>
<text text-anchor="start" x="-87.3726" y="-51.8" font-family="Times,serif" font-size="14.00">create</text>
<text text-anchor="start" x="-87.3726" y="-37.8" font-family="Times,serif" font-size="14.00">destroy</text>
<text text-anchor="start" x="-87.3726" y="-23.8" font-family="Times,serif" font-size="14.00">edit</text>
<text text-anchor="start" x="-87.3726" y="-9.8" font-family="Times,serif" font-size="14.00">index</text>
<text text-anchor="start" x="-87.3726" y="4.2" font-family="Times,serif" font-size="14.00">new</text>
<text text-anchor="start" x="-87.3726" y="18.2" font-family="Times,serif" font-size="14.00">show</text>
<text text-anchor="start" x="-87.3726" y="32.2" font-family="Times,serif" font-size="14.00">update</text>
<polyline fill="none" stroke="black" points="-95.3726,39 75.3726,39 "/>
<polyline fill="none" stroke="black" points="-95.3726,63 75.3726,63 "/>
<text text-anchor="start" x="-87.3726" y="78.2" font-family="Times,serif" font-size="14.00">_layout</text>
<text text-anchor="start" x="-87.3726" y="92.2" font-family="Times,serif" font-size="14.00">background_info_params</text>
<text text-anchor="start" x="-87.3726" y="106.2" font-family="Times,serif" font-size="14.00">set_background_info</text>
</g>
<!-- ExperiencesController -->
<g id="node5" class="node"><title>ExperiencesController</title>
<path fill="none" stroke="black" d="M-196.976,-210C-196.976,-210 -79.0239,-210 -79.0239,-210 -73.0239,-210 -67.0239,-216 -67.0239,-222 -67.0239,-222 -67.0239,-400 -67.0239,-400 -67.0239,-406 -73.0239,-412 -79.0239,-412 -79.0239,-412 -196.976,-412 -196.976,-412 -202.976,-412 -208.976,-406 -208.976,-400 -208.976,-400 -208.976,-222 -208.976,-222 -208.976,-216 -202.976,-210 -196.976,-210"/>
<text text-anchor="middle" x="-138" y="-396.8" font-family="Times,serif" font-size="14.00">ExperiencesController</text>
<polyline fill="none" stroke="black" points="-208.976,-390 -67.0239,-390 "/>
<text text-anchor="start" x="-200.976" y="-374.8" font-family="Times,serif" font-size="14.00">create</text>
<text text-anchor="start" x="-200.976" y="-360.8" font-family="Times,serif" font-size="14.00">destroy</text>
<text text-anchor="start" x="-200.976" y="-346.8" font-family="Times,serif" font-size="14.00">edit</text>
<text text-anchor="start" x="-200.976" y="-332.8" font-family="Times,serif" font-size="14.00">index</text>
<text text-anchor="start" x="-200.976" y="-318.8" font-family="Times,serif" font-size="14.00">new</text>
<text text-anchor="start" x="-200.976" y="-304.8" font-family="Times,serif" font-size="14.00">show</text>
<text text-anchor="start" x="-200.976" y="-290.8" font-family="Times,serif" font-size="14.00">update</text>
<polyline fill="none" stroke="black" points="-208.976,-284 -67.0239,-284 "/>
<polyline fill="none" stroke="black" points="-208.976,-260 -67.0239,-260 "/>
<text text-anchor="start" x="-200.976" y="-244.8" font-family="Times,serif" font-size="14.00">_layout</text>
<text text-anchor="start" x="-200.976" y="-230.8" font-family="Times,serif" font-size="14.00">experience_params</text>
<text text-anchor="start" x="-200.976" y="-216.8" font-family="Times,serif" font-size="14.00">set_experience</text>
</g>
<!-- HomepageInfosController -->
<g id="node6" class="node"><title>HomepageInfosController</title>
<path fill="none" stroke="black" d="M144.521,-134C144.521,-134 283.479,-134 283.479,-134 289.479,-134 295.479,-140 295.479,-146 295.479,-146 295.479,-324 295.479,-324 295.479,-330 289.479,-336 283.479,-336 283.479,-336 144.521,-336 144.521,-336 138.521,-336 132.521,-330 132.521,-324 132.521,-324 132.521,-146 132.521,-146 132.521,-140 138.521,-134 144.521,-134"/>
<text text-anchor="middle" x="214" y="-320.8" font-family="Times,serif" font-size="14.00">HomepageInfosController</text>
<polyline fill="none" stroke="black" points="132.521,-314 295.479,-314 "/>
<text text-anchor="start" x="140.521" y="-298.8" font-family="Times,serif" font-size="14.00">create</text>
<text text-anchor="start" x="140.521" y="-284.8" font-family="Times,serif" font-size="14.00">destroy</text>
<text text-anchor="start" x="140.521" y="-270.8" font-family="Times,serif" font-size="14.00">edit</text>
<text text-anchor="start" x="140.521" y="-256.8" font-family="Times,serif" font-size="14.00">index</text>
<text text-anchor="start" x="140.521" y="-242.8" font-family="Times,serif" font-size="14.00">new</text>
<text text-anchor="start" x="140.521" y="-228.8" font-family="Times,serif" font-size="14.00">show</text>
<text text-anchor="start" x="140.521" y="-214.8" font-family="Times,serif" font-size="14.00">update</text>
<polyline fill="none" stroke="black" points="132.521,-208 295.479,-208 "/>
<polyline fill="none" stroke="black" points="132.521,-184 295.479,-184 "/>
<text text-anchor="start" x="140.521" y="-168.8" font-family="Times,serif" font-size="14.00">_layout</text>
<text text-anchor="start" x="140.521" y="-154.8" font-family="Times,serif" font-size="14.00">homepage_info_params</text>
<text text-anchor="start" x="140.521" y="-140.8" font-family="Times,serif" font-size="14.00">set_homepage_info</text>
</g>
<!-- PersonalInfosController -->
<g id="node7" class="node"><title>PersonalInfosController</title>
<path fill="none" stroke="black" d="M-273.266,37C-273.266,37 -146.734,37 -146.734,37 -140.734,37 -134.734,31 -134.734,25 -134.734,25 -134.734,-153 -134.734,-153 -134.734,-159 -140.734,-165 -146.734,-165 -146.734,-165 -273.266,-165 -273.266,-165 -279.266,-165 -285.266,-159 -285.266,-153 -285.266,-153 -285.266,25 -285.266,25 -285.266,31 -279.266,37 -273.266,37"/>
<text text-anchor="middle" x="-210" y="-149.8" font-family="Times,serif" font-size="14.00">PersonalInfosController</text>
<polyline fill="none" stroke="black" points="-285.266,-143 -134.734,-143 "/>
<text text-anchor="start" x="-277.266" y="-127.8" font-family="Times,serif" font-size="14.00">create</text>
<text text-anchor="start" x="-277.266" y="-113.8" font-family="Times,serif" font-size="14.00">destroy</text>
<text text-anchor="start" x="-277.266" y="-99.8" font-family="Times,serif" font-size="14.00">edit</text>
<text text-anchor="start" x="-277.266" y="-85.8" font-family="Times,serif" font-size="14.00">index</text>
<text text-anchor="start" x="-277.266" y="-71.8" font-family="Times,serif" font-size="14.00">new</text>
<text text-anchor="start" x="-277.266" y="-57.8" font-family="Times,serif" font-size="14.00">show</text>
<text text-anchor="start" x="-277.266" y="-43.8" font-family="Times,serif" font-size="14.00">update</text>
<polyline fill="none" stroke="black" points="-285.266,-37 -134.734,-37 "/>
<polyline fill="none" stroke="black" points="-285.266,-13 -134.734,-13 "/>
<text text-anchor="start" x="-277.266" y="2.2" font-family="Times,serif" font-size="14.00">_layout</text>
<text text-anchor="start" x="-277.266" y="16.2" font-family="Times,serif" font-size="14.00">personal_info_params</text>
<text text-anchor="start" x="-277.266" y="30.2" font-family="Times,serif" font-size="14.00">set_personal_info</text>
</g>
<!-- PhotoLinksController -->
<g id="node8" class="node"><title>PhotoLinksController</title>
<path fill="none" stroke="black" d="M-26.0552,-134C-26.0552,-134 88.0552,-134 88.0552,-134 94.0552,-134 100.055,-140 100.055,-146 100.055,-146 100.055,-324 100.055,-324 100.055,-330 94.0552,-336 88.0552,-336 88.0552,-336 -26.0552,-336 -26.0552,-336 -32.0552,-336 -38.0552,-330 -38.0552,-324 -38.0552,-324 -38.0552,-146 -38.0552,-146 -38.0552,-140 -32.0552,-134 -26.0552,-134"/>
<text text-anchor="middle" x="31" y="-320.8" font-family="Times,serif" font-size="14.00">PhotoLinksController</text>
<polyline fill="none" stroke="black" points="-38.0552,-314 100.055,-314 "/>
<text text-anchor="start" x="-30.0552" y="-298.8" font-family="Times,serif" font-size="14.00">create</text>
<text text-anchor="start" x="-30.0552" y="-284.8" font-family="Times,serif" font-size="14.00">destroy</text>
<text text-anchor="start" x="-30.0552" y="-270.8" font-family="Times,serif" font-size="14.00">edit</text>
<text text-anchor="start" x="-30.0552" y="-256.8" font-family="Times,serif" font-size="14.00">index</text>
<text text-anchor="start" x="-30.0552" y="-242.8" font-family="Times,serif" font-size="14.00">new</text>
<text text-anchor="start" x="-30.0552" y="-228.8" font-family="Times,serif" font-size="14.00">show</text>
<text text-anchor="start" x="-30.0552" y="-214.8" font-family="Times,serif" font-size="14.00">update</text>
<polyline fill="none" stroke="black" points="-38.0552,-208 100.055,-208 "/>
<polyline fill="none" stroke="black" points="-38.0552,-184 100.055,-184 "/>
<text text-anchor="start" x="-30.0552" y="-168.8" font-family="Times,serif" font-size="14.00">_layout</text>
<text text-anchor="start" x="-30.0552" y="-154.8" font-family="Times,serif" font-size="14.00">photo_link_params</text>
<text text-anchor="start" x="-30.0552" y="-140.8" font-family="Times,serif" font-size="14.00">set_photo_link</text>
</g>
<!-- ProjectsController -->
<g id="node9" class="node"><title>ProjectsController</title>
<path fill="none" stroke="black" d="M334.676,75C334.676,75 429.324,75 429.324,75 435.324,75 441.324,69 441.324,63 441.324,63 441.324,-115 441.324,-115 441.324,-121 435.324,-127 429.324,-127 429.324,-127 334.676,-127 334.676,-127 328.676,-127 322.676,-121 322.676,-115 322.676,-115 322.676,63 322.676,63 322.676,69 328.676,75 334.676,75"/>
<text text-anchor="middle" x="382" y="-111.8" font-family="Times,serif" font-size="14.00">ProjectsController</text>
<polyline fill="none" stroke="black" points="322.676,-105 441.324,-105 "/>
<text text-anchor="start" x="330.676" y="-89.8" font-family="Times,serif" font-size="14.00">create</text>
<text text-anchor="start" x="330.676" y="-75.8" font-family="Times,serif" font-size="14.00">destroy</text>
<text text-anchor="start" x="330.676" y="-61.8" font-family="Times,serif" font-size="14.00">edit</text>
<text text-anchor="start" x="330.676" y="-47.8" font-family="Times,serif" font-size="14.00">index</text>
<text text-anchor="start" x="330.676" y="-33.8" font-family="Times,serif" font-size="14.00">new</text>
<text text-anchor="start" x="330.676" y="-19.8" font-family="Times,serif" font-size="14.00">show</text>
<text text-anchor="start" x="330.676" y="-5.8" font-family="Times,serif" font-size="14.00">update</text>
<polyline fill="none" stroke="black" points="322.676,1 441.324,1 "/>
<polyline fill="none" stroke="black" points="322.676,25 441.324,25 "/>
<text text-anchor="start" x="330.676" y="40.2" font-family="Times,serif" font-size="14.00">_layout</text>
<text text-anchor="start" x="330.676" y="54.2" font-family="Times,serif" font-size="14.00">project_params</text>
<text text-anchor="start" x="330.676" y="68.2" font-family="Times,serif" font-size="14.00">set_project</text>
</g>
<!-- SchoolsController -->
<g id="node10" class="node"><title>SchoolsController</title>
<path fill="none" stroke="black" d="M335.059,-172C335.059,-172 428.941,-172 428.941,-172 434.941,-172 440.941,-178 440.941,-184 440.941,-184 440.941,-362 440.941,-362 440.941,-368 434.941,-374 428.941,-374 428.941,-374 335.059,-374 335.059,-374 329.059,-374 323.059,-368 323.059,-362 323.059,-362 323.059,-184 323.059,-184 323.059,-178 329.059,-172 335.059,-172"/>
<text text-anchor="middle" x="382" y="-358.8" font-family="Times,serif" font-size="14.00">SchoolsController</text>
<polyline fill="none" stroke="black" points="323.059,-352 440.941,-352 "/>
<text text-anchor="start" x="331.059" y="-336.8" font-family="Times,serif" font-size="14.00">create</text>
<text text-anchor="start" x="331.059" y="-322.8" font-family="Times,serif" font-size="14.00">destroy</text>
<text text-anchor="start" x="331.059" y="-308.8" font-family="Times,serif" font-size="14.00">edit</text>
<text text-anchor="start" x="331.059" y="-294.8" font-family="Times,serif" font-size="14.00">index</text>
<text text-anchor="start" x="331.059" y="-280.8" font-family="Times,serif" font-size="14.00">new</text>
<text text-anchor="start" x="331.059" y="-266.8" font-family="Times,serif" font-size="14.00">show</text>
<text text-anchor="start" x="331.059" y="-252.8" font-family="Times,serif" font-size="14.00">update</text>
<polyline fill="none" stroke="black" points="323.059,-246 440.941,-246 "/>
<polyline fill="none" stroke="black" points="323.059,-222 440.941,-222 "/>
<text text-anchor="start" x="331.059" y="-206.8" font-family="Times,serif" font-size="14.00">_layout</text>
<text text-anchor="start" x="331.059" y="-192.8" font-family="Times,serif" font-size="14.00">school_params</text>
<text text-anchor="start" x="331.059" y="-178.8" font-family="Times,serif" font-size="14.00">set_school</text>
</g>
<!-- ShowcasesController -->
<g id="node11" class="node"><title>ShowcasesController</title>
<path fill="none" stroke="black" d="M334.51,322C334.51,322 445.49,322 445.49,322 451.49,322 457.49,316 457.49,310 457.49,310 457.49,132 457.49,132 457.49,126 451.49,120 445.49,120 445.49,120 334.51,120 334.51,120 328.51,120 322.51,126 322.51,132 322.51,132 322.51,310 322.51,310 322.51,316 328.51,322 334.51,322"/>
<text text-anchor="middle" x="390" y="135.2" font-family="Times,serif" font-size="14.00">ShowcasesController</text>
<polyline fill="none" stroke="black" points="322.51,142 457.49,142 "/>
<text text-anchor="start" x="330.51" y="157.2" font-family="Times,serif" font-size="14.00">create</text>
<text text-anchor="start" x="330.51" y="171.2" font-family="Times,serif" font-size="14.00">destroy</text>
<text text-anchor="start" x="330.51" y="185.2" font-family="Times,serif" font-size="14.00">edit</text>
<text text-anchor="start" x="330.51" y="199.2" font-family="Times,serif" font-size="14.00">index</text>
<text text-anchor="start" x="330.51" y="213.2" font-family="Times,serif" font-size="14.00">new</text>
<text text-anchor="start" x="330.51" y="227.2" font-family="Times,serif" font-size="14.00">show</text>
<text text-anchor="start" x="330.51" y="241.2" font-family="Times,serif" font-size="14.00">update</text>
<polyline fill="none" stroke="black" points="322.51,248 457.49,248 "/>
<polyline fill="none" stroke="black" points="322.51,272 457.49,272 "/>
<text text-anchor="start" x="330.51" y="287.2" font-family="Times,serif" font-size="14.00">_layout</text>
<text text-anchor="start" x="330.51" y="301.2" font-family="Times,serif" font-size="14.00">set_showcase</text>
<text text-anchor="start" x="330.51" y="315.2" font-family="Times,serif" font-size="14.00">showcase_params</text>
</g>
<!-- SocialLinksController -->
<g id="node12" class="node"><title>SocialLinksController</title>
<path fill="none" stroke="black" d="M-273.214,284C-273.214,284 -156.786,284 -156.786,284 -150.786,284 -144.786,278 -144.786,272 -144.786,272 -144.786,94 -144.786,94 -144.786,88 -150.786,82 -156.786,82 -156.786,82 -273.214,82 -273.214,82 -279.214,82 -285.214,88 -285.214,94 -285.214,94 -285.214,272 -285.214,272 -285.214,278 -279.214,284 -273.214,284"/>
<text text-anchor="middle" x="-215" y="97.2" font-family="Times,serif" font-size="14.00">SocialLinksController</text>
<polyline fill="none" stroke="black" points="-285.214,104 -144.786,104 "/>
<text text-anchor="start" x="-277.214" y="119.2" font-family="Times,serif" font-size="14.00">create</text>
<text text-anchor="start" x="-277.214" y="133.2" font-family="Times,serif" font-size="14.00">destroy</text>
<text text-anchor="start" x="-277.214" y="147.2" font-family="Times,serif" font-size="14.00">edit</text>
<text text-anchor="start" x="-277.214" y="161.2" font-family="Times,serif" font-size="14.00">index</text>
<text text-anchor="start" x="-277.214" y="175.2" font-family="Times,serif" font-size="14.00">new</text>
<text text-anchor="start" x="-277.214" y="189.2" font-family="Times,serif" font-size="14.00">show</text>
<text text-anchor="start" x="-277.214" y="203.2" font-family="Times,serif" font-size="14.00">update</text>
<polyline fill="none" stroke="black" points="-285.214,210 -144.786,210 "/>
<polyline fill="none" stroke="black" points="-285.214,234 -144.786,234 "/>
<text text-anchor="start" x="-277.214" y="249.2" font-family="Times,serif" font-size="14.00">_layout</text>
<text text-anchor="start" x="-277.214" y="263.2" font-family="Times,serif" font-size="14.00">set_social_link</text>
<text text-anchor="start" x="-277.214" y="277.2" font-family="Times,serif" font-size="14.00">social_link_params</text>
</g>
<!-- UsersController -->
<g id="node13" class="node"><title>UsersController</title>
<path fill="none" stroke="black" d="M-329.714,-343C-329.714,-343 -248.286,-343 -248.286,-343 -242.286,-343 -236.286,-349 -236.286,-355 -236.286,-355 -236.286,-533 -236.286,-533 -236.286,-539 -242.286,-545 -248.286,-545 -248.286,-545 -329.714,-545 -329.714,-545 -335.714,-545 -341.714,-539 -341.714,-533 -341.714,-533 -341.714,-355 -341.714,-355 -341.714,-349 -335.714,-343 -329.714,-343"/>
<text text-anchor="middle" x="-289" y="-529.8" font-family="Times,serif" font-size="14.00">UsersController</text>
<polyline fill="none" stroke="black" points="-341.714,-523 -236.286,-523 "/>
<text text-anchor="start" x="-333.714" y="-507.8" font-family="Times,serif" font-size="14.00">create</text>
<text text-anchor="start" x="-333.714" y="-493.8" font-family="Times,serif" font-size="14.00">destroy</text>
<text text-anchor="start" x="-333.714" y="-479.8" font-family="Times,serif" font-size="14.00">edit</text>
<text text-anchor="start" x="-333.714" y="-465.8" font-family="Times,serif" font-size="14.00">index</text>
<text text-anchor="start" x="-333.714" y="-451.8" font-family="Times,serif" font-size="14.00">new</text>
<text text-anchor="start" x="-333.714" y="-437.8" font-family="Times,serif" font-size="14.00">show</text>
<text text-anchor="start" x="-333.714" y="-423.8" font-family="Times,serif" font-size="14.00">update</text>
<polyline fill="none" stroke="black" points="-341.714,-417 -236.286,-417 "/>
<polyline fill="none" stroke="black" points="-341.714,-393 -236.286,-393 "/>
<text text-anchor="start" x="-333.714" y="-377.8" font-family="Times,serif" font-size="14.00">_layout</text>
<text text-anchor="start" x="-333.714" y="-363.8" font-family="Times,serif" font-size="14.00">set_user</text>
<text text-anchor="start" x="-333.714" y="-349.8" font-family="Times,serif" font-size="14.00">user_params</text>
</g>
<!-- WebsiteSettingsController -->
<g id="node14" class="node"><title>WebsiteSettingsController</title>
<path fill="none" stroke="black" d="M126.292,113C126.292,113 265.708,113 265.708,113 271.708,113 277.708,107 277.708,101 277.708,101 277.708,-77 277.708,-77 277.708,-83 271.708,-89 265.708,-89 265.708,-89 126.292,-89 126.292,-89 120.292,-89 114.292,-83 114.292,-77 114.292,-77 114.292,101 114.292,101 114.292,107 120.292,113 126.292,113"/>
<text text-anchor="middle" x="196" y="-73.8" font-family="Times,serif" font-size="14.00">WebsiteSettingsController</text>
<polyline fill="none" stroke="black" points="114.292,-67 277.708,-67 "/>
<text text-anchor="start" x="122.292" y="-51.8" font-family="Times,serif" font-size="14.00">create</text>
<text text-anchor="start" x="122.292" y="-37.8" font-family="Times,serif" font-size="14.00">destroy</text>
<text text-anchor="start" x="122.292" y="-23.8" font-family="Times,serif" font-size="14.00">edit</text>
<text text-anchor="start" x="122.292" y="-9.8" font-family="Times,serif" font-size="14.00">index</text>
<text text-anchor="start" x="122.292" y="4.2" font-family="Times,serif" font-size="14.00">new</text>
<text text-anchor="start" x="122.292" y="18.2" font-family="Times,serif" font-size="14.00">show</text>
<text text-anchor="start" x="122.292" y="32.2" font-family="Times,serif" font-size="14.00">update</text>
<polyline fill="none" stroke="black" points="114.292,39 277.708,39 "/>
<polyline fill="none" stroke="black" points="114.292,63 277.708,63 "/>
<text text-anchor="start" x="122.292" y="78.2" font-family="Times,serif" font-size="14.00">_layout</text>
<text text-anchor="start" x="122.292" y="92.2" font-family="Times,serif" font-size="14.00">set_website_setting</text>
<text text-anchor="start" x="122.292" y="106.2" font-family="Times,serif" font-size="14.00">website_setting_params</text>
</g>
</g>
</svg>
