<?xml version="1.0" encoding="UTF-8" standalone="no"?>
<!DOCTYPE svg PUBLIC "-//W3C//DTD SVG 1.1//EN"
 "http://www.w3.org/Graphics/SVG/1.1/DTD/svg11.dtd">
<!-- Generated by graphviz version 2.38.0 (20140413.2041)
 -->
<!-- Title: controllers_diagram Pages: 1 -->
<svg width="810pt" height="952pt"
 viewBox="0.00 0.00 810.01 952.00" xmlns="http://www.w3.org/2000/svg" xmlns:xlink="http://www.w3.org/1999/xlink">
<g id="graph0" class="graph" transform="scale(1 1) rotate(0) translate(364.688 587.5)">
<title>controllers_diagram</title>
<polygon fill="none" stroke="none" points="-364.688,364.5 -364.688,-587.5 445.324,-587.5 445.324,364.5 -364.688,364.5"/>
<!-- _diagram_info -->
<g id="node1" class="node"><title>_diagram_info</title>
<text text-anchor="start" x="-352.688" y="301.9" font-family="Times,serif" font-size="13.00">Controllers diagram</text>
<text text-anchor="start" x="-352.688" y="314.9" font-family="Times,serif" font-size="13.00">Date: May 23 2016 &#45; 19:39</text>
<text text-anchor="start" x="-352.688" y="327.9" font-family="Times,serif" font-size="13.00">Migration version: 20160523232025</text>
<text text-anchor="start" x="-352.688" y="340.9" font-family="Times,serif" font-size="13.00">Generated by RailRoady 1.3.1</text>
<text text-anchor="start" x="-352.688" y="353.9" font-family="Times,serif" font-size="13.00">http://railroady.prestonlee.com</text>
</g>
<!-- ApplicationController -->
<g id="node2" class="node"><title>ApplicationController</title>
<path fill="none" stroke="black" d="M11.8516,-381C11.8516,-381 132.148,-381 132.148,-381 138.148,-381 144.148,-387 144.148,-393 144.148,-393 144.148,-515 144.148,-515 144.148,-521 138.148,-527 132.148,-527 132.148,-527 11.8516,-527 11.8516,-527 5.85156,-527 -0.148438,-521 -0.148438,-515 -0.148438,-515 -0.148438,-393 -0.148438,-393 -0.148438,-387 5.85156,-381 11.8516,-381"/>
<text text-anchor="middle" x="72" y="-511.8" font-family="Times,serif" font-size="14.00">ApplicationController</text>
<polyline fill="none" stroke="black" points="-0.148438,-505 144.148,-505 "/>
<text text-anchor="start" x="7.85156" y="-489.8" font-family="Times,serif" font-size="14.00">after_sign_in_path_for</text>
<text text-anchor="start" x="7.85156" y="-475.8" font-family="Times,serif" font-size="14.00">authenticate_person!</text>
<text text-anchor="start" x="7.85156" y="-461.8" font-family="Times,serif" font-size="14.00">current_people</text>
<text text-anchor="start" x="7.85156" y="-447.8" font-family="Times,serif" font-size="14.00">current_person</text>
<text text-anchor="start" x="7.85156" y="-433.8" font-family="Times,serif" font-size="14.00">person_signed_in?</text>
<polyline fill="none" stroke="black" points="-0.148438,-427 144.148,-427 "/>
<polyline fill="none" stroke="black" points="-0.148438,-403 144.148,-403 "/>
<text text-anchor="start" x="7.85156" y="-387.8" font-family="Times,serif" font-size="14.00">_layout</text>
</g>
<!-- ArticlesController -->
<g id="node3" class="node"><title>ArticlesController</title>
<path fill="none" stroke="black" d="M316.069,303C316.069,303 409.931,303 409.931,303 415.931,303 421.931,297 421.931,291 421.931,291 421.931,113 421.931,113 421.931,107 415.931,101 409.931,101 409.931,101 316.069,101 316.069,101 310.069,101 304.069,107 304.069,113 304.069,113 304.069,291 304.069,291 304.069,297 310.069,303 316.069,303"/>
<text text-anchor="middle" x="363" y="116.2" font-family="Times,serif" font-size="14.00">ArticlesController</text>
<polyline fill="none" stroke="black" points="304.069,123 421.931,123 "/>
<text text-anchor="start" x="312.069" y="138.2" font-family="Times,serif" font-size="14.00">create</text>
<text text-anchor="start" x="312.069" y="152.2" font-family="Times,serif" font-size="14.00">destroy</text>
<text text-anchor="start" x="312.069" y="166.2" font-family="Times,serif" font-size="14.00">edit</text>
<text text-anchor="start" x="312.069" y="180.2" font-family="Times,serif" font-size="14.00">index</text>
<text text-anchor="start" x="312.069" y="194.2" font-family="Times,serif" font-size="14.00">new</text>
<text text-anchor="start" x="312.069" y="208.2" font-family="Times,serif" font-size="14.00">show</text>
<text text-anchor="start" x="312.069" y="222.2" font-family="Times,serif" font-size="14.00">update</text>
<polyline fill="none" stroke="black" points="304.069,229 421.931,229 "/>
<polyline fill="none" stroke="black" points="304.069,253 421.931,253 "/>
<text text-anchor="start" x="312.069" y="268.2" font-family="Times,serif" font-size="14.00">_layout</text>
<text text-anchor="start" x="312.069" y="282.2" font-family="Times,serif" font-size="14.00">article_params</text>
<text text-anchor="start" x="312.069" y="296.2" font-family="Times,serif" font-size="14.00">set_article</text>
</g>
<!-- BackgroundInfosController -->
<g id="node4" class="node"><title>BackgroundInfosController</title>
<path fill="none" stroke="black" d="M-64.3726,-134C-64.3726,-134 82.3726,-134 82.3726,-134 88.3726,-134 94.3726,-140 94.3726,-146 94.3726,-146 94.3726,-324 94.3726,-324 94.3726,-330 88.3726,-336 82.3726,-336 82.3726,-336 -64.3726,-336 -64.3726,-336 -70.3726,-336 -76.3726,-330 -76.3726,-324 -76.3726,-324 -76.3726,-146 -76.3726,-146 -76.3726,-140 -70.3726,-134 -64.3726,-134"/>
<text text-anchor="middle" x="9" y="-320.8" font-family="Times,serif" font-size="14.00">BackgroundInfosController</text>
<polyline fill="none" stroke="black" points="-76.3726,-314 94.3726,-314 "/>
<text text-anchor="start" x="-68.3726" y="-298.8" font-family="Times,serif" font-size="14.00">create</text>
<text text-anchor="start" x="-68.3726" y="-284.8" font-family="Times,serif" font-size="14.00">destroy</text>
<text text-anchor="start" x="-68.3726" y="-270.8" font-family="Times,serif" font-size="14.00">edit</text>
<text text-anchor="start" x="-68.3726" y="-256.8" font-family="Times,serif" font-size="14.00">index</text>
<text text-anchor="start" x="-68.3726" y="-242.8" font-family="Times,serif" font-size="14.00">new</text>
<text text-anchor="start" x="-68.3726" y="-228.8" font-family="Times,serif" font-size="14.00">show</text>
<text text-anchor="start" x="-68.3726" y="-214.8" font-family="Times,serif" font-size="14.00">update</text>
<polyline fill="none" stroke="black" points="-76.3726,-208 94.3726,-208 "/>
<polyline fill="none" stroke="black" points="-76.3726,-184 94.3726,-184 "/>
<text text-anchor="start" x="-68.3726" y="-168.8" font-family="Times,serif" font-size="14.00">_layout</text>
<text text-anchor="start" x="-68.3726" y="-154.8" font-family="Times,serif" font-size="14.00">background_info_params</text>
<text text-anchor="start" x="-68.3726" y="-140.8" font-family="Times,serif" font-size="14.00">set_background_info</text>
</g>
<!-- ExperiencesController -->
<g id="node5" class="node"><title>ExperiencesController</title>
<path fill="none" stroke="black" d="M-253.976,-1C-253.976,-1 -136.024,-1 -136.024,-1 -130.024,-1 -124.024,-7 -124.024,-13 -124.024,-13 -124.024,-191 -124.024,-191 -124.024,-197 -130.024,-203 -136.024,-203 -136.024,-203 -253.976,-203 -253.976,-203 -259.976,-203 -265.976,-197 -265.976,-191 -265.976,-191 -265.976,-13 -265.976,-13 -265.976,-7 -259.976,-1 -253.976,-1"/>
<text text-anchor="middle" x="-195" y="-187.8" font-family="Times,serif" font-size="14.00">ExperiencesController</text>
<polyline fill="none" stroke="black" points="-265.976,-181 -124.024,-181 "/>
<text text-anchor="start" x="-257.976" y="-165.8" font-family="Times,serif" font-size="14.00">create</text>
<text text-anchor="start" x="-257.976" y="-151.8" font-family="Times,serif" font-size="14.00">destroy</text>
<text text-anchor="start" x="-257.976" y="-137.8" font-family="Times,serif" font-size="14.00">edit</text>
<text text-anchor="start" x="-257.976" y="-123.8" font-family="Times,serif" font-size="14.00">index</text>
<text text-anchor="start" x="-257.976" y="-109.8" font-family="Times,serif" font-size="14.00">new</text>
<text text-anchor="start" x="-257.976" y="-95.8" font-family="Times,serif" font-size="14.00">show</text>
<text text-anchor="start" x="-257.976" y="-81.8" font-family="Times,serif" font-size="14.00">update</text>
<polyline fill="none" stroke="black" points="-265.976,-75 -124.024,-75 "/>
<polyline fill="none" stroke="black" points="-265.976,-51 -124.024,-51 "/>
<text text-anchor="start" x="-257.976" y="-35.8" font-family="Times,serif" font-size="14.00">_layout</text>
<text text-anchor="start" x="-257.976" y="-21.8" font-family="Times,serif" font-size="14.00">experience_params</text>
<text text-anchor="start" x="-257.976" y="-7.8" font-family="Times,serif" font-size="14.00">set_experience</text>
</g>
<!-- HomepageInfosController -->
<g id="node6" class="node"><title>HomepageInfosController</title>
<path fill="none" stroke="black" d="M125.521,113C125.521,113 264.479,113 264.479,113 270.479,113 276.479,107 276.479,101 276.479,101 276.479,-77 276.479,-77 276.479,-83 270.479,-89 264.479,-89 264.479,-89 125.521,-89 125.521,-89 119.521,-89 113.521,-83 113.521,-77 113.521,-77 113.521,101 113.521,101 113.521,107 119.521,113 125.521,113"/>
<text text-anchor="middle" x="195" y="-73.8" font-family="Times,serif" font-size="14.00">HomepageInfosController</text>
<polyline fill="none" stroke="black" points="113.521,-67 276.479,-67 "/>
<text text-anchor="start" x="121.521" y="-51.8" font-family="Times,serif" font-size="14.00">create</text>
<text text-anchor="start" x="121.521" y="-37.8" font-family="Times,serif" font-size="14.00">destroy</text>
<text text-anchor="start" x="121.521" y="-23.8" font-family="Times,serif" font-size="14.00">edit</text>
<text text-anchor="start" x="121.521" y="-9.8" font-family="Times,serif" font-size="14.00">index</text>
<text text-anchor="start" x="121.521" y="4.2" font-family="Times,serif" font-size="14.00">new</text>
<text text-anchor="start" x="121.521" y="18.2" font-family="Times,serif" font-size="14.00">show</text>
<text text-anchor="start" x="121.521" y="32.2" font-family="Times,serif" font-size="14.00">update</text>
<polyline fill="none" stroke="black" points="113.521,39 276.479,39 "/>
<polyline fill="none" stroke="black" points="113.521,63 276.479,63 "/>
<text text-anchor="start" x="121.521" y="78.2" font-family="Times,serif" font-size="14.00">_layout</text>
<text text-anchor="start" x="121.521" y="92.2" font-family="Times,serif" font-size="14.00">homepage_info_params</text>
<text text-anchor="start" x="121.521" y="106.2" font-family="Times,serif" font-size="14.00">set_homepage_info</text>
</g>
<!-- PersonalInfosController -->
<g id="node7" class="node"><title>PersonalInfosController</title>
<path fill="none" stroke="black" d="M144.734,-134C144.734,-134 271.266,-134 271.266,-134 277.266,-134 283.266,-140 283.266,-146 283.266,-146 283.266,-338 283.266,-338 283.266,-344 277.266,-350 271.266,-350 271.266,-350 144.734,-350 144.734,-350 138.734,-350 132.734,-344 132.734,-338 132.734,-338 132.734,-146 132.734,-146 132.734,-140 138.734,-134 144.734,-134"/>
<text text-anchor="middle" x="208" y="-334.8" font-family="Times,serif" font-size="14.00">PersonalInfosController</text>
<polyline fill="none" stroke="black" points="132.734,-328 283.266,-328 "/>
<text text-anchor="start" x="140.734" y="-312.8" font-family="Times,serif" font-size="14.00">create</text>
<text text-anchor="start" x="140.734" y="-298.8" font-family="Times,serif" font-size="14.00">delete_exp</text>
<text text-anchor="start" x="140.734" y="-284.8" font-family="Times,serif" font-size="14.00">destroy</text>
<text text-anchor="start" x="140.734" y="-270.8" font-family="Times,serif" font-size="14.00">edit</text>
<text text-anchor="start" x="140.734" y="-256.8" font-family="Times,serif" font-size="14.00">index</text>
<text text-anchor="start" x="140.734" y="-242.8" font-family="Times,serif" font-size="14.00">new</text>
<text text-anchor="start" x="140.734" y="-228.8" font-family="Times,serif" font-size="14.00">show</text>
<text text-anchor="start" x="140.734" y="-214.8" font-family="Times,serif" font-size="14.00">update</text>
<polyline fill="none" stroke="black" points="132.734,-208 283.266,-208 "/>
<polyline fill="none" stroke="black" points="132.734,-184 283.266,-184 "/>
<text text-anchor="start" x="140.734" y="-168.8" font-family="Times,serif" font-size="14.00">_layout</text>
<text text-anchor="start" x="140.734" y="-154.8" font-family="Times,serif" font-size="14.00">personal_info_params</text>
<text text-anchor="start" x="140.734" y="-140.8" font-family="Times,serif" font-size="14.00">set_personal_info</text>
</g>
<!-- PhotoLinksController -->
<g id="node8" class="node"><title>PhotoLinksController</title>
<path fill="none" stroke="black" d="M-235.055,-248C-235.055,-248 -120.945,-248 -120.945,-248 -114.945,-248 -108.945,-254 -108.945,-260 -108.945,-260 -108.945,-438 -108.945,-438 -108.945,-444 -114.945,-450 -120.945,-450 -120.945,-450 -235.055,-450 -235.055,-450 -241.055,-450 -247.055,-444 -247.055,-438 -247.055,-438 -247.055,-260 -247.055,-260 -247.055,-254 -241.055,-248 -235.055,-248"/>
<text text-anchor="middle" x="-178" y="-434.8" font-family="Times,serif" font-size="14.00">PhotoLinksController</text>
<polyline fill="none" stroke="black" points="-247.055,-428 -108.945,-428 "/>
<text text-anchor="start" x="-239.055" y="-412.8" font-family="Times,serif" font-size="14.00">create</text>
<text text-anchor="start" x="-239.055" y="-398.8" font-family="Times,serif" font-size="14.00">destroy</text>
<text text-anchor="start" x="-239.055" y="-384.8" font-family="Times,serif" font-size="14.00">edit</text>
<text text-anchor="start" x="-239.055" y="-370.8" font-family="Times,serif" font-size="14.00">index</text>
<text text-anchor="start" x="-239.055" y="-356.8" font-family="Times,serif" font-size="14.00">new</text>
<text text-anchor="start" x="-239.055" y="-342.8" font-family="Times,serif" font-size="14.00">show</text>
<text text-anchor="start" x="-239.055" y="-328.8" font-family="Times,serif" font-size="14.00">update</text>
<polyline fill="none" stroke="black" points="-247.055,-322 -108.945,-322 "/>
<polyline fill="none" stroke="black" points="-247.055,-298 -108.945,-298 "/>
<text text-anchor="start" x="-239.055" y="-282.8" font-family="Times,serif" font-size="14.00">_layout</text>
<text text-anchor="start" x="-239.055" y="-268.8" font-family="Times,serif" font-size="14.00">photo_link_params</text>
<text text-anchor="start" x="-239.055" y="-254.8" font-family="Times,serif" font-size="14.00">set_photo_link</text>
</g>
<!-- PhotosController -->
<g id="node9" class="node"><title>PhotosController</title>
<path fill="none" stroke="black" d="M88.1655,360C88.1655,360 175.834,360 175.834,360 181.834,360 187.834,354 187.834,348 187.834,348 187.834,170 187.834,170 187.834,164 181.834,158 175.834,158 175.834,158 88.1655,158 88.1655,158 82.1655,158 76.1655,164 76.1655,170 76.1655,170 76.1655,348 76.1655,348 76.1655,354 82.1655,360 88.1655,360"/>
<text text-anchor="middle" x="132" y="173.2" font-family="Times,serif" font-size="14.00">PhotosController</text>
<polyline fill="none" stroke="black" points="76.1655,180 187.834,180 "/>
<text text-anchor="start" x="84.1655" y="195.2" font-family="Times,serif" font-size="14.00">create</text>
<text text-anchor="start" x="84.1655" y="209.2" font-family="Times,serif" font-size="14.00">destroy</text>
<text text-anchor="start" x="84.1655" y="223.2" font-family="Times,serif" font-size="14.00">edit</text>
<text text-anchor="start" x="84.1655" y="237.2" font-family="Times,serif" font-size="14.00">index</text>
<text text-anchor="start" x="84.1655" y="251.2" font-family="Times,serif" font-size="14.00">new</text>
<text text-anchor="start" x="84.1655" y="265.2" font-family="Times,serif" font-size="14.00">show</text>
<text text-anchor="start" x="84.1655" y="279.2" font-family="Times,serif" font-size="14.00">update</text>
<polyline fill="none" stroke="black" points="76.1655,286 187.834,286 "/>
<polyline fill="none" stroke="black" points="76.1655,310 187.834,310 "/>
<text text-anchor="start" x="84.1655" y="325.2" font-family="Times,serif" font-size="14.00">_layout</text>
<text text-anchor="start" x="84.1655" y="339.2" font-family="Times,serif" font-size="14.00">photo_params</text>
<text text-anchor="start" x="84.1655" y="353.2" font-family="Times,serif" font-size="14.00">set_photo</text>
</g>
<!-- ProjectsController -->
<g id="node10" class="node"><title>ProjectsController</title>
<path fill="none" stroke="black" d="M334.676,56C334.676,56 429.324,56 429.324,56 435.324,56 441.324,50 441.324,44 441.324,44 441.324,-134 441.324,-134 441.324,-140 435.324,-146 429.324,-146 429.324,-146 334.676,-146 334.676,-146 328.676,-146 322.676,-140 322.676,-134 322.676,-134 322.676,44 322.676,44 322.676,50 328.676,56 334.676,56"/>
<text text-anchor="middle" x="382" y="-130.8" font-family="Times,serif" font-size="14.00">ProjectsController</text>
<polyline fill="none" stroke="black" points="322.676,-124 441.324,-124 "/>
<text text-anchor="start" x="330.676" y="-108.8" font-family="Times,serif" font-size="14.00">create</text>
<text text-anchor="start" x="330.676" y="-94.8" font-family="Times,serif" font-size="14.00">destroy</text>
<text text-anchor="start" x="330.676" y="-80.8" font-family="Times,serif" font-size="14.00">edit</text>
<text text-anchor="start" x="330.676" y="-66.8" font-family="Times,serif" font-size="14.00">index</text>
<text text-anchor="start" x="330.676" y="-52.8" font-family="Times,serif" font-size="14.00">new</text>
<text text-anchor="start" x="330.676" y="-38.8" font-family="Times,serif" font-size="14.00">show</text>
<text text-anchor="start" x="330.676" y="-24.8" font-family="Times,serif" font-size="14.00">update</text>
<polyline fill="none" stroke="black" points="322.676,-18 441.324,-18 "/>
<polyline fill="none" stroke="black" points="322.676,6 441.324,6 "/>
<text text-anchor="start" x="330.676" y="21.2" font-family="Times,serif" font-size="14.00">_layout</text>
<text text-anchor="start" x="330.676" y="35.2" font-family="Times,serif" font-size="14.00">project_params</text>
<text text-anchor="start" x="330.676" y="49.2" font-family="Times,serif" font-size="14.00">set_project</text>
</g>
<!-- SchoolsController -->
<g id="node11" class="node"><title>SchoolsController</title>
<path fill="none" stroke="black" d="M335.059,-191C335.059,-191 428.941,-191 428.941,-191 434.941,-191 440.941,-197 440.941,-203 440.941,-203 440.941,-381 440.941,-381 440.941,-387 434.941,-393 428.941,-393 428.941,-393 335.059,-393 335.059,-393 329.059,-393 323.059,-387 323.059,-381 323.059,-381 323.059,-203 323.059,-203 323.059,-197 329.059,-191 335.059,-191"/>
<text text-anchor="middle" x="382" y="-377.8" font-family="Times,serif" font-size="14.00">SchoolsController</text>
<polyline fill="none" stroke="black" points="323.059,-371 440.941,-371 "/>
<text text-anchor="start" x="331.059" y="-355.8" font-family="Times,serif" font-size="14.00">create</text>
<text text-anchor="start" x="331.059" y="-341.8" font-family="Times,serif" font-size="14.00">destroy</text>
<text text-anchor="start" x="331.059" y="-327.8" font-family="Times,serif" font-size="14.00">edit</text>
<text text-anchor="start" x="331.059" y="-313.8" font-family="Times,serif" font-size="14.00">index</text>
<text text-anchor="start" x="331.059" y="-299.8" font-family="Times,serif" font-size="14.00">new</text>
<text text-anchor="start" x="331.059" y="-285.8" font-family="Times,serif" font-size="14.00">show</text>
<text text-anchor="start" x="331.059" y="-271.8" font-family="Times,serif" font-size="14.00">update</text>
<polyline fill="none" stroke="black" points="323.059,-265 440.941,-265 "/>
<polyline fill="none" stroke="black" points="323.059,-241 440.941,-241 "/>
<text text-anchor="start" x="331.059" y="-225.8" font-family="Times,serif" font-size="14.00">_layout</text>
<text text-anchor="start" x="331.059" y="-211.8" font-family="Times,serif" font-size="14.00">school_params</text>
<text text-anchor="start" x="331.059" y="-197.8" font-family="Times,serif" font-size="14.00">set_school</text>
</g>
<!-- ShowcasesController -->
<g id="node12" class="node"><title>ShowcasesController</title>
<path fill="none" stroke="black" d="M-83.4897,360C-83.4897,360 27.4897,360 27.4897,360 33.4897,360 39.4897,354 39.4897,348 39.4897,348 39.4897,170 39.4897,170 39.4897,164 33.4897,158 27.4897,158 27.4897,158 -83.4897,158 -83.4897,158 -89.4897,158 -95.4897,164 -95.4897,170 -95.4897,170 -95.4897,348 -95.4897,348 -95.4897,354 -89.4897,360 -83.4897,360"/>
<text text-anchor="middle" x="-28" y="173.2" font-family="Times,serif" font-size="14.00">ShowcasesController</text>
<polyline fill="none" stroke="black" points="-95.4897,180 39.4897,180 "/>
<text text-anchor="start" x="-87.4897" y="195.2" font-family="Times,serif" font-size="14.00">create</text>
<text text-anchor="start" x="-87.4897" y="209.2" font-family="Times,serif" font-size="14.00">destroy</text>
<text text-anchor="start" x="-87.4897" y="223.2" font-family="Times,serif" font-size="14.00">edit</text>
<text text-anchor="start" x="-87.4897" y="237.2" font-family="Times,serif" font-size="14.00">index</text>
<text text-anchor="start" x="-87.4897" y="251.2" font-family="Times,serif" font-size="14.00">new</text>
<text text-anchor="start" x="-87.4897" y="265.2" font-family="Times,serif" font-size="14.00">show</text>
<text text-anchor="start" x="-87.4897" y="279.2" font-family="Times,serif" font-size="14.00">update</text>
<polyline fill="none" stroke="black" points="-95.4897,286 39.4897,286 "/>
<polyline fill="none" stroke="black" points="-95.4897,310 39.4897,310 "/>
<text text-anchor="start" x="-87.4897" y="325.2" font-family="Times,serif" font-size="14.00">_layout</text>
<text text-anchor="start" x="-87.4897" y="339.2" font-family="Times,serif" font-size="14.00">set_showcase</text>
<text text-anchor="start" x="-87.4897" y="353.2" font-family="Times,serif" font-size="14.00">showcase_params</text>
</g>
<!-- SocialLinksController -->
<g id="node13" class="node"><title>SocialLinksController</title>
<path fill="none" stroke="black" d="M-254.214,246C-254.214,246 -137.786,246 -137.786,246 -131.786,246 -125.786,240 -125.786,234 -125.786,234 -125.786,56 -125.786,56 -125.786,50 -131.786,44 -137.786,44 -137.786,44 -254.214,44 -254.214,44 -260.214,44 -266.214,50 -266.214,56 -266.214,56 -266.214,234 -266.214,234 -266.214,240 -260.214,246 -254.214,246"/>
<text text-anchor="middle" x="-196" y="59.2" font-family="Times,serif" font-size="14.00">SocialLinksController</text>
<polyline fill="none" stroke="black" points="-266.214,66 -125.786,66 "/>
<text text-anchor="start" x="-258.214" y="81.2" font-family="Times,serif" font-size="14.00">create</text>
<text text-anchor="start" x="-258.214" y="95.2" font-family="Times,serif" font-size="14.00">destroy</text>
<text text-anchor="start" x="-258.214" y="109.2" font-family="Times,serif" font-size="14.00">edit</text>
<text text-anchor="start" x="-258.214" y="123.2" font-family="Times,serif" font-size="14.00">index</text>
<text text-anchor="start" x="-258.214" y="137.2" font-family="Times,serif" font-size="14.00">new</text>
<text text-anchor="start" x="-258.214" y="151.2" font-family="Times,serif" font-size="14.00">show</text>
<text text-anchor="start" x="-258.214" y="165.2" font-family="Times,serif" font-size="14.00">update</text>
<polyline fill="none" stroke="black" points="-266.214,172 -125.786,172 "/>
<polyline fill="none" stroke="black" points="-266.214,196 -125.786,196 "/>
<text text-anchor="start" x="-258.214" y="211.2" font-family="Times,serif" font-size="14.00">_layout</text>
<text text-anchor="start" x="-258.214" y="225.2" font-family="Times,serif" font-size="14.00">set_social_link</text>
<text text-anchor="start" x="-258.214" y="239.2" font-family="Times,serif" font-size="14.00">social_link_params</text>
</g>
<!-- UsersController -->
<g id="node14" class="node"><title>UsersController</title>
<path fill="none" stroke="black" d="M202.286,-381C202.286,-381 283.714,-381 283.714,-381 289.714,-381 295.714,-387 295.714,-393 295.714,-393 295.714,-571 295.714,-571 295.714,-577 289.714,-583 283.714,-583 283.714,-583 202.286,-583 202.286,-583 196.286,-583 190.286,-577 190.286,-571 190.286,-571 190.286,-393 190.286,-393 190.286,-387 196.286,-381 202.286,-381"/>
<text text-anchor="middle" x="243" y="-567.8" font-family="Times,serif" font-size="14.00">UsersController</text>
<polyline fill="none" stroke="black" points="190.286,-561 295.714,-561 "/>
<text text-anchor="start" x="198.286" y="-545.8" font-family="Times,serif" font-size="14.00">create</text>
<text text-anchor="start" x="198.286" y="-531.8" font-family="Times,serif" font-size="14.00">destroy</text>
<text text-anchor="start" x="198.286" y="-517.8" font-family="Times,serif" font-size="14.00">edit</text>
<text text-anchor="start" x="198.286" y="-503.8" font-family="Times,serif" font-size="14.00">index</text>
<text text-anchor="start" x="198.286" y="-489.8" font-family="Times,serif" font-size="14.00">new</text>
<text text-anchor="start" x="198.286" y="-475.8" font-family="Times,serif" font-size="14.00">show</text>
<text text-anchor="start" x="198.286" y="-461.8" font-family="Times,serif" font-size="14.00">update</text>
<polyline fill="none" stroke="black" points="190.286,-455 295.714,-455 "/>
<polyline fill="none" stroke="black" points="190.286,-431 295.714,-431 "/>
<text text-anchor="start" x="198.286" y="-415.8" font-family="Times,serif" font-size="14.00">_layout</text>
<text text-anchor="start" x="198.286" y="-401.8" font-family="Times,serif" font-size="14.00">set_user</text>
<text text-anchor="start" x="198.286" y="-387.8" font-family="Times,serif" font-size="14.00">user_params</text>
</g>
<!-- WebsiteSettingsController -->
<g id="node15" class="node"><title>WebsiteSettingsController</title>
<path fill="none" stroke="black" d="M-82.7085,113C-82.7085,113 56.7085,113 56.7085,113 62.7085,113 68.7085,107 68.7085,101 68.7085,101 68.7085,-77 68.7085,-77 68.7085,-83 62.7085,-89 56.7085,-89 56.7085,-89 -82.7085,-89 -82.7085,-89 -88.7085,-89 -94.7085,-83 -94.7085,-77 -94.7085,-77 -94.7085,101 -94.7085,101 -94.7085,107 -88.7085,113 -82.7085,113"/>
<text text-anchor="middle" x="-13" y="-73.8" font-family="Times,serif" font-size="14.00">WebsiteSettingsController</text>
<polyline fill="none" stroke="black" points="-94.7085,-67 68.7085,-67 "/>
<text text-anchor="start" x="-86.7085" y="-51.8" font-family="Times,serif" font-size="14.00">create</text>
<text text-anchor="start" x="-86.7085" y="-37.8" font-family="Times,serif" font-size="14.00">destroy</text>
<text text-anchor="start" x="-86.7085" y="-23.8" font-family="Times,serif" font-size="14.00">edit</text>
<text text-anchor="start" x="-86.7085" y="-9.8" font-family="Times,serif" font-size="14.00">index</text>
<text text-anchor="start" x="-86.7085" y="4.2" font-family="Times,serif" font-size="14.00">new</text>
<text text-anchor="start" x="-86.7085" y="18.2" font-family="Times,serif" font-size="14.00">show</text>
<text text-anchor="start" x="-86.7085" y="32.2" font-family="Times,serif" font-size="14.00">update</text>
<polyline fill="none" stroke="black" points="-94.7085,39 68.7085,39 "/>
<polyline fill="none" stroke="black" points="-94.7085,63 68.7085,63 "/>
<text text-anchor="start" x="-86.7085" y="78.2" font-family="Times,serif" font-size="14.00">_layout</text>
<text text-anchor="start" x="-86.7085" y="92.2" font-family="Times,serif" font-size="14.00">set_website_setting</text>
<text text-anchor="start" x="-86.7085" y="106.2" font-family="Times,serif" font-size="14.00">website_setting_params</text>
</g>
</g>
</svg>
