<?xml version="1.0" encoding="UTF-8" standalone="no"?>
<!DOCTYPE svg PUBLIC "-//W3C//DTD SVG 1.1//EN"
 "http://www.w3.org/Graphics/SVG/1.1/DTD/svg11.dtd">
<!-- Generated by graphviz version 2.38.0 (20140413.2041)
 -->
<!-- Title: controllers_diagram Pages: 1 -->
<svg width="1184pt" height="1123pt"
 viewBox="0.00 0.00 1183.59 1123.00" xmlns="http://www.w3.org/2000/svg" xmlns:xlink="http://www.w3.org/1999/xlink">
<g id="graph0" class="graph" transform="scale(1 1) rotate(0) translate(498.048 625.5)">
<title>controllers_diagram</title>
<polygon fill="none" stroke="none" points="-498.048,497.5 -498.048,-625.5 685.545,-625.5 685.545,497.5 -498.048,497.5"/>
<!-- _diagram_info -->
<g id="node1" class="node"><title>_diagram_info</title>
<text text-anchor="start" x="-143.688" y="415.9" font-family="Times,serif" font-size="13.00">Controllers diagram</text>
<text text-anchor="start" x="-143.688" y="428.9" font-family="Times,serif" font-size="13.00">Date: Sep 29 2016 &#45; 19:36</text>
<text text-anchor="start" x="-143.688" y="441.9" font-family="Times,serif" font-size="13.00">Migration version: 20160929233357</text>
<text text-anchor="start" x="-143.688" y="454.9" font-family="Times,serif" font-size="13.00">Generated by RailRoady 1.3.1</text>
<text text-anchor="start" x="-143.688" y="467.9" font-family="Times,serif" font-size="13.00">http://railroady.prestonlee.com</text>
</g>
<!-- Admins::RegistrationsController -->
<g id="node2" class="node"><title>Admins::RegistrationsController</title>
<path fill="none" stroke="black" d="M202.228,455C202.228,455 377.772,455 377.772,455 383.772,455 389.772,449 389.772,443 389.772,443 389.772,363 389.772,363 389.772,357 383.772,351 377.772,351 377.772,351 202.228,351 202.228,351 196.228,351 190.228,357 190.228,363 190.228,363 190.228,443 190.228,443 190.228,449 196.228,455 202.228,455"/>
<text text-anchor="middle" x="290" y="366.2" font-family="Times,serif" font-size="14.00">Admins::RegistrationsController</text>
<polyline fill="none" stroke="black" points="190.228,373 389.772,373 "/>
<polyline fill="none" stroke="black" points="190.228,397 389.772,397 "/>
<text text-anchor="start" x="198.228" y="412.2" font-family="Times,serif" font-size="14.00">after_sign_up_path_for</text>
<text text-anchor="start" x="198.228" y="426.2" font-family="Times,serif" font-size="14.00">sign_up</text>
<polyline fill="none" stroke="black" points="190.228,433 389.772,433 "/>
<text text-anchor="start" x="198.228" y="448.2" font-family="Times,serif" font-size="14.00">_layout</text>
</g>
<!-- AdminsController -->
<g id="node3" class="node"><title>AdminsController</title>
<path fill="none" stroke="black" d="M-329.941,-343C-329.941,-343 -236.059,-343 -236.059,-343 -230.059,-343 -224.059,-349 -224.059,-355 -224.059,-355 -224.059,-533 -224.059,-533 -224.059,-539 -230.059,-545 -236.059,-545 -236.059,-545 -329.941,-545 -329.941,-545 -335.941,-545 -341.941,-539 -341.941,-533 -341.941,-533 -341.941,-355 -341.941,-355 -341.941,-349 -335.941,-343 -329.941,-343"/>
<text text-anchor="middle" x="-283" y="-529.8" font-family="Times,serif" font-size="14.00">AdminsController</text>
<polyline fill="none" stroke="black" points="-341.941,-523 -224.059,-523 "/>
<text text-anchor="start" x="-333.941" y="-507.8" font-family="Times,serif" font-size="14.00">create</text>
<text text-anchor="start" x="-333.941" y="-493.8" font-family="Times,serif" font-size="14.00">destroy</text>
<text text-anchor="start" x="-333.941" y="-479.8" font-family="Times,serif" font-size="14.00">edit</text>
<text text-anchor="start" x="-333.941" y="-465.8" font-family="Times,serif" font-size="14.00">index</text>
<text text-anchor="start" x="-333.941" y="-451.8" font-family="Times,serif" font-size="14.00">new</text>
<text text-anchor="start" x="-333.941" y="-437.8" font-family="Times,serif" font-size="14.00">show</text>
<text text-anchor="start" x="-333.941" y="-423.8" font-family="Times,serif" font-size="14.00">update</text>
<polyline fill="none" stroke="black" points="-341.941,-417 -224.059,-417 "/>
<polyline fill="none" stroke="black" points="-341.941,-393 -224.059,-393 "/>
<text text-anchor="start" x="-333.941" y="-377.8" font-family="Times,serif" font-size="14.00">_layout</text>
<text text-anchor="start" x="-333.941" y="-363.8" font-family="Times,serif" font-size="14.00">admin_params</text>
<text text-anchor="start" x="-333.941" y="-349.8" font-family="Times,serif" font-size="14.00">set_admin</text>
</g>
<!-- AnalyticsController -->
<g id="node4" class="node"><title>AnalyticsController</title>
<path fill="none" stroke="black" d="M-120.6,360C-120.6,360 -17.3999,360 -17.3999,360 -11.3999,360 -5.3999,354 -5.3999,348 -5.3999,348 -5.3999,170 -5.3999,170 -5.3999,164 -11.3999,158 -17.3999,158 -17.3999,158 -120.6,158 -120.6,158 -126.6,158 -132.6,164 -132.6,170 -132.6,170 -132.6,348 -132.6,348 -132.6,354 -126.6,360 -120.6,360"/>
<text text-anchor="middle" x="-69" y="173.2" font-family="Times,serif" font-size="14.00">AnalyticsController</text>
<polyline fill="none" stroke="black" points="-132.6,180 -5.3999,180 "/>
<text text-anchor="start" x="-124.6" y="195.2" font-family="Times,serif" font-size="14.00">create</text>
<text text-anchor="start" x="-124.6" y="209.2" font-family="Times,serif" font-size="14.00">destroy</text>
<text text-anchor="start" x="-124.6" y="223.2" font-family="Times,serif" font-size="14.00">edit</text>
<text text-anchor="start" x="-124.6" y="237.2" font-family="Times,serif" font-size="14.00">index</text>
<text text-anchor="start" x="-124.6" y="251.2" font-family="Times,serif" font-size="14.00">new</text>
<text text-anchor="start" x="-124.6" y="265.2" font-family="Times,serif" font-size="14.00">show</text>
<text text-anchor="start" x="-124.6" y="279.2" font-family="Times,serif" font-size="14.00">update</text>
<polyline fill="none" stroke="black" points="-132.6,286 -5.3999,286 "/>
<polyline fill="none" stroke="black" points="-132.6,310 -5.3999,310 "/>
<text text-anchor="start" x="-124.6" y="325.2" font-family="Times,serif" font-size="14.00">_layout</text>
<text text-anchor="start" x="-124.6" y="339.2" font-family="Times,serif" font-size="14.00">analytic_params</text>
<text text-anchor="start" x="-124.6" y="353.2" font-family="Times,serif" font-size="14.00">set_analytic</text>
</g>
<!-- ApplicationController -->
<g id="node5" class="node"><title>ApplicationController</title>
<path fill="none" stroke="black" d="M-329.638,493C-329.638,493 -202.362,493 -202.362,493 -196.362,493 -190.362,487 -190.362,481 -190.362,481 -190.362,347 -190.362,347 -190.362,341 -196.362,335 -202.362,335 -202.362,335 -329.638,335 -329.638,335 -335.638,335 -341.638,341 -341.638,347 -341.638,347 -341.638,481 -341.638,481 -341.638,487 -335.638,493 -329.638,493"/>
<text text-anchor="middle" x="-266" y="350.2" font-family="Times,serif" font-size="14.00">ApplicationController</text>
<polyline fill="none" stroke="black" points="-341.638,357 -190.362,357 "/>
<text text-anchor="start" x="-333.638" y="372.2" font-family="Times,serif" font-size="14.00">authenticate_person!</text>
<text text-anchor="start" x="-333.638" y="386.2" font-family="Times,serif" font-size="14.00">current_people</text>
<text text-anchor="start" x="-333.638" y="400.2" font-family="Times,serif" font-size="14.00">current_person</text>
<text text-anchor="start" x="-333.638" y="414.2" font-family="Times,serif" font-size="14.00">person_signed_in?</text>
<polyline fill="none" stroke="black" points="-341.638,421 -190.362,421 "/>
<text text-anchor="start" x="-333.638" y="436.2" font-family="Times,serif" font-size="14.00">account_update_params</text>
<text text-anchor="start" x="-333.638" y="450.2" font-family="Times,serif" font-size="14.00">after_sign_in_path_for</text>
<text text-anchor="start" x="-333.638" y="464.2" font-family="Times,serif" font-size="14.00">current_ability</text>
<polyline fill="none" stroke="black" points="-341.638,471 -190.362,471 "/>
<text text-anchor="start" x="-333.638" y="486.2" font-family="Times,serif" font-size="14.00">_layout</text>
</g>
<!-- ArticlesController -->
<g id="node6" class="node"><title>ArticlesController</title>
<path fill="none" stroke="black" d="M-443.931,246C-443.931,246 -350.069,246 -350.069,246 -344.069,246 -338.069,240 -338.069,234 -338.069,234 -338.069,56 -338.069,56 -338.069,50 -344.069,44 -350.069,44 -350.069,44 -443.931,44 -443.931,44 -449.931,44 -455.931,50 -455.931,56 -455.931,56 -455.931,234 -455.931,234 -455.931,240 -449.931,246 -443.931,246"/>
<text text-anchor="middle" x="-397" y="59.2" font-family="Times,serif" font-size="14.00">ArticlesController</text>
<polyline fill="none" stroke="black" points="-455.931,66 -338.069,66 "/>
<text text-anchor="start" x="-447.931" y="81.2" font-family="Times,serif" font-size="14.00">create</text>
<text text-anchor="start" x="-447.931" y="95.2" font-family="Times,serif" font-size="14.00">destroy</text>
<text text-anchor="start" x="-447.931" y="109.2" font-family="Times,serif" font-size="14.00">edit</text>
<text text-anchor="start" x="-447.931" y="123.2" font-family="Times,serif" font-size="14.00">index</text>
<text text-anchor="start" x="-447.931" y="137.2" font-family="Times,serif" font-size="14.00">new</text>
<text text-anchor="start" x="-447.931" y="151.2" font-family="Times,serif" font-size="14.00">show</text>
<text text-anchor="start" x="-447.931" y="165.2" font-family="Times,serif" font-size="14.00">update</text>
<polyline fill="none" stroke="black" points="-455.931,172 -338.069,172 "/>
<polyline fill="none" stroke="black" points="-455.931,196 -338.069,196 "/>
<text text-anchor="start" x="-447.931" y="211.2" font-family="Times,serif" font-size="14.00">_layout</text>
<text text-anchor="start" x="-447.931" y="225.2" font-family="Times,serif" font-size="14.00">article_params</text>
<text text-anchor="start" x="-447.931" y="239.2" font-family="Times,serif" font-size="14.00">set_article</text>
</g>
<!-- BackgroundInfosController -->
<g id="node7" class="node"><title>BackgroundInfosController</title>
<path fill="none" stroke="black" d="M125.627,113C125.627,113 272.373,113 272.373,113 278.373,113 284.373,107 284.373,101 284.373,101 284.373,-77 284.373,-77 284.373,-83 278.373,-89 272.373,-89 272.373,-89 125.627,-89 125.627,-89 119.627,-89 113.627,-83 113.627,-77 113.627,-77 113.627,101 113.627,101 113.627,107 119.627,113 125.627,113"/>
<text text-anchor="middle" x="199" y="-73.8" font-family="Times,serif" font-size="14.00">BackgroundInfosController</text>
<polyline fill="none" stroke="black" points="113.627,-67 284.373,-67 "/>
<text text-anchor="start" x="121.627" y="-51.8" font-family="Times,serif" font-size="14.00">create</text>
<text text-anchor="start" x="121.627" y="-37.8" font-family="Times,serif" font-size="14.00">destroy</text>
<text text-anchor="start" x="121.627" y="-23.8" font-family="Times,serif" font-size="14.00">edit</text>
<text text-anchor="start" x="121.627" y="-9.8" font-family="Times,serif" font-size="14.00">index</text>
<text text-anchor="start" x="121.627" y="4.2" font-family="Times,serif" font-size="14.00">new</text>
<text text-anchor="start" x="121.627" y="18.2" font-family="Times,serif" font-size="14.00">show</text>
<text text-anchor="start" x="121.627" y="32.2" font-family="Times,serif" font-size="14.00">update</text>
<polyline fill="none" stroke="black" points="113.627,39 284.373,39 "/>
<polyline fill="none" stroke="black" points="113.627,63 284.373,63 "/>
<text text-anchor="start" x="121.627" y="78.2" font-family="Times,serif" font-size="14.00">_layout</text>
<text text-anchor="start" x="121.627" y="92.2" font-family="Times,serif" font-size="14.00">background_info_params</text>
<text text-anchor="start" x="121.627" y="106.2" font-family="Times,serif" font-size="14.00">set_background_info</text>
</g>
<!-- Clerks::RegistrationsController -->
<g id="node8" class="node"><title>Clerks::RegistrationsController</title>
<path fill="none" stroke="black" d="M-139.879,-476C-139.879,-476 27.8794,-476 27.8794,-476 33.8794,-476 39.8794,-482 39.8794,-488 39.8794,-488 39.8794,-596 39.8794,-596 39.8794,-602 33.8794,-608 27.8794,-608 27.8794,-608 -139.879,-608 -139.879,-608 -145.879,-608 -151.879,-602 -151.879,-596 -151.879,-596 -151.879,-488 -151.879,-488 -151.879,-482 -145.879,-476 -139.879,-476"/>
<text text-anchor="middle" x="-56" y="-592.8" font-family="Times,serif" font-size="14.00">Clerks::RegistrationsController</text>
<polyline fill="none" stroke="black" points="-151.879,-586 39.8794,-586 "/>
<polyline fill="none" stroke="black" points="-151.879,-562 39.8794,-562 "/>
<text text-anchor="start" x="-143.879" y="-546.8" font-family="Times,serif" font-size="14.00">account_update_params</text>
<text text-anchor="start" x="-143.879" y="-532.8" font-family="Times,serif" font-size="14.00">after_sign_up_path_for</text>
<text text-anchor="start" x="-143.879" y="-518.8" font-family="Times,serif" font-size="14.00">sign_up</text>
<text text-anchor="start" x="-143.879" y="-504.8" font-family="Times,serif" font-size="14.00">sign_up_params</text>
<polyline fill="none" stroke="black" points="-151.879,-498 39.8794,-498 "/>
<text text-anchor="start" x="-143.879" y="-482.8" font-family="Times,serif" font-size="14.00">_layout</text>
</g>
<!-- ClerksController -->
<g id="node9" class="node"><title>ClerksController</title>
<path fill="none" stroke="black" d="M-482.048,493C-482.048,493 -395.952,493 -395.952,493 -389.952,493 -383.952,487 -383.952,481 -383.952,481 -383.952,303 -383.952,303 -383.952,297 -389.952,291 -395.952,291 -395.952,291 -482.048,291 -482.048,291 -488.048,291 -494.048,297 -494.048,303 -494.048,303 -494.048,481 -494.048,481 -494.048,487 -488.048,493 -482.048,493"/>
<text text-anchor="middle" x="-439" y="306.2" font-family="Times,serif" font-size="14.00">ClerksController</text>
<polyline fill="none" stroke="black" points="-494.048,313 -383.952,313 "/>
<text text-anchor="start" x="-486.048" y="328.2" font-family="Times,serif" font-size="14.00">create</text>
<text text-anchor="start" x="-486.048" y="342.2" font-family="Times,serif" font-size="14.00">destroy</text>
<text text-anchor="start" x="-486.048" y="356.2" font-family="Times,serif" font-size="14.00">edit</text>
<text text-anchor="start" x="-486.048" y="370.2" font-family="Times,serif" font-size="14.00">index</text>
<text text-anchor="start" x="-486.048" y="384.2" font-family="Times,serif" font-size="14.00">new</text>
<text text-anchor="start" x="-486.048" y="398.2" font-family="Times,serif" font-size="14.00">show</text>
<text text-anchor="start" x="-486.048" y="412.2" font-family="Times,serif" font-size="14.00">update</text>
<polyline fill="none" stroke="black" points="-494.048,419 -383.952,419 "/>
<polyline fill="none" stroke="black" points="-494.048,443 -383.952,443 "/>
<text text-anchor="start" x="-486.048" y="458.2" font-family="Times,serif" font-size="14.00">_layout</text>
<text text-anchor="start" x="-486.048" y="472.2" font-family="Times,serif" font-size="14.00">clerk_params</text>
<text text-anchor="start" x="-486.048" y="486.2" font-family="Times,serif" font-size="14.00">set_clerk</text>
</g>
<!-- DemosController -->
<g id="node10" class="node"><title>DemosController</title>
<path fill="none" stroke="black" d="M506.396,493C506.396,493 595.604,493 595.604,493 601.604,493 607.604,487 607.604,481 607.604,481 607.604,303 607.604,303 607.604,297 601.604,291 595.604,291 595.604,291 506.396,291 506.396,291 500.396,291 494.396,297 494.396,303 494.396,303 494.396,481 494.396,481 494.396,487 500.396,493 506.396,493"/>
<text text-anchor="middle" x="551" y="306.2" font-family="Times,serif" font-size="14.00">DemosController</text>
<polyline fill="none" stroke="black" points="494.396,313 607.604,313 "/>
<text text-anchor="start" x="502.396" y="328.2" font-family="Times,serif" font-size="14.00">create</text>
<text text-anchor="start" x="502.396" y="342.2" font-family="Times,serif" font-size="14.00">destroy</text>
<text text-anchor="start" x="502.396" y="356.2" font-family="Times,serif" font-size="14.00">edit</text>
<text text-anchor="start" x="502.396" y="370.2" font-family="Times,serif" font-size="14.00">index</text>
<text text-anchor="start" x="502.396" y="384.2" font-family="Times,serif" font-size="14.00">new</text>
<text text-anchor="start" x="502.396" y="398.2" font-family="Times,serif" font-size="14.00">show</text>
<text text-anchor="start" x="502.396" y="412.2" font-family="Times,serif" font-size="14.00">update</text>
<polyline fill="none" stroke="black" points="494.396,419 607.604,419 "/>
<polyline fill="none" stroke="black" points="494.396,443 607.604,443 "/>
<text text-anchor="start" x="502.396" y="458.2" font-family="Times,serif" font-size="14.00">_layout</text>
<text text-anchor="start" x="502.396" y="472.2" font-family="Times,serif" font-size="14.00">demo_params</text>
<text text-anchor="start" x="502.396" y="486.2" font-family="Times,serif" font-size="14.00">set_demo</text>
</g>
<!-- DomainsController -->
<g id="node11" class="node"><title>DomainsController</title>
<path fill="none" stroke="black" d="M334.952,-172C334.952,-172 435.048,-172 435.048,-172 441.048,-172 447.048,-178 447.048,-184 447.048,-184 447.048,-362 447.048,-362 447.048,-368 441.048,-374 435.048,-374 435.048,-374 334.952,-374 334.952,-374 328.952,-374 322.952,-368 322.952,-362 322.952,-362 322.952,-184 322.952,-184 322.952,-178 328.952,-172 334.952,-172"/>
<text text-anchor="middle" x="385" y="-358.8" font-family="Times,serif" font-size="14.00">DomainsController</text>
<polyline fill="none" stroke="black" points="322.952,-352 447.048,-352 "/>
<text text-anchor="start" x="330.952" y="-336.8" font-family="Times,serif" font-size="14.00">create</text>
<text text-anchor="start" x="330.952" y="-322.8" font-family="Times,serif" font-size="14.00">destroy</text>
<text text-anchor="start" x="330.952" y="-308.8" font-family="Times,serif" font-size="14.00">edit</text>
<text text-anchor="start" x="330.952" y="-294.8" font-family="Times,serif" font-size="14.00">index</text>
<text text-anchor="start" x="330.952" y="-280.8" font-family="Times,serif" font-size="14.00">new</text>
<text text-anchor="start" x="330.952" y="-266.8" font-family="Times,serif" font-size="14.00">show</text>
<text text-anchor="start" x="330.952" y="-252.8" font-family="Times,serif" font-size="14.00">update</text>
<polyline fill="none" stroke="black" points="322.952,-246 447.048,-246 "/>
<polyline fill="none" stroke="black" points="322.952,-222 447.048,-222 "/>
<text text-anchor="start" x="330.952" y="-206.8" font-family="Times,serif" font-size="14.00">_layout</text>
<text text-anchor="start" x="330.952" y="-192.8" font-family="Times,serif" font-size="14.00">domain_params</text>
<text text-anchor="start" x="330.952" y="-178.8" font-family="Times,serif" font-size="14.00">set_domain</text>
</g>
<!-- ExperiencesController -->
<g id="node12" class="node"><title>ExperiencesController</title>
<path fill="none" stroke="black" d="M335.024,322C335.024,322 452.976,322 452.976,322 458.976,322 464.976,316 464.976,310 464.976,310 464.976,132 464.976,132 464.976,126 458.976,120 452.976,120 452.976,120 335.024,120 335.024,120 329.024,120 323.024,126 323.024,132 323.024,132 323.024,310 323.024,310 323.024,316 329.024,322 335.024,322"/>
<text text-anchor="middle" x="394" y="135.2" font-family="Times,serif" font-size="14.00">ExperiencesController</text>
<polyline fill="none" stroke="black" points="323.024,142 464.976,142 "/>
<text text-anchor="start" x="331.024" y="157.2" font-family="Times,serif" font-size="14.00">create</text>
<text text-anchor="start" x="331.024" y="171.2" font-family="Times,serif" font-size="14.00">destroy</text>
<text text-anchor="start" x="331.024" y="185.2" font-family="Times,serif" font-size="14.00">edit</text>
<text text-anchor="start" x="331.024" y="199.2" font-family="Times,serif" font-size="14.00">index</text>
<text text-anchor="start" x="331.024" y="213.2" font-family="Times,serif" font-size="14.00">new</text>
<text text-anchor="start" x="331.024" y="227.2" font-family="Times,serif" font-size="14.00">show</text>
<text text-anchor="start" x="331.024" y="241.2" font-family="Times,serif" font-size="14.00">update</text>
<polyline fill="none" stroke="black" points="323.024,248 464.976,248 "/>
<polyline fill="none" stroke="black" points="323.024,272 464.976,272 "/>
<text text-anchor="start" x="331.024" y="287.2" font-family="Times,serif" font-size="14.00">_layout</text>
<text text-anchor="start" x="331.024" y="301.2" font-family="Times,serif" font-size="14.00">experience_params</text>
<text text-anchor="start" x="331.024" y="315.2" font-family="Times,serif" font-size="14.00">set_experience</text>
</g>
<!-- HomepageInfosController -->
<g id="node13" class="node"><title>HomepageInfosController</title>
<path fill="none" stroke="black" d="M144.521,-134C144.521,-134 283.479,-134 283.479,-134 289.479,-134 295.479,-140 295.479,-146 295.479,-146 295.479,-324 295.479,-324 295.479,-330 289.479,-336 283.479,-336 283.479,-336 144.521,-336 144.521,-336 138.521,-336 132.521,-330 132.521,-324 132.521,-324 132.521,-146 132.521,-146 132.521,-140 138.521,-134 144.521,-134"/>
<text text-anchor="middle" x="214" y="-320.8" font-family="Times,serif" font-size="14.00">HomepageInfosController</text>
<polyline fill="none" stroke="black" points="132.521,-314 295.479,-314 "/>
<text text-anchor="start" x="140.521" y="-298.8" font-family="Times,serif" font-size="14.00">create</text>
<text text-anchor="start" x="140.521" y="-284.8" font-family="Times,serif" font-size="14.00">destroy</text>
<text text-anchor="start" x="140.521" y="-270.8" font-family="Times,serif" font-size="14.00">edit</text>
<text text-anchor="start" x="140.521" y="-256.8" font-family="Times,serif" font-size="14.00">index</text>
<text text-anchor="start" x="140.521" y="-242.8" font-family="Times,serif" font-size="14.00">new</text>
<text text-anchor="start" x="140.521" y="-228.8" font-family="Times,serif" font-size="14.00">show</text>
<text text-anchor="start" x="140.521" y="-214.8" font-family="Times,serif" font-size="14.00">update</text>
<polyline fill="none" stroke="black" points="132.521,-208 295.479,-208 "/>
<polyline fill="none" stroke="black" points="132.521,-184 295.479,-184 "/>
<text text-anchor="start" x="140.521" y="-168.8" font-family="Times,serif" font-size="14.00">_layout</text>
<text text-anchor="start" x="140.521" y="-154.8" font-family="Times,serif" font-size="14.00">homepage_info_params</text>
<text text-anchor="start" x="140.521" y="-140.8" font-family="Times,serif" font-size="14.00">set_homepage_info</text>
</g>
<!-- PersonalInfosController -->
<g id="node14" class="node"><title>PersonalInfosController</title>
<path fill="none" stroke="black" d="M-45.2656,-134C-45.2656,-134 81.2656,-134 81.2656,-134 87.2656,-134 93.2656,-140 93.2656,-146 93.2656,-146 93.2656,-352 93.2656,-352 93.2656,-358 87.2656,-364 81.2656,-364 81.2656,-364 -45.2656,-364 -45.2656,-364 -51.2656,-364 -57.2656,-358 -57.2656,-352 -57.2656,-352 -57.2656,-146 -57.2656,-146 -57.2656,-140 -51.2656,-134 -45.2656,-134"/>
<text text-anchor="middle" x="18" y="-348.8" font-family="Times,serif" font-size="14.00">PersonalInfosController</text>
<polyline fill="none" stroke="black" points="-57.2656,-342 93.2656,-342 "/>
<text text-anchor="start" x="-49.2656" y="-326.8" font-family="Times,serif" font-size="14.00">create</text>
<text text-anchor="start" x="-49.2656" y="-312.8" font-family="Times,serif" font-size="14.00">crop</text>
<text text-anchor="start" x="-49.2656" y="-298.8" font-family="Times,serif" font-size="14.00">delete_exp</text>
<text text-anchor="start" x="-49.2656" y="-284.8" font-family="Times,serif" font-size="14.00">destroy</text>
<text text-anchor="start" x="-49.2656" y="-270.8" font-family="Times,serif" font-size="14.00">edit</text>
<text text-anchor="start" x="-49.2656" y="-256.8" font-family="Times,serif" font-size="14.00">index</text>
<text text-anchor="start" x="-49.2656" y="-242.8" font-family="Times,serif" font-size="14.00">new</text>
<text text-anchor="start" x="-49.2656" y="-228.8" font-family="Times,serif" font-size="14.00">show</text>
<text text-anchor="start" x="-49.2656" y="-214.8" font-family="Times,serif" font-size="14.00">update</text>
<polyline fill="none" stroke="black" points="-57.2656,-208 93.2656,-208 "/>
<polyline fill="none" stroke="black" points="-57.2656,-184 93.2656,-184 "/>
<text text-anchor="start" x="-49.2656" y="-168.8" font-family="Times,serif" font-size="14.00">_layout</text>
<text text-anchor="start" x="-49.2656" y="-154.8" font-family="Times,serif" font-size="14.00">personal_info_params</text>
<text text-anchor="start" x="-49.2656" y="-140.8" font-family="Times,serif" font-size="14.00">set_personal_info</text>
</g>
<!-- PhotoLinksController -->
<g id="node15" class="node"><title>PhotoLinksController</title>
<path fill="none" stroke="black" d="M-292.055,303C-292.055,303 -177.945,303 -177.945,303 -171.945,303 -165.945,297 -165.945,291 -165.945,291 -165.945,113 -165.945,113 -165.945,107 -171.945,101 -177.945,101 -177.945,101 -292.055,101 -292.055,101 -298.055,101 -304.055,107 -304.055,113 -304.055,113 -304.055,291 -304.055,291 -304.055,297 -298.055,303 -292.055,303"/>
<text text-anchor="middle" x="-235" y="116.2" font-family="Times,serif" font-size="14.00">PhotoLinksController</text>
<polyline fill="none" stroke="black" points="-304.055,123 -165.945,123 "/>
<text text-anchor="start" x="-296.055" y="138.2" font-family="Times,serif" font-size="14.00">create</text>
<text text-anchor="start" x="-296.055" y="152.2" font-family="Times,serif" font-size="14.00">destroy</text>
<text text-anchor="start" x="-296.055" y="166.2" font-family="Times,serif" font-size="14.00">edit</text>
<text text-anchor="start" x="-296.055" y="180.2" font-family="Times,serif" font-size="14.00">index</text>
<text text-anchor="start" x="-296.055" y="194.2" font-family="Times,serif" font-size="14.00">new</text>
<text text-anchor="start" x="-296.055" y="208.2" font-family="Times,serif" font-size="14.00">show</text>
<text text-anchor="start" x="-296.055" y="222.2" font-family="Times,serif" font-size="14.00">update</text>
<polyline fill="none" stroke="black" points="-304.055,229 -165.945,229 "/>
<polyline fill="none" stroke="black" points="-304.055,253 -165.945,253 "/>
<text text-anchor="start" x="-296.055" y="268.2" font-family="Times,serif" font-size="14.00">_layout</text>
<text text-anchor="start" x="-296.055" y="282.2" font-family="Times,serif" font-size="14.00">photo_link_params</text>
<text text-anchor="start" x="-296.055" y="296.2" font-family="Times,serif" font-size="14.00">set_photo_link</text>
</g>
<!-- PhotosController -->
<g id="node16" class="node"><title>PhotosController</title>
<path fill="none" stroke="black" d="M487.166,-172C487.166,-172 574.834,-172 574.834,-172 580.834,-172 586.834,-178 586.834,-184 586.834,-184 586.834,-362 586.834,-362 586.834,-368 580.834,-374 574.834,-374 574.834,-374 487.166,-374 487.166,-374 481.166,-374 475.166,-368 475.166,-362 475.166,-362 475.166,-184 475.166,-184 475.166,-178 481.166,-172 487.166,-172"/>
<text text-anchor="middle" x="531" y="-358.8" font-family="Times,serif" font-size="14.00">PhotosController</text>
<polyline fill="none" stroke="black" points="475.166,-352 586.834,-352 "/>
<text text-anchor="start" x="483.166" y="-336.8" font-family="Times,serif" font-size="14.00">create</text>
<text text-anchor="start" x="483.166" y="-322.8" font-family="Times,serif" font-size="14.00">destroy</text>
<text text-anchor="start" x="483.166" y="-308.8" font-family="Times,serif" font-size="14.00">edit</text>
<text text-anchor="start" x="483.166" y="-294.8" font-family="Times,serif" font-size="14.00">index</text>
<text text-anchor="start" x="483.166" y="-280.8" font-family="Times,serif" font-size="14.00">new</text>
<text text-anchor="start" x="483.166" y="-266.8" font-family="Times,serif" font-size="14.00">show</text>
<text text-anchor="start" x="483.166" y="-252.8" font-family="Times,serif" font-size="14.00">update</text>
<polyline fill="none" stroke="black" points="475.166,-246 586.834,-246 "/>
<polyline fill="none" stroke="black" points="475.166,-222 586.834,-222 "/>
<text text-anchor="start" x="483.166" y="-206.8" font-family="Times,serif" font-size="14.00">_layout</text>
<text text-anchor="start" x="483.166" y="-192.8" font-family="Times,serif" font-size="14.00">photo_params</text>
<text text-anchor="start" x="483.166" y="-178.8" font-family="Times,serif" font-size="14.00">set_photo</text>
</g>
<!-- ProjectsController -->
<g id="node17" class="node"><title>ProjectsController</title>
<path fill="none" stroke="black" d="M49.6758,360C49.6758,360 144.324,360 144.324,360 150.324,360 156.324,354 156.324,348 156.324,348 156.324,170 156.324,170 156.324,164 150.324,158 144.324,158 144.324,158 49.6758,158 49.6758,158 43.6758,158 37.6758,164 37.6758,170 37.6758,170 37.6758,348 37.6758,348 37.6758,354 43.6758,360 49.6758,360"/>
<text text-anchor="middle" x="97" y="173.2" font-family="Times,serif" font-size="14.00">ProjectsController</text>
<polyline fill="none" stroke="black" points="37.6758,180 156.324,180 "/>
<text text-anchor="start" x="45.6758" y="195.2" font-family="Times,serif" font-size="14.00">create</text>
<text text-anchor="start" x="45.6758" y="209.2" font-family="Times,serif" font-size="14.00">destroy</text>
<text text-anchor="start" x="45.6758" y="223.2" font-family="Times,serif" font-size="14.00">edit</text>
<text text-anchor="start" x="45.6758" y="237.2" font-family="Times,serif" font-size="14.00">index</text>
<text text-anchor="start" x="45.6758" y="251.2" font-family="Times,serif" font-size="14.00">new</text>
<text text-anchor="start" x="45.6758" y="265.2" font-family="Times,serif" font-size="14.00">show</text>
<text text-anchor="start" x="45.6758" y="279.2" font-family="Times,serif" font-size="14.00">update</text>
<polyline fill="none" stroke="black" points="37.6758,286 156.324,286 "/>
<polyline fill="none" stroke="black" points="37.6758,310 156.324,310 "/>
<text text-anchor="start" x="45.6758" y="325.2" font-family="Times,serif" font-size="14.00">_layout</text>
<text text-anchor="start" x="45.6758" y="339.2" font-family="Times,serif" font-size="14.00">project_params</text>
<text text-anchor="start" x="45.6758" y="353.2" font-family="Times,serif" font-size="14.00">set_project</text>
</g>
<!-- RegistrationsController -->
<g id="node18" class="node"><title>RegistrationsController</title>
<path fill="none" stroke="black" d="M506.362,94C506.362,94 633.638,94 633.638,94 639.638,94 645.638,88 645.638,82 645.638,82 645.638,2 645.638,2 645.638,-4 639.638,-10 633.638,-10 633.638,-10 506.362,-10 506.362,-10 500.362,-10 494.362,-4 494.362,2 494.362,2 494.362,82 494.362,82 494.362,88 500.362,94 506.362,94"/>
<text text-anchor="middle" x="570" y="5.2" font-family="Times,serif" font-size="14.00">RegistrationsController</text>
<polyline fill="none" stroke="black" points="494.362,12 645.638,12 "/>
<polyline fill="none" stroke="black" points="494.362,36 645.638,36 "/>
<text text-anchor="start" x="502.362" y="51.2" font-family="Times,serif" font-size="14.00">account_update_params</text>
<text text-anchor="start" x="502.362" y="65.2" font-family="Times,serif" font-size="14.00">sign_up_params</text>
<polyline fill="none" stroke="black" points="494.362,72 645.638,72 "/>
<text text-anchor="start" x="502.362" y="87.2" font-family="Times,serif" font-size="14.00">_layout</text>
</g>
<!-- Reviewers::RegistrationsController -->
<g id="node19" class="node"><title>Reviewers::RegistrationsController</title>
<path fill="none" stroke="black" d="M87.8516,-400C87.8516,-400 278.148,-400 278.148,-400 284.148,-400 290.148,-406 290.148,-412 290.148,-412 290.148,-492 290.148,-492 290.148,-498 284.148,-504 278.148,-504 278.148,-504 87.8516,-504 87.8516,-504 81.8516,-504 75.8516,-498 75.8516,-492 75.8516,-492 75.8516,-412 75.8516,-412 75.8516,-406 81.8516,-400 87.8516,-400"/>
<text text-anchor="middle" x="183" y="-488.8" font-family="Times,serif" font-size="14.00">Reviewers::RegistrationsController</text>
<polyline fill="none" stroke="black" points="75.8516,-482 290.148,-482 "/>
<polyline fill="none" stroke="black" points="75.8516,-458 290.148,-458 "/>
<text text-anchor="start" x="83.8516" y="-442.8" font-family="Times,serif" font-size="14.00">after_sign_up_path_for</text>
<text text-anchor="start" x="83.8516" y="-428.8" font-family="Times,serif" font-size="14.00">sign_up</text>
<polyline fill="none" stroke="black" points="75.8516,-422 290.148,-422 "/>
<text text-anchor="start" x="83.8516" y="-406.8" font-family="Times,serif" font-size="14.00">_layout</text>
</g>
<!-- ReviewersController -->
<g id="node20" class="node"><title>ReviewersController</title>
<path fill="none" stroke="black" d="M-406.317,-1C-406.317,-1 -297.683,-1 -297.683,-1 -291.683,-1 -285.683,-7 -285.683,-13 -285.683,-13 -285.683,-191 -285.683,-191 -285.683,-197 -291.683,-203 -297.683,-203 -297.683,-203 -406.317,-203 -406.317,-203 -412.317,-203 -418.317,-197 -418.317,-191 -418.317,-191 -418.317,-13 -418.317,-13 -418.317,-7 -412.317,-1 -406.317,-1"/>
<text text-anchor="middle" x="-352" y="-187.8" font-family="Times,serif" font-size="14.00">ReviewersController</text>
<polyline fill="none" stroke="black" points="-418.317,-181 -285.683,-181 "/>
<text text-anchor="start" x="-410.317" y="-165.8" font-family="Times,serif" font-size="14.00">create</text>
<text text-anchor="start" x="-410.317" y="-151.8" font-family="Times,serif" font-size="14.00">destroy</text>
<text text-anchor="start" x="-410.317" y="-137.8" font-family="Times,serif" font-size="14.00">edit</text>
<text text-anchor="start" x="-410.317" y="-123.8" font-family="Times,serif" font-size="14.00">index</text>
<text text-anchor="start" x="-410.317" y="-109.8" font-family="Times,serif" font-size="14.00">new</text>
<text text-anchor="start" x="-410.317" y="-95.8" font-family="Times,serif" font-size="14.00">show</text>
<text text-anchor="start" x="-410.317" y="-81.8" font-family="Times,serif" font-size="14.00">update</text>
<polyline fill="none" stroke="black" points="-418.317,-75 -285.683,-75 "/>
<polyline fill="none" stroke="black" points="-418.317,-51 -285.683,-51 "/>
<text text-anchor="start" x="-410.317" y="-35.8" font-family="Times,serif" font-size="14.00">_layout</text>
<text text-anchor="start" x="-410.317" y="-21.8" font-family="Times,serif" font-size="14.00">reviewer_params</text>
<text text-anchor="start" x="-410.317" y="-7.8" font-family="Times,serif" font-size="14.00">set_reviewer</text>
</g>
<!-- SchoolsController -->
<g id="node21" class="node"><title>SchoolsController</title>
<path fill="none" stroke="black" d="M-234.941,56C-234.941,56 -141.059,56 -141.059,56 -135.059,56 -129.059,50 -129.059,44 -129.059,44 -129.059,-148 -129.059,-148 -129.059,-154 -135.059,-160 -141.059,-160 -141.059,-160 -234.941,-160 -234.941,-160 -240.941,-160 -246.941,-154 -246.941,-148 -246.941,-148 -246.941,44 -246.941,44 -246.941,50 -240.941,56 -234.941,56"/>
<text text-anchor="middle" x="-188" y="-144.8" font-family="Times,serif" font-size="14.00">SchoolsController</text>
<polyline fill="none" stroke="black" points="-246.941,-138 -129.059,-138 "/>
<text text-anchor="start" x="-238.941" y="-122.8" font-family="Times,serif" font-size="14.00">create</text>
<text text-anchor="start" x="-238.941" y="-108.8" font-family="Times,serif" font-size="14.00">destroy</text>
<text text-anchor="start" x="-238.941" y="-94.8" font-family="Times,serif" font-size="14.00">edit</text>
<text text-anchor="start" x="-238.941" y="-80.8" font-family="Times,serif" font-size="14.00">index</text>
<text text-anchor="start" x="-238.941" y="-66.8" font-family="Times,serif" font-size="14.00">new</text>
<text text-anchor="start" x="-238.941" y="-52.8" font-family="Times,serif" font-size="14.00">roster</text>
<text text-anchor="start" x="-238.941" y="-38.8" font-family="Times,serif" font-size="14.00">show</text>
<text text-anchor="start" x="-238.941" y="-24.8" font-family="Times,serif" font-size="14.00">update</text>
<polyline fill="none" stroke="black" points="-246.941,-18 -129.059,-18 "/>
<polyline fill="none" stroke="black" points="-246.941,6 -129.059,6 "/>
<text text-anchor="start" x="-238.941" y="21.2" font-family="Times,serif" font-size="14.00">_layout</text>
<text text-anchor="start" x="-238.941" y="35.2" font-family="Times,serif" font-size="14.00">school_params</text>
<text text-anchor="start" x="-238.941" y="49.2" font-family="Times,serif" font-size="14.00">set_school</text>
</g>
<!-- ShowcasesController -->
<g id="node22" class="node"><title>ShowcasesController</title>
<path fill="none" stroke="black" d="M429.51,-419C429.51,-419 540.49,-419 540.49,-419 546.49,-419 552.49,-425 552.49,-431 552.49,-431 552.49,-609 552.49,-609 552.49,-615 546.49,-621 540.49,-621 540.49,-621 429.51,-621 429.51,-621 423.51,-621 417.51,-615 417.51,-609 417.51,-609 417.51,-431 417.51,-431 417.51,-425 423.51,-419 429.51,-419"/>
<text text-anchor="middle" x="485" y="-605.8" font-family="Times,serif" font-size="14.00">ShowcasesController</text>
<polyline fill="none" stroke="black" points="417.51,-599 552.49,-599 "/>
<text text-anchor="start" x="425.51" y="-583.8" font-family="Times,serif" font-size="14.00">create</text>
<text text-anchor="start" x="425.51" y="-569.8" font-family="Times,serif" font-size="14.00">destroy</text>
<text text-anchor="start" x="425.51" y="-555.8" font-family="Times,serif" font-size="14.00">edit</text>
<text text-anchor="start" x="425.51" y="-541.8" font-family="Times,serif" font-size="14.00">index</text>
<text text-anchor="start" x="425.51" y="-527.8" font-family="Times,serif" font-size="14.00">new</text>
<text text-anchor="start" x="425.51" y="-513.8" font-family="Times,serif" font-size="14.00">show</text>
<text text-anchor="start" x="425.51" y="-499.8" font-family="Times,serif" font-size="14.00">update</text>
<polyline fill="none" stroke="black" points="417.51,-493 552.49,-493 "/>
<polyline fill="none" stroke="black" points="417.51,-469 552.49,-469 "/>
<text text-anchor="start" x="425.51" y="-453.8" font-family="Times,serif" font-size="14.00">_layout</text>
<text text-anchor="start" x="425.51" y="-439.8" font-family="Times,serif" font-size="14.00">set_showcase</text>
<text text-anchor="start" x="425.51" y="-425.8" font-family="Times,serif" font-size="14.00">showcase_params</text>
</g>
<!-- SocialLinksController -->
<g id="node23" class="node"><title>SocialLinksController</title>
<path fill="none" stroke="black" d="M334.786,75C334.786,75 451.214,75 451.214,75 457.214,75 463.214,69 463.214,63 463.214,63 463.214,-115 463.214,-115 463.214,-121 457.214,-127 451.214,-127 451.214,-127 334.786,-127 334.786,-127 328.786,-127 322.786,-121 322.786,-115 322.786,-115 322.786,63 322.786,63 322.786,69 328.786,75 334.786,75"/>
<text text-anchor="middle" x="393" y="-111.8" font-family="Times,serif" font-size="14.00">SocialLinksController</text>
<polyline fill="none" stroke="black" points="322.786,-105 463.214,-105 "/>
<text text-anchor="start" x="330.786" y="-89.8" font-family="Times,serif" font-size="14.00">create</text>
<text text-anchor="start" x="330.786" y="-75.8" font-family="Times,serif" font-size="14.00">destroy</text>
<text text-anchor="start" x="330.786" y="-61.8" font-family="Times,serif" font-size="14.00">edit</text>
<text text-anchor="start" x="330.786" y="-47.8" font-family="Times,serif" font-size="14.00">index</text>
<text text-anchor="start" x="330.786" y="-33.8" font-family="Times,serif" font-size="14.00">new</text>
<text text-anchor="start" x="330.786" y="-19.8" font-family="Times,serif" font-size="14.00">show</text>
<text text-anchor="start" x="330.786" y="-5.8" font-family="Times,serif" font-size="14.00">update</text>
<polyline fill="none" stroke="black" points="322.786,1 463.214,1 "/>
<polyline fill="none" stroke="black" points="322.786,25 463.214,25 "/>
<text text-anchor="start" x="330.786" y="40.2" font-family="Times,serif" font-size="14.00">_layout</text>
<text text-anchor="start" x="330.786" y="54.2" font-family="Times,serif" font-size="14.00">set_social_link</text>
<text text-anchor="start" x="330.786" y="68.2" font-family="Times,serif" font-size="14.00">social_link_params</text>
</g>
<!-- Users::RegistrationsController -->
<g id="node24" class="node"><title>Users::RegistrationsController</title>
<path fill="none" stroke="black" d="M506.455,246C506.455,246 669.545,246 669.545,246 675.545,246 681.545,240 681.545,234 681.545,234 681.545,142 681.545,142 681.545,136 675.545,130 669.545,130 669.545,130 506.455,130 506.455,130 500.455,130 494.455,136 494.455,142 494.455,142 494.455,234 494.455,234 494.455,240 500.455,246 506.455,246"/>
<text text-anchor="middle" x="588" y="145.2" font-family="Times,serif" font-size="14.00">Users::RegistrationsController</text>
<polyline fill="none" stroke="black" points="494.455,152 681.545,152 "/>
<text text-anchor="start" x="502.455" y="167.2" font-family="Times,serif" font-size="14.00">create</text>
<polyline fill="none" stroke="black" points="494.455,174 681.545,174 "/>
<text text-anchor="start" x="502.455" y="189.2" font-family="Times,serif" font-size="14.00">account_update_params</text>
<text text-anchor="start" x="502.455" y="203.2" font-family="Times,serif" font-size="14.00">after_sign_up_path_for</text>
<text text-anchor="start" x="502.455" y="217.2" font-family="Times,serif" font-size="14.00">sign_up_params</text>
<polyline fill="none" stroke="black" points="494.455,224 681.545,224 "/>
<text text-anchor="start" x="502.455" y="239.2" font-family="Times,serif" font-size="14.00">_layout</text>
</g>
<!-- UsersController -->
<g id="node25" class="node"><title>UsersController</title>
<path fill="none" stroke="black" d="M-177.714,-191C-177.714,-191 -96.2861,-191 -96.2861,-191 -90.2861,-191 -84.2861,-197 -84.2861,-203 -84.2861,-203 -84.2861,-423 -84.2861,-423 -84.2861,-429 -90.2861,-435 -96.2861,-435 -96.2861,-435 -177.714,-435 -177.714,-435 -183.714,-435 -189.714,-429 -189.714,-423 -189.714,-423 -189.714,-203 -189.714,-203 -189.714,-197 -183.714,-191 -177.714,-191"/>
<text text-anchor="middle" x="-137" y="-419.8" font-family="Times,serif" font-size="14.00">UsersController</text>
<polyline fill="none" stroke="black" points="-189.714,-413 -84.2861,-413 "/>
<text text-anchor="start" x="-181.714" y="-397.8" font-family="Times,serif" font-size="14.00">create</text>
<text text-anchor="start" x="-181.714" y="-383.8" font-family="Times,serif" font-size="14.00">dashboard</text>
<text text-anchor="start" x="-181.714" y="-369.8" font-family="Times,serif" font-size="14.00">destroy</text>
<text text-anchor="start" x="-181.714" y="-355.8" font-family="Times,serif" font-size="14.00">edit</text>
<text text-anchor="start" x="-181.714" y="-341.8" font-family="Times,serif" font-size="14.00">feed</text>
<text text-anchor="start" x="-181.714" y="-327.8" font-family="Times,serif" font-size="14.00">index</text>
<text text-anchor="start" x="-181.714" y="-313.8" font-family="Times,serif" font-size="14.00">new</text>
<text text-anchor="start" x="-181.714" y="-299.8" font-family="Times,serif" font-size="14.00">show</text>
<text text-anchor="start" x="-181.714" y="-285.8" font-family="Times,serif" font-size="14.00">update</text>
<polyline fill="none" stroke="black" points="-189.714,-279 -84.2861,-279 "/>
<polyline fill="none" stroke="black" points="-189.714,-255 -84.2861,-255 "/>
<text text-anchor="start" x="-181.714" y="-239.8" font-family="Times,serif" font-size="14.00">_layout</text>
<text text-anchor="start" x="-181.714" y="-225.8" font-family="Times,serif" font-size="14.00">set_user</text>
<text text-anchor="start" x="-181.714" y="-211.8" font-family="Times,serif" font-size="14.00">user_params</text>
<text text-anchor="start" x="-181.714" y="-197.8" font-family="Times,serif" font-size="14.00">verify_email</text>
</g>
<!-- WebsiteSettingsController -->
<g id="node26" class="node"><title>WebsiteSettingsController</title>
<path fill="none" stroke="black" d="M-82.7085,113C-82.7085,113 56.7085,113 56.7085,113 62.7085,113 68.7085,107 68.7085,101 68.7085,101 68.7085,-77 68.7085,-77 68.7085,-83 62.7085,-89 56.7085,-89 56.7085,-89 -82.7085,-89 -82.7085,-89 -88.7085,-89 -94.7085,-83 -94.7085,-77 -94.7085,-77 -94.7085,101 -94.7085,101 -94.7085,107 -88.7085,113 -82.7085,113"/>
<text text-anchor="middle" x="-13" y="-73.8" font-family="Times,serif" font-size="14.00">WebsiteSettingsController</text>
<polyline fill="none" stroke="black" points="-94.7085,-67 68.7085,-67 "/>
<text text-anchor="start" x="-86.7085" y="-51.8" font-family="Times,serif" font-size="14.00">create</text>
<text text-anchor="start" x="-86.7085" y="-37.8" font-family="Times,serif" font-size="14.00">destroy</text>
<text text-anchor="start" x="-86.7085" y="-23.8" font-family="Times,serif" font-size="14.00">edit</text>
<text text-anchor="start" x="-86.7085" y="-9.8" font-family="Times,serif" font-size="14.00">index</text>
<text text-anchor="start" x="-86.7085" y="4.2" font-family="Times,serif" font-size="14.00">new</text>
<text text-anchor="start" x="-86.7085" y="18.2" font-family="Times,serif" font-size="14.00">show</text>
<text text-anchor="start" x="-86.7085" y="32.2" font-family="Times,serif" font-size="14.00">update</text>
<polyline fill="none" stroke="black" points="-94.7085,39 68.7085,39 "/>
<polyline fill="none" stroke="black" points="-94.7085,63 68.7085,63 "/>
<text text-anchor="start" x="-86.7085" y="78.2" font-family="Times,serif" font-size="14.00">_layout</text>
<text text-anchor="start" x="-86.7085" y="92.2" font-family="Times,serif" font-size="14.00">set_website_setting</text>
<text text-anchor="start" x="-86.7085" y="106.2" font-family="Times,serif" font-size="14.00">website_setting_params</text>
</g>
</g>
</svg>
