<?xml version="1.0" encoding="UTF-8" standalone="no"?>
<!DOCTYPE svg PUBLIC "-//W3C//DTD SVG 1.1//EN"
 "http://www.w3.org/Graphics/SVG/1.1/DTD/svg11.dtd">
<!-- Generated by graphviz version 2.38.0 (20140413.2041)
 -->
<!-- Title: controllers_diagram Pages: 1 -->
<svg width="1070pt" height="1066pt"
 viewBox="0.00 0.00 1070.33 1066.00" xmlns="http://www.w3.org/2000/svg" xmlns:xlink="http://www.w3.org/1999/xlink">
<g id="graph0" class="graph" transform="scale(1 1) rotate(0) translate(421.638 587.5)">
<title>controllers_diagram</title>
<polygon fill="none" stroke="none" points="-421.638,478.5 -421.638,-587.5 648.688,-587.5 648.688,478.5 -421.638,478.5"/>
<!-- _diagram_info -->
<g id="node1" class="node"><title>_diagram_info</title>
<text text-anchor="start" x="445.312" y="377.9" font-family="Times,serif" font-size="13.00">Controllers diagram</text>
<text text-anchor="start" x="445.312" y="390.9" font-family="Times,serif" font-size="13.00">Date: Jun 13 2016 &#45; 10:51</text>
<text text-anchor="start" x="445.312" y="403.9" font-family="Times,serif" font-size="13.00">Migration version: 20160613145109</text>
<text text-anchor="start" x="445.312" y="416.9" font-family="Times,serif" font-size="13.00">Generated by RailRoady 1.3.1</text>
<text text-anchor="start" x="445.312" y="429.9" font-family="Times,serif" font-size="13.00">http://railroady.prestonlee.com</text>
</g>
<!-- Admins::RegistrationsController -->
<g id="node2" class="node"><title>Admins::RegistrationsController</title>
<path fill="none" stroke="black" d="M-386.772,398C-386.772,398 -211.228,398 -211.228,398 -205.228,398 -199.228,392 -199.228,386 -199.228,386 -199.228,306 -199.228,306 -199.228,300 -205.228,294 -211.228,294 -211.228,294 -386.772,294 -386.772,294 -392.772,294 -398.772,300 -398.772,306 -398.772,306 -398.772,386 -398.772,386 -398.772,392 -392.772,398 -386.772,398"/>
<text text-anchor="middle" x="-299" y="309.2" font-family="Times,serif" font-size="14.00">Admins::RegistrationsController</text>
<polyline fill="none" stroke="black" points="-398.772,316 -199.228,316 "/>
<polyline fill="none" stroke="black" points="-398.772,340 -199.228,340 "/>
<text text-anchor="start" x="-390.772" y="355.2" font-family="Times,serif" font-size="14.00">after_sign_up_path_for</text>
<text text-anchor="start" x="-390.772" y="369.2" font-family="Times,serif" font-size="14.00">sign_up</text>
<polyline fill="none" stroke="black" points="-398.772,376 -199.228,376 "/>
<text text-anchor="start" x="-390.772" y="391.2" font-family="Times,serif" font-size="14.00">_layout</text>
</g>
<!-- AdminsController -->
<g id="node3" class="node"><title>AdminsController</title>
<path fill="none" stroke="black" d="M-82.9414,360C-82.9414,360 10.9414,360 10.9414,360 16.9414,360 22.9414,354 22.9414,348 22.9414,348 22.9414,170 22.9414,170 22.9414,164 16.9414,158 10.9414,158 10.9414,158 -82.9414,158 -82.9414,158 -88.9414,158 -94.9414,164 -94.9414,170 -94.9414,170 -94.9414,348 -94.9414,348 -94.9414,354 -88.9414,360 -82.9414,360"/>
<text text-anchor="middle" x="-36" y="173.2" font-family="Times,serif" font-size="14.00">AdminsController</text>
<polyline fill="none" stroke="black" points="-94.9414,180 22.9414,180 "/>
<text text-anchor="start" x="-86.9414" y="195.2" font-family="Times,serif" font-size="14.00">create</text>
<text text-anchor="start" x="-86.9414" y="209.2" font-family="Times,serif" font-size="14.00">destroy</text>
<text text-anchor="start" x="-86.9414" y="223.2" font-family="Times,serif" font-size="14.00">edit</text>
<text text-anchor="start" x="-86.9414" y="237.2" font-family="Times,serif" font-size="14.00">index</text>
<text text-anchor="start" x="-86.9414" y="251.2" font-family="Times,serif" font-size="14.00">new</text>
<text text-anchor="start" x="-86.9414" y="265.2" font-family="Times,serif" font-size="14.00">show</text>
<text text-anchor="start" x="-86.9414" y="279.2" font-family="Times,serif" font-size="14.00">update</text>
<polyline fill="none" stroke="black" points="-94.9414,286 22.9414,286 "/>
<polyline fill="none" stroke="black" points="-94.9414,310 22.9414,310 "/>
<text text-anchor="start" x="-86.9414" y="325.2" font-family="Times,serif" font-size="14.00">_layout</text>
<text text-anchor="start" x="-86.9414" y="339.2" font-family="Times,serif" font-size="14.00">admin_params</text>
<text text-anchor="start" x="-86.9414" y="353.2" font-family="Times,serif" font-size="14.00">set_admin</text>
</g>
<!-- ApplicationController -->
<g id="node4" class="node"><title>ApplicationController</title>
<path fill="none" stroke="black" d="M468.362,-172C468.362,-172 595.638,-172 595.638,-172 601.638,-172 607.638,-178 607.638,-184 607.638,-184 607.638,-304 607.638,-304 607.638,-310 601.638,-316 595.638,-316 595.638,-316 468.362,-316 468.362,-316 462.362,-316 456.362,-310 456.362,-304 456.362,-304 456.362,-184 456.362,-184 456.362,-178 462.362,-172 468.362,-172"/>
<text text-anchor="middle" x="532" y="-300.8" font-family="Times,serif" font-size="14.00">ApplicationController</text>
<polyline fill="none" stroke="black" points="456.362,-294 607.638,-294 "/>
<text text-anchor="start" x="464.362" y="-278.8" font-family="Times,serif" font-size="14.00">authenticate_person!</text>
<text text-anchor="start" x="464.362" y="-264.8" font-family="Times,serif" font-size="14.00">current_people</text>
<text text-anchor="start" x="464.362" y="-250.8" font-family="Times,serif" font-size="14.00">current_person</text>
<text text-anchor="start" x="464.362" y="-236.8" font-family="Times,serif" font-size="14.00">person_signed_in?</text>
<polyline fill="none" stroke="black" points="456.362,-230 607.638,-230 "/>
<text text-anchor="start" x="464.362" y="-214.8" font-family="Times,serif" font-size="14.00">account_update_params</text>
<text text-anchor="start" x="464.362" y="-200.8" font-family="Times,serif" font-size="14.00">after_sign_in_path_for</text>
<polyline fill="none" stroke="black" points="456.362,-194 607.638,-194 "/>
<text text-anchor="start" x="464.362" y="-178.8" font-family="Times,serif" font-size="14.00">_layout</text>
</g>
<!-- ArticlesController -->
<g id="node5" class="node"><title>ArticlesController</title>
<path fill="none" stroke="black" d="M335.069,75C335.069,75 428.931,75 428.931,75 434.931,75 440.931,69 440.931,63 440.931,63 440.931,-115 440.931,-115 440.931,-121 434.931,-127 428.931,-127 428.931,-127 335.069,-127 335.069,-127 329.069,-127 323.069,-121 323.069,-115 323.069,-115 323.069,63 323.069,63 323.069,69 329.069,75 335.069,75"/>
<text text-anchor="middle" x="382" y="-111.8" font-family="Times,serif" font-size="14.00">ArticlesController</text>
<polyline fill="none" stroke="black" points="323.069,-105 440.931,-105 "/>
<text text-anchor="start" x="331.069" y="-89.8" font-family="Times,serif" font-size="14.00">create</text>
<text text-anchor="start" x="331.069" y="-75.8" font-family="Times,serif" font-size="14.00">destroy</text>
<text text-anchor="start" x="331.069" y="-61.8" font-family="Times,serif" font-size="14.00">edit</text>
<text text-anchor="start" x="331.069" y="-47.8" font-family="Times,serif" font-size="14.00">index</text>
<text text-anchor="start" x="331.069" y="-33.8" font-family="Times,serif" font-size="14.00">new</text>
<text text-anchor="start" x="331.069" y="-19.8" font-family="Times,serif" font-size="14.00">show</text>
<text text-anchor="start" x="331.069" y="-5.8" font-family="Times,serif" font-size="14.00">update</text>
<polyline fill="none" stroke="black" points="323.069,1 440.931,1 "/>
<polyline fill="none" stroke="black" points="323.069,25 440.931,25 "/>
<text text-anchor="start" x="331.069" y="40.2" font-family="Times,serif" font-size="14.00">_layout</text>
<text text-anchor="start" x="331.069" y="54.2" font-family="Times,serif" font-size="14.00">article_params</text>
<text text-anchor="start" x="331.069" y="68.2" font-family="Times,serif" font-size="14.00">set_article</text>
</g>
<!-- BackgroundInfosController -->
<g id="node6" class="node"><title>BackgroundInfosController</title>
<path fill="none" stroke="black" d="M125.627,113C125.627,113 272.373,113 272.373,113 278.373,113 284.373,107 284.373,101 284.373,101 284.373,-77 284.373,-77 284.373,-83 278.373,-89 272.373,-89 272.373,-89 125.627,-89 125.627,-89 119.627,-89 113.627,-83 113.627,-77 113.627,-77 113.627,101 113.627,101 113.627,107 119.627,113 125.627,113"/>
<text text-anchor="middle" x="199" y="-73.8" font-family="Times,serif" font-size="14.00">BackgroundInfosController</text>
<polyline fill="none" stroke="black" points="113.627,-67 284.373,-67 "/>
<text text-anchor="start" x="121.627" y="-51.8" font-family="Times,serif" font-size="14.00">create</text>
<text text-anchor="start" x="121.627" y="-37.8" font-family="Times,serif" font-size="14.00">destroy</text>
<text text-anchor="start" x="121.627" y="-23.8" font-family="Times,serif" font-size="14.00">edit</text>
<text text-anchor="start" x="121.627" y="-9.8" font-family="Times,serif" font-size="14.00">index</text>
<text text-anchor="start" x="121.627" y="4.2" font-family="Times,serif" font-size="14.00">new</text>
<text text-anchor="start" x="121.627" y="18.2" font-family="Times,serif" font-size="14.00">show</text>
<text text-anchor="start" x="121.627" y="32.2" font-family="Times,serif" font-size="14.00">update</text>
<polyline fill="none" stroke="black" points="113.627,39 284.373,39 "/>
<polyline fill="none" stroke="black" points="113.627,63 284.373,63 "/>
<text text-anchor="start" x="121.627" y="78.2" font-family="Times,serif" font-size="14.00">_layout</text>
<text text-anchor="start" x="121.627" y="92.2" font-family="Times,serif" font-size="14.00">background_info_params</text>
<text text-anchor="start" x="121.627" y="106.2" font-family="Times,serif" font-size="14.00">set_background_info</text>
</g>
<!-- Clerks::RegistrationsController -->
<g id="node7" class="node"><title>Clerks::RegistrationsController</title>
<path fill="none" stroke="black" d="M430.121,-419C430.121,-419 597.879,-419 597.879,-419 603.879,-419 609.879,-425 609.879,-431 609.879,-431 609.879,-539 609.879,-539 609.879,-545 603.879,-551 597.879,-551 597.879,-551 430.121,-551 430.121,-551 424.121,-551 418.121,-545 418.121,-539 418.121,-539 418.121,-431 418.121,-431 418.121,-425 424.121,-419 430.121,-419"/>
<text text-anchor="middle" x="514" y="-535.8" font-family="Times,serif" font-size="14.00">Clerks::RegistrationsController</text>
<polyline fill="none" stroke="black" points="418.121,-529 609.879,-529 "/>
<polyline fill="none" stroke="black" points="418.121,-505 609.879,-505 "/>
<text text-anchor="start" x="426.121" y="-489.8" font-family="Times,serif" font-size="14.00">account_update_params</text>
<text text-anchor="start" x="426.121" y="-475.8" font-family="Times,serif" font-size="14.00">after_sign_up_path_for</text>
<text text-anchor="start" x="426.121" y="-461.8" font-family="Times,serif" font-size="14.00">sign_up</text>
<text text-anchor="start" x="426.121" y="-447.8" font-family="Times,serif" font-size="14.00">sign_up_params</text>
<polyline fill="none" stroke="black" points="418.121,-441 609.879,-441 "/>
<text text-anchor="start" x="426.121" y="-425.8" font-family="Times,serif" font-size="14.00">_layout</text>
</g>
<!-- ClerksController -->
<g id="node8" class="node"><title>ClerksController</title>
<path fill="none" stroke="black" d="M-368.048,-381C-368.048,-381 -281.952,-381 -281.952,-381 -275.952,-381 -269.952,-387 -269.952,-393 -269.952,-393 -269.952,-571 -269.952,-571 -269.952,-577 -275.952,-583 -281.952,-583 -281.952,-583 -368.048,-583 -368.048,-583 -374.048,-583 -380.048,-577 -380.048,-571 -380.048,-571 -380.048,-393 -380.048,-393 -380.048,-387 -374.048,-381 -368.048,-381"/>
<text text-anchor="middle" x="-325" y="-567.8" font-family="Times,serif" font-size="14.00">ClerksController</text>
<polyline fill="none" stroke="black" points="-380.048,-561 -269.952,-561 "/>
<text text-anchor="start" x="-372.048" y="-545.8" font-family="Times,serif" font-size="14.00">create</text>
<text text-anchor="start" x="-372.048" y="-531.8" font-family="Times,serif" font-size="14.00">destroy</text>
<text text-anchor="start" x="-372.048" y="-517.8" font-family="Times,serif" font-size="14.00">edit</text>
<text text-anchor="start" x="-372.048" y="-503.8" font-family="Times,serif" font-size="14.00">index</text>
<text text-anchor="start" x="-372.048" y="-489.8" font-family="Times,serif" font-size="14.00">new</text>
<text text-anchor="start" x="-372.048" y="-475.8" font-family="Times,serif" font-size="14.00">show</text>
<text text-anchor="start" x="-372.048" y="-461.8" font-family="Times,serif" font-size="14.00">update</text>
<polyline fill="none" stroke="black" points="-380.048,-455 -269.952,-455 "/>
<polyline fill="none" stroke="black" points="-380.048,-431 -269.952,-431 "/>
<text text-anchor="start" x="-372.048" y="-415.8" font-family="Times,serif" font-size="14.00">_layout</text>
<text text-anchor="start" x="-372.048" y="-401.8" font-family="Times,serif" font-size="14.00">clerk_params</text>
<text text-anchor="start" x="-372.048" y="-387.8" font-family="Times,serif" font-size="14.00">set_clerk</text>
</g>
<!-- DemosController -->
<g id="node9" class="node"><title>DemosController</title>
<path fill="none" stroke="black" d="M-405.604,-1C-405.604,-1 -316.396,-1 -316.396,-1 -310.396,-1 -304.396,-7 -304.396,-13 -304.396,-13 -304.396,-191 -304.396,-191 -304.396,-197 -310.396,-203 -316.396,-203 -316.396,-203 -405.604,-203 -405.604,-203 -411.604,-203 -417.604,-197 -417.604,-191 -417.604,-191 -417.604,-13 -417.604,-13 -417.604,-7 -411.604,-1 -405.604,-1"/>
<text text-anchor="middle" x="-361" y="-187.8" font-family="Times,serif" font-size="14.00">DemosController</text>
<polyline fill="none" stroke="black" points="-417.604,-181 -304.396,-181 "/>
<text text-anchor="start" x="-409.604" y="-165.8" font-family="Times,serif" font-size="14.00">create</text>
<text text-anchor="start" x="-409.604" y="-151.8" font-family="Times,serif" font-size="14.00">destroy</text>
<text text-anchor="start" x="-409.604" y="-137.8" font-family="Times,serif" font-size="14.00">edit</text>
<text text-anchor="start" x="-409.604" y="-123.8" font-family="Times,serif" font-size="14.00">index</text>
<text text-anchor="start" x="-409.604" y="-109.8" font-family="Times,serif" font-size="14.00">new</text>
<text text-anchor="start" x="-409.604" y="-95.8" font-family="Times,serif" font-size="14.00">show</text>
<text text-anchor="start" x="-409.604" y="-81.8" font-family="Times,serif" font-size="14.00">update</text>
<polyline fill="none" stroke="black" points="-417.604,-75 -304.396,-75 "/>
<polyline fill="none" stroke="black" points="-417.604,-51 -304.396,-51 "/>
<text text-anchor="start" x="-409.604" y="-35.8" font-family="Times,serif" font-size="14.00">_layout</text>
<text text-anchor="start" x="-409.604" y="-21.8" font-family="Times,serif" font-size="14.00">demo_params</text>
<text text-anchor="start" x="-409.604" y="-7.8" font-family="Times,serif" font-size="14.00">set_demo</text>
</g>
<!-- ExperiencesController -->
<g id="node10" class="node"><title>ExperiencesController</title>
<path fill="none" stroke="black" d="M-215.976,-229C-215.976,-229 -98.0239,-229 -98.0239,-229 -92.0239,-229 -86.0239,-235 -86.0239,-241 -86.0239,-241 -86.0239,-419 -86.0239,-419 -86.0239,-425 -92.0239,-431 -98.0239,-431 -98.0239,-431 -215.976,-431 -215.976,-431 -221.976,-431 -227.976,-425 -227.976,-419 -227.976,-419 -227.976,-241 -227.976,-241 -227.976,-235 -221.976,-229 -215.976,-229"/>
<text text-anchor="middle" x="-157" y="-415.8" font-family="Times,serif" font-size="14.00">ExperiencesController</text>
<polyline fill="none" stroke="black" points="-227.976,-409 -86.0239,-409 "/>
<text text-anchor="start" x="-219.976" y="-393.8" font-family="Times,serif" font-size="14.00">create</text>
<text text-anchor="start" x="-219.976" y="-379.8" font-family="Times,serif" font-size="14.00">destroy</text>
<text text-anchor="start" x="-219.976" y="-365.8" font-family="Times,serif" font-size="14.00">edit</text>
<text text-anchor="start" x="-219.976" y="-351.8" font-family="Times,serif" font-size="14.00">index</text>
<text text-anchor="start" x="-219.976" y="-337.8" font-family="Times,serif" font-size="14.00">new</text>
<text text-anchor="start" x="-219.976" y="-323.8" font-family="Times,serif" font-size="14.00">show</text>
<text text-anchor="start" x="-219.976" y="-309.8" font-family="Times,serif" font-size="14.00">update</text>
<polyline fill="none" stroke="black" points="-227.976,-303 -86.0239,-303 "/>
<polyline fill="none" stroke="black" points="-227.976,-279 -86.0239,-279 "/>
<text text-anchor="start" x="-219.976" y="-263.8" font-family="Times,serif" font-size="14.00">_layout</text>
<text text-anchor="start" x="-219.976" y="-249.8" font-family="Times,serif" font-size="14.00">experience_params</text>
<text text-anchor="start" x="-219.976" y="-235.8" font-family="Times,serif" font-size="14.00">set_experience</text>
</g>
<!-- HomepageInfosController -->
<g id="node11" class="node"><title>HomepageInfosController</title>
<path fill="none" stroke="black" d="M144.521,-134C144.521,-134 283.479,-134 283.479,-134 289.479,-134 295.479,-140 295.479,-146 295.479,-146 295.479,-324 295.479,-324 295.479,-330 289.479,-336 283.479,-336 283.479,-336 144.521,-336 144.521,-336 138.521,-336 132.521,-330 132.521,-324 132.521,-324 132.521,-146 132.521,-146 132.521,-140 138.521,-134 144.521,-134"/>
<text text-anchor="middle" x="214" y="-320.8" font-family="Times,serif" font-size="14.00">HomepageInfosController</text>
<polyline fill="none" stroke="black" points="132.521,-314 295.479,-314 "/>
<text text-anchor="start" x="140.521" y="-298.8" font-family="Times,serif" font-size="14.00">create</text>
<text text-anchor="start" x="140.521" y="-284.8" font-family="Times,serif" font-size="14.00">destroy</text>
<text text-anchor="start" x="140.521" y="-270.8" font-family="Times,serif" font-size="14.00">edit</text>
<text text-anchor="start" x="140.521" y="-256.8" font-family="Times,serif" font-size="14.00">index</text>
<text text-anchor="start" x="140.521" y="-242.8" font-family="Times,serif" font-size="14.00">new</text>
<text text-anchor="start" x="140.521" y="-228.8" font-family="Times,serif" font-size="14.00">show</text>
<text text-anchor="start" x="140.521" y="-214.8" font-family="Times,serif" font-size="14.00">update</text>
<polyline fill="none" stroke="black" points="132.521,-208 295.479,-208 "/>
<polyline fill="none" stroke="black" points="132.521,-184 295.479,-184 "/>
<text text-anchor="start" x="140.521" y="-168.8" font-family="Times,serif" font-size="14.00">_layout</text>
<text text-anchor="start" x="140.521" y="-154.8" font-family="Times,serif" font-size="14.00">homepage_info_params</text>
<text text-anchor="start" x="140.521" y="-140.8" font-family="Times,serif" font-size="14.00">set_homepage_info</text>
</g>
<!-- PersonalInfosController -->
<g id="node12" class="node"><title>PersonalInfosController</title>
<path fill="none" stroke="black" d="M-45.2656,-134C-45.2656,-134 81.2656,-134 81.2656,-134 87.2656,-134 93.2656,-140 93.2656,-146 93.2656,-146 93.2656,-338 93.2656,-338 93.2656,-344 87.2656,-350 81.2656,-350 81.2656,-350 -45.2656,-350 -45.2656,-350 -51.2656,-350 -57.2656,-344 -57.2656,-338 -57.2656,-338 -57.2656,-146 -57.2656,-146 -57.2656,-140 -51.2656,-134 -45.2656,-134"/>
<text text-anchor="middle" x="18" y="-334.8" font-family="Times,serif" font-size="14.00">PersonalInfosController</text>
<polyline fill="none" stroke="black" points="-57.2656,-328 93.2656,-328 "/>
<text text-anchor="start" x="-49.2656" y="-312.8" font-family="Times,serif" font-size="14.00">create</text>
<text text-anchor="start" x="-49.2656" y="-298.8" font-family="Times,serif" font-size="14.00">delete_exp</text>
<text text-anchor="start" x="-49.2656" y="-284.8" font-family="Times,serif" font-size="14.00">destroy</text>
<text text-anchor="start" x="-49.2656" y="-270.8" font-family="Times,serif" font-size="14.00">edit</text>
<text text-anchor="start" x="-49.2656" y="-256.8" font-family="Times,serif" font-size="14.00">index</text>
<text text-anchor="start" x="-49.2656" y="-242.8" font-family="Times,serif" font-size="14.00">new</text>
<text text-anchor="start" x="-49.2656" y="-228.8" font-family="Times,serif" font-size="14.00">show</text>
<text text-anchor="start" x="-49.2656" y="-214.8" font-family="Times,serif" font-size="14.00">update</text>
<polyline fill="none" stroke="black" points="-57.2656,-208 93.2656,-208 "/>
<polyline fill="none" stroke="black" points="-57.2656,-184 93.2656,-184 "/>
<text text-anchor="start" x="-49.2656" y="-168.8" font-family="Times,serif" font-size="14.00">_layout</text>
<text text-anchor="start" x="-49.2656" y="-154.8" font-family="Times,serif" font-size="14.00">personal_info_params</text>
<text text-anchor="start" x="-49.2656" y="-140.8" font-family="Times,serif" font-size="14.00">set_personal_info</text>
</g>
<!-- PhotoLinksController -->
<g id="node13" class="node"><title>PhotoLinksController</title>
<path fill="none" stroke="black" d="M-254.055,265C-254.055,265 -139.945,265 -139.945,265 -133.945,265 -127.945,259 -127.945,253 -127.945,253 -127.945,75 -127.945,75 -127.945,69 -133.945,63 -139.945,63 -139.945,63 -254.055,63 -254.055,63 -260.055,63 -266.055,69 -266.055,75 -266.055,75 -266.055,253 -266.055,253 -266.055,259 -260.055,265 -254.055,265"/>
<text text-anchor="middle" x="-197" y="78.2" font-family="Times,serif" font-size="14.00">PhotoLinksController</text>
<polyline fill="none" stroke="black" points="-266.055,85 -127.945,85 "/>
<text text-anchor="start" x="-258.055" y="100.2" font-family="Times,serif" font-size="14.00">create</text>
<text text-anchor="start" x="-258.055" y="114.2" font-family="Times,serif" font-size="14.00">destroy</text>
<text text-anchor="start" x="-258.055" y="128.2" font-family="Times,serif" font-size="14.00">edit</text>
<text text-anchor="start" x="-258.055" y="142.2" font-family="Times,serif" font-size="14.00">index</text>
<text text-anchor="start" x="-258.055" y="156.2" font-family="Times,serif" font-size="14.00">new</text>
<text text-anchor="start" x="-258.055" y="170.2" font-family="Times,serif" font-size="14.00">show</text>
<text text-anchor="start" x="-258.055" y="184.2" font-family="Times,serif" font-size="14.00">update</text>
<polyline fill="none" stroke="black" points="-266.055,191 -127.945,191 "/>
<polyline fill="none" stroke="black" points="-266.055,215 -127.945,215 "/>
<text text-anchor="start" x="-258.055" y="230.2" font-family="Times,serif" font-size="14.00">_layout</text>
<text text-anchor="start" x="-258.055" y="244.2" font-family="Times,serif" font-size="14.00">photo_link_params</text>
<text text-anchor="start" x="-258.055" y="258.2" font-family="Times,serif" font-size="14.00">set_photo_link</text>
</g>
<!-- PhotosController -->
<g id="node14" class="node"><title>PhotosController</title>
<path fill="none" stroke="black" d="M12.1655,-381C12.1655,-381 99.8345,-381 99.8345,-381 105.834,-381 111.834,-387 111.834,-393 111.834,-393 111.834,-571 111.834,-571 111.834,-577 105.834,-583 99.8345,-583 99.8345,-583 12.1655,-583 12.1655,-583 6.16553,-583 0.165527,-577 0.165527,-571 0.165527,-571 0.165527,-393 0.165527,-393 0.165527,-387 6.16553,-381 12.1655,-381"/>
<text text-anchor="middle" x="56" y="-567.8" font-family="Times,serif" font-size="14.00">PhotosController</text>
<polyline fill="none" stroke="black" points="0.165527,-561 111.834,-561 "/>
<text text-anchor="start" x="8.16553" y="-545.8" font-family="Times,serif" font-size="14.00">create</text>
<text text-anchor="start" x="8.16553" y="-531.8" font-family="Times,serif" font-size="14.00">destroy</text>
<text text-anchor="start" x="8.16553" y="-517.8" font-family="Times,serif" font-size="14.00">edit</text>
<text text-anchor="start" x="8.16553" y="-503.8" font-family="Times,serif" font-size="14.00">index</text>
<text text-anchor="start" x="8.16553" y="-489.8" font-family="Times,serif" font-size="14.00">new</text>
<text text-anchor="start" x="8.16553" y="-475.8" font-family="Times,serif" font-size="14.00">show</text>
<text text-anchor="start" x="8.16553" y="-461.8" font-family="Times,serif" font-size="14.00">update</text>
<polyline fill="none" stroke="black" points="0.165527,-455 111.834,-455 "/>
<polyline fill="none" stroke="black" points="0.165527,-431 111.834,-431 "/>
<text text-anchor="start" x="8.16553" y="-415.8" font-family="Times,serif" font-size="14.00">_layout</text>
<text text-anchor="start" x="8.16553" y="-401.8" font-family="Times,serif" font-size="14.00">photo_params</text>
<text text-anchor="start" x="8.16553" y="-387.8" font-family="Times,serif" font-size="14.00">set_photo</text>
</g>
<!-- ProjectsController -->
<g id="node15" class="node"><title>ProjectsController</title>
<path fill="none" stroke="black" d="M68.6758,360C68.6758,360 163.324,360 163.324,360 169.324,360 175.324,354 175.324,348 175.324,348 175.324,170 175.324,170 175.324,164 169.324,158 163.324,158 163.324,158 68.6758,158 68.6758,158 62.6758,158 56.6758,164 56.6758,170 56.6758,170 56.6758,348 56.6758,348 56.6758,354 62.6758,360 68.6758,360"/>
<text text-anchor="middle" x="116" y="173.2" font-family="Times,serif" font-size="14.00">ProjectsController</text>
<polyline fill="none" stroke="black" points="56.6758,180 175.324,180 "/>
<text text-anchor="start" x="64.6758" y="195.2" font-family="Times,serif" font-size="14.00">create</text>
<text text-anchor="start" x="64.6758" y="209.2" font-family="Times,serif" font-size="14.00">destroy</text>
<text text-anchor="start" x="64.6758" y="223.2" font-family="Times,serif" font-size="14.00">edit</text>
<text text-anchor="start" x="64.6758" y="237.2" font-family="Times,serif" font-size="14.00">index</text>
<text text-anchor="start" x="64.6758" y="251.2" font-family="Times,serif" font-size="14.00">new</text>
<text text-anchor="start" x="64.6758" y="265.2" font-family="Times,serif" font-size="14.00">show</text>
<text text-anchor="start" x="64.6758" y="279.2" font-family="Times,serif" font-size="14.00">update</text>
<polyline fill="none" stroke="black" points="56.6758,286 175.324,286 "/>
<polyline fill="none" stroke="black" points="56.6758,310 175.324,310 "/>
<text text-anchor="start" x="64.6758" y="325.2" font-family="Times,serif" font-size="14.00">_layout</text>
<text text-anchor="start" x="64.6758" y="339.2" font-family="Times,serif" font-size="14.00">project_params</text>
<text text-anchor="start" x="64.6758" y="353.2" font-family="Times,serif" font-size="14.00">set_project</text>
</g>
<!-- RegistrationsController -->
<g id="node16" class="node"><title>RegistrationsController</title>
<path fill="none" stroke="black" d="M-405.638,-248C-405.638,-248 -278.362,-248 -278.362,-248 -272.362,-248 -266.362,-254 -266.362,-260 -266.362,-260 -266.362,-340 -266.362,-340 -266.362,-346 -272.362,-352 -278.362,-352 -278.362,-352 -405.638,-352 -405.638,-352 -411.638,-352 -417.638,-346 -417.638,-340 -417.638,-340 -417.638,-260 -417.638,-260 -417.638,-254 -411.638,-248 -405.638,-248"/>
<text text-anchor="middle" x="-342" y="-336.8" font-family="Times,serif" font-size="14.00">RegistrationsController</text>
<polyline fill="none" stroke="black" points="-417.638,-330 -266.362,-330 "/>
<polyline fill="none" stroke="black" points="-417.638,-306 -266.362,-306 "/>
<text text-anchor="start" x="-409.638" y="-290.8" font-family="Times,serif" font-size="14.00">account_update_params</text>
<text text-anchor="start" x="-409.638" y="-276.8" font-family="Times,serif" font-size="14.00">sign_up_params</text>
<polyline fill="none" stroke="black" points="-417.638,-270 -266.362,-270 "/>
<text text-anchor="start" x="-409.638" y="-254.8" font-family="Times,serif" font-size="14.00">_layout</text>
</g>
<!-- SchoolsController -->
<g id="node17" class="node"><title>SchoolsController</title>
<path fill="none" stroke="black" d="M335.059,322C335.059,322 428.941,322 428.941,322 434.941,322 440.941,316 440.941,310 440.941,310 440.941,132 440.941,132 440.941,126 434.941,120 428.941,120 428.941,120 335.059,120 335.059,120 329.059,120 323.059,126 323.059,132 323.059,132 323.059,310 323.059,310 323.059,316 329.059,322 335.059,322"/>
<text text-anchor="middle" x="382" y="135.2" font-family="Times,serif" font-size="14.00">SchoolsController</text>
<polyline fill="none" stroke="black" points="323.059,142 440.941,142 "/>
<text text-anchor="start" x="331.059" y="157.2" font-family="Times,serif" font-size="14.00">create</text>
<text text-anchor="start" x="331.059" y="171.2" font-family="Times,serif" font-size="14.00">destroy</text>
<text text-anchor="start" x="331.059" y="185.2" font-family="Times,serif" font-size="14.00">edit</text>
<text text-anchor="start" x="331.059" y="199.2" font-family="Times,serif" font-size="14.00">index</text>
<text text-anchor="start" x="331.059" y="213.2" font-family="Times,serif" font-size="14.00">new</text>
<text text-anchor="start" x="331.059" y="227.2" font-family="Times,serif" font-size="14.00">show</text>
<text text-anchor="start" x="331.059" y="241.2" font-family="Times,serif" font-size="14.00">update</text>
<polyline fill="none" stroke="black" points="323.059,248 440.941,248 "/>
<polyline fill="none" stroke="black" points="323.059,272 440.941,272 "/>
<text text-anchor="start" x="331.059" y="287.2" font-family="Times,serif" font-size="14.00">_layout</text>
<text text-anchor="start" x="331.059" y="301.2" font-family="Times,serif" font-size="14.00">school_params</text>
<text text-anchor="start" x="331.059" y="315.2" font-family="Times,serif" font-size="14.00">set_school</text>
</g>
<!-- ShowcasesController -->
<g id="node18" class="node"><title>ShowcasesController</title>
<path fill="none" stroke="black" d="M163.51,-381C163.51,-381 274.49,-381 274.49,-381 280.49,-381 286.49,-387 286.49,-393 286.49,-393 286.49,-571 286.49,-571 286.49,-577 280.49,-583 274.49,-583 274.49,-583 163.51,-583 163.51,-583 157.51,-583 151.51,-577 151.51,-571 151.51,-571 151.51,-393 151.51,-393 151.51,-387 157.51,-381 163.51,-381"/>
<text text-anchor="middle" x="219" y="-567.8" font-family="Times,serif" font-size="14.00">ShowcasesController</text>
<polyline fill="none" stroke="black" points="151.51,-561 286.49,-561 "/>
<text text-anchor="start" x="159.51" y="-545.8" font-family="Times,serif" font-size="14.00">create</text>
<text text-anchor="start" x="159.51" y="-531.8" font-family="Times,serif" font-size="14.00">destroy</text>
<text text-anchor="start" x="159.51" y="-517.8" font-family="Times,serif" font-size="14.00">edit</text>
<text text-anchor="start" x="159.51" y="-503.8" font-family="Times,serif" font-size="14.00">index</text>
<text text-anchor="start" x="159.51" y="-489.8" font-family="Times,serif" font-size="14.00">new</text>
<text text-anchor="start" x="159.51" y="-475.8" font-family="Times,serif" font-size="14.00">show</text>
<text text-anchor="start" x="159.51" y="-461.8" font-family="Times,serif" font-size="14.00">update</text>
<polyline fill="none" stroke="black" points="151.51,-455 286.49,-455 "/>
<polyline fill="none" stroke="black" points="151.51,-431 286.49,-431 "/>
<text text-anchor="start" x="159.51" y="-415.8" font-family="Times,serif" font-size="14.00">_layout</text>
<text text-anchor="start" x="159.51" y="-401.8" font-family="Times,serif" font-size="14.00">set_showcase</text>
<text text-anchor="start" x="159.51" y="-387.8" font-family="Times,serif" font-size="14.00">showcase_params</text>
</g>
<!-- SocialLinksController -->
<g id="node19" class="node"><title>SocialLinksController</title>
<path fill="none" stroke="black" d="M-254.214,18C-254.214,18 -137.786,18 -137.786,18 -131.786,18 -125.786,12 -125.786,6 -125.786,6 -125.786,-172 -125.786,-172 -125.786,-178 -131.786,-184 -137.786,-184 -137.786,-184 -254.214,-184 -254.214,-184 -260.214,-184 -266.214,-178 -266.214,-172 -266.214,-172 -266.214,6 -266.214,6 -266.214,12 -260.214,18 -254.214,18"/>
<text text-anchor="middle" x="-196" y="-168.8" font-family="Times,serif" font-size="14.00">SocialLinksController</text>
<polyline fill="none" stroke="black" points="-266.214,-162 -125.786,-162 "/>
<text text-anchor="start" x="-258.214" y="-146.8" font-family="Times,serif" font-size="14.00">create</text>
<text text-anchor="start" x="-258.214" y="-132.8" font-family="Times,serif" font-size="14.00">destroy</text>
<text text-anchor="start" x="-258.214" y="-118.8" font-family="Times,serif" font-size="14.00">edit</text>
<text text-anchor="start" x="-258.214" y="-104.8" font-family="Times,serif" font-size="14.00">index</text>
<text text-anchor="start" x="-258.214" y="-90.8" font-family="Times,serif" font-size="14.00">new</text>
<text text-anchor="start" x="-258.214" y="-76.8" font-family="Times,serif" font-size="14.00">show</text>
<text text-anchor="start" x="-258.214" y="-62.8" font-family="Times,serif" font-size="14.00">update</text>
<polyline fill="none" stroke="black" points="-266.214,-56 -125.786,-56 "/>
<polyline fill="none" stroke="black" points="-266.214,-32 -125.786,-32 "/>
<text text-anchor="start" x="-258.214" y="-16.8" font-family="Times,serif" font-size="14.00">_layout</text>
<text text-anchor="start" x="-258.214" y="-2.8" font-family="Times,serif" font-size="14.00">set_social_link</text>
<text text-anchor="start" x="-258.214" y="11.2" font-family="Times,serif" font-size="14.00">social_link_params</text>
</g>
<!-- Users::RegistrationsController -->
<g id="node20" class="node"><title>Users::RegistrationsController</title>
<path fill="none" stroke="black" d="M221.455,474C221.455,474 384.545,474 384.545,474 390.545,474 396.545,468 396.545,462 396.545,462 396.545,370 396.545,370 396.545,364 390.545,358 384.545,358 384.545,358 221.455,358 221.455,358 215.455,358 209.455,364 209.455,370 209.455,370 209.455,462 209.455,462 209.455,468 215.455,474 221.455,474"/>
<text text-anchor="middle" x="303" y="373.2" font-family="Times,serif" font-size="14.00">Users::RegistrationsController</text>
<polyline fill="none" stroke="black" points="209.455,380 396.545,380 "/>
<text text-anchor="start" x="217.455" y="395.2" font-family="Times,serif" font-size="14.00">create</text>
<polyline fill="none" stroke="black" points="209.455,402 396.545,402 "/>
<text text-anchor="start" x="217.455" y="417.2" font-family="Times,serif" font-size="14.00">account_update_params</text>
<text text-anchor="start" x="217.455" y="431.2" font-family="Times,serif" font-size="14.00">after_sign_up_path_for</text>
<text text-anchor="start" x="217.455" y="445.2" font-family="Times,serif" font-size="14.00">sign_up_params</text>
<polyline fill="none" stroke="black" points="209.455,452 396.545,452 "/>
<text text-anchor="start" x="217.455" y="467.2" font-family="Times,serif" font-size="14.00">_layout</text>
</g>
<!-- UsersController -->
<g id="node21" class="node"><title>UsersController</title>
<path fill="none" stroke="black" d="M335.286,-172C335.286,-172 416.714,-172 416.714,-172 422.714,-172 428.714,-178 428.714,-184 428.714,-184 428.714,-376 428.714,-376 428.714,-382 422.714,-388 416.714,-388 416.714,-388 335.286,-388 335.286,-388 329.286,-388 323.286,-382 323.286,-376 323.286,-376 323.286,-184 323.286,-184 323.286,-178 329.286,-172 335.286,-172"/>
<text text-anchor="middle" x="376" y="-372.8" font-family="Times,serif" font-size="14.00">UsersController</text>
<polyline fill="none" stroke="black" points="323.286,-366 428.714,-366 "/>
<text text-anchor="start" x="331.286" y="-350.8" font-family="Times,serif" font-size="14.00">create</text>
<text text-anchor="start" x="331.286" y="-336.8" font-family="Times,serif" font-size="14.00">destroy</text>
<text text-anchor="start" x="331.286" y="-322.8" font-family="Times,serif" font-size="14.00">edit</text>
<text text-anchor="start" x="331.286" y="-308.8" font-family="Times,serif" font-size="14.00">index</text>
<text text-anchor="start" x="331.286" y="-294.8" font-family="Times,serif" font-size="14.00">new</text>
<text text-anchor="start" x="331.286" y="-280.8" font-family="Times,serif" font-size="14.00">show</text>
<text text-anchor="start" x="331.286" y="-266.8" font-family="Times,serif" font-size="14.00">update</text>
<polyline fill="none" stroke="black" points="323.286,-260 428.714,-260 "/>
<polyline fill="none" stroke="black" points="323.286,-236 428.714,-236 "/>
<text text-anchor="start" x="331.286" y="-220.8" font-family="Times,serif" font-size="14.00">_layout</text>
<text text-anchor="start" x="331.286" y="-206.8" font-family="Times,serif" font-size="14.00">set_user</text>
<text text-anchor="start" x="331.286" y="-192.8" font-family="Times,serif" font-size="14.00">user_params</text>
<text text-anchor="start" x="331.286" y="-178.8" font-family="Times,serif" font-size="14.00">verify_email</text>
</g>
<!-- WebsiteSettingsController -->
<g id="node22" class="node"><title>WebsiteSettingsController</title>
<path fill="none" stroke="black" d="M-82.7085,113C-82.7085,113 56.7085,113 56.7085,113 62.7085,113 68.7085,107 68.7085,101 68.7085,101 68.7085,-77 68.7085,-77 68.7085,-83 62.7085,-89 56.7085,-89 56.7085,-89 -82.7085,-89 -82.7085,-89 -88.7085,-89 -94.7085,-83 -94.7085,-77 -94.7085,-77 -94.7085,101 -94.7085,101 -94.7085,107 -88.7085,113 -82.7085,113"/>
<text text-anchor="middle" x="-13" y="-73.8" font-family="Times,serif" font-size="14.00">WebsiteSettingsController</text>
<polyline fill="none" stroke="black" points="-94.7085,-67 68.7085,-67 "/>
<text text-anchor="start" x="-86.7085" y="-51.8" font-family="Times,serif" font-size="14.00">create</text>
<text text-anchor="start" x="-86.7085" y="-37.8" font-family="Times,serif" font-size="14.00">destroy</text>
<text text-anchor="start" x="-86.7085" y="-23.8" font-family="Times,serif" font-size="14.00">edit</text>
<text text-anchor="start" x="-86.7085" y="-9.8" font-family="Times,serif" font-size="14.00">index</text>
<text text-anchor="start" x="-86.7085" y="4.2" font-family="Times,serif" font-size="14.00">new</text>
<text text-anchor="start" x="-86.7085" y="18.2" font-family="Times,serif" font-size="14.00">show</text>
<text text-anchor="start" x="-86.7085" y="32.2" font-family="Times,serif" font-size="14.00">update</text>
<polyline fill="none" stroke="black" points="-94.7085,39 68.7085,39 "/>
<polyline fill="none" stroke="black" points="-94.7085,63 68.7085,63 "/>
<text text-anchor="start" x="-86.7085" y="78.2" font-family="Times,serif" font-size="14.00">_layout</text>
<text text-anchor="start" x="-86.7085" y="92.2" font-family="Times,serif" font-size="14.00">set_website_setting</text>
<text text-anchor="start" x="-86.7085" y="106.2" font-family="Times,serif" font-size="14.00">website_setting_params</text>
</g>
</g>
</svg>
