<?xml version="1.0" encoding="UTF-8" standalone="no"?>
<!DOCTYPE svg PUBLIC "-//W3C//DTD SVG 1.1//EN"
 "http://www.w3.org/Graphics/SVG/1.1/DTD/svg11.dtd">
<!-- Generated by graphviz version 2.38.0 (20140413.2041)
 -->
<!-- Title: controllers_diagram Pages: 1 -->
<svg width="1150pt" height="1180pt"
 viewBox="0.00 0.00 1149.71 1180.00" xmlns="http://www.w3.org/2000/svg" xmlns:xlink="http://www.w3.org/1999/xlink">
<g id="graph0" class="graph" transform="scale(1 1) rotate(0) translate(459.834 682.5)">
<title>controllers_diagram</title>
<polygon fill="none" stroke="none" points="-459.834,497.5 -459.834,-682.5 689.879,-682.5 689.879,497.5 -459.834,497.5"/>
<!-- _diagram_info -->
<g id="node1" class="node"><title>_diagram_info</title>
<text text-anchor="start" x="8.31226" y="415.9" font-family="Times,serif" font-size="13.00">Controllers diagram</text>
<text text-anchor="start" x="8.31226" y="428.9" font-family="Times,serif" font-size="13.00">Date: Aug 29 2016 &#45; 16:16</text>
<text text-anchor="start" x="8.31226" y="441.9" font-family="Times,serif" font-size="13.00">Migration version: 20160718205528</text>
<text text-anchor="start" x="8.31226" y="454.9" font-family="Times,serif" font-size="13.00">Generated by RailRoady 1.3.1</text>
<text text-anchor="start" x="8.31226" y="467.9" font-family="Times,serif" font-size="13.00">http://railroady.prestonlee.com</text>
</g>
<!-- Admins::RegistrationsController -->
<g id="node2" class="node"><title>Admins::RegistrationsController</title>
<path fill="none" stroke="black" d="M-424.772,436C-424.772,436 -249.228,436 -249.228,436 -243.228,436 -237.228,430 -237.228,424 -237.228,424 -237.228,344 -237.228,344 -237.228,338 -243.228,332 -249.228,332 -249.228,332 -424.772,332 -424.772,332 -430.772,332 -436.772,338 -436.772,344 -436.772,344 -436.772,424 -436.772,424 -436.772,430 -430.772,436 -424.772,436"/>
<text text-anchor="middle" x="-337" y="347.2" font-family="Times,serif" font-size="14.00">Admins::RegistrationsController</text>
<polyline fill="none" stroke="black" points="-436.772,354 -237.228,354 "/>
<polyline fill="none" stroke="black" points="-436.772,378 -237.228,378 "/>
<text text-anchor="start" x="-428.772" y="393.2" font-family="Times,serif" font-size="14.00">after_sign_up_path_for</text>
<text text-anchor="start" x="-428.772" y="407.2" font-family="Times,serif" font-size="14.00">sign_up</text>
<polyline fill="none" stroke="black" points="-436.772,414 -237.228,414 "/>
<text text-anchor="start" x="-428.772" y="429.2" font-family="Times,serif" font-size="14.00">_layout</text>
</g>
<!-- AdminsController -->
<g id="node3" class="node"><title>AdminsController</title>
<path fill="none" stroke="black" d="M183.059,360C183.059,360 276.941,360 276.941,360 282.941,360 288.941,354 288.941,348 288.941,348 288.941,170 288.941,170 288.941,164 282.941,158 276.941,158 276.941,158 183.059,158 183.059,158 177.059,158 171.059,164 171.059,170 171.059,170 171.059,348 171.059,348 171.059,354 177.059,360 183.059,360"/>
<text text-anchor="middle" x="230" y="173.2" font-family="Times,serif" font-size="14.00">AdminsController</text>
<polyline fill="none" stroke="black" points="171.059,180 288.941,180 "/>
<text text-anchor="start" x="179.059" y="195.2" font-family="Times,serif" font-size="14.00">create</text>
<text text-anchor="start" x="179.059" y="209.2" font-family="Times,serif" font-size="14.00">destroy</text>
<text text-anchor="start" x="179.059" y="223.2" font-family="Times,serif" font-size="14.00">edit</text>
<text text-anchor="start" x="179.059" y="237.2" font-family="Times,serif" font-size="14.00">index</text>
<text text-anchor="start" x="179.059" y="251.2" font-family="Times,serif" font-size="14.00">new</text>
<text text-anchor="start" x="179.059" y="265.2" font-family="Times,serif" font-size="14.00">show</text>
<text text-anchor="start" x="179.059" y="279.2" font-family="Times,serif" font-size="14.00">update</text>
<polyline fill="none" stroke="black" points="171.059,286 288.941,286 "/>
<polyline fill="none" stroke="black" points="171.059,310 288.941,310 "/>
<text text-anchor="start" x="179.059" y="325.2" font-family="Times,serif" font-size="14.00">_layout</text>
<text text-anchor="start" x="179.059" y="339.2" font-family="Times,serif" font-size="14.00">admin_params</text>
<text text-anchor="start" x="179.059" y="353.2" font-family="Times,serif" font-size="14.00">set_admin</text>
</g>
<!-- AfterSignupController -->
<g id="node4" class="node"><title>AfterSignupController</title>
<path fill="none" stroke="black" d="M505.621,-286C505.621,-286 624.379,-286 624.379,-286 630.379,-286 636.379,-292 636.379,-298 636.379,-298 636.379,-366 636.379,-366 636.379,-372 630.379,-378 624.379,-378 624.379,-378 505.621,-378 505.621,-378 499.621,-378 493.621,-372 493.621,-366 493.621,-366 493.621,-298 493.621,-298 493.621,-292 499.621,-286 505.621,-286"/>
<text text-anchor="middle" x="565" y="-362.8" font-family="Times,serif" font-size="14.00">AfterSignupController</text>
<polyline fill="none" stroke="black" points="493.621,-356 636.379,-356 "/>
<polyline fill="none" stroke="black" points="493.621,-332 636.379,-332 "/>
<polyline fill="none" stroke="black" points="493.621,-308 636.379,-308 "/>
<text text-anchor="start" x="501.621" y="-292.8" font-family="Times,serif" font-size="14.00">_layout</text>
</g>
<!-- AnalyticsController -->
<g id="node5" class="node"><title>AnalyticsController</title>
<path fill="none" stroke="black" d="M335.4,-172C335.4,-172 438.6,-172 438.6,-172 444.6,-172 450.6,-178 450.6,-184 450.6,-184 450.6,-362 450.6,-362 450.6,-368 444.6,-374 438.6,-374 438.6,-374 335.4,-374 335.4,-374 329.4,-374 323.4,-368 323.4,-362 323.4,-362 323.4,-184 323.4,-184 323.4,-178 329.4,-172 335.4,-172"/>
<text text-anchor="middle" x="387" y="-358.8" font-family="Times,serif" font-size="14.00">AnalyticsController</text>
<polyline fill="none" stroke="black" points="323.4,-352 450.6,-352 "/>
<text text-anchor="start" x="331.4" y="-336.8" font-family="Times,serif" font-size="14.00">create</text>
<text text-anchor="start" x="331.4" y="-322.8" font-family="Times,serif" font-size="14.00">destroy</text>
<text text-anchor="start" x="331.4" y="-308.8" font-family="Times,serif" font-size="14.00">edit</text>
<text text-anchor="start" x="331.4" y="-294.8" font-family="Times,serif" font-size="14.00">index</text>
<text text-anchor="start" x="331.4" y="-280.8" font-family="Times,serif" font-size="14.00">new</text>
<text text-anchor="start" x="331.4" y="-266.8" font-family="Times,serif" font-size="14.00">show</text>
<text text-anchor="start" x="331.4" y="-252.8" font-family="Times,serif" font-size="14.00">update</text>
<polyline fill="none" stroke="black" points="323.4,-246 450.6,-246 "/>
<polyline fill="none" stroke="black" points="323.4,-222 450.6,-222 "/>
<text text-anchor="start" x="331.4" y="-206.8" font-family="Times,serif" font-size="14.00">_layout</text>
<text text-anchor="start" x="331.4" y="-192.8" font-family="Times,serif" font-size="14.00">analytic_params</text>
<text text-anchor="start" x="331.4" y="-178.8" font-family="Times,serif" font-size="14.00">set_analytic</text>
</g>
<!-- ApplicationController -->
<g id="node6" class="node"><title>ApplicationController</title>
<path fill="none" stroke="black" d="M506.362,56C506.362,56 633.638,56 633.638,56 639.638,56 645.638,50 645.638,44 645.638,44 645.638,-90 645.638,-90 645.638,-96 639.638,-102 633.638,-102 633.638,-102 506.362,-102 506.362,-102 500.362,-102 494.362,-96 494.362,-90 494.362,-90 494.362,44 494.362,44 494.362,50 500.362,56 506.362,56"/>
<text text-anchor="middle" x="570" y="-86.8" font-family="Times,serif" font-size="14.00">ApplicationController</text>
<polyline fill="none" stroke="black" points="494.362,-80 645.638,-80 "/>
<text text-anchor="start" x="502.362" y="-64.8" font-family="Times,serif" font-size="14.00">authenticate_person!</text>
<text text-anchor="start" x="502.362" y="-50.8" font-family="Times,serif" font-size="14.00">current_people</text>
<text text-anchor="start" x="502.362" y="-36.8" font-family="Times,serif" font-size="14.00">current_person</text>
<text text-anchor="start" x="502.362" y="-22.8" font-family="Times,serif" font-size="14.00">person_signed_in?</text>
<polyline fill="none" stroke="black" points="494.362,-16 645.638,-16 "/>
<text text-anchor="start" x="502.362" y="-0.8" font-family="Times,serif" font-size="14.00">account_update_params</text>
<text text-anchor="start" x="502.362" y="13.2" font-family="Times,serif" font-size="14.00">after_sign_in_path_for</text>
<text text-anchor="start" x="502.362" y="27.2" font-family="Times,serif" font-size="14.00">current_ability</text>
<polyline fill="none" stroke="black" points="494.362,34 645.638,34 "/>
<text text-anchor="start" x="502.362" y="49.2" font-family="Times,serif" font-size="14.00">_layout</text>
</g>
<!-- ArticlesController -->
<g id="node7" class="node"><title>ArticlesController</title>
<path fill="none" stroke="black" d="M-329.931,-343C-329.931,-343 -236.069,-343 -236.069,-343 -230.069,-343 -224.069,-349 -224.069,-355 -224.069,-355 -224.069,-533 -224.069,-533 -224.069,-539 -230.069,-545 -236.069,-545 -236.069,-545 -329.931,-545 -329.931,-545 -335.931,-545 -341.931,-539 -341.931,-533 -341.931,-533 -341.931,-355 -341.931,-355 -341.931,-349 -335.931,-343 -329.931,-343"/>
<text text-anchor="middle" x="-283" y="-529.8" font-family="Times,serif" font-size="14.00">ArticlesController</text>
<polyline fill="none" stroke="black" points="-341.931,-523 -224.069,-523 "/>
<text text-anchor="start" x="-333.931" y="-507.8" font-family="Times,serif" font-size="14.00">create</text>
<text text-anchor="start" x="-333.931" y="-493.8" font-family="Times,serif" font-size="14.00">destroy</text>
<text text-anchor="start" x="-333.931" y="-479.8" font-family="Times,serif" font-size="14.00">edit</text>
<text text-anchor="start" x="-333.931" y="-465.8" font-family="Times,serif" font-size="14.00">index</text>
<text text-anchor="start" x="-333.931" y="-451.8" font-family="Times,serif" font-size="14.00">new</text>
<text text-anchor="start" x="-333.931" y="-437.8" font-family="Times,serif" font-size="14.00">show</text>
<text text-anchor="start" x="-333.931" y="-423.8" font-family="Times,serif" font-size="14.00">update</text>
<polyline fill="none" stroke="black" points="-341.931,-417 -224.069,-417 "/>
<polyline fill="none" stroke="black" points="-341.931,-393 -224.069,-393 "/>
<text text-anchor="start" x="-333.931" y="-377.8" font-family="Times,serif" font-size="14.00">_layout</text>
<text text-anchor="start" x="-333.931" y="-363.8" font-family="Times,serif" font-size="14.00">article_params</text>
<text text-anchor="start" x="-333.931" y="-349.8" font-family="Times,serif" font-size="14.00">set_article</text>
</g>
<!-- BackgroundInfosController -->
<g id="node8" class="node"><title>BackgroundInfosController</title>
<path fill="none" stroke="black" d="M125.627,113C125.627,113 272.373,113 272.373,113 278.373,113 284.373,107 284.373,101 284.373,101 284.373,-77 284.373,-77 284.373,-83 278.373,-89 272.373,-89 272.373,-89 125.627,-89 125.627,-89 119.627,-89 113.627,-83 113.627,-77 113.627,-77 113.627,101 113.627,101 113.627,107 119.627,113 125.627,113"/>
<text text-anchor="middle" x="199" y="-73.8" font-family="Times,serif" font-size="14.00">BackgroundInfosController</text>
<polyline fill="none" stroke="black" points="113.627,-67 284.373,-67 "/>
<text text-anchor="start" x="121.627" y="-51.8" font-family="Times,serif" font-size="14.00">create</text>
<text text-anchor="start" x="121.627" y="-37.8" font-family="Times,serif" font-size="14.00">destroy</text>
<text text-anchor="start" x="121.627" y="-23.8" font-family="Times,serif" font-size="14.00">edit</text>
<text text-anchor="start" x="121.627" y="-9.8" font-family="Times,serif" font-size="14.00">index</text>
<text text-anchor="start" x="121.627" y="4.2" font-family="Times,serif" font-size="14.00">new</text>
<text text-anchor="start" x="121.627" y="18.2" font-family="Times,serif" font-size="14.00">show</text>
<text text-anchor="start" x="121.627" y="32.2" font-family="Times,serif" font-size="14.00">update</text>
<polyline fill="none" stroke="black" points="113.627,39 284.373,39 "/>
<polyline fill="none" stroke="black" points="113.627,63 284.373,63 "/>
<text text-anchor="start" x="121.627" y="78.2" font-family="Times,serif" font-size="14.00">_layout</text>
<text text-anchor="start" x="121.627" y="92.2" font-family="Times,serif" font-size="14.00">background_info_params</text>
<text text-anchor="start" x="121.627" y="106.2" font-family="Times,serif" font-size="14.00">set_background_info</text>
</g>
<!-- Clerks::RegistrationsController -->
<g id="node9" class="node"><title>Clerks::RegistrationsController</title>
<path fill="none" stroke="black" d="M506.121,227C506.121,227 673.879,227 673.879,227 679.879,227 685.879,221 685.879,215 685.879,215 685.879,107 685.879,107 685.879,101 679.879,95 673.879,95 673.879,95 506.121,95 506.121,95 500.121,95 494.121,101 494.121,107 494.121,107 494.121,215 494.121,215 494.121,221 500.121,227 506.121,227"/>
<text text-anchor="middle" x="590" y="110.2" font-family="Times,serif" font-size="14.00">Clerks::RegistrationsController</text>
<polyline fill="none" stroke="black" points="494.121,117 685.879,117 "/>
<polyline fill="none" stroke="black" points="494.121,141 685.879,141 "/>
<text text-anchor="start" x="502.121" y="156.2" font-family="Times,serif" font-size="14.00">account_update_params</text>
<text text-anchor="start" x="502.121" y="170.2" font-family="Times,serif" font-size="14.00">after_sign_up_path_for</text>
<text text-anchor="start" x="502.121" y="184.2" font-family="Times,serif" font-size="14.00">sign_up</text>
<text text-anchor="start" x="502.121" y="198.2" font-family="Times,serif" font-size="14.00">sign_up_params</text>
<polyline fill="none" stroke="black" points="494.121,205 685.879,205 "/>
<text text-anchor="start" x="502.121" y="220.2" font-family="Times,serif" font-size="14.00">_layout</text>
</g>
<!-- ClerksController -->
<g id="node10" class="node"><title>ClerksController</title>
<path fill="none" stroke="black" d="M-64.0483,-476C-64.0483,-476 22.0483,-476 22.0483,-476 28.0483,-476 34.0483,-482 34.0483,-488 34.0483,-488 34.0483,-666 34.0483,-666 34.0483,-672 28.0483,-678 22.0483,-678 22.0483,-678 -64.0483,-678 -64.0483,-678 -70.0483,-678 -76.0483,-672 -76.0483,-666 -76.0483,-666 -76.0483,-488 -76.0483,-488 -76.0483,-482 -70.0483,-476 -64.0483,-476"/>
<text text-anchor="middle" x="-21" y="-662.8" font-family="Times,serif" font-size="14.00">ClerksController</text>
<polyline fill="none" stroke="black" points="-76.0483,-656 34.0483,-656 "/>
<text text-anchor="start" x="-68.0483" y="-640.8" font-family="Times,serif" font-size="14.00">create</text>
<text text-anchor="start" x="-68.0483" y="-626.8" font-family="Times,serif" font-size="14.00">destroy</text>
<text text-anchor="start" x="-68.0483" y="-612.8" font-family="Times,serif" font-size="14.00">edit</text>
<text text-anchor="start" x="-68.0483" y="-598.8" font-family="Times,serif" font-size="14.00">index</text>
<text text-anchor="start" x="-68.0483" y="-584.8" font-family="Times,serif" font-size="14.00">new</text>
<text text-anchor="start" x="-68.0483" y="-570.8" font-family="Times,serif" font-size="14.00">show</text>
<text text-anchor="start" x="-68.0483" y="-556.8" font-family="Times,serif" font-size="14.00">update</text>
<polyline fill="none" stroke="black" points="-76.0483,-550 34.0483,-550 "/>
<polyline fill="none" stroke="black" points="-76.0483,-526 34.0483,-526 "/>
<text text-anchor="start" x="-68.0483" y="-510.8" font-family="Times,serif" font-size="14.00">_layout</text>
<text text-anchor="start" x="-68.0483" y="-496.8" font-family="Times,serif" font-size="14.00">clerk_params</text>
<text text-anchor="start" x="-68.0483" y="-482.8" font-family="Times,serif" font-size="14.00">set_clerk</text>
</g>
<!-- DemosController -->
<g id="node11" class="node"><title>DemosController</title>
<path fill="none" stroke="black" d="M487.396,474C487.396,474 576.604,474 576.604,474 582.604,474 588.604,468 588.604,462 588.604,462 588.604,284 588.604,284 588.604,278 582.604,272 576.604,272 576.604,272 487.396,272 487.396,272 481.396,272 475.396,278 475.396,284 475.396,284 475.396,462 475.396,462 475.396,468 481.396,474 487.396,474"/>
<text text-anchor="middle" x="532" y="287.2" font-family="Times,serif" font-size="14.00">DemosController</text>
<polyline fill="none" stroke="black" points="475.396,294 588.604,294 "/>
<text text-anchor="start" x="483.396" y="309.2" font-family="Times,serif" font-size="14.00">create</text>
<text text-anchor="start" x="483.396" y="323.2" font-family="Times,serif" font-size="14.00">destroy</text>
<text text-anchor="start" x="483.396" y="337.2" font-family="Times,serif" font-size="14.00">edit</text>
<text text-anchor="start" x="483.396" y="351.2" font-family="Times,serif" font-size="14.00">index</text>
<text text-anchor="start" x="483.396" y="365.2" font-family="Times,serif" font-size="14.00">new</text>
<text text-anchor="start" x="483.396" y="379.2" font-family="Times,serif" font-size="14.00">show</text>
<text text-anchor="start" x="483.396" y="393.2" font-family="Times,serif" font-size="14.00">update</text>
<polyline fill="none" stroke="black" points="475.396,400 588.604,400 "/>
<polyline fill="none" stroke="black" points="475.396,424 588.604,424 "/>
<text text-anchor="start" x="483.396" y="439.2" font-family="Times,serif" font-size="14.00">_layout</text>
<text text-anchor="start" x="483.396" y="453.2" font-family="Times,serif" font-size="14.00">demo_params</text>
<text text-anchor="start" x="483.396" y="467.2" font-family="Times,serif" font-size="14.00">set_demo</text>
</g>
<!-- DomainsController -->
<g id="node12" class="node"><title>DomainsController</title>
<path fill="none" stroke="black" d="M-121.048,360C-121.048,360 -20.9517,360 -20.9517,360 -14.9517,360 -8.95166,354 -8.95166,348 -8.95166,348 -8.95166,170 -8.95166,170 -8.95166,164 -14.9517,158 -20.9517,158 -20.9517,158 -121.048,158 -121.048,158 -127.048,158 -133.048,164 -133.048,170 -133.048,170 -133.048,348 -133.048,348 -133.048,354 -127.048,360 -121.048,360"/>
<text text-anchor="middle" x="-71" y="173.2" font-family="Times,serif" font-size="14.00">DomainsController</text>
<polyline fill="none" stroke="black" points="-133.048,180 -8.95166,180 "/>
<text text-anchor="start" x="-125.048" y="195.2" font-family="Times,serif" font-size="14.00">create</text>
<text text-anchor="start" x="-125.048" y="209.2" font-family="Times,serif" font-size="14.00">destroy</text>
<text text-anchor="start" x="-125.048" y="223.2" font-family="Times,serif" font-size="14.00">edit</text>
<text text-anchor="start" x="-125.048" y="237.2" font-family="Times,serif" font-size="14.00">index</text>
<text text-anchor="start" x="-125.048" y="251.2" font-family="Times,serif" font-size="14.00">new</text>
<text text-anchor="start" x="-125.048" y="265.2" font-family="Times,serif" font-size="14.00">show</text>
<text text-anchor="start" x="-125.048" y="279.2" font-family="Times,serif" font-size="14.00">update</text>
<polyline fill="none" stroke="black" points="-133.048,286 -8.95166,286 "/>
<polyline fill="none" stroke="black" points="-133.048,310 -8.95166,310 "/>
<text text-anchor="start" x="-125.048" y="325.2" font-family="Times,serif" font-size="14.00">_layout</text>
<text text-anchor="start" x="-125.048" y="339.2" font-family="Times,serif" font-size="14.00">domain_params</text>
<text text-anchor="start" x="-125.048" y="353.2" font-family="Times,serif" font-size="14.00">set_domain</text>
</g>
<!-- ExperiencesController -->
<g id="node13" class="node"><title>ExperiencesController</title>
<path fill="none" stroke="black" d="M-253.976,56C-253.976,56 -136.024,56 -136.024,56 -130.024,56 -124.024,50 -124.024,44 -124.024,44 -124.024,-134 -124.024,-134 -124.024,-140 -130.024,-146 -136.024,-146 -136.024,-146 -253.976,-146 -253.976,-146 -259.976,-146 -265.976,-140 -265.976,-134 -265.976,-134 -265.976,44 -265.976,44 -265.976,50 -259.976,56 -253.976,56"/>
<text text-anchor="middle" x="-195" y="-130.8" font-family="Times,serif" font-size="14.00">ExperiencesController</text>
<polyline fill="none" stroke="black" points="-265.976,-124 -124.024,-124 "/>
<text text-anchor="start" x="-257.976" y="-108.8" font-family="Times,serif" font-size="14.00">create</text>
<text text-anchor="start" x="-257.976" y="-94.8" font-family="Times,serif" font-size="14.00">destroy</text>
<text text-anchor="start" x="-257.976" y="-80.8" font-family="Times,serif" font-size="14.00">edit</text>
<text text-anchor="start" x="-257.976" y="-66.8" font-family="Times,serif" font-size="14.00">index</text>
<text text-anchor="start" x="-257.976" y="-52.8" font-family="Times,serif" font-size="14.00">new</text>
<text text-anchor="start" x="-257.976" y="-38.8" font-family="Times,serif" font-size="14.00">show</text>
<text text-anchor="start" x="-257.976" y="-24.8" font-family="Times,serif" font-size="14.00">update</text>
<polyline fill="none" stroke="black" points="-265.976,-18 -124.024,-18 "/>
<polyline fill="none" stroke="black" points="-265.976,6 -124.024,6 "/>
<text text-anchor="start" x="-257.976" y="21.2" font-family="Times,serif" font-size="14.00">_layout</text>
<text text-anchor="start" x="-257.976" y="35.2" font-family="Times,serif" font-size="14.00">experience_params</text>
<text text-anchor="start" x="-257.976" y="49.2" font-family="Times,serif" font-size="14.00">set_experience</text>
</g>
<!-- HomepageInfosController -->
<g id="node14" class="node"><title>HomepageInfosController</title>
<path fill="none" stroke="black" d="M144.521,-134C144.521,-134 283.479,-134 283.479,-134 289.479,-134 295.479,-140 295.479,-146 295.479,-146 295.479,-324 295.479,-324 295.479,-330 289.479,-336 283.479,-336 283.479,-336 144.521,-336 144.521,-336 138.521,-336 132.521,-330 132.521,-324 132.521,-324 132.521,-146 132.521,-146 132.521,-140 138.521,-134 144.521,-134"/>
<text text-anchor="middle" x="214" y="-320.8" font-family="Times,serif" font-size="14.00">HomepageInfosController</text>
<polyline fill="none" stroke="black" points="132.521,-314 295.479,-314 "/>
<text text-anchor="start" x="140.521" y="-298.8" font-family="Times,serif" font-size="14.00">create</text>
<text text-anchor="start" x="140.521" y="-284.8" font-family="Times,serif" font-size="14.00">destroy</text>
<text text-anchor="start" x="140.521" y="-270.8" font-family="Times,serif" font-size="14.00">edit</text>
<text text-anchor="start" x="140.521" y="-256.8" font-family="Times,serif" font-size="14.00">index</text>
<text text-anchor="start" x="140.521" y="-242.8" font-family="Times,serif" font-size="14.00">new</text>
<text text-anchor="start" x="140.521" y="-228.8" font-family="Times,serif" font-size="14.00">show</text>
<text text-anchor="start" x="140.521" y="-214.8" font-family="Times,serif" font-size="14.00">update</text>
<polyline fill="none" stroke="black" points="132.521,-208 295.479,-208 "/>
<polyline fill="none" stroke="black" points="132.521,-184 295.479,-184 "/>
<text text-anchor="start" x="140.521" y="-168.8" font-family="Times,serif" font-size="14.00">_layout</text>
<text text-anchor="start" x="140.521" y="-154.8" font-family="Times,serif" font-size="14.00">homepage_info_params</text>
<text text-anchor="start" x="140.521" y="-140.8" font-family="Times,serif" font-size="14.00">set_homepage_info</text>
</g>
<!-- PersonalInfosController -->
<g id="node15" class="node"><title>PersonalInfosController</title>
<path fill="none" stroke="black" d="M-45.2656,-134C-45.2656,-134 81.2656,-134 81.2656,-134 87.2656,-134 93.2656,-140 93.2656,-146 93.2656,-146 93.2656,-352 93.2656,-352 93.2656,-358 87.2656,-364 81.2656,-364 81.2656,-364 -45.2656,-364 -45.2656,-364 -51.2656,-364 -57.2656,-358 -57.2656,-352 -57.2656,-352 -57.2656,-146 -57.2656,-146 -57.2656,-140 -51.2656,-134 -45.2656,-134"/>
<text text-anchor="middle" x="18" y="-348.8" font-family="Times,serif" font-size="14.00">PersonalInfosController</text>
<polyline fill="none" stroke="black" points="-57.2656,-342 93.2656,-342 "/>
<text text-anchor="start" x="-49.2656" y="-326.8" font-family="Times,serif" font-size="14.00">create</text>
<text text-anchor="start" x="-49.2656" y="-312.8" font-family="Times,serif" font-size="14.00">crop</text>
<text text-anchor="start" x="-49.2656" y="-298.8" font-family="Times,serif" font-size="14.00">delete_exp</text>
<text text-anchor="start" x="-49.2656" y="-284.8" font-family="Times,serif" font-size="14.00">destroy</text>
<text text-anchor="start" x="-49.2656" y="-270.8" font-family="Times,serif" font-size="14.00">edit</text>
<text text-anchor="start" x="-49.2656" y="-256.8" font-family="Times,serif" font-size="14.00">index</text>
<text text-anchor="start" x="-49.2656" y="-242.8" font-family="Times,serif" font-size="14.00">new</text>
<text text-anchor="start" x="-49.2656" y="-228.8" font-family="Times,serif" font-size="14.00">show</text>
<text text-anchor="start" x="-49.2656" y="-214.8" font-family="Times,serif" font-size="14.00">update</text>
<polyline fill="none" stroke="black" points="-57.2656,-208 93.2656,-208 "/>
<polyline fill="none" stroke="black" points="-57.2656,-184 93.2656,-184 "/>
<text text-anchor="start" x="-49.2656" y="-168.8" font-family="Times,serif" font-size="14.00">_layout</text>
<text text-anchor="start" x="-49.2656" y="-154.8" font-family="Times,serif" font-size="14.00">personal_info_params</text>
<text text-anchor="start" x="-49.2656" y="-140.8" font-family="Times,serif" font-size="14.00">set_personal_info</text>
</g>
<!-- PhotoLinksController -->
<g id="node16" class="node"><title>PhotoLinksController</title>
<path fill="none" stroke="black" d="M334.945,75C334.945,75 449.055,75 449.055,75 455.055,75 461.055,69 461.055,63 461.055,63 461.055,-115 461.055,-115 461.055,-121 455.055,-127 449.055,-127 449.055,-127 334.945,-127 334.945,-127 328.945,-127 322.945,-121 322.945,-115 322.945,-115 322.945,63 322.945,63 322.945,69 328.945,75 334.945,75"/>
<text text-anchor="middle" x="392" y="-111.8" font-family="Times,serif" font-size="14.00">PhotoLinksController</text>
<polyline fill="none" stroke="black" points="322.945,-105 461.055,-105 "/>
<text text-anchor="start" x="330.945" y="-89.8" font-family="Times,serif" font-size="14.00">create</text>
<text text-anchor="start" x="330.945" y="-75.8" font-family="Times,serif" font-size="14.00">destroy</text>
<text text-anchor="start" x="330.945" y="-61.8" font-family="Times,serif" font-size="14.00">edit</text>
<text text-anchor="start" x="330.945" y="-47.8" font-family="Times,serif" font-size="14.00">index</text>
<text text-anchor="start" x="330.945" y="-33.8" font-family="Times,serif" font-size="14.00">new</text>
<text text-anchor="start" x="330.945" y="-19.8" font-family="Times,serif" font-size="14.00">show</text>
<text text-anchor="start" x="330.945" y="-5.8" font-family="Times,serif" font-size="14.00">update</text>
<polyline fill="none" stroke="black" points="322.945,1 461.055,1 "/>
<polyline fill="none" stroke="black" points="322.945,25 461.055,25 "/>
<text text-anchor="start" x="330.945" y="40.2" font-family="Times,serif" font-size="14.00">_layout</text>
<text text-anchor="start" x="330.945" y="54.2" font-family="Times,serif" font-size="14.00">photo_link_params</text>
<text text-anchor="start" x="330.945" y="68.2" font-family="Times,serif" font-size="14.00">set_photo_link</text>
</g>
<!-- PhotosController -->
<g id="node17" class="node"><title>PhotosController</title>
<path fill="none" stroke="black" d="M-443.834,246C-443.834,246 -356.166,246 -356.166,246 -350.166,246 -344.166,240 -344.166,234 -344.166,234 -344.166,56 -344.166,56 -344.166,50 -350.166,44 -356.166,44 -356.166,44 -443.834,44 -443.834,44 -449.834,44 -455.834,50 -455.834,56 -455.834,56 -455.834,234 -455.834,234 -455.834,240 -449.834,246 -443.834,246"/>
<text text-anchor="middle" x="-400" y="59.2" font-family="Times,serif" font-size="14.00">PhotosController</text>
<polyline fill="none" stroke="black" points="-455.834,66 -344.166,66 "/>
<text text-anchor="start" x="-447.834" y="81.2" font-family="Times,serif" font-size="14.00">create</text>
<text text-anchor="start" x="-447.834" y="95.2" font-family="Times,serif" font-size="14.00">destroy</text>
<text text-anchor="start" x="-447.834" y="109.2" font-family="Times,serif" font-size="14.00">edit</text>
<text text-anchor="start" x="-447.834" y="123.2" font-family="Times,serif" font-size="14.00">index</text>
<text text-anchor="start" x="-447.834" y="137.2" font-family="Times,serif" font-size="14.00">new</text>
<text text-anchor="start" x="-447.834" y="151.2" font-family="Times,serif" font-size="14.00">show</text>
<text text-anchor="start" x="-447.834" y="165.2" font-family="Times,serif" font-size="14.00">update</text>
<polyline fill="none" stroke="black" points="-455.834,172 -344.166,172 "/>
<polyline fill="none" stroke="black" points="-455.834,196 -344.166,196 "/>
<text text-anchor="start" x="-447.834" y="211.2" font-family="Times,serif" font-size="14.00">_layout</text>
<text text-anchor="start" x="-447.834" y="225.2" font-family="Times,serif" font-size="14.00">photo_params</text>
<text text-anchor="start" x="-447.834" y="239.2" font-family="Times,serif" font-size="14.00">set_photo</text>
</g>
<!-- ProjectsController -->
<g id="node18" class="node"><title>ProjectsController</title>
<path fill="none" stroke="black" d="M30.6758,360C30.6758,360 125.324,360 125.324,360 131.324,360 137.324,354 137.324,348 137.324,348 137.324,170 137.324,170 137.324,164 131.324,158 125.324,158 125.324,158 30.6758,158 30.6758,158 24.6758,158 18.6758,164 18.6758,170 18.6758,170 18.6758,348 18.6758,348 18.6758,354 24.6758,360 30.6758,360"/>
<text text-anchor="middle" x="78" y="173.2" font-family="Times,serif" font-size="14.00">ProjectsController</text>
<polyline fill="none" stroke="black" points="18.6758,180 137.324,180 "/>
<text text-anchor="start" x="26.6758" y="195.2" font-family="Times,serif" font-size="14.00">create</text>
<text text-anchor="start" x="26.6758" y="209.2" font-family="Times,serif" font-size="14.00">destroy</text>
<text text-anchor="start" x="26.6758" y="223.2" font-family="Times,serif" font-size="14.00">edit</text>
<text text-anchor="start" x="26.6758" y="237.2" font-family="Times,serif" font-size="14.00">index</text>
<text text-anchor="start" x="26.6758" y="251.2" font-family="Times,serif" font-size="14.00">new</text>
<text text-anchor="start" x="26.6758" y="265.2" font-family="Times,serif" font-size="14.00">show</text>
<text text-anchor="start" x="26.6758" y="279.2" font-family="Times,serif" font-size="14.00">update</text>
<polyline fill="none" stroke="black" points="18.6758,286 137.324,286 "/>
<polyline fill="none" stroke="black" points="18.6758,310 137.324,310 "/>
<text text-anchor="start" x="26.6758" y="325.2" font-family="Times,serif" font-size="14.00">_layout</text>
<text text-anchor="start" x="26.6758" y="339.2" font-family="Times,serif" font-size="14.00">project_params</text>
<text text-anchor="start" x="26.6758" y="353.2" font-family="Times,serif" font-size="14.00">set_project</text>
</g>
<!-- RegistrationsController -->
<g id="node19" class="node"><title>RegistrationsController</title>
<path fill="none" stroke="black" d="M259.362,493C259.362,493 386.638,493 386.638,493 392.638,493 398.638,487 398.638,481 398.638,481 398.638,401 398.638,401 398.638,395 392.638,389 386.638,389 386.638,389 259.362,389 259.362,389 253.362,389 247.362,395 247.362,401 247.362,401 247.362,481 247.362,481 247.362,487 253.362,493 259.362,493"/>
<text text-anchor="middle" x="323" y="404.2" font-family="Times,serif" font-size="14.00">RegistrationsController</text>
<polyline fill="none" stroke="black" points="247.362,411 398.638,411 "/>
<polyline fill="none" stroke="black" points="247.362,435 398.638,435 "/>
<text text-anchor="start" x="255.362" y="450.2" font-family="Times,serif" font-size="14.00">account_update_params</text>
<text text-anchor="start" x="255.362" y="464.2" font-family="Times,serif" font-size="14.00">sign_up_params</text>
<polyline fill="none" stroke="black" points="247.362,471 398.638,471 "/>
<text text-anchor="start" x="255.362" y="486.2" font-family="Times,serif" font-size="14.00">_layout</text>
</g>
<!-- Reviewers::RegistrationsController -->
<g id="node20" class="node"><title>Reviewers::RegistrationsController</title>
<path fill="none" stroke="black" d="M87.8516,-400C87.8516,-400 278.148,-400 278.148,-400 284.148,-400 290.148,-406 290.148,-412 290.148,-412 290.148,-492 290.148,-492 290.148,-498 284.148,-504 278.148,-504 278.148,-504 87.8516,-504 87.8516,-504 81.8516,-504 75.8516,-498 75.8516,-492 75.8516,-492 75.8516,-412 75.8516,-412 75.8516,-406 81.8516,-400 87.8516,-400"/>
<text text-anchor="middle" x="183" y="-488.8" font-family="Times,serif" font-size="14.00">Reviewers::RegistrationsController</text>
<polyline fill="none" stroke="black" points="75.8516,-482 290.148,-482 "/>
<polyline fill="none" stroke="black" points="75.8516,-458 290.148,-458 "/>
<text text-anchor="start" x="83.8516" y="-442.8" font-family="Times,serif" font-size="14.00">after_sign_up_path_for</text>
<text text-anchor="start" x="83.8516" y="-428.8" font-family="Times,serif" font-size="14.00">sign_up</text>
<polyline fill="none" stroke="black" points="75.8516,-422 290.148,-422 "/>
<text text-anchor="start" x="83.8516" y="-406.8" font-family="Times,serif" font-size="14.00">_layout</text>
</g>
<!-- ReviewersController -->
<g id="node21" class="node"><title>ReviewersController</title>
<path fill="none" stroke="black" d="M429.683,-419C429.683,-419 538.317,-419 538.317,-419 544.317,-419 550.317,-425 550.317,-431 550.317,-431 550.317,-609 550.317,-609 550.317,-615 544.317,-621 538.317,-621 538.317,-621 429.683,-621 429.683,-621 423.683,-621 417.683,-615 417.683,-609 417.683,-609 417.683,-431 417.683,-431 417.683,-425 423.683,-419 429.683,-419"/>
<text text-anchor="middle" x="484" y="-605.8" font-family="Times,serif" font-size="14.00">ReviewersController</text>
<polyline fill="none" stroke="black" points="417.683,-599 550.317,-599 "/>
<text text-anchor="start" x="425.683" y="-583.8" font-family="Times,serif" font-size="14.00">create</text>
<text text-anchor="start" x="425.683" y="-569.8" font-family="Times,serif" font-size="14.00">destroy</text>
<text text-anchor="start" x="425.683" y="-555.8" font-family="Times,serif" font-size="14.00">edit</text>
<text text-anchor="start" x="425.683" y="-541.8" font-family="Times,serif" font-size="14.00">index</text>
<text text-anchor="start" x="425.683" y="-527.8" font-family="Times,serif" font-size="14.00">new</text>
<text text-anchor="start" x="425.683" y="-513.8" font-family="Times,serif" font-size="14.00">show</text>
<text text-anchor="start" x="425.683" y="-499.8" font-family="Times,serif" font-size="14.00">update</text>
<polyline fill="none" stroke="black" points="417.683,-493 550.317,-493 "/>
<polyline fill="none" stroke="black" points="417.683,-469 550.317,-469 "/>
<text text-anchor="start" x="425.683" y="-453.8" font-family="Times,serif" font-size="14.00">_layout</text>
<text text-anchor="start" x="425.683" y="-439.8" font-family="Times,serif" font-size="14.00">reviewer_params</text>
<text text-anchor="start" x="425.683" y="-425.8" font-family="Times,serif" font-size="14.00">set_reviewer</text>
</g>
<!-- SchoolsController -->
<g id="node22" class="node"><title>SchoolsController</title>
<path fill="none" stroke="black" d="M335.059,322C335.059,322 428.941,322 428.941,322 434.941,322 440.941,316 440.941,310 440.941,310 440.941,118 440.941,118 440.941,112 434.941,106 428.941,106 428.941,106 335.059,106 335.059,106 329.059,106 323.059,112 323.059,118 323.059,118 323.059,310 323.059,310 323.059,316 329.059,322 335.059,322"/>
<text text-anchor="middle" x="382" y="121.2" font-family="Times,serif" font-size="14.00">SchoolsController</text>
<polyline fill="none" stroke="black" points="323.059,128 440.941,128 "/>
<text text-anchor="start" x="331.059" y="143.2" font-family="Times,serif" font-size="14.00">create</text>
<text text-anchor="start" x="331.059" y="157.2" font-family="Times,serif" font-size="14.00">destroy</text>
<text text-anchor="start" x="331.059" y="171.2" font-family="Times,serif" font-size="14.00">edit</text>
<text text-anchor="start" x="331.059" y="185.2" font-family="Times,serif" font-size="14.00">index</text>
<text text-anchor="start" x="331.059" y="199.2" font-family="Times,serif" font-size="14.00">new</text>
<text text-anchor="start" x="331.059" y="213.2" font-family="Times,serif" font-size="14.00">roster</text>
<text text-anchor="start" x="331.059" y="227.2" font-family="Times,serif" font-size="14.00">show</text>
<text text-anchor="start" x="331.059" y="241.2" font-family="Times,serif" font-size="14.00">update</text>
<polyline fill="none" stroke="black" points="323.059,248 440.941,248 "/>
<polyline fill="none" stroke="black" points="323.059,272 440.941,272 "/>
<text text-anchor="start" x="331.059" y="287.2" font-family="Times,serif" font-size="14.00">_layout</text>
<text text-anchor="start" x="331.059" y="301.2" font-family="Times,serif" font-size="14.00">school_params</text>
<text text-anchor="start" x="331.059" y="315.2" font-family="Times,serif" font-size="14.00">set_school</text>
</g>
<!-- ShowcasesController -->
<g id="node23" class="node"><title>ShowcasesController</title>
<path fill="none" stroke="black" d="M-425.49,-1C-425.49,-1 -314.51,-1 -314.51,-1 -308.51,-1 -302.51,-7 -302.51,-13 -302.51,-13 -302.51,-191 -302.51,-191 -302.51,-197 -308.51,-203 -314.51,-203 -314.51,-203 -425.49,-203 -425.49,-203 -431.49,-203 -437.49,-197 -437.49,-191 -437.49,-191 -437.49,-13 -437.49,-13 -437.49,-7 -431.49,-1 -425.49,-1"/>
<text text-anchor="middle" x="-370" y="-187.8" font-family="Times,serif" font-size="14.00">ShowcasesController</text>
<polyline fill="none" stroke="black" points="-437.49,-181 -302.51,-181 "/>
<text text-anchor="start" x="-429.49" y="-165.8" font-family="Times,serif" font-size="14.00">create</text>
<text text-anchor="start" x="-429.49" y="-151.8" font-family="Times,serif" font-size="14.00">destroy</text>
<text text-anchor="start" x="-429.49" y="-137.8" font-family="Times,serif" font-size="14.00">edit</text>
<text text-anchor="start" x="-429.49" y="-123.8" font-family="Times,serif" font-size="14.00">index</text>
<text text-anchor="start" x="-429.49" y="-109.8" font-family="Times,serif" font-size="14.00">new</text>
<text text-anchor="start" x="-429.49" y="-95.8" font-family="Times,serif" font-size="14.00">show</text>
<text text-anchor="start" x="-429.49" y="-81.8" font-family="Times,serif" font-size="14.00">update</text>
<polyline fill="none" stroke="black" points="-437.49,-75 -302.51,-75 "/>
<polyline fill="none" stroke="black" points="-437.49,-51 -302.51,-51 "/>
<text text-anchor="start" x="-429.49" y="-35.8" font-family="Times,serif" font-size="14.00">_layout</text>
<text text-anchor="start" x="-429.49" y="-21.8" font-family="Times,serif" font-size="14.00">set_showcase</text>
<text text-anchor="start" x="-429.49" y="-7.8" font-family="Times,serif" font-size="14.00">showcase_params</text>
</g>
<!-- SocialLinksController -->
<g id="node24" class="node"><title>SocialLinksController</title>
<path fill="none" stroke="black" d="M-292.214,303C-292.214,303 -175.786,303 -175.786,303 -169.786,303 -163.786,297 -163.786,291 -163.786,291 -163.786,113 -163.786,113 -163.786,107 -169.786,101 -175.786,101 -175.786,101 -292.214,101 -292.214,101 -298.214,101 -304.214,107 -304.214,113 -304.214,113 -304.214,291 -304.214,291 -304.214,297 -298.214,303 -292.214,303"/>
<text text-anchor="middle" x="-234" y="116.2" font-family="Times,serif" font-size="14.00">SocialLinksController</text>
<polyline fill="none" stroke="black" points="-304.214,123 -163.786,123 "/>
<text text-anchor="start" x="-296.214" y="138.2" font-family="Times,serif" font-size="14.00">create</text>
<text text-anchor="start" x="-296.214" y="152.2" font-family="Times,serif" font-size="14.00">destroy</text>
<text text-anchor="start" x="-296.214" y="166.2" font-family="Times,serif" font-size="14.00">edit</text>
<text text-anchor="start" x="-296.214" y="180.2" font-family="Times,serif" font-size="14.00">index</text>
<text text-anchor="start" x="-296.214" y="194.2" font-family="Times,serif" font-size="14.00">new</text>
<text text-anchor="start" x="-296.214" y="208.2" font-family="Times,serif" font-size="14.00">show</text>
<text text-anchor="start" x="-296.214" y="222.2" font-family="Times,serif" font-size="14.00">update</text>
<polyline fill="none" stroke="black" points="-304.214,229 -163.786,229 "/>
<polyline fill="none" stroke="black" points="-304.214,253 -163.786,253 "/>
<text text-anchor="start" x="-296.214" y="268.2" font-family="Times,serif" font-size="14.00">_layout</text>
<text text-anchor="start" x="-296.214" y="282.2" font-family="Times,serif" font-size="14.00">set_social_link</text>
<text text-anchor="start" x="-296.214" y="296.2" font-family="Times,serif" font-size="14.00">social_link_params</text>
</g>
<!-- Users::RegistrationsController -->
<g id="node25" class="node"><title>Users::RegistrationsController</title>
<path fill="none" stroke="black" d="M506.455,-134C506.455,-134 669.545,-134 669.545,-134 675.545,-134 681.545,-140 681.545,-146 681.545,-146 681.545,-238 681.545,-238 681.545,-244 675.545,-250 669.545,-250 669.545,-250 506.455,-250 506.455,-250 500.455,-250 494.455,-244 494.455,-238 494.455,-238 494.455,-146 494.455,-146 494.455,-140 500.455,-134 506.455,-134"/>
<text text-anchor="middle" x="588" y="-234.8" font-family="Times,serif" font-size="14.00">Users::RegistrationsController</text>
<polyline fill="none" stroke="black" points="494.455,-228 681.545,-228 "/>
<text text-anchor="start" x="502.455" y="-212.8" font-family="Times,serif" font-size="14.00">create</text>
<polyline fill="none" stroke="black" points="494.455,-206 681.545,-206 "/>
<text text-anchor="start" x="502.455" y="-190.8" font-family="Times,serif" font-size="14.00">account_update_params</text>
<text text-anchor="start" x="502.455" y="-176.8" font-family="Times,serif" font-size="14.00">after_sign_up_path_for</text>
<text text-anchor="start" x="502.455" y="-162.8" font-family="Times,serif" font-size="14.00">sign_up_params</text>
<polyline fill="none" stroke="black" points="494.455,-156 681.545,-156 "/>
<text text-anchor="start" x="502.455" y="-140.8" font-family="Times,serif" font-size="14.00">_layout</text>
</g>
<!-- UsersController -->
<g id="node26" class="node"><title>UsersController</title>
<path fill="none" stroke="black" d="M-177.714,-191C-177.714,-191 -96.2861,-191 -96.2861,-191 -90.2861,-191 -84.2861,-197 -84.2861,-203 -84.2861,-203 -84.2861,-423 -84.2861,-423 -84.2861,-429 -90.2861,-435 -96.2861,-435 -96.2861,-435 -177.714,-435 -177.714,-435 -183.714,-435 -189.714,-429 -189.714,-423 -189.714,-423 -189.714,-203 -189.714,-203 -189.714,-197 -183.714,-191 -177.714,-191"/>
<text text-anchor="middle" x="-137" y="-419.8" font-family="Times,serif" font-size="14.00">UsersController</text>
<polyline fill="none" stroke="black" points="-189.714,-413 -84.2861,-413 "/>
<text text-anchor="start" x="-181.714" y="-397.8" font-family="Times,serif" font-size="14.00">create</text>
<text text-anchor="start" x="-181.714" y="-383.8" font-family="Times,serif" font-size="14.00">dashboard</text>
<text text-anchor="start" x="-181.714" y="-369.8" font-family="Times,serif" font-size="14.00">destroy</text>
<text text-anchor="start" x="-181.714" y="-355.8" font-family="Times,serif" font-size="14.00">edit</text>
<text text-anchor="start" x="-181.714" y="-341.8" font-family="Times,serif" font-size="14.00">feed</text>
<text text-anchor="start" x="-181.714" y="-327.8" font-family="Times,serif" font-size="14.00">index</text>
<text text-anchor="start" x="-181.714" y="-313.8" font-family="Times,serif" font-size="14.00">new</text>
<text text-anchor="start" x="-181.714" y="-299.8" font-family="Times,serif" font-size="14.00">show</text>
<text text-anchor="start" x="-181.714" y="-285.8" font-family="Times,serif" font-size="14.00">update</text>
<polyline fill="none" stroke="black" points="-189.714,-279 -84.2861,-279 "/>
<polyline fill="none" stroke="black" points="-189.714,-255 -84.2861,-255 "/>
<text text-anchor="start" x="-181.714" y="-239.8" font-family="Times,serif" font-size="14.00">_layout</text>
<text text-anchor="start" x="-181.714" y="-225.8" font-family="Times,serif" font-size="14.00">set_user</text>
<text text-anchor="start" x="-181.714" y="-211.8" font-family="Times,serif" font-size="14.00">user_params</text>
<text text-anchor="start" x="-181.714" y="-197.8" font-family="Times,serif" font-size="14.00">verify_email</text>
</g>
<!-- WebsiteSettingsController -->
<g id="node27" class="node"><title>WebsiteSettingsController</title>
<path fill="none" stroke="black" d="M-82.7085,113C-82.7085,113 56.7085,113 56.7085,113 62.7085,113 68.7085,107 68.7085,101 68.7085,101 68.7085,-77 68.7085,-77 68.7085,-83 62.7085,-89 56.7085,-89 56.7085,-89 -82.7085,-89 -82.7085,-89 -88.7085,-89 -94.7085,-83 -94.7085,-77 -94.7085,-77 -94.7085,101 -94.7085,101 -94.7085,107 -88.7085,113 -82.7085,113"/>
<text text-anchor="middle" x="-13" y="-73.8" font-family="Times,serif" font-size="14.00">WebsiteSettingsController</text>
<polyline fill="none" stroke="black" points="-94.7085,-67 68.7085,-67 "/>
<text text-anchor="start" x="-86.7085" y="-51.8" font-family="Times,serif" font-size="14.00">create</text>
<text text-anchor="start" x="-86.7085" y="-37.8" font-family="Times,serif" font-size="14.00">destroy</text>
<text text-anchor="start" x="-86.7085" y="-23.8" font-family="Times,serif" font-size="14.00">edit</text>
<text text-anchor="start" x="-86.7085" y="-9.8" font-family="Times,serif" font-size="14.00">index</text>
<text text-anchor="start" x="-86.7085" y="4.2" font-family="Times,serif" font-size="14.00">new</text>
<text text-anchor="start" x="-86.7085" y="18.2" font-family="Times,serif" font-size="14.00">show</text>
<text text-anchor="start" x="-86.7085" y="32.2" font-family="Times,serif" font-size="14.00">update</text>
<polyline fill="none" stroke="black" points="-94.7085,39 68.7085,39 "/>
<polyline fill="none" stroke="black" points="-94.7085,63 68.7085,63 "/>
<text text-anchor="start" x="-86.7085" y="78.2" font-family="Times,serif" font-size="14.00">_layout</text>
<text text-anchor="start" x="-86.7085" y="92.2" font-family="Times,serif" font-size="14.00">set_website_setting</text>
<text text-anchor="start" x="-86.7085" y="106.2" font-family="Times,serif" font-size="14.00">website_setting_params</text>
</g>
</g>
</svg>
