<?xml version="1.0" encoding="UTF-8" standalone="no"?>
<!DOCTYPE svg PUBLIC "-//W3C//DTD SVG 1.1//EN"
 "http://www.w3.org/Graphics/SVG/1.1/DTD/svg11.dtd">
<!-- Generated by graphviz version 2.38.0 (20140413.2041)
 -->
<!-- Title: controllers_diagram Pages: 1 -->
<svg width="1031pt" height="1028pt"
 viewBox="0.00 0.00 1031.38 1028.00" xmlns="http://www.w3.org/2000/svg" xmlns:xlink="http://www.w3.org/1999/xlink">
<g id="graph0" class="graph" transform="scale(1 1) rotate(0) translate(421.834 587.5)">
<title>controllers_diagram</title>
<polygon fill="none" stroke="none" points="-421.834,440.5 -421.834,-587.5 609.545,-587.5 609.545,440.5 -421.834,440.5"/>
<!-- _diagram_info -->
<g id="node1" class="node"><title>_diagram_info</title>
<text text-anchor="start" x="217.312" y="377.9" font-family="Times,serif" font-size="13.00">Controllers diagram</text>
<text text-anchor="start" x="217.312" y="390.9" font-family="Times,serif" font-size="13.00">Date: Jun 13 2016 &#45; 09:52</text>
<text text-anchor="start" x="217.312" y="403.9" font-family="Times,serif" font-size="13.00">Migration version: 20160613134916</text>
<text text-anchor="start" x="217.312" y="416.9" font-family="Times,serif" font-size="13.00">Generated by RailRoady 1.3.1</text>
<text text-anchor="start" x="217.312" y="429.9" font-family="Times,serif" font-size="13.00">http://railroady.prestonlee.com</text>
</g>
<!-- Admins::RegistrationsController -->
<g id="node2" class="node"><title>Admins::RegistrationsController</title>
<path fill="none" stroke="black" d="M-386.772,398C-386.772,398 -211.228,398 -211.228,398 -205.228,398 -199.228,392 -199.228,386 -199.228,386 -199.228,306 -199.228,306 -199.228,300 -205.228,294 -211.228,294 -211.228,294 -386.772,294 -386.772,294 -392.772,294 -398.772,300 -398.772,306 -398.772,306 -398.772,386 -398.772,386 -398.772,392 -392.772,398 -386.772,398"/>
<text text-anchor="middle" x="-299" y="309.2" font-family="Times,serif" font-size="14.00">Admins::RegistrationsController</text>
<polyline fill="none" stroke="black" points="-398.772,316 -199.228,316 "/>
<polyline fill="none" stroke="black" points="-398.772,340 -199.228,340 "/>
<text text-anchor="start" x="-390.772" y="355.2" font-family="Times,serif" font-size="14.00">after_sign_up_path_for</text>
<text text-anchor="start" x="-390.772" y="369.2" font-family="Times,serif" font-size="14.00">sign_up</text>
<polyline fill="none" stroke="black" points="-398.772,376 -199.228,376 "/>
<text text-anchor="start" x="-390.772" y="391.2" font-family="Times,serif" font-size="14.00">_layout</text>
</g>
<!-- AdminsController -->
<g id="node3" class="node"><title>AdminsController</title>
<path fill="none" stroke="black" d="M335.059,75C335.059,75 428.941,75 428.941,75 434.941,75 440.941,69 440.941,63 440.941,63 440.941,-115 440.941,-115 440.941,-121 434.941,-127 428.941,-127 428.941,-127 335.059,-127 335.059,-127 329.059,-127 323.059,-121 323.059,-115 323.059,-115 323.059,63 323.059,63 323.059,69 329.059,75 335.059,75"/>
<text text-anchor="middle" x="382" y="-111.8" font-family="Times,serif" font-size="14.00">AdminsController</text>
<polyline fill="none" stroke="black" points="323.059,-105 440.941,-105 "/>
<text text-anchor="start" x="331.059" y="-89.8" font-family="Times,serif" font-size="14.00">create</text>
<text text-anchor="start" x="331.059" y="-75.8" font-family="Times,serif" font-size="14.00">destroy</text>
<text text-anchor="start" x="331.059" y="-61.8" font-family="Times,serif" font-size="14.00">edit</text>
<text text-anchor="start" x="331.059" y="-47.8" font-family="Times,serif" font-size="14.00">index</text>
<text text-anchor="start" x="331.059" y="-33.8" font-family="Times,serif" font-size="14.00">new</text>
<text text-anchor="start" x="331.059" y="-19.8" font-family="Times,serif" font-size="14.00">show</text>
<text text-anchor="start" x="331.059" y="-5.8" font-family="Times,serif" font-size="14.00">update</text>
<polyline fill="none" stroke="black" points="323.059,1 440.941,1 "/>
<polyline fill="none" stroke="black" points="323.059,25 440.941,25 "/>
<text text-anchor="start" x="331.059" y="40.2" font-family="Times,serif" font-size="14.00">_layout</text>
<text text-anchor="start" x="331.059" y="54.2" font-family="Times,serif" font-size="14.00">admin_params</text>
<text text-anchor="start" x="331.059" y="68.2" font-family="Times,serif" font-size="14.00">set_admin</text>
</g>
<!-- ApplicationController -->
<g id="node4" class="node"><title>ApplicationController</title>
<path fill="none" stroke="black" d="M-25.6382,-381C-25.6382,-381 101.638,-381 101.638,-381 107.638,-381 113.638,-387 113.638,-393 113.638,-393 113.638,-529 113.638,-529 113.638,-535 107.638,-541 101.638,-541 101.638,-541 -25.6382,-541 -25.6382,-541 -31.6382,-541 -37.6382,-535 -37.6382,-529 -37.6382,-529 -37.6382,-393 -37.6382,-393 -37.6382,-387 -31.6382,-381 -25.6382,-381"/>
<text text-anchor="middle" x="38" y="-525.8" font-family="Times,serif" font-size="14.00">ApplicationController</text>
<polyline fill="none" stroke="black" points="-37.6382,-519 113.638,-519 "/>
<text text-anchor="start" x="-29.6382" y="-503.8" font-family="Times,serif" font-size="14.00">account_update_params</text>
<text text-anchor="start" x="-29.6382" y="-489.8" font-family="Times,serif" font-size="14.00">after_sign_in_path_for</text>
<text text-anchor="start" x="-29.6382" y="-475.8" font-family="Times,serif" font-size="14.00">authenticate_person!</text>
<text text-anchor="start" x="-29.6382" y="-461.8" font-family="Times,serif" font-size="14.00">current_people</text>
<text text-anchor="start" x="-29.6382" y="-447.8" font-family="Times,serif" font-size="14.00">current_person</text>
<text text-anchor="start" x="-29.6382" y="-433.8" font-family="Times,serif" font-size="14.00">person_signed_in?</text>
<polyline fill="none" stroke="black" points="-37.6382,-427 113.638,-427 "/>
<polyline fill="none" stroke="black" points="-37.6382,-403 113.638,-403 "/>
<text text-anchor="start" x="-29.6382" y="-387.8" font-family="Times,serif" font-size="14.00">_layout</text>
</g>
<!-- ArticlesController -->
<g id="node5" class="node"><title>ArticlesController</title>
<path fill="none" stroke="black" d="M-82.9312,360C-82.9312,360 10.9312,360 10.9312,360 16.9312,360 22.9312,354 22.9312,348 22.9312,348 22.9312,170 22.9312,170 22.9312,164 16.9312,158 10.9312,158 10.9312,158 -82.9312,158 -82.9312,158 -88.9312,158 -94.9312,164 -94.9312,170 -94.9312,170 -94.9312,348 -94.9312,348 -94.9312,354 -88.9312,360 -82.9312,360"/>
<text text-anchor="middle" x="-36" y="173.2" font-family="Times,serif" font-size="14.00">ArticlesController</text>
<polyline fill="none" stroke="black" points="-94.9312,180 22.9312,180 "/>
<text text-anchor="start" x="-86.9312" y="195.2" font-family="Times,serif" font-size="14.00">create</text>
<text text-anchor="start" x="-86.9312" y="209.2" font-family="Times,serif" font-size="14.00">destroy</text>
<text text-anchor="start" x="-86.9312" y="223.2" font-family="Times,serif" font-size="14.00">edit</text>
<text text-anchor="start" x="-86.9312" y="237.2" font-family="Times,serif" font-size="14.00">index</text>
<text text-anchor="start" x="-86.9312" y="251.2" font-family="Times,serif" font-size="14.00">new</text>
<text text-anchor="start" x="-86.9312" y="265.2" font-family="Times,serif" font-size="14.00">show</text>
<text text-anchor="start" x="-86.9312" y="279.2" font-family="Times,serif" font-size="14.00">update</text>
<polyline fill="none" stroke="black" points="-94.9312,286 22.9312,286 "/>
<polyline fill="none" stroke="black" points="-94.9312,310 22.9312,310 "/>
<text text-anchor="start" x="-86.9312" y="325.2" font-family="Times,serif" font-size="14.00">_layout</text>
<text text-anchor="start" x="-86.9312" y="339.2" font-family="Times,serif" font-size="14.00">article_params</text>
<text text-anchor="start" x="-86.9312" y="353.2" font-family="Times,serif" font-size="14.00">set_article</text>
</g>
<!-- BackgroundInfosController -->
<g id="node6" class="node"><title>BackgroundInfosController</title>
<path fill="none" stroke="black" d="M125.627,113C125.627,113 272.373,113 272.373,113 278.373,113 284.373,107 284.373,101 284.373,101 284.373,-77 284.373,-77 284.373,-83 278.373,-89 272.373,-89 272.373,-89 125.627,-89 125.627,-89 119.627,-89 113.627,-83 113.627,-77 113.627,-77 113.627,101 113.627,101 113.627,107 119.627,113 125.627,113"/>
<text text-anchor="middle" x="199" y="-73.8" font-family="Times,serif" font-size="14.00">BackgroundInfosController</text>
<polyline fill="none" stroke="black" points="113.627,-67 284.373,-67 "/>
<text text-anchor="start" x="121.627" y="-51.8" font-family="Times,serif" font-size="14.00">create</text>
<text text-anchor="start" x="121.627" y="-37.8" font-family="Times,serif" font-size="14.00">destroy</text>
<text text-anchor="start" x="121.627" y="-23.8" font-family="Times,serif" font-size="14.00">edit</text>
<text text-anchor="start" x="121.627" y="-9.8" font-family="Times,serif" font-size="14.00">index</text>
<text text-anchor="start" x="121.627" y="4.2" font-family="Times,serif" font-size="14.00">new</text>
<text text-anchor="start" x="121.627" y="18.2" font-family="Times,serif" font-size="14.00">show</text>
<text text-anchor="start" x="121.627" y="32.2" font-family="Times,serif" font-size="14.00">update</text>
<polyline fill="none" stroke="black" points="113.627,39 284.373,39 "/>
<polyline fill="none" stroke="black" points="113.627,63 284.373,63 "/>
<text text-anchor="start" x="121.627" y="78.2" font-family="Times,serif" font-size="14.00">_layout</text>
<text text-anchor="start" x="121.627" y="92.2" font-family="Times,serif" font-size="14.00">background_info_params</text>
<text text-anchor="start" x="121.627" y="106.2" font-family="Times,serif" font-size="14.00">set_background_info</text>
</g>
<!-- ClerksController -->
<g id="node7" class="node"><title>ClerksController</title>
<path fill="none" stroke="black" d="M-368.048,-381C-368.048,-381 -281.952,-381 -281.952,-381 -275.952,-381 -269.952,-387 -269.952,-393 -269.952,-393 -269.952,-571 -269.952,-571 -269.952,-577 -275.952,-583 -281.952,-583 -281.952,-583 -368.048,-583 -368.048,-583 -374.048,-583 -380.048,-577 -380.048,-571 -380.048,-571 -380.048,-393 -380.048,-393 -380.048,-387 -374.048,-381 -368.048,-381"/>
<text text-anchor="middle" x="-325" y="-567.8" font-family="Times,serif" font-size="14.00">ClerksController</text>
<polyline fill="none" stroke="black" points="-380.048,-561 -269.952,-561 "/>
<text text-anchor="start" x="-372.048" y="-545.8" font-family="Times,serif" font-size="14.00">create</text>
<text text-anchor="start" x="-372.048" y="-531.8" font-family="Times,serif" font-size="14.00">destroy</text>
<text text-anchor="start" x="-372.048" y="-517.8" font-family="Times,serif" font-size="14.00">edit</text>
<text text-anchor="start" x="-372.048" y="-503.8" font-family="Times,serif" font-size="14.00">index</text>
<text text-anchor="start" x="-372.048" y="-489.8" font-family="Times,serif" font-size="14.00">new</text>
<text text-anchor="start" x="-372.048" y="-475.8" font-family="Times,serif" font-size="14.00">show</text>
<text text-anchor="start" x="-372.048" y="-461.8" font-family="Times,serif" font-size="14.00">update</text>
<polyline fill="none" stroke="black" points="-380.048,-455 -269.952,-455 "/>
<polyline fill="none" stroke="black" points="-380.048,-431 -269.952,-431 "/>
<text text-anchor="start" x="-372.048" y="-415.8" font-family="Times,serif" font-size="14.00">_layout</text>
<text text-anchor="start" x="-372.048" y="-401.8" font-family="Times,serif" font-size="14.00">clerk_params</text>
<text text-anchor="start" x="-372.048" y="-387.8" font-family="Times,serif" font-size="14.00">set_clerk</text>
</g>
<!-- DemosController -->
<g id="node8" class="node"><title>DemosController</title>
<path fill="none" stroke="black" d="M-405.604,-1C-405.604,-1 -316.396,-1 -316.396,-1 -310.396,-1 -304.396,-7 -304.396,-13 -304.396,-13 -304.396,-191 -304.396,-191 -304.396,-197 -310.396,-203 -316.396,-203 -316.396,-203 -405.604,-203 -405.604,-203 -411.604,-203 -417.604,-197 -417.604,-191 -417.604,-191 -417.604,-13 -417.604,-13 -417.604,-7 -411.604,-1 -405.604,-1"/>
<text text-anchor="middle" x="-361" y="-187.8" font-family="Times,serif" font-size="14.00">DemosController</text>
<polyline fill="none" stroke="black" points="-417.604,-181 -304.396,-181 "/>
<text text-anchor="start" x="-409.604" y="-165.8" font-family="Times,serif" font-size="14.00">create</text>
<text text-anchor="start" x="-409.604" y="-151.8" font-family="Times,serif" font-size="14.00">destroy</text>
<text text-anchor="start" x="-409.604" y="-137.8" font-family="Times,serif" font-size="14.00">edit</text>
<text text-anchor="start" x="-409.604" y="-123.8" font-family="Times,serif" font-size="14.00">index</text>
<text text-anchor="start" x="-409.604" y="-109.8" font-family="Times,serif" font-size="14.00">new</text>
<text text-anchor="start" x="-409.604" y="-95.8" font-family="Times,serif" font-size="14.00">show</text>
<text text-anchor="start" x="-409.604" y="-81.8" font-family="Times,serif" font-size="14.00">update</text>
<polyline fill="none" stroke="black" points="-417.604,-75 -304.396,-75 "/>
<polyline fill="none" stroke="black" points="-417.604,-51 -304.396,-51 "/>
<text text-anchor="start" x="-409.604" y="-35.8" font-family="Times,serif" font-size="14.00">_layout</text>
<text text-anchor="start" x="-409.604" y="-21.8" font-family="Times,serif" font-size="14.00">demo_params</text>
<text text-anchor="start" x="-409.604" y="-7.8" font-family="Times,serif" font-size="14.00">set_demo</text>
</g>
<!-- ExperiencesController -->
<g id="node9" class="node"><title>ExperiencesController</title>
<path fill="none" stroke="black" d="M-215.976,-229C-215.976,-229 -98.0239,-229 -98.0239,-229 -92.0239,-229 -86.0239,-235 -86.0239,-241 -86.0239,-241 -86.0239,-419 -86.0239,-419 -86.0239,-425 -92.0239,-431 -98.0239,-431 -98.0239,-431 -215.976,-431 -215.976,-431 -221.976,-431 -227.976,-425 -227.976,-419 -227.976,-419 -227.976,-241 -227.976,-241 -227.976,-235 -221.976,-229 -215.976,-229"/>
<text text-anchor="middle" x="-157" y="-415.8" font-family="Times,serif" font-size="14.00">ExperiencesController</text>
<polyline fill="none" stroke="black" points="-227.976,-409 -86.0239,-409 "/>
<text text-anchor="start" x="-219.976" y="-393.8" font-family="Times,serif" font-size="14.00">create</text>
<text text-anchor="start" x="-219.976" y="-379.8" font-family="Times,serif" font-size="14.00">destroy</text>
<text text-anchor="start" x="-219.976" y="-365.8" font-family="Times,serif" font-size="14.00">edit</text>
<text text-anchor="start" x="-219.976" y="-351.8" font-family="Times,serif" font-size="14.00">index</text>
<text text-anchor="start" x="-219.976" y="-337.8" font-family="Times,serif" font-size="14.00">new</text>
<text text-anchor="start" x="-219.976" y="-323.8" font-family="Times,serif" font-size="14.00">show</text>
<text text-anchor="start" x="-219.976" y="-309.8" font-family="Times,serif" font-size="14.00">update</text>
<polyline fill="none" stroke="black" points="-227.976,-303 -86.0239,-303 "/>
<polyline fill="none" stroke="black" points="-227.976,-279 -86.0239,-279 "/>
<text text-anchor="start" x="-219.976" y="-263.8" font-family="Times,serif" font-size="14.00">_layout</text>
<text text-anchor="start" x="-219.976" y="-249.8" font-family="Times,serif" font-size="14.00">experience_params</text>
<text text-anchor="start" x="-219.976" y="-235.8" font-family="Times,serif" font-size="14.00">set_experience</text>
</g>
<!-- HomepageInfosController -->
<g id="node10" class="node"><title>HomepageInfosController</title>
<path fill="none" stroke="black" d="M144.521,-134C144.521,-134 283.479,-134 283.479,-134 289.479,-134 295.479,-140 295.479,-146 295.479,-146 295.479,-324 295.479,-324 295.479,-330 289.479,-336 283.479,-336 283.479,-336 144.521,-336 144.521,-336 138.521,-336 132.521,-330 132.521,-324 132.521,-324 132.521,-146 132.521,-146 132.521,-140 138.521,-134 144.521,-134"/>
<text text-anchor="middle" x="214" y="-320.8" font-family="Times,serif" font-size="14.00">HomepageInfosController</text>
<polyline fill="none" stroke="black" points="132.521,-314 295.479,-314 "/>
<text text-anchor="start" x="140.521" y="-298.8" font-family="Times,serif" font-size="14.00">create</text>
<text text-anchor="start" x="140.521" y="-284.8" font-family="Times,serif" font-size="14.00">destroy</text>
<text text-anchor="start" x="140.521" y="-270.8" font-family="Times,serif" font-size="14.00">edit</text>
<text text-anchor="start" x="140.521" y="-256.8" font-family="Times,serif" font-size="14.00">index</text>
<text text-anchor="start" x="140.521" y="-242.8" font-family="Times,serif" font-size="14.00">new</text>
<text text-anchor="start" x="140.521" y="-228.8" font-family="Times,serif" font-size="14.00">show</text>
<text text-anchor="start" x="140.521" y="-214.8" font-family="Times,serif" font-size="14.00">update</text>
<polyline fill="none" stroke="black" points="132.521,-208 295.479,-208 "/>
<polyline fill="none" stroke="black" points="132.521,-184 295.479,-184 "/>
<text text-anchor="start" x="140.521" y="-168.8" font-family="Times,serif" font-size="14.00">_layout</text>
<text text-anchor="start" x="140.521" y="-154.8" font-family="Times,serif" font-size="14.00">homepage_info_params</text>
<text text-anchor="start" x="140.521" y="-140.8" font-family="Times,serif" font-size="14.00">set_homepage_info</text>
</g>
<!-- PersonalInfosController -->
<g id="node11" class="node"><title>PersonalInfosController</title>
<path fill="none" stroke="black" d="M-45.2656,-134C-45.2656,-134 81.2656,-134 81.2656,-134 87.2656,-134 93.2656,-140 93.2656,-146 93.2656,-146 93.2656,-338 93.2656,-338 93.2656,-344 87.2656,-350 81.2656,-350 81.2656,-350 -45.2656,-350 -45.2656,-350 -51.2656,-350 -57.2656,-344 -57.2656,-338 -57.2656,-338 -57.2656,-146 -57.2656,-146 -57.2656,-140 -51.2656,-134 -45.2656,-134"/>
<text text-anchor="middle" x="18" y="-334.8" font-family="Times,serif" font-size="14.00">PersonalInfosController</text>
<polyline fill="none" stroke="black" points="-57.2656,-328 93.2656,-328 "/>
<text text-anchor="start" x="-49.2656" y="-312.8" font-family="Times,serif" font-size="14.00">create</text>
<text text-anchor="start" x="-49.2656" y="-298.8" font-family="Times,serif" font-size="14.00">delete_exp</text>
<text text-anchor="start" x="-49.2656" y="-284.8" font-family="Times,serif" font-size="14.00">destroy</text>
<text text-anchor="start" x="-49.2656" y="-270.8" font-family="Times,serif" font-size="14.00">edit</text>
<text text-anchor="start" x="-49.2656" y="-256.8" font-family="Times,serif" font-size="14.00">index</text>
<text text-anchor="start" x="-49.2656" y="-242.8" font-family="Times,serif" font-size="14.00">new</text>
<text text-anchor="start" x="-49.2656" y="-228.8" font-family="Times,serif" font-size="14.00">show</text>
<text text-anchor="start" x="-49.2656" y="-214.8" font-family="Times,serif" font-size="14.00">update</text>
<polyline fill="none" stroke="black" points="-57.2656,-208 93.2656,-208 "/>
<polyline fill="none" stroke="black" points="-57.2656,-184 93.2656,-184 "/>
<text text-anchor="start" x="-49.2656" y="-168.8" font-family="Times,serif" font-size="14.00">_layout</text>
<text text-anchor="start" x="-49.2656" y="-154.8" font-family="Times,serif" font-size="14.00">personal_info_params</text>
<text text-anchor="start" x="-49.2656" y="-140.8" font-family="Times,serif" font-size="14.00">set_personal_info</text>
</g>
<!-- PhotoLinksController -->
<g id="node12" class="node"><title>PhotoLinksController</title>
<path fill="none" stroke="black" d="M-254.055,18C-254.055,18 -139.945,18 -139.945,18 -133.945,18 -127.945,12 -127.945,6 -127.945,6 -127.945,-172 -127.945,-172 -127.945,-178 -133.945,-184 -139.945,-184 -139.945,-184 -254.055,-184 -254.055,-184 -260.055,-184 -266.055,-178 -266.055,-172 -266.055,-172 -266.055,6 -266.055,6 -266.055,12 -260.055,18 -254.055,18"/>
<text text-anchor="middle" x="-197" y="-168.8" font-family="Times,serif" font-size="14.00">PhotoLinksController</text>
<polyline fill="none" stroke="black" points="-266.055,-162 -127.945,-162 "/>
<text text-anchor="start" x="-258.055" y="-146.8" font-family="Times,serif" font-size="14.00">create</text>
<text text-anchor="start" x="-258.055" y="-132.8" font-family="Times,serif" font-size="14.00">destroy</text>
<text text-anchor="start" x="-258.055" y="-118.8" font-family="Times,serif" font-size="14.00">edit</text>
<text text-anchor="start" x="-258.055" y="-104.8" font-family="Times,serif" font-size="14.00">index</text>
<text text-anchor="start" x="-258.055" y="-90.8" font-family="Times,serif" font-size="14.00">new</text>
<text text-anchor="start" x="-258.055" y="-76.8" font-family="Times,serif" font-size="14.00">show</text>
<text text-anchor="start" x="-258.055" y="-62.8" font-family="Times,serif" font-size="14.00">update</text>
<polyline fill="none" stroke="black" points="-266.055,-56 -127.945,-56 "/>
<polyline fill="none" stroke="black" points="-266.055,-32 -127.945,-32 "/>
<text text-anchor="start" x="-258.055" y="-16.8" font-family="Times,serif" font-size="14.00">_layout</text>
<text text-anchor="start" x="-258.055" y="-2.8" font-family="Times,serif" font-size="14.00">photo_link_params</text>
<text text-anchor="start" x="-258.055" y="11.2" font-family="Times,serif" font-size="14.00">set_photo_link</text>
</g>
<!-- PhotosController -->
<g id="node13" class="node"><title>PhotosController</title>
<path fill="none" stroke="black" d="M-405.834,246C-405.834,246 -318.166,246 -318.166,246 -312.166,246 -306.166,240 -306.166,234 -306.166,234 -306.166,56 -306.166,56 -306.166,50 -312.166,44 -318.166,44 -318.166,44 -405.834,44 -405.834,44 -411.834,44 -417.834,50 -417.834,56 -417.834,56 -417.834,234 -417.834,234 -417.834,240 -411.834,246 -405.834,246"/>
<text text-anchor="middle" x="-362" y="59.2" font-family="Times,serif" font-size="14.00">PhotosController</text>
<polyline fill="none" stroke="black" points="-417.834,66 -306.166,66 "/>
<text text-anchor="start" x="-409.834" y="81.2" font-family="Times,serif" font-size="14.00">create</text>
<text text-anchor="start" x="-409.834" y="95.2" font-family="Times,serif" font-size="14.00">destroy</text>
<text text-anchor="start" x="-409.834" y="109.2" font-family="Times,serif" font-size="14.00">edit</text>
<text text-anchor="start" x="-409.834" y="123.2" font-family="Times,serif" font-size="14.00">index</text>
<text text-anchor="start" x="-409.834" y="137.2" font-family="Times,serif" font-size="14.00">new</text>
<text text-anchor="start" x="-409.834" y="151.2" font-family="Times,serif" font-size="14.00">show</text>
<text text-anchor="start" x="-409.834" y="165.2" font-family="Times,serif" font-size="14.00">update</text>
<polyline fill="none" stroke="black" points="-417.834,172 -306.166,172 "/>
<polyline fill="none" stroke="black" points="-417.834,196 -306.166,196 "/>
<text text-anchor="start" x="-409.834" y="211.2" font-family="Times,serif" font-size="14.00">_layout</text>
<text text-anchor="start" x="-409.834" y="225.2" font-family="Times,serif" font-size="14.00">photo_params</text>
<text text-anchor="start" x="-409.834" y="239.2" font-family="Times,serif" font-size="14.00">set_photo</text>
</g>
<!-- ProjectsController -->
<g id="node14" class="node"><title>ProjectsController</title>
<path fill="none" stroke="black" d="M334.676,-172C334.676,-172 429.324,-172 429.324,-172 435.324,-172 441.324,-178 441.324,-184 441.324,-184 441.324,-362 441.324,-362 441.324,-368 435.324,-374 429.324,-374 429.324,-374 334.676,-374 334.676,-374 328.676,-374 322.676,-368 322.676,-362 322.676,-362 322.676,-184 322.676,-184 322.676,-178 328.676,-172 334.676,-172"/>
<text text-anchor="middle" x="382" y="-358.8" font-family="Times,serif" font-size="14.00">ProjectsController</text>
<polyline fill="none" stroke="black" points="322.676,-352 441.324,-352 "/>
<text text-anchor="start" x="330.676" y="-336.8" font-family="Times,serif" font-size="14.00">create</text>
<text text-anchor="start" x="330.676" y="-322.8" font-family="Times,serif" font-size="14.00">destroy</text>
<text text-anchor="start" x="330.676" y="-308.8" font-family="Times,serif" font-size="14.00">edit</text>
<text text-anchor="start" x="330.676" y="-294.8" font-family="Times,serif" font-size="14.00">index</text>
<text text-anchor="start" x="330.676" y="-280.8" font-family="Times,serif" font-size="14.00">new</text>
<text text-anchor="start" x="330.676" y="-266.8" font-family="Times,serif" font-size="14.00">show</text>
<text text-anchor="start" x="330.676" y="-252.8" font-family="Times,serif" font-size="14.00">update</text>
<polyline fill="none" stroke="black" points="322.676,-246 441.324,-246 "/>
<polyline fill="none" stroke="black" points="322.676,-222 441.324,-222 "/>
<text text-anchor="start" x="330.676" y="-206.8" font-family="Times,serif" font-size="14.00">_layout</text>
<text text-anchor="start" x="330.676" y="-192.8" font-family="Times,serif" font-size="14.00">project_params</text>
<text text-anchor="start" x="330.676" y="-178.8" font-family="Times,serif" font-size="14.00">set_project</text>
</g>
<!-- RegistrationsController -->
<g id="node15" class="node"><title>RegistrationsController</title>
<path fill="none" stroke="black" d="M-405.638,-248C-405.638,-248 -278.362,-248 -278.362,-248 -272.362,-248 -266.362,-254 -266.362,-260 -266.362,-260 -266.362,-340 -266.362,-340 -266.362,-346 -272.362,-352 -278.362,-352 -278.362,-352 -405.638,-352 -405.638,-352 -411.638,-352 -417.638,-346 -417.638,-340 -417.638,-340 -417.638,-260 -417.638,-260 -417.638,-254 -411.638,-248 -405.638,-248"/>
<text text-anchor="middle" x="-342" y="-336.8" font-family="Times,serif" font-size="14.00">RegistrationsController</text>
<polyline fill="none" stroke="black" points="-417.638,-330 -266.362,-330 "/>
<polyline fill="none" stroke="black" points="-417.638,-306 -266.362,-306 "/>
<text text-anchor="start" x="-409.638" y="-290.8" font-family="Times,serif" font-size="14.00">account_update_params</text>
<text text-anchor="start" x="-409.638" y="-276.8" font-family="Times,serif" font-size="14.00">sign_up_params</text>
<polyline fill="none" stroke="black" points="-417.638,-270 -266.362,-270 "/>
<text text-anchor="start" x="-409.638" y="-254.8" font-family="Times,serif" font-size="14.00">_layout</text>
</g>
<!-- SchoolsController -->
<g id="node16" class="node"><title>SchoolsController</title>
<path fill="none" stroke="black" d="M69.0586,360C69.0586,360 162.941,360 162.941,360 168.941,360 174.941,354 174.941,348 174.941,348 174.941,170 174.941,170 174.941,164 168.941,158 162.941,158 162.941,158 69.0586,158 69.0586,158 63.0586,158 57.0586,164 57.0586,170 57.0586,170 57.0586,348 57.0586,348 57.0586,354 63.0586,360 69.0586,360"/>
<text text-anchor="middle" x="116" y="173.2" font-family="Times,serif" font-size="14.00">SchoolsController</text>
<polyline fill="none" stroke="black" points="57.0586,180 174.941,180 "/>
<text text-anchor="start" x="65.0586" y="195.2" font-family="Times,serif" font-size="14.00">create</text>
<text text-anchor="start" x="65.0586" y="209.2" font-family="Times,serif" font-size="14.00">destroy</text>
<text text-anchor="start" x="65.0586" y="223.2" font-family="Times,serif" font-size="14.00">edit</text>
<text text-anchor="start" x="65.0586" y="237.2" font-family="Times,serif" font-size="14.00">index</text>
<text text-anchor="start" x="65.0586" y="251.2" font-family="Times,serif" font-size="14.00">new</text>
<text text-anchor="start" x="65.0586" y="265.2" font-family="Times,serif" font-size="14.00">show</text>
<text text-anchor="start" x="65.0586" y="279.2" font-family="Times,serif" font-size="14.00">update</text>
<polyline fill="none" stroke="black" points="57.0586,286 174.941,286 "/>
<polyline fill="none" stroke="black" points="57.0586,310 174.941,310 "/>
<text text-anchor="start" x="65.0586" y="325.2" font-family="Times,serif" font-size="14.00">_layout</text>
<text text-anchor="start" x="65.0586" y="339.2" font-family="Times,serif" font-size="14.00">school_params</text>
<text text-anchor="start" x="65.0586" y="353.2" font-family="Times,serif" font-size="14.00">set_school</text>
</g>
<!-- ShowcasesController -->
<g id="node17" class="node"><title>ShowcasesController</title>
<path fill="none" stroke="black" d="M163.51,-381C163.51,-381 274.49,-381 274.49,-381 280.49,-381 286.49,-387 286.49,-393 286.49,-393 286.49,-571 286.49,-571 286.49,-577 280.49,-583 274.49,-583 274.49,-583 163.51,-583 163.51,-583 157.51,-583 151.51,-577 151.51,-571 151.51,-571 151.51,-393 151.51,-393 151.51,-387 157.51,-381 163.51,-381"/>
<text text-anchor="middle" x="219" y="-567.8" font-family="Times,serif" font-size="14.00">ShowcasesController</text>
<polyline fill="none" stroke="black" points="151.51,-561 286.49,-561 "/>
<text text-anchor="start" x="159.51" y="-545.8" font-family="Times,serif" font-size="14.00">create</text>
<text text-anchor="start" x="159.51" y="-531.8" font-family="Times,serif" font-size="14.00">destroy</text>
<text text-anchor="start" x="159.51" y="-517.8" font-family="Times,serif" font-size="14.00">edit</text>
<text text-anchor="start" x="159.51" y="-503.8" font-family="Times,serif" font-size="14.00">index</text>
<text text-anchor="start" x="159.51" y="-489.8" font-family="Times,serif" font-size="14.00">new</text>
<text text-anchor="start" x="159.51" y="-475.8" font-family="Times,serif" font-size="14.00">show</text>
<text text-anchor="start" x="159.51" y="-461.8" font-family="Times,serif" font-size="14.00">update</text>
<polyline fill="none" stroke="black" points="151.51,-455 286.49,-455 "/>
<polyline fill="none" stroke="black" points="151.51,-431 286.49,-431 "/>
<text text-anchor="start" x="159.51" y="-415.8" font-family="Times,serif" font-size="14.00">_layout</text>
<text text-anchor="start" x="159.51" y="-401.8" font-family="Times,serif" font-size="14.00">set_showcase</text>
<text text-anchor="start" x="159.51" y="-387.8" font-family="Times,serif" font-size="14.00">showcase_params</text>
</g>
<!-- SocialLinksController -->
<g id="node18" class="node"><title>SocialLinksController</title>
<path fill="none" stroke="black" d="M-254.214,265C-254.214,265 -137.786,265 -137.786,265 -131.786,265 -125.786,259 -125.786,253 -125.786,253 -125.786,75 -125.786,75 -125.786,69 -131.786,63 -137.786,63 -137.786,63 -254.214,63 -254.214,63 -260.214,63 -266.214,69 -266.214,75 -266.214,75 -266.214,253 -266.214,253 -266.214,259 -260.214,265 -254.214,265"/>
<text text-anchor="middle" x="-196" y="78.2" font-family="Times,serif" font-size="14.00">SocialLinksController</text>
<polyline fill="none" stroke="black" points="-266.214,85 -125.786,85 "/>
<text text-anchor="start" x="-258.214" y="100.2" font-family="Times,serif" font-size="14.00">create</text>
<text text-anchor="start" x="-258.214" y="114.2" font-family="Times,serif" font-size="14.00">destroy</text>
<text text-anchor="start" x="-258.214" y="128.2" font-family="Times,serif" font-size="14.00">edit</text>
<text text-anchor="start" x="-258.214" y="142.2" font-family="Times,serif" font-size="14.00">index</text>
<text text-anchor="start" x="-258.214" y="156.2" font-family="Times,serif" font-size="14.00">new</text>
<text text-anchor="start" x="-258.214" y="170.2" font-family="Times,serif" font-size="14.00">show</text>
<text text-anchor="start" x="-258.214" y="184.2" font-family="Times,serif" font-size="14.00">update</text>
<polyline fill="none" stroke="black" points="-266.214,191 -125.786,191 "/>
<polyline fill="none" stroke="black" points="-266.214,215 -125.786,215 "/>
<text text-anchor="start" x="-258.214" y="230.2" font-family="Times,serif" font-size="14.00">_layout</text>
<text text-anchor="start" x="-258.214" y="244.2" font-family="Times,serif" font-size="14.00">set_social_link</text>
<text text-anchor="start" x="-258.214" y="258.2" font-family="Times,serif" font-size="14.00">social_link_params</text>
</g>
<!-- Users::RegistrationsController -->
<g id="node19" class="node"><title>Users::RegistrationsController</title>
<path fill="none" stroke="black" d="M430.455,-419C430.455,-419 593.545,-419 593.545,-419 599.545,-419 605.545,-425 605.545,-431 605.545,-431 605.545,-523 605.545,-523 605.545,-529 599.545,-535 593.545,-535 593.545,-535 430.455,-535 430.455,-535 424.455,-535 418.455,-529 418.455,-523 418.455,-523 418.455,-431 418.455,-431 418.455,-425 424.455,-419 430.455,-419"/>
<text text-anchor="middle" x="512" y="-519.8" font-family="Times,serif" font-size="14.00">Users::RegistrationsController</text>
<polyline fill="none" stroke="black" points="418.455,-513 605.545,-513 "/>
<text text-anchor="start" x="426.455" y="-497.8" font-family="Times,serif" font-size="14.00">create</text>
<polyline fill="none" stroke="black" points="418.455,-491 605.545,-491 "/>
<text text-anchor="start" x="426.455" y="-475.8" font-family="Times,serif" font-size="14.00">account_update_params</text>
<text text-anchor="start" x="426.455" y="-461.8" font-family="Times,serif" font-size="14.00">after_sign_up_path_for</text>
<text text-anchor="start" x="426.455" y="-447.8" font-family="Times,serif" font-size="14.00">sign_up_params</text>
<polyline fill="none" stroke="black" points="418.455,-441 605.545,-441 "/>
<text text-anchor="start" x="426.455" y="-425.8" font-family="Times,serif" font-size="14.00">_layout</text>
</g>
<!-- UsersController -->
<g id="node20" class="node"><title>UsersController</title>
<path fill="none" stroke="black" d="M335.286,322C335.286,322 416.714,322 416.714,322 422.714,322 428.714,316 428.714,310 428.714,310 428.714,118 428.714,118 428.714,112 422.714,106 416.714,106 416.714,106 335.286,106 335.286,106 329.286,106 323.286,112 323.286,118 323.286,118 323.286,310 323.286,310 323.286,316 329.286,322 335.286,322"/>
<text text-anchor="middle" x="376" y="121.2" font-family="Times,serif" font-size="14.00">UsersController</text>
<polyline fill="none" stroke="black" points="323.286,128 428.714,128 "/>
<text text-anchor="start" x="331.286" y="143.2" font-family="Times,serif" font-size="14.00">create</text>
<text text-anchor="start" x="331.286" y="157.2" font-family="Times,serif" font-size="14.00">destroy</text>
<text text-anchor="start" x="331.286" y="171.2" font-family="Times,serif" font-size="14.00">edit</text>
<text text-anchor="start" x="331.286" y="185.2" font-family="Times,serif" font-size="14.00">index</text>
<text text-anchor="start" x="331.286" y="199.2" font-family="Times,serif" font-size="14.00">new</text>
<text text-anchor="start" x="331.286" y="213.2" font-family="Times,serif" font-size="14.00">show</text>
<text text-anchor="start" x="331.286" y="227.2" font-family="Times,serif" font-size="14.00">update</text>
<polyline fill="none" stroke="black" points="323.286,234 428.714,234 "/>
<polyline fill="none" stroke="black" points="323.286,258 428.714,258 "/>
<text text-anchor="start" x="331.286" y="273.2" font-family="Times,serif" font-size="14.00">_layout</text>
<text text-anchor="start" x="331.286" y="287.2" font-family="Times,serif" font-size="14.00">set_user</text>
<text text-anchor="start" x="331.286" y="301.2" font-family="Times,serif" font-size="14.00">user_params</text>
<text text-anchor="start" x="331.286" y="315.2" font-family="Times,serif" font-size="14.00">verify_email</text>
</g>
<!-- WebsiteSettingsController -->
<g id="node21" class="node"><title>WebsiteSettingsController</title>
<path fill="none" stroke="black" d="M-82.7085,113C-82.7085,113 56.7085,113 56.7085,113 62.7085,113 68.7085,107 68.7085,101 68.7085,101 68.7085,-77 68.7085,-77 68.7085,-83 62.7085,-89 56.7085,-89 56.7085,-89 -82.7085,-89 -82.7085,-89 -88.7085,-89 -94.7085,-83 -94.7085,-77 -94.7085,-77 -94.7085,101 -94.7085,101 -94.7085,107 -88.7085,113 -82.7085,113"/>
<text text-anchor="middle" x="-13" y="-73.8" font-family="Times,serif" font-size="14.00">WebsiteSettingsController</text>
<polyline fill="none" stroke="black" points="-94.7085,-67 68.7085,-67 "/>
<text text-anchor="start" x="-86.7085" y="-51.8" font-family="Times,serif" font-size="14.00">create</text>
<text text-anchor="start" x="-86.7085" y="-37.8" font-family="Times,serif" font-size="14.00">destroy</text>
<text text-anchor="start" x="-86.7085" y="-23.8" font-family="Times,serif" font-size="14.00">edit</text>
<text text-anchor="start" x="-86.7085" y="-9.8" font-family="Times,serif" font-size="14.00">index</text>
<text text-anchor="start" x="-86.7085" y="4.2" font-family="Times,serif" font-size="14.00">new</text>
<text text-anchor="start" x="-86.7085" y="18.2" font-family="Times,serif" font-size="14.00">show</text>
<text text-anchor="start" x="-86.7085" y="32.2" font-family="Times,serif" font-size="14.00">update</text>
<polyline fill="none" stroke="black" points="-94.7085,39 68.7085,39 "/>
<polyline fill="none" stroke="black" points="-94.7085,63 68.7085,63 "/>
<text text-anchor="start" x="-86.7085" y="78.2" font-family="Times,serif" font-size="14.00">_layout</text>
<text text-anchor="start" x="-86.7085" y="92.2" font-family="Times,serif" font-size="14.00">set_website_setting</text>
<text text-anchor="start" x="-86.7085" y="106.2" font-family="Times,serif" font-size="14.00">website_setting_params</text>
</g>
</g>
</svg>
