<?xml version="1.0" encoding="UTF-8" standalone="no"?>
<!DOCTYPE svg PUBLIC "-//W3C//DTD SVG 1.1//EN"
 "http://www.w3.org/Graphics/SVG/1.1/DTD/svg11.dtd">
<!-- Generated by graphviz version 2.38.0 (20140413.2041)
 -->
<!-- Title: controllers_diagram Pages: 1 -->
<svg width="1069pt" height="1028pt"
 viewBox="0.00 0.00 1069.38 1028.00" xmlns="http://www.w3.org/2000/svg" xmlns:xlink="http://www.w3.org/1999/xlink">
<g id="graph0" class="graph" transform="scale(1 1) rotate(0) translate(421.834 587.5)">
<title>controllers_diagram</title>
<polygon fill="none" stroke="none" points="-421.834,440.5 -421.834,-587.5 647.545,-587.5 647.545,440.5 -421.834,440.5"/>
<!-- _diagram_info -->
<g id="node1" class="node"><title>_diagram_info</title>
<text text-anchor="start" x="236.312" y="377.9" font-family="Times,serif" font-size="13.00">Controllers diagram</text>
<text text-anchor="start" x="236.312" y="390.9" font-family="Times,serif" font-size="13.00">Date: Jun 21 2016 &#45; 10:53</text>
<text text-anchor="start" x="236.312" y="403.9" font-family="Times,serif" font-size="13.00">Migration version: 20160613145109</text>
<text text-anchor="start" x="236.312" y="416.9" font-family="Times,serif" font-size="13.00">Generated by RailRoady 1.3.1</text>
<text text-anchor="start" x="236.312" y="429.9" font-family="Times,serif" font-size="13.00">http://railroady.prestonlee.com</text>
</g>
<!-- Admins::RegistrationsController -->
<g id="node2" class="node"><title>Admins::RegistrationsController</title>
<path fill="none" stroke="black" d="M-386.772,398C-386.772,398 -211.228,398 -211.228,398 -205.228,398 -199.228,392 -199.228,386 -199.228,386 -199.228,306 -199.228,306 -199.228,300 -205.228,294 -211.228,294 -211.228,294 -386.772,294 -386.772,294 -392.772,294 -398.772,300 -398.772,306 -398.772,306 -398.772,386 -398.772,386 -398.772,392 -392.772,398 -386.772,398"/>
<text text-anchor="middle" x="-299" y="309.2" font-family="Times,serif" font-size="14.00">Admins::RegistrationsController</text>
<polyline fill="none" stroke="black" points="-398.772,316 -199.228,316 "/>
<polyline fill="none" stroke="black" points="-398.772,340 -199.228,340 "/>
<text text-anchor="start" x="-390.772" y="355.2" font-family="Times,serif" font-size="14.00">after_sign_up_path_for</text>
<text text-anchor="start" x="-390.772" y="369.2" font-family="Times,serif" font-size="14.00">sign_up</text>
<polyline fill="none" stroke="black" points="-398.772,376 -199.228,376 "/>
<text text-anchor="start" x="-390.772" y="391.2" font-family="Times,serif" font-size="14.00">_layout</text>
</g>
<!-- AdminsController -->
<g id="node3" class="node"><title>AdminsController</title>
<path fill="none" stroke="black" d="M335.059,-172C335.059,-172 428.941,-172 428.941,-172 434.941,-172 440.941,-178 440.941,-184 440.941,-184 440.941,-362 440.941,-362 440.941,-368 434.941,-374 428.941,-374 428.941,-374 335.059,-374 335.059,-374 329.059,-374 323.059,-368 323.059,-362 323.059,-362 323.059,-184 323.059,-184 323.059,-178 329.059,-172 335.059,-172"/>
<text text-anchor="middle" x="382" y="-358.8" font-family="Times,serif" font-size="14.00">AdminsController</text>
<polyline fill="none" stroke="black" points="323.059,-352 440.941,-352 "/>
<text text-anchor="start" x="331.059" y="-336.8" font-family="Times,serif" font-size="14.00">create</text>
<text text-anchor="start" x="331.059" y="-322.8" font-family="Times,serif" font-size="14.00">destroy</text>
<text text-anchor="start" x="331.059" y="-308.8" font-family="Times,serif" font-size="14.00">edit</text>
<text text-anchor="start" x="331.059" y="-294.8" font-family="Times,serif" font-size="14.00">index</text>
<text text-anchor="start" x="331.059" y="-280.8" font-family="Times,serif" font-size="14.00">new</text>
<text text-anchor="start" x="331.059" y="-266.8" font-family="Times,serif" font-size="14.00">show</text>
<text text-anchor="start" x="331.059" y="-252.8" font-family="Times,serif" font-size="14.00">update</text>
<polyline fill="none" stroke="black" points="323.059,-246 440.941,-246 "/>
<polyline fill="none" stroke="black" points="323.059,-222 440.941,-222 "/>
<text text-anchor="start" x="331.059" y="-206.8" font-family="Times,serif" font-size="14.00">_layout</text>
<text text-anchor="start" x="331.059" y="-192.8" font-family="Times,serif" font-size="14.00">admin_params</text>
<text text-anchor="start" x="331.059" y="-178.8" font-family="Times,serif" font-size="14.00">set_admin</text>
</g>
<!-- ApplicationController -->
<g id="node4" class="node"><title>ApplicationController</title>
<path fill="none" stroke="black" d="M-6.63818,-381C-6.63818,-381 120.638,-381 120.638,-381 126.638,-381 132.638,-387 132.638,-393 132.638,-393 132.638,-527 132.638,-527 132.638,-533 126.638,-539 120.638,-539 120.638,-539 -6.63818,-539 -6.63818,-539 -12.6382,-539 -18.6382,-533 -18.6382,-527 -18.6382,-527 -18.6382,-393 -18.6382,-393 -18.6382,-387 -12.6382,-381 -6.63818,-381"/>
<text text-anchor="middle" x="57" y="-523.8" font-family="Times,serif" font-size="14.00">ApplicationController</text>
<polyline fill="none" stroke="black" points="-18.6382,-517 132.638,-517 "/>
<text text-anchor="start" x="-10.6382" y="-501.8" font-family="Times,serif" font-size="14.00">authenticate_person!</text>
<text text-anchor="start" x="-10.6382" y="-487.8" font-family="Times,serif" font-size="14.00">current_people</text>
<text text-anchor="start" x="-10.6382" y="-473.8" font-family="Times,serif" font-size="14.00">current_person</text>
<text text-anchor="start" x="-10.6382" y="-459.8" font-family="Times,serif" font-size="14.00">person_signed_in?</text>
<polyline fill="none" stroke="black" points="-18.6382,-453 132.638,-453 "/>
<text text-anchor="start" x="-10.6382" y="-437.8" font-family="Times,serif" font-size="14.00">account_update_params</text>
<text text-anchor="start" x="-10.6382" y="-423.8" font-family="Times,serif" font-size="14.00">after_sign_in_path_for</text>
<text text-anchor="start" x="-10.6382" y="-409.8" font-family="Times,serif" font-size="14.00">current_ability</text>
<polyline fill="none" stroke="black" points="-18.6382,-403 132.638,-403 "/>
<text text-anchor="start" x="-10.6382" y="-387.8" font-family="Times,serif" font-size="14.00">_layout</text>
</g>
<!-- ArticlesController -->
<g id="node5" class="node"><title>ArticlesController</title>
<path fill="none" stroke="black" d="M335.069,322C335.069,322 428.931,322 428.931,322 434.931,322 440.931,316 440.931,310 440.931,310 440.931,132 440.931,132 440.931,126 434.931,120 428.931,120 428.931,120 335.069,120 335.069,120 329.069,120 323.069,126 323.069,132 323.069,132 323.069,310 323.069,310 323.069,316 329.069,322 335.069,322"/>
<text text-anchor="middle" x="382" y="135.2" font-family="Times,serif" font-size="14.00">ArticlesController</text>
<polyline fill="none" stroke="black" points="323.069,142 440.931,142 "/>
<text text-anchor="start" x="331.069" y="157.2" font-family="Times,serif" font-size="14.00">create</text>
<text text-anchor="start" x="331.069" y="171.2" font-family="Times,serif" font-size="14.00">destroy</text>
<text text-anchor="start" x="331.069" y="185.2" font-family="Times,serif" font-size="14.00">edit</text>
<text text-anchor="start" x="331.069" y="199.2" font-family="Times,serif" font-size="14.00">index</text>
<text text-anchor="start" x="331.069" y="213.2" font-family="Times,serif" font-size="14.00">new</text>
<text text-anchor="start" x="331.069" y="227.2" font-family="Times,serif" font-size="14.00">show</text>
<text text-anchor="start" x="331.069" y="241.2" font-family="Times,serif" font-size="14.00">update</text>
<polyline fill="none" stroke="black" points="323.069,248 440.931,248 "/>
<polyline fill="none" stroke="black" points="323.069,272 440.931,272 "/>
<text text-anchor="start" x="331.069" y="287.2" font-family="Times,serif" font-size="14.00">_layout</text>
<text text-anchor="start" x="331.069" y="301.2" font-family="Times,serif" font-size="14.00">article_params</text>
<text text-anchor="start" x="331.069" y="315.2" font-family="Times,serif" font-size="14.00">set_article</text>
</g>
<!-- BackgroundInfosController -->
<g id="node6" class="node"><title>BackgroundInfosController</title>
<path fill="none" stroke="black" d="M125.627,113C125.627,113 272.373,113 272.373,113 278.373,113 284.373,107 284.373,101 284.373,101 284.373,-77 284.373,-77 284.373,-83 278.373,-89 272.373,-89 272.373,-89 125.627,-89 125.627,-89 119.627,-89 113.627,-83 113.627,-77 113.627,-77 113.627,101 113.627,101 113.627,107 119.627,113 125.627,113"/>
<text text-anchor="middle" x="199" y="-73.8" font-family="Times,serif" font-size="14.00">BackgroundInfosController</text>
<polyline fill="none" stroke="black" points="113.627,-67 284.373,-67 "/>
<text text-anchor="start" x="121.627" y="-51.8" font-family="Times,serif" font-size="14.00">create</text>
<text text-anchor="start" x="121.627" y="-37.8" font-family="Times,serif" font-size="14.00">destroy</text>
<text text-anchor="start" x="121.627" y="-23.8" font-family="Times,serif" font-size="14.00">edit</text>
<text text-anchor="start" x="121.627" y="-9.8" font-family="Times,serif" font-size="14.00">index</text>
<text text-anchor="start" x="121.627" y="4.2" font-family="Times,serif" font-size="14.00">new</text>
<text text-anchor="start" x="121.627" y="18.2" font-family="Times,serif" font-size="14.00">show</text>
<text text-anchor="start" x="121.627" y="32.2" font-family="Times,serif" font-size="14.00">update</text>
<polyline fill="none" stroke="black" points="113.627,39 284.373,39 "/>
<polyline fill="none" stroke="black" points="113.627,63 284.373,63 "/>
<text text-anchor="start" x="121.627" y="78.2" font-family="Times,serif" font-size="14.00">_layout</text>
<text text-anchor="start" x="121.627" y="92.2" font-family="Times,serif" font-size="14.00">background_info_params</text>
<text text-anchor="start" x="121.627" y="106.2" font-family="Times,serif" font-size="14.00">set_background_info</text>
</g>
<!-- Clerks::RegistrationsController -->
<g id="node7" class="node"><title>Clerks::RegistrationsController</title>
<path fill="none" stroke="black" d="M430.121,-419C430.121,-419 597.879,-419 597.879,-419 603.879,-419 609.879,-425 609.879,-431 609.879,-431 609.879,-539 609.879,-539 609.879,-545 603.879,-551 597.879,-551 597.879,-551 430.121,-551 430.121,-551 424.121,-551 418.121,-545 418.121,-539 418.121,-539 418.121,-431 418.121,-431 418.121,-425 424.121,-419 430.121,-419"/>
<text text-anchor="middle" x="514" y="-535.8" font-family="Times,serif" font-size="14.00">Clerks::RegistrationsController</text>
<polyline fill="none" stroke="black" points="418.121,-529 609.879,-529 "/>
<polyline fill="none" stroke="black" points="418.121,-505 609.879,-505 "/>
<text text-anchor="start" x="426.121" y="-489.8" font-family="Times,serif" font-size="14.00">account_update_params</text>
<text text-anchor="start" x="426.121" y="-475.8" font-family="Times,serif" font-size="14.00">after_sign_up_path_for</text>
<text text-anchor="start" x="426.121" y="-461.8" font-family="Times,serif" font-size="14.00">sign_up</text>
<text text-anchor="start" x="426.121" y="-447.8" font-family="Times,serif" font-size="14.00">sign_up_params</text>
<polyline fill="none" stroke="black" points="418.121,-441 609.879,-441 "/>
<text text-anchor="start" x="426.121" y="-425.8" font-family="Times,serif" font-size="14.00">_layout</text>
</g>
<!-- ClerksController -->
<g id="node8" class="node"><title>ClerksController</title>
<path fill="none" stroke="black" d="M-368.048,-381C-368.048,-381 -281.952,-381 -281.952,-381 -275.952,-381 -269.952,-387 -269.952,-393 -269.952,-393 -269.952,-571 -269.952,-571 -269.952,-577 -275.952,-583 -281.952,-583 -281.952,-583 -368.048,-583 -368.048,-583 -374.048,-583 -380.048,-577 -380.048,-571 -380.048,-571 -380.048,-393 -380.048,-393 -380.048,-387 -374.048,-381 -368.048,-381"/>
<text text-anchor="middle" x="-325" y="-567.8" font-family="Times,serif" font-size="14.00">ClerksController</text>
<polyline fill="none" stroke="black" points="-380.048,-561 -269.952,-561 "/>
<text text-anchor="start" x="-372.048" y="-545.8" font-family="Times,serif" font-size="14.00">create</text>
<text text-anchor="start" x="-372.048" y="-531.8" font-family="Times,serif" font-size="14.00">destroy</text>
<text text-anchor="start" x="-372.048" y="-517.8" font-family="Times,serif" font-size="14.00">edit</text>
<text text-anchor="start" x="-372.048" y="-503.8" font-family="Times,serif" font-size="14.00">index</text>
<text text-anchor="start" x="-372.048" y="-489.8" font-family="Times,serif" font-size="14.00">new</text>
<text text-anchor="start" x="-372.048" y="-475.8" font-family="Times,serif" font-size="14.00">show</text>
<text text-anchor="start" x="-372.048" y="-461.8" font-family="Times,serif" font-size="14.00">update</text>
<polyline fill="none" stroke="black" points="-380.048,-455 -269.952,-455 "/>
<polyline fill="none" stroke="black" points="-380.048,-431 -269.952,-431 "/>
<text text-anchor="start" x="-372.048" y="-415.8" font-family="Times,serif" font-size="14.00">_layout</text>
<text text-anchor="start" x="-372.048" y="-401.8" font-family="Times,serif" font-size="14.00">clerk_params</text>
<text text-anchor="start" x="-372.048" y="-387.8" font-family="Times,serif" font-size="14.00">set_clerk</text>
</g>
<!-- DemosController -->
<g id="node9" class="node"><title>DemosController</title>
<path fill="none" stroke="black" d="M-405.604,-1C-405.604,-1 -316.396,-1 -316.396,-1 -310.396,-1 -304.396,-7 -304.396,-13 -304.396,-13 -304.396,-191 -304.396,-191 -304.396,-197 -310.396,-203 -316.396,-203 -316.396,-203 -405.604,-203 -405.604,-203 -411.604,-203 -417.604,-197 -417.604,-191 -417.604,-191 -417.604,-13 -417.604,-13 -417.604,-7 -411.604,-1 -405.604,-1"/>
<text text-anchor="middle" x="-361" y="-187.8" font-family="Times,serif" font-size="14.00">DemosController</text>
<polyline fill="none" stroke="black" points="-417.604,-181 -304.396,-181 "/>
<text text-anchor="start" x="-409.604" y="-165.8" font-family="Times,serif" font-size="14.00">create</text>
<text text-anchor="start" x="-409.604" y="-151.8" font-family="Times,serif" font-size="14.00">destroy</text>
<text text-anchor="start" x="-409.604" y="-137.8" font-family="Times,serif" font-size="14.00">edit</text>
<text text-anchor="start" x="-409.604" y="-123.8" font-family="Times,serif" font-size="14.00">index</text>
<text text-anchor="start" x="-409.604" y="-109.8" font-family="Times,serif" font-size="14.00">new</text>
<text text-anchor="start" x="-409.604" y="-95.8" font-family="Times,serif" font-size="14.00">show</text>
<text text-anchor="start" x="-409.604" y="-81.8" font-family="Times,serif" font-size="14.00">update</text>
<polyline fill="none" stroke="black" points="-417.604,-75 -304.396,-75 "/>
<polyline fill="none" stroke="black" points="-417.604,-51 -304.396,-51 "/>
<text text-anchor="start" x="-409.604" y="-35.8" font-family="Times,serif" font-size="14.00">_layout</text>
<text text-anchor="start" x="-409.604" y="-21.8" font-family="Times,serif" font-size="14.00">demo_params</text>
<text text-anchor="start" x="-409.604" y="-7.8" font-family="Times,serif" font-size="14.00">set_demo</text>
</g>
<!-- ExperiencesController -->
<g id="node10" class="node"><title>ExperiencesController</title>
<path fill="none" stroke="black" d="M-253.976,18C-253.976,18 -136.024,18 -136.024,18 -130.024,18 -124.024,12 -124.024,6 -124.024,6 -124.024,-172 -124.024,-172 -124.024,-178 -130.024,-184 -136.024,-184 -136.024,-184 -253.976,-184 -253.976,-184 -259.976,-184 -265.976,-178 -265.976,-172 -265.976,-172 -265.976,6 -265.976,6 -265.976,12 -259.976,18 -253.976,18"/>
<text text-anchor="middle" x="-195" y="-168.8" font-family="Times,serif" font-size="14.00">ExperiencesController</text>
<polyline fill="none" stroke="black" points="-265.976,-162 -124.024,-162 "/>
<text text-anchor="start" x="-257.976" y="-146.8" font-family="Times,serif" font-size="14.00">create</text>
<text text-anchor="start" x="-257.976" y="-132.8" font-family="Times,serif" font-size="14.00">destroy</text>
<text text-anchor="start" x="-257.976" y="-118.8" font-family="Times,serif" font-size="14.00">edit</text>
<text text-anchor="start" x="-257.976" y="-104.8" font-family="Times,serif" font-size="14.00">index</text>
<text text-anchor="start" x="-257.976" y="-90.8" font-family="Times,serif" font-size="14.00">new</text>
<text text-anchor="start" x="-257.976" y="-76.8" font-family="Times,serif" font-size="14.00">show</text>
<text text-anchor="start" x="-257.976" y="-62.8" font-family="Times,serif" font-size="14.00">update</text>
<polyline fill="none" stroke="black" points="-265.976,-56 -124.024,-56 "/>
<polyline fill="none" stroke="black" points="-265.976,-32 -124.024,-32 "/>
<text text-anchor="start" x="-257.976" y="-16.8" font-family="Times,serif" font-size="14.00">_layout</text>
<text text-anchor="start" x="-257.976" y="-2.8" font-family="Times,serif" font-size="14.00">experience_params</text>
<text text-anchor="start" x="-257.976" y="11.2" font-family="Times,serif" font-size="14.00">set_experience</text>
</g>
<!-- HomepageInfosController -->
<g id="node11" class="node"><title>HomepageInfosController</title>
<path fill="none" stroke="black" d="M144.521,-134C144.521,-134 283.479,-134 283.479,-134 289.479,-134 295.479,-140 295.479,-146 295.479,-146 295.479,-324 295.479,-324 295.479,-330 289.479,-336 283.479,-336 283.479,-336 144.521,-336 144.521,-336 138.521,-336 132.521,-330 132.521,-324 132.521,-324 132.521,-146 132.521,-146 132.521,-140 138.521,-134 144.521,-134"/>
<text text-anchor="middle" x="214" y="-320.8" font-family="Times,serif" font-size="14.00">HomepageInfosController</text>
<polyline fill="none" stroke="black" points="132.521,-314 295.479,-314 "/>
<text text-anchor="start" x="140.521" y="-298.8" font-family="Times,serif" font-size="14.00">create</text>
<text text-anchor="start" x="140.521" y="-284.8" font-family="Times,serif" font-size="14.00">destroy</text>
<text text-anchor="start" x="140.521" y="-270.8" font-family="Times,serif" font-size="14.00">edit</text>
<text text-anchor="start" x="140.521" y="-256.8" font-family="Times,serif" font-size="14.00">index</text>
<text text-anchor="start" x="140.521" y="-242.8" font-family="Times,serif" font-size="14.00">new</text>
<text text-anchor="start" x="140.521" y="-228.8" font-family="Times,serif" font-size="14.00">show</text>
<text text-anchor="start" x="140.521" y="-214.8" font-family="Times,serif" font-size="14.00">update</text>
<polyline fill="none" stroke="black" points="132.521,-208 295.479,-208 "/>
<polyline fill="none" stroke="black" points="132.521,-184 295.479,-184 "/>
<text text-anchor="start" x="140.521" y="-168.8" font-family="Times,serif" font-size="14.00">_layout</text>
<text text-anchor="start" x="140.521" y="-154.8" font-family="Times,serif" font-size="14.00">homepage_info_params</text>
<text text-anchor="start" x="140.521" y="-140.8" font-family="Times,serif" font-size="14.00">set_homepage_info</text>
</g>
<!-- PersonalInfosController -->
<g id="node12" class="node"><title>PersonalInfosController</title>
<path fill="none" stroke="black" d="M-45.2656,-134C-45.2656,-134 81.2656,-134 81.2656,-134 87.2656,-134 93.2656,-140 93.2656,-146 93.2656,-146 93.2656,-338 93.2656,-338 93.2656,-344 87.2656,-350 81.2656,-350 81.2656,-350 -45.2656,-350 -45.2656,-350 -51.2656,-350 -57.2656,-344 -57.2656,-338 -57.2656,-338 -57.2656,-146 -57.2656,-146 -57.2656,-140 -51.2656,-134 -45.2656,-134"/>
<text text-anchor="middle" x="18" y="-334.8" font-family="Times,serif" font-size="14.00">PersonalInfosController</text>
<polyline fill="none" stroke="black" points="-57.2656,-328 93.2656,-328 "/>
<text text-anchor="start" x="-49.2656" y="-312.8" font-family="Times,serif" font-size="14.00">create</text>
<text text-anchor="start" x="-49.2656" y="-298.8" font-family="Times,serif" font-size="14.00">delete_exp</text>
<text text-anchor="start" x="-49.2656" y="-284.8" font-family="Times,serif" font-size="14.00">destroy</text>
<text text-anchor="start" x="-49.2656" y="-270.8" font-family="Times,serif" font-size="14.00">edit</text>
<text text-anchor="start" x="-49.2656" y="-256.8" font-family="Times,serif" font-size="14.00">index</text>
<text text-anchor="start" x="-49.2656" y="-242.8" font-family="Times,serif" font-size="14.00">new</text>
<text text-anchor="start" x="-49.2656" y="-228.8" font-family="Times,serif" font-size="14.00">show</text>
<text text-anchor="start" x="-49.2656" y="-214.8" font-family="Times,serif" font-size="14.00">update</text>
<polyline fill="none" stroke="black" points="-57.2656,-208 93.2656,-208 "/>
<polyline fill="none" stroke="black" points="-57.2656,-184 93.2656,-184 "/>
<text text-anchor="start" x="-49.2656" y="-168.8" font-family="Times,serif" font-size="14.00">_layout</text>
<text text-anchor="start" x="-49.2656" y="-154.8" font-family="Times,serif" font-size="14.00">personal_info_params</text>
<text text-anchor="start" x="-49.2656" y="-140.8" font-family="Times,serif" font-size="14.00">set_personal_info</text>
</g>
<!-- PhotoLinksController -->
<g id="node13" class="node"><title>PhotoLinksController</title>
<path fill="none" stroke="black" d="M-254.055,265C-254.055,265 -139.945,265 -139.945,265 -133.945,265 -127.945,259 -127.945,253 -127.945,253 -127.945,75 -127.945,75 -127.945,69 -133.945,63 -139.945,63 -139.945,63 -254.055,63 -254.055,63 -260.055,63 -266.055,69 -266.055,75 -266.055,75 -266.055,253 -266.055,253 -266.055,259 -260.055,265 -254.055,265"/>
<text text-anchor="middle" x="-197" y="78.2" font-family="Times,serif" font-size="14.00">PhotoLinksController</text>
<polyline fill="none" stroke="black" points="-266.055,85 -127.945,85 "/>
<text text-anchor="start" x="-258.055" y="100.2" font-family="Times,serif" font-size="14.00">create</text>
<text text-anchor="start" x="-258.055" y="114.2" font-family="Times,serif" font-size="14.00">destroy</text>
<text text-anchor="start" x="-258.055" y="128.2" font-family="Times,serif" font-size="14.00">edit</text>
<text text-anchor="start" x="-258.055" y="142.2" font-family="Times,serif" font-size="14.00">index</text>
<text text-anchor="start" x="-258.055" y="156.2" font-family="Times,serif" font-size="14.00">new</text>
<text text-anchor="start" x="-258.055" y="170.2" font-family="Times,serif" font-size="14.00">show</text>
<text text-anchor="start" x="-258.055" y="184.2" font-family="Times,serif" font-size="14.00">update</text>
<polyline fill="none" stroke="black" points="-266.055,191 -127.945,191 "/>
<polyline fill="none" stroke="black" points="-266.055,215 -127.945,215 "/>
<text text-anchor="start" x="-258.055" y="230.2" font-family="Times,serif" font-size="14.00">_layout</text>
<text text-anchor="start" x="-258.055" y="244.2" font-family="Times,serif" font-size="14.00">photo_link_params</text>
<text text-anchor="start" x="-258.055" y="258.2" font-family="Times,serif" font-size="14.00">set_photo_link</text>
</g>
<!-- PhotosController -->
<g id="node14" class="node"><title>PhotosController</title>
<path fill="none" stroke="black" d="M-405.834,246C-405.834,246 -318.166,246 -318.166,246 -312.166,246 -306.166,240 -306.166,234 -306.166,234 -306.166,56 -306.166,56 -306.166,50 -312.166,44 -318.166,44 -318.166,44 -405.834,44 -405.834,44 -411.834,44 -417.834,50 -417.834,56 -417.834,56 -417.834,234 -417.834,234 -417.834,240 -411.834,246 -405.834,246"/>
<text text-anchor="middle" x="-362" y="59.2" font-family="Times,serif" font-size="14.00">PhotosController</text>
<polyline fill="none" stroke="black" points="-417.834,66 -306.166,66 "/>
<text text-anchor="start" x="-409.834" y="81.2" font-family="Times,serif" font-size="14.00">create</text>
<text text-anchor="start" x="-409.834" y="95.2" font-family="Times,serif" font-size="14.00">destroy</text>
<text text-anchor="start" x="-409.834" y="109.2" font-family="Times,serif" font-size="14.00">edit</text>
<text text-anchor="start" x="-409.834" y="123.2" font-family="Times,serif" font-size="14.00">index</text>
<text text-anchor="start" x="-409.834" y="137.2" font-family="Times,serif" font-size="14.00">new</text>
<text text-anchor="start" x="-409.834" y="151.2" font-family="Times,serif" font-size="14.00">show</text>
<text text-anchor="start" x="-409.834" y="165.2" font-family="Times,serif" font-size="14.00">update</text>
<polyline fill="none" stroke="black" points="-417.834,172 -306.166,172 "/>
<polyline fill="none" stroke="black" points="-417.834,196 -306.166,196 "/>
<text text-anchor="start" x="-409.834" y="211.2" font-family="Times,serif" font-size="14.00">_layout</text>
<text text-anchor="start" x="-409.834" y="225.2" font-family="Times,serif" font-size="14.00">photo_params</text>
<text text-anchor="start" x="-409.834" y="239.2" font-family="Times,serif" font-size="14.00">set_photo</text>
</g>
<!-- ProjectsController -->
<g id="node15" class="node"><title>ProjectsController</title>
<path fill="none" stroke="black" d="M87.6758,360C87.6758,360 182.324,360 182.324,360 188.324,360 194.324,354 194.324,348 194.324,348 194.324,170 194.324,170 194.324,164 188.324,158 182.324,158 182.324,158 87.6758,158 87.6758,158 81.6758,158 75.6758,164 75.6758,170 75.6758,170 75.6758,348 75.6758,348 75.6758,354 81.6758,360 87.6758,360"/>
<text text-anchor="middle" x="135" y="173.2" font-family="Times,serif" font-size="14.00">ProjectsController</text>
<polyline fill="none" stroke="black" points="75.6758,180 194.324,180 "/>
<text text-anchor="start" x="83.6758" y="195.2" font-family="Times,serif" font-size="14.00">create</text>
<text text-anchor="start" x="83.6758" y="209.2" font-family="Times,serif" font-size="14.00">destroy</text>
<text text-anchor="start" x="83.6758" y="223.2" font-family="Times,serif" font-size="14.00">edit</text>
<text text-anchor="start" x="83.6758" y="237.2" font-family="Times,serif" font-size="14.00">index</text>
<text text-anchor="start" x="83.6758" y="251.2" font-family="Times,serif" font-size="14.00">new</text>
<text text-anchor="start" x="83.6758" y="265.2" font-family="Times,serif" font-size="14.00">show</text>
<text text-anchor="start" x="83.6758" y="279.2" font-family="Times,serif" font-size="14.00">update</text>
<polyline fill="none" stroke="black" points="75.6758,286 194.324,286 "/>
<polyline fill="none" stroke="black" points="75.6758,310 194.324,310 "/>
<text text-anchor="start" x="83.6758" y="325.2" font-family="Times,serif" font-size="14.00">_layout</text>
<text text-anchor="start" x="83.6758" y="339.2" font-family="Times,serif" font-size="14.00">project_params</text>
<text text-anchor="start" x="83.6758" y="353.2" font-family="Times,serif" font-size="14.00">set_project</text>
</g>
<!-- RegistrationsController -->
<g id="node16" class="node"><title>RegistrationsController</title>
<path fill="none" stroke="black" d="M-405.638,-248C-405.638,-248 -278.362,-248 -278.362,-248 -272.362,-248 -266.362,-254 -266.362,-260 -266.362,-260 -266.362,-340 -266.362,-340 -266.362,-346 -272.362,-352 -278.362,-352 -278.362,-352 -405.638,-352 -405.638,-352 -411.638,-352 -417.638,-346 -417.638,-340 -417.638,-340 -417.638,-260 -417.638,-260 -417.638,-254 -411.638,-248 -405.638,-248"/>
<text text-anchor="middle" x="-342" y="-336.8" font-family="Times,serif" font-size="14.00">RegistrationsController</text>
<polyline fill="none" stroke="black" points="-417.638,-330 -266.362,-330 "/>
<polyline fill="none" stroke="black" points="-417.638,-306 -266.362,-306 "/>
<text text-anchor="start" x="-409.638" y="-290.8" font-family="Times,serif" font-size="14.00">account_update_params</text>
<text text-anchor="start" x="-409.638" y="-276.8" font-family="Times,serif" font-size="14.00">sign_up_params</text>
<polyline fill="none" stroke="black" points="-417.638,-270 -266.362,-270 "/>
<text text-anchor="start" x="-409.638" y="-254.8" font-family="Times,serif" font-size="14.00">_layout</text>
</g>
<!-- SchoolsController -->
<g id="node17" class="node"><title>SchoolsController</title>
<path fill="none" stroke="black" d="M183.059,-381C183.059,-381 276.941,-381 276.941,-381 282.941,-381 288.941,-387 288.941,-393 288.941,-393 288.941,-571 288.941,-571 288.941,-577 282.941,-583 276.941,-583 276.941,-583 183.059,-583 183.059,-583 177.059,-583 171.059,-577 171.059,-571 171.059,-571 171.059,-393 171.059,-393 171.059,-387 177.059,-381 183.059,-381"/>
<text text-anchor="middle" x="230" y="-567.8" font-family="Times,serif" font-size="14.00">SchoolsController</text>
<polyline fill="none" stroke="black" points="171.059,-561 288.941,-561 "/>
<text text-anchor="start" x="179.059" y="-545.8" font-family="Times,serif" font-size="14.00">create</text>
<text text-anchor="start" x="179.059" y="-531.8" font-family="Times,serif" font-size="14.00">destroy</text>
<text text-anchor="start" x="179.059" y="-517.8" font-family="Times,serif" font-size="14.00">edit</text>
<text text-anchor="start" x="179.059" y="-503.8" font-family="Times,serif" font-size="14.00">index</text>
<text text-anchor="start" x="179.059" y="-489.8" font-family="Times,serif" font-size="14.00">new</text>
<text text-anchor="start" x="179.059" y="-475.8" font-family="Times,serif" font-size="14.00">show</text>
<text text-anchor="start" x="179.059" y="-461.8" font-family="Times,serif" font-size="14.00">update</text>
<polyline fill="none" stroke="black" points="171.059,-455 288.941,-455 "/>
<polyline fill="none" stroke="black" points="171.059,-431 288.941,-431 "/>
<text text-anchor="start" x="179.059" y="-415.8" font-family="Times,serif" font-size="14.00">_layout</text>
<text text-anchor="start" x="179.059" y="-401.8" font-family="Times,serif" font-size="14.00">school_params</text>
<text text-anchor="start" x="179.059" y="-387.8" font-family="Times,serif" font-size="14.00">set_school</text>
</g>
<!-- ShowcasesController -->
<g id="node18" class="node"><title>ShowcasesController</title>
<path fill="none" stroke="black" d="M-83.4897,360C-83.4897,360 27.4897,360 27.4897,360 33.4897,360 39.4897,354 39.4897,348 39.4897,348 39.4897,170 39.4897,170 39.4897,164 33.4897,158 27.4897,158 27.4897,158 -83.4897,158 -83.4897,158 -89.4897,158 -95.4897,164 -95.4897,170 -95.4897,170 -95.4897,348 -95.4897,348 -95.4897,354 -89.4897,360 -83.4897,360"/>
<text text-anchor="middle" x="-28" y="173.2" font-family="Times,serif" font-size="14.00">ShowcasesController</text>
<polyline fill="none" stroke="black" points="-95.4897,180 39.4897,180 "/>
<text text-anchor="start" x="-87.4897" y="195.2" font-family="Times,serif" font-size="14.00">create</text>
<text text-anchor="start" x="-87.4897" y="209.2" font-family="Times,serif" font-size="14.00">destroy</text>
<text text-anchor="start" x="-87.4897" y="223.2" font-family="Times,serif" font-size="14.00">edit</text>
<text text-anchor="start" x="-87.4897" y="237.2" font-family="Times,serif" font-size="14.00">index</text>
<text text-anchor="start" x="-87.4897" y="251.2" font-family="Times,serif" font-size="14.00">new</text>
<text text-anchor="start" x="-87.4897" y="265.2" font-family="Times,serif" font-size="14.00">show</text>
<text text-anchor="start" x="-87.4897" y="279.2" font-family="Times,serif" font-size="14.00">update</text>
<polyline fill="none" stroke="black" points="-95.4897,286 39.4897,286 "/>
<polyline fill="none" stroke="black" points="-95.4897,310 39.4897,310 "/>
<text text-anchor="start" x="-87.4897" y="325.2" font-family="Times,serif" font-size="14.00">_layout</text>
<text text-anchor="start" x="-87.4897" y="339.2" font-family="Times,serif" font-size="14.00">set_showcase</text>
<text text-anchor="start" x="-87.4897" y="353.2" font-family="Times,serif" font-size="14.00">showcase_params</text>
</g>
<!-- SocialLinksController -->
<g id="node19" class="node"><title>SocialLinksController</title>
<path fill="none" stroke="black" d="M-216.214,-229C-216.214,-229 -99.7861,-229 -99.7861,-229 -93.7861,-229 -87.7861,-235 -87.7861,-241 -87.7861,-241 -87.7861,-419 -87.7861,-419 -87.7861,-425 -93.7861,-431 -99.7861,-431 -99.7861,-431 -216.214,-431 -216.214,-431 -222.214,-431 -228.214,-425 -228.214,-419 -228.214,-419 -228.214,-241 -228.214,-241 -228.214,-235 -222.214,-229 -216.214,-229"/>
<text text-anchor="middle" x="-158" y="-415.8" font-family="Times,serif" font-size="14.00">SocialLinksController</text>
<polyline fill="none" stroke="black" points="-228.214,-409 -87.7861,-409 "/>
<text text-anchor="start" x="-220.214" y="-393.8" font-family="Times,serif" font-size="14.00">create</text>
<text text-anchor="start" x="-220.214" y="-379.8" font-family="Times,serif" font-size="14.00">destroy</text>
<text text-anchor="start" x="-220.214" y="-365.8" font-family="Times,serif" font-size="14.00">edit</text>
<text text-anchor="start" x="-220.214" y="-351.8" font-family="Times,serif" font-size="14.00">index</text>
<text text-anchor="start" x="-220.214" y="-337.8" font-family="Times,serif" font-size="14.00">new</text>
<text text-anchor="start" x="-220.214" y="-323.8" font-family="Times,serif" font-size="14.00">show</text>
<text text-anchor="start" x="-220.214" y="-309.8" font-family="Times,serif" font-size="14.00">update</text>
<polyline fill="none" stroke="black" points="-228.214,-303 -87.7861,-303 "/>
<polyline fill="none" stroke="black" points="-228.214,-279 -87.7861,-279 "/>
<text text-anchor="start" x="-220.214" y="-263.8" font-family="Times,serif" font-size="14.00">_layout</text>
<text text-anchor="start" x="-220.214" y="-249.8" font-family="Times,serif" font-size="14.00">set_social_link</text>
<text text-anchor="start" x="-220.214" y="-235.8" font-family="Times,serif" font-size="14.00">social_link_params</text>
</g>
<!-- Users::RegistrationsController -->
<g id="node20" class="node"><title>Users::RegistrationsController</title>
<path fill="none" stroke="black" d="M468.455,75C468.455,75 631.545,75 631.545,75 637.545,75 643.545,69 643.545,63 643.545,63 643.545,-29 643.545,-29 643.545,-35 637.545,-41 631.545,-41 631.545,-41 468.455,-41 468.455,-41 462.455,-41 456.455,-35 456.455,-29 456.455,-29 456.455,63 456.455,63 456.455,69 462.455,75 468.455,75"/>
<text text-anchor="middle" x="550" y="-25.8" font-family="Times,serif" font-size="14.00">Users::RegistrationsController</text>
<polyline fill="none" stroke="black" points="456.455,-19 643.545,-19 "/>
<text text-anchor="start" x="464.455" y="-3.8" font-family="Times,serif" font-size="14.00">create</text>
<polyline fill="none" stroke="black" points="456.455,3 643.545,3 "/>
<text text-anchor="start" x="464.455" y="18.2" font-family="Times,serif" font-size="14.00">account_update_params</text>
<text text-anchor="start" x="464.455" y="32.2" font-family="Times,serif" font-size="14.00">after_sign_up_path_for</text>
<text text-anchor="start" x="464.455" y="46.2" font-family="Times,serif" font-size="14.00">sign_up_params</text>
<polyline fill="none" stroke="black" points="456.455,53 643.545,53 "/>
<text text-anchor="start" x="464.455" y="68.2" font-family="Times,serif" font-size="14.00">_layout</text>
</g>
<!-- UsersController -->
<g id="node21" class="node"><title>UsersController</title>
<path fill="none" stroke="black" d="M335.286,75C335.286,75 416.714,75 416.714,75 422.714,75 428.714,69 428.714,63 428.714,63 428.714,-129 428.714,-129 428.714,-135 422.714,-141 416.714,-141 416.714,-141 335.286,-141 335.286,-141 329.286,-141 323.286,-135 323.286,-129 323.286,-129 323.286,63 323.286,63 323.286,69 329.286,75 335.286,75"/>
<text text-anchor="middle" x="376" y="-125.8" font-family="Times,serif" font-size="14.00">UsersController</text>
<polyline fill="none" stroke="black" points="323.286,-119 428.714,-119 "/>
<text text-anchor="start" x="331.286" y="-103.8" font-family="Times,serif" font-size="14.00">create</text>
<text text-anchor="start" x="331.286" y="-89.8" font-family="Times,serif" font-size="14.00">destroy</text>
<text text-anchor="start" x="331.286" y="-75.8" font-family="Times,serif" font-size="14.00">edit</text>
<text text-anchor="start" x="331.286" y="-61.8" font-family="Times,serif" font-size="14.00">index</text>
<text text-anchor="start" x="331.286" y="-47.8" font-family="Times,serif" font-size="14.00">new</text>
<text text-anchor="start" x="331.286" y="-33.8" font-family="Times,serif" font-size="14.00">show</text>
<text text-anchor="start" x="331.286" y="-19.8" font-family="Times,serif" font-size="14.00">update</text>
<polyline fill="none" stroke="black" points="323.286,-13 428.714,-13 "/>
<polyline fill="none" stroke="black" points="323.286,11 428.714,11 "/>
<text text-anchor="start" x="331.286" y="26.2" font-family="Times,serif" font-size="14.00">_layout</text>
<text text-anchor="start" x="331.286" y="40.2" font-family="Times,serif" font-size="14.00">set_user</text>
<text text-anchor="start" x="331.286" y="54.2" font-family="Times,serif" font-size="14.00">user_params</text>
<text text-anchor="start" x="331.286" y="68.2" font-family="Times,serif" font-size="14.00">verify_email</text>
</g>
<!-- WebsiteSettingsController -->
<g id="node22" class="node"><title>WebsiteSettingsController</title>
<path fill="none" stroke="black" d="M-82.7085,113C-82.7085,113 56.7085,113 56.7085,113 62.7085,113 68.7085,107 68.7085,101 68.7085,101 68.7085,-77 68.7085,-77 68.7085,-83 62.7085,-89 56.7085,-89 56.7085,-89 -82.7085,-89 -82.7085,-89 -88.7085,-89 -94.7085,-83 -94.7085,-77 -94.7085,-77 -94.7085,101 -94.7085,101 -94.7085,107 -88.7085,113 -82.7085,113"/>
<text text-anchor="middle" x="-13" y="-73.8" font-family="Times,serif" font-size="14.00">WebsiteSettingsController</text>
<polyline fill="none" stroke="black" points="-94.7085,-67 68.7085,-67 "/>
<text text-anchor="start" x="-86.7085" y="-51.8" font-family="Times,serif" font-size="14.00">create</text>
<text text-anchor="start" x="-86.7085" y="-37.8" font-family="Times,serif" font-size="14.00">destroy</text>
<text text-anchor="start" x="-86.7085" y="-23.8" font-family="Times,serif" font-size="14.00">edit</text>
<text text-anchor="start" x="-86.7085" y="-9.8" font-family="Times,serif" font-size="14.00">index</text>
<text text-anchor="start" x="-86.7085" y="4.2" font-family="Times,serif" font-size="14.00">new</text>
<text text-anchor="start" x="-86.7085" y="18.2" font-family="Times,serif" font-size="14.00">show</text>
<text text-anchor="start" x="-86.7085" y="32.2" font-family="Times,serif" font-size="14.00">update</text>
<polyline fill="none" stroke="black" points="-94.7085,39 68.7085,39 "/>
<polyline fill="none" stroke="black" points="-94.7085,63 68.7085,63 "/>
<text text-anchor="start" x="-86.7085" y="78.2" font-family="Times,serif" font-size="14.00">_layout</text>
<text text-anchor="start" x="-86.7085" y="92.2" font-family="Times,serif" font-size="14.00">set_website_setting</text>
<text text-anchor="start" x="-86.7085" y="106.2" font-family="Times,serif" font-size="14.00">website_setting_params</text>
</g>
</g>
</svg>
