<?xml version="1.0" encoding="UTF-8" standalone="no"?>
<!DOCTYPE svg PUBLIC "-//W3C//DTD SVG 1.1//EN"
 "http://www.w3.org/Graphics/SVG/1.1/DTD/svg11.dtd">
<!-- Generated by graphviz version 2.38.0 (20140413.2041)
 -->
<!-- Title: controllers_diagram Pages: 1 -->
<svg width="1090pt" height="1066pt"
 viewBox="0.00 0.00 1090.47 1066.00" xmlns="http://www.w3.org/2000/svg" xmlns:xlink="http://www.w3.org/1999/xlink">
<g id="graph0" class="graph" transform="scale(1 1) rotate(0) translate(459.834 587.5)">
<title>controllers_diagram</title>
<polygon fill="none" stroke="none" points="-459.834,478.5 -459.834,-587.5 630.638,-587.5 630.638,478.5 -459.834,478.5"/>
<!-- _diagram_info -->
<g id="node1" class="node"><title>_diagram_info</title>
<text text-anchor="start" x="8.31226" y="415.9" font-family="Times,serif" font-size="13.00">Controllers diagram</text>
<text text-anchor="start" x="8.31226" y="428.9" font-family="Times,serif" font-size="13.00">Date: Jun 22 2016 &#45; 17:33</text>
<text text-anchor="start" x="8.31226" y="441.9" font-family="Times,serif" font-size="13.00">Migration version: 20160622213323</text>
<text text-anchor="start" x="8.31226" y="454.9" font-family="Times,serif" font-size="13.00">Generated by RailRoady 1.3.1</text>
<text text-anchor="start" x="8.31226" y="467.9" font-family="Times,serif" font-size="13.00">http://railroady.prestonlee.com</text>
</g>
<!-- Admins::RegistrationsController -->
<g id="node2" class="node"><title>Admins::RegistrationsController</title>
<path fill="none" stroke="black" d="M-424.772,436C-424.772,436 -249.228,436 -249.228,436 -243.228,436 -237.228,430 -237.228,424 -237.228,424 -237.228,344 -237.228,344 -237.228,338 -243.228,332 -249.228,332 -249.228,332 -424.772,332 -424.772,332 -430.772,332 -436.772,338 -436.772,344 -436.772,344 -436.772,424 -436.772,424 -436.772,430 -430.772,436 -424.772,436"/>
<text text-anchor="middle" x="-337" y="347.2" font-family="Times,serif" font-size="14.00">Admins::RegistrationsController</text>
<polyline fill="none" stroke="black" points="-436.772,354 -237.228,354 "/>
<polyline fill="none" stroke="black" points="-436.772,378 -237.228,378 "/>
<text text-anchor="start" x="-428.772" y="393.2" font-family="Times,serif" font-size="14.00">after_sign_up_path_for</text>
<text text-anchor="start" x="-428.772" y="407.2" font-family="Times,serif" font-size="14.00">sign_up</text>
<polyline fill="none" stroke="black" points="-436.772,414 -237.228,414 "/>
<text text-anchor="start" x="-428.772" y="429.2" font-family="Times,serif" font-size="14.00">_layout</text>
</g>
<!-- AdminsController -->
<g id="node3" class="node"><title>AdminsController</title>
<path fill="none" stroke="black" d="M183.059,360C183.059,360 276.941,360 276.941,360 282.941,360 288.941,354 288.941,348 288.941,348 288.941,170 288.941,170 288.941,164 282.941,158 276.941,158 276.941,158 183.059,158 183.059,158 177.059,158 171.059,164 171.059,170 171.059,170 171.059,348 171.059,348 171.059,354 177.059,360 183.059,360"/>
<text text-anchor="middle" x="230" y="173.2" font-family="Times,serif" font-size="14.00">AdminsController</text>
<polyline fill="none" stroke="black" points="171.059,180 288.941,180 "/>
<text text-anchor="start" x="179.059" y="195.2" font-family="Times,serif" font-size="14.00">create</text>
<text text-anchor="start" x="179.059" y="209.2" font-family="Times,serif" font-size="14.00">destroy</text>
<text text-anchor="start" x="179.059" y="223.2" font-family="Times,serif" font-size="14.00">edit</text>
<text text-anchor="start" x="179.059" y="237.2" font-family="Times,serif" font-size="14.00">index</text>
<text text-anchor="start" x="179.059" y="251.2" font-family="Times,serif" font-size="14.00">new</text>
<text text-anchor="start" x="179.059" y="265.2" font-family="Times,serif" font-size="14.00">show</text>
<text text-anchor="start" x="179.059" y="279.2" font-family="Times,serif" font-size="14.00">update</text>
<polyline fill="none" stroke="black" points="171.059,286 288.941,286 "/>
<polyline fill="none" stroke="black" points="171.059,310 288.941,310 "/>
<text text-anchor="start" x="179.059" y="325.2" font-family="Times,serif" font-size="14.00">_layout</text>
<text text-anchor="start" x="179.059" y="339.2" font-family="Times,serif" font-size="14.00">admin_params</text>
<text text-anchor="start" x="179.059" y="353.2" font-family="Times,serif" font-size="14.00">set_admin</text>
</g>
<!-- AnalyticsController -->
<g id="node4" class="node"><title>AnalyticsController</title>
<path fill="none" stroke="black" d="M335.4,75C335.4,75 438.6,75 438.6,75 444.6,75 450.6,69 450.6,63 450.6,63 450.6,-115 450.6,-115 450.6,-121 444.6,-127 438.6,-127 438.6,-127 335.4,-127 335.4,-127 329.4,-127 323.4,-121 323.4,-115 323.4,-115 323.4,63 323.4,63 323.4,69 329.4,75 335.4,75"/>
<text text-anchor="middle" x="387" y="-111.8" font-family="Times,serif" font-size="14.00">AnalyticsController</text>
<polyline fill="none" stroke="black" points="323.4,-105 450.6,-105 "/>
<text text-anchor="start" x="331.4" y="-89.8" font-family="Times,serif" font-size="14.00">create</text>
<text text-anchor="start" x="331.4" y="-75.8" font-family="Times,serif" font-size="14.00">destroy</text>
<text text-anchor="start" x="331.4" y="-61.8" font-family="Times,serif" font-size="14.00">edit</text>
<text text-anchor="start" x="331.4" y="-47.8" font-family="Times,serif" font-size="14.00">index</text>
<text text-anchor="start" x="331.4" y="-33.8" font-family="Times,serif" font-size="14.00">new</text>
<text text-anchor="start" x="331.4" y="-19.8" font-family="Times,serif" font-size="14.00">show</text>
<text text-anchor="start" x="331.4" y="-5.8" font-family="Times,serif" font-size="14.00">update</text>
<polyline fill="none" stroke="black" points="323.4,1 450.6,1 "/>
<polyline fill="none" stroke="black" points="323.4,25 450.6,25 "/>
<text text-anchor="start" x="331.4" y="40.2" font-family="Times,serif" font-size="14.00">_layout</text>
<text text-anchor="start" x="331.4" y="54.2" font-family="Times,serif" font-size="14.00">analytic_params</text>
<text text-anchor="start" x="331.4" y="68.2" font-family="Times,serif" font-size="14.00">set_analytic</text>
</g>
<!-- ApplicationController -->
<g id="node5" class="node"><title>ApplicationController</title>
<path fill="none" stroke="black" d="M487.362,-172C487.362,-172 614.638,-172 614.638,-172 620.638,-172 626.638,-178 626.638,-184 626.638,-184 626.638,-318 626.638,-318 626.638,-324 620.638,-330 614.638,-330 614.638,-330 487.362,-330 487.362,-330 481.362,-330 475.362,-324 475.362,-318 475.362,-318 475.362,-184 475.362,-184 475.362,-178 481.362,-172 487.362,-172"/>
<text text-anchor="middle" x="551" y="-314.8" font-family="Times,serif" font-size="14.00">ApplicationController</text>
<polyline fill="none" stroke="black" points="475.362,-308 626.638,-308 "/>
<text text-anchor="start" x="483.362" y="-292.8" font-family="Times,serif" font-size="14.00">authenticate_person!</text>
<text text-anchor="start" x="483.362" y="-278.8" font-family="Times,serif" font-size="14.00">current_people</text>
<text text-anchor="start" x="483.362" y="-264.8" font-family="Times,serif" font-size="14.00">current_person</text>
<text text-anchor="start" x="483.362" y="-250.8" font-family="Times,serif" font-size="14.00">person_signed_in?</text>
<polyline fill="none" stroke="black" points="475.362,-244 626.638,-244 "/>
<text text-anchor="start" x="483.362" y="-228.8" font-family="Times,serif" font-size="14.00">account_update_params</text>
<text text-anchor="start" x="483.362" y="-214.8" font-family="Times,serif" font-size="14.00">after_sign_in_path_for</text>
<text text-anchor="start" x="483.362" y="-200.8" font-family="Times,serif" font-size="14.00">current_ability</text>
<polyline fill="none" stroke="black" points="475.362,-194 626.638,-194 "/>
<text text-anchor="start" x="483.362" y="-178.8" font-family="Times,serif" font-size="14.00">_layout</text>
</g>
<!-- ArticlesController -->
<g id="node6" class="node"><title>ArticlesController</title>
<path fill="none" stroke="black" d="M335.069,-172C335.069,-172 428.931,-172 428.931,-172 434.931,-172 440.931,-178 440.931,-184 440.931,-184 440.931,-362 440.931,-362 440.931,-368 434.931,-374 428.931,-374 428.931,-374 335.069,-374 335.069,-374 329.069,-374 323.069,-368 323.069,-362 323.069,-362 323.069,-184 323.069,-184 323.069,-178 329.069,-172 335.069,-172"/>
<text text-anchor="middle" x="382" y="-358.8" font-family="Times,serif" font-size="14.00">ArticlesController</text>
<polyline fill="none" stroke="black" points="323.069,-352 440.931,-352 "/>
<text text-anchor="start" x="331.069" y="-336.8" font-family="Times,serif" font-size="14.00">create</text>
<text text-anchor="start" x="331.069" y="-322.8" font-family="Times,serif" font-size="14.00">destroy</text>
<text text-anchor="start" x="331.069" y="-308.8" font-family="Times,serif" font-size="14.00">edit</text>
<text text-anchor="start" x="331.069" y="-294.8" font-family="Times,serif" font-size="14.00">index</text>
<text text-anchor="start" x="331.069" y="-280.8" font-family="Times,serif" font-size="14.00">new</text>
<text text-anchor="start" x="331.069" y="-266.8" font-family="Times,serif" font-size="14.00">show</text>
<text text-anchor="start" x="331.069" y="-252.8" font-family="Times,serif" font-size="14.00">update</text>
<polyline fill="none" stroke="black" points="323.069,-246 440.931,-246 "/>
<polyline fill="none" stroke="black" points="323.069,-222 440.931,-222 "/>
<text text-anchor="start" x="331.069" y="-206.8" font-family="Times,serif" font-size="14.00">_layout</text>
<text text-anchor="start" x="331.069" y="-192.8" font-family="Times,serif" font-size="14.00">article_params</text>
<text text-anchor="start" x="331.069" y="-178.8" font-family="Times,serif" font-size="14.00">set_article</text>
</g>
<!-- BackgroundInfosController -->
<g id="node7" class="node"><title>BackgroundInfosController</title>
<path fill="none" stroke="black" d="M125.627,113C125.627,113 272.373,113 272.373,113 278.373,113 284.373,107 284.373,101 284.373,101 284.373,-77 284.373,-77 284.373,-83 278.373,-89 272.373,-89 272.373,-89 125.627,-89 125.627,-89 119.627,-89 113.627,-83 113.627,-77 113.627,-77 113.627,101 113.627,101 113.627,107 119.627,113 125.627,113"/>
<text text-anchor="middle" x="199" y="-73.8" font-family="Times,serif" font-size="14.00">BackgroundInfosController</text>
<polyline fill="none" stroke="black" points="113.627,-67 284.373,-67 "/>
<text text-anchor="start" x="121.627" y="-51.8" font-family="Times,serif" font-size="14.00">create</text>
<text text-anchor="start" x="121.627" y="-37.8" font-family="Times,serif" font-size="14.00">destroy</text>
<text text-anchor="start" x="121.627" y="-23.8" font-family="Times,serif" font-size="14.00">edit</text>
<text text-anchor="start" x="121.627" y="-9.8" font-family="Times,serif" font-size="14.00">index</text>
<text text-anchor="start" x="121.627" y="4.2" font-family="Times,serif" font-size="14.00">new</text>
<text text-anchor="start" x="121.627" y="18.2" font-family="Times,serif" font-size="14.00">show</text>
<text text-anchor="start" x="121.627" y="32.2" font-family="Times,serif" font-size="14.00">update</text>
<polyline fill="none" stroke="black" points="113.627,39 284.373,39 "/>
<polyline fill="none" stroke="black" points="113.627,63 284.373,63 "/>
<text text-anchor="start" x="121.627" y="78.2" font-family="Times,serif" font-size="14.00">_layout</text>
<text text-anchor="start" x="121.627" y="92.2" font-family="Times,serif" font-size="14.00">background_info_params</text>
<text text-anchor="start" x="121.627" y="106.2" font-family="Times,serif" font-size="14.00">set_background_info</text>
</g>
<!-- Clerks::RegistrationsController -->
<g id="node8" class="node"><title>Clerks::RegistrationsController</title>
<path fill="none" stroke="black" d="M430.121,-419C430.121,-419 597.879,-419 597.879,-419 603.879,-419 609.879,-425 609.879,-431 609.879,-431 609.879,-539 609.879,-539 609.879,-545 603.879,-551 597.879,-551 597.879,-551 430.121,-551 430.121,-551 424.121,-551 418.121,-545 418.121,-539 418.121,-539 418.121,-431 418.121,-431 418.121,-425 424.121,-419 430.121,-419"/>
<text text-anchor="middle" x="514" y="-535.8" font-family="Times,serif" font-size="14.00">Clerks::RegistrationsController</text>
<polyline fill="none" stroke="black" points="418.121,-529 609.879,-529 "/>
<polyline fill="none" stroke="black" points="418.121,-505 609.879,-505 "/>
<text text-anchor="start" x="426.121" y="-489.8" font-family="Times,serif" font-size="14.00">account_update_params</text>
<text text-anchor="start" x="426.121" y="-475.8" font-family="Times,serif" font-size="14.00">after_sign_up_path_for</text>
<text text-anchor="start" x="426.121" y="-461.8" font-family="Times,serif" font-size="14.00">sign_up</text>
<text text-anchor="start" x="426.121" y="-447.8" font-family="Times,serif" font-size="14.00">sign_up_params</text>
<polyline fill="none" stroke="black" points="418.121,-441 609.879,-441 "/>
<text text-anchor="start" x="426.121" y="-425.8" font-family="Times,serif" font-size="14.00">_layout</text>
</g>
<!-- ClerksController -->
<g id="node9" class="node"><title>ClerksController</title>
<path fill="none" stroke="black" d="M-406.048,-1C-406.048,-1 -319.952,-1 -319.952,-1 -313.952,-1 -307.952,-7 -307.952,-13 -307.952,-13 -307.952,-191 -307.952,-191 -307.952,-197 -313.952,-203 -319.952,-203 -319.952,-203 -406.048,-203 -406.048,-203 -412.048,-203 -418.048,-197 -418.048,-191 -418.048,-191 -418.048,-13 -418.048,-13 -418.048,-7 -412.048,-1 -406.048,-1"/>
<text text-anchor="middle" x="-363" y="-187.8" font-family="Times,serif" font-size="14.00">ClerksController</text>
<polyline fill="none" stroke="black" points="-418.048,-181 -307.952,-181 "/>
<text text-anchor="start" x="-410.048" y="-165.8" font-family="Times,serif" font-size="14.00">create</text>
<text text-anchor="start" x="-410.048" y="-151.8" font-family="Times,serif" font-size="14.00">destroy</text>
<text text-anchor="start" x="-410.048" y="-137.8" font-family="Times,serif" font-size="14.00">edit</text>
<text text-anchor="start" x="-410.048" y="-123.8" font-family="Times,serif" font-size="14.00">index</text>
<text text-anchor="start" x="-410.048" y="-109.8" font-family="Times,serif" font-size="14.00">new</text>
<text text-anchor="start" x="-410.048" y="-95.8" font-family="Times,serif" font-size="14.00">show</text>
<text text-anchor="start" x="-410.048" y="-81.8" font-family="Times,serif" font-size="14.00">update</text>
<polyline fill="none" stroke="black" points="-418.048,-75 -307.952,-75 "/>
<polyline fill="none" stroke="black" points="-418.048,-51 -307.952,-51 "/>
<text text-anchor="start" x="-410.048" y="-35.8" font-family="Times,serif" font-size="14.00">_layout</text>
<text text-anchor="start" x="-410.048" y="-21.8" font-family="Times,serif" font-size="14.00">clerk_params</text>
<text text-anchor="start" x="-410.048" y="-7.8" font-family="Times,serif" font-size="14.00">set_clerk</text>
</g>
<!-- DemosController -->
<g id="node10" class="node"><title>DemosController</title>
<path fill="none" stroke="black" d="M12.3965,-381C12.3965,-381 101.604,-381 101.604,-381 107.604,-381 113.604,-387 113.604,-393 113.604,-393 113.604,-571 113.604,-571 113.604,-577 107.604,-583 101.604,-583 101.604,-583 12.3965,-583 12.3965,-583 6.39648,-583 0.396484,-577 0.396484,-571 0.396484,-571 0.396484,-393 0.396484,-393 0.396484,-387 6.39648,-381 12.3965,-381"/>
<text text-anchor="middle" x="57" y="-567.8" font-family="Times,serif" font-size="14.00">DemosController</text>
<polyline fill="none" stroke="black" points="0.396484,-561 113.604,-561 "/>
<text text-anchor="start" x="8.39648" y="-545.8" font-family="Times,serif" font-size="14.00">create</text>
<text text-anchor="start" x="8.39648" y="-531.8" font-family="Times,serif" font-size="14.00">destroy</text>
<text text-anchor="start" x="8.39648" y="-517.8" font-family="Times,serif" font-size="14.00">edit</text>
<text text-anchor="start" x="8.39648" y="-503.8" font-family="Times,serif" font-size="14.00">index</text>
<text text-anchor="start" x="8.39648" y="-489.8" font-family="Times,serif" font-size="14.00">new</text>
<text text-anchor="start" x="8.39648" y="-475.8" font-family="Times,serif" font-size="14.00">show</text>
<text text-anchor="start" x="8.39648" y="-461.8" font-family="Times,serif" font-size="14.00">update</text>
<polyline fill="none" stroke="black" points="0.396484,-455 113.604,-455 "/>
<polyline fill="none" stroke="black" points="0.396484,-431 113.604,-431 "/>
<text text-anchor="start" x="8.39648" y="-415.8" font-family="Times,serif" font-size="14.00">_layout</text>
<text text-anchor="start" x="8.39648" y="-401.8" font-family="Times,serif" font-size="14.00">demo_params</text>
<text text-anchor="start" x="8.39648" y="-387.8" font-family="Times,serif" font-size="14.00">set_demo</text>
</g>
<!-- DomainsController -->
<g id="node11" class="node"><title>DomainsController</title>
<path fill="none" stroke="black" d="M-330.048,-343C-330.048,-343 -229.952,-343 -229.952,-343 -223.952,-343 -217.952,-349 -217.952,-355 -217.952,-355 -217.952,-533 -217.952,-533 -217.952,-539 -223.952,-545 -229.952,-545 -229.952,-545 -330.048,-545 -330.048,-545 -336.048,-545 -342.048,-539 -342.048,-533 -342.048,-533 -342.048,-355 -342.048,-355 -342.048,-349 -336.048,-343 -330.048,-343"/>
<text text-anchor="middle" x="-280" y="-529.8" font-family="Times,serif" font-size="14.00">DomainsController</text>
<polyline fill="none" stroke="black" points="-342.048,-523 -217.952,-523 "/>
<text text-anchor="start" x="-334.048" y="-507.8" font-family="Times,serif" font-size="14.00">create</text>
<text text-anchor="start" x="-334.048" y="-493.8" font-family="Times,serif" font-size="14.00">destroy</text>
<text text-anchor="start" x="-334.048" y="-479.8" font-family="Times,serif" font-size="14.00">edit</text>
<text text-anchor="start" x="-334.048" y="-465.8" font-family="Times,serif" font-size="14.00">index</text>
<text text-anchor="start" x="-334.048" y="-451.8" font-family="Times,serif" font-size="14.00">new</text>
<text text-anchor="start" x="-334.048" y="-437.8" font-family="Times,serif" font-size="14.00">show</text>
<text text-anchor="start" x="-334.048" y="-423.8" font-family="Times,serif" font-size="14.00">update</text>
<polyline fill="none" stroke="black" points="-342.048,-417 -217.952,-417 "/>
<polyline fill="none" stroke="black" points="-342.048,-393 -217.952,-393 "/>
<text text-anchor="start" x="-334.048" y="-377.8" font-family="Times,serif" font-size="14.00">_layout</text>
<text text-anchor="start" x="-334.048" y="-363.8" font-family="Times,serif" font-size="14.00">domain_params</text>
<text text-anchor="start" x="-334.048" y="-349.8" font-family="Times,serif" font-size="14.00">set_domain</text>
</g>
<!-- ExperiencesController -->
<g id="node12" class="node"><title>ExperiencesController</title>
<path fill="none" stroke="black" d="M-253.976,56C-253.976,56 -136.024,56 -136.024,56 -130.024,56 -124.024,50 -124.024,44 -124.024,44 -124.024,-134 -124.024,-134 -124.024,-140 -130.024,-146 -136.024,-146 -136.024,-146 -253.976,-146 -253.976,-146 -259.976,-146 -265.976,-140 -265.976,-134 -265.976,-134 -265.976,44 -265.976,44 -265.976,50 -259.976,56 -253.976,56"/>
<text text-anchor="middle" x="-195" y="-130.8" font-family="Times,serif" font-size="14.00">ExperiencesController</text>
<polyline fill="none" stroke="black" points="-265.976,-124 -124.024,-124 "/>
<text text-anchor="start" x="-257.976" y="-108.8" font-family="Times,serif" font-size="14.00">create</text>
<text text-anchor="start" x="-257.976" y="-94.8" font-family="Times,serif" font-size="14.00">destroy</text>
<text text-anchor="start" x="-257.976" y="-80.8" font-family="Times,serif" font-size="14.00">edit</text>
<text text-anchor="start" x="-257.976" y="-66.8" font-family="Times,serif" font-size="14.00">index</text>
<text text-anchor="start" x="-257.976" y="-52.8" font-family="Times,serif" font-size="14.00">new</text>
<text text-anchor="start" x="-257.976" y="-38.8" font-family="Times,serif" font-size="14.00">show</text>
<text text-anchor="start" x="-257.976" y="-24.8" font-family="Times,serif" font-size="14.00">update</text>
<polyline fill="none" stroke="black" points="-265.976,-18 -124.024,-18 "/>
<polyline fill="none" stroke="black" points="-265.976,6 -124.024,6 "/>
<text text-anchor="start" x="-257.976" y="21.2" font-family="Times,serif" font-size="14.00">_layout</text>
<text text-anchor="start" x="-257.976" y="35.2" font-family="Times,serif" font-size="14.00">experience_params</text>
<text text-anchor="start" x="-257.976" y="49.2" font-family="Times,serif" font-size="14.00">set_experience</text>
</g>
<!-- HomepageInfosController -->
<g id="node13" class="node"><title>HomepageInfosController</title>
<path fill="none" stroke="black" d="M144.521,-134C144.521,-134 283.479,-134 283.479,-134 289.479,-134 295.479,-140 295.479,-146 295.479,-146 295.479,-324 295.479,-324 295.479,-330 289.479,-336 283.479,-336 283.479,-336 144.521,-336 144.521,-336 138.521,-336 132.521,-330 132.521,-324 132.521,-324 132.521,-146 132.521,-146 132.521,-140 138.521,-134 144.521,-134"/>
<text text-anchor="middle" x="214" y="-320.8" font-family="Times,serif" font-size="14.00">HomepageInfosController</text>
<polyline fill="none" stroke="black" points="132.521,-314 295.479,-314 "/>
<text text-anchor="start" x="140.521" y="-298.8" font-family="Times,serif" font-size="14.00">create</text>
<text text-anchor="start" x="140.521" y="-284.8" font-family="Times,serif" font-size="14.00">destroy</text>
<text text-anchor="start" x="140.521" y="-270.8" font-family="Times,serif" font-size="14.00">edit</text>
<text text-anchor="start" x="140.521" y="-256.8" font-family="Times,serif" font-size="14.00">index</text>
<text text-anchor="start" x="140.521" y="-242.8" font-family="Times,serif" font-size="14.00">new</text>
<text text-anchor="start" x="140.521" y="-228.8" font-family="Times,serif" font-size="14.00">show</text>
<text text-anchor="start" x="140.521" y="-214.8" font-family="Times,serif" font-size="14.00">update</text>
<polyline fill="none" stroke="black" points="132.521,-208 295.479,-208 "/>
<polyline fill="none" stroke="black" points="132.521,-184 295.479,-184 "/>
<text text-anchor="start" x="140.521" y="-168.8" font-family="Times,serif" font-size="14.00">_layout</text>
<text text-anchor="start" x="140.521" y="-154.8" font-family="Times,serif" font-size="14.00">homepage_info_params</text>
<text text-anchor="start" x="140.521" y="-140.8" font-family="Times,serif" font-size="14.00">set_homepage_info</text>
</g>
<!-- PersonalInfosController -->
<g id="node14" class="node"><title>PersonalInfosController</title>
<path fill="none" stroke="black" d="M-45.2656,-134C-45.2656,-134 81.2656,-134 81.2656,-134 87.2656,-134 93.2656,-140 93.2656,-146 93.2656,-146 93.2656,-338 93.2656,-338 93.2656,-344 87.2656,-350 81.2656,-350 81.2656,-350 -45.2656,-350 -45.2656,-350 -51.2656,-350 -57.2656,-344 -57.2656,-338 -57.2656,-338 -57.2656,-146 -57.2656,-146 -57.2656,-140 -51.2656,-134 -45.2656,-134"/>
<text text-anchor="middle" x="18" y="-334.8" font-family="Times,serif" font-size="14.00">PersonalInfosController</text>
<polyline fill="none" stroke="black" points="-57.2656,-328 93.2656,-328 "/>
<text text-anchor="start" x="-49.2656" y="-312.8" font-family="Times,serif" font-size="14.00">create</text>
<text text-anchor="start" x="-49.2656" y="-298.8" font-family="Times,serif" font-size="14.00">delete_exp</text>
<text text-anchor="start" x="-49.2656" y="-284.8" font-family="Times,serif" font-size="14.00">destroy</text>
<text text-anchor="start" x="-49.2656" y="-270.8" font-family="Times,serif" font-size="14.00">edit</text>
<text text-anchor="start" x="-49.2656" y="-256.8" font-family="Times,serif" font-size="14.00">index</text>
<text text-anchor="start" x="-49.2656" y="-242.8" font-family="Times,serif" font-size="14.00">new</text>
<text text-anchor="start" x="-49.2656" y="-228.8" font-family="Times,serif" font-size="14.00">show</text>
<text text-anchor="start" x="-49.2656" y="-214.8" font-family="Times,serif" font-size="14.00">update</text>
<polyline fill="none" stroke="black" points="-57.2656,-208 93.2656,-208 "/>
<polyline fill="none" stroke="black" points="-57.2656,-184 93.2656,-184 "/>
<text text-anchor="start" x="-49.2656" y="-168.8" font-family="Times,serif" font-size="14.00">_layout</text>
<text text-anchor="start" x="-49.2656" y="-154.8" font-family="Times,serif" font-size="14.00">personal_info_params</text>
<text text-anchor="start" x="-49.2656" y="-140.8" font-family="Times,serif" font-size="14.00">set_personal_info</text>
</g>
<!-- PhotoLinksController -->
<g id="node15" class="node"><title>PhotoLinksController</title>
<path fill="none" stroke="black" d="M334.945,322C334.945,322 449.055,322 449.055,322 455.055,322 461.055,316 461.055,310 461.055,310 461.055,132 461.055,132 461.055,126 455.055,120 449.055,120 449.055,120 334.945,120 334.945,120 328.945,120 322.945,126 322.945,132 322.945,132 322.945,310 322.945,310 322.945,316 328.945,322 334.945,322"/>
<text text-anchor="middle" x="392" y="135.2" font-family="Times,serif" font-size="14.00">PhotoLinksController</text>
<polyline fill="none" stroke="black" points="322.945,142 461.055,142 "/>
<text text-anchor="start" x="330.945" y="157.2" font-family="Times,serif" font-size="14.00">create</text>
<text text-anchor="start" x="330.945" y="171.2" font-family="Times,serif" font-size="14.00">destroy</text>
<text text-anchor="start" x="330.945" y="185.2" font-family="Times,serif" font-size="14.00">edit</text>
<text text-anchor="start" x="330.945" y="199.2" font-family="Times,serif" font-size="14.00">index</text>
<text text-anchor="start" x="330.945" y="213.2" font-family="Times,serif" font-size="14.00">new</text>
<text text-anchor="start" x="330.945" y="227.2" font-family="Times,serif" font-size="14.00">show</text>
<text text-anchor="start" x="330.945" y="241.2" font-family="Times,serif" font-size="14.00">update</text>
<polyline fill="none" stroke="black" points="322.945,248 461.055,248 "/>
<polyline fill="none" stroke="black" points="322.945,272 461.055,272 "/>
<text text-anchor="start" x="330.945" y="287.2" font-family="Times,serif" font-size="14.00">_layout</text>
<text text-anchor="start" x="330.945" y="301.2" font-family="Times,serif" font-size="14.00">photo_link_params</text>
<text text-anchor="start" x="330.945" y="315.2" font-family="Times,serif" font-size="14.00">set_photo_link</text>
</g>
<!-- PhotosController -->
<g id="node16" class="node"><title>PhotosController</title>
<path fill="none" stroke="black" d="M-443.834,246C-443.834,246 -356.166,246 -356.166,246 -350.166,246 -344.166,240 -344.166,234 -344.166,234 -344.166,56 -344.166,56 -344.166,50 -350.166,44 -356.166,44 -356.166,44 -443.834,44 -443.834,44 -449.834,44 -455.834,50 -455.834,56 -455.834,56 -455.834,234 -455.834,234 -455.834,240 -449.834,246 -443.834,246"/>
<text text-anchor="middle" x="-400" y="59.2" font-family="Times,serif" font-size="14.00">PhotosController</text>
<polyline fill="none" stroke="black" points="-455.834,66 -344.166,66 "/>
<text text-anchor="start" x="-447.834" y="81.2" font-family="Times,serif" font-size="14.00">create</text>
<text text-anchor="start" x="-447.834" y="95.2" font-family="Times,serif" font-size="14.00">destroy</text>
<text text-anchor="start" x="-447.834" y="109.2" font-family="Times,serif" font-size="14.00">edit</text>
<text text-anchor="start" x="-447.834" y="123.2" font-family="Times,serif" font-size="14.00">index</text>
<text text-anchor="start" x="-447.834" y="137.2" font-family="Times,serif" font-size="14.00">new</text>
<text text-anchor="start" x="-447.834" y="151.2" font-family="Times,serif" font-size="14.00">show</text>
<text text-anchor="start" x="-447.834" y="165.2" font-family="Times,serif" font-size="14.00">update</text>
<polyline fill="none" stroke="black" points="-455.834,172 -344.166,172 "/>
<polyline fill="none" stroke="black" points="-455.834,196 -344.166,196 "/>
<text text-anchor="start" x="-447.834" y="211.2" font-family="Times,serif" font-size="14.00">_layout</text>
<text text-anchor="start" x="-447.834" y="225.2" font-family="Times,serif" font-size="14.00">photo_params</text>
<text text-anchor="start" x="-447.834" y="239.2" font-family="Times,serif" font-size="14.00">set_photo</text>
</g>
<!-- ProjectsController -->
<g id="node17" class="node"><title>ProjectsController</title>
<path fill="none" stroke="black" d="M-121.324,360C-121.324,360 -26.6758,360 -26.6758,360 -20.6758,360 -14.6758,354 -14.6758,348 -14.6758,348 -14.6758,170 -14.6758,170 -14.6758,164 -20.6758,158 -26.6758,158 -26.6758,158 -121.324,158 -121.324,158 -127.324,158 -133.324,164 -133.324,170 -133.324,170 -133.324,348 -133.324,348 -133.324,354 -127.324,360 -121.324,360"/>
<text text-anchor="middle" x="-74" y="173.2" font-family="Times,serif" font-size="14.00">ProjectsController</text>
<polyline fill="none" stroke="black" points="-133.324,180 -14.6758,180 "/>
<text text-anchor="start" x="-125.324" y="195.2" font-family="Times,serif" font-size="14.00">create</text>
<text text-anchor="start" x="-125.324" y="209.2" font-family="Times,serif" font-size="14.00">destroy</text>
<text text-anchor="start" x="-125.324" y="223.2" font-family="Times,serif" font-size="14.00">edit</text>
<text text-anchor="start" x="-125.324" y="237.2" font-family="Times,serif" font-size="14.00">index</text>
<text text-anchor="start" x="-125.324" y="251.2" font-family="Times,serif" font-size="14.00">new</text>
<text text-anchor="start" x="-125.324" y="265.2" font-family="Times,serif" font-size="14.00">show</text>
<text text-anchor="start" x="-125.324" y="279.2" font-family="Times,serif" font-size="14.00">update</text>
<polyline fill="none" stroke="black" points="-133.324,286 -14.6758,286 "/>
<polyline fill="none" stroke="black" points="-133.324,310 -14.6758,310 "/>
<text text-anchor="start" x="-125.324" y="325.2" font-family="Times,serif" font-size="14.00">_layout</text>
<text text-anchor="start" x="-125.324" y="339.2" font-family="Times,serif" font-size="14.00">project_params</text>
<text text-anchor="start" x="-125.324" y="353.2" font-family="Times,serif" font-size="14.00">set_project</text>
</g>
<!-- RegistrationsController -->
<g id="node18" class="node"><title>RegistrationsController</title>
<path fill="none" stroke="black" d="M-177.638,-476C-177.638,-476 -50.3618,-476 -50.3618,-476 -44.3618,-476 -38.3618,-482 -38.3618,-488 -38.3618,-488 -38.3618,-568 -38.3618,-568 -38.3618,-574 -44.3618,-580 -50.3618,-580 -50.3618,-580 -177.638,-580 -177.638,-580 -183.638,-580 -189.638,-574 -189.638,-568 -189.638,-568 -189.638,-488 -189.638,-488 -189.638,-482 -183.638,-476 -177.638,-476"/>
<text text-anchor="middle" x="-114" y="-564.8" font-family="Times,serif" font-size="14.00">RegistrationsController</text>
<polyline fill="none" stroke="black" points="-189.638,-558 -38.3618,-558 "/>
<polyline fill="none" stroke="black" points="-189.638,-534 -38.3618,-534 "/>
<text text-anchor="start" x="-181.638" y="-518.8" font-family="Times,serif" font-size="14.00">account_update_params</text>
<text text-anchor="start" x="-181.638" y="-504.8" font-family="Times,serif" font-size="14.00">sign_up_params</text>
<polyline fill="none" stroke="black" points="-189.638,-498 -38.3618,-498 "/>
<text text-anchor="start" x="-181.638" y="-482.8" font-family="Times,serif" font-size="14.00">_layout</text>
</g>
<!-- SchoolsController -->
<g id="node19" class="node"><title>SchoolsController</title>
<path fill="none" stroke="black" d="M31.0586,360C31.0586,360 124.941,360 124.941,360 130.941,360 136.941,354 136.941,348 136.941,348 136.941,170 136.941,170 136.941,164 130.941,158 124.941,158 124.941,158 31.0586,158 31.0586,158 25.0586,158 19.0586,164 19.0586,170 19.0586,170 19.0586,348 19.0586,348 19.0586,354 25.0586,360 31.0586,360"/>
<text text-anchor="middle" x="78" y="173.2" font-family="Times,serif" font-size="14.00">SchoolsController</text>
<polyline fill="none" stroke="black" points="19.0586,180 136.941,180 "/>
<text text-anchor="start" x="27.0586" y="195.2" font-family="Times,serif" font-size="14.00">create</text>
<text text-anchor="start" x="27.0586" y="209.2" font-family="Times,serif" font-size="14.00">destroy</text>
<text text-anchor="start" x="27.0586" y="223.2" font-family="Times,serif" font-size="14.00">edit</text>
<text text-anchor="start" x="27.0586" y="237.2" font-family="Times,serif" font-size="14.00">index</text>
<text text-anchor="start" x="27.0586" y="251.2" font-family="Times,serif" font-size="14.00">new</text>
<text text-anchor="start" x="27.0586" y="265.2" font-family="Times,serif" font-size="14.00">show</text>
<text text-anchor="start" x="27.0586" y="279.2" font-family="Times,serif" font-size="14.00">update</text>
<polyline fill="none" stroke="black" points="19.0586,286 136.941,286 "/>
<polyline fill="none" stroke="black" points="19.0586,310 136.941,310 "/>
<text text-anchor="start" x="27.0586" y="325.2" font-family="Times,serif" font-size="14.00">_layout</text>
<text text-anchor="start" x="27.0586" y="339.2" font-family="Times,serif" font-size="14.00">school_params</text>
<text text-anchor="start" x="27.0586" y="353.2" font-family="Times,serif" font-size="14.00">set_school</text>
</g>
<!-- ShowcasesController -->
<g id="node20" class="node"><title>ShowcasesController</title>
<path fill="none" stroke="black" d="M163.51,-381C163.51,-381 274.49,-381 274.49,-381 280.49,-381 286.49,-387 286.49,-393 286.49,-393 286.49,-571 286.49,-571 286.49,-577 280.49,-583 274.49,-583 274.49,-583 163.51,-583 163.51,-583 157.51,-583 151.51,-577 151.51,-571 151.51,-571 151.51,-393 151.51,-393 151.51,-387 157.51,-381 163.51,-381"/>
<text text-anchor="middle" x="219" y="-567.8" font-family="Times,serif" font-size="14.00">ShowcasesController</text>
<polyline fill="none" stroke="black" points="151.51,-561 286.49,-561 "/>
<text text-anchor="start" x="159.51" y="-545.8" font-family="Times,serif" font-size="14.00">create</text>
<text text-anchor="start" x="159.51" y="-531.8" font-family="Times,serif" font-size="14.00">destroy</text>
<text text-anchor="start" x="159.51" y="-517.8" font-family="Times,serif" font-size="14.00">edit</text>
<text text-anchor="start" x="159.51" y="-503.8" font-family="Times,serif" font-size="14.00">index</text>
<text text-anchor="start" x="159.51" y="-489.8" font-family="Times,serif" font-size="14.00">new</text>
<text text-anchor="start" x="159.51" y="-475.8" font-family="Times,serif" font-size="14.00">show</text>
<text text-anchor="start" x="159.51" y="-461.8" font-family="Times,serif" font-size="14.00">update</text>
<polyline fill="none" stroke="black" points="151.51,-455 286.49,-455 "/>
<polyline fill="none" stroke="black" points="151.51,-431 286.49,-431 "/>
<text text-anchor="start" x="159.51" y="-415.8" font-family="Times,serif" font-size="14.00">_layout</text>
<text text-anchor="start" x="159.51" y="-401.8" font-family="Times,serif" font-size="14.00">set_showcase</text>
<text text-anchor="start" x="159.51" y="-387.8" font-family="Times,serif" font-size="14.00">showcase_params</text>
</g>
<!-- SocialLinksController -->
<g id="node21" class="node"><title>SocialLinksController</title>
<path fill="none" stroke="black" d="M-292.214,303C-292.214,303 -175.786,303 -175.786,303 -169.786,303 -163.786,297 -163.786,291 -163.786,291 -163.786,113 -163.786,113 -163.786,107 -169.786,101 -175.786,101 -175.786,101 -292.214,101 -292.214,101 -298.214,101 -304.214,107 -304.214,113 -304.214,113 -304.214,291 -304.214,291 -304.214,297 -298.214,303 -292.214,303"/>
<text text-anchor="middle" x="-234" y="116.2" font-family="Times,serif" font-size="14.00">SocialLinksController</text>
<polyline fill="none" stroke="black" points="-304.214,123 -163.786,123 "/>
<text text-anchor="start" x="-296.214" y="138.2" font-family="Times,serif" font-size="14.00">create</text>
<text text-anchor="start" x="-296.214" y="152.2" font-family="Times,serif" font-size="14.00">destroy</text>
<text text-anchor="start" x="-296.214" y="166.2" font-family="Times,serif" font-size="14.00">edit</text>
<text text-anchor="start" x="-296.214" y="180.2" font-family="Times,serif" font-size="14.00">index</text>
<text text-anchor="start" x="-296.214" y="194.2" font-family="Times,serif" font-size="14.00">new</text>
<text text-anchor="start" x="-296.214" y="208.2" font-family="Times,serif" font-size="14.00">show</text>
<text text-anchor="start" x="-296.214" y="222.2" font-family="Times,serif" font-size="14.00">update</text>
<polyline fill="none" stroke="black" points="-304.214,229 -163.786,229 "/>
<polyline fill="none" stroke="black" points="-304.214,253 -163.786,253 "/>
<text text-anchor="start" x="-296.214" y="268.2" font-family="Times,serif" font-size="14.00">_layout</text>
<text text-anchor="start" x="-296.214" y="282.2" font-family="Times,serif" font-size="14.00">set_social_link</text>
<text text-anchor="start" x="-296.214" y="296.2" font-family="Times,serif" font-size="14.00">social_link_params</text>
</g>
<!-- Users::RegistrationsController -->
<g id="node22" class="node"><title>Users::RegistrationsController</title>
<path fill="none" stroke="black" d="M335.455,474C335.455,474 498.545,474 498.545,474 504.545,474 510.545,468 510.545,462 510.545,462 510.545,370 510.545,370 510.545,364 504.545,358 498.545,358 498.545,358 335.455,358 335.455,358 329.455,358 323.455,364 323.455,370 323.455,370 323.455,462 323.455,462 323.455,468 329.455,474 335.455,474"/>
<text text-anchor="middle" x="417" y="373.2" font-family="Times,serif" font-size="14.00">Users::RegistrationsController</text>
<polyline fill="none" stroke="black" points="323.455,380 510.545,380 "/>
<text text-anchor="start" x="331.455" y="395.2" font-family="Times,serif" font-size="14.00">create</text>
<polyline fill="none" stroke="black" points="323.455,402 510.545,402 "/>
<text text-anchor="start" x="331.455" y="417.2" font-family="Times,serif" font-size="14.00">account_update_params</text>
<text text-anchor="start" x="331.455" y="431.2" font-family="Times,serif" font-size="14.00">after_sign_up_path_for</text>
<text text-anchor="start" x="331.455" y="445.2" font-family="Times,serif" font-size="14.00">sign_up_params</text>
<polyline fill="none" stroke="black" points="323.455,452 510.545,452 "/>
<text text-anchor="start" x="331.455" y="467.2" font-family="Times,serif" font-size="14.00">_layout</text>
</g>
<!-- UsersController -->
<g id="node23" class="node"><title>UsersController</title>
<path fill="none" stroke="black" d="M-177.714,-191C-177.714,-191 -96.2861,-191 -96.2861,-191 -90.2861,-191 -84.2861,-197 -84.2861,-203 -84.2861,-203 -84.2861,-423 -84.2861,-423 -84.2861,-429 -90.2861,-435 -96.2861,-435 -96.2861,-435 -177.714,-435 -177.714,-435 -183.714,-435 -189.714,-429 -189.714,-423 -189.714,-423 -189.714,-203 -189.714,-203 -189.714,-197 -183.714,-191 -177.714,-191"/>
<text text-anchor="middle" x="-137" y="-419.8" font-family="Times,serif" font-size="14.00">UsersController</text>
<polyline fill="none" stroke="black" points="-189.714,-413 -84.2861,-413 "/>
<text text-anchor="start" x="-181.714" y="-397.8" font-family="Times,serif" font-size="14.00">create</text>
<text text-anchor="start" x="-181.714" y="-383.8" font-family="Times,serif" font-size="14.00">dashboard</text>
<text text-anchor="start" x="-181.714" y="-369.8" font-family="Times,serif" font-size="14.00">destroy</text>
<text text-anchor="start" x="-181.714" y="-355.8" font-family="Times,serif" font-size="14.00">edit</text>
<text text-anchor="start" x="-181.714" y="-341.8" font-family="Times,serif" font-size="14.00">feed</text>
<text text-anchor="start" x="-181.714" y="-327.8" font-family="Times,serif" font-size="14.00">index</text>
<text text-anchor="start" x="-181.714" y="-313.8" font-family="Times,serif" font-size="14.00">new</text>
<text text-anchor="start" x="-181.714" y="-299.8" font-family="Times,serif" font-size="14.00">show</text>
<text text-anchor="start" x="-181.714" y="-285.8" font-family="Times,serif" font-size="14.00">update</text>
<polyline fill="none" stroke="black" points="-189.714,-279 -84.2861,-279 "/>
<polyline fill="none" stroke="black" points="-189.714,-255 -84.2861,-255 "/>
<text text-anchor="start" x="-181.714" y="-239.8" font-family="Times,serif" font-size="14.00">_layout</text>
<text text-anchor="start" x="-181.714" y="-225.8" font-family="Times,serif" font-size="14.00">set_user</text>
<text text-anchor="start" x="-181.714" y="-211.8" font-family="Times,serif" font-size="14.00">user_params</text>
<text text-anchor="start" x="-181.714" y="-197.8" font-family="Times,serif" font-size="14.00">verify_email</text>
</g>
<!-- WebsiteSettingsController -->
<g id="node24" class="node"><title>WebsiteSettingsController</title>
<path fill="none" stroke="black" d="M-82.7085,113C-82.7085,113 56.7085,113 56.7085,113 62.7085,113 68.7085,107 68.7085,101 68.7085,101 68.7085,-77 68.7085,-77 68.7085,-83 62.7085,-89 56.7085,-89 56.7085,-89 -82.7085,-89 -82.7085,-89 -88.7085,-89 -94.7085,-83 -94.7085,-77 -94.7085,-77 -94.7085,101 -94.7085,101 -94.7085,107 -88.7085,113 -82.7085,113"/>
<text text-anchor="middle" x="-13" y="-73.8" font-family="Times,serif" font-size="14.00">WebsiteSettingsController</text>
<polyline fill="none" stroke="black" points="-94.7085,-67 68.7085,-67 "/>
<text text-anchor="start" x="-86.7085" y="-51.8" font-family="Times,serif" font-size="14.00">create</text>
<text text-anchor="start" x="-86.7085" y="-37.8" font-family="Times,serif" font-size="14.00">destroy</text>
<text text-anchor="start" x="-86.7085" y="-23.8" font-family="Times,serif" font-size="14.00">edit</text>
<text text-anchor="start" x="-86.7085" y="-9.8" font-family="Times,serif" font-size="14.00">index</text>
<text text-anchor="start" x="-86.7085" y="4.2" font-family="Times,serif" font-size="14.00">new</text>
<text text-anchor="start" x="-86.7085" y="18.2" font-family="Times,serif" font-size="14.00">show</text>
<text text-anchor="start" x="-86.7085" y="32.2" font-family="Times,serif" font-size="14.00">update</text>
<polyline fill="none" stroke="black" points="-94.7085,39 68.7085,39 "/>
<polyline fill="none" stroke="black" points="-94.7085,63 68.7085,63 "/>
<text text-anchor="start" x="-86.7085" y="78.2" font-family="Times,serif" font-size="14.00">_layout</text>
<text text-anchor="start" x="-86.7085" y="92.2" font-family="Times,serif" font-size="14.00">set_website_setting</text>
<text text-anchor="start" x="-86.7085" y="106.2" font-family="Times,serif" font-size="14.00">website_setting_params</text>
</g>
</g>
</svg>
