<?xml version="1.0" encoding="UTF-8" standalone="no"?>
<!DOCTYPE svg PUBLIC "-//W3C//DTD SVG 1.1//EN"
 "http://www.w3.org/Graphics/SVG/1.1/DTD/svg11.dtd">
<!-- Generated by graphviz version 2.38.0 (20140413.2041)
 -->
<!-- Title: models_diagram Pages: 1 -->
<svg width="1735pt" height="386pt"
 viewBox="0.00 0.00 1734.90 386.00" xmlns="http://www.w3.org/2000/svg" xmlns:xlink="http://www.w3.org/1999/xlink">
<g id="graph0" class="graph" transform="scale(1 1) rotate(0) translate(4 382)">
<title>models_diagram</title>
<polygon fill="none" stroke="none" points="-4,4 -4,-382 1730.9,-382 1730.9,4 -4,4"/>
<!-- _diagram_info -->
<g id="node1" class="node"><title>_diagram_info</title>
<text text-anchor="start" x="605.298" y="-363.6" font-family="Times,serif" font-size="13.00">Models diagram</text>
<text text-anchor="start" x="605.298" y="-350.6" font-family="Times,serif" font-size="13.00">Date: Jun 21 2016 &#45; 12:57</text>
<text text-anchor="start" x="605.298" y="-337.6" font-family="Times,serif" font-size="13.00">Migration version: 20160621165538</text>
<text text-anchor="start" x="605.298" y="-324.6" font-family="Times,serif" font-size="13.00">Generated by RailRoady 1.3.1</text>
<text text-anchor="start" x="605.298" y="-311.6" font-family="Times,serif" font-size="13.00">http://railroady.prestonlee.com</text>
</g>
<!-- Ability -->
<g id="node2" class="node"><title>Ability</title>
<polygon fill="none" stroke="black" points="877.417,-359.5 822.077,-359.5 822.077,-323.5 877.417,-323.5 877.417,-359.5"/>
<text text-anchor="middle" x="849.747" y="-337.3" font-family="Times,serif" font-size="14.00">Ability</text>
</g>
<!-- Admin -->
<g id="node3" class="node"><title>Admin</title>
<ellipse fill="none" stroke="black" cx="930.747" cy="-341.5" rx="34.8458" ry="18"/>
<text text-anchor="middle" x="930.747" y="-337.3" font-family="Times,serif" font-size="14.00">Admin</text>
</g>
<!-- Analytic -->
<g id="node4" class="node"><title>Analytic</title>
<ellipse fill="none" stroke="black" cx="1077.75" cy="-91" rx="40.6162" ry="18"/>
<text text-anchor="middle" x="1077.75" y="-86.8" font-family="Times,serif" font-size="14.00">Analytic</text>
</g>
<!-- Article -->
<g id="node5" class="node"><title>Article</title>
<ellipse fill="none" stroke="black" cx="1603.75" cy="-91" rx="34.8198" ry="18"/>
<text text-anchor="middle" x="1603.75" y="-86.8" font-family="Times,serif" font-size="14.00">Article</text>
</g>
<!-- BackgroundInfo -->
<g id="node6" class="node"><title>BackgroundInfo</title>
<ellipse fill="none" stroke="black" cx="1204.75" cy="-91" rx="68.1287" ry="18"/>
<text text-anchor="middle" x="1204.75" y="-86.8" font-family="Times,serif" font-size="14.00">BackgroundInfo</text>
</g>
<!-- Experience -->
<g id="node11" class="node"><title>Experience</title>
<ellipse fill="none" stroke="black" cx="1342.75" cy="-18" rx="49.7533" ry="18"/>
<text text-anchor="middle" x="1342.75" y="-13.8" font-family="Times,serif" font-size="14.00">Experience</text>
</g>
<!-- BackgroundInfo&#45;&gt;Experience -->
<g id="edge1" class="edge"><title>BackgroundInfo&#45;&gt;Experience</title>
<path fill="none" stroke="#24b3e1" d="M1241.61,-71.0332C1261.54,-60.7788 1286.08,-48.1546 1305.99,-37.9091"/>
<ellipse fill="none" stroke="#24b3e1" cx="1237.91" cy="-72.9387" rx="4.00002" ry="4.00002"/>
<polygon fill="#24b3e1" stroke="#24b3e1" points="1306.18,-37.8142 1317.13,-37.2407 1310.63,-35.5267 1315.07,-33.2392 1315.07,-33.2392 1315.07,-33.2392 1310.63,-35.5267 1313.01,-29.2377 1306.18,-37.8142 1306.18,-37.8142"/>
</g>
<!-- Career -->
<g id="node7" class="node"><title>Career</title>
<ellipse fill="none" stroke="black" cx="1103.75" cy="-341.5" rx="33.8422" ry="18"/>
<text text-anchor="middle" x="1103.75" y="-337.3" font-family="Times,serif" font-size="14.00">Career</text>
</g>
<!-- Clerk -->
<g id="node8" class="node"><title>Clerk</title>
<ellipse fill="none" stroke="black" cx="1017.75" cy="-250" rx="29.5104" ry="18"/>
<text text-anchor="middle" x="1017.75" y="-245.8" font-family="Times,serif" font-size="14.00">Clerk</text>
</g>
<!-- User -->
<g id="node22" class="node"><title>User</title>
<ellipse fill="none" stroke="black" cx="959.747" cy="-177" rx="27" ry="18"/>
<text text-anchor="middle" x="959.747" y="-172.8" font-family="Times,serif" font-size="14.00">User</text>
</g>
<!-- Clerk&#45;&gt;User -->
<g id="edge2" class="edge"><title>Clerk&#45;&gt;User</title>
<path fill="none" stroke="#28aa28" d="M998.584,-225.542C992.238,-217.773 985.179,-209.132 978.839,-201.37"/>
<polygon fill="#28aa28" stroke="#28aa28" points="998.836,-225.85 1001.68,-236.441 1002,-229.722 1005.16,-233.594 1005.16,-233.594 1005.16,-233.594 1002,-229.722 1008.65,-230.747 998.836,-225.85 998.836,-225.85"/>
<polygon fill="#28aa28" stroke="#28aa28" points="978.634,-201.12 975.793,-190.529 975.471,-197.248 972.308,-193.376 972.308,-193.376 972.308,-193.376 975.471,-197.248 968.823,-196.223 978.634,-201.12 978.634,-201.12"/>
</g>
<!-- Demo -->
<g id="node9" class="node"><title>Demo</title>
<ellipse fill="none" stroke="black" cx="1186.75" cy="-341.5" rx="31.9393" ry="18"/>
<text text-anchor="middle" x="1186.75" y="-337.3" font-family="Times,serif" font-size="14.00">Demo</text>
</g>
<!-- Domain -->
<g id="node10" class="node"><title>Domain</title>
<ellipse fill="none" stroke="black" cx="1329.75" cy="-91" rx="38.6955" ry="18"/>
<text text-anchor="middle" x="1329.75" y="-86.8" font-family="Times,serif" font-size="14.00">Domain</text>
</g>
<!-- GoodnessValidator -->
<g id="node12" class="node"><title>GoodnessValidator</title>
<polygon fill="none" stroke="black" points="1358.79,-359.5 1236.71,-359.5 1236.71,-323.5 1358.79,-323.5 1358.79,-359.5"/>
<text text-anchor="middle" x="1297.75" y="-337.3" font-family="Times,serif" font-size="14.00">GoodnessValidator</text>
</g>
<!-- HomepageInfo -->
<g id="node13" class="node"><title>HomepageInfo</title>
<ellipse fill="none" stroke="black" cx="1487.75" cy="-91" rx="63.2924" ry="18"/>
<text text-anchor="middle" x="1487.75" y="-86.8" font-family="Times,serif" font-size="14.00">HomepageInfo</text>
</g>
<!-- Industry -->
<g id="node14" class="node"><title>Industry</title>
<ellipse fill="none" stroke="black" cx="1416.75" cy="-341.5" rx="39.6645" ry="18"/>
<text text-anchor="middle" x="1416.75" y="-337.3" font-family="Times,serif" font-size="14.00">Industry</text>
</g>
<!-- PersonalInfo -->
<g id="node15" class="node"><title>PersonalInfo</title>
<ellipse fill="none" stroke="black" cx="134.747" cy="-91" rx="55.0922" ry="18"/>
<text text-anchor="middle" x="134.747" y="-86.8" font-family="Times,serif" font-size="14.00">PersonalInfo</text>
</g>
<!-- Photo -->
<g id="node16" class="node"><title>Photo</title>
<ellipse fill="none" stroke="black" cx="30.7473" cy="-91" rx="30.9967" ry="18"/>
<text text-anchor="middle" x="30.7473" y="-86.8" font-family="Times,serif" font-size="14.00">Photo</text>
</g>
<!-- PhotoLink -->
<g id="node17" class="node"><title>PhotoLink</title>
<ellipse fill="none" stroke="black" cx="255.747" cy="-91" rx="47.3995" ry="18"/>
<text text-anchor="middle" x="255.747" y="-86.8" font-family="Times,serif" font-size="14.00">PhotoLink</text>
</g>
<!-- Project -->
<g id="node18" class="node"><title>Project</title>
<ellipse fill="none" stroke="black" cx="1691.75" cy="-91" rx="35.3129" ry="18"/>
<text text-anchor="middle" x="1691.75" y="-86.8" font-family="Times,serif" font-size="14.00">Project</text>
</g>
<!-- School -->
<g id="node19" class="node"><title>School</title>
<ellipse fill="none" stroke="black" cx="1017.75" cy="-341.5" rx="34.8458" ry="18"/>
<text text-anchor="middle" x="1017.75" y="-337.3" font-family="Times,serif" font-size="14.00">School</text>
</g>
<!-- School&#45;&gt;Article -->
<g id="edge6" class="edge"><title>School&#45;&gt;Article</title>
<path fill="none" stroke="#2e430a" d="M1041.36,-318.739C1047.4,-313.819 1054.09,-308.903 1060.75,-305 1234.72,-203.066 1296.4,-215.56 1483.75,-141 1512.23,-129.664 1544.38,-116.517 1568.23,-106.696"/>
<polygon fill="#2e430a" stroke="#2e430a" points="1041.19,-318.88 1030.66,-321.925 1037.38,-322.117 1033.57,-325.355 1033.57,-325.355 1033.57,-325.355 1037.38,-322.117 1036.48,-328.784 1041.19,-318.88 1041.19,-318.88"/>
<polygon fill="#2e430a" stroke="#2e430a" points="1568.34,-106.652 1579.3,-107.001 1572.96,-104.746 1577.58,-102.84 1577.58,-102.84 1577.58,-102.84 1572.96,-104.746 1575.87,-98.6799 1568.34,-106.652 1568.34,-106.652"/>
</g>
<!-- School&#45;&gt;Clerk -->
<g id="edge4" class="edge"><title>School&#45;&gt;Clerk</title>
<path fill="none" stroke="#a31896" d="M1017.75,-314.903C1017.75,-303.441 1017.75,-289.914 1017.75,-278.263"/>
<ellipse fill="none" stroke="#a31896" cx="1017.75" cy="-319.243" rx="4" ry="4"/>
<polygon fill="#a31896" stroke="#a31896" points="1017.75,-278.204 1022.25,-268.203 1017.75,-273.204 1017.75,-268.204 1017.75,-268.204 1017.75,-268.204 1017.75,-273.204 1013.25,-268.204 1017.75,-278.204 1017.75,-278.204"/>
</g>
<!-- School&#45;&gt;Photo -->
<g id="edge7" class="edge"><title>School&#45;&gt;Photo</title>
<path fill="none" stroke="#5e5c8d" d="M994.899,-318.147C988.76,-313.163 981.843,-308.365 974.747,-305 635.786,-144.245 505.469,-250.799 146.747,-141 117.664,-132.098 85.9315,-118.4 63.0191,-107.748"/>
<polygon fill="#5e5c8d" stroke="#5e5c8d" points="995.177,-318.388 999.782,-328.34 998.954,-321.665 1002.73,-324.941 1002.73,-324.941 1002.73,-324.941 998.954,-321.665 1005.68,-321.542 995.177,-318.388 995.177,-318.388"/>
<polygon fill="#5e5c8d" stroke="#5e5c8d" points="62.8193,-107.654 55.6907,-99.3208 58.2961,-105.523 53.7729,-103.392 53.7729,-103.392 53.7729,-103.392 58.2961,-105.523 51.8551,-107.463 62.8193,-107.654 62.8193,-107.654"/>
</g>
<!-- School&#45;&gt;Project -->
<g id="edge5" class="edge"><title>School&#45;&gt;Project</title>
<path fill="none" stroke="#911447" d="M1041.15,-318.378C1047.21,-313.47 1053.94,-308.649 1060.75,-305 1085.71,-291.609 1155.78,-276.696 1182.75,-268 1390.62,-200.962 1442.51,-183.706 1647.75,-109 1650.26,-108.086 1652.84,-107.129 1655.44,-106.155"/>
<polygon fill="#911447" stroke="#911447" points="1040.98,-318.524 1030.46,-321.603 1037.18,-321.774 1033.38,-325.023 1033.38,-325.023 1033.38,-325.023 1037.18,-321.774 1036.31,-328.443 1040.98,-318.524 1040.98,-318.524"/>
<polygon fill="#911447" stroke="#911447" points="1655.47,-106.145 1666.41,-106.804 1660.14,-104.371 1664.82,-102.597 1664.82,-102.597 1664.82,-102.597 1660.14,-104.371 1663.22,-98.3895 1655.47,-106.145 1655.47,-106.145"/>
</g>
<!-- School&#45;&gt;User -->
<g id="edge3" class="edge"><title>School&#45;&gt;User</title>
<path fill="none" stroke="#4eeebe" d="M1002.85,-316.942C994.694,-303.137 985.005,-285.1 978.747,-268 971.224,-247.44 966.31,-223.09 963.367,-204.906"/>
<ellipse fill="none" stroke="#4eeebe" cx="1005.12" cy="-320.718" rx="4.00002" ry="4.00002"/>
<polygon fill="#4eeebe" stroke="#4eeebe" points="963.362,-204.873 966.307,-194.31 962.61,-199.93 961.858,-194.987 961.858,-194.987 961.858,-194.987 962.61,-199.93 957.409,-195.664 963.362,-204.873 963.362,-204.873"/>
</g>
<!-- Showcase -->
<g id="node20" class="node"><title>Showcase</title>
<ellipse fill="none" stroke="black" cx="1519.75" cy="-341.5" rx="45.4441" ry="18"/>
<text text-anchor="middle" x="1519.75" y="-337.3" font-family="Times,serif" font-size="14.00">Showcase</text>
</g>
<!-- SocialLink -->
<g id="node21" class="node"><title>SocialLink</title>
<ellipse fill="none" stroke="black" cx="369.747" cy="-91" rx="48.8273" ry="18"/>
<text text-anchor="middle" x="369.747" y="-86.8" font-family="Times,serif" font-size="14.00">SocialLink</text>
</g>
<!-- User&#45;&gt;Analytic -->
<g id="edge18" class="edge"><title>User&#45;&gt;Analytic</title>
<path fill="none" stroke="#6ccae1" d="M990.529,-164.693C1004.45,-158.786 1020.67,-150.745 1033.75,-141 1043.63,-133.633 1053,-123.779 1060.52,-114.84"/>
<ellipse fill="none" stroke="#6ccae1" cx="986.768" cy="-166.234" rx="4.00002" ry="4.00002"/>
<ellipse fill="#6ccae1" stroke="#6ccae1" cx="1063.13" cy="-111.64" rx="4.00002" ry="4.00002"/>
</g>
<!-- User&#45;&gt;Article -->
<g id="edge8" class="edge"><title>User&#45;&gt;Article</title>
<path fill="none" stroke="#de3de0" d="M994.914,-175.657C1074.5,-174.397 1274.3,-168.508 1438.75,-141 1493.61,-131.823 1506.83,-126.161 1559.75,-109 1562.36,-108.153 1565.04,-107.236 1567.73,-106.282"/>
<ellipse fill="none" stroke="#de3de0" cx="990.7" cy="-175.719" rx="4" ry="4"/>
<polygon fill="#de3de0" stroke="#de3de0" points="1568.01,-106.181 1578.95,-106.948 1572.7,-104.453 1577.39,-102.725 1577.39,-102.725 1577.39,-102.725 1572.7,-104.453 1575.84,-98.5022 1568.01,-106.181 1568.01,-106.181"/>
</g>
<!-- User&#45;&gt;BackgroundInfo -->
<g id="edge9" class="edge"><title>User&#45;&gt;BackgroundInfo</title>
<path fill="none" stroke="#7d0f34" d="M991.067,-165.262C1033.11,-150.847 1108.17,-125.111 1157.21,-108.3"/>
<ellipse fill="none" stroke="#7d0f34" cx="987.023" cy="-166.648" rx="4.00001" ry="4.00001"/>
<ellipse fill="#7d0f34" stroke="#7d0f34" cx="1161.06" cy="-106.979" rx="4.00001" ry="4.00001"/>
</g>
<!-- User&#45;&gt;Domain -->
<g id="edge17" class="edge"><title>User&#45;&gt;Domain</title>
<path fill="none" stroke="#ea5f3d" d="M993.811,-170.475C1052.97,-160.533 1178.29,-137.942 1281.75,-109 1285.44,-107.968 1289.25,-106.798 1293.05,-105.566"/>
<ellipse fill="none" stroke="#ea5f3d" cx="989.857" cy="-171.134" rx="4.00001" ry="4.00001"/>
<ellipse fill="#ea5f3d" stroke="#ea5f3d" cx="1296.97" cy="-104.25" rx="4.00001" ry="4.00001"/>
</g>
<!-- User&#45;&gt;Experience -->
<g id="edge10" class="edge"><title>User&#45;&gt;Experience</title>
<path fill="none" stroke="#b132e2" d="M996.99,-175.938C1090.12,-174.907 1329.13,-166.591 1377.75,-109 1393.83,-89.9442 1379.41,-62.6471 1364.5,-43.1197"/>
<polygon fill="#b132e2" stroke="#b132e2" points="996.891,-175.938 986.852,-171.527 991.892,-175.982 986.892,-176.027 986.892,-176.027 986.892,-176.027 991.892,-175.982 986.931,-180.526 996.891,-175.938 996.891,-175.938"/>
<polygon fill="#b132e2" stroke="#b132e2" points="1364.45,-43.0553 1361.67,-32.4472 1361.31,-39.1643 1358.17,-35.2732 1358.17,-35.2732 1358.17,-35.2732 1361.31,-39.1643 1354.67,-38.0992 1364.45,-43.0553 1364.45,-43.0553"/>
</g>
<!-- User&#45;&gt;HomepageInfo -->
<g id="edge11" class="edge"><title>User&#45;&gt;HomepageInfo</title>
<path fill="none" stroke="#3ae495" d="M995.116,-175.461C1087.43,-173.703 1333.81,-166.674 1410.75,-141 1429.09,-134.879 1447.44,-123.46 1461.63,-113.184"/>
<ellipse fill="none" stroke="#3ae495" cx="990.93" cy="-175.537" rx="4" ry="4"/>
<ellipse fill="#3ae495" stroke="#3ae495" cx="1465.03" cy="-110.649" rx="4.00002" ry="4.00002"/>
</g>
<!-- User&#45;&gt;PersonalInfo -->
<g id="edge12" class="edge"><title>User&#45;&gt;PersonalInfo</title>
<path fill="none" stroke="#bea8cf" d="M924.606,-175.18C834.788,-172.796 589.596,-164.481 386.747,-141 302.987,-131.304 282.167,-126.795 199.747,-109 194.462,-107.859 188.959,-106.573 183.491,-105.233"/>
<ellipse fill="none" stroke="#bea8cf" cx="928.807" cy="-175.288" rx="4" ry="4"/>
<ellipse fill="#bea8cf" stroke="#bea8cf" cx="179.414" cy="-104.213" rx="4.00001" ry="4.00001"/>
</g>
<!-- User&#45;&gt;Photo -->
<g id="edge19" class="edge"><title>User&#45;&gt;Photo</title>
<path fill="none" stroke="#1dce5a" d="M924.393,-175.37C823.999,-173.323 528.666,-165.503 284.747,-141 189.06,-131.388 163.298,-135.128 70.7473,-109 68.419,-108.343 66.0465,-107.583 63.6773,-106.758"/>
<ellipse fill="none" stroke="#1dce5a" cx="928.669" cy="-175.455" rx="4" ry="4"/>
<polygon fill="#1dce5a" stroke="#1dce5a" points="63.4181,-106.659 55.6876,-98.8812 58.7485,-104.871 54.0789,-103.084 54.0789,-103.084 54.0789,-103.084 58.7485,-104.871 52.4702,-107.287 63.4181,-106.659 63.4181,-106.659"/>
</g>
<!-- User&#45;&gt;PhotoLink -->
<g id="edge13" class="edge"><title>User&#45;&gt;PhotoLink</title>
<path fill="none" stroke="#f9d915" d="M924.407,-174.883C844.4,-172.038 643.404,-163.119 476.747,-141 402.697,-131.172 384.25,-126.984 311.747,-109 307.495,-107.945 303.085,-106.763 298.693,-105.527"/>
<ellipse fill="none" stroke="#f9d915" cx="928.666" cy="-175.031" rx="4" ry="4"/>
<ellipse fill="#f9d915" stroke="#f9d915" cx="294.686" cy="-104.369" rx="4.00001" ry="4.00001"/>
</g>
<!-- User&#45;&gt;Project -->
<g id="edge14" class="edge"><title>User&#45;&gt;Project</title>
<path fill="none" stroke="#9aaf04" d="M995.099,-175.175C1079.79,-172.865 1300.85,-164.856 1483.75,-141 1557.39,-131.395 1576.39,-129.573 1647.75,-109 1650.39,-108.239 1653.09,-107.386 1655.79,-106.478"/>
<ellipse fill="none" stroke="#9aaf04" cx="990.861" cy="-175.287" rx="4" ry="4"/>
<polygon fill="#9aaf04" stroke="#9aaf04" points="1656.06,-106.381 1667,-107.252 1660.77,-104.697 1665.48,-103.014 1665.48,-103.014 1665.48,-103.014 1660.77,-104.697 1663.97,-98.7769 1656.06,-106.381 1656.06,-106.381"/>
</g>
<!-- User&#45;&gt;SocialLink -->
<g id="edge15" class="edge"><title>User&#45;&gt;SocialLink</title>
<path fill="none" stroke="#6b507a" d="M924.365,-175.488C851.316,-173.904 678.762,-167.426 536.747,-141 493.159,-132.889 444.672,-117.977 411.223,-106.726"/>
<ellipse fill="none" stroke="#6b507a" cx="928.773" cy="-175.577" rx="4" ry="4"/>
<ellipse fill="#6b507a" stroke="#6b507a" cx="407.266" cy="-105.383" rx="4.00001" ry="4.00001"/>
</g>
<!-- WebsiteSetting -->
<g id="node23" class="node"><title>WebsiteSetting</title>
<ellipse fill="none" stroke="black" cx="499.747" cy="-91" rx="63.3707" ry="18"/>
<text text-anchor="middle" x="499.747" y="-86.8" font-family="Times,serif" font-size="14.00">WebsiteSetting</text>
</g>
<!-- User&#45;&gt;WebsiteSetting -->
<g id="edge16" class="edge"><title>User&#45;&gt;WebsiteSetting</title>
<path fill="none" stroke="#0128d7" d="M924.689,-175.236C841.201,-173.038 632.741,-165.222 567.747,-141 551.376,-134.899 535.402,-123.741 523.055,-113.613"/>
<ellipse fill="none" stroke="#0128d7" cx="928.839" cy="-175.341" rx="4" ry="4"/>
<ellipse fill="#0128d7" stroke="#0128d7" cx="520" cy="-111.027" rx="4.00002" ry="4.00002"/>
</g>
<!-- ActsAsTaggableOn::Tagging -->
<g id="node24" class="node"><title>ActsAsTaggableOn::Tagging</title>
<ellipse fill="none" stroke="black" cx="693.747" cy="-91" rx="113.006" ry="18"/>
<text text-anchor="middle" x="693.747" y="-86.8" font-family="Times,serif" font-size="14.00">ActsAsTaggableOn::Tagging</text>
</g>
<!-- User&#45;&gt;ActsAsTaggableOn::Tagging -->
<g id="edge20" class="edge"><title>User&#45;&gt;ActsAsTaggableOn::Tagging</title>
<path fill="none" stroke="#db5c55" d="M926.438,-168.075C899.713,-161.491 861.339,-151.527 828.306,-141 811.332,-135.591 807.473,-133.134 790.747,-127 776.681,-121.841 761.445,-116.314 747.308,-111.212"/>
<ellipse fill="none" stroke="#db5c55" cx="930.454" cy="-169.057" rx="4.00001" ry="4.00001"/>
<polygon fill="#db5c55" stroke="#db5c55" points="747.132,-111.149 739.25,-103.524 742.428,-109.453 737.724,-107.757 737.724,-107.757 737.724,-107.757 742.428,-109.453 736.198,-111.991 747.132,-111.149 747.132,-111.149"/>
<text text-anchor="middle" x="851.468" y="-129.8" font-family="Times,serif" font-size="14.00">taggings</text>
</g>
<!-- User&#45;&gt;ActsAsTaggableOn::Tagging -->
<g id="edge22" class="edge"><title>User&#45;&gt;ActsAsTaggableOn::Tagging</title>
<path fill="none" stroke="#9acdea" d="M924.564,-175.413C834.581,-173.55 601.505,-166.305 578.416,-141 563.594,-124.755 578.458,-113.7 601.876,-106.268"/>
<ellipse fill="none" stroke="#9acdea" cx="928.814" cy="-175.498" rx="4" ry="4"/>
<polygon fill="#9acdea" stroke="#9acdea" points="601.987,-106.236 612.838,-107.824 606.796,-104.866 611.604,-103.496 611.604,-103.496 611.604,-103.496 606.796,-104.866 610.371,-99.1685 601.987,-106.236 601.987,-106.236"/>
<text text-anchor="middle" x="627.913" y="-129.8" font-family="Times,serif" font-size="14.00">industry_taggings</text>
</g>
<!-- User&#45;&gt;ActsAsTaggableOn::Tagging -->
<g id="edge24" class="edge"><title>User&#45;&gt;ActsAsTaggableOn::Tagging</title>
<path fill="none" stroke="#7cbdd4" d="M924.457,-176.49C860.338,-176.574 728.525,-172.763 698.126,-141 692.624,-135.251 690.547,-127.196 690.131,-119.275"/>
<ellipse fill="none" stroke="#7cbdd4" cx="928.669" cy="-176.474" rx="4" ry="4"/>
<polygon fill="#7cbdd4" stroke="#7cbdd4" points="690.134,-119.142 694.89,-109.261 690.263,-114.144 690.391,-109.145 690.391,-109.145 690.391,-109.145 690.263,-114.144 685.893,-109.029 690.134,-119.142 690.134,-119.142"/>
<text text-anchor="middle" x="742.058" y="-129.8" font-family="Times,serif" font-size="14.00">career_taggings</text>
</g>
<!-- ActsAsTaggableOn::Tag -->
<g id="node25" class="node"><title>ActsAsTaggableOn::Tag</title>
<ellipse fill="none" stroke="black" cx="921.747" cy="-91" rx="97.0617" ry="18"/>
<text text-anchor="middle" x="921.747" y="-86.8" font-family="Times,serif" font-size="14.00">ActsAsTaggableOn::Tag</text>
</g>
<!-- User&#45;&gt;ActsAsTaggableOn::Tag -->
<g id="edge21" class="edge"><title>User&#45;&gt;ActsAsTaggableOn::Tag</title>
<path fill="none" stroke="#0e8d75" d="M923.921,-168.676C908.685,-163.598 892.373,-155.104 883.32,-141 877.73,-132.293 881.691,-123.248 888.842,-115.335"/>
<polygon fill="#0e8d75" stroke="#0e8d75" points="924.095,-168.727 932.422,-175.862 928.893,-170.136 933.69,-171.545 933.69,-171.545 933.69,-171.545 928.893,-170.136 934.958,-167.227 924.095,-168.727 924.095,-168.727"/>
<polygon fill="#0e8d75" stroke="#0e8d75" points="888.868,-115.31 899.22,-111.692 892.496,-111.869 896.123,-108.427 896.123,-108.427 896.123,-108.427 892.496,-111.869 893.026,-105.163 888.868,-115.31 888.868,-115.31"/>
<text text-anchor="middle" x="909.961" y="-129.8" font-family="Times,serif" font-size="14.00">base_tags</text>
</g>
<!-- User&#45;&gt;ActsAsTaggableOn::Tag -->
<g id="edge23" class="edge"><title>User&#45;&gt;ActsAsTaggableOn::Tag</title>
<path fill="none" stroke="#b69335" d="M948.248,-150.3C944.875,-142.785 941.172,-134.56 937.747,-127 936.465,-124.17 935.121,-121.214 933.78,-118.27"/>
<polygon fill="#b69335" stroke="#b69335" points="948.351,-150.529 948.335,-161.495 950.396,-155.092 952.442,-159.654 952.442,-159.654 952.442,-159.654 950.396,-155.092 956.548,-157.813 948.351,-150.529 948.351,-150.529"/>
<polygon fill="#b69335" stroke="#b69335" points="933.737,-118.176 933.676,-107.21 931.66,-113.628 929.583,-109.079 929.583,-109.079 929.583,-109.079 931.66,-113.628 925.49,-110.948 933.737,-118.176 933.737,-118.176"/>
<text text-anchor="middle" x="966.692" y="-129.8" font-family="Times,serif" font-size="14.00">industry</text>
</g>
<!-- User&#45;&gt;ActsAsTaggableOn::Tag -->
<g id="edge25" class="edge"><title>User&#45;&gt;ActsAsTaggableOn::Tag</title>
<path fill="none" stroke="#7cb8f1" d="M985.645,-156.38C994.109,-147.533 999.927,-136.874 993.747,-127 990.082,-121.142 985.124,-116.24 979.515,-112.142"/>
<polygon fill="#7cb8f1" stroke="#7cb8f1" points="985.466,-156.545 975.066,-160.021 981.792,-159.936 978.118,-163.328 978.118,-163.328 978.118,-163.328 981.792,-159.936 981.171,-166.634 985.466,-156.545 985.466,-156.545"/>
<polygon fill="#7cb8f1" stroke="#7cb8f1" points="979.356,-112.042 973.309,-102.894 975.13,-109.37 970.904,-106.697 970.904,-106.697 970.904,-106.697 975.13,-109.37 968.499,-110.501 979.356,-112.042 979.356,-112.042"/>
<text text-anchor="middle" x="1012.84" y="-129.8" font-family="Times,serif" font-size="14.00">career</text>
</g>
</g>
</svg>
