<?xml version="1.0" encoding="UTF-8" standalone="no"?>
<!DOCTYPE svg PUBLIC "-//W3C//DTD SVG 1.1//EN"
 "http://www.w3.org/Graphics/SVG/1.1/DTD/svg11.dtd">
<!-- Generated by graphviz version 2.38.0 (20140413.2041)
 -->
<!-- Title: models_diagram Pages: 1 -->
<svg width="1538pt" height="386pt"
 viewBox="0.00 0.00 1537.90 386.00" xmlns="http://www.w3.org/2000/svg" xmlns:xlink="http://www.w3.org/1999/xlink">
<g id="graph0" class="graph" transform="scale(1 1) rotate(0) translate(4 382)">
<title>models_diagram</title>
<polygon fill="none" stroke="none" points="-4,4 -4,-382 1533.9,-382 1533.9,4 -4,4"/>
<!-- _diagram_info -->
<g id="node1" class="node"><title>_diagram_info</title>
<text text-anchor="start" x="271.06" y="-363.6" font-family="Times,serif" font-size="13.00">Models diagram</text>
<text text-anchor="start" x="271.06" y="-350.6" font-family="Times,serif" font-size="13.00">Date: Jun 21 2016 &#45; 10:53</text>
<text text-anchor="start" x="271.06" y="-337.6" font-family="Times,serif" font-size="13.00">Migration version: 20160613145109</text>
<text text-anchor="start" x="271.06" y="-324.6" font-family="Times,serif" font-size="13.00">Generated by RailRoady 1.3.1</text>
<text text-anchor="start" x="271.06" y="-311.6" font-family="Times,serif" font-size="13.00">http://railroady.prestonlee.com</text>
</g>
<!-- Ability -->
<g id="node2" class="node"><title>Ability</title>
<polygon fill="none" stroke="black" points="544.417,-359.5 489.077,-359.5 489.077,-323.5 544.417,-323.5 544.417,-359.5"/>
<text text-anchor="middle" x="516.747" y="-337.3" font-family="Times,serif" font-size="14.00">Ability</text>
</g>
<!-- Admin -->
<g id="node3" class="node"><title>Admin</title>
<ellipse fill="none" stroke="black" cx="597.747" cy="-341.5" rx="34.8458" ry="18"/>
<text text-anchor="middle" x="597.747" y="-337.3" font-family="Times,serif" font-size="14.00">Admin</text>
</g>
<!-- Article -->
<g id="node4" class="node"><title>Article</title>
<ellipse fill="none" stroke="black" cx="113.747" cy="-91" rx="34.8198" ry="18"/>
<text text-anchor="middle" x="113.747" y="-86.8" font-family="Times,serif" font-size="14.00">Article</text>
</g>
<!-- BackgroundInfo -->
<g id="node5" class="node"><title>BackgroundInfo</title>
<ellipse fill="none" stroke="black" cx="1335.75" cy="-91" rx="68.1287" ry="18"/>
<text text-anchor="middle" x="1335.75" y="-86.8" font-family="Times,serif" font-size="14.00">BackgroundInfo</text>
</g>
<!-- Experience -->
<g id="node9" class="node"><title>Experience</title>
<ellipse fill="none" stroke="black" cx="1401.75" cy="-18" rx="49.7533" ry="18"/>
<text text-anchor="middle" x="1401.75" y="-13.8" font-family="Times,serif" font-size="14.00">Experience</text>
</g>
<!-- BackgroundInfo&#45;&gt;Experience -->
<g id="edge1" class="edge"><title>BackgroundInfo&#45;&gt;Experience</title>
<path fill="none" stroke="#91d27a" d="M1356.88,-67.2612C1364.16,-59.4382 1372.32,-50.6615 1379.66,-42.7594"/>
<ellipse fill="none" stroke="#91d27a" cx="1354.11" cy="-70.2443" rx="4.00002" ry="4.00002"/>
<polygon fill="#91d27a" stroke="#91d27a" points="1379.86,-42.5408 1389.97,-38.2803 1383.27,-38.8787 1386.67,-35.2165 1386.67,-35.2165 1386.67,-35.2165 1383.27,-38.8787 1383.38,-32.1527 1379.86,-42.5408 1379.86,-42.5408"/>
</g>
<!-- Career -->
<g id="node6" class="node"><title>Career</title>
<ellipse fill="none" stroke="black" cx="770.747" cy="-341.5" rx="33.8422" ry="18"/>
<text text-anchor="middle" x="770.747" y="-337.3" font-family="Times,serif" font-size="14.00">Career</text>
</g>
<!-- Clerk -->
<g id="node7" class="node"><title>Clerk</title>
<ellipse fill="none" stroke="black" cx="684.747" cy="-250" rx="29.5104" ry="18"/>
<text text-anchor="middle" x="684.747" y="-245.8" font-family="Times,serif" font-size="14.00">Clerk</text>
</g>
<!-- User -->
<g id="node20" class="node"><title>User</title>
<ellipse fill="none" stroke="black" cx="742.747" cy="-177" rx="27" ry="18"/>
<text text-anchor="middle" x="742.747" y="-172.8" font-family="Times,serif" font-size="14.00">User</text>
</g>
<!-- Clerk&#45;&gt;User -->
<g id="edge2" class="edge"><title>Clerk&#45;&gt;User</title>
<path fill="none" stroke="#097b5b" d="M703.91,-225.542C710.256,-217.773 717.315,-209.132 723.656,-201.37"/>
<polygon fill="#097b5b" stroke="#097b5b" points="703.659,-225.85 693.847,-230.747 700.496,-229.722 697.332,-233.594 697.332,-233.594 697.332,-233.594 700.496,-229.722 700.817,-236.441 703.659,-225.85 703.659,-225.85"/>
<polygon fill="#097b5b" stroke="#097b5b" points="723.86,-201.12 733.672,-196.223 727.024,-197.248 730.187,-193.376 730.187,-193.376 730.187,-193.376 727.024,-197.248 726.702,-190.529 723.86,-201.12 723.86,-201.12"/>
</g>
<!-- Demo -->
<g id="node8" class="node"><title>Demo</title>
<ellipse fill="none" stroke="black" cx="853.747" cy="-341.5" rx="31.9393" ry="18"/>
<text text-anchor="middle" x="853.747" y="-337.3" font-family="Times,serif" font-size="14.00">Demo</text>
</g>
<!-- GoodnessValidator -->
<g id="node10" class="node"><title>GoodnessValidator</title>
<polygon fill="none" stroke="black" points="1025.79,-359.5 903.708,-359.5 903.708,-323.5 1025.79,-323.5 1025.79,-359.5"/>
<text text-anchor="middle" x="964.747" y="-337.3" font-family="Times,serif" font-size="14.00">GoodnessValidator</text>
</g>
<!-- HomepageInfo -->
<g id="node11" class="node"><title>HomepageInfo</title>
<ellipse fill="none" stroke="black" cx="229.747" cy="-91" rx="63.2924" ry="18"/>
<text text-anchor="middle" x="229.747" y="-86.8" font-family="Times,serif" font-size="14.00">HomepageInfo</text>
</g>
<!-- Industry -->
<g id="node12" class="node"><title>Industry</title>
<ellipse fill="none" stroke="black" cx="1083.75" cy="-341.5" rx="39.6645" ry="18"/>
<text text-anchor="middle" x="1083.75" y="-337.3" font-family="Times,serif" font-size="14.00">Industry</text>
</g>
<!-- PersonalInfo -->
<g id="node13" class="node"><title>PersonalInfo</title>
<ellipse fill="none" stroke="black" cx="365.747" cy="-91" rx="55.0922" ry="18"/>
<text text-anchor="middle" x="365.747" y="-86.8" font-family="Times,serif" font-size="14.00">PersonalInfo</text>
</g>
<!-- Photo -->
<g id="node14" class="node"><title>Photo</title>
<ellipse fill="none" stroke="black" cx="30.7473" cy="-91" rx="30.9967" ry="18"/>
<text text-anchor="middle" x="30.7473" y="-86.8" font-family="Times,serif" font-size="14.00">Photo</text>
</g>
<!-- PhotoLink -->
<g id="node15" class="node"><title>PhotoLink</title>
<ellipse fill="none" stroke="black" cx="486.747" cy="-91" rx="47.3995" ry="18"/>
<text text-anchor="middle" x="486.747" y="-86.8" font-family="Times,serif" font-size="14.00">PhotoLink</text>
</g>
<!-- Project -->
<g id="node16" class="node"><title>Project</title>
<ellipse fill="none" stroke="black" cx="1494.75" cy="-91" rx="35.3129" ry="18"/>
<text text-anchor="middle" x="1494.75" y="-86.8" font-family="Times,serif" font-size="14.00">Project</text>
</g>
<!-- School -->
<g id="node17" class="node"><title>School</title>
<ellipse fill="none" stroke="black" cx="684.747" cy="-341.5" rx="34.8458" ry="18"/>
<text text-anchor="middle" x="684.747" y="-337.3" font-family="Times,serif" font-size="14.00">School</text>
</g>
<!-- School&#45;&gt;Article -->
<g id="edge6" class="edge"><title>School&#45;&gt;Article</title>
<path fill="none" stroke="#1807b6" d="M661.101,-318.803C655.056,-313.881 648.382,-308.948 641.747,-305 619.05,-291.493 266.091,-152.022 150.259,-106.374"/>
<polygon fill="#1807b6" stroke="#1807b6" points="661.266,-318.944 665.98,-328.845 665.079,-322.179 668.891,-325.414 668.891,-325.414 668.891,-325.414 665.079,-322.179 671.803,-321.982 661.266,-318.944 661.266,-318.944"/>
<polygon fill="#1807b6" stroke="#1807b6" points="150.053,-106.293 142.399,-98.4404 145.401,-104.46 140.749,-102.627 140.749,-102.627 140.749,-102.627 145.401,-104.46 139.1,-106.814 150.053,-106.293 150.053,-106.293"/>
</g>
<!-- School&#45;&gt;Clerk -->
<g id="edge4" class="edge"><title>School&#45;&gt;Clerk</title>
<path fill="none" stroke="#701ac2" d="M684.747,-314.903C684.747,-303.441 684.747,-289.914 684.747,-278.263"/>
<ellipse fill="none" stroke="#701ac2" cx="684.747" cy="-319.243" rx="4" ry="4"/>
<polygon fill="#701ac2" stroke="#701ac2" points="684.747,-278.204 689.247,-268.203 684.747,-273.204 684.747,-268.204 684.747,-268.204 684.747,-268.204 684.747,-273.204 680.247,-268.204 684.747,-278.204 684.747,-278.204"/>
</g>
<!-- School&#45;&gt;Photo -->
<g id="edge7" class="edge"><title>School&#45;&gt;Photo</title>
<path fill="none" stroke="#dc7a38" d="M661.879,-318.188C655.741,-313.203 648.829,-308.395 641.747,-305 568.491,-269.885 540.496,-291.552 462.747,-268 308.774,-221.357 133.627,-141.121 62.8871,-107.515"/>
<polygon fill="#dc7a38" stroke="#dc7a38" points="662.157,-318.429 666.765,-328.379 665.935,-321.704 669.713,-324.979 669.713,-324.979 669.713,-324.979 665.935,-321.704 672.66,-321.578 662.157,-318.429 662.157,-318.429"/>
<polygon fill="#dc7a38" stroke="#dc7a38" points="62.6373,-107.396 55.5486,-99.0298 58.1243,-105.244 53.6114,-103.091 53.6114,-103.091 53.6114,-103.091 58.1243,-105.244 51.6741,-107.153 62.6373,-107.396 62.6373,-107.396"/>
</g>
<!-- School&#45;&gt;Project -->
<g id="edge5" class="edge"><title>School&#45;&gt;Project</title>
<path fill="none" stroke="#011495" d="M707.649,-318.255C713.786,-313.269 720.689,-308.443 727.747,-305 1031.3,-156.93 1202.58,-347.611 1469.75,-141 1477.13,-135.289 1482.52,-126.795 1486.36,-118.477"/>
<polygon fill="#011495" stroke="#011495" points="707.372,-318.495 696.866,-321.638 703.592,-321.767 699.811,-325.04 699.811,-325.04 699.811,-325.04 703.592,-321.767 702.757,-328.442 707.372,-318.495 707.372,-318.495"/>
<polygon fill="#011495" stroke="#011495" points="1486.46,-118.246 1494.37,-110.648 1488.32,-113.607 1490.19,-108.969 1490.19,-108.969 1490.19,-108.969 1488.32,-113.607 1486.02,-107.289 1486.46,-118.246 1486.46,-118.246"/>
</g>
<!-- School&#45;&gt;User -->
<g id="edge3" class="edge"><title>School&#45;&gt;User</title>
<path fill="none" stroke="#5cfc0c" d="M699.646,-316.942C707.801,-303.137 717.49,-285.1 723.747,-268 731.271,-247.44 736.185,-223.09 739.127,-204.906"/>
<ellipse fill="none" stroke="#5cfc0c" cx="697.37" cy="-320.718" rx="4.00002" ry="4.00002"/>
<polygon fill="#5cfc0c" stroke="#5cfc0c" points="739.132,-204.873 745.085,-195.664 739.884,-199.93 740.637,-194.987 740.637,-194.987 740.637,-194.987 739.884,-199.93 736.188,-194.31 739.132,-204.873 739.132,-204.873"/>
</g>
<!-- Showcase -->
<g id="node18" class="node"><title>Showcase</title>
<ellipse fill="none" stroke="black" cx="1186.75" cy="-341.5" rx="45.4441" ry="18"/>
<text text-anchor="middle" x="1186.75" y="-337.3" font-family="Times,serif" font-size="14.00">Showcase</text>
</g>
<!-- SocialLink -->
<g id="node19" class="node"><title>SocialLink</title>
<ellipse fill="none" stroke="black" cx="600.747" cy="-91" rx="48.8273" ry="18"/>
<text text-anchor="middle" x="600.747" y="-86.8" font-family="Times,serif" font-size="14.00">SocialLink</text>
</g>
<!-- User&#45;&gt;Article -->
<g id="edge8" class="edge"><title>User&#45;&gt;Article</title>
<path fill="none" stroke="#fb6f94" d="M707.643,-175.246C615.853,-172.576 361.704,-160.7 157.747,-109 154.919,-108.283 152.026,-107.437 149.141,-106.51"/>
<ellipse fill="none" stroke="#fb6f94" cx="711.76" cy="-175.359" rx="4" ry="4"/>
<polygon fill="#fb6f94" stroke="#fb6f94" points="148.907,-106.429 140.954,-98.879 144.188,-104.778 139.468,-103.127 139.468,-103.127 139.468,-103.127 144.188,-104.778 137.982,-107.374 148.907,-106.429 148.907,-106.429"/>
</g>
<!-- User&#45;&gt;BackgroundInfo -->
<g id="edge9" class="edge"><title>User&#45;&gt;BackgroundInfo</title>
<path fill="none" stroke="#f42983" d="M777.974,-174.823C872.905,-171.422 1132.49,-160.562 1215.75,-141 1244.61,-134.219 1275.54,-121.441 1298.78,-110.633"/>
<ellipse fill="none" stroke="#f42983" cx="773.836" cy="-174.969" rx="4" ry="4"/>
<ellipse fill="#f42983" stroke="#f42983" cx="1302.42" cy="-108.912" rx="4.00002" ry="4.00002"/>
</g>
<!-- User&#45;&gt;Experience -->
<g id="edge10" class="edge"><title>User&#45;&gt;Experience</title>
<path fill="none" stroke="#92c21e" d="M780.259,-175.258C915.519,-172.186 1372.35,-158.212 1412.75,-109 1427.19,-91.409 1421.81,-64.9827 1414.39,-45.3108"/>
<polygon fill="#92c21e" stroke="#92c21e" points="779.99,-175.264 769.893,-170.986 774.991,-175.374 769.992,-175.484 769.992,-175.484 769.992,-175.484 774.991,-175.374 770.091,-179.983 779.99,-175.264 779.99,-175.264"/>
<polygon fill="#92c21e" stroke="#92c21e" points="1414.36,-45.2364 1414.7,-34.2758 1412.45,-40.615 1410.54,-35.9937 1410.54,-35.9937 1410.54,-35.9937 1412.45,-40.615 1406.38,-37.7115 1414.36,-45.2364 1414.36,-45.2364"/>
</g>
<!-- User&#45;&gt;HomepageInfo -->
<g id="edge11" class="edge"><title>User&#45;&gt;HomepageInfo</title>
<path fill="none" stroke="#2d6783" d="M708.132,-171.718C633.534,-162.276 452.181,-138.172 301.747,-109 295.939,-107.874 289.89,-106.602 283.875,-105.275"/>
<ellipse fill="none" stroke="#2d6783" cx="712.305" cy="-172.244" rx="4.00001" ry="4.00001"/>
<ellipse fill="#2d6783" stroke="#2d6783" cx="279.622" cy="-104.317" rx="4.00001" ry="4.00001"/>
</g>
<!-- User&#45;&gt;PersonalInfo -->
<g id="edge12" class="edge"><title>User&#45;&gt;PersonalInfo</title>
<path fill="none" stroke="#8130e3" d="M709.199,-169.303C651.926,-157.758 531.688,-133.026 430.747,-109 425.563,-107.766 420.159,-106.431 414.779,-105.07"/>
<ellipse fill="none" stroke="#8130e3" cx="713.261" cy="-170.121" rx="4.00001" ry="4.00001"/>
<ellipse fill="#8130e3" stroke="#8130e3" cx="410.817" cy="-104.058" rx="4.00001" ry="4.00001"/>
</g>
<!-- User&#45;&gt;Photo -->
<g id="edge17" class="edge"><title>User&#45;&gt;Photo</title>
<path fill="none" stroke="#a7f7d1" d="M707.435,-174.805C626.09,-171.767 419.311,-162.424 247.747,-141 167.987,-131.04 146.667,-132.329 69.7473,-109 67.6225,-108.356 65.4588,-107.628 63.2948,-106.846"/>
<ellipse fill="none" stroke="#a7f7d1" cx="711.823" cy="-174.965" rx="4" ry="4"/>
<polygon fill="#a7f7d1" stroke="#a7f7d1" points="63.2283,-106.82 55.5735,-98.9676 58.5762,-104.987 53.9242,-103.154 53.9242,-103.154 53.9242,-103.154 58.5762,-104.987 52.2748,-107.341 63.2283,-106.82 63.2283,-106.82"/>
</g>
<!-- User&#45;&gt;PhotoLink -->
<g id="edge13" class="edge"><title>User&#45;&gt;PhotoLink</title>
<path fill="none" stroke="#e24179" d="M711.52,-165.753C665.823,-150.759 580.603,-122.797 529.239,-105.942"/>
<ellipse fill="none" stroke="#e24179" cx="715.322" cy="-167.001" rx="4.00001" ry="4.00001"/>
<ellipse fill="#e24179" stroke="#e24179" cx="525.406" cy="-104.685" rx="4.00001" ry="4.00001"/>
</g>
<!-- User&#45;&gt;Project -->
<g id="edge14" class="edge"><title>User&#45;&gt;Project</title>
<path fill="none" stroke="#d96ddc" d="M778.38,-175.722C912.788,-174.468 1384.54,-168.156 1445.75,-141 1457.95,-135.587 1468.78,-125.664 1477.13,-116.156"/>
<ellipse fill="none" stroke="#d96ddc" cx="774.022" cy="-175.761" rx="4" ry="4"/>
<polygon fill="#d96ddc" stroke="#d96ddc" points="1477.18,-116.093 1487.01,-111.237 1480.36,-112.234 1483.54,-108.375 1483.54,-108.375 1483.54,-108.375 1480.36,-112.234 1480.07,-105.513 1477.18,-116.093 1477.18,-116.093"/>
</g>
<!-- User&#45;&gt;SocialLink -->
<g id="edge15" class="edge"><title>User&#45;&gt;SocialLink</title>
<path fill="none" stroke="#9bf4f0" d="M716.339,-160.378C692.649,-146.365 657.834,-125.77 632.607,-110.847"/>
<ellipse fill="none" stroke="#9bf4f0" cx="719.858" cy="-162.46" rx="4.00002" ry="4.00002"/>
<ellipse fill="#9bf4f0" stroke="#9bf4f0" cx="628.88" cy="-108.642" rx="4.00002" ry="4.00002"/>
</g>
<!-- WebsiteSetting -->
<g id="node21" class="node"><title>WebsiteSetting</title>
<ellipse fill="none" stroke="black" cx="730.747" cy="-91" rx="63.3707" ry="18"/>
<text text-anchor="middle" x="730.747" y="-86.8" font-family="Times,serif" font-size="14.00">WebsiteSetting</text>
</g>
<!-- User&#45;&gt;WebsiteSetting -->
<g id="edge16" class="edge"><title>User&#45;&gt;WebsiteSetting</title>
<path fill="none" stroke="#fc0d19" d="M728.271,-153.118C726.404,-149.206 724.784,-145.084 723.747,-141 721.79,-133.293 722.163,-124.756 723.436,-116.995"/>
<ellipse fill="none" stroke="#fc0d19" cx="730.206" cy="-156.779" rx="4.00002" ry="4.00002"/>
<ellipse fill="#fc0d19" stroke="#fc0d19" cx="724.291" cy="-112.872" rx="4.00001" ry="4.00001"/>
</g>
<!-- ActsAsTaggableOn::Tagging -->
<g id="node22" class="node"><title>ActsAsTaggableOn::Tagging</title>
<ellipse fill="none" stroke="black" cx="924.747" cy="-91" rx="113.006" ry="18"/>
<text text-anchor="middle" x="924.747" y="-86.8" font-family="Times,serif" font-size="14.00">ActsAsTaggableOn::Tagging</text>
</g>
<!-- User&#45;&gt;ActsAsTaggableOn::Tagging -->
<g id="edge18" class="edge"><title>User&#45;&gt;ActsAsTaggableOn::Tagging</title>
<path fill="none" stroke="#9eecfc" d="M778.052,-175.502C832.584,-173.902 933.368,-167.357 955.747,-141 962.002,-133.633 959.207,-124.901 953.269,-116.863"/>
<ellipse fill="none" stroke="#9eecfc" cx="774.035" cy="-175.607" rx="4" ry="4"/>
<polygon fill="#9eecfc" stroke="#9eecfc" points="953.089,-116.658 949.888,-106.17 949.795,-112.896 946.502,-109.133 946.502,-109.133 946.502,-109.133 949.795,-112.896 943.116,-112.097 953.089,-116.658 953.089,-116.658"/>
<text text-anchor="middle" x="982.468" y="-129.8" font-family="Times,serif" font-size="14.00">taggings</text>
</g>
<!-- User&#45;&gt;ActsAsTaggableOn::Tagging -->
<g id="edge20" class="edge"><title>User&#45;&gt;ActsAsTaggableOn::Tagging</title>
<path fill="none" stroke="#e45ce6" d="M737.114,-150.984C736.646,-142.517 737.928,-133.557 743.416,-127 749.632,-119.574 790.367,-111.362 831.655,-104.76"/>
<ellipse fill="none" stroke="#e45ce6" cx="737.608" cy="-155.205" rx="4.00001" ry="4.00001"/>
<polygon fill="#e45ce6" stroke="#e45ce6" points="831.699,-104.753 842.275,-107.65 836.639,-103.978 841.578,-103.204 841.578,-103.204 841.578,-103.204 836.639,-103.978 840.881,-98.7583 831.699,-104.753 831.699,-104.753"/>
<text text-anchor="middle" x="792.913" y="-129.8" font-family="Times,serif" font-size="14.00">industry_taggings</text>
</g>
<!-- User&#45;&gt;ActsAsTaggableOn::Tagging -->
<g id="edge22" class="edge"><title>User&#45;&gt;ActsAsTaggableOn::Tagging</title>
<path fill="none" stroke="#86ba4b" d="M775.39,-167.334C795.674,-161.313 821.945,-152.339 843.747,-141 853.174,-136.097 854.187,-132.743 863.126,-127 870.268,-122.411 878.037,-117.753 885.576,-113.397"/>
<ellipse fill="none" stroke="#86ba4b" cx="771.496" cy="-168.461" rx="4.00001" ry="4.00001"/>
<polygon fill="#86ba4b" stroke="#86ba4b" points="885.58,-113.395 896.496,-112.354 889.924,-110.919 894.268,-108.444 894.268,-108.444 894.268,-108.444 889.924,-110.919 892.041,-104.534 885.58,-113.395 885.58,-113.395"/>
<text text-anchor="middle" x="907.058" y="-129.8" font-family="Times,serif" font-size="14.00">career_taggings</text>
</g>
<!-- ActsAsTaggableOn::Tag -->
<g id="node23" class="node"><title>ActsAsTaggableOn::Tag</title>
<ellipse fill="none" stroke="black" cx="1152.75" cy="-91" rx="97.0617" ry="18"/>
<text text-anchor="middle" x="1152.75" y="-86.8" font-family="Times,serif" font-size="14.00">ActsAsTaggableOn::Tag</text>
</g>
<!-- User&#45;&gt;ActsAsTaggableOn::Tag -->
<g id="edge19" class="edge"><title>User&#45;&gt;ActsAsTaggableOn::Tag</title>
<path fill="none" stroke="#d235b1" d="M779.875,-175.592C875.874,-174.156 1126.59,-167.848 1151.75,-141 1157.17,-135.215 1158.78,-127.151 1158.63,-119.232"/>
<polygon fill="#d235b1" stroke="#d235b1" points="779.75,-175.593 769.688,-171.234 774.751,-175.663 769.751,-175.733 769.751,-175.733 769.751,-175.733 774.751,-175.663 769.814,-180.233 779.75,-175.593 779.75,-175.593"/>
<polygon fill="#d235b1" stroke="#d235b1" points="1158.61,-119.058 1162.07,-108.653 1158.1,-114.084 1157.59,-109.11 1157.59,-109.11 1157.59,-109.11 1158.1,-114.084 1153.12,-109.567 1158.61,-119.058 1158.61,-119.058"/>
<text text-anchor="middle" x="1184.96" y="-129.8" font-family="Times,serif" font-size="14.00">base_tags</text>
</g>
<!-- User&#45;&gt;ActsAsTaggableOn::Tag -->
<g id="edge21" class="edge"><title>User&#45;&gt;ActsAsTaggableOn::Tag</title>
<path fill="none" stroke="#86b646" d="M779.691,-173.659C831.641,-169.804 928.97,-160.515 1009.75,-141 1027.69,-136.664 1031.42,-133.059 1048.86,-127 1064.79,-121.466 1082.14,-115.569 1098.01,-110.225"/>
<polygon fill="#86b646" stroke="#86b646" points="779.595,-173.666 769.299,-169.891 774.607,-174.023 769.62,-174.38 769.62,-174.38 769.62,-174.38 774.607,-174.023 769.941,-178.868 779.595,-173.666 779.595,-173.666"/>
<polygon fill="#86b646" stroke="#86b646" points="1098.2,-110.161 1109.12,-111.242 1102.94,-108.569 1107.68,-106.976 1107.68,-106.976 1107.68,-106.976 1102.94,-108.569 1106.25,-102.711 1098.2,-110.161 1098.2,-110.161"/>
<text text-anchor="middle" x="1071.69" y="-129.8" font-family="Times,serif" font-size="14.00">industry</text>
</g>
<!-- User&#45;&gt;ActsAsTaggableOn::Tag -->
<g id="edge23" class="edge"><title>User&#45;&gt;ActsAsTaggableOn::Tag</title>
<path fill="none" stroke="#999a85" d="M780.214,-175.071C858.917,-172.668 1038.77,-164.685 1094.75,-141 1098.6,-139.368 1112.92,-127.285 1126.36,-115.527"/>
<polygon fill="#999a85" stroke="#999a85" points="779.8,-175.083 769.673,-170.876 774.802,-175.228 769.804,-175.374 769.804,-175.374 769.804,-175.374 774.802,-175.228 769.935,-179.872 779.8,-175.083 779.8,-175.083"/>
<polygon fill="#999a85" stroke="#999a85" points="1126.59,-115.331 1137.07,-112.101 1130.34,-112.028 1134.09,-108.724 1134.09,-108.724 1134.09,-108.724 1130.34,-112.028 1131.12,-105.346 1126.59,-115.331 1126.59,-115.331"/>
<text text-anchor="middle" x="1128.84" y="-129.8" font-family="Times,serif" font-size="14.00">career</text>
</g>
</g>
</svg>
