<?xml version="1.0" encoding="UTF-8" standalone="no"?>
<!DOCTYPE svg PUBLIC "-//W3C//DTD SVG 1.1//EN"
 "http://www.w3.org/Graphics/SVG/1.1/DTD/svg11.dtd">
<!-- Generated by graphviz version 2.38.0 (20140413.2041)
 -->
<!-- Title: models_diagram Pages: 1 -->
<svg width="1813pt" height="1514pt"
 viewBox="0.00 0.00 1812.58 1514.00" xmlns="http://www.w3.org/2000/svg" xmlns:xlink="http://www.w3.org/1999/xlink">
<g id="graph0" class="graph" transform="scale(1 1) rotate(0) translate(4 1510)">
<title>models_diagram</title>
<polygon fill="none" stroke="none" points="-4,4 -4,-1510 1808.58,-1510 1808.58,4 -4,4"/>
<!-- _diagram_info -->
<g id="node1" class="node"><title>_diagram_info</title>
<text text-anchor="start" x="8" y="-1442.6" font-family="Times,serif" font-size="13.00">Models diagram</text>
<text text-anchor="start" x="8" y="-1429.6" font-family="Times,serif" font-size="13.00">Date: May 14 2016 &#45; 17:44</text>
<text text-anchor="start" x="8" y="-1416.6" font-family="Times,serif" font-size="13.00">Migration version: 20160514204317</text>
<text text-anchor="start" x="8" y="-1403.6" font-family="Times,serif" font-size="13.00">Generated by RailRoady 1.3.1</text>
<text text-anchor="start" x="8" y="-1390.6" font-family="Times,serif" font-size="13.00">http://railroady.prestonlee.com</text>
</g>
<!-- Ability -->
<g id="node2" class="node"><title>Ability</title>
<polygon fill="none" stroke="black" points="225.853,-1398.5 225.853,-1442.5 281.522,-1442.5 281.522,-1398.5 225.853,-1398.5"/>
<text text-anchor="middle" x="253.688" y="-1427.3" font-family="Times,serif" font-size="14.00">Ability</text>
<polyline fill="none" stroke="black" points="225.853,-1420.5 281.522,-1420.5 "/>
<text text-anchor="middle" x="253.688" y="-1405.3" font-family="Times,serif" font-size="14.00"> </text>
</g>
<!-- Article -->
<g id="node3" class="node"><title>Article</title>
<path fill="none" stroke="black" d="M327.182,-676.5C327.182,-676.5 436.193,-676.5 436.193,-676.5 442.193,-676.5 448.193,-682.5 448.193,-688.5 448.193,-688.5 448.193,-792.5 448.193,-792.5 448.193,-798.5 442.193,-804.5 436.193,-804.5 436.193,-804.5 327.182,-804.5 327.182,-804.5 321.182,-804.5 315.182,-798.5 315.182,-792.5 315.182,-792.5 315.182,-688.5 315.182,-688.5 315.182,-682.5 321.182,-676.5 327.182,-676.5"/>
<text text-anchor="middle" x="381.688" y="-789.3" font-family="Times,serif" font-size="14.00">Article</text>
<polyline fill="none" stroke="black" points="315.182,-782.5 448.193,-782.5 "/>
<text text-anchor="start" x="323.182" y="-767.3" font-family="Times,serif" font-size="14.00">id :integer</text>
<text text-anchor="start" x="323.182" y="-753.3" font-family="Times,serif" font-size="14.00">title :string</text>
<text text-anchor="start" x="323.182" y="-739.3" font-family="Times,serif" font-size="14.00">summary :text</text>
<text text-anchor="start" x="323.182" y="-725.3" font-family="Times,serif" font-size="14.00">url :string</text>
<text text-anchor="start" x="323.182" y="-711.3" font-family="Times,serif" font-size="14.00">created_at :datetime</text>
<text text-anchor="start" x="323.182" y="-697.3" font-family="Times,serif" font-size="14.00">updated_at :datetime</text>
<text text-anchor="start" x="323.182" y="-683.3" font-family="Times,serif" font-size="14.00">user_id :integer</text>
</g>
<!-- BackgroundInfo -->
<g id="node4" class="node"><title>BackgroundInfo</title>
<path fill="none" stroke="black" d="M1594.96,-690.5C1594.96,-690.5 1730.41,-690.5 1730.41,-690.5 1736.41,-690.5 1742.41,-696.5 1742.41,-702.5 1742.41,-702.5 1742.41,-778.5 1742.41,-778.5 1742.41,-784.5 1736.41,-790.5 1730.41,-790.5 1730.41,-790.5 1594.96,-790.5 1594.96,-790.5 1588.96,-790.5 1582.96,-784.5 1582.96,-778.5 1582.96,-778.5 1582.96,-702.5 1582.96,-702.5 1582.96,-696.5 1588.96,-690.5 1594.96,-690.5"/>
<text text-anchor="middle" x="1662.69" y="-775.3" font-family="Times,serif" font-size="14.00">BackgroundInfo</text>
<polyline fill="none" stroke="black" points="1582.96,-768.5 1742.41,-768.5 "/>
<text text-anchor="start" x="1590.96" y="-753.3" font-family="Times,serif" font-size="14.00">id :integer</text>
<text text-anchor="start" x="1590.96" y="-739.3" font-family="Times,serif" font-size="14.00">background_type :integer</text>
<text text-anchor="start" x="1590.96" y="-725.3" font-family="Times,serif" font-size="14.00">created_at :datetime</text>
<text text-anchor="start" x="1590.96" y="-711.3" font-family="Times,serif" font-size="14.00">updated_at :datetime</text>
<text text-anchor="start" x="1590.96" y="-697.3" font-family="Times,serif" font-size="14.00">user_id :integer</text>
</g>
<!-- Experience -->
<g id="node5" class="node"><title>Experience</title>
<path fill="none" stroke="black" d="M1640.79,-154.5C1640.79,-154.5 1792.58,-154.5 1792.58,-154.5 1798.58,-154.5 1804.58,-160.5 1804.58,-166.5 1804.58,-166.5 1804.58,-298.5 1804.58,-298.5 1804.58,-304.5 1798.58,-310.5 1792.58,-310.5 1792.58,-310.5 1640.79,-310.5 1640.79,-310.5 1634.79,-310.5 1628.79,-304.5 1628.79,-298.5 1628.79,-298.5 1628.79,-166.5 1628.79,-166.5 1628.79,-160.5 1634.79,-154.5 1640.79,-154.5"/>
<text text-anchor="middle" x="1716.69" y="-295.3" font-family="Times,serif" font-size="14.00">Experience</text>
<polyline fill="none" stroke="black" points="1628.79,-288.5 1804.58,-288.5 "/>
<text text-anchor="start" x="1636.79" y="-273.3" font-family="Times,serif" font-size="14.00">id :integer</text>
<text text-anchor="start" x="1636.79" y="-259.3" font-family="Times,serif" font-size="14.00">url :string</text>
<text text-anchor="start" x="1636.79" y="-245.3" font-family="Times,serif" font-size="14.00">created_at :datetime</text>
<text text-anchor="start" x="1636.79" y="-231.3" font-family="Times,serif" font-size="14.00">updated_at :datetime</text>
<text text-anchor="start" x="1636.79" y="-217.3" font-family="Times,serif" font-size="14.00">img_file_name :string</text>
<text text-anchor="start" x="1636.79" y="-203.3" font-family="Times,serif" font-size="14.00">img_content_type :string</text>
<text text-anchor="start" x="1636.79" y="-189.3" font-family="Times,serif" font-size="14.00">img_file_size :integer</text>
<text text-anchor="start" x="1636.79" y="-175.3" font-family="Times,serif" font-size="14.00">img_updated_at :datetime</text>
<text text-anchor="start" x="1636.79" y="-161.3" font-family="Times,serif" font-size="14.00">background_info_id :integer</text>
</g>
<!-- BackgroundInfo&#45;&gt;Experience -->
<g id="edge1" class="edge"><title>BackgroundInfo&#45;&gt;Experience</title>
<path fill="none" stroke="#b5114f" d="M1668.82,-682.045C1678.24,-593.781 1696.34,-424.207 1707.38,-320.726"/>
<ellipse fill="none" stroke="#b5114f" cx="1668.39" cy="-686.084" rx="4" ry="4"/>
<polygon fill="#b5114f" stroke="#b5114f" points="1707.4,-320.557 1712.93,-311.091 1707.93,-315.586 1708.46,-310.614 1708.46,-310.614 1708.46,-310.614 1707.93,-315.586 1703.98,-310.136 1707.4,-320.557 1707.4,-320.557"/>
</g>
<!-- HomepageInfo -->
<g id="node6" class="node"><title>HomepageInfo</title>
<path fill="none" stroke="black" d="M477.865,-655.5C477.865,-655.5 675.51,-655.5 675.51,-655.5 681.51,-655.5 687.51,-661.5 687.51,-667.5 687.51,-667.5 687.51,-813.5 687.51,-813.5 687.51,-819.5 681.51,-825.5 675.51,-825.5 675.51,-825.5 477.865,-825.5 477.865,-825.5 471.865,-825.5 465.865,-819.5 465.865,-813.5 465.865,-813.5 465.865,-667.5 465.865,-667.5 465.865,-661.5 471.865,-655.5 477.865,-655.5"/>
<text text-anchor="middle" x="576.688" y="-810.3" font-family="Times,serif" font-size="14.00">HomepageInfo</text>
<polyline fill="none" stroke="black" points="465.865,-803.5 687.51,-803.5 "/>
<text text-anchor="start" x="473.865" y="-788.3" font-family="Times,serif" font-size="14.00">id :integer</text>
<text text-anchor="start" x="473.865" y="-774.3" font-family="Times,serif" font-size="14.00">homepage_header :string</text>
<text text-anchor="start" x="473.865" y="-760.3" font-family="Times,serif" font-size="14.00">homepage_display_name :string</text>
<text text-anchor="start" x="473.865" y="-746.3" font-family="Times,serif" font-size="14.00">user_id :integer</text>
<text text-anchor="start" x="473.865" y="-732.3" font-family="Times,serif" font-size="14.00">created_at :datetime</text>
<text text-anchor="start" x="473.865" y="-718.3" font-family="Times,serif" font-size="14.00">updated_at :datetime</text>
<text text-anchor="start" x="473.865" y="-704.3" font-family="Times,serif" font-size="14.00">homepage_pic_file_name :string</text>
<text text-anchor="start" x="473.865" y="-690.3" font-family="Times,serif" font-size="14.00">homepage_pic_content_type :string</text>
<text text-anchor="start" x="473.865" y="-676.3" font-family="Times,serif" font-size="14.00">homepage_pic_file_size :integer</text>
<text text-anchor="start" x="473.865" y="-662.3" font-family="Times,serif" font-size="14.00">homepage_pic_updated_at :datetime</text>
</g>
<!-- PersonalInfo -->
<g id="node7" class="node"><title>PersonalInfo</title>
<path fill="none" stroke="black" d="M717.079,-501.5C717.079,-501.5 888.297,-501.5 888.297,-501.5 894.297,-501.5 900.297,-507.5 900.297,-513.5 900.297,-513.5 900.297,-967.5 900.297,-967.5 900.297,-973.5 894.297,-979.5 888.297,-979.5 888.297,-979.5 717.079,-979.5 717.079,-979.5 711.079,-979.5 705.079,-973.5 705.079,-967.5 705.079,-967.5 705.079,-513.5 705.079,-513.5 705.079,-507.5 711.079,-501.5 717.079,-501.5"/>
<text text-anchor="middle" x="802.688" y="-964.3" font-family="Times,serif" font-size="14.00">PersonalInfo</text>
<polyline fill="none" stroke="black" points="705.079,-957.5 900.297,-957.5 "/>
<text text-anchor="start" x="713.079" y="-942.3" font-family="Times,serif" font-size="14.00">id :integer</text>
<text text-anchor="start" x="713.079" y="-928.3" font-family="Times,serif" font-size="14.00">name_first :string</text>
<text text-anchor="start" x="713.079" y="-914.3" font-family="Times,serif" font-size="14.00">name_last :string</text>
<text text-anchor="start" x="713.079" y="-900.3" font-family="Times,serif" font-size="14.00">intro_paragraph :text</text>
<text text-anchor="start" x="713.079" y="-886.3" font-family="Times,serif" font-size="14.00">created_at :datetime</text>
<text text-anchor="start" x="713.079" y="-872.3" font-family="Times,serif" font-size="14.00">updated_at :datetime</text>
<text text-anchor="start" x="713.079" y="-858.3" font-family="Times,serif" font-size="14.00">about_pic_file_name :string</text>
<text text-anchor="start" x="713.079" y="-844.3" font-family="Times,serif" font-size="14.00">about_pic_content_type :string</text>
<text text-anchor="start" x="713.079" y="-830.3" font-family="Times,serif" font-size="14.00">about_pic_file_size :integer</text>
<text text-anchor="start" x="713.079" y="-816.3" font-family="Times,serif" font-size="14.00">about_pic_updated_at :datetime</text>
<text text-anchor="start" x="713.079" y="-802.3" font-family="Times,serif" font-size="14.00">user_id :integer</text>
<text text-anchor="start" x="713.079" y="-788.3" font-family="Times,serif" font-size="14.00">resume_file_name :string</text>
<text text-anchor="start" x="713.079" y="-774.3" font-family="Times,serif" font-size="14.00">resume_content_type :string</text>
<text text-anchor="start" x="713.079" y="-760.3" font-family="Times,serif" font-size="14.00">resume_file_size :integer</text>
<text text-anchor="start" x="713.079" y="-746.3" font-family="Times,serif" font-size="14.00">resume_updated_at :datetime</text>
<text text-anchor="start" x="713.079" y="-732.3" font-family="Times,serif" font-size="14.00">vertical :boolean</text>
<text text-anchor="start" x="713.079" y="-718.3" font-family="Times,serif" font-size="14.00">exp1_file_name :string</text>
<text text-anchor="start" x="713.079" y="-704.3" font-family="Times,serif" font-size="14.00">exp1_content_type :string</text>
<text text-anchor="start" x="713.079" y="-690.3" font-family="Times,serif" font-size="14.00">exp1_file_size :integer</text>
<text text-anchor="start" x="713.079" y="-676.3" font-family="Times,serif" font-size="14.00">exp1_updated_at :datetime</text>
<text text-anchor="start" x="713.079" y="-662.3" font-family="Times,serif" font-size="14.00">exp2_file_name :string</text>
<text text-anchor="start" x="713.079" y="-648.3" font-family="Times,serif" font-size="14.00">exp2_content_type :string</text>
<text text-anchor="start" x="713.079" y="-634.3" font-family="Times,serif" font-size="14.00">exp2_file_size :integer</text>
<text text-anchor="start" x="713.079" y="-620.3" font-family="Times,serif" font-size="14.00">exp2_updated_at :datetime</text>
<text text-anchor="start" x="713.079" y="-606.3" font-family="Times,serif" font-size="14.00">exp3_file_name :string</text>
<text text-anchor="start" x="713.079" y="-592.3" font-family="Times,serif" font-size="14.00">exp3_content_type :string</text>
<text text-anchor="start" x="713.079" y="-578.3" font-family="Times,serif" font-size="14.00">exp3_file_size :integer</text>
<text text-anchor="start" x="713.079" y="-564.3" font-family="Times,serif" font-size="14.00">exp3_updated_at :datetime</text>
<text text-anchor="start" x="713.079" y="-550.3" font-family="Times,serif" font-size="14.00">exp4_file_name :string</text>
<text text-anchor="start" x="713.079" y="-536.3" font-family="Times,serif" font-size="14.00">exp4_content_type :string</text>
<text text-anchor="start" x="713.079" y="-522.3" font-family="Times,serif" font-size="14.00">exp4_file_size :integer</text>
<text text-anchor="start" x="713.079" y="-508.3" font-family="Times,serif" font-size="14.00">exp4_updated_at :datetime</text>
</g>
<!-- PhotoLink -->
<g id="node8" class="node"><title>PhotoLink</title>
<path fill="none" stroke="black" d="M930.182,-690.5C930.182,-690.5 1039.19,-690.5 1039.19,-690.5 1045.19,-690.5 1051.19,-696.5 1051.19,-702.5 1051.19,-702.5 1051.19,-778.5 1051.19,-778.5 1051.19,-784.5 1045.19,-790.5 1039.19,-790.5 1039.19,-790.5 930.182,-790.5 930.182,-790.5 924.182,-790.5 918.182,-784.5 918.182,-778.5 918.182,-778.5 918.182,-702.5 918.182,-702.5 918.182,-696.5 924.182,-690.5 930.182,-690.5"/>
<text text-anchor="middle" x="984.688" y="-775.3" font-family="Times,serif" font-size="14.00">PhotoLink</text>
<polyline fill="none" stroke="black" points="918.182,-768.5 1051.19,-768.5 "/>
<text text-anchor="start" x="926.182" y="-753.3" font-family="Times,serif" font-size="14.00">id :integer</text>
<text text-anchor="start" x="926.182" y="-739.3" font-family="Times,serif" font-size="14.00">tumblr_url :string</text>
<text text-anchor="start" x="926.182" y="-725.3" font-family="Times,serif" font-size="14.00">user_id :integer</text>
<text text-anchor="start" x="926.182" y="-711.3" font-family="Times,serif" font-size="14.00">created_at :datetime</text>
<text text-anchor="start" x="926.182" y="-697.3" font-family="Times,serif" font-size="14.00">updated_at :datetime</text>
</g>
<!-- Project -->
<g id="node9" class="node"><title>Project</title>
<path fill="none" stroke="black" d="M1009.24,-0.5C1009.24,-0.5 1150.14,-0.5 1150.14,-0.5 1156.14,-0.5 1162.14,-6.5 1162.14,-12.5 1162.14,-12.5 1162.14,-452.5 1162.14,-452.5 1162.14,-458.5 1156.14,-464.5 1150.14,-464.5 1150.14,-464.5 1009.24,-464.5 1009.24,-464.5 1003.24,-464.5 997.238,-458.5 997.238,-452.5 997.238,-452.5 997.238,-12.5 997.238,-12.5 997.238,-6.5 1003.24,-0.5 1009.24,-0.5"/>
<text text-anchor="middle" x="1079.69" y="-449.3" font-family="Times,serif" font-size="14.00">Project</text>
<polyline fill="none" stroke="black" points="997.238,-442.5 1162.14,-442.5 "/>
<text text-anchor="start" x="1005.24" y="-427.3" font-family="Times,serif" font-size="14.00">id :integer</text>
<text text-anchor="start" x="1005.24" y="-413.3" font-family="Times,serif" font-size="14.00">title :string</text>
<text text-anchor="start" x="1005.24" y="-399.3" font-family="Times,serif" font-size="14.00">paragraph :text</text>
<text text-anchor="start" x="1005.24" y="-385.3" font-family="Times,serif" font-size="14.00">created_at :datetime</text>
<text text-anchor="start" x="1005.24" y="-371.3" font-family="Times,serif" font-size="14.00">updated_at :datetime</text>
<text text-anchor="start" x="1005.24" y="-357.3" font-family="Times,serif" font-size="14.00">file1_file_name :string</text>
<text text-anchor="start" x="1005.24" y="-343.3" font-family="Times,serif" font-size="14.00">file1_content_type :string</text>
<text text-anchor="start" x="1005.24" y="-329.3" font-family="Times,serif" font-size="14.00">file1_file_size :integer</text>
<text text-anchor="start" x="1005.24" y="-315.3" font-family="Times,serif" font-size="14.00">file1_updated_at :datetime</text>
<text text-anchor="start" x="1005.24" y="-301.3" font-family="Times,serif" font-size="14.00">file2_file_name :string</text>
<text text-anchor="start" x="1005.24" y="-287.3" font-family="Times,serif" font-size="14.00">file2_content_type :string</text>
<text text-anchor="start" x="1005.24" y="-273.3" font-family="Times,serif" font-size="14.00">file2_file_size :integer</text>
<text text-anchor="start" x="1005.24" y="-259.3" font-family="Times,serif" font-size="14.00">file2_updated_at :datetime</text>
<text text-anchor="start" x="1005.24" y="-245.3" font-family="Times,serif" font-size="14.00">file3_file_name :string</text>
<text text-anchor="start" x="1005.24" y="-231.3" font-family="Times,serif" font-size="14.00">file3_content_type :string</text>
<text text-anchor="start" x="1005.24" y="-217.3" font-family="Times,serif" font-size="14.00">file3_file_size :integer</text>
<text text-anchor="start" x="1005.24" y="-203.3" font-family="Times,serif" font-size="14.00">file3_updated_at :datetime</text>
<text text-anchor="start" x="1005.24" y="-189.3" font-family="Times,serif" font-size="14.00">file4_file_name :string</text>
<text text-anchor="start" x="1005.24" y="-175.3" font-family="Times,serif" font-size="14.00">file4_content_type :string</text>
<text text-anchor="start" x="1005.24" y="-161.3" font-family="Times,serif" font-size="14.00">file4_file_size :integer</text>
<text text-anchor="start" x="1005.24" y="-147.3" font-family="Times,serif" font-size="14.00">file4_updated_at :datetime</text>
<text text-anchor="start" x="1005.24" y="-133.3" font-family="Times,serif" font-size="14.00">showcase_id :integer</text>
<text text-anchor="start" x="1005.24" y="-119.3" font-family="Times,serif" font-size="14.00">file1_type :integer</text>
<text text-anchor="start" x="1005.24" y="-105.3" font-family="Times,serif" font-size="14.00">file2_type :integer</text>
<text text-anchor="start" x="1005.24" y="-91.3" font-family="Times,serif" font-size="14.00">file3_type :integer</text>
<text text-anchor="start" x="1005.24" y="-77.3" font-family="Times,serif" font-size="14.00">file4_type :integer</text>
<text text-anchor="start" x="1005.24" y="-63.3" font-family="Times,serif" font-size="14.00">file1_title :string</text>
<text text-anchor="start" x="1005.24" y="-49.3" font-family="Times,serif" font-size="14.00">file2_title :string</text>
<text text-anchor="start" x="1005.24" y="-35.3" font-family="Times,serif" font-size="14.00">file3_title :string</text>
<text text-anchor="start" x="1005.24" y="-21.3" font-family="Times,serif" font-size="14.00">file4_title :string</text>
<text text-anchor="start" x="1005.24" y="-7.3" font-family="Times,serif" font-size="14.00">url :string</text>
</g>
<!-- School -->
<g id="node10" class="node"><title>School</title>
<path fill="none" stroke="black" d="M311.238,-1335.5C311.238,-1335.5 452.138,-1335.5 452.138,-1335.5 458.138,-1335.5 464.138,-1341.5 464.138,-1347.5 464.138,-1347.5 464.138,-1493.5 464.138,-1493.5 464.138,-1499.5 458.138,-1505.5 452.138,-1505.5 452.138,-1505.5 311.238,-1505.5 311.238,-1505.5 305.238,-1505.5 299.238,-1499.5 299.238,-1493.5 299.238,-1493.5 299.238,-1347.5 299.238,-1347.5 299.238,-1341.5 305.238,-1335.5 311.238,-1335.5"/>
<text text-anchor="middle" x="381.688" y="-1490.3" font-family="Times,serif" font-size="14.00">School</text>
<polyline fill="none" stroke="black" points="299.238,-1483.5 464.138,-1483.5 "/>
<text text-anchor="start" x="307.238" y="-1468.3" font-family="Times,serif" font-size="14.00">id :integer</text>
<text text-anchor="start" x="307.238" y="-1454.3" font-family="Times,serif" font-size="14.00">name :string</text>
<text text-anchor="start" x="307.238" y="-1440.3" font-family="Times,serif" font-size="14.00">created_at :datetime</text>
<text text-anchor="start" x="307.238" y="-1426.3" font-family="Times,serif" font-size="14.00">updated_at :datetime</text>
<text text-anchor="start" x="307.238" y="-1412.3" font-family="Times,serif" font-size="14.00">logo_file_name :string</text>
<text text-anchor="start" x="307.238" y="-1398.3" font-family="Times,serif" font-size="14.00">logo_content_type :string</text>
<text text-anchor="start" x="307.238" y="-1384.3" font-family="Times,serif" font-size="14.00">logo_file_size :integer</text>
<text text-anchor="start" x="307.238" y="-1370.3" font-family="Times,serif" font-size="14.00">logo_updated_at :datetime</text>
<text text-anchor="start" x="307.238" y="-1356.3" font-family="Times,serif" font-size="14.00">color1 :string</text>
<text text-anchor="start" x="307.238" y="-1342.3" font-family="Times,serif" font-size="14.00">color2 :string</text>
</g>
<!-- School&#45;&gt;Article -->
<g id="edge4" class="edge"><title>School&#45;&gt;Article</title>
<path fill="none" stroke="#62e246" d="M381.688,-1325.03C381.688,-1188.48 381.688,-938.792 381.688,-815.044"/>
<polygon fill="#62e246" stroke="#62e246" points="381.688,-1325.34 377.188,-1335.34 381.688,-1330.34 381.688,-1335.34 381.688,-1335.34 381.688,-1335.34 381.688,-1330.34 386.188,-1335.34 381.688,-1325.34 381.688,-1325.34"/>
<polygon fill="#62e246" stroke="#62e246" points="381.688,-814.911 386.188,-804.911 381.688,-809.911 381.688,-804.911 381.688,-804.911 381.688,-804.911 381.688,-809.911 377.188,-804.911 381.688,-814.911 381.688,-814.911"/>
</g>
<!-- School&#45;&gt;Project -->
<g id="edge3" class="edge"><title>School&#45;&gt;Project</title>
<path fill="none" stroke="#6d0901" d="M337.644,-1325.82C260.756,-1147.03 126.46,-752.572 305.688,-501 463.635,-279.298 818.269,-239.591 987.034,-233.66"/>
<polygon fill="#6d0901" stroke="#6d0901" points="337.737,-1326.04 337.586,-1337 339.726,-1330.62 341.714,-1335.21 341.714,-1335.21 341.714,-1335.21 339.726,-1330.62 345.843,-1333.42 337.737,-1326.04 337.737,-1326.04"/>
<polygon fill="#6d0901" stroke="#6d0901" points="987.146,-233.657 997.285,-237.836 992.144,-233.497 997.141,-233.338 997.141,-233.338 997.141,-233.338 992.144,-233.497 996.998,-228.84 987.146,-233.657 987.146,-233.657"/>
</g>
<!-- User -->
<g id="node13" class="node"><title>User</title>
<path fill="none" stroke="black" d="M989.41,-1016.5C989.41,-1016.5 1169.97,-1016.5 1169.97,-1016.5 1175.97,-1016.5 1181.97,-1022.5 1181.97,-1028.5 1181.97,-1028.5 1181.97,-1286.5 1181.97,-1286.5 1181.97,-1292.5 1175.97,-1298.5 1169.97,-1298.5 1169.97,-1298.5 989.41,-1298.5 989.41,-1298.5 983.41,-1298.5 977.41,-1292.5 977.41,-1286.5 977.41,-1286.5 977.41,-1028.5 977.41,-1028.5 977.41,-1022.5 983.41,-1016.5 989.41,-1016.5"/>
<text text-anchor="middle" x="1079.69" y="-1283.3" font-family="Times,serif" font-size="14.00">User</text>
<polyline fill="none" stroke="black" points="977.41,-1276.5 1181.97,-1276.5 "/>
<text text-anchor="start" x="985.41" y="-1261.3" font-family="Times,serif" font-size="14.00">id :integer</text>
<text text-anchor="start" x="985.41" y="-1247.3" font-family="Times,serif" font-size="14.00">created_at :datetime</text>
<text text-anchor="start" x="985.41" y="-1233.3" font-family="Times,serif" font-size="14.00">updated_at :datetime</text>
<text text-anchor="start" x="985.41" y="-1219.3" font-family="Times,serif" font-size="14.00">email :string</text>
<text text-anchor="start" x="985.41" y="-1205.3" font-family="Times,serif" font-size="14.00">encrypted_password :string</text>
<text text-anchor="start" x="985.41" y="-1191.3" font-family="Times,serif" font-size="14.00">reset_password_token :string</text>
<text text-anchor="start" x="985.41" y="-1177.3" font-family="Times,serif" font-size="14.00">reset_password_sent_at :datetime</text>
<text text-anchor="start" x="985.41" y="-1163.3" font-family="Times,serif" font-size="14.00">remember_created_at :datetime</text>
<text text-anchor="start" x="985.41" y="-1149.3" font-family="Times,serif" font-size="14.00">sign_in_count :integer</text>
<text text-anchor="start" x="985.41" y="-1135.3" font-family="Times,serif" font-size="14.00">current_sign_in_at :datetime</text>
<text text-anchor="start" x="985.41" y="-1121.3" font-family="Times,serif" font-size="14.00">last_sign_in_at :datetime</text>
<text text-anchor="start" x="985.41" y="-1107.3" font-family="Times,serif" font-size="14.00">current_sign_in_ip :inet</text>
<text text-anchor="start" x="985.41" y="-1093.3" font-family="Times,serif" font-size="14.00">last_sign_in_ip :inet</text>
<text text-anchor="start" x="985.41" y="-1079.3" font-family="Times,serif" font-size="14.00">confirmation_token :string</text>
<text text-anchor="start" x="985.41" y="-1065.3" font-family="Times,serif" font-size="14.00">confirmed_at :datetime</text>
<text text-anchor="start" x="985.41" y="-1051.3" font-family="Times,serif" font-size="14.00">confirmation_sent_at :datetime</text>
<text text-anchor="start" x="985.41" y="-1037.3" font-family="Times,serif" font-size="14.00">unconfirmed_email :string</text>
<text text-anchor="start" x="985.41" y="-1023.3" font-family="Times,serif" font-size="14.00">school_id :integer</text>
</g>
<!-- School&#45;&gt;User -->
<g id="edge2" class="edge"><title>School&#45;&gt;User</title>
<path fill="none" stroke="#563697" d="M471.786,-1385.81C598.658,-1338.37 829.824,-1251.93 967.624,-1200.4"/>
<ellipse fill="none" stroke="#563697" cx="467.9" cy="-1387.26" rx="4.00001" ry="4.00001"/>
<polygon fill="#563697" stroke="#563697" points="968.015,-1200.26 978.957,-1200.97 972.698,-1198.51 977.381,-1196.76 977.381,-1196.76 977.381,-1196.76 972.698,-1198.51 975.805,-1192.54 968.015,-1200.26 968.015,-1200.26"/>
</g>
<!-- Showcase -->
<g id="node11" class="node"><title>Showcase</title>
<path fill="none" stroke="black" d="M1120.18,-690.5C1120.18,-690.5 1243.19,-690.5 1243.19,-690.5 1249.19,-690.5 1255.19,-696.5 1255.19,-702.5 1255.19,-702.5 1255.19,-778.5 1255.19,-778.5 1255.19,-784.5 1249.19,-790.5 1243.19,-790.5 1243.19,-790.5 1120.18,-790.5 1120.18,-790.5 1114.18,-790.5 1108.18,-784.5 1108.18,-778.5 1108.18,-778.5 1108.18,-702.5 1108.18,-702.5 1108.18,-696.5 1114.18,-690.5 1120.18,-690.5"/>
<text text-anchor="middle" x="1181.69" y="-775.3" font-family="Times,serif" font-size="14.00">Showcase</text>
<polyline fill="none" stroke="black" points="1108.18,-768.5 1255.19,-768.5 "/>
<text text-anchor="start" x="1116.18" y="-753.3" font-family="Times,serif" font-size="14.00">id :integer</text>
<text text-anchor="start" x="1116.18" y="-739.3" font-family="Times,serif" font-size="14.00">showcase_type :integer</text>
<text text-anchor="start" x="1116.18" y="-725.3" font-family="Times,serif" font-size="14.00">created_at :datetime</text>
<text text-anchor="start" x="1116.18" y="-711.3" font-family="Times,serif" font-size="14.00">updated_at :datetime</text>
<text text-anchor="start" x="1116.18" y="-697.3" font-family="Times,serif" font-size="14.00">user_id :integer</text>
</g>
<!-- Showcase&#45;&gt;Project -->
<g id="edge5" class="edge"><title>Showcase&#45;&gt;Project</title>
<path fill="none" stroke="#6b05fc" d="M1170.11,-682.057C1159.76,-630.712 1143.86,-551.844 1128.26,-474.479"/>
<ellipse fill="none" stroke="#6b05fc" cx="1170.93" cy="-686.14" rx="4.00001" ry="4.00001"/>
<polygon fill="#6b05fc" stroke="#6b05fc" points="1128.24,-474.366 1130.68,-463.674 1127.25,-469.465 1126.27,-464.563 1126.27,-464.563 1126.27,-464.563 1127.25,-469.465 1121.85,-465.453 1128.24,-474.366 1128.24,-474.366"/>
</g>
<!-- SocialLink -->
<g id="node12" class="node"><title>SocialLink</title>
<path fill="none" stroke="black" d="M1285.05,-648.5C1285.05,-648.5 1400.32,-648.5 1400.32,-648.5 1406.32,-648.5 1412.32,-654.5 1412.32,-660.5 1412.32,-660.5 1412.32,-820.5 1412.32,-820.5 1412.32,-826.5 1406.32,-832.5 1400.32,-832.5 1400.32,-832.5 1285.05,-832.5 1285.05,-832.5 1279.05,-832.5 1273.05,-826.5 1273.05,-820.5 1273.05,-820.5 1273.05,-660.5 1273.05,-660.5 1273.05,-654.5 1279.05,-648.5 1285.05,-648.5"/>
<text text-anchor="middle" x="1342.69" y="-817.3" font-family="Times,serif" font-size="14.00">SocialLink</text>
<polyline fill="none" stroke="black" points="1273.05,-810.5 1412.32,-810.5 "/>
<text text-anchor="start" x="1281.05" y="-795.3" font-family="Times,serif" font-size="14.00">id :integer</text>
<text text-anchor="start" x="1281.05" y="-781.3" font-family="Times,serif" font-size="14.00">link_linkedin :string</text>
<text text-anchor="start" x="1281.05" y="-767.3" font-family="Times,serif" font-size="14.00">link_instagram :string</text>
<text text-anchor="start" x="1281.05" y="-753.3" font-family="Times,serif" font-size="14.00">link_facebook :string</text>
<text text-anchor="start" x="1281.05" y="-739.3" font-family="Times,serif" font-size="14.00">link_twitter :string</text>
<text text-anchor="start" x="1281.05" y="-725.3" font-family="Times,serif" font-size="14.00">link_tumblr :string</text>
<text text-anchor="start" x="1281.05" y="-711.3" font-family="Times,serif" font-size="14.00">link_github :string</text>
<text text-anchor="start" x="1281.05" y="-697.3" font-family="Times,serif" font-size="14.00">link_alt_email :string</text>
<text text-anchor="start" x="1281.05" y="-683.3" font-family="Times,serif" font-size="14.00">created_at :datetime</text>
<text text-anchor="start" x="1281.05" y="-669.3" font-family="Times,serif" font-size="14.00">updated_at :datetime</text>
<text text-anchor="start" x="1281.05" y="-655.3" font-family="Times,serif" font-size="14.00">user_id :integer</text>
</g>
<!-- User&#45;&gt;Article -->
<g id="edge6" class="edge"><title>User&#45;&gt;Article</title>
<path fill="none" stroke="#abb505" d="M969.21,-1155.59C831.114,-1148.42 596.004,-1115.39 456.688,-980 412.165,-936.733 393.981,-867.362 386.603,-814.564"/>
<ellipse fill="none" stroke="#abb505" cx="973.35" cy="-1155.79" rx="4" ry="4"/>
<polygon fill="#abb505" stroke="#abb505" points="386.593,-814.49 389.769,-803.994 385.95,-809.532 385.306,-804.573 385.306,-804.573 385.306,-804.573 385.95,-809.532 380.844,-805.152 386.593,-814.49 386.593,-814.49"/>
</g>
<!-- User&#45;&gt;BackgroundInfo -->
<g id="edge7" class="edge"><title>User&#45;&gt;BackgroundInfo</title>
<path fill="none" stroke="#24ebbf" d="M1190.21,-1144.15C1300.87,-1126.21 1469.3,-1082.94 1573.69,-980 1623.23,-931.151 1645.49,-852.196 1655.3,-798.631"/>
<ellipse fill="none" stroke="#24ebbf" cx="1185.96" cy="-1144.82" rx="4.00001" ry="4.00001"/>
<ellipse fill="#24ebbf" stroke="#24ebbf" cx="1656.02" cy="-794.53" rx="4.00001" ry="4.00001"/>
</g>
<!-- User&#45;&gt;Experience -->
<g id="edge8" class="edge"><title>User&#45;&gt;Experience</title>
<path fill="none" stroke="#347ef6" d="M1192.25,-1143.44C1365.28,-1120.8 1683.79,-1068.03 1751.69,-980 1829.37,-879.283 1767.53,-494.951 1734.32,-320.522"/>
<polygon fill="#347ef6" stroke="#347ef6" points="1192,-1143.48 1181.51,-1140.3 1187.04,-1144.12 1182.08,-1144.76 1182.08,-1144.76 1182.08,-1144.76 1187.04,-1144.12 1182.66,-1149.22 1192,-1143.48 1192,-1143.48"/>
<polygon fill="#347ef6" stroke="#347ef6" points="1734.3,-320.426 1736.84,-309.758 1733.36,-315.515 1732.42,-310.605 1732.42,-310.605 1732.42,-310.605 1733.36,-315.515 1728,-311.452 1734.3,-320.426 1734.3,-320.426"/>
</g>
<!-- User&#45;&gt;HomepageInfo -->
<g id="edge9" class="edge"><title>User&#45;&gt;HomepageInfo</title>
<path fill="none" stroke="#856672" d="M969.609,-1127.73C885.869,-1101.11 772.351,-1054.25 695.688,-980 654.118,-939.739 624.765,-881.897 605.612,-833.259"/>
<ellipse fill="none" stroke="#856672" cx="973.546" cy="-1128.96" rx="4.00001" ry="4.00001"/>
<ellipse fill="#856672" stroke="#856672" cx="604.068" cy="-829.267" rx="4.00001" ry="4.00001"/>
</g>
<!-- User&#45;&gt;PersonalInfo -->
<g id="edge10" class="edge"><title>User&#45;&gt;PersonalInfo</title>
<path fill="none" stroke="#46e0d0" d="M971.502,-1056.9C949.036,-1033.06 926.736,-1006.73 908.688,-980 907.38,-978.064 906.083,-976.109 904.795,-974.136"/>
<ellipse fill="none" stroke="#46e0d0" cx="974.458" cy="-1060.01" rx="4.00002" ry="4.00002"/>
<ellipse fill="#46e0d0" stroke="#46e0d0" cx="902.613" cy="-970.734" rx="4.00002" ry="4.00002"/>
</g>
<!-- User&#45;&gt;PhotoLink -->
<g id="edge11" class="edge"><title>User&#45;&gt;PhotoLink</title>
<path fill="none" stroke="#04ab77" d="M1045.8,-1008.46C1029.17,-935.83 1010.12,-852.577 997.764,-798.624"/>
<ellipse fill="none" stroke="#04ab77" cx="1046.7" cy="-1012.39" rx="4.00001" ry="4.00001"/>
<ellipse fill="#04ab77" stroke="#04ab77" cx="996.809" cy="-794.451" rx="4.00001" ry="4.00001"/>
</g>
<!-- User&#45;&gt;Project -->
<g id="edge13" class="edge"><title>User&#45;&gt;Project</title>
<path fill="none" stroke="#f9984d" d="M1079.69,-1005.89C1079.69,-862.173 1079.69,-643.261 1079.69,-475.143"/>
<polygon fill="#f9984d" stroke="#f9984d" points="1079.69,-1006.32 1075.19,-1016.32 1079.69,-1011.32 1079.69,-1016.32 1079.69,-1016.32 1079.69,-1016.32 1079.69,-1011.32 1084.19,-1016.32 1079.69,-1006.32 1079.69,-1006.32"/>
<polygon fill="#f9984d" stroke="#f9984d" points="1079.69,-474.904 1084.19,-464.904 1079.69,-469.904 1079.69,-464.904 1079.69,-464.904 1079.69,-464.904 1079.69,-469.904 1075.19,-464.904 1079.69,-474.904 1079.69,-474.904"/>
</g>
<!-- User&#45;&gt;Showcase -->
<g id="edge12" class="edge"><title>User&#45;&gt;Showcase</title>
<path fill="none" stroke="#16d681" d="M1116.07,-1008.46C1133.92,-935.83 1154.39,-852.577 1167.65,-798.624"/>
<ellipse fill="none" stroke="#16d681" cx="1115.1" cy="-1012.4" rx="4.00001" ry="4.00001"/>
<ellipse fill="#16d681" stroke="#16d681" cx="1168.68" cy="-794.436" rx="4.00001" ry="4.00001"/>
</g>
<!-- User&#45;&gt;SocialLink -->
<g id="edge14" class="edge"><title>User&#45;&gt;SocialLink</title>
<path fill="none" stroke="#68a3a5" d="M1188.35,-1069.85C1216.24,-1043.39 1244.13,-1012.6 1264.69,-980 1291.32,-937.761 1309.74,-885.535 1321.96,-840.733"/>
<ellipse fill="none" stroke="#68a3a5" cx="1185.32" cy="-1072.69" rx="4.00002" ry="4.00002"/>
<ellipse fill="#68a3a5" stroke="#68a3a5" cx="1323.06" cy="-836.611" rx="4.00001" ry="4.00001"/>
</g>
<!-- WebsiteSetting -->
<g id="node14" class="node"><title>WebsiteSetting</title>
<path fill="none" stroke="black" d="M1442.39,-683.5C1442.39,-683.5 1552.98,-683.5 1552.98,-683.5 1558.98,-683.5 1564.98,-689.5 1564.98,-695.5 1564.98,-695.5 1564.98,-785.5 1564.98,-785.5 1564.98,-791.5 1558.98,-797.5 1552.98,-797.5 1552.98,-797.5 1442.39,-797.5 1442.39,-797.5 1436.39,-797.5 1430.39,-791.5 1430.39,-785.5 1430.39,-785.5 1430.39,-695.5 1430.39,-695.5 1430.39,-689.5 1436.39,-683.5 1442.39,-683.5"/>
<text text-anchor="middle" x="1497.69" y="-782.3" font-family="Times,serif" font-size="14.00">WebsiteSetting</text>
<polyline fill="none" stroke="black" points="1430.39,-775.5 1564.98,-775.5 "/>
<text text-anchor="start" x="1438.39" y="-760.3" font-family="Times,serif" font-size="14.00">id :integer</text>
<text text-anchor="start" x="1438.39" y="-746.3" font-family="Times,serif" font-size="14.00">domain_name :string</text>
<text text-anchor="start" x="1438.39" y="-732.3" font-family="Times,serif" font-size="14.00">color :integer</text>
<text text-anchor="start" x="1438.39" y="-718.3" font-family="Times,serif" font-size="14.00">created_at :datetime</text>
<text text-anchor="start" x="1438.39" y="-704.3" font-family="Times,serif" font-size="14.00">updated_at :datetime</text>
<text text-anchor="start" x="1438.39" y="-690.3" font-family="Times,serif" font-size="14.00">user_id :integer</text>
</g>
<!-- User&#45;&gt;WebsiteSetting -->
<g id="edge15" class="edge"><title>User&#45;&gt;WebsiteSetting</title>
<path fill="none" stroke="#fe3bc3" d="M1190.01,-1124.47C1265.11,-1097.35 1361.45,-1051.31 1421.69,-980 1463.48,-930.525 1482.37,-857.829 1490.86,-805.713"/>
<ellipse fill="none" stroke="#fe3bc3" cx="1186.12" cy="-1125.85" rx="4.00001" ry="4.00001"/>
<ellipse fill="#fe3bc3" stroke="#fe3bc3" cx="1491.52" cy="-801.485" rx="4.00001" ry="4.00001"/>
</g>
</g>
</svg>
