<?xml version="1.0" encoding="UTF-8" standalone="no"?>
<!DOCTYPE svg PUBLIC "-//W3C//DTD SVG 1.1//EN"
 "http://www.w3.org/Graphics/SVG/1.1/DTD/svg11.dtd">
<!-- Generated by graphviz version 2.38.0 (20140413.2041)
 -->
<!-- Title: models_diagram Pages: 1 -->
<svg width="4375pt" height="386pt"
 viewBox="0.00 0.00 4374.79 386.00" xmlns="http://www.w3.org/2000/svg" xmlns:xlink="http://www.w3.org/1999/xlink">
<g id="graph0" class="graph" transform="scale(1 1) rotate(0) translate(4 382)">
<title>models_diagram</title>
<polygon fill="none" stroke="none" points="-4,4 -4,-382 4370.79,-382 4370.79,4 -4,4"/>
<!-- _diagram_info -->
<g id="node1" class="node"><title>_diagram_info</title>
<text text-anchor="start" x="1919.06" y="-363.6" font-family="Times,serif" font-size="13.00">Models diagram</text>
<text text-anchor="start" x="1919.06" y="-350.6" font-family="Times,serif" font-size="13.00">Date: Sep 29 2016 &#45; 19:36</text>
<text text-anchor="start" x="1919.06" y="-337.6" font-family="Times,serif" font-size="13.00">Migration version: 20160929233357</text>
<text text-anchor="start" x="1919.06" y="-324.6" font-family="Times,serif" font-size="13.00">Generated by RailRoady 1.3.1</text>
<text text-anchor="start" x="1919.06" y="-311.6" font-family="Times,serif" font-size="13.00">http://railroady.prestonlee.com</text>
</g>
<!-- Ability -->
<g id="node2" class="node"><title>Ability</title>
<polygon fill="none" stroke="black" points="2192.42,-359.5 2137.08,-359.5 2137.08,-323.5 2192.42,-323.5 2192.42,-359.5"/>
<text text-anchor="middle" x="2164.75" y="-337.3" font-family="Times,serif" font-size="14.00">Ability</text>
</g>
<!-- Admin -->
<g id="node3" class="node"><title>Admin</title>
<ellipse fill="none" stroke="black" cx="2245.75" cy="-341.5" rx="34.8458" ry="18"/>
<text text-anchor="middle" x="2245.75" y="-337.3" font-family="Times,serif" font-size="14.00">Admin</text>
</g>
<!-- Analytic -->
<g id="node4" class="node"><title>Analytic</title>
<ellipse fill="none" stroke="black" cx="3922.75" cy="-91" rx="40.6162" ry="18"/>
<text text-anchor="middle" x="3922.75" y="-86.8" font-family="Times,serif" font-size="14.00">Analytic</text>
</g>
<!-- Article -->
<g id="node5" class="node"><title>Article</title>
<ellipse fill="none" stroke="black" cx="4170.75" cy="-91" rx="34.8198" ry="18"/>
<text text-anchor="middle" x="4170.75" y="-86.8" font-family="Times,serif" font-size="14.00">Article</text>
</g>
<!-- BackgroundInfo -->
<g id="node6" class="node"><title>BackgroundInfo</title>
<ellipse fill="none" stroke="black" cx="4049.75" cy="-91" rx="68.1287" ry="18"/>
<text text-anchor="middle" x="4049.75" y="-86.8" font-family="Times,serif" font-size="14.00">BackgroundInfo</text>
</g>
<!-- Experience -->
<g id="node14" class="node"><title>Experience</title>
<ellipse fill="none" stroke="black" cx="1223.75" cy="-18" rx="49.7533" ry="18"/>
<text text-anchor="middle" x="1223.75" y="-13.8" font-family="Times,serif" font-size="14.00">Experience</text>
</g>
<!-- BackgroundInfo&#45;&gt;Experience -->
<g id="edge1" class="edge"><title>BackgroundInfo&#45;&gt;Experience</title>
<path fill="none" stroke="#c5d52b" d="M3994.05,-76.3452C3986.92,-74.9977 3979.68,-73.8257 3972.75,-73 3697.66,-40.258 1661.04,-22.4937 1283.77,-19.4666"/>
<ellipse fill="none" stroke="#c5d52b" cx="3998.43" cy="-77.2168" rx="4.00001" ry="4.00001"/>
<polygon fill="#c5d52b" stroke="#c5d52b" points="1283.61,-19.4654 1273.65,-14.8856 1278.61,-19.4254 1273.61,-19.3854 1273.61,-19.3854 1273.61,-19.3854 1278.61,-19.4254 1273.58,-23.8853 1283.61,-19.4654 1283.61,-19.4654"/>
</g>
<!-- Balance -->
<g id="node7" class="node"><title>Balance</title>
<ellipse fill="none" stroke="black" cx="2423.75" cy="-341.5" rx="38.6695" ry="18"/>
<text text-anchor="middle" x="2423.75" y="-337.3" font-family="Times,serif" font-size="14.00">Balance</text>
</g>
<!-- Career -->
<g id="node8" class="node"><title>Career</title>
<ellipse fill="none" stroke="black" cx="2513.75" cy="-341.5" rx="33.8422" ry="18"/>
<text text-anchor="middle" x="2513.75" y="-337.3" font-family="Times,serif" font-size="14.00">Career</text>
</g>
<!-- City -->
<g id="node9" class="node"><title>City</title>
<ellipse fill="none" stroke="black" cx="2592.75" cy="-341.5" rx="27" ry="18"/>
<text text-anchor="middle" x="2592.75" y="-337.3" font-family="Times,serif" font-size="14.00">City</text>
</g>
<!-- Clerk -->
<g id="node10" class="node"><title>Clerk</title>
<ellipse fill="none" stroke="black" cx="2332.75" cy="-250" rx="29.5104" ry="18"/>
<text text-anchor="middle" x="2332.75" y="-245.8" font-family="Times,serif" font-size="14.00">Clerk</text>
</g>
<!-- User -->
<g id="node36" class="node"><title>User</title>
<ellipse fill="none" stroke="black" cx="2369.75" cy="-177" rx="27" ry="18"/>
<text text-anchor="middle" x="2369.75" y="-172.8" font-family="Times,serif" font-size="14.00">User</text>
</g>
<!-- Clerk&#45;&gt;User -->
<g id="edge2" class="edge"><title>Clerk&#45;&gt;User</title>
<path fill="none" stroke="#63929f" d="M2345.96,-223.644C2349.37,-217.101 2353.04,-210.056 2356.46,-203.506"/>
<polygon fill="#63929f" stroke="#63929f" points="2345.95,-223.665 2337.34,-230.453 2343.64,-228.099 2341.33,-232.533 2341.33,-232.533 2341.33,-232.533 2343.64,-228.099 2345.32,-234.612 2345.95,-223.665 2345.95,-223.665"/>
<polygon fill="#63929f" stroke="#63929f" points="2356.59,-203.246 2365.2,-196.458 2358.9,-198.812 2361.21,-194.378 2361.21,-194.378 2361.21,-194.378 2358.9,-198.812 2357.22,-192.298 2356.59,-203.246 2356.59,-203.246"/>
</g>
<!-- Demo -->
<g id="node11" class="node"><title>Demo</title>
<ellipse fill="none" stroke="black" cx="2669.75" cy="-341.5" rx="31.9393" ry="18"/>
<text text-anchor="middle" x="2669.75" y="-337.3" font-family="Times,serif" font-size="14.00">Demo</text>
</g>
<!-- Demographic -->
<g id="node12" class="node"><title>Demographic</title>
<ellipse fill="none" stroke="black" cx="2777.75" cy="-341.5" rx="58.4737" ry="18"/>
<text text-anchor="middle" x="2777.75" y="-337.3" font-family="Times,serif" font-size="14.00">Demographic</text>
</g>
<!-- Domain -->
<g id="node13" class="node"><title>Domain</title>
<ellipse fill="none" stroke="black" cx="206.747" cy="-91" rx="38.6955" ry="18"/>
<text text-anchor="middle" x="206.747" y="-86.8" font-family="Times,serif" font-size="14.00">Domain</text>
</g>
<!-- GoodnessValidator -->
<g id="node15" class="node"><title>GoodnessValidator</title>
<polygon fill="none" stroke="black" points="2976.79,-359.5 2854.71,-359.5 2854.71,-323.5 2976.79,-323.5 2976.79,-359.5"/>
<text text-anchor="middle" x="2915.75" y="-337.3" font-family="Times,serif" font-size="14.00">GoodnessValidator</text>
</g>
<!-- HomepageInfo -->
<g id="node16" class="node"><title>HomepageInfo</title>
<ellipse fill="none" stroke="black" cx="364.747" cy="-91" rx="63.2924" ry="18"/>
<text text-anchor="middle" x="364.747" y="-86.8" font-family="Times,serif" font-size="14.00">HomepageInfo</text>
</g>
<!-- Industry -->
<g id="node17" class="node"><title>Industry</title>
<ellipse fill="none" stroke="black" cx="3034.75" cy="-341.5" rx="39.6645" ry="18"/>
<text text-anchor="middle" x="3034.75" y="-337.3" font-family="Times,serif" font-size="14.00">Industry</text>
</g>
<!-- Language -->
<g id="node18" class="node"><title>Language</title>
<ellipse fill="none" stroke="black" cx="3137.75" cy="-341.5" rx="44.9423" ry="18"/>
<text text-anchor="middle" x="3137.75" y="-337.3" font-family="Times,serif" font-size="14.00">Language</text>
</g>
<!-- Mconcentration -->
<g id="node19" class="node"><title>Mconcentration</title>
<ellipse fill="none" stroke="black" cx="3266.75" cy="-341.5" rx="66.1907" ry="18"/>
<text text-anchor="middle" x="3266.75" y="-337.3" font-family="Times,serif" font-size="14.00">Mconcentration</text>
</g>
<!-- PersonalInfo -->
<g id="node20" class="node"><title>PersonalInfo</title>
<ellipse fill="none" stroke="black" cx="500.747" cy="-91" rx="55.0922" ry="18"/>
<text text-anchor="middle" x="500.747" y="-86.8" font-family="Times,serif" font-size="14.00">PersonalInfo</text>
</g>
<!-- Photo -->
<g id="node21" class="node"><title>Photo</title>
<ellipse fill="none" stroke="black" cx="30.7473" cy="-91" rx="30.9967" ry="18"/>
<text text-anchor="middle" x="30.7473" y="-86.8" font-family="Times,serif" font-size="14.00">Photo</text>
</g>
<!-- PhotoLink -->
<g id="node22" class="node"><title>PhotoLink</title>
<ellipse fill="none" stroke="black" cx="621.747" cy="-91" rx="47.3995" ry="18"/>
<text text-anchor="middle" x="621.747" y="-86.8" font-family="Times,serif" font-size="14.00">PhotoLink</text>
</g>
<!-- Project -->
<g id="node23" class="node"><title>Project</title>
<ellipse fill="none" stroke="black" cx="114.747" cy="-91" rx="35.3129" ry="18"/>
<text text-anchor="middle" x="114.747" y="-86.8" font-family="Times,serif" font-size="14.00">Project</text>
</g>
<!-- Region -->
<g id="node24" class="node"><title>Region</title>
<ellipse fill="none" stroke="black" cx="3386.75" cy="-341.5" rx="35.806" ry="18"/>
<text text-anchor="middle" x="3386.75" y="-337.3" font-family="Times,serif" font-size="14.00">Region</text>
</g>
<!-- Reviewer -->
<g id="node25" class="node"><title>Reviewer</title>
<ellipse fill="none" stroke="black" cx="2240.75" cy="-250" rx="43.9819" ry="18"/>
<text text-anchor="middle" x="2240.75" y="-245.8" font-family="Times,serif" font-size="14.00">Reviewer</text>
</g>
<!-- Reviewer&#45;&gt;User -->
<g id="edge3" class="edge"><title>Reviewer&#45;&gt;User</title>
<path fill="none" stroke="#905141" d="M2274.94,-230.181C2295.29,-218.982 2320.84,-204.917 2340.29,-194.212"/>
<polygon fill="#905141" stroke="#905141" points="2274.69,-230.32 2263.76,-231.2 2270.31,-232.731 2265.93,-235.142 2265.93,-235.142 2265.93,-235.142 2270.31,-232.731 2268.1,-239.084 2274.69,-230.32 2274.69,-230.32"/>
<polygon fill="#905141" stroke="#905141" points="2340.54,-194.076 2351.47,-193.196 2344.92,-191.665 2349.3,-189.254 2349.3,-189.254 2349.3,-189.254 2344.92,-191.665 2347.13,-185.312 2340.54,-194.076 2340.54,-194.076"/>
</g>
<!-- School -->
<g id="node26" class="node"><title>School</title>
<ellipse fill="none" stroke="black" cx="2332.75" cy="-341.5" rx="34.8458" ry="18"/>
<text text-anchor="middle" x="2332.75" y="-337.3" font-family="Times,serif" font-size="14.00">School</text>
</g>
<!-- School&#45;&gt;Article -->
<g id="edge7" class="edge"><title>School&#45;&gt;Article</title>
<path fill="none" stroke="#5d1dd8" d="M2355.07,-317.92C2361.29,-312.854 2368.38,-308.074 2375.75,-305 3048.97,-24.2294 3291.43,-273.351 4008.75,-141 4062.18,-131.141 4075.11,-125.926 4126.75,-109 4129.36,-108.145 4132.04,-107.222 4134.73,-106.264"/>
<polygon fill="#5d1dd8" stroke="#5d1dd8" points="2354.68,-318.261 2344.21,-321.498 2350.93,-321.568 2347.18,-324.874 2347.18,-324.874 2347.18,-324.874 2350.93,-321.568 2350.16,-328.25 2354.68,-318.261 2354.68,-318.261"/>
<polygon fill="#5d1dd8" stroke="#5d1dd8" points="4135,-106.162 4145.94,-106.919 4139.69,-104.43 4144.38,-102.698 4144.38,-102.698 4144.38,-102.698 4139.69,-104.43 4142.82,-98.4762 4135,-106.162 4135,-106.162"/>
</g>
<!-- School&#45;&gt;Clerk -->
<g id="edge5" class="edge"><title>School&#45;&gt;Clerk</title>
<path fill="none" stroke="#960426" d="M2332.75,-314.903C2332.75,-303.441 2332.75,-289.914 2332.75,-278.263"/>
<ellipse fill="none" stroke="#960426" cx="2332.75" cy="-319.243" rx="4" ry="4"/>
<polygon fill="#960426" stroke="#960426" points="2332.75,-278.204 2337.25,-268.203 2332.75,-273.204 2332.75,-268.204 2332.75,-268.204 2332.75,-268.204 2332.75,-273.204 2328.25,-268.204 2332.75,-278.204 2332.75,-278.204"/>
</g>
<!-- School&#45;&gt;Photo -->
<g id="edge8" class="edge"><title>School&#45;&gt;Photo</title>
<path fill="none" stroke="#2c89b3" d="M2310.52,-317.685C2304.3,-312.622 2297.19,-307.903 2289.75,-305 2184.01,-263.745 359.808,-222.722 249.747,-195 177.399,-176.777 100.05,-134.278 59.4466,-109.948"/>
<polygon fill="#2c89b3" stroke="#2c89b3" points="2310.91,-318.033 2315.41,-328.032 2314.65,-321.348 2318.4,-324.663 2318.4,-324.663 2318.4,-324.663 2314.65,-321.348 2321.38,-321.295 2310.91,-318.033 2310.91,-318.033"/>
<polygon fill="#2c89b3" stroke="#2c89b3" points="59.4347,-109.941 53.215,-100.909 55.1587,-107.349 50.8827,-104.758 50.8827,-104.758 50.8827,-104.758 55.1587,-107.349 48.5503,-108.606 59.4347,-109.941 59.4347,-109.941"/>
</g>
<!-- School&#45;&gt;Project -->
<g id="edge6" class="edge"><title>School&#45;&gt;Project</title>
<path fill="none" stroke="#abca1a" d="M2310.47,-317.807C2304.25,-312.742 2297.15,-307.992 2289.75,-305 1855.13,-129.396 629.025,-296.302 186.747,-141 169.544,-134.959 152.573,-123.737 139.431,-113.556"/>
<polygon fill="#abca1a" stroke="#abca1a" points="2310.86,-318.151 2315.37,-328.145 2314.61,-321.462 2318.35,-324.773 2318.35,-324.773 2318.35,-324.773 2314.61,-321.462 2321.33,-321.4 2310.86,-318.151 2310.86,-318.151"/>
<polygon fill="#abca1a" stroke="#abca1a" points="139.175,-113.35 134.206,-103.574 135.28,-110.215 131.385,-107.08 131.385,-107.08 131.385,-107.08 135.28,-110.215 128.564,-110.586 139.175,-113.35 139.175,-113.35"/>
</g>
<!-- School&#45;&gt;User -->
<g id="edge4" class="edge"><title>School&#45;&gt;User</title>
<path fill="none" stroke="#306179" d="M2348.78,-317.743C2357.44,-304.031 2367.26,-285.821 2371.75,-268 2376.92,-247.446 2376.06,-223.411 2374.09,-205.351"/>
<ellipse fill="none" stroke="#306179" cx="2346.57" cy="-321.126" rx="4.00002" ry="4.00002"/>
<polygon fill="#306179" stroke="#306179" points="2374.07,-205.143 2377.28,-194.658 2373.44,-200.183 2372.81,-195.222 2372.81,-195.222 2372.81,-195.222 2373.44,-200.183 2368.35,-195.787 2374.07,-205.143 2374.07,-205.143"/>
</g>
<!-- Sex -->
<g id="node27" class="node"><title>Sex</title>
<ellipse fill="none" stroke="black" cx="3467.75" cy="-341.5" rx="27" ry="18"/>
<text text-anchor="middle" x="3467.75" y="-337.3" font-family="Times,serif" font-size="14.00">Sex</text>
</g>
<!-- Showcase -->
<g id="node28" class="node"><title>Showcase</title>
<ellipse fill="none" stroke="black" cx="3557.75" cy="-341.5" rx="45.4441" ry="18"/>
<text text-anchor="middle" x="3557.75" y="-337.3" font-family="Times,serif" font-size="14.00">Showcase</text>
</g>
<!-- Size -->
<g id="node29" class="node"><title>Size</title>
<ellipse fill="none" stroke="black" cx="3647.75" cy="-341.5" rx="27" ry="18"/>
<text text-anchor="middle" x="3647.75" y="-337.3" font-family="Times,serif" font-size="14.00">Size</text>
</g>
<!-- Skill -->
<g id="node30" class="node"><title>Skill</title>
<ellipse fill="none" stroke="black" cx="3719.75" cy="-341.5" rx="27" ry="18"/>
<text text-anchor="middle" x="3719.75" y="-337.3" font-family="Times,serif" font-size="14.00">Skill</text>
</g>
<!-- SocialLink -->
<g id="node31" class="node"><title>SocialLink</title>
<ellipse fill="none" stroke="black" cx="735.747" cy="-91" rx="48.8273" ry="18"/>
<text text-anchor="middle" x="735.747" y="-86.8" font-family="Times,serif" font-size="14.00">SocialLink</text>
</g>
<!-- State -->
<g id="node32" class="node"><title>State</title>
<ellipse fill="none" stroke="black" cx="3792.75" cy="-341.5" rx="27.5804" ry="18"/>
<text text-anchor="middle" x="3792.75" y="-337.3" font-family="Times,serif" font-size="14.00">State</text>
</g>
<!-- Travel -->
<g id="node33" class="node"><title>Travel</title>
<ellipse fill="none" stroke="black" cx="3871.75" cy="-341.5" rx="32.7528" ry="18"/>
<text text-anchor="middle" x="3871.75" y="-337.3" font-family="Times,serif" font-size="14.00">Travel</text>
</g>
<!-- Uconcentration -->
<g id="node34" class="node"><title>Uconcentration</title>
<ellipse fill="none" stroke="black" cx="3986.75" cy="-341.5" rx="64.7372" ry="18"/>
<text text-anchor="middle" x="3986.75" y="-337.3" font-family="Times,serif" font-size="14.00">Uconcentration</text>
</g>
<!-- Undergrad -->
<g id="node35" class="node"><title>Undergrad</title>
<ellipse fill="none" stroke="black" cx="4116.75" cy="-341.5" rx="47.5311" ry="18"/>
<text text-anchor="middle" x="4116.75" y="-337.3" font-family="Times,serif" font-size="14.00">Undergrad</text>
</g>
<!-- User&#45;&gt;Analytic -->
<g id="edge19" class="edge"><title>User&#45;&gt;Analytic</title>
<path fill="none" stroke="#249b75" d="M2405.1,-175.951C2625.82,-175.55 3807.44,-171.956 3876.75,-141 3889.04,-135.51 3899.59,-125.015 3907.48,-115.143"/>
<ellipse fill="none" stroke="#249b75" cx="2400.77" cy="-175.959" rx="4" ry="4"/>
<ellipse fill="#249b75" stroke="#249b75" cx="3910.1" cy="-111.671" rx="4.00002" ry="4.00002"/>
</g>
<!-- User&#45;&gt;Article -->
<g id="edge9" class="edge"><title>User&#45;&gt;Article</title>
<path fill="none" stroke="#82f284" d="M2405.22,-175.924C2608.6,-175.383 3628.37,-171.183 3940.75,-141 4024.24,-132.933 4045.89,-131.336 4126.75,-109 4129.39,-108.269 4132.1,-107.437 4134.81,-106.545"/>
<ellipse fill="none" stroke="#82f284" cx="2400.97" cy="-175.935" rx="4" ry="4"/>
<polygon fill="#82f284" stroke="#82f284" points="4135.08,-106.449 4146.01,-107.355 4139.79,-104.781 4144.51,-103.113 4144.51,-103.113 4144.51,-103.113 4139.79,-104.781 4143.01,-98.8708 4135.08,-106.449 4135.08,-106.449"/>
</g>
<!-- User&#45;&gt;BackgroundInfo -->
<g id="edge10" class="edge"><title>User&#45;&gt;BackgroundInfo</title>
<path fill="none" stroke="#35ed9a" d="M2404.85,-175.812C2619.26,-174.583 3748.15,-166.914 3899.75,-141 3937.05,-134.623 3977.78,-120.858 4007.37,-109.536"/>
<ellipse fill="none" stroke="#35ed9a" cx="2400.75" cy="-175.835" rx="4" ry="4"/>
<ellipse fill="#35ed9a" stroke="#35ed9a" cx="4011.3" cy="-108.014" rx="4.00001" ry="4.00001"/>
</g>
<!-- User&#45;&gt;Domain -->
<g id="edge18" class="edge"><title>User&#45;&gt;Domain</title>
<path fill="none" stroke="#df6e60" d="M2334.33,-176.131C2065.92,-177.037 359.982,-181.197 259.747,-141 246.07,-135.515 233.775,-124.73 224.478,-114.671"/>
<ellipse fill="none" stroke="#df6e60" cx="2338.56" cy="-176.117" rx="4" ry="4"/>
<ellipse fill="#df6e60" stroke="#df6e60" cx="221.736" cy="-111.558" rx="4.00002" ry="4.00002"/>
</g>
<!-- User&#45;&gt;Experience -->
<g id="edge11" class="edge"><title>User&#45;&gt;Experience</title>
<path fill="none" stroke="#71fa58" d="M2332.49,-175.719C2081.95,-173.774 646.859,-161.788 453.747,-141 381.211,-133.192 339.034,-165.392 292.747,-109 282.596,-96.6326 281.766,-84.6367 292.747,-73 322.698,-41.2623 962.693,-24.6789 1163.82,-20.2375"/>
<polygon fill="#71fa58" stroke="#71fa58" points="2332.54,-175.719 2342.51,-180.296 2337.54,-175.758 2342.54,-175.796 2342.54,-175.796 2342.54,-175.796 2337.54,-175.758 2342.58,-171.296 2332.54,-175.719 2332.54,-175.719"/>
<polygon fill="#71fa58" stroke="#71fa58" points="1163.91,-20.2357 1174,-24.5158 1168.9,-20.1263 1173.9,-20.0169 1173.9,-20.0169 1173.9,-20.0169 1168.9,-20.1263 1173.81,-15.5179 1163.91,-20.2357 1163.91,-20.2357"/>
</g>
<!-- User&#45;&gt;HomepageInfo -->
<g id="edge12" class="edge"><title>User&#45;&gt;HomepageInfo</title>
<path fill="none" stroke="#1d8953" d="M2334.57,-175.987C2094.02,-175.809 695.77,-173.382 509.747,-141 473.495,-134.689 434.034,-120.868 405.444,-109.508"/>
<ellipse fill="none" stroke="#1d8953" cx="2338.63" cy="-175.989" rx="4" ry="4"/>
<ellipse fill="#1d8953" stroke="#1d8953" cx="401.39" cy="-107.873" rx="4.00001" ry="4.00001"/>
</g>
<!-- User&#45;&gt;PersonalInfo -->
<g id="edge13" class="edge"><title>User&#45;&gt;PersonalInfo</title>
<path fill="none" stroke="#c249e3" d="M2334.45,-175.824C2082.59,-174.508 566.745,-165.577 526.747,-141 517.901,-135.564 511.895,-126.017 507.905,-116.784"/>
<ellipse fill="none" stroke="#c249e3" cx="2338.54" cy="-175.845" rx="4" ry="4"/>
<ellipse fill="#c249e3" stroke="#c249e3" cx="506.436" cy="-112.937" rx="4.00001" ry="4.00001"/>
</g>
<!-- User&#45;&gt;Photo -->
<g id="edge20" class="edge"><title>User&#45;&gt;Photo</title>
<path fill="none" stroke="#2a6d9b" d="M2334.47,-175.973C2070.45,-175.7 407.706,-172.724 186.747,-141 133.809,-133.399 121.246,-126.609 70.7473,-109 68.523,-108.224 66.2464,-107.385 63.9632,-106.509"/>
<ellipse fill="none" stroke="#2a6d9b" cx="2338.57" cy="-175.977" rx="4" ry="4"/>
<polygon fill="#2a6d9b" stroke="#2a6d9b" points="63.9378,-106.499 56.3354,-98.5963 59.298,-104.636 54.6582,-102.772 54.6582,-102.772 54.6582,-102.772 59.298,-104.636 52.9811,-106.948 63.9378,-106.499 63.9378,-106.499"/>
</g>
<!-- User&#45;&gt;PhotoLink -->
<g id="edge14" class="edge"><title>User&#45;&gt;PhotoLink</title>
<path fill="none" stroke="#f5024c" d="M2334.42,-176.007C2082.35,-175.976 565.518,-174.401 532.747,-141 528.39,-136.559 529.244,-132.142 532.747,-127 535.724,-122.631 557.767,-113.947 579.168,-106.322"/>
<ellipse fill="none" stroke="#f5024c" cx="2338.52" cy="-176.007" rx="4" ry="4"/>
<ellipse fill="#f5024c" stroke="#f5024c" cx="583.214" cy="-104.898" rx="4.00001" ry="4.00001"/>
</g>
<!-- User&#45;&gt;Project -->
<g id="edge15" class="edge"><title>User&#45;&gt;Project</title>
<path fill="none" stroke="#c2f759" d="M2334.44,-175.793C2065.02,-174.168 341.854,-162.938 234.747,-141 203.94,-134.69 171.008,-120.667 147.452,-109.233"/>
<ellipse fill="none" stroke="#c2f759" cx="2338.7" cy="-175.819" rx="4" ry="4"/>
<polygon fill="#c2f759" stroke="#c2f759" points="147.237,-109.127 140.28,-100.65 142.758,-106.904 138.279,-104.681 138.279,-104.681 138.279,-104.681 142.758,-106.904 136.279,-108.712 147.237,-109.127 147.237,-109.127"/>
</g>
<!-- User&#45;&gt;SocialLink -->
<g id="edge16" class="edge"><title>User&#45;&gt;SocialLink</title>
<path fill="none" stroke="#0773f3" d="M2334.56,-176.004C2083.44,-175.955 572.392,-174.275 539.747,-141 535.39,-136.558 535.642,-131.676 539.747,-127 560.152,-103.76 647.484,-115.369 677.747,-109 682.418,-108.017 687.259,-106.847 692.064,-105.587"/>
<ellipse fill="none" stroke="#0773f3" cx="2338.62" cy="-176.005" rx="4" ry="4"/>
<ellipse fill="#0773f3" stroke="#0773f3" cx="696.22" cy="-104.452" rx="4.00001" ry="4.00001"/>
</g>
<!-- WebsiteSetting -->
<g id="node38" class="node"><title>WebsiteSetting</title>
<ellipse fill="none" stroke="black" cx="865.747" cy="-91" rx="63.3707" ry="18"/>
<text text-anchor="middle" x="865.747" y="-86.8" font-family="Times,serif" font-size="14.00">WebsiteSetting</text>
</g>
<!-- User&#45;&gt;WebsiteSetting -->
<g id="edge17" class="edge"><title>User&#45;&gt;WebsiteSetting</title>
<path fill="none" stroke="#480efb" d="M2334.71,-176.001C2084.69,-175.931 580.248,-174.131 547.747,-141 509.143,-101.647 739.259,-117.372 793.747,-109 799.906,-108.054 806.317,-106.856 812.662,-105.535"/>
<ellipse fill="none" stroke="#480efb" cx="2338.74" cy="-176.002" rx="4" ry="4"/>
<ellipse fill="#480efb" stroke="#480efb" cx="816.732" cy="-104.653" rx="4.00001" ry="4.00001"/>
</g>
<!-- ActsAsTaggableOn::Tagging -->
<g id="node40" class="node"><title>ActsAsTaggableOn::Tagging</title>
<ellipse fill="none" stroke="black" cx="1586.75" cy="-91" rx="113.006" ry="18"/>
<text text-anchor="middle" x="1586.75" y="-86.8" font-family="Times,serif" font-size="14.00">ActsAsTaggableOn::Tagging</text>
</g>
<!-- User&#45;&gt;ActsAsTaggableOn::Tagging -->
<g id="edge21" class="edge"><title>User&#45;&gt;ActsAsTaggableOn::Tagging</title>
<path fill="none" stroke="#a07b6b" d="M2334.62,-175.628C2140.57,-173.489 1207.81,-162.121 1187.31,-141 1182.97,-136.536 1183.1,-131.588 1187.31,-127 1205.95,-106.655 1354.71,-98.0857 1465.27,-94.5096"/>
<ellipse fill="none" stroke="#a07b6b" cx="2338.77" cy="-175.673" rx="4" ry="4"/>
<polygon fill="#a07b6b" stroke="#a07b6b" points="1465.52,-94.5021 1475.65,-98.6868 1470.51,-94.3456 1475.51,-94.1891 1475.51,-94.1891 1475.51,-94.1891 1470.51,-94.3456 1475.37,-89.6913 1465.52,-94.5021 1465.52,-94.5021"/>
<text text-anchor="middle" x="1211.47" y="-129.8" font-family="Times,serif" font-size="14.00">taggings</text>
</g>
<!-- User&#45;&gt;ActsAsTaggableOn::Tagging -->
<g id="edge23" class="edge"><title>User&#45;&gt;ActsAsTaggableOn::Tagging</title>
<path fill="none" stroke="#5cf00f" d="M2334.73,-176.25C2150.08,-177.4 1296.53,-180.558 1258.2,-141 1226.61,-108.401 1358.11,-97.3657 1464.06,-93.7004"/>
<ellipse fill="none" stroke="#5cf00f" cx="2338.76" cy="-176.224" rx="4" ry="4"/>
<polygon fill="#5cf00f" stroke="#5cf00f" points="1464.24,-93.6948 1474.38,-97.8658 1469.24,-93.5315 1474.23,-93.3682 1474.23,-93.3682 1474.23,-93.3682 1469.24,-93.5315 1474.09,-88.8706 1464.24,-93.6948 1464.24,-93.6948"/>
<text text-anchor="middle" x="1294.52" y="-129.8" font-family="Times,serif" font-size="14.00">tag_taggings</text>
</g>
<!-- User&#45;&gt;ActsAsTaggableOn::Tagging -->
<g id="edge25" class="edge"><title>User&#45;&gt;ActsAsTaggableOn::Tagging</title>
<path fill="none" stroke="#3971e0" d="M2334.39,-176.144C2158.75,-176.691 1387.23,-177.029 1352.42,-141 1348.09,-136.525 1348.35,-131.714 1352.42,-127 1367.9,-109.035 1416.97,-100.153 1466.24,-95.8161"/>
<ellipse fill="none" stroke="#3971e0" cx="2338.53" cy="-176.131" rx="4" ry="4"/>
<polygon fill="#3971e0" stroke="#3971e0" points="1466.45,-95.7992 1476.78,-99.468 1471.43,-95.3911 1476.41,-94.983 1476.41,-94.983 1476.41,-94.983 1471.43,-95.3911 1476.04,-90.4981 1466.45,-95.7992 1466.45,-95.7992"/>
<text text-anchor="middle" x="1402.91" y="-129.8" font-family="Times,serif" font-size="14.00">industry_taggings</text>
</g>
<!-- User&#45;&gt;ActsAsTaggableOn::Tagging -->
<g id="edge27" class="edge"><title>User&#45;&gt;ActsAsTaggableOn::Tagging</title>
<path fill="none" stroke="#661579" d="M2334.36,-175.968C2172.15,-175.652 1506.36,-172.438 1476.13,-141 1461.15,-125.428 1476.06,-114.46 1499.27,-106.909"/>
<ellipse fill="none" stroke="#661579" cx="2338.57" cy="-175.975" rx="4" ry="4"/>
<polygon fill="#661579" stroke="#661579" points="1499.3,-106.899 1510.16,-108.397 1504.1,-105.49 1508.89,-104.08 1508.89,-104.08 1508.89,-104.08 1504.1,-105.49 1507.62,-99.7625 1499.3,-106.899 1499.3,-106.899"/>
<text text-anchor="middle" x="1521.06" y="-129.8" font-family="Times,serif" font-size="14.00">career_taggings</text>
</g>
<!-- User&#45;&gt;ActsAsTaggableOn::Tagging -->
<g id="edge29" class="edge"><title>User&#45;&gt;ActsAsTaggableOn::Tagging</title>
<path fill="none" stroke="#4f44cc" d="M2334.08,-175.745C2184.47,-174.506 1614.16,-168.02 1587.77,-141 1582.24,-135.328 1580.59,-127.294 1580.74,-119.369"/>
<ellipse fill="none" stroke="#4f44cc" cx="2338.51" cy="-175.781" rx="4" ry="4"/>
<polygon fill="#4f44cc" stroke="#4f44cc" points="1580.76,-119.167 1586.27,-109.686 1581.28,-114.194 1581.8,-109.221 1581.8,-109.221 1581.8,-109.221 1581.28,-114.194 1577.32,-108.756 1580.76,-119.167 1580.76,-119.167"/>
<text text-anchor="middle" x="1641.23" y="-129.8" font-family="Times,serif" font-size="14.00">language_taggings</text>
</g>
<!-- User&#45;&gt;ActsAsTaggableOn::Tagging -->
<g id="edge31" class="edge"><title>User&#45;&gt;ActsAsTaggableOn::Tagging</title>
<path fill="none" stroke="#d12f01" d="M2334.32,-176.386C2215.56,-177.327 1832.49,-177.398 1715.57,-141 1704.21,-137.462 1703.54,-132.01 1692.75,-127 1679.18,-120.703 1664.16,-115.021 1649.79,-110.156"/>
<ellipse fill="none" stroke="#d12f01" cx="2338.4" cy="-176.352" rx="4" ry="4"/>
<polygon fill="#d12f01" stroke="#d12f01" points="1649.47,-110.051 1641.38,-102.647 1644.72,-108.486 1639.97,-106.921 1639.97,-106.921 1639.97,-106.921 1644.72,-108.486 1638.56,-111.195 1649.47,-110.051 1649.47,-110.051"/>
<text text-anchor="middle" x="1778.33" y="-129.8" font-family="Times,serif" font-size="14.00">wexperience_taggings</text>
</g>
<!-- User&#45;&gt;ActsAsTaggableOn::Tagging -->
<g id="edge33" class="edge"><title>User&#45;&gt;ActsAsTaggableOn::Tagging</title>
<path fill="none" stroke="#bee40b" d="M2334.29,-175.716C2234.3,-174.573 1951.66,-168.895 1863.8,-141 1852.37,-137.373 1852.04,-131.013 1840.75,-127 1797.36,-111.585 1747.56,-102.914 1703.62,-98.0519"/>
<ellipse fill="none" stroke="#bee40b" cx="2338.55" cy="-175.762" rx="4" ry="4"/>
<polygon fill="#bee40b" stroke="#bee40b" points="1703.41,-98.0299 1693.94,-92.5085 1698.44,-97.5068 1693.46,-96.9838 1693.46,-96.9838 1693.46,-96.9838 1698.44,-97.5068 1692.99,-101.459 1703.41,-98.0299 1703.41,-98.0299"/>
<text text-anchor="middle" x="1920.22" y="-129.8" font-family="Times,serif" font-size="14.00">undergrad_taggings</text>
</g>
<!-- User&#45;&gt;ActsAsTaggableOn::Tagging -->
<g id="edge35" class="edge"><title>User&#45;&gt;ActsAsTaggableOn::Tagging</title>
<path fill="none" stroke="#017ff5" d="M2334.43,-174.666C2254.14,-171.311 2060.06,-161.306 1998.12,-141 1986.61,-137.228 1986.26,-130.749 1974.75,-127 1926.22,-111.197 1800.08,-101.863 1704.69,-96.8629"/>
<ellipse fill="none" stroke="#017ff5" cx="2338.75" cy="-174.842" rx="4" ry="4"/>
<polygon fill="#017ff5" stroke="#017ff5" points="1704.67,-96.8619 1694.91,-91.8541 1699.67,-96.6051 1694.68,-96.3482 1694.68,-96.3482 1694.68,-96.3482 1699.67,-96.6051 1694.45,-100.842 1704.67,-96.8619 1704.67,-96.8619"/>
<text text-anchor="middle" x="2066.56" y="-129.8" font-family="Times,serif" font-size="14.00">uconcentration_taggings</text>
</g>
<!-- User&#45;&gt;ActsAsTaggableOn::Tagging -->
<g id="edge37" class="edge"><title>User&#45;&gt;ActsAsTaggableOn::Tagging</title>
<path fill="none" stroke="#6601c9" d="M2334.74,-174.346C2291.94,-171.396 2217.85,-163.262 2158.44,-141 2147.34,-136.842 2147.04,-130.595 2135.75,-127 2059.28,-102.653 1846.64,-95.189 1709.56,-92.9338"/>
<ellipse fill="none" stroke="#6601c9" cx="2338.88" cy="-174.613" rx="4" ry="4"/>
<polygon fill="#6601c9" stroke="#6601c9" points="1709.41,-92.9315 1699.48,-88.2746 1704.41,-92.8528 1699.41,-92.774 1699.41,-92.774 1699.41,-92.774 1704.41,-92.8528 1699.34,-97.2735 1709.41,-92.9315 1709.41,-92.9315"/>
<text text-anchor="middle" x="2200.9" y="-129.8" font-family="Times,serif" font-size="14.00">travel_taggings</text>
</g>
<!-- User&#45;&gt;ActsAsTaggableOn::Tagging -->
<g id="edge39" class="edge"><title>User&#45;&gt;ActsAsTaggableOn::Tagging</title>
<path fill="none" stroke="#5bee52" d="M2337.45,-166.911C2317,-160.677 2290.26,-151.627 2267.65,-141 2256.85,-135.924 2256.14,-130.536 2244.75,-127 2148.37,-97.0903 1872.3,-91.783 1710,-91.3734"/>
<ellipse fill="none" stroke="#5bee52" cx="2341.4" cy="-168.094" rx="4.00001" ry="4.00001"/>
<polygon fill="#5bee52" stroke="#5bee52" points="1709.96,-91.3734 1699.97,-86.8539 1704.96,-91.3636 1699.96,-91.3539 1699.96,-91.3539 1699.96,-91.3539 1704.96,-91.3636 1699.95,-95.8539 1709.96,-91.3734 1709.96,-91.3734"/>
<text text-anchor="middle" x="2306.8" y="-129.8" font-family="Times,serif" font-size="14.00">state_taggings</text>
</g>
<!-- User&#45;&gt;ActsAsTaggableOn::Tagging -->
<g id="edge41" class="edge"><title>User&#45;&gt;ActsAsTaggableOn::Tagging</title>
<path fill="none" stroke="#73fcaa" d="M2364.42,-151.16C2361.17,-142.046 2355.98,-132.598 2347.75,-127 2321.82,-109.365 1916.69,-98.6506 1708.4,-94.281"/>
<ellipse fill="none" stroke="#73fcaa" cx="2365.65" cy="-155.154" rx="4.00001" ry="4.00001"/>
<polygon fill="#73fcaa" stroke="#73fcaa" points="1708.33,-94.2796 1698.42,-89.5724 1703.33,-94.1755 1698.33,-94.0715 1698.33,-94.0715 1698.33,-94.0715 1703.33,-94.1755 1698.24,-98.5705 1708.33,-94.2796 1708.33,-94.2796"/>
<text text-anchor="middle" x="2399.03" y="-129.8" font-family="Times,serif" font-size="14.00">skill_taggings</text>
</g>
<!-- User&#45;&gt;ActsAsTaggableOn::Tagging -->
<g id="edge43" class="edge"><title>User&#45;&gt;ActsAsTaggableOn::Tagging</title>
<path fill="none" stroke="#80306f" d="M2402.2,-167.214C2428.67,-158.549 2459.2,-144.138 2442.75,-127 2417.8,-101.014 1940.32,-94.3144 1709.57,-92.5926"/>
<ellipse fill="none" stroke="#80306f" cx="2398.34" cy="-168.417" rx="4.00001" ry="4.00001"/>
<polygon fill="#80306f" stroke="#80306f" points="1709.44,-92.5918 1699.48,-88.0192 1704.44,-92.5554 1699.44,-92.519 1699.44,-92.519 1699.44,-92.519 1704.44,-92.5554 1699.41,-97.0189 1709.44,-92.5918 1709.44,-92.5918"/>
<text text-anchor="middle" x="2484.85" y="-129.8" font-family="Times,serif" font-size="14.00">size_taggings</text>
</g>
<!-- User&#45;&gt;ActsAsTaggableOn::Tagging -->
<g id="edge45" class="edge"><title>User&#45;&gt;ActsAsTaggableOn::Tagging</title>
<path fill="none" stroke="#488f9d" d="M2404.76,-175.654C2461.6,-173.984 2564.04,-165.708 2526.75,-127 2498.88,-98.0733 1958.49,-92.9368 1709.93,-92.1084"/>
<ellipse fill="none" stroke="#488f9d" cx="2400.72" cy="-175.755" rx="4" ry="4"/>
<polygon fill="#488f9d" stroke="#488f9d" points="1709.77,-92.108 1699.78,-87.5764 1704.77,-92.0922 1699.77,-92.0764 1699.77,-92.0764 1699.77,-92.0764 1704.77,-92.0922 1699.76,-96.5763 1709.77,-92.108 1709.77,-92.108"/>
<text text-anchor="middle" x="2570.3" y="-129.8" font-family="Times,serif" font-size="14.00">sex_taggings</text>
</g>
<!-- User&#45;&gt;ActsAsTaggableOn::Tagging -->
<g id="edge47" class="edge"><title>User&#45;&gt;ActsAsTaggableOn::Tagging</title>
<path fill="none" stroke="#f92eea" d="M2405.16,-176.272C2465.57,-175.897 2584.59,-171.231 2610.75,-141 2614.82,-136.295 2615.07,-131.474 2610.75,-127 2579.93,-95.1124 1975.65,-91.6666 1710.12,-91.7007"/>
<ellipse fill="none" stroke="#f92eea" cx="2401.04" cy="-176.285" rx="4" ry="4"/>
<polygon fill="#f92eea" stroke="#f92eea" points="1710.05,-91.7007 1700.05,-87.2037 1705.05,-91.7022 1700.05,-91.7037 1700.05,-91.7037 1700.05,-91.7037 1705.05,-91.7022 1700.05,-96.2037 1710.05,-91.7007 1710.05,-91.7007"/>
<text text-anchor="middle" x="2658.85" y="-129.8" font-family="Times,serif" font-size="14.00">region_taggings</text>
</g>
<!-- User&#45;&gt;ActsAsTaggableOn::Tagging -->
<g id="edge49" class="edge"><title>User&#45;&gt;ActsAsTaggableOn::Tagging</title>
<path fill="none" stroke="#2b10f6" d="M2334.44,-175.999C2084.13,-175.91 586.596,-173.997 554.23,-141 549.873,-136.558 549.905,-131.474 554.23,-127 562.061,-118.898 1194.36,-101.936 1465.5,-95.0266"/>
<ellipse fill="none" stroke="#2b10f6" cx="2338.48" cy="-176" rx="4" ry="4"/>
<polygon fill="#2b10f6" stroke="#2b10f6" points="1465.78,-95.0196 1475.89,-99.2637 1470.77,-94.8923 1475.77,-94.7651 1475.77,-94.7651 1475.77,-94.7651 1470.77,-94.8923 1475.66,-90.2666 1465.78,-95.0196 1465.78,-95.0196"/>
<text text-anchor="middle" x="625.506" y="-129.8" font-family="Times,serif" font-size="14.00">mconcentration_taggings</text>
</g>
<!-- User&#45;&gt;ActsAsTaggableOn::Tagging -->
<g id="edge51" class="edge"><title>User&#45;&gt;ActsAsTaggableOn::Tagging</title>
<path fill="none" stroke="#27bd0b" d="M2334.39,-175.929C2097.39,-175.371 748.483,-170.887 719.223,-141 714.87,-136.554 714.913,-131.488 719.223,-127 731.963,-113.736 1229.77,-100.348 1465.43,-94.7386"/>
<ellipse fill="none" stroke="#27bd0b" cx="2338.66" cy="-175.939" rx="4" ry="4"/>
<polygon fill="#27bd0b" stroke="#27bd0b" points="1465.76,-94.7307 1475.87,-98.9924 1470.76,-94.6122 1475.76,-94.4936 1475.76,-94.4936 1475.76,-94.4936 1470.76,-94.6122 1475.65,-89.9949 1465.76,-94.7307 1465.76,-94.7307"/>
<text text-anchor="middle" x="783.51" y="-129.8" font-family="Times,serif" font-size="14.00">demographic_taggings</text>
</g>
<!-- User&#45;&gt;ActsAsTaggableOn::Tagging -->
<g id="edge53" class="edge"><title>User&#45;&gt;ActsAsTaggableOn::Tagging</title>
<path fill="none" stroke="#7d3b33" d="M2334.49,-175.852C2110.64,-174.834 896.003,-168.066 869.561,-141 865.213,-136.549 865.27,-131.506 869.561,-127 889.71,-105.844 1265.03,-96.9031 1464.48,-93.6328"/>
<ellipse fill="none" stroke="#7d3b33" cx="2338.63" cy="-175.871" rx="4" ry="4"/>
<polygon fill="#7d3b33" stroke="#7d3b33" points="1464.72,-93.629 1474.79,-97.9668 1469.72,-93.5482 1474.72,-93.4673 1474.72,-93.4673 1474.72,-93.4673 1469.72,-93.5482 1474.64,-88.9679 1464.72,-93.629 1464.72,-93.629"/>
<text text-anchor="middle" x="918.341" y="-129.8" font-family="Times,serif" font-size="14.00">balance_taggings</text>
</g>
<!-- User&#45;&gt;ActsAsTaggableOn::Tagging -->
<g id="edge55" class="edge"><title>User&#45;&gt;ActsAsTaggableOn::Tagging</title>
<path fill="none" stroke="#0f3f2e" d="M2334.66,-175.78C2122,-174.367 1013.95,-165.818 989.754,-141 985.411,-136.545 985.485,-131.527 989.754,-127 1005.83,-109.955 1296.11,-99.545 1465.87,-94.8881"/>
<ellipse fill="none" stroke="#0f3f2e" cx="2338.7" cy="-175.807" rx="4" ry="4"/>
<polygon fill="#0f3f2e" stroke="#0f3f2e" points="1465.88,-94.8881 1475.99,-99.115 1470.87,-94.7524 1475.87,-94.6166 1475.87,-94.6166 1475.87,-94.6166 1470.87,-94.7524 1475.75,-90.1183 1465.88,-94.8881 1465.88,-94.8881"/>
<text text-anchor="middle" x="1029.24" y="-129.8" font-family="Times,serif" font-size="14.00">visa_taggings</text>
</g>
<!-- User&#45;&gt;ActsAsTaggableOn::Tagging -->
<g id="edge57" class="edge"><title>User&#45;&gt;ActsAsTaggableOn::Tagging</title>
<path fill="none" stroke="#d51583" d="M2334.46,-175.695C2132.11,-173.865 1127.34,-163.648 1105.31,-141 1100.97,-136.54 1101.08,-131.556 1105.31,-127 1129.26,-101.244 1328.83,-94.217 1463.39,-92.4309"/>
<ellipse fill="none" stroke="#d51583" cx="2338.68" cy="-175.733" rx="4" ry="4"/>
<polygon fill="#d51583" stroke="#d51583" points="1463.77,-92.4263 1473.83,-96.8014 1468.77,-92.364 1473.77,-92.3017 1473.77,-92.3017 1473.77,-92.3017 1468.77,-92.364 1473.72,-87.8021 1463.77,-92.4263 1463.77,-92.4263"/>
<text text-anchor="middle" x="1143.46" y="-129.8" font-family="Times,serif" font-size="14.00">city_taggings</text>
</g>
<!-- ActsAsTaggableOn::Tag -->
<g id="node41" class="node"><title>ActsAsTaggableOn::Tag</title>
<ellipse fill="none" stroke="black" cx="3354.75" cy="-91" rx="97.0617" ry="18"/>
<text text-anchor="middle" x="3354.75" y="-86.8" font-family="Times,serif" font-size="14.00">ActsAsTaggableOn::Tag</text>
</g>
<!-- User&#45;&gt;ActsAsTaggableOn::Tag -->
<g id="edge22" class="edge"><title>User&#45;&gt;ActsAsTaggableOn::Tag</title>
<path fill="none" stroke="#ba34f0" d="M2406.94,-176.371C2525.96,-177.185 2896.28,-176.709 3009.75,-141 3021.01,-137.456 3021.16,-130.844 3032.32,-127 3071.95,-113.353 3174.54,-103.741 3253.45,-98.0872"/>
<polygon fill="#ba34f0" stroke="#ba34f0" points="2406.87,-176.371 2396.9,-171.795 2401.87,-176.333 2396.87,-176.295 2396.87,-176.295 2396.87,-176.295 2401.87,-176.333 2396.83,-180.795 2406.87,-176.371 2406.87,-176.371"/>
<polygon fill="#ba34f0" stroke="#ba34f0" points="3253.46,-98.0864 3263.76,-101.872 3258.45,-97.7349 3263.44,-97.3835 3263.44,-97.3835 3263.44,-97.3835 3258.45,-97.7349 3263.12,-92.8946 3253.46,-98.0864 3253.46,-98.0864"/>
<text text-anchor="middle" x="3058.96" y="-129.8" font-family="Times,serif" font-size="14.00">base_tags</text>
</g>
<!-- User&#45;&gt;ActsAsTaggableOn::Tag -->
<g id="edge24" class="edge"><title>User&#45;&gt;ActsAsTaggableOn::Tag</title>
<path fill="none" stroke="#a12b88" d="M2407.09,-175.237C2545.08,-172.273 3021.56,-160.701 3086.75,-141 3098.37,-137.488 3098.75,-131.05 3110.2,-127 3155.3,-111.034 3207.54,-102.337 3252.12,-97.6049"/>
<polygon fill="#a12b88" stroke="#a12b88" points="2407.01,-175.239 2396.92,-170.952 2402.01,-175.345 2397.01,-175.451 2397.01,-175.451 2397.01,-175.451 2402.01,-175.345 2397.11,-179.95 2407.01,-175.239 2407.01,-175.239"/>
<polygon fill="#a12b88" stroke="#a12b88" points="3252.15,-97.6021 3262.55,-101.075 3257.13,-97.1 3262.1,-96.5979 3262.1,-96.5979 3262.1,-96.5979 3257.13,-97.1 3261.65,-92.1207 3252.15,-97.6021 3252.15,-97.6021"/>
<text text-anchor="middle" x="3121.02" y="-129.8" font-family="Times,serif" font-size="14.00">tags</text>
</g>
<!-- User&#45;&gt;ActsAsTaggableOn::Tag -->
<g id="edge26" class="edge"><title>User&#45;&gt;ActsAsTaggableOn::Tag</title>
<path fill="none" stroke="#dfcac1" d="M2407.12,-175.369C2550.79,-172.793 3063.05,-162.198 3132.75,-141 3144.24,-137.506 3144.62,-131.224 3155.86,-127 3188.57,-114.707 3225.97,-106.68 3259.44,-101.462"/>
<polygon fill="#dfcac1" stroke="#dfcac1" points="2407.03,-175.37 2396.96,-171.048 2402.04,-175.458 2397.04,-175.547 2397.04,-175.547 2397.04,-175.547 2402.04,-175.458 2397.12,-180.046 2407.03,-175.37 2407.03,-175.37"/>
<polygon fill="#dfcac1" stroke="#dfcac1" points="3259.8,-101.408 3270.36,-104.381 3264.75,-100.669 3269.69,-99.9305 3269.69,-99.9305 3269.69,-99.9305 3264.75,-100.669 3269.03,-95.4799 3259.8,-101.408 3259.8,-101.408"/>
<text text-anchor="middle" x="3178.69" y="-129.8" font-family="Times,serif" font-size="14.00">industry</text>
</g>
<!-- User&#45;&gt;ActsAsTaggableOn::Tag -->
<g id="edge28" class="edge"><title>User&#45;&gt;ActsAsTaggableOn::Tag</title>
<path fill="none" stroke="#77a992" d="M2406.97,-175.536C2558.58,-173.494 3125.2,-164.358 3201.75,-141 3213.13,-137.527 3213.64,-131.704 3224.57,-127 3242.78,-119.16 3263.2,-112.676 3282.37,-107.508"/>
<polygon fill="#77a992" stroke="#77a992" points="2406.78,-175.538 2396.72,-171.171 2401.78,-175.604 2396.78,-175.67 2396.78,-175.67 2396.78,-175.67 2401.78,-175.604 2396.84,-180.17 2406.78,-175.538 2406.78,-175.538"/>
<polygon fill="#77a992" stroke="#77a992" points="3282.58,-107.452 3293.4,-109.28 3287.42,-106.189 3292.26,-104.926 3292.26,-104.926 3292.26,-104.926 3287.42,-106.189 3291.12,-100.572 3282.58,-107.452 3282.58,-107.452"/>
<text text-anchor="middle" x="3240.84" y="-129.8" font-family="Times,serif" font-size="14.00">career</text>
</g>
<!-- User&#45;&gt;ActsAsTaggableOn::Tag -->
<g id="edge30" class="edge"><title>User&#45;&gt;ActsAsTaggableOn::Tag</title>
<path fill="none" stroke="#b2a4d7" d="M2406.92,-175.618C2564.9,-173.849 3176.33,-165.469 3258.75,-141 3270.39,-137.543 3271.52,-132.756 3282.22,-127 3291.45,-122.029 3301.51,-116.965 3311.1,-112.291"/>
<polygon fill="#b2a4d7" stroke="#b2a4d7" points="2406.75,-175.62 2396.71,-171.23 2401.76,-175.675 2396.76,-175.73 2396.76,-175.73 2396.76,-175.73 2401.76,-175.675 2396.8,-180.23 2406.75,-175.62 2406.75,-175.62"/>
<polygon fill="#b2a4d7" stroke="#b2a4d7" points="3311.11,-112.285 3322.07,-111.998 3315.62,-110.115 3320.12,-107.944 3320.12,-107.944 3320.12,-107.944 3315.62,-110.115 3318.17,-103.89 3311.11,-112.285 3311.11,-112.285"/>
<text text-anchor="middle" x="3307.01" y="-129.8" font-family="Times,serif" font-size="14.00">language</text>
</g>
<!-- User&#45;&gt;ActsAsTaggableOn::Tag -->
<g id="edge32" class="edge"><title>User&#45;&gt;ActsAsTaggableOn::Tag</title>
<path fill="none" stroke="#e5d562" d="M2406.89,-175.741C2579.16,-174.403 3293.71,-167.283 3332.75,-141 3340.42,-135.834 3345.45,-127.316 3348.73,-118.818"/>
<polygon fill="#e5d562" stroke="#e5d562" points="2406.79,-175.742 2396.76,-171.318 2401.79,-175.78 2396.79,-175.818 2396.79,-175.818 2396.79,-175.818 2401.79,-175.78 2396.82,-180.318 2406.79,-175.742 2406.79,-175.742"/>
<polygon fill="#e5d562" stroke="#e5d562" points="3348.81,-118.584 3356.13,-110.418 3350.32,-113.819 3351.84,-109.054 3351.84,-109.054 3351.84,-109.054 3350.32,-113.819 3347.55,-107.69 3348.81,-118.584 3348.81,-118.584"/>
<text text-anchor="middle" x="3380.11" y="-129.8" font-family="Times,serif" font-size="14.00">wexperience</text>
</g>
<!-- User&#45;&gt;ActsAsTaggableOn::Tag -->
<g id="edge34" class="edge"><title>User&#45;&gt;ActsAsTaggableOn::Tag</title>
<path fill="none" stroke="#f61527" d="M2406.96,-176.192C2589.6,-176.953 3383.85,-178.116 3419.75,-141 3430.1,-130.301 3420.93,-120.111 3406.55,-111.823"/>
<polygon fill="#f61527" stroke="#f61527" points="2406.78,-176.191 2396.8,-171.647 2401.78,-176.169 2396.78,-176.147 2396.78,-176.147 2396.78,-176.147 2401.78,-176.169 2396.76,-180.647 2406.78,-176.191 2406.78,-176.191"/>
<polygon fill="#f61527" stroke="#f61527" points="3406.46,-111.779 3399.66,-103.178 3402.02,-109.476 3397.59,-107.173 3397.59,-107.173 3397.59,-107.173 3402.02,-109.476 3395.51,-111.167 3406.46,-111.779 3406.46,-111.779"/>
<text text-anchor="middle" x="3452" y="-129.8" font-family="Times,serif" font-size="14.00">undergrad</text>
</g>
<!-- User&#45;&gt;ActsAsTaggableOn::Tag -->
<g id="edge36" class="edge"><title>User&#45;&gt;ActsAsTaggableOn::Tag</title>
<path fill="none" stroke="#f632b5" d="M2406.83,-176.267C2596.03,-177.448 3446.43,-180.542 3484.75,-141 3503.76,-121.379 3480.49,-109.528 3448.64,-102.413"/>
<polygon fill="#f632b5" stroke="#f632b5" points="2406.82,-176.267 2396.85,-171.702 2401.82,-176.234 2396.82,-176.202 2396.82,-176.202 2396.82,-176.202 2401.82,-176.234 2396.79,-180.702 2406.82,-176.267 2406.82,-176.267"/>
<polygon fill="#f632b5" stroke="#f632b5" points="3448.31,-102.347 3439.41,-95.9434 3443.41,-101.35 3438.51,-100.353 3438.51,-100.353 3438.51,-100.353 3443.41,-101.35 3437.62,-104.763 3448.31,-102.347 3448.31,-102.347"/>
<text text-anchor="middle" x="3532.34" y="-129.8" font-family="Times,serif" font-size="14.00">uconcentration</text>
</g>
<!-- User&#45;&gt;ActsAsTaggableOn::Tag -->
<g id="edge38" class="edge"><title>User&#45;&gt;ActsAsTaggableOn::Tag</title>
<path fill="none" stroke="#14d844" d="M2406.78,-175.63C2607.5,-173.541 3556.83,-162.53 3577.75,-141 3582.08,-136.537 3581.79,-131.729 3577.75,-127 3562.08,-108.68 3509.97,-99.8854 3460.06,-95.6913"/>
<polygon fill="#14d844" stroke="#14d844" points="2406.73,-175.631 2396.69,-171.234 2401.73,-175.682 2396.73,-175.734 2396.73,-175.734 2396.73,-175.734 2401.73,-175.682 2396.78,-180.234 2406.73,-175.631 2406.73,-175.631"/>
<polygon fill="#14d844" stroke="#14d844" points="3459.76,-95.6678 3450.14,-90.4021 3454.78,-95.2781 3449.79,-94.8884 3449.79,-94.8884 3449.79,-94.8884 3454.78,-95.2781 3449.44,-99.3747 3459.76,-95.6678 3459.76,-95.6678"/>
<text text-anchor="middle" x="3596.68" y="-129.8" font-family="Times,serif" font-size="14.00">travel</text>
</g>
<!-- User&#45;&gt;ActsAsTaggableOn::Tag -->
<g id="edge40" class="edge"><title>User&#45;&gt;ActsAsTaggableOn::Tag</title>
<path fill="none" stroke="#e7f756" d="M2406.98,-175.663C2612.02,-173.719 3595.11,-163.251 3616.75,-141 3641.59,-115.455 3541.74,-102.912 3458.23,-96.9723"/>
<polygon fill="#e7f756" stroke="#e7f756" points="2406.73,-175.665 2396.69,-171.259 2401.73,-175.712 2396.73,-175.759 2396.73,-175.759 2396.73,-175.759 2401.73,-175.712 2396.77,-180.259 2406.73,-175.665 2406.73,-175.665"/>
<polygon fill="#e7f756" stroke="#e7f756" points="3458.11,-96.9644 3448.44,-91.7908 3453.12,-96.6223 3448.13,-96.2802 3448.13,-96.2802 3448.13,-96.2802 3453.12,-96.6223 3447.83,-100.77 3458.11,-96.9644 3458.11,-96.9644"/>
<text text-anchor="middle" x="3632.57" y="-129.8" font-family="Times,serif" font-size="14.00">state</text>
</g>
<!-- User&#45;&gt;ActsAsTaggableOn::Tag -->
<g id="edge42" class="edge"><title>User&#45;&gt;ActsAsTaggableOn::Tag</title>
<path fill="none" stroke="#554a03" d="M2406.98,-175.69C2615.26,-173.872 3627.5,-163.867 3649.75,-141 3678.68,-111.262 3556.48,-99.5568 3460.59,-94.9593"/>
<polygon fill="#554a03" stroke="#554a03" points="2406.85,-175.691 2396.81,-171.278 2401.85,-175.735 2396.85,-175.778 2396.85,-175.778 2396.85,-175.778 2401.85,-175.735 2396.89,-180.278 2406.85,-175.691 2406.85,-175.691"/>
<polygon fill="#554a03" stroke="#554a03" points="3460.5,-94.9556 3450.72,-90.0021 3455.51,-94.7265 3450.52,-94.4974 3450.52,-94.4974 3450.52,-94.4974 3455.51,-94.7265 3450.31,-98.9927 3460.5,-94.9556 3460.5,-94.9556"/>
<text text-anchor="middle" x="3665.81" y="-129.8" font-family="Times,serif" font-size="14.00">skill</text>
</g>
<!-- User&#45;&gt;ActsAsTaggableOn::Tag -->
<g id="edge44" class="edge"><title>User&#45;&gt;ActsAsTaggableOn::Tag</title>
<path fill="none" stroke="#7de00d" d="M2407.23,-175.714C2619.18,-174.008 3658.91,-164.455 3681.75,-141 3714.77,-107.083 3569.52,-96.5303 3461.99,-93.3144"/>
<polygon fill="#7de00d" stroke="#7de00d" points="2406.93,-175.716 2396.9,-171.296 2401.93,-175.756 2396.93,-175.796 2396.93,-175.796 2396.93,-175.796 2401.93,-175.756 2396.97,-180.295 2406.93,-175.716 2406.93,-175.716"/>
<polygon fill="#7de00d" stroke="#7de00d" points="3461.71,-93.3065 3451.84,-88.5274 3456.71,-93.1661 3451.71,-93.0256 3451.71,-93.0256 3451.71,-93.0256 3456.71,-93.1661 3451.58,-97.5238 3461.71,-93.3065 3461.71,-93.3065"/>
<text text-anchor="middle" x="3696.63" y="-129.8" font-family="Times,serif" font-size="14.00">size</text>
</g>
<!-- User&#45;&gt;ActsAsTaggableOn::Tag -->
<g id="edge46" class="edge"><title>User&#45;&gt;ActsAsTaggableOn::Tag</title>
<path fill="none" stroke="#728b68" d="M2407.07,-175.738C2621.54,-174.145 3688.34,-165.022 3711.75,-141 3748.73,-103.038 3580.37,-93.8622 3462.28,-91.9973"/>
<polygon fill="#728b68" stroke="#728b68" points="2406.95,-175.739 2396.91,-171.312 2401.95,-175.775 2396.95,-175.812 2396.95,-175.812 2396.95,-175.812 2401.95,-175.775 2396.98,-180.312 2406.95,-175.739 2406.95,-175.739"/>
<polygon fill="#728b68" stroke="#728b68" points="3462.09,-91.9947 3452.16,-87.3528 3457.09,-91.9235 3452.09,-91.8523 3452.09,-91.8523 3452.09,-91.8523 3457.09,-91.9235 3452.03,-96.3519 3462.09,-91.9947 3462.09,-91.9947"/>
<text text-anchor="middle" x="3726.08" y="-129.8" font-family="Times,serif" font-size="14.00">sex</text>
</g>
<!-- User&#45;&gt;ActsAsTaggableOn::Tag -->
<g id="edge48" class="edge"><title>User&#45;&gt;ActsAsTaggableOn::Tag</title>
<path fill="none" stroke="#66b807" d="M2407.15,-175.758C2624.47,-174.263 3715.82,-165.543 3739.75,-141 3744.09,-136.544 3743.94,-131.595 3739.75,-127 3721.2,-106.685 3568.48,-98.0354 3461.06,-94.4416"/>
<polygon fill="#66b807" stroke="#66b807" points="2406.9,-175.759 2396.87,-171.327 2401.9,-175.793 2396.9,-175.827 2396.9,-175.827 2396.9,-175.827 2401.9,-175.793 2396.93,-180.327 2406.9,-175.759 2406.9,-175.759"/>
<polygon fill="#66b807" stroke="#66b807" points="3460.81,-94.4335 3450.96,-89.6117 3455.81,-94.2714 3450.82,-94.1094 3450.82,-94.1094 3450.82,-94.1094 3455.81,-94.2714 3450.67,-98.607 3460.81,-94.4335 3460.81,-94.4335"/>
<text text-anchor="middle" x="3760.63" y="-129.8" font-family="Times,serif" font-size="14.00">region</text>
</g>
<!-- User&#45;&gt;ActsAsTaggableOn::Tag -->
<g id="edge50" class="edge"><title>User&#45;&gt;ActsAsTaggableOn::Tag</title>
<path fill="none" stroke="#d19c4d" d="M2406.93,-175.789C2627.74,-174.449 3758.01,-166.356 3782.75,-141 3787.09,-136.546 3786.96,-131.576 3782.75,-127 3761.39,-103.827 3581.56,-95.9965 3461.89,-93.3504"/>
<polygon fill="#d19c4d" stroke="#d19c4d" points="2406.82,-175.789 2396.79,-171.349 2401.82,-175.819 2396.82,-175.849 2396.82,-175.849 2396.82,-175.849 2401.82,-175.819 2396.85,-180.349 2406.82,-175.789 2406.82,-175.789"/>
<polygon fill="#d19c4d" stroke="#d19c4d" points="3461.59,-93.344 3451.68,-88.633 3456.59,-93.238 3451.59,-93.132 3451.59,-93.132 3451.59,-93.132 3456.59,-93.238 3451.49,-97.631 3461.59,-93.344 3461.59,-93.344"/>
<text text-anchor="middle" x="3829.29" y="-129.8" font-family="Times,serif" font-size="14.00">mconcentration</text>
</g>
<!-- User&#45;&gt;ActsAsTaggableOn::Tag -->
<g id="edge52" class="edge"><title>User&#45;&gt;ActsAsTaggableOn::Tag</title>
<path fill="none" stroke="#ad012d" d="M2406.69,-173.227C2468.98,-168.317 2598.78,-157.071 2707.75,-141 2740.39,-136.185 2747.92,-131.124 2780.66,-127 2943.07,-106.545 3132.88,-97.9353 3248.41,-94.3879"/>
<polygon fill="#ad012d" stroke="#ad012d" points="2406.54,-173.239 2396.22,-169.529 2401.56,-173.627 2396.57,-174.016 2396.57,-174.016 2396.57,-174.016 2401.56,-173.627 2396.92,-178.502 2406.54,-173.239 2406.54,-173.239"/>
<polygon fill="#ad012d" stroke="#ad012d" points="3248.66,-94.3802 3258.8,-98.5783 3253.66,-94.2302 3258.66,-94.0803 3258.66,-94.0803 3258.66,-94.0803 3253.66,-94.2302 3258.53,-89.5823 3248.66,-94.3802 3248.66,-94.3802"/>
<text text-anchor="middle" x="2816.29" y="-129.8" font-family="Times,serif" font-size="14.00">demographic</text>
</g>
<!-- User&#45;&gt;ActsAsTaggableOn::Tag -->
<g id="edge54" class="edge"><title>User&#45;&gt;ActsAsTaggableOn::Tag</title>
<path fill="none" stroke="#aa6a0c" d="M2406.73,-175.545C2504.97,-173.985 2770.55,-167.38 2853.75,-141 2865.25,-137.354 2865.5,-130.652 2877,-127 2943.67,-105.826 3129.01,-97.3668 3248.28,-94.0548"/>
<polygon fill="#aa6a0c" stroke="#aa6a0c" points="2406.68,-175.546 2396.61,-171.197 2401.68,-175.621 2396.68,-175.696 2396.68,-175.696 2396.68,-175.696 2401.68,-175.621 2396.75,-180.196 2406.68,-175.546 2406.68,-175.546"/>
<polygon fill="#aa6a0c" stroke="#aa6a0c" points="3248.54,-94.0479 3258.65,-98.2765 3253.53,-93.913 3258.53,-93.7782 3258.53,-93.7782 3258.53,-93.7782 3253.53,-93.913 3258.41,-89.2798 3248.54,-94.0479 3248.54,-94.0479"/>
<text text-anchor="middle" x="2898.12" y="-129.8" font-family="Times,serif" font-size="14.00">balance</text>
</g>
<!-- User&#45;&gt;ActsAsTaggableOn::Tag -->
<g id="edge56" class="edge"><title>User&#45;&gt;ActsAsTaggableOn::Tag</title>
<path fill="none" stroke="#205c4c" d="M2406.96,-175.902C2514.43,-175.263 2823.68,-170.811 2919.75,-141 2931.34,-137.403 2931.64,-130.721 2943.2,-127 2998.19,-109.291 3147,-100.009 3249.74,-95.5611"/>
<polygon fill="#205c4c" stroke="#205c4c" points="2406.91,-175.903 2396.89,-171.454 2401.91,-175.928 2396.91,-175.954 2396.91,-175.954 2396.91,-175.954 2401.91,-175.928 2396.94,-180.454 2406.91,-175.903 2406.91,-175.903"/>
<polygon fill="#205c4c" stroke="#205c4c" points="3249.86,-95.5563 3260.04,-99.6287 3254.85,-95.3445 3259.85,-95.1327 3259.85,-95.1327 3259.85,-95.1327 3254.85,-95.3445 3259.66,-90.6368 3249.86,-95.5563 3249.86,-95.5563"/>
<text text-anchor="middle" x="2954.02" y="-129.8" font-family="Times,serif" font-size="14.00">visa</text>
</g>
<!-- User&#45;&gt;ActsAsTaggableOn::Tag -->
<g id="edge58" class="edge"><title>User&#45;&gt;ActsAsTaggableOn::Tag</title>
<path fill="none" stroke="#30a3c4" d="M2407.11,-176.56C2520.99,-177.837 2862.34,-178.367 2965.75,-141 2975.61,-137.434 2974.95,-130.741 2984.75,-127 3031.53,-109.149 3157.55,-100.079 3249.56,-95.7037"/>
<polygon fill="#30a3c4" stroke="#30a3c4" points="2406.81,-176.556 2396.86,-171.936 2401.81,-176.496 2396.81,-176.435 2396.81,-176.435 2396.81,-176.435 2401.81,-176.496 2396.75,-180.935 2406.81,-176.556 2406.81,-176.556"/>
<polygon fill="#30a3c4" stroke="#30a3c4" points="3249.77,-95.6942 3259.96,-99.7264 3254.76,-95.4627 3259.75,-95.2312 3259.75,-95.2312 3259.75,-95.2312 3254.76,-95.4627 3259.55,-90.7361 3249.77,-95.6942 3249.77,-95.6942"/>
<text text-anchor="middle" x="2995.24" y="-129.8" font-family="Times,serif" font-size="14.00">city</text>
</g>
<!-- Visa -->
<g id="node37" class="node"><title>Visa</title>
<ellipse fill="none" stroke="black" cx="4209.75" cy="-341.5" rx="27" ry="18"/>
<text text-anchor="middle" x="4209.75" y="-337.3" font-family="Times,serif" font-size="14.00">Visa</text>
</g>
<!-- Wexperience -->
<g id="node39" class="node"><title>Wexperience</title>
<ellipse fill="none" stroke="black" cx="4310.75" cy="-341.5" rx="56.0855" ry="18"/>
<text text-anchor="middle" x="4310.75" y="-337.3" font-family="Times,serif" font-size="14.00">Wexperience</text>
</g>
</g>
</svg>
