<?xml version="1.0" encoding="UTF-8" standalone="no"?>
<!DOCTYPE svg PUBLIC "-//W3C//DTD SVG 1.1//EN"
 "http://www.w3.org/Graphics/SVG/1.1/DTD/svg11.dtd">
<!-- Generated by graphviz version 2.38.0 (20140413.2041)
 -->
<!-- Title: models_diagram Pages: 1 -->
<svg width="4540pt" height="386pt"
 viewBox="0.00 0.00 4539.79 386.00" xmlns="http://www.w3.org/2000/svg" xmlns:xlink="http://www.w3.org/1999/xlink">
<g id="graph0" class="graph" transform="scale(1 1) rotate(0) translate(4 382)">
<title>models_diagram</title>
<polygon fill="none" stroke="none" points="-4,4 -4,-382 4535.79,-382 4535.79,4 -4,4"/>
<!-- _diagram_info -->
<g id="node1" class="node"><title>_diagram_info</title>
<text text-anchor="start" x="2084.06" y="-363.6" font-family="Times,serif" font-size="13.00">Models diagram</text>
<text text-anchor="start" x="2084.06" y="-350.6" font-family="Times,serif" font-size="13.00">Date: Jun 22 2016 &#45; 17:33</text>
<text text-anchor="start" x="2084.06" y="-337.6" font-family="Times,serif" font-size="13.00">Migration version: 20160622213323</text>
<text text-anchor="start" x="2084.06" y="-324.6" font-family="Times,serif" font-size="13.00">Generated by RailRoady 1.3.1</text>
<text text-anchor="start" x="2084.06" y="-311.6" font-family="Times,serif" font-size="13.00">http://railroady.prestonlee.com</text>
</g>
<!-- Ability -->
<g id="node2" class="node"><title>Ability</title>
<polygon fill="none" stroke="black" points="2357.42,-359.5 2302.08,-359.5 2302.08,-323.5 2357.42,-323.5 2357.42,-359.5"/>
<text text-anchor="middle" x="2329.75" y="-337.3" font-family="Times,serif" font-size="14.00">Ability</text>
</g>
<!-- Admin -->
<g id="node3" class="node"><title>Admin</title>
<ellipse fill="none" stroke="black" cx="2410.75" cy="-341.5" rx="34.8458" ry="18"/>
<text text-anchor="middle" x="2410.75" y="-337.3" font-family="Times,serif" font-size="14.00">Admin</text>
</g>
<!-- Analytic -->
<g id="node4" class="node"><title>Analytic</title>
<ellipse fill="none" stroke="black" cx="3685.75" cy="-91" rx="40.6162" ry="18"/>
<text text-anchor="middle" x="3685.75" y="-86.8" font-family="Times,serif" font-size="14.00">Analytic</text>
</g>
<!-- Article -->
<g id="node5" class="node"><title>Article</title>
<ellipse fill="none" stroke="black" cx="3933.75" cy="-91" rx="34.8198" ry="18"/>
<text text-anchor="middle" x="3933.75" y="-86.8" font-family="Times,serif" font-size="14.00">Article</text>
</g>
<!-- BackgroundInfo -->
<g id="node6" class="node"><title>BackgroundInfo</title>
<ellipse fill="none" stroke="black" cx="3812.75" cy="-91" rx="68.1287" ry="18"/>
<text text-anchor="middle" x="3812.75" y="-86.8" font-family="Times,serif" font-size="14.00">BackgroundInfo</text>
</g>
<!-- Experience -->
<g id="node14" class="node"><title>Experience</title>
<ellipse fill="none" stroke="black" cx="1097.75" cy="-18" rx="49.7533" ry="18"/>
<text text-anchor="middle" x="1097.75" y="-13.8" font-family="Times,serif" font-size="14.00">Experience</text>
</g>
<!-- BackgroundInfo&#45;&gt;Experience -->
<g id="edge1" class="edge"><title>BackgroundInfo&#45;&gt;Experience</title>
<path fill="none" stroke="#364223" d="M3757.05,-76.3507C3749.92,-75.0023 3742.68,-73.8286 3735.75,-73 3472.34,-41.5371 1525.64,-22.799 1157.67,-19.5188"/>
<ellipse fill="none" stroke="#364223" cx="3761.43" cy="-77.2227" rx="4.00001" ry="4.00001"/>
<polygon fill="#364223" stroke="#364223" points="1157.49,-19.5174 1147.54,-14.9287 1152.49,-19.473 1147.5,-19.4285 1147.5,-19.4285 1147.5,-19.4285 1152.49,-19.473 1147.46,-23.9283 1157.49,-19.5174 1157.49,-19.5174"/>
</g>
<!-- Balance -->
<g id="node7" class="node"><title>Balance</title>
<ellipse fill="none" stroke="black" cx="2588.75" cy="-341.5" rx="38.6695" ry="18"/>
<text text-anchor="middle" x="2588.75" y="-337.3" font-family="Times,serif" font-size="14.00">Balance</text>
</g>
<!-- Career -->
<g id="node8" class="node"><title>Career</title>
<ellipse fill="none" stroke="black" cx="2678.75" cy="-341.5" rx="33.8422" ry="18"/>
<text text-anchor="middle" x="2678.75" y="-337.3" font-family="Times,serif" font-size="14.00">Career</text>
</g>
<!-- City -->
<g id="node9" class="node"><title>City</title>
<ellipse fill="none" stroke="black" cx="2757.75" cy="-341.5" rx="27" ry="18"/>
<text text-anchor="middle" x="2757.75" y="-337.3" font-family="Times,serif" font-size="14.00">City</text>
</g>
<!-- Clerk -->
<g id="node10" class="node"><title>Clerk</title>
<ellipse fill="none" stroke="black" cx="2497.75" cy="-250" rx="29.5104" ry="18"/>
<text text-anchor="middle" x="2497.75" y="-245.8" font-family="Times,serif" font-size="14.00">Clerk</text>
</g>
<!-- User -->
<g id="node35" class="node"><title>User</title>
<ellipse fill="none" stroke="black" cx="2439.75" cy="-177" rx="27" ry="18"/>
<text text-anchor="middle" x="2439.75" y="-172.8" font-family="Times,serif" font-size="14.00">User</text>
</g>
<!-- Clerk&#45;&gt;User -->
<g id="edge2" class="edge"><title>Clerk&#45;&gt;User</title>
<path fill="none" stroke="#c5426a" d="M2478.58,-225.542C2472.24,-217.773 2465.18,-209.132 2458.84,-201.37"/>
<polygon fill="#c5426a" stroke="#c5426a" points="2478.84,-225.85 2481.68,-236.441 2482,-229.722 2485.16,-233.594 2485.16,-233.594 2485.16,-233.594 2482,-229.722 2488.65,-230.747 2478.84,-225.85 2478.84,-225.85"/>
<polygon fill="#c5426a" stroke="#c5426a" points="2458.63,-201.12 2455.79,-190.529 2455.47,-197.248 2452.31,-193.376 2452.31,-193.376 2452.31,-193.376 2455.47,-197.248 2448.82,-196.223 2458.63,-201.12 2458.63,-201.12"/>
</g>
<!-- Demo -->
<g id="node11" class="node"><title>Demo</title>
<ellipse fill="none" stroke="black" cx="2834.75" cy="-341.5" rx="31.9393" ry="18"/>
<text text-anchor="middle" x="2834.75" y="-337.3" font-family="Times,serif" font-size="14.00">Demo</text>
</g>
<!-- Demographic -->
<g id="node12" class="node"><title>Demographic</title>
<ellipse fill="none" stroke="black" cx="2942.75" cy="-341.5" rx="58.4737" ry="18"/>
<text text-anchor="middle" x="2942.75" y="-337.3" font-family="Times,serif" font-size="14.00">Demographic</text>
</g>
<!-- Domain -->
<g id="node13" class="node"><title>Domain</title>
<ellipse fill="none" stroke="black" cx="117.747" cy="-91" rx="38.6955" ry="18"/>
<text text-anchor="middle" x="117.747" y="-86.8" font-family="Times,serif" font-size="14.00">Domain</text>
</g>
<!-- GoodnessValidator -->
<g id="node15" class="node"><title>GoodnessValidator</title>
<polygon fill="none" stroke="black" points="3141.79,-359.5 3019.71,-359.5 3019.71,-323.5 3141.79,-323.5 3141.79,-359.5"/>
<text text-anchor="middle" x="3080.75" y="-337.3" font-family="Times,serif" font-size="14.00">GoodnessValidator</text>
</g>
<!-- HomepageInfo -->
<g id="node16" class="node"><title>HomepageInfo</title>
<ellipse fill="none" stroke="black" cx="275.747" cy="-91" rx="63.2924" ry="18"/>
<text text-anchor="middle" x="275.747" y="-86.8" font-family="Times,serif" font-size="14.00">HomepageInfo</text>
</g>
<!-- Industry -->
<g id="node17" class="node"><title>Industry</title>
<ellipse fill="none" stroke="black" cx="3199.75" cy="-341.5" rx="39.6645" ry="18"/>
<text text-anchor="middle" x="3199.75" y="-337.3" font-family="Times,serif" font-size="14.00">Industry</text>
</g>
<!-- Language -->
<g id="node18" class="node"><title>Language</title>
<ellipse fill="none" stroke="black" cx="3302.75" cy="-341.5" rx="44.9423" ry="18"/>
<text text-anchor="middle" x="3302.75" y="-337.3" font-family="Times,serif" font-size="14.00">Language</text>
</g>
<!-- Mconcentration -->
<g id="node19" class="node"><title>Mconcentration</title>
<ellipse fill="none" stroke="black" cx="3431.75" cy="-341.5" rx="66.1907" ry="18"/>
<text text-anchor="middle" x="3431.75" y="-337.3" font-family="Times,serif" font-size="14.00">Mconcentration</text>
</g>
<!-- PersonalInfo -->
<g id="node20" class="node"><title>PersonalInfo</title>
<ellipse fill="none" stroke="black" cx="411.747" cy="-91" rx="55.0922" ry="18"/>
<text text-anchor="middle" x="411.747" y="-86.8" font-family="Times,serif" font-size="14.00">PersonalInfo</text>
</g>
<!-- Photo -->
<g id="node21" class="node"><title>Photo</title>
<ellipse fill="none" stroke="black" cx="30.7473" cy="-91" rx="30.9967" ry="18"/>
<text text-anchor="middle" x="30.7473" y="-86.8" font-family="Times,serif" font-size="14.00">Photo</text>
</g>
<!-- PhotoLink -->
<g id="node22" class="node"><title>PhotoLink</title>
<ellipse fill="none" stroke="black" cx="532.747" cy="-91" rx="47.3995" ry="18"/>
<text text-anchor="middle" x="532.747" y="-86.8" font-family="Times,serif" font-size="14.00">PhotoLink</text>
</g>
<!-- Project -->
<g id="node23" class="node"><title>Project</title>
<ellipse fill="none" stroke="black" cx="4021.75" cy="-91" rx="35.3129" ry="18"/>
<text text-anchor="middle" x="4021.75" y="-86.8" font-family="Times,serif" font-size="14.00">Project</text>
</g>
<!-- Region -->
<g id="node24" class="node"><title>Region</title>
<ellipse fill="none" stroke="black" cx="3551.75" cy="-341.5" rx="35.806" ry="18"/>
<text text-anchor="middle" x="3551.75" y="-337.3" font-family="Times,serif" font-size="14.00">Region</text>
</g>
<!-- School -->
<g id="node25" class="node"><title>School</title>
<ellipse fill="none" stroke="black" cx="2497.75" cy="-341.5" rx="34.8458" ry="18"/>
<text text-anchor="middle" x="2497.75" y="-337.3" font-family="Times,serif" font-size="14.00">School</text>
</g>
<!-- School&#45;&gt;Article -->
<g id="edge6" class="edge"><title>School&#45;&gt;Article</title>
<path fill="none" stroke="#2ed40f" d="M2520.13,-318.065C2526.35,-312.996 2533.42,-308.179 2540.75,-305 3061.62,-78.9604 3257.56,-281.372 3807.75,-141 3839.67,-132.855 3874.47,-118.911 3899.39,-107.975"/>
<polygon fill="#2ed40f" stroke="#2ed40f" points="2519.75,-318.402 2509.27,-321.623 2515.99,-321.703 2512.24,-325.004 2512.24,-325.004 2512.24,-325.004 2515.99,-321.703 2515.21,-328.384 2519.75,-318.402 2519.75,-318.402"/>
<polygon fill="#2ed40f" stroke="#2ed40f" points="3899.63,-107.869 3910.59,-107.911 3904.19,-105.835 3908.76,-103.8 3908.76,-103.8 3908.76,-103.8 3904.19,-105.835 3906.93,-99.6894 3899.63,-107.869 3899.63,-107.869"/>
</g>
<!-- School&#45;&gt;Clerk -->
<g id="edge4" class="edge"><title>School&#45;&gt;Clerk</title>
<path fill="none" stroke="#355cd7" d="M2497.75,-314.903C2497.75,-303.441 2497.75,-289.914 2497.75,-278.263"/>
<ellipse fill="none" stroke="#355cd7" cx="2497.75" cy="-319.243" rx="4" ry="4"/>
<polygon fill="#355cd7" stroke="#355cd7" points="2497.75,-278.204 2502.25,-268.203 2497.75,-273.204 2497.75,-268.204 2497.75,-268.204 2497.75,-268.204 2497.75,-273.204 2493.25,-268.204 2497.75,-278.204 2497.75,-278.204"/>
</g>
<!-- School&#45;&gt;Photo -->
<g id="edge7" class="edge"><title>School&#45;&gt;Photo</title>
<path fill="none" stroke="#87f3d5" d="M2475.49,-317.765C2469.27,-312.701 2462.16,-307.961 2454.75,-305 1480.33,84.0109 1087.65,-494.369 99.7473,-141 82.8384,-134.952 66.3468,-123.509 53.7284,-113.202"/>
<polygon fill="#87f3d5" stroke="#87f3d5" points="2475.88,-318.11 2480.39,-328.106 2479.62,-321.423 2483.37,-324.735 2483.37,-324.735 2483.37,-324.735 2479.62,-321.423 2486.35,-321.364 2475.88,-318.11 2475.88,-318.11"/>
<polygon fill="#87f3d5" stroke="#87f3d5" points="53.6507,-113.136 48.9441,-103.231 49.8405,-109.898 46.0302,-106.661 46.0302,-106.661 46.0302,-106.661 49.8405,-109.898 43.1164,-110.09 53.6507,-113.136 53.6507,-113.136"/>
</g>
<!-- School&#45;&gt;Project -->
<g id="edge5" class="edge"><title>School&#45;&gt;Project</title>
<path fill="none" stroke="#e281b9" d="M2520.13,-318.048C2526.34,-312.979 2533.42,-308.166 2540.75,-305 2607.73,-276.073 3771.96,-154.048 3843.75,-141 3903.99,-130.049 3919.28,-127.186 3977.75,-109 3980.3,-108.206 3982.91,-107.339 3985.54,-106.43"/>
<polygon fill="#e281b9" stroke="#e281b9" points="2519.74,-318.385 2509.26,-321.608 2515.99,-321.686 2512.23,-324.988 2512.23,-324.988 2512.23,-324.988 2515.99,-321.686 2515.2,-328.367 2519.74,-318.385 2519.74,-318.385"/>
<polygon fill="#e281b9" stroke="#e281b9" points="3985.56,-106.422 3996.49,-107.238 3990.26,-104.715 3994.96,-103.008 3994.96,-103.008 3994.96,-103.008 3990.26,-104.715 3993.42,-98.7785 3985.56,-106.422 3985.56,-106.422"/>
</g>
<!-- School&#45;&gt;User -->
<g id="edge3" class="edge"><title>School&#45;&gt;User</title>
<path fill="none" stroke="#99c262" d="M2482.85,-316.942C2474.69,-303.137 2465,-285.1 2458.75,-268 2451.22,-247.44 2446.31,-223.09 2443.37,-204.906"/>
<ellipse fill="none" stroke="#99c262" cx="2485.12" cy="-320.718" rx="4.00002" ry="4.00002"/>
<polygon fill="#99c262" stroke="#99c262" points="2443.36,-204.873 2446.31,-194.31 2442.61,-199.93 2441.86,-194.987 2441.86,-194.987 2441.86,-194.987 2442.61,-199.93 2437.41,-195.664 2443.36,-204.873 2443.36,-204.873"/>
</g>
<!-- Sex -->
<g id="node26" class="node"><title>Sex</title>
<ellipse fill="none" stroke="black" cx="3632.75" cy="-341.5" rx="27" ry="18"/>
<text text-anchor="middle" x="3632.75" y="-337.3" font-family="Times,serif" font-size="14.00">Sex</text>
</g>
<!-- Showcase -->
<g id="node27" class="node"><title>Showcase</title>
<ellipse fill="none" stroke="black" cx="3722.75" cy="-341.5" rx="45.4441" ry="18"/>
<text text-anchor="middle" x="3722.75" y="-337.3" font-family="Times,serif" font-size="14.00">Showcase</text>
</g>
<!-- Size -->
<g id="node28" class="node"><title>Size</title>
<ellipse fill="none" stroke="black" cx="3812.75" cy="-341.5" rx="27" ry="18"/>
<text text-anchor="middle" x="3812.75" y="-337.3" font-family="Times,serif" font-size="14.00">Size</text>
</g>
<!-- Skill -->
<g id="node29" class="node"><title>Skill</title>
<ellipse fill="none" stroke="black" cx="3884.75" cy="-341.5" rx="27" ry="18"/>
<text text-anchor="middle" x="3884.75" y="-337.3" font-family="Times,serif" font-size="14.00">Skill</text>
</g>
<!-- SocialLink -->
<g id="node30" class="node"><title>SocialLink</title>
<ellipse fill="none" stroke="black" cx="646.747" cy="-91" rx="48.8273" ry="18"/>
<text text-anchor="middle" x="646.747" y="-86.8" font-family="Times,serif" font-size="14.00">SocialLink</text>
</g>
<!-- State -->
<g id="node31" class="node"><title>State</title>
<ellipse fill="none" stroke="black" cx="3957.75" cy="-341.5" rx="27.5804" ry="18"/>
<text text-anchor="middle" x="3957.75" y="-337.3" font-family="Times,serif" font-size="14.00">State</text>
</g>
<!-- Travel -->
<g id="node32" class="node"><title>Travel</title>
<ellipse fill="none" stroke="black" cx="4036.75" cy="-341.5" rx="32.7528" ry="18"/>
<text text-anchor="middle" x="4036.75" y="-337.3" font-family="Times,serif" font-size="14.00">Travel</text>
</g>
<!-- Uconcentration -->
<g id="node33" class="node"><title>Uconcentration</title>
<ellipse fill="none" stroke="black" cx="4151.75" cy="-341.5" rx="64.7372" ry="18"/>
<text text-anchor="middle" x="4151.75" y="-337.3" font-family="Times,serif" font-size="14.00">Uconcentration</text>
</g>
<!-- Undergrad -->
<g id="node34" class="node"><title>Undergrad</title>
<ellipse fill="none" stroke="black" cx="4281.75" cy="-341.5" rx="47.5311" ry="18"/>
<text text-anchor="middle" x="4281.75" y="-337.3" font-family="Times,serif" font-size="14.00">Undergrad</text>
</g>
<!-- User&#45;&gt;Analytic -->
<g id="edge18" class="edge"><title>User&#45;&gt;Analytic</title>
<path fill="none" stroke="#e60324" d="M2474.94,-175.703C2677.91,-173.907 3690.55,-163.811 3712.75,-141 3720.34,-133.194 3716.1,-122.826 3708.94,-113.638"/>
<ellipse fill="none" stroke="#e60324" cx="2470.71" cy="-175.74" rx="4" ry="4"/>
<ellipse fill="#e60324" stroke="#e60324" cx="3706.25" cy="-110.532" rx="4.00002" ry="4.00002"/>
</g>
<!-- User&#45;&gt;Article -->
<g id="edge8" class="edge"><title>User&#45;&gt;Article</title>
<path fill="none" stroke="#58d720" d="M2475.19,-176.071C2658.39,-176.283 3499.49,-175.34 3757.75,-141 3817.59,-133.043 3832.14,-127.028 3889.75,-109 3892.37,-108.18 3895.06,-107.283 3897.75,-106.344"/>
<ellipse fill="none" stroke="#58d720" cx="2470.97" cy="-176.065" rx="4" ry="4"/>
<polygon fill="#58d720" stroke="#58d720" points="3898.03,-106.243 3908.96,-107.043 3902.72,-104.529 3907.42,-102.816 3907.42,-102.816 3907.42,-102.816 3902.72,-104.529 3905.88,-98.5882 3898.03,-106.243 3898.03,-106.243"/>
</g>
<!-- User&#45;&gt;BackgroundInfo -->
<g id="edge9" class="edge"><title>User&#45;&gt;BackgroundInfo</title>
<path fill="none" stroke="#883611" d="M2475.07,-176.085C2669.53,-176.416 3605.37,-176.158 3728.75,-141 3748.88,-135.262 3769.22,-123.585 3784.84,-113.07"/>
<ellipse fill="none" stroke="#883611" cx="2470.89" cy="-176.078" rx="4" ry="4"/>
<ellipse fill="#883611" stroke="#883611" cx="3788.38" cy="-110.622" rx="4.00002" ry="4.00002"/>
</g>
<!-- User&#45;&gt;Domain -->
<g id="edge17" class="edge"><title>User&#45;&gt;Domain</title>
<path fill="none" stroke="#94be8d" d="M2404.27,-175.805C2120.23,-174.197 224.877,-162.671 170.747,-141 157.067,-135.523 144.772,-124.739 135.475,-114.678"/>
<ellipse fill="none" stroke="#94be8d" cx="2408.58" cy="-175.829" rx="4" ry="4"/>
<ellipse fill="#94be8d" stroke="#94be8d" cx="132.733" cy="-111.564" rx="4.00002" ry="4.00002"/>
</g>
<!-- User&#45;&gt;Experience -->
<g id="edge10" class="edge"><title>User&#45;&gt;Experience</title>
<path fill="none" stroke="#57f1e9" d="M2402.4,-176.15C2159.52,-177.009 801.425,-179.977 388.747,-141 305.674,-133.154 257.488,-172.834 203.747,-109 193.443,-96.76 192.78,-84.6498 203.747,-73 232.362,-42.6043 842.255,-25.2011 1037.91,-20.3849"/>
<polygon fill="#57f1e9" stroke="#57f1e9" points="2402.49,-176.15 2412.5,-180.613 2407.49,-176.132 2412.49,-176.114 2412.49,-176.114 2412.49,-176.114 2407.49,-176.132 2412.47,-171.614 2402.49,-176.15 2402.49,-176.15"/>
<polygon fill="#57f1e9" stroke="#57f1e9" points="1038.01,-20.3826 1048.12,-24.6372 1043.01,-20.2605 1048.01,-20.1385 1048.01,-20.1385 1048.01,-20.1385 1043.01,-20.2605 1047.9,-15.6398 1038.01,-20.3826 1038.01,-20.3826"/>
</g>
<!-- User&#45;&gt;HomepageInfo -->
<g id="edge11" class="edge"><title>User&#45;&gt;HomepageInfo</title>
<path fill="none" stroke="#fd4670" d="M2404.67,-175.896C2155.61,-175.087 658.514,-169.079 458.747,-141 411.511,-134.36 359.061,-119.517 322.466,-107.896"/>
<ellipse fill="none" stroke="#fd4670" cx="2408.67" cy="-175.908" rx="4" ry="4"/>
<ellipse fill="#fd4670" stroke="#fd4670" cx="318.253" cy="-106.543" rx="4.00001" ry="4.00001"/>
</g>
<!-- User&#45;&gt;PersonalInfo -->
<g id="edge12" class="edge"><title>User&#45;&gt;PersonalInfo</title>
<path fill="none" stroke="#f3963f" d="M2404.4,-175.882C2148.66,-174.965 589.169,-168.264 493.747,-141 473.696,-135.271 453.56,-123.348 438.259,-112.699"/>
<ellipse fill="none" stroke="#f3963f" cx="2408.6" cy="-175.897" rx="4" ry="4"/>
<ellipse fill="#f3963f" stroke="#f3963f" cx="434.839" cy="-110.25" rx="4.00002" ry="4.00002"/>
</g>
<!-- User&#45;&gt;Photo -->
<g id="edge19" class="edge"><title>User&#45;&gt;Photo</title>
<path fill="none" stroke="#2e2860" d="M2404.47,-175.846C2123.86,-174.57 261.071,-165.206 145.747,-141 115.641,-134.681 83.6163,-120.336 61.0284,-108.792"/>
<ellipse fill="none" stroke="#2e2860" cx="2408.68" cy="-175.864" rx="4" ry="4"/>
<polygon fill="#2e2860" stroke="#2e2860" points="60.8195,-108.682 54.0448,-100.059 56.3891,-106.365 51.9588,-104.047 51.9588,-104.047 51.9588,-104.047 56.3891,-106.365 49.8728,-108.034 60.8195,-108.682 60.8195,-108.682"/>
</g>
<!-- User&#45;&gt;PhotoLink -->
<g id="edge13" class="edge"><title>User&#45;&gt;PhotoLink</title>
<path fill="none" stroke="#3f5e51" d="M2404.12,-176.044C2143.14,-176.282 535.427,-176.312 500.747,-141 492.688,-132.794 498.014,-122.264 506.463,-113.07"/>
<ellipse fill="none" stroke="#3f5e51" cx="2408.49" cy="-176.04" rx="4" ry="4"/>
<ellipse fill="#3f5e51" stroke="#3f5e51" cx="509.508" cy="-110.067" rx="4.00002" ry="4.00002"/>
</g>
<!-- User&#45;&gt;Project -->
<g id="edge14" class="edge"><title>User&#45;&gt;Project</title>
<path fill="none" stroke="#b61f8f" d="M2475,-175.865C2661.86,-175.032 3538.14,-169.637 3807.75,-141 3884.2,-132.88 3903.8,-130.053 3977.75,-109 3980.39,-108.248 3983.09,-107.401 3985.8,-106.498"/>
<ellipse fill="none" stroke="#b61f8f" cx="2470.88" cy="-175.883" rx="4" ry="4"/>
<polygon fill="#b61f8f" stroke="#b61f8f" points="3986.07,-106.401 3997,-107.282 3990.78,-104.722 3995.49,-103.044 3995.49,-103.044 3995.49,-103.044 3990.78,-104.722 3993.98,-98.8048 3986.07,-106.401 3986.07,-106.401"/>
</g>
<!-- User&#45;&gt;SocialLink -->
<g id="edge15" class="edge"><title>User&#45;&gt;SocialLink</title>
<path fill="none" stroke="#06fb71" d="M2404.25,-176.041C2144.21,-176.261 542.301,-176.185 507.747,-141 503.388,-136.561 503.854,-131.854 507.747,-127 530.823,-98.2335 553.033,-118.191 588.747,-109 593.239,-107.844 597.909,-106.58 602.562,-105.281"/>
<ellipse fill="none" stroke="#06fb71" cx="2408.59" cy="-176.037" rx="4" ry="4"/>
<ellipse fill="#06fb71" stroke="#06fb71" cx="606.493" cy="-104.165" rx="4.00001" ry="4.00001"/>
</g>
<!-- WebsiteSetting -->
<g id="node37" class="node"><title>WebsiteSetting</title>
<ellipse fill="none" stroke="black" cx="776.747" cy="-91" rx="63.3707" ry="18"/>
<text text-anchor="middle" x="776.747" y="-86.8" font-family="Times,serif" font-size="14.00">WebsiteSetting</text>
</g>
<!-- User&#45;&gt;WebsiteSetting -->
<g id="edge16" class="edge"><title>User&#45;&gt;WebsiteSetting</title>
<path fill="none" stroke="#4f9242" d="M2404.38,-176.039C2145.29,-176.241 549.175,-176.059 514.747,-141 510.388,-136.56 510.56,-131.603 514.747,-127 529.017,-111.314 683.823,-112.445 704.747,-109 710.896,-107.988 717.3,-106.749 723.641,-105.405"/>
<ellipse fill="none" stroke="#4f9242" cx="2408.69" cy="-176.035" rx="4" ry="4"/>
<ellipse fill="#4f9242" stroke="#4f9242" cx="727.71" cy="-104.513" rx="4.00001" ry="4.00001"/>
</g>
<!-- ActsAsTaggableOn::Tagging -->
<g id="node39" class="node"><title>ActsAsTaggableOn::Tagging</title>
<ellipse fill="none" stroke="black" cx="1519.75" cy="-91" rx="113.006" ry="18"/>
<text text-anchor="middle" x="1519.75" y="-86.8" font-family="Times,serif" font-size="14.00">ActsAsTaggableOn::Tagging</text>
</g>
<!-- User&#45;&gt;ActsAsTaggableOn::Tagging -->
<g id="edge20" class="edge"><title>User&#45;&gt;ActsAsTaggableOn::Tagging</title>
<path fill="none" stroke="#9ebc51" d="M2404.57,-175.782C2191.38,-174.379 1080.56,-165.88 1056.31,-141 1051.96,-136.545 1052.08,-131.562 1056.31,-127 1079.08,-102.446 1267.19,-95.0192 1396.64,-92.8318"/>
<ellipse fill="none" stroke="#9ebc51" cx="2408.63" cy="-175.808" rx="4" ry="4"/>
<polygon fill="#9ebc51" stroke="#9ebc51" points="1397.02,-92.8257 1407.09,-97.1648 1402.02,-92.7455 1407.02,-92.6654 1407.02,-92.6654 1407.02,-92.6654 1402.02,-92.7455 1406.95,-88.1659 1397.02,-92.8257 1397.02,-92.8257"/>
<text text-anchor="middle" x="1080.47" y="-129.8" font-family="Times,serif" font-size="14.00">taggings</text>
</g>
<!-- User&#45;&gt;ActsAsTaggableOn::Tagging -->
<g id="edge22" class="edge"><title>User&#45;&gt;ActsAsTaggableOn::Tagging</title>
<path fill="none" stroke="#4f3def" d="M2404.43,-175.732C2197.46,-174.077 1150.13,-164.547 1127.2,-141 1122.86,-136.542 1123,-131.591 1127.2,-127 1145.41,-107.097 1290.15,-98.4333 1398.62,-94.7146"/>
<ellipse fill="none" stroke="#4f3def" cx="2408.55" cy="-175.764" rx="4" ry="4"/>
<polygon fill="#4f3def" stroke="#4f3def" points="1398.67,-94.7129 1408.82,-98.8781 1403.67,-94.5468 1408.67,-94.3806 1408.67,-94.3806 1408.67,-94.3806 1403.67,-94.5468 1408.52,-89.8831 1398.67,-94.7129 1398.67,-94.7129"/>
<text text-anchor="middle" x="1163.52" y="-129.8" font-family="Times,serif" font-size="14.00">tag_taggings</text>
</g>
<!-- User&#45;&gt;ActsAsTaggableOn::Tagging -->
<g id="edge24" class="edge"><title>User&#45;&gt;ActsAsTaggableOn::Tagging</title>
<path fill="none" stroke="#292135" d="M2404.49,-175.658C2206.63,-173.655 1242.59,-162.787 1221.42,-141 1193.54,-112.307 1304.65,-100.411 1399.11,-95.4819"/>
<ellipse fill="none" stroke="#292135" cx="2408.53" cy="-175.698" rx="4" ry="4"/>
<polygon fill="#292135" stroke="#292135" points="1399.37,-95.4689 1409.58,-99.4648 1404.36,-95.2196 1409.36,-94.9704 1409.36,-94.9704 1409.36,-94.9704 1404.36,-95.2196 1409.13,-90.476 1399.37,-95.4689 1399.37,-95.4689"/>
<text text-anchor="middle" x="1271.91" y="-129.8" font-family="Times,serif" font-size="14.00">industry_taggings</text>
</g>
<!-- User&#45;&gt;ActsAsTaggableOn::Tagging -->
<g id="edge26" class="edge"><title>User&#45;&gt;ActsAsTaggableOn::Tagging</title>
<path fill="none" stroke="#cd2390" d="M2404.4,-176.234C2220.78,-177.28 1382.81,-179.905 1345.13,-141 1319.36,-114.397 1354.13,-101.896 1399.25,-96.1543"/>
<ellipse fill="none" stroke="#cd2390" cx="2408.64" cy="-176.209" rx="4" ry="4"/>
<polygon fill="#cd2390" stroke="#cd2390" points="1399.4,-96.1377 1409.85,-99.4673 1404.37,-95.5672 1409.33,-94.9967 1409.33,-94.9967 1409.33,-94.9967 1404.37,-95.5672 1408.82,-90.526 1399.4,-96.1377 1399.4,-96.1377"/>
<text text-anchor="middle" x="1390.06" y="-129.8" font-family="Times,serif" font-size="14.00">career_taggings</text>
</g>
<!-- User&#45;&gt;ActsAsTaggableOn::Tagging -->
<g id="edge28" class="edge"><title>User&#45;&gt;ActsAsTaggableOn::Tagging</title>
<path fill="none" stroke="#8596c7" d="M2404.21,-176.1C2231.9,-176.414 1490.3,-175.741 1456.77,-141 1446.9,-130.764 1455.08,-120.856 1468.41,-112.659"/>
<ellipse fill="none" stroke="#8596c7" cx="2408.44" cy="-176.092" rx="4" ry="4"/>
<polygon fill="#8596c7" stroke="#8596c7" points="1468.51,-112.608 1479.44,-111.733 1472.89,-110.198 1477.27,-107.789 1477.27,-107.789 1477.27,-107.789 1472.89,-110.198 1475.1,-103.846 1468.51,-112.608 1468.51,-112.608"/>
<text text-anchor="middle" x="1509.23" y="-129.8" font-family="Times,serif" font-size="14.00">language_taggings</text>
</g>
<!-- User&#45;&gt;ActsAsTaggableOn::Tagging -->
<g id="edge30" class="edge"><title>User&#45;&gt;ActsAsTaggableOn::Tagging</title>
<path fill="none" stroke="#ef4036" d="M2404.24,-175.795C2252.47,-174.751 1662.48,-168.917 1584.57,-141 1576.36,-138.056 1560.94,-126.513 1547.21,-115.371"/>
<ellipse fill="none" stroke="#ef4036" cx="2408.37" cy="-175.823" rx="4" ry="4"/>
<polygon fill="#ef4036" stroke="#ef4036" points="1547.1,-115.282 1542.24,-105.451 1543.24,-112.103 1539.38,-108.924 1539.38,-108.924 1539.38,-108.924 1543.24,-112.103 1536.52,-112.398 1547.1,-115.282 1547.1,-115.282"/>
<text text-anchor="middle" x="1646.33" y="-129.8" font-family="Times,serif" font-size="14.00">wexperience_taggings</text>
</g>
<!-- User&#45;&gt;ActsAsTaggableOn::Tagging -->
<g id="edge32" class="edge"><title>User&#45;&gt;ActsAsTaggableOn::Tagging</title>
<path fill="none" stroke="#763726" d="M2404.09,-175.262C2269.56,-172.337 1797.18,-160.746 1732.8,-141 1721.34,-137.485 1720.95,-131.267 1709.75,-127 1681.59,-116.272 1649.79,-108.764 1620.38,-103.536"/>
<ellipse fill="none" stroke="#763726" cx="2408.46" cy="-175.356" rx="4" ry="4"/>
<polygon fill="#763726" stroke="#763726" points="1620.36,-103.533 1611.26,-97.4133 1615.43,-102.691 1610.5,-101.849 1610.5,-101.849 1610.5,-101.849 1615.43,-102.691 1609.75,-106.285 1620.36,-103.533 1620.36,-103.533"/>
<text text-anchor="middle" x="1788.22" y="-129.8" font-family="Times,serif" font-size="14.00">undergrad_taggings</text>
</g>
<!-- User&#45;&gt;ActsAsTaggableOn::Tagging -->
<g id="edge34" class="edge"><title>User&#45;&gt;ActsAsTaggableOn::Tagging</title>
<path fill="none" stroke="#6e746e" d="M2404.47,-176.024C2295.92,-175.756 1968.19,-172.305 1867.12,-141 1855.55,-137.417 1855.23,-130.851 1843.75,-127 1805.82,-114.279 1710.95,-104.933 1633.6,-99.114"/>
<ellipse fill="none" stroke="#6e746e" cx="2408.5" cy="-176.031" rx="4" ry="4"/>
<polygon fill="#6e746e" stroke="#6e746e" points="1633.27,-99.0895 1623.63,-93.8639 1628.28,-98.7206 1623.29,-98.3517 1623.29,-98.3517 1623.29,-98.3517 1628.28,-98.7206 1622.96,-102.839 1633.27,-99.0895 1633.27,-99.0895"/>
<text text-anchor="middle" x="1935.56" y="-129.8" font-family="Times,serif" font-size="14.00">uconcentration_taggings</text>
</g>
<!-- User&#45;&gt;ActsAsTaggableOn::Tagging -->
<g id="edge36" class="edge"><title>User&#45;&gt;ActsAsTaggableOn::Tagging</title>
<path fill="none" stroke="#eb3a11" d="M2404.49,-175.104C2317.96,-172.571 2097.09,-163.987 2027.44,-141 2016.18,-137.286 2016.02,-130.642 2004.75,-127 1939.65,-105.972 1762.59,-97.5412 1641.42,-94.1853"/>
<ellipse fill="none" stroke="#eb3a11" cx="2408.68" cy="-175.224" rx="4" ry="4"/>
<polygon fill="#eb3a11" stroke="#eb3a11" points="1641.34,-94.183 1631.46,-89.4157 1636.34,-94.0486 1631.34,-93.9141 1631.34,-93.9141 1631.34,-93.9141 1636.34,-94.0486 1631.22,-98.4125 1641.34,-94.183 1641.34,-94.183"/>
<text text-anchor="middle" x="2069.9" y="-129.8" font-family="Times,serif" font-size="14.00">travel_taggings</text>
</g>
<!-- User&#45;&gt;ActsAsTaggableOn::Tagging -->
<g id="edge38" class="edge"><title>User&#45;&gt;ActsAsTaggableOn::Tagging</title>
<path fill="none" stroke="#d624ef" d="M2404.47,-176.782C2346.81,-177.002 2229.49,-172.989 2136.65,-141 2125.37,-137.114 2125.13,-130.568 2113.75,-127 2029.07,-100.457 1790.52,-93.7771 1642.77,-92.2541"/>
<ellipse fill="none" stroke="#d624ef" cx="2408.54" cy="-176.752" rx="4" ry="4"/>
<polygon fill="#d624ef" stroke="#d624ef" points="1642.73,-92.2539 1632.77,-87.6573 1637.73,-92.2055 1632.73,-92.1571 1632.73,-92.1571 1632.73,-92.1571 1637.73,-92.2055 1632.68,-96.6569 1642.73,-92.2539 1642.73,-92.2539"/>
<text text-anchor="middle" x="2175.8" y="-129.8" font-family="Times,serif" font-size="14.00">state_taggings</text>
</g>
<!-- User&#45;&gt;ActsAsTaggableOn::Tagging -->
<g id="edge40" class="edge"><title>User&#45;&gt;ActsAsTaggableOn::Tagging</title>
<path fill="none" stroke="#a89666" d="M2404.8,-173.733C2364.15,-170.226 2295.55,-161.587 2240.19,-141 2228.81,-136.771 2228.36,-130.52 2216.75,-127 2113.01,-95.5591 1813.77,-90.9711 1643,-91.058"/>
<ellipse fill="none" stroke="#a89666" cx="2408.8" cy="-174.06" rx="4" ry="4"/>
<polygon fill="#a89666" stroke="#a89666" points="1642.96,-91.0579 1632.95,-86.5686 1637.96,-91.0633 1632.96,-91.0686 1632.96,-91.0686 1632.96,-91.0686 1637.96,-91.0633 1632.96,-95.5686 1642.96,-91.0579 1642.96,-91.0579"/>
<text text-anchor="middle" x="2279.03" y="-129.8" font-family="Times,serif" font-size="14.00">skill_taggings</text>
</g>
<!-- User&#45;&gt;ActsAsTaggableOn::Tagging -->
<g id="edge42" class="edge"><title>User&#45;&gt;ActsAsTaggableOn::Tagging</title>
<path fill="none" stroke="#25ac6a" d="M2407.65,-166.434C2388.12,-160.16 2362.92,-151.237 2341.54,-141 2330.82,-135.865 2330.11,-130.483 2318.75,-127 2255.93,-107.754 1849.23,-97.8345 1641.49,-93.9712"/>
<ellipse fill="none" stroke="#25ac6a" cx="2411.55" cy="-167.668" rx="4.00001" ry="4.00001"/>
<polygon fill="#25ac6a" stroke="#25ac6a" points="1641.44,-93.9705 1631.53,-89.287 1636.44,-93.8784 1631.45,-93.7863 1631.45,-93.7863 1631.45,-93.7863 1636.44,-93.8784 1631.36,-98.2855 1641.44,-93.9705 1641.44,-93.9705"/>
<text text-anchor="middle" x="2378.85" y="-129.8" font-family="Times,serif" font-size="14.00">size_taggings</text>
</g>
<!-- User&#45;&gt;ActsAsTaggableOn::Tagging -->
<g id="edge44" class="edge"><title>User&#45;&gt;ActsAsTaggableOn::Tagging</title>
<path fill="none" stroke="#a99c9d" d="M2434.44,-151.131C2431.19,-142.013 2426,-132.569 2417.75,-127 2386.2,-105.698 1880.68,-96.5324 1642.32,-93.3803"/>
<ellipse fill="none" stroke="#a99c9d" cx="2435.66" cy="-155.129" rx="4.00001" ry="4.00001"/>
<polygon fill="#a99c9d" stroke="#a99c9d" points="1642.22,-93.379 1632.28,-88.7485 1637.22,-93.3136 1632.22,-93.2482 1632.22,-93.2482 1632.22,-93.2482 1637.22,-93.3136 1632.16,-97.7478 1642.22,-93.379 1642.22,-93.379"/>
<text text-anchor="middle" x="2466.3" y="-129.8" font-family="Times,serif" font-size="14.00">sex_taggings</text>
</g>
<!-- User&#45;&gt;ActsAsTaggableOn::Tagging -->
<g id="edge46" class="edge"><title>User&#45;&gt;ActsAsTaggableOn::Tagging</title>
<path fill="none" stroke="#82453e" d="M2471.66,-166.041C2495.63,-157.004 2521.92,-142.719 2506.75,-127 2477.22,-96.4116 1900.93,-92.212 1642.87,-91.8718"/>
<ellipse fill="none" stroke="#82453e" cx="2467.78" cy="-167.434" rx="4.00001" ry="4.00001"/>
<polygon fill="#82453e" stroke="#82453e" points="1642.7,-91.8717 1632.71,-87.3601 1637.7,-91.8659 1632.7,-91.8601 1632.7,-91.8601 1632.7,-91.8601 1637.7,-91.8659 1632.7,-96.3601 1642.7,-91.8717 1642.7,-91.8717"/>
<text text-anchor="middle" x="2555.85" y="-129.8" font-family="Times,serif" font-size="14.00">region_taggings</text>
</g>
<!-- User&#45;&gt;ActsAsTaggableOn::Tagging -->
<g id="edge48" class="edge"><title>User&#45;&gt;ActsAsTaggableOn::Tagging</title>
<path fill="none" stroke="#96fb6c" d="M2404.5,-176.036C2146.28,-176.222 555.54,-175.942 521.23,-141 516.87,-136.56 516.908,-131.476 521.23,-127 528.767,-119.194 1135.04,-102.196 1399.09,-95.1535"/>
<ellipse fill="none" stroke="#96fb6c" cx="2408.78" cy="-176.033" rx="4" ry="4"/>
<polygon fill="#96fb6c" stroke="#96fb6c" points="1399.11,-95.1531 1409.22,-99.3852 1404.1,-95.02 1409.1,-94.8868 1409.1,-94.8868 1409.1,-94.8868 1404.1,-95.02 1408.98,-90.3884 1399.11,-95.1531 1399.11,-95.1531"/>
<text text-anchor="middle" x="592.506" y="-129.8" font-family="Times,serif" font-size="14.00">mconcentration_taggings</text>
</g>
<!-- User&#45;&gt;ActsAsTaggableOn::Tagging -->
<g id="edge50" class="edge"><title>User&#45;&gt;ActsAsTaggableOn::Tagging</title>
<path fill="none" stroke="#7c240d" d="M2404.52,-175.974C2159.41,-175.714 717.426,-172.832 686.223,-141 681.867,-136.557 681.916,-131.491 686.223,-127 698.377,-114.325 1170.74,-100.762 1398.87,-94.9347"/>
<ellipse fill="none" stroke="#7c240d" cx="2408.73" cy="-175.978" rx="4" ry="4"/>
<polygon fill="#7c240d" stroke="#7c240d" points="1398.88,-94.9345 1408.99,-99.1785 1403.88,-94.8072 1408.87,-94.68 1408.87,-94.68 1408.87,-94.68 1403.88,-94.8072 1408.76,-90.1815 1398.88,-94.9345 1398.88,-94.9345"/>
<text text-anchor="middle" x="750.51" y="-129.8" font-family="Times,serif" font-size="14.00">demographic_taggings</text>
</g>
<!-- User&#45;&gt;ActsAsTaggableOn::Tagging -->
<g id="edge52" class="edge"><title>User&#45;&gt;ActsAsTaggableOn::Tagging</title>
<path fill="none" stroke="#525f4e" d="M2404.67,-175.907C2172.43,-175.211 864.943,-170.009 836.561,-141 832.209,-136.552 832.275,-131.511 836.561,-127 855.547,-107.016 1206.39,-97.6088 1397.71,-93.9483"/>
<ellipse fill="none" stroke="#525f4e" cx="2408.78" cy="-175.919" rx="4" ry="4"/>
<polygon fill="#525f4e" stroke="#525f4e" points="1397.83,-93.9463 1407.91,-98.2565 1402.83,-93.8518 1407.83,-93.7573 1407.83,-93.7573 1407.83,-93.7573 1402.83,-93.8518 1407.74,-89.2581 1397.83,-93.9463 1397.83,-93.9463"/>
<text text-anchor="middle" x="885.341" y="-129.8" font-family="Times,serif" font-size="14.00">balance_taggings</text>
</g>
<!-- User&#45;&gt;ActsAsTaggableOn::Tagging -->
<g id="edge54" class="edge"><title>User&#45;&gt;ActsAsTaggableOn::Tagging</title>
<path fill="none" stroke="#dc3713" d="M2404.57,-175.834C2183.85,-174.71 998.577,-167.446 972.754,-141 968.407,-136.548 968.497,-131.538 972.754,-127 1001.09,-96.7885 1243.94,-91.4829 1396.38,-91.1794"/>
<ellipse fill="none" stroke="#dc3713" cx="2408.6" cy="-175.854" rx="4" ry="4"/>
<polygon fill="#dc3713" stroke="#dc3713" points="1396.74,-91.179 1406.75,-95.6662 1401.74,-91.1726 1406.74,-91.1662 1406.74,-91.1662 1406.74,-91.1662 1401.74,-91.1726 1406.73,-86.6662 1396.74,-91.179 1396.74,-91.179"/>
<text text-anchor="middle" x="1012.24" y="-129.8" font-family="Times,serif" font-size="14.00">visa_taggings</text>
</g>
<!-- ActsAsTaggableOn::Tag -->
<g id="node40" class="node"><title>ActsAsTaggableOn::Tag</title>
<ellipse fill="none" stroke="black" cx="3226.75" cy="-91" rx="97.0617" ry="18"/>
<text text-anchor="middle" x="3226.75" y="-86.8" font-family="Times,serif" font-size="14.00">ActsAsTaggableOn::Tag</text>
</g>
<!-- User&#45;&gt;ActsAsTaggableOn::Tag -->
<g id="edge21" class="edge"><title>User&#45;&gt;ActsAsTaggableOn::Tag</title>
<path fill="none" stroke="#7b0cd4" d="M2477.03,-174.894C2562.24,-172.013 2768.98,-162.923 2834.75,-141 2845.95,-137.267 2846.13,-130.767 2857.32,-127 2904.84,-110.998 3031.16,-101.516 3122.88,-96.5406"/>
<polygon fill="#7b0cd4" stroke="#7b0cd4" points="2476.78,-174.902 2466.63,-170.733 2471.78,-175.066 2466.78,-175.23 2466.78,-175.23 2466.78,-175.23 2471.78,-175.066 2466.93,-179.728 2476.78,-174.902 2476.78,-174.902"/>
<polygon fill="#7b0cd4" stroke="#7b0cd4" points="3123.06,-96.5313 3133.29,-100.494 3128.05,-96.2656 3133.05,-96 3133.05,-96 3133.05,-96 3128.05,-96.2656 3132.81,-91.5064 3123.06,-96.5313 3123.06,-96.5313"/>
<text text-anchor="middle" x="2883.96" y="-129.8" font-family="Times,serif" font-size="14.00">base_tags</text>
</g>
<!-- User&#45;&gt;ActsAsTaggableOn::Tag -->
<g id="edge23" class="edge"><title>User&#45;&gt;ActsAsTaggableOn::Tag</title>
<path fill="none" stroke="#005b65" d="M2477.12,-175.442C2573.93,-173.645 2830.94,-166.54 2911.75,-141 2923.32,-137.342 2923.71,-130.92 2935.2,-127 2994.48,-106.769 3064.02,-97.8956 3120.31,-94.1378"/>
<polygon fill="#005b65" stroke="#005b65" points="2476.92,-175.446 2466.84,-171.123 2471.92,-175.534 2466.92,-175.623 2466.92,-175.623 2466.92,-175.623 2471.92,-175.534 2467,-180.122 2476.92,-175.446 2476.92,-175.446"/>
<polygon fill="#005b65" stroke="#005b65" points="3120.32,-94.1372 3130.58,-98.0062 3125.31,-93.826 3130.3,-93.5149 3130.3,-93.5149 3130.3,-93.5149 3125.31,-93.826 3130.02,-89.0236 3120.32,-94.1372 3120.32,-94.1372"/>
<text text-anchor="middle" x="2946.02" y="-129.8" font-family="Times,serif" font-size="14.00">tags</text>
</g>
<!-- User&#45;&gt;ActsAsTaggableOn::Tag -->
<g id="edge25" class="edge"><title>User&#45;&gt;ActsAsTaggableOn::Tag</title>
<path fill="none" stroke="#12bc55" d="M2477.2,-175.758C2580.57,-174.73 2868.1,-169.329 2957.75,-141 2969.2,-137.382 2969.55,-131.039 2980.86,-127 3026.25,-110.787 3078.89,-102.059 3123.79,-97.3716"/>
<polygon fill="#12bc55" stroke="#12bc55" points="2476.94,-175.761 2466.9,-171.352 2471.94,-175.806 2466.94,-175.852 2466.94,-175.852 2466.94,-175.852 2471.94,-175.806 2466.98,-180.352 2476.94,-175.761 2476.94,-175.761"/>
<polygon fill="#12bc55" stroke="#12bc55" points="3123.89,-97.3621 3134.29,-100.854 3128.87,-96.869 3133.84,-96.3759 3133.84,-96.3759 3133.84,-96.3759 3128.87,-96.869 3133.4,-91.8978 3123.89,-97.3621 3123.89,-97.3621"/>
<text text-anchor="middle" x="3003.69" y="-129.8" font-family="Times,serif" font-size="14.00">industry</text>
</g>
<!-- User&#45;&gt;ActsAsTaggableOn::Tag -->
<g id="edge27" class="edge"><title>User&#45;&gt;ActsAsTaggableOn::Tag</title>
<path fill="none" stroke="#95c595" d="M2477.18,-176.133C2589.74,-176.162 2923.68,-173.438 3026.75,-141 3038.1,-137.428 3038.49,-131.332 3049.57,-127 3077.26,-116.175 3108.74,-108.568 3137.41,-103.279"/>
<polygon fill="#95c595" stroke="#95c595" points="2477,-176.133 2467,-171.622 2472,-176.128 2467,-176.122 2467,-176.122 2467,-176.122 2472,-176.128 2466.99,-180.622 2477,-176.133 2477,-176.133"/>
<polygon fill="#95c595" stroke="#95c595" points="3137.58,-103.25 3148.21,-105.935 3142.5,-102.377 3147.43,-101.504 3147.43,-101.504 3147.43,-101.504 3142.5,-102.377 3146.64,-97.0729 3137.58,-103.25 3137.58,-103.25"/>
<text text-anchor="middle" x="3065.84" y="-129.8" font-family="Times,serif" font-size="14.00">career</text>
</g>
<!-- User&#45;&gt;ActsAsTaggableOn::Tag -->
<g id="edge29" class="edge"><title>User&#45;&gt;ActsAsTaggableOn::Tag</title>
<path fill="none" stroke="#48dfc8" d="M2477.15,-176.307C2596.83,-176.926 2969.26,-175.924 3083.75,-141 3095.36,-137.456 3096.08,-131.856 3107.22,-127 3123.7,-119.808 3142.09,-113.595 3159.41,-108.484"/>
<polygon fill="#48dfc8" stroke="#48dfc8" points="2477.02,-176.307 2467.04,-171.748 2472.02,-176.277 2467.02,-176.248 2467.02,-176.248 2467.02,-176.248 2472.02,-176.277 2466.99,-180.748 2477.02,-176.307 2477.02,-176.307"/>
<polygon fill="#48dfc8" stroke="#48dfc8" points="3159.85,-108.359 3170.7,-109.929 3164.65,-106.981 3169.46,-105.603 3169.46,-105.603 3169.46,-105.603 3164.65,-106.981 3168.22,-101.277 3159.85,-108.359 3159.85,-108.359"/>
<text text-anchor="middle" x="3132.01" y="-129.8" font-family="Times,serif" font-size="14.00">language</text>
</g>
<!-- User&#45;&gt;ActsAsTaggableOn::Tag -->
<g id="edge31" class="edge"><title>User&#45;&gt;ActsAsTaggableOn::Tag</title>
<path fill="none" stroke="#d77398" d="M2476.74,-175.412C2614.51,-173.054 3093.23,-163.322 3157.75,-141 3162.24,-139.445 3179.83,-126.936 3196.12,-114.947"/>
<polygon fill="#d77398" stroke="#d77398" points="2476.68,-175.413 2466.6,-171.082 2471.68,-175.497 2466.68,-175.581 2466.68,-175.581 2466.68,-175.581 2471.68,-175.497 2466.75,-180.08 2476.68,-175.413 2476.68,-175.413"/>
<polygon fill="#d77398" stroke="#d77398" points="3196.41,-114.735 3207.13,-112.404 3200.43,-111.76 3204.45,-108.786 3204.45,-108.786 3204.45,-108.786 3200.43,-111.76 3201.77,-105.169 3196.41,-114.735 3196.41,-114.735"/>
<text text-anchor="middle" x="3213.11" y="-129.8" font-family="Times,serif" font-size="14.00">wexperience</text>
</g>
<!-- User&#45;&gt;ActsAsTaggableOn::Tag -->
<g id="edge33" class="edge"><title>User&#45;&gt;ActsAsTaggableOn::Tag</title>
<path fill="none" stroke="#936252" d="M2477.17,-175.81C2633.14,-174.839 3224.64,-169.296 3251.75,-141 3258.29,-134.172 3256.03,-125.297 3250.8,-116.979"/>
<polygon fill="#936252" stroke="#936252" points="2477.12,-175.81 2467.09,-171.37 2472.12,-175.84 2467.12,-175.87 2467.12,-175.87 2467.12,-175.87 2472.12,-175.84 2467.15,-180.37 2477.12,-175.81 2477.12,-175.81"/>
<polygon fill="#936252" stroke="#936252" points="3250.78,-116.955 3248.4,-106.251 3247.79,-112.95 3244.8,-108.944 3244.8,-108.944 3244.8,-108.944 3247.79,-112.95 3241.19,-111.637 3250.78,-116.955 3250.78,-116.955"/>
<text text-anchor="middle" x="3284" y="-129.8" font-family="Times,serif" font-size="14.00">undergrad</text>
</g>
<!-- User&#45;&gt;ActsAsTaggableOn::Tag -->
<g id="edge35" class="edge"><title>User&#45;&gt;ActsAsTaggableOn::Tag</title>
<path fill="none" stroke="#8e48ed" d="M2476.94,-175.936C2640.27,-175.474 3287.24,-171.709 3316.75,-141 3329.84,-127.372 3316.57,-116.617 3296.56,-108.697"/>
<polygon fill="#8e48ed" stroke="#8e48ed" points="2476.89,-175.936 2466.88,-171.462 2471.89,-175.949 2466.89,-175.962 2466.89,-175.962 2466.89,-175.962 2471.89,-175.949 2466.9,-180.462 2476.89,-175.936 2476.89,-175.936"/>
<polygon fill="#8e48ed" stroke="#8e48ed" points="3296.38,-108.631 3288.48,-101.021 3291.67,-106.944 3286.97,-105.258 3286.97,-105.258 3286.97,-105.258 3291.67,-106.944 3285.45,-109.494 3296.38,-108.631 3296.38,-108.631"/>
<text text-anchor="middle" x="3363.34" y="-129.8" font-family="Times,serif" font-size="14.00">uconcentration</text>
</g>
<!-- User&#45;&gt;ActsAsTaggableOn::Tag -->
<g id="edge37" class="edge"><title>User&#45;&gt;ActsAsTaggableOn::Tag</title>
<path fill="none" stroke="#dc3285" d="M2477.11,-176.083C2651.22,-176.291 3375.86,-175.101 3408.75,-141 3438.91,-109.728 3388.82,-97.7137 3333.62,-93.3931"/>
<polygon fill="#dc3285" stroke="#dc3285" points="2476.91,-176.083 2466.92,-171.569 2471.91,-176.076 2466.91,-176.069 2466.91,-176.069 2466.91,-176.069 2471.91,-176.076 2466.91,-180.569 2476.91,-176.083 2476.91,-176.083"/>
<polygon fill="#dc3285" stroke="#dc3285" points="3333.61,-93.3927 3323.95,-88.2066 3328.62,-93.0442 3323.64,-92.6956 3323.64,-92.6956 3323.64,-92.6956 3328.62,-93.0442 3323.32,-97.1847 3333.61,-93.3927 3333.61,-93.3927"/>
<text text-anchor="middle" x="3432.68" y="-129.8" font-family="Times,serif" font-size="14.00">travel</text>
</g>
<!-- User&#45;&gt;ActsAsTaggableOn::Tag -->
<g id="edge39" class="edge"><title>User&#45;&gt;ActsAsTaggableOn::Tag</title>
<path fill="none" stroke="#79f574" d="M2477.07,-176.144C2655.94,-176.657 3418.23,-176.736 3452.75,-141 3457.07,-136.525 3456.8,-131.724 3452.75,-127 3436.73,-108.311 3383.22,-99.5155 3332.28,-95.4135"/>
<polygon fill="#79f574" stroke="#79f574" points="2476.85,-176.144 2466.86,-171.613 2471.85,-176.128 2466.85,-176.113 2466.85,-176.113 2466.85,-176.113 2471.85,-176.128 2466.84,-180.613 2476.85,-176.144 2476.85,-176.144"/>
<polygon fill="#79f574" stroke="#79f574" points="3332.12,-95.401 3322.48,-90.1668 3327.13,-95.0276 3322.14,-94.6542 3322.14,-94.6542 3322.14,-94.6542 3327.13,-95.0276 3321.81,-99.1416 3332.12,-95.401 3332.12,-95.401"/>
<text text-anchor="middle" x="3468.57" y="-129.8" font-family="Times,serif" font-size="14.00">state</text>
</g>
<!-- User&#45;&gt;ActsAsTaggableOn::Tag -->
<g id="edge41" class="edge"><title>User&#45;&gt;ActsAsTaggableOn::Tag</title>
<path fill="none" stroke="#b0dcb6" d="M2477.12,-176.187C2659.62,-176.922 3450.01,-177.957 3485.75,-141 3510.14,-115.776 3412.37,-103.189 3330.04,-97.1503"/>
<polygon fill="#b0dcb6" stroke="#b0dcb6" points="2476.94,-176.187 2466.96,-171.644 2471.94,-176.165 2466.94,-176.144 2466.94,-176.144 2466.94,-176.144 2471.94,-176.165 2466.92,-180.644 2476.94,-176.187 2476.94,-176.187"/>
<polygon fill="#b0dcb6" stroke="#b0dcb6" points="3329.8,-97.1337 3320.15,-91.9396 3324.82,-96.7811 3319.83,-96.4284 3319.83,-96.4284 3319.83,-96.4284 3324.82,-96.7811 3319.51,-100.917 3329.8,-97.1337 3329.8,-97.1337"/>
<text text-anchor="middle" x="3500.81" y="-129.8" font-family="Times,serif" font-size="14.00">skill</text>
</g>
<!-- User&#45;&gt;ActsAsTaggableOn::Tag -->
<g id="edge43" class="edge"><title>User&#45;&gt;ActsAsTaggableOn::Tag</title>
<path fill="none" stroke="#9eec05" d="M2477.03,-176.225C2662.68,-177.163 3479.85,-179.114 3516.75,-141 3544.97,-111.841 3426.34,-100.002 3332.34,-95.2152"/>
<polygon fill="#9eec05" stroke="#9eec05" points="2476.95,-176.224 2466.97,-171.671 2471.95,-176.198 2466.95,-176.171 2466.95,-176.171 2466.95,-176.171 2471.95,-176.198 2466.92,-180.671 2476.95,-176.224 2476.95,-176.224"/>
<polygon fill="#9eec05" stroke="#9eec05" points="3332.16,-95.2065 3322.39,-90.2249 3327.16,-94.9631 3322.17,-94.7196 3322.17,-94.7196 3322.17,-94.7196 3327.16,-94.9631 3321.95,-99.2143 3332.16,-95.2065 3332.16,-95.2065"/>
<text text-anchor="middle" x="3531.63" y="-129.8" font-family="Times,serif" font-size="14.00">size</text>
</g>
<!-- User&#45;&gt;ActsAsTaggableOn::Tag -->
<g id="edge45" class="edge"><title>User&#45;&gt;ActsAsTaggableOn::Tag</title>
<path fill="none" stroke="#0893e9" d="M2477.15,-176.26C2666.16,-177.392 3508.75,-180.222 3546.75,-141 3578.81,-107.909 3438.54,-97.1056 3333.53,-93.6148"/>
<polygon fill="#0893e9" stroke="#0893e9" points="2476.89,-176.258 2466.92,-171.696 2471.89,-176.227 2466.89,-176.196 2466.89,-176.196 2466.89,-176.196 2471.89,-176.227 2466.86,-180.696 2476.89,-176.258 2476.89,-176.258"/>
<polygon fill="#0893e9" stroke="#0893e9" points="3333.48,-93.6134 3323.62,-88.8016 3328.48,-93.4564 3323.48,-93.2993 3323.48,-93.2993 3323.48,-93.2993 3328.48,-93.4564 3323.34,-97.7971 3333.48,-93.6134 3333.48,-93.6134"/>
<text text-anchor="middle" x="3560.08" y="-129.8" font-family="Times,serif" font-size="14.00">sex</text>
</g>
<!-- User&#45;&gt;ActsAsTaggableOn::Tag -->
<g id="edge47" class="edge"><title>User&#45;&gt;ActsAsTaggableOn::Tag</title>
<path fill="none" stroke="#5ab36d" d="M2476.84,-176.287C2668.02,-177.588 3534.72,-181.248 3573.75,-141 3609.31,-104.324 3448.9,-94.6804 3334.32,-92.3857"/>
<polygon fill="#5ab36d" stroke="#5ab36d" points="2476.73,-176.286 2466.76,-171.716 2471.73,-176.251 2466.73,-176.216 2466.73,-176.216 2466.73,-176.216 2471.73,-176.251 2466.7,-180.716 2476.73,-176.286 2476.73,-176.286"/>
<polygon fill="#5ab36d" stroke="#5ab36d" points="3334.07,-92.3813 3324.16,-87.6982 3329.07,-92.2894 3324.08,-92.1975 3324.08,-92.1975 3324.08,-92.1975 3329.07,-92.2894 3323.99,-96.6967 3334.07,-92.3813 3334.07,-92.3813"/>
<text text-anchor="middle" x="3596.63" y="-129.8" font-family="Times,serif" font-size="14.00">region</text>
</g>
<!-- User&#45;&gt;ActsAsTaggableOn::Tag -->
<g id="edge49" class="edge"><title>User&#45;&gt;ActsAsTaggableOn::Tag</title>
<path fill="none" stroke="#82cf8e" d="M2477.14,-175.599C2675.69,-173.385 3598.38,-161.977 3618.75,-141 3623.08,-136.535 3622.95,-131.591 3618.75,-127 3599.74,-106.222 3442.66,-97.6902 3333.21,-94.2491"/>
<polygon fill="#82cf8e" stroke="#82cf8e" points="2476.92,-175.602 2466.87,-171.212 2471.92,-175.657 2466.92,-175.712 2466.92,-175.712 2466.92,-175.712 2471.92,-175.657 2466.97,-180.212 2476.92,-175.602 2476.92,-175.602"/>
<polygon fill="#82cf8e" stroke="#82cf8e" points="3333.1,-94.2458 3323.24,-89.4435 3328.1,-94.0936 3323.11,-93.9415 3323.11,-93.9415 3323.11,-93.9415 3328.1,-94.0936 3322.97,-98.4394 3333.1,-94.2458 3333.1,-94.2458"/>
<text text-anchor="middle" x="3665.29" y="-129.8" font-family="Times,serif" font-size="14.00">mconcentration</text>
</g>
<!-- User&#45;&gt;ActsAsTaggableOn::Tag -->
<g id="edge51" class="edge"><title>User&#45;&gt;ActsAsTaggableOn::Tag</title>
<path fill="none" stroke="#2e1654" d="M2476.82,-173.053C2515.34,-169.081 2576.86,-160.16 2626.75,-141 2637.89,-136.721 2638.28,-130.578 2649.66,-127 2734.29,-100.405 2977.17,-93.8499 3119.42,-92.3399"/>
<polygon fill="#2e1654" stroke="#2e1654" points="2476.54,-173.08 2466.15,-169.567 2471.57,-173.563 2466.59,-174.046 2466.59,-174.046 2466.59,-174.046 2471.57,-173.563 2467.02,-178.525 2476.54,-173.08 2476.54,-173.08"/>
<polygon fill="#2e1654" stroke="#2e1654" points="3119.49,-92.3394 3129.53,-96.7395 3124.49,-92.2895 3129.49,-92.2397 3129.49,-92.2397 3129.49,-92.2397 3124.49,-92.2895 3129.44,-87.7399 3119.49,-92.3394 3119.49,-92.3394"/>
<text text-anchor="middle" x="2685.29" y="-129.8" font-family="Times,serif" font-size="14.00">demographic</text>
</g>
<!-- User&#45;&gt;ActsAsTaggableOn::Tag -->
<g id="edge53" class="edge"><title>User&#45;&gt;ActsAsTaggableOn::Tag</title>
<path fill="none" stroke="#216d45" d="M2477.15,-176.272C2532.38,-175.595 2638.34,-170.145 2722.75,-141 2734.15,-137.062 2734.5,-130.649 2746,-127 2813.19,-105.679 3000.14,-97.2623 3120.13,-93.9994"/>
<polygon fill="#216d45" stroke="#216d45" points="2477.12,-176.272 2467.09,-171.848 2472.12,-176.31 2467.12,-176.348 2467.12,-176.348 2467.12,-176.348 2472.12,-176.31 2467.15,-180.848 2477.12,-176.272 2477.12,-176.272"/>
<polygon fill="#216d45" stroke="#216d45" points="3120.45,-93.9911 3130.56,-98.2255 3125.45,-93.8591 3130.44,-93.727 3130.44,-93.727 3130.44,-93.727 3125.45,-93.8591 3130.33,-89.2286 3120.45,-93.9911 3120.45,-93.9911"/>
<text text-anchor="middle" x="2767.12" y="-129.8" font-family="Times,serif" font-size="14.00">balance</text>
</g>
<!-- User&#45;&gt;ActsAsTaggableOn::Tag -->
<g id="edge55" class="edge"><title>User&#45;&gt;ActsAsTaggableOn::Tag</title>
<path fill="none" stroke="#bfe47e" d="M2477.04,-174.697C2554.96,-171.582 2732.45,-162.314 2788.75,-141 2798.71,-137.229 2798.2,-130.689 2808.2,-127 2863.47,-106.591 3015.78,-98.0016 3120.56,-94.442"/>
<polygon fill="#bfe47e" stroke="#bfe47e" points="2476.73,-174.71 2466.56,-170.6 2471.73,-174.903 2466.73,-175.097 2466.73,-175.097 2466.73,-175.097 2471.73,-174.903 2466.91,-179.593 2476.73,-174.71 2476.73,-174.71"/>
<polygon fill="#bfe47e" stroke="#bfe47e" points="3120.87,-94.4319 3131.02,-98.6005 3125.87,-94.2674 3130.87,-94.1029 3130.87,-94.1029 3130.87,-94.1029 3125.87,-94.2674 3130.72,-89.6054 3120.87,-94.4319 3120.87,-94.4319"/>
<text text-anchor="middle" x="2819.02" y="-129.8" font-family="Times,serif" font-size="14.00">visa</text>
</g>
<!-- Visa -->
<g id="node36" class="node"><title>Visa</title>
<ellipse fill="none" stroke="black" cx="4374.75" cy="-341.5" rx="27" ry="18"/>
<text text-anchor="middle" x="4374.75" y="-337.3" font-family="Times,serif" font-size="14.00">Visa</text>
</g>
<!-- Wexperience -->
<g id="node38" class="node"><title>Wexperience</title>
<ellipse fill="none" stroke="black" cx="4475.75" cy="-341.5" rx="56.0855" ry="18"/>
<text text-anchor="middle" x="4475.75" y="-337.3" font-family="Times,serif" font-size="14.00">Wexperience</text>
</g>
</g>
</svg>
