<?xml version="1.0" encoding="UTF-8" standalone="no"?>
<!DOCTYPE svg PUBLIC "-//W3C//DTD SVG 1.1//EN"
 "http://www.w3.org/Graphics/SVG/1.1/DTD/svg11.dtd">
<!-- Generated by graphviz version 2.38.0 (20140413.2041)
 -->
<!-- Title: models_diagram Pages: 1 -->
<svg width="5992pt" height="1612pt"
 viewBox="0.00 0.00 5991.61 1612.00" xmlns="http://www.w3.org/2000/svg" xmlns:xlink="http://www.w3.org/1999/xlink">
<g id="graph0" class="graph" transform="scale(1 1) rotate(0) translate(4 1608)">
<title>models_diagram</title>
<polygon fill="none" stroke="none" points="-4,4 -4,-1608 5987.61,-1608 5987.61,4 -4,4"/>
<!-- _diagram_info -->
<g id="node1" class="node"><title>_diagram_info</title>
<text text-anchor="start" x="2280.42" y="-1519.6" font-family="Times,serif" font-size="13.00">Models diagram</text>
<text text-anchor="start" x="2280.42" y="-1506.6" font-family="Times,serif" font-size="13.00">Date: Jun 22 2016 &#45; 17:33</text>
<text text-anchor="start" x="2280.42" y="-1493.6" font-family="Times,serif" font-size="13.00">Migration version: 20160622213323</text>
<text text-anchor="start" x="2280.42" y="-1480.6" font-family="Times,serif" font-size="13.00">Generated by RailRoady 1.3.1</text>
<text text-anchor="start" x="2280.42" y="-1467.6" font-family="Times,serif" font-size="13.00">http://railroady.prestonlee.com</text>
</g>
<!-- Ability -->
<g id="node2" class="node"><title>Ability</title>
<polygon fill="none" stroke="black" points="2498.27,-1475.5 2498.27,-1519.5 2553.94,-1519.5 2553.94,-1475.5 2498.27,-1475.5"/>
<text text-anchor="middle" x="2526.11" y="-1504.3" font-family="Times,serif" font-size="14.00">Ability</text>
<polyline fill="none" stroke="black" points="2498.27,-1497.5 2553.94,-1497.5 "/>
<text text-anchor="middle" x="2526.11" y="-1482.3" font-family="Times,serif" font-size="14.00"> </text>
</g>
<!-- Admin -->
<g id="node3" class="node"><title>Admin</title>
<path fill="none" stroke="black" d="M2583.83,-1391.5C2583.83,-1391.5 2764.39,-1391.5 2764.39,-1391.5 2770.39,-1391.5 2776.39,-1397.5 2776.39,-1403.5 2776.39,-1403.5 2776.39,-1591.5 2776.39,-1591.5 2776.39,-1597.5 2770.39,-1603.5 2764.39,-1603.5 2764.39,-1603.5 2583.83,-1603.5 2583.83,-1603.5 2577.83,-1603.5 2571.83,-1597.5 2571.83,-1591.5 2571.83,-1591.5 2571.83,-1403.5 2571.83,-1403.5 2571.83,-1397.5 2577.83,-1391.5 2583.83,-1391.5"/>
<text text-anchor="middle" x="2674.11" y="-1588.3" font-family="Times,serif" font-size="14.00">Admin</text>
<polyline fill="none" stroke="black" points="2571.83,-1581.5 2776.39,-1581.5 "/>
<text text-anchor="start" x="2579.83" y="-1566.3" font-family="Times,serif" font-size="14.00">id :integer</text>
<text text-anchor="start" x="2579.83" y="-1552.3" font-family="Times,serif" font-size="14.00">email :string</text>
<text text-anchor="start" x="2579.83" y="-1538.3" font-family="Times,serif" font-size="14.00">encrypted_password :string</text>
<text text-anchor="start" x="2579.83" y="-1524.3" font-family="Times,serif" font-size="14.00">reset_password_token :string</text>
<text text-anchor="start" x="2579.83" y="-1510.3" font-family="Times,serif" font-size="14.00">reset_password_sent_at :datetime</text>
<text text-anchor="start" x="2579.83" y="-1496.3" font-family="Times,serif" font-size="14.00">remember_created_at :datetime</text>
<text text-anchor="start" x="2579.83" y="-1482.3" font-family="Times,serif" font-size="14.00">sign_in_count :integer</text>
<text text-anchor="start" x="2579.83" y="-1468.3" font-family="Times,serif" font-size="14.00">current_sign_in_at :datetime</text>
<text text-anchor="start" x="2579.83" y="-1454.3" font-family="Times,serif" font-size="14.00">last_sign_in_at :datetime</text>
<text text-anchor="start" x="2579.83" y="-1440.3" font-family="Times,serif" font-size="14.00">current_sign_in_ip :inet</text>
<text text-anchor="start" x="2579.83" y="-1426.3" font-family="Times,serif" font-size="14.00">last_sign_in_ip :inet</text>
<text text-anchor="start" x="2579.83" y="-1412.3" font-family="Times,serif" font-size="14.00">created_at :datetime</text>
<text text-anchor="start" x="2579.83" y="-1398.3" font-family="Times,serif" font-size="14.00">updated_at :datetime</text>
</g>
<!-- Analytic -->
<g id="node4" class="node"><title>Analytic</title>
<path fill="none" stroke="black" d="M3858.6,-411.5C3858.6,-411.5 3967.61,-411.5 3967.61,-411.5 3973.61,-411.5 3979.61,-417.5 3979.61,-423.5 3979.61,-423.5 3979.61,-499.5 3979.61,-499.5 3979.61,-505.5 3973.61,-511.5 3967.61,-511.5 3967.61,-511.5 3858.6,-511.5 3858.6,-511.5 3852.6,-511.5 3846.6,-505.5 3846.6,-499.5 3846.6,-499.5 3846.6,-423.5 3846.6,-423.5 3846.6,-417.5 3852.6,-411.5 3858.6,-411.5"/>
<text text-anchor="middle" x="3913.11" y="-496.3" font-family="Times,serif" font-size="14.00">Analytic</text>
<polyline fill="none" stroke="black" points="3846.6,-489.5 3979.61,-489.5 "/>
<text text-anchor="start" x="3854.6" y="-474.3" font-family="Times,serif" font-size="14.00">id :integer</text>
<text text-anchor="start" x="3854.6" y="-460.3" font-family="Times,serif" font-size="14.00">url :string</text>
<text text-anchor="start" x="3854.6" y="-446.3" font-family="Times,serif" font-size="14.00">user_id :integer</text>
<text text-anchor="start" x="3854.6" y="-432.3" font-family="Times,serif" font-size="14.00">created_at :datetime</text>
<text text-anchor="start" x="3854.6" y="-418.3" font-family="Times,serif" font-size="14.00">updated_at :datetime</text>
</g>
<!-- Article -->
<g id="node5" class="node"><title>Article</title>
<path fill="none" stroke="black" d="M4186.6,-397.5C4186.6,-397.5 4295.61,-397.5 4295.61,-397.5 4301.61,-397.5 4307.61,-403.5 4307.61,-409.5 4307.61,-409.5 4307.61,-513.5 4307.61,-513.5 4307.61,-519.5 4301.61,-525.5 4295.61,-525.5 4295.61,-525.5 4186.6,-525.5 4186.6,-525.5 4180.6,-525.5 4174.6,-519.5 4174.6,-513.5 4174.6,-513.5 4174.6,-409.5 4174.6,-409.5 4174.6,-403.5 4180.6,-397.5 4186.6,-397.5"/>
<text text-anchor="middle" x="4241.11" y="-510.3" font-family="Times,serif" font-size="14.00">Article</text>
<polyline fill="none" stroke="black" points="4174.6,-503.5 4307.61,-503.5 "/>
<text text-anchor="start" x="4182.6" y="-488.3" font-family="Times,serif" font-size="14.00">id :integer</text>
<text text-anchor="start" x="4182.6" y="-474.3" font-family="Times,serif" font-size="14.00">title :string</text>
<text text-anchor="start" x="4182.6" y="-460.3" font-family="Times,serif" font-size="14.00">summary :text</text>
<text text-anchor="start" x="4182.6" y="-446.3" font-family="Times,serif" font-size="14.00">url :string</text>
<text text-anchor="start" x="4182.6" y="-432.3" font-family="Times,serif" font-size="14.00">created_at :datetime</text>
<text text-anchor="start" x="4182.6" y="-418.3" font-family="Times,serif" font-size="14.00">updated_at :datetime</text>
<text text-anchor="start" x="4182.6" y="-404.3" font-family="Times,serif" font-size="14.00">user_id :integer</text>
</g>
<!-- BackgroundInfo -->
<g id="node6" class="node"><title>BackgroundInfo</title>
<path fill="none" stroke="black" d="M4009.38,-411.5C4009.38,-411.5 4144.83,-411.5 4144.83,-411.5 4150.83,-411.5 4156.83,-417.5 4156.83,-423.5 4156.83,-423.5 4156.83,-499.5 4156.83,-499.5 4156.83,-505.5 4150.83,-511.5 4144.83,-511.5 4144.83,-511.5 4009.38,-511.5 4009.38,-511.5 4003.38,-511.5 3997.38,-505.5 3997.38,-499.5 3997.38,-499.5 3997.38,-423.5 3997.38,-423.5 3997.38,-417.5 4003.38,-411.5 4009.38,-411.5"/>
<text text-anchor="middle" x="4077.11" y="-496.3" font-family="Times,serif" font-size="14.00">BackgroundInfo</text>
<polyline fill="none" stroke="black" points="3997.38,-489.5 4156.83,-489.5 "/>
<text text-anchor="start" x="4005.38" y="-474.3" font-family="Times,serif" font-size="14.00">id :integer</text>
<text text-anchor="start" x="4005.38" y="-460.3" font-family="Times,serif" font-size="14.00">background_type :integer</text>
<text text-anchor="start" x="4005.38" y="-446.3" font-family="Times,serif" font-size="14.00">created_at :datetime</text>
<text text-anchor="start" x="4005.38" y="-432.3" font-family="Times,serif" font-size="14.00">updated_at :datetime</text>
<text text-anchor="start" x="4005.38" y="-418.3" font-family="Times,serif" font-size="14.00">user_id :integer</text>
</g>
<!-- Experience -->
<g id="node14" class="node"><title>Experience</title>
<path fill="none" stroke="black" d="M1215.21,-0.5C1215.21,-0.5 1367,-0.5 1367,-0.5 1373,-0.5 1379,-6.5 1379,-12.5 1379,-12.5 1379,-144.5 1379,-144.5 1379,-150.5 1373,-156.5 1367,-156.5 1367,-156.5 1215.21,-156.5 1215.21,-156.5 1209.21,-156.5 1203.21,-150.5 1203.21,-144.5 1203.21,-144.5 1203.21,-12.5 1203.21,-12.5 1203.21,-6.5 1209.21,-0.5 1215.21,-0.5"/>
<text text-anchor="middle" x="1291.11" y="-141.3" font-family="Times,serif" font-size="14.00">Experience</text>
<polyline fill="none" stroke="black" points="1203.21,-134.5 1379,-134.5 "/>
<text text-anchor="start" x="1211.21" y="-119.3" font-family="Times,serif" font-size="14.00">id :integer</text>
<text text-anchor="start" x="1211.21" y="-105.3" font-family="Times,serif" font-size="14.00">url :string</text>
<text text-anchor="start" x="1211.21" y="-91.3" font-family="Times,serif" font-size="14.00">created_at :datetime</text>
<text text-anchor="start" x="1211.21" y="-77.3" font-family="Times,serif" font-size="14.00">updated_at :datetime</text>
<text text-anchor="start" x="1211.21" y="-63.3" font-family="Times,serif" font-size="14.00">img_file_name :string</text>
<text text-anchor="start" x="1211.21" y="-49.3" font-family="Times,serif" font-size="14.00">img_content_type :string</text>
<text text-anchor="start" x="1211.21" y="-35.3" font-family="Times,serif" font-size="14.00">img_file_size :integer</text>
<text text-anchor="start" x="1211.21" y="-21.3" font-family="Times,serif" font-size="14.00">img_updated_at :datetime</text>
<text text-anchor="start" x="1211.21" y="-7.3" font-family="Times,serif" font-size="14.00">background_info_id :integer</text>
</g>
<!-- BackgroundInfo&#45;&gt;Experience -->
<g id="edge1" class="edge"><title>BackgroundInfo&#45;&gt;Experience</title>
<path fill="none" stroke="#f6641a" d="M4076.08,-403.247C4071.54,-340.677 4053.75,-242.848 3989.11,-194 3883.46,-114.164 1862.39,-86.059 1389.49,-80.5621"/>
<ellipse fill="none" stroke="#f6641a" cx="4076.35" cy="-407.462" rx="4" ry="4"/>
<polygon fill="#f6641a" stroke="#f6641a" points="1389.28,-80.5597 1379.33,-75.9444 1384.28,-80.5019 1379.28,-80.4441 1379.28,-80.4441 1379.28,-80.4441 1384.28,-80.5019 1379.23,-84.9438 1389.28,-80.5597 1389.28,-80.5597"/>
</g>
<!-- Balance -->
<g id="node7" class="node"><title>Balance</title>
<path fill="none" stroke="black" d="M2989.6,-1454.5C2989.6,-1454.5 3098.61,-1454.5 3098.61,-1454.5 3104.61,-1454.5 3110.61,-1460.5 3110.61,-1466.5 3110.61,-1466.5 3110.61,-1528.5 3110.61,-1528.5 3110.61,-1534.5 3104.61,-1540.5 3098.61,-1540.5 3098.61,-1540.5 2989.6,-1540.5 2989.6,-1540.5 2983.6,-1540.5 2977.6,-1534.5 2977.6,-1528.5 2977.6,-1528.5 2977.6,-1466.5 2977.6,-1466.5 2977.6,-1460.5 2983.6,-1454.5 2989.6,-1454.5"/>
<text text-anchor="middle" x="3044.11" y="-1525.3" font-family="Times,serif" font-size="14.00">Balance</text>
<polyline fill="none" stroke="black" points="2977.6,-1518.5 3110.61,-1518.5 "/>
<text text-anchor="start" x="2985.6" y="-1503.3" font-family="Times,serif" font-size="14.00">id :integer</text>
<text text-anchor="start" x="2985.6" y="-1489.3" font-family="Times,serif" font-size="14.00">name :string</text>
<text text-anchor="start" x="2985.6" y="-1475.3" font-family="Times,serif" font-size="14.00">created_at :datetime</text>
<text text-anchor="start" x="2985.6" y="-1461.3" font-family="Times,serif" font-size="14.00">updated_at :datetime</text>
</g>
<!-- Career -->
<g id="node8" class="node"><title>Career</title>
<path fill="none" stroke="black" d="M3140.6,-1454.5C3140.6,-1454.5 3249.61,-1454.5 3249.61,-1454.5 3255.61,-1454.5 3261.61,-1460.5 3261.61,-1466.5 3261.61,-1466.5 3261.61,-1528.5 3261.61,-1528.5 3261.61,-1534.5 3255.61,-1540.5 3249.61,-1540.5 3249.61,-1540.5 3140.6,-1540.5 3140.6,-1540.5 3134.6,-1540.5 3128.6,-1534.5 3128.6,-1528.5 3128.6,-1528.5 3128.6,-1466.5 3128.6,-1466.5 3128.6,-1460.5 3134.6,-1454.5 3140.6,-1454.5"/>
<text text-anchor="middle" x="3195.11" y="-1525.3" font-family="Times,serif" font-size="14.00">Career</text>
<polyline fill="none" stroke="black" points="3128.6,-1518.5 3261.61,-1518.5 "/>
<text text-anchor="start" x="3136.6" y="-1503.3" font-family="Times,serif" font-size="14.00">id :integer</text>
<text text-anchor="start" x="3136.6" y="-1489.3" font-family="Times,serif" font-size="14.00">name :string</text>
<text text-anchor="start" x="3136.6" y="-1475.3" font-family="Times,serif" font-size="14.00">created_at :datetime</text>
<text text-anchor="start" x="3136.6" y="-1461.3" font-family="Times,serif" font-size="14.00">updated_at :datetime</text>
</g>
<!-- City -->
<g id="node9" class="node"><title>City</title>
<path fill="none" stroke="black" d="M3291.6,-1454.5C3291.6,-1454.5 3400.61,-1454.5 3400.61,-1454.5 3406.61,-1454.5 3412.61,-1460.5 3412.61,-1466.5 3412.61,-1466.5 3412.61,-1528.5 3412.61,-1528.5 3412.61,-1534.5 3406.61,-1540.5 3400.61,-1540.5 3400.61,-1540.5 3291.6,-1540.5 3291.6,-1540.5 3285.6,-1540.5 3279.6,-1534.5 3279.6,-1528.5 3279.6,-1528.5 3279.6,-1466.5 3279.6,-1466.5 3279.6,-1460.5 3285.6,-1454.5 3291.6,-1454.5"/>
<text text-anchor="middle" x="3346.11" y="-1525.3" font-family="Times,serif" font-size="14.00">City</text>
<polyline fill="none" stroke="black" points="3279.6,-1518.5 3412.61,-1518.5 "/>
<text text-anchor="start" x="3287.6" y="-1503.3" font-family="Times,serif" font-size="14.00">id :integer</text>
<text text-anchor="start" x="3287.6" y="-1489.3" font-family="Times,serif" font-size="14.00">name :string</text>
<text text-anchor="start" x="3287.6" y="-1475.3" font-family="Times,serif" font-size="14.00">created_at :datetime</text>
<text text-anchor="start" x="3287.6" y="-1461.3" font-family="Times,serif" font-size="14.00">updated_at :datetime</text>
</g>
<!-- Clerk -->
<g id="node10" class="node"><title>Clerk</title>
<path fill="none" stroke="black" d="M2786.83,-1127.5C2786.83,-1127.5 2967.39,-1127.5 2967.39,-1127.5 2973.39,-1127.5 2979.39,-1133.5 2979.39,-1139.5 2979.39,-1139.5 2979.39,-1341.5 2979.39,-1341.5 2979.39,-1347.5 2973.39,-1353.5 2967.39,-1353.5 2967.39,-1353.5 2786.83,-1353.5 2786.83,-1353.5 2780.83,-1353.5 2774.83,-1347.5 2774.83,-1341.5 2774.83,-1341.5 2774.83,-1139.5 2774.83,-1139.5 2774.83,-1133.5 2780.83,-1127.5 2786.83,-1127.5"/>
<text text-anchor="middle" x="2877.11" y="-1338.3" font-family="Times,serif" font-size="14.00">Clerk</text>
<polyline fill="none" stroke="black" points="2774.83,-1331.5 2979.39,-1331.5 "/>
<text text-anchor="start" x="2782.83" y="-1316.3" font-family="Times,serif" font-size="14.00">id :integer</text>
<text text-anchor="start" x="2782.83" y="-1302.3" font-family="Times,serif" font-size="14.00">created_at :datetime</text>
<text text-anchor="start" x="2782.83" y="-1288.3" font-family="Times,serif" font-size="14.00">updated_at :datetime</text>
<text text-anchor="start" x="2782.83" y="-1274.3" font-family="Times,serif" font-size="14.00">email :string</text>
<text text-anchor="start" x="2782.83" y="-1260.3" font-family="Times,serif" font-size="14.00">encrypted_password :string</text>
<text text-anchor="start" x="2782.83" y="-1246.3" font-family="Times,serif" font-size="14.00">reset_password_token :string</text>
<text text-anchor="start" x="2782.83" y="-1232.3" font-family="Times,serif" font-size="14.00">reset_password_sent_at :datetime</text>
<text text-anchor="start" x="2782.83" y="-1218.3" font-family="Times,serif" font-size="14.00">remember_created_at :datetime</text>
<text text-anchor="start" x="2782.83" y="-1204.3" font-family="Times,serif" font-size="14.00">sign_in_count :integer</text>
<text text-anchor="start" x="2782.83" y="-1190.3" font-family="Times,serif" font-size="14.00">current_sign_in_at :datetime</text>
<text text-anchor="start" x="2782.83" y="-1176.3" font-family="Times,serif" font-size="14.00">last_sign_in_at :datetime</text>
<text text-anchor="start" x="2782.83" y="-1162.3" font-family="Times,serif" font-size="14.00">current_sign_in_ip :inet</text>
<text text-anchor="start" x="2782.83" y="-1148.3" font-family="Times,serif" font-size="14.00">last_sign_in_ip :inet</text>
<text text-anchor="start" x="2782.83" y="-1134.3" font-family="Times,serif" font-size="14.00">school_id :integer</text>
</g>
<!-- User -->
<g id="node35" class="node"><title>User</title>
<path fill="none" stroke="black" d="M2656.83,-779.5C2656.83,-779.5 2837.39,-779.5 2837.39,-779.5 2843.39,-779.5 2849.39,-785.5 2849.39,-791.5 2849.39,-791.5 2849.39,-1077.5 2849.39,-1077.5 2849.39,-1083.5 2843.39,-1089.5 2837.39,-1089.5 2837.39,-1089.5 2656.83,-1089.5 2656.83,-1089.5 2650.83,-1089.5 2644.83,-1083.5 2644.83,-1077.5 2644.83,-1077.5 2644.83,-791.5 2644.83,-791.5 2644.83,-785.5 2650.83,-779.5 2656.83,-779.5"/>
<text text-anchor="middle" x="2747.11" y="-1074.3" font-family="Times,serif" font-size="14.00">User</text>
<polyline fill="none" stroke="black" points="2644.83,-1067.5 2849.39,-1067.5 "/>
<text text-anchor="start" x="2652.83" y="-1052.3" font-family="Times,serif" font-size="14.00">id :integer</text>
<text text-anchor="start" x="2652.83" y="-1038.3" font-family="Times,serif" font-size="14.00">created_at :datetime</text>
<text text-anchor="start" x="2652.83" y="-1024.3" font-family="Times,serif" font-size="14.00">updated_at :datetime</text>
<text text-anchor="start" x="2652.83" y="-1010.3" font-family="Times,serif" font-size="14.00">email :string</text>
<text text-anchor="start" x="2652.83" y="-996.3" font-family="Times,serif" font-size="14.00">encrypted_password :string</text>
<text text-anchor="start" x="2652.83" y="-982.3" font-family="Times,serif" font-size="14.00">reset_password_token :string</text>
<text text-anchor="start" x="2652.83" y="-968.3" font-family="Times,serif" font-size="14.00">reset_password_sent_at :datetime</text>
<text text-anchor="start" x="2652.83" y="-954.3" font-family="Times,serif" font-size="14.00">remember_created_at :datetime</text>
<text text-anchor="start" x="2652.83" y="-940.3" font-family="Times,serif" font-size="14.00">sign_in_count :integer</text>
<text text-anchor="start" x="2652.83" y="-926.3" font-family="Times,serif" font-size="14.00">current_sign_in_at :datetime</text>
<text text-anchor="start" x="2652.83" y="-912.3" font-family="Times,serif" font-size="14.00">last_sign_in_at :datetime</text>
<text text-anchor="start" x="2652.83" y="-898.3" font-family="Times,serif" font-size="14.00">current_sign_in_ip :inet</text>
<text text-anchor="start" x="2652.83" y="-884.3" font-family="Times,serif" font-size="14.00">last_sign_in_ip :inet</text>
<text text-anchor="start" x="2652.83" y="-870.3" font-family="Times,serif" font-size="14.00">confirmation_token :string</text>
<text text-anchor="start" x="2652.83" y="-856.3" font-family="Times,serif" font-size="14.00">confirmed_at :datetime</text>
<text text-anchor="start" x="2652.83" y="-842.3" font-family="Times,serif" font-size="14.00">confirmation_sent_at :datetime</text>
<text text-anchor="start" x="2652.83" y="-828.3" font-family="Times,serif" font-size="14.00">unconfirmed_email :string</text>
<text text-anchor="start" x="2652.83" y="-814.3" font-family="Times,serif" font-size="14.00">school_id :integer</text>
<text text-anchor="start" x="2652.83" y="-800.3" font-family="Times,serif" font-size="14.00">gradyear :integer</text>
<text text-anchor="start" x="2652.83" y="-786.3" font-family="Times,serif" font-size="14.00">approval :integer</text>
</g>
<!-- Clerk&#45;&gt;User -->
<g id="edge2" class="edge"><title>Clerk&#45;&gt;User</title>
<path fill="none" stroke="#a6d2e5" d="M2825.11,-1117.9C2822.43,-1111.64 2819.73,-1105.31 2817.01,-1098.95"/>
<polygon fill="#a6d2e5" stroke="#a6d2e5" points="2825.14,-1117.97 2824.93,-1128.93 2827.11,-1122.57 2829.07,-1127.17 2829.07,-1127.17 2829.07,-1127.17 2827.11,-1122.57 2833.21,-1125.4 2825.14,-1117.97 2825.14,-1117.97"/>
<polygon fill="#a6d2e5" stroke="#a6d2e5" points="2816.95,-1098.81 2817.15,-1087.85 2814.98,-1094.22 2813.01,-1089.62 2813.01,-1089.62 2813.01,-1089.62 2814.98,-1094.22 2808.88,-1091.39 2816.95,-1098.81 2816.95,-1098.81"/>
</g>
<!-- Demo -->
<g id="node11" class="node"><title>Demo</title>
<path fill="none" stroke="black" d="M3442.6,-1454.5C3442.6,-1454.5 3551.61,-1454.5 3551.61,-1454.5 3557.61,-1454.5 3563.61,-1460.5 3563.61,-1466.5 3563.61,-1466.5 3563.61,-1528.5 3563.61,-1528.5 3563.61,-1534.5 3557.61,-1540.5 3551.61,-1540.5 3551.61,-1540.5 3442.6,-1540.5 3442.6,-1540.5 3436.6,-1540.5 3430.6,-1534.5 3430.6,-1528.5 3430.6,-1528.5 3430.6,-1466.5 3430.6,-1466.5 3430.6,-1460.5 3436.6,-1454.5 3442.6,-1454.5"/>
<text text-anchor="middle" x="3497.11" y="-1525.3" font-family="Times,serif" font-size="14.00">Demo</text>
<polyline fill="none" stroke="black" points="3430.6,-1518.5 3563.61,-1518.5 "/>
<text text-anchor="start" x="3438.6" y="-1503.3" font-family="Times,serif" font-size="14.00">id :integer</text>
<text text-anchor="start" x="3438.6" y="-1489.3" font-family="Times,serif" font-size="14.00">created_at :datetime</text>
<text text-anchor="start" x="3438.6" y="-1475.3" font-family="Times,serif" font-size="14.00">updated_at :datetime</text>
<text text-anchor="start" x="3438.6" y="-1461.3" font-family="Times,serif" font-size="14.00">email :string</text>
</g>
<!-- Demographic -->
<g id="node12" class="node"><title>Demographic</title>
<path fill="none" stroke="black" d="M3593.6,-1454.5C3593.6,-1454.5 3702.61,-1454.5 3702.61,-1454.5 3708.61,-1454.5 3714.61,-1460.5 3714.61,-1466.5 3714.61,-1466.5 3714.61,-1528.5 3714.61,-1528.5 3714.61,-1534.5 3708.61,-1540.5 3702.61,-1540.5 3702.61,-1540.5 3593.6,-1540.5 3593.6,-1540.5 3587.6,-1540.5 3581.6,-1534.5 3581.6,-1528.5 3581.6,-1528.5 3581.6,-1466.5 3581.6,-1466.5 3581.6,-1460.5 3587.6,-1454.5 3593.6,-1454.5"/>
<text text-anchor="middle" x="3648.11" y="-1525.3" font-family="Times,serif" font-size="14.00">Demographic</text>
<polyline fill="none" stroke="black" points="3581.6,-1518.5 3714.61,-1518.5 "/>
<text text-anchor="start" x="3589.6" y="-1503.3" font-family="Times,serif" font-size="14.00">id :integer</text>
<text text-anchor="start" x="3589.6" y="-1489.3" font-family="Times,serif" font-size="14.00">name :string</text>
<text text-anchor="start" x="3589.6" y="-1475.3" font-family="Times,serif" font-size="14.00">created_at :datetime</text>
<text text-anchor="start" x="3589.6" y="-1461.3" font-family="Times,serif" font-size="14.00">updated_at :datetime</text>
</g>
<!-- Domain -->
<g id="node13" class="node"><title>Domain</title>
<path fill="none" stroke="black" d="M204.604,-411.5C204.604,-411.5 313.614,-411.5 313.614,-411.5 319.614,-411.5 325.614,-417.5 325.614,-423.5 325.614,-423.5 325.614,-499.5 325.614,-499.5 325.614,-505.5 319.614,-511.5 313.614,-511.5 313.614,-511.5 204.604,-511.5 204.604,-511.5 198.604,-511.5 192.604,-505.5 192.604,-499.5 192.604,-499.5 192.604,-423.5 192.604,-423.5 192.604,-417.5 198.604,-411.5 204.604,-411.5"/>
<text text-anchor="middle" x="259.109" y="-496.3" font-family="Times,serif" font-size="14.00">Domain</text>
<polyline fill="none" stroke="black" points="192.604,-489.5 325.614,-489.5 "/>
<text text-anchor="start" x="200.604" y="-474.3" font-family="Times,serif" font-size="14.00">id :integer</text>
<text text-anchor="start" x="200.604" y="-460.3" font-family="Times,serif" font-size="14.00">url :string</text>
<text text-anchor="start" x="200.604" y="-446.3" font-family="Times,serif" font-size="14.00">created_at :datetime</text>
<text text-anchor="start" x="200.604" y="-432.3" font-family="Times,serif" font-size="14.00">updated_at :datetime</text>
<text text-anchor="start" x="200.604" y="-418.3" font-family="Times,serif" font-size="14.00">user_id :integer</text>
</g>
<!-- GoodnessValidator -->
<g id="node15" class="node"><title>GoodnessValidator</title>
<polygon fill="none" stroke="black" points="3732.84,-1475.5 3732.84,-1519.5 3855.38,-1519.5 3855.38,-1475.5 3732.84,-1475.5"/>
<text text-anchor="middle" x="3794.11" y="-1504.3" font-family="Times,serif" font-size="14.00">GoodnessValidator</text>
<polyline fill="none" stroke="black" points="3732.84,-1497.5 3855.38,-1497.5 "/>
<text text-anchor="middle" x="3794.11" y="-1482.3" font-family="Times,serif" font-size="14.00"> </text>
</g>
<!-- HomepageInfo -->
<g id="node16" class="node"><title>HomepageInfo</title>
<path fill="none" stroke="black" d="M394.286,-376.5C394.286,-376.5 591.932,-376.5 591.932,-376.5 597.932,-376.5 603.932,-382.5 603.932,-388.5 603.932,-388.5 603.932,-534.5 603.932,-534.5 603.932,-540.5 597.932,-546.5 591.932,-546.5 591.932,-546.5 394.286,-546.5 394.286,-546.5 388.286,-546.5 382.286,-540.5 382.286,-534.5 382.286,-534.5 382.286,-388.5 382.286,-388.5 382.286,-382.5 388.286,-376.5 394.286,-376.5"/>
<text text-anchor="middle" x="493.109" y="-531.3" font-family="Times,serif" font-size="14.00">HomepageInfo</text>
<polyline fill="none" stroke="black" points="382.286,-524.5 603.932,-524.5 "/>
<text text-anchor="start" x="390.286" y="-509.3" font-family="Times,serif" font-size="14.00">id :integer</text>
<text text-anchor="start" x="390.286" y="-495.3" font-family="Times,serif" font-size="14.00">homepage_header :string</text>
<text text-anchor="start" x="390.286" y="-481.3" font-family="Times,serif" font-size="14.00">homepage_display_name :string</text>
<text text-anchor="start" x="390.286" y="-467.3" font-family="Times,serif" font-size="14.00">user_id :integer</text>
<text text-anchor="start" x="390.286" y="-453.3" font-family="Times,serif" font-size="14.00">created_at :datetime</text>
<text text-anchor="start" x="390.286" y="-439.3" font-family="Times,serif" font-size="14.00">updated_at :datetime</text>
<text text-anchor="start" x="390.286" y="-425.3" font-family="Times,serif" font-size="14.00">homepage_pic_file_name :string</text>
<text text-anchor="start" x="390.286" y="-411.3" font-family="Times,serif" font-size="14.00">homepage_pic_content_type :string</text>
<text text-anchor="start" x="390.286" y="-397.3" font-family="Times,serif" font-size="14.00">homepage_pic_file_size :integer</text>
<text text-anchor="start" x="390.286" y="-383.3" font-family="Times,serif" font-size="14.00">homepage_pic_updated_at :datetime</text>
</g>
<!-- Industry -->
<g id="node17" class="node"><title>Industry</title>
<path fill="none" stroke="black" d="M3885.6,-1454.5C3885.6,-1454.5 3994.61,-1454.5 3994.61,-1454.5 4000.61,-1454.5 4006.61,-1460.5 4006.61,-1466.5 4006.61,-1466.5 4006.61,-1528.5 4006.61,-1528.5 4006.61,-1534.5 4000.61,-1540.5 3994.61,-1540.5 3994.61,-1540.5 3885.6,-1540.5 3885.6,-1540.5 3879.6,-1540.5 3873.6,-1534.5 3873.6,-1528.5 3873.6,-1528.5 3873.6,-1466.5 3873.6,-1466.5 3873.6,-1460.5 3879.6,-1454.5 3885.6,-1454.5"/>
<text text-anchor="middle" x="3940.11" y="-1525.3" font-family="Times,serif" font-size="14.00">Industry</text>
<polyline fill="none" stroke="black" points="3873.6,-1518.5 4006.61,-1518.5 "/>
<text text-anchor="start" x="3881.6" y="-1503.3" font-family="Times,serif" font-size="14.00">id :integer</text>
<text text-anchor="start" x="3881.6" y="-1489.3" font-family="Times,serif" font-size="14.00">name :string</text>
<text text-anchor="start" x="3881.6" y="-1475.3" font-family="Times,serif" font-size="14.00">created_at :datetime</text>
<text text-anchor="start" x="3881.6" y="-1461.3" font-family="Times,serif" font-size="14.00">updated_at :datetime</text>
</g>
<!-- Language -->
<g id="node18" class="node"><title>Language</title>
<path fill="none" stroke="black" d="M4036.6,-1454.5C4036.6,-1454.5 4145.61,-1454.5 4145.61,-1454.5 4151.61,-1454.5 4157.61,-1460.5 4157.61,-1466.5 4157.61,-1466.5 4157.61,-1528.5 4157.61,-1528.5 4157.61,-1534.5 4151.61,-1540.5 4145.61,-1540.5 4145.61,-1540.5 4036.6,-1540.5 4036.6,-1540.5 4030.6,-1540.5 4024.6,-1534.5 4024.6,-1528.5 4024.6,-1528.5 4024.6,-1466.5 4024.6,-1466.5 4024.6,-1460.5 4030.6,-1454.5 4036.6,-1454.5"/>
<text text-anchor="middle" x="4091.11" y="-1525.3" font-family="Times,serif" font-size="14.00">Language</text>
<polyline fill="none" stroke="black" points="4024.6,-1518.5 4157.61,-1518.5 "/>
<text text-anchor="start" x="4032.6" y="-1503.3" font-family="Times,serif" font-size="14.00">id :integer</text>
<text text-anchor="start" x="4032.6" y="-1489.3" font-family="Times,serif" font-size="14.00">name :string</text>
<text text-anchor="start" x="4032.6" y="-1475.3" font-family="Times,serif" font-size="14.00">created_at :datetime</text>
<text text-anchor="start" x="4032.6" y="-1461.3" font-family="Times,serif" font-size="14.00">updated_at :datetime</text>
</g>
<!-- Mconcentration -->
<g id="node19" class="node"><title>Mconcentration</title>
<path fill="none" stroke="black" d="M4187.6,-1454.5C4187.6,-1454.5 4296.61,-1454.5 4296.61,-1454.5 4302.61,-1454.5 4308.61,-1460.5 4308.61,-1466.5 4308.61,-1466.5 4308.61,-1528.5 4308.61,-1528.5 4308.61,-1534.5 4302.61,-1540.5 4296.61,-1540.5 4296.61,-1540.5 4187.6,-1540.5 4187.6,-1540.5 4181.6,-1540.5 4175.6,-1534.5 4175.6,-1528.5 4175.6,-1528.5 4175.6,-1466.5 4175.6,-1466.5 4175.6,-1460.5 4181.6,-1454.5 4187.6,-1454.5"/>
<text text-anchor="middle" x="4242.11" y="-1525.3" font-family="Times,serif" font-size="14.00">Mconcentration</text>
<polyline fill="none" stroke="black" points="4175.6,-1518.5 4308.61,-1518.5 "/>
<text text-anchor="start" x="4183.6" y="-1503.3" font-family="Times,serif" font-size="14.00">id :integer</text>
<text text-anchor="start" x="4183.6" y="-1489.3" font-family="Times,serif" font-size="14.00">name :string</text>
<text text-anchor="start" x="4183.6" y="-1475.3" font-family="Times,serif" font-size="14.00">created_at :datetime</text>
<text text-anchor="start" x="4183.6" y="-1461.3" font-family="Times,serif" font-size="14.00">updated_at :datetime</text>
</g>
<!-- PersonalInfo -->
<g id="node20" class="node"><title>PersonalInfo</title>
<path fill="none" stroke="black" d="M633.5,-194.5C633.5,-194.5 804.718,-194.5 804.718,-194.5 810.718,-194.5 816.718,-200.5 816.718,-206.5 816.718,-206.5 816.718,-716.5 816.718,-716.5 816.718,-722.5 810.718,-728.5 804.718,-728.5 804.718,-728.5 633.5,-728.5 633.5,-728.5 627.5,-728.5 621.5,-722.5 621.5,-716.5 621.5,-716.5 621.5,-206.5 621.5,-206.5 621.5,-200.5 627.5,-194.5 633.5,-194.5"/>
<text text-anchor="middle" x="719.109" y="-713.3" font-family="Times,serif" font-size="14.00">PersonalInfo</text>
<polyline fill="none" stroke="black" points="621.5,-706.5 816.718,-706.5 "/>
<text text-anchor="start" x="629.5" y="-691.3" font-family="Times,serif" font-size="14.00">id :integer</text>
<text text-anchor="start" x="629.5" y="-677.3" font-family="Times,serif" font-size="14.00">name_first :string</text>
<text text-anchor="start" x="629.5" y="-663.3" font-family="Times,serif" font-size="14.00">name_last :string</text>
<text text-anchor="start" x="629.5" y="-649.3" font-family="Times,serif" font-size="14.00">intro_paragraph :text</text>
<text text-anchor="start" x="629.5" y="-635.3" font-family="Times,serif" font-size="14.00">created_at :datetime</text>
<text text-anchor="start" x="629.5" y="-621.3" font-family="Times,serif" font-size="14.00">updated_at :datetime</text>
<text text-anchor="start" x="629.5" y="-607.3" font-family="Times,serif" font-size="14.00">about_pic_file_name :string</text>
<text text-anchor="start" x="629.5" y="-593.3" font-family="Times,serif" font-size="14.00">about_pic_content_type :string</text>
<text text-anchor="start" x="629.5" y="-579.3" font-family="Times,serif" font-size="14.00">about_pic_file_size :integer</text>
<text text-anchor="start" x="629.5" y="-565.3" font-family="Times,serif" font-size="14.00">about_pic_updated_at :datetime</text>
<text text-anchor="start" x="629.5" y="-551.3" font-family="Times,serif" font-size="14.00">user_id :integer</text>
<text text-anchor="start" x="629.5" y="-537.3" font-family="Times,serif" font-size="14.00">resume_file_name :string</text>
<text text-anchor="start" x="629.5" y="-523.3" font-family="Times,serif" font-size="14.00">resume_content_type :string</text>
<text text-anchor="start" x="629.5" y="-509.3" font-family="Times,serif" font-size="14.00">resume_file_size :integer</text>
<text text-anchor="start" x="629.5" y="-495.3" font-family="Times,serif" font-size="14.00">resume_updated_at :datetime</text>
<text text-anchor="start" x="629.5" y="-481.3" font-family="Times,serif" font-size="14.00">vertical :boolean</text>
<text text-anchor="start" x="629.5" y="-467.3" font-family="Times,serif" font-size="14.00">exp1_file_name :string</text>
<text text-anchor="start" x="629.5" y="-453.3" font-family="Times,serif" font-size="14.00">exp1_content_type :string</text>
<text text-anchor="start" x="629.5" y="-439.3" font-family="Times,serif" font-size="14.00">exp1_file_size :integer</text>
<text text-anchor="start" x="629.5" y="-425.3" font-family="Times,serif" font-size="14.00">exp1_updated_at :datetime</text>
<text text-anchor="start" x="629.5" y="-411.3" font-family="Times,serif" font-size="14.00">exp2_file_name :string</text>
<text text-anchor="start" x="629.5" y="-397.3" font-family="Times,serif" font-size="14.00">exp2_content_type :string</text>
<text text-anchor="start" x="629.5" y="-383.3" font-family="Times,serif" font-size="14.00">exp2_file_size :integer</text>
<text text-anchor="start" x="629.5" y="-369.3" font-family="Times,serif" font-size="14.00">exp2_updated_at :datetime</text>
<text text-anchor="start" x="629.5" y="-355.3" font-family="Times,serif" font-size="14.00">exp3_file_name :string</text>
<text text-anchor="start" x="629.5" y="-341.3" font-family="Times,serif" font-size="14.00">exp3_content_type :string</text>
<text text-anchor="start" x="629.5" y="-327.3" font-family="Times,serif" font-size="14.00">exp3_file_size :integer</text>
<text text-anchor="start" x="629.5" y="-313.3" font-family="Times,serif" font-size="14.00">exp3_updated_at :datetime</text>
<text text-anchor="start" x="629.5" y="-299.3" font-family="Times,serif" font-size="14.00">exp4_file_name :string</text>
<text text-anchor="start" x="629.5" y="-285.3" font-family="Times,serif" font-size="14.00">exp4_content_type :string</text>
<text text-anchor="start" x="629.5" y="-271.3" font-family="Times,serif" font-size="14.00">exp4_file_size :integer</text>
<text text-anchor="start" x="629.5" y="-257.3" font-family="Times,serif" font-size="14.00">exp4_updated_at :datetime</text>
<text text-anchor="start" x="629.5" y="-243.3" font-family="Times,serif" font-size="14.00">remove_exp1 :boolean</text>
<text text-anchor="start" x="629.5" y="-229.3" font-family="Times,serif" font-size="14.00">remove_exp2 :boolean</text>
<text text-anchor="start" x="629.5" y="-215.3" font-family="Times,serif" font-size="14.00">remove_exp3 :boolean</text>
<text text-anchor="start" x="629.5" y="-201.3" font-family="Times,serif" font-size="14.00">remove_exp4 :boolean</text>
</g>
<!-- Photo -->
<g id="node21" class="node"><title>Photo</title>
<path fill="none" stroke="black" d="M12,-390.5C12,-390.5 162.218,-390.5 162.218,-390.5 168.218,-390.5 174.218,-396.5 174.218,-402.5 174.218,-402.5 174.218,-520.5 174.218,-520.5 174.218,-526.5 168.218,-532.5 162.218,-532.5 162.218,-532.5 12,-532.5 12,-532.5 6,-532.5 0,-526.5 0,-520.5 0,-520.5 0,-402.5 0,-402.5 0,-396.5 6,-390.5 12,-390.5"/>
<text text-anchor="middle" x="87.1089" y="-517.3" font-family="Times,serif" font-size="14.00">Photo</text>
<polyline fill="none" stroke="black" points="0,-510.5 174.218,-510.5 "/>
<text text-anchor="start" x="8" y="-495.3" font-family="Times,serif" font-size="14.00">id :integer</text>
<text text-anchor="start" x="8" y="-481.3" font-family="Times,serif" font-size="14.00">created_at :datetime</text>
<text text-anchor="start" x="8" y="-467.3" font-family="Times,serif" font-size="14.00">updated_at :datetime</text>
<text text-anchor="start" x="8" y="-453.3" font-family="Times,serif" font-size="14.00">image_file_name :string</text>
<text text-anchor="start" x="8" y="-439.3" font-family="Times,serif" font-size="14.00">image_content_type :string</text>
<text text-anchor="start" x="8" y="-425.3" font-family="Times,serif" font-size="14.00">image_file_size :integer</text>
<text text-anchor="start" x="8" y="-411.3" font-family="Times,serif" font-size="14.00">image_updated_at :datetime</text>
<text text-anchor="start" x="8" y="-397.3" font-family="Times,serif" font-size="14.00">user_id :integer</text>
</g>
<!-- PhotoLink -->
<g id="node22" class="node"><title>PhotoLink</title>
<path fill="none" stroke="black" d="M846.604,-411.5C846.604,-411.5 955.614,-411.5 955.614,-411.5 961.614,-411.5 967.614,-417.5 967.614,-423.5 967.614,-423.5 967.614,-499.5 967.614,-499.5 967.614,-505.5 961.614,-511.5 955.614,-511.5 955.614,-511.5 846.604,-511.5 846.604,-511.5 840.604,-511.5 834.604,-505.5 834.604,-499.5 834.604,-499.5 834.604,-423.5 834.604,-423.5 834.604,-417.5 840.604,-411.5 846.604,-411.5"/>
<text text-anchor="middle" x="901.109" y="-496.3" font-family="Times,serif" font-size="14.00">PhotoLink</text>
<polyline fill="none" stroke="black" points="834.604,-489.5 967.614,-489.5 "/>
<text text-anchor="start" x="842.604" y="-474.3" font-family="Times,serif" font-size="14.00">id :integer</text>
<text text-anchor="start" x="842.604" y="-460.3" font-family="Times,serif" font-size="14.00">tumblr_url :string</text>
<text text-anchor="start" x="842.604" y="-446.3" font-family="Times,serif" font-size="14.00">user_id :integer</text>
<text text-anchor="start" x="842.604" y="-432.3" font-family="Times,serif" font-size="14.00">created_at :datetime</text>
<text text-anchor="start" x="842.604" y="-418.3" font-family="Times,serif" font-size="14.00">updated_at :datetime</text>
</g>
<!-- Project -->
<g id="node23" class="node"><title>Project</title>
<path fill="none" stroke="black" d="M4337.66,-229.5C4337.66,-229.5 4478.56,-229.5 4478.56,-229.5 4484.56,-229.5 4490.56,-235.5 4490.56,-241.5 4490.56,-241.5 4490.56,-681.5 4490.56,-681.5 4490.56,-687.5 4484.56,-693.5 4478.56,-693.5 4478.56,-693.5 4337.66,-693.5 4337.66,-693.5 4331.66,-693.5 4325.66,-687.5 4325.66,-681.5 4325.66,-681.5 4325.66,-241.5 4325.66,-241.5 4325.66,-235.5 4331.66,-229.5 4337.66,-229.5"/>
<text text-anchor="middle" x="4408.11" y="-678.3" font-family="Times,serif" font-size="14.00">Project</text>
<polyline fill="none" stroke="black" points="4325.66,-671.5 4490.56,-671.5 "/>
<text text-anchor="start" x="4333.66" y="-656.3" font-family="Times,serif" font-size="14.00">id :integer</text>
<text text-anchor="start" x="4333.66" y="-642.3" font-family="Times,serif" font-size="14.00">title :string</text>
<text text-anchor="start" x="4333.66" y="-628.3" font-family="Times,serif" font-size="14.00">paragraph :text</text>
<text text-anchor="start" x="4333.66" y="-614.3" font-family="Times,serif" font-size="14.00">created_at :datetime</text>
<text text-anchor="start" x="4333.66" y="-600.3" font-family="Times,serif" font-size="14.00">updated_at :datetime</text>
<text text-anchor="start" x="4333.66" y="-586.3" font-family="Times,serif" font-size="14.00">file1_file_name :string</text>
<text text-anchor="start" x="4333.66" y="-572.3" font-family="Times,serif" font-size="14.00">file1_content_type :string</text>
<text text-anchor="start" x="4333.66" y="-558.3" font-family="Times,serif" font-size="14.00">file1_file_size :integer</text>
<text text-anchor="start" x="4333.66" y="-544.3" font-family="Times,serif" font-size="14.00">file1_updated_at :datetime</text>
<text text-anchor="start" x="4333.66" y="-530.3" font-family="Times,serif" font-size="14.00">file2_file_name :string</text>
<text text-anchor="start" x="4333.66" y="-516.3" font-family="Times,serif" font-size="14.00">file2_content_type :string</text>
<text text-anchor="start" x="4333.66" y="-502.3" font-family="Times,serif" font-size="14.00">file2_file_size :integer</text>
<text text-anchor="start" x="4333.66" y="-488.3" font-family="Times,serif" font-size="14.00">file2_updated_at :datetime</text>
<text text-anchor="start" x="4333.66" y="-474.3" font-family="Times,serif" font-size="14.00">file3_file_name :string</text>
<text text-anchor="start" x="4333.66" y="-460.3" font-family="Times,serif" font-size="14.00">file3_content_type :string</text>
<text text-anchor="start" x="4333.66" y="-446.3" font-family="Times,serif" font-size="14.00">file3_file_size :integer</text>
<text text-anchor="start" x="4333.66" y="-432.3" font-family="Times,serif" font-size="14.00">file3_updated_at :datetime</text>
<text text-anchor="start" x="4333.66" y="-418.3" font-family="Times,serif" font-size="14.00">file4_file_name :string</text>
<text text-anchor="start" x="4333.66" y="-404.3" font-family="Times,serif" font-size="14.00">file4_content_type :string</text>
<text text-anchor="start" x="4333.66" y="-390.3" font-family="Times,serif" font-size="14.00">file4_file_size :integer</text>
<text text-anchor="start" x="4333.66" y="-376.3" font-family="Times,serif" font-size="14.00">file4_updated_at :datetime</text>
<text text-anchor="start" x="4333.66" y="-362.3" font-family="Times,serif" font-size="14.00">file1_type :integer</text>
<text text-anchor="start" x="4333.66" y="-348.3" font-family="Times,serif" font-size="14.00">file2_type :integer</text>
<text text-anchor="start" x="4333.66" y="-334.3" font-family="Times,serif" font-size="14.00">file3_type :integer</text>
<text text-anchor="start" x="4333.66" y="-320.3" font-family="Times,serif" font-size="14.00">file4_type :integer</text>
<text text-anchor="start" x="4333.66" y="-306.3" font-family="Times,serif" font-size="14.00">file1_title :string</text>
<text text-anchor="start" x="4333.66" y="-292.3" font-family="Times,serif" font-size="14.00">file2_title :string</text>
<text text-anchor="start" x="4333.66" y="-278.3" font-family="Times,serif" font-size="14.00">file3_title :string</text>
<text text-anchor="start" x="4333.66" y="-264.3" font-family="Times,serif" font-size="14.00">file4_title :string</text>
<text text-anchor="start" x="4333.66" y="-250.3" font-family="Times,serif" font-size="14.00">url :string</text>
<text text-anchor="start" x="4333.66" y="-236.3" font-family="Times,serif" font-size="14.00">user_id :integer</text>
</g>
<!-- Region -->
<g id="node24" class="node"><title>Region</title>
<path fill="none" stroke="black" d="M4338.6,-1454.5C4338.6,-1454.5 4447.61,-1454.5 4447.61,-1454.5 4453.61,-1454.5 4459.61,-1460.5 4459.61,-1466.5 4459.61,-1466.5 4459.61,-1528.5 4459.61,-1528.5 4459.61,-1534.5 4453.61,-1540.5 4447.61,-1540.5 4447.61,-1540.5 4338.6,-1540.5 4338.6,-1540.5 4332.6,-1540.5 4326.6,-1534.5 4326.6,-1528.5 4326.6,-1528.5 4326.6,-1466.5 4326.6,-1466.5 4326.6,-1460.5 4332.6,-1454.5 4338.6,-1454.5"/>
<text text-anchor="middle" x="4393.11" y="-1525.3" font-family="Times,serif" font-size="14.00">Region</text>
<polyline fill="none" stroke="black" points="4326.6,-1518.5 4459.61,-1518.5 "/>
<text text-anchor="start" x="4334.6" y="-1503.3" font-family="Times,serif" font-size="14.00">id :integer</text>
<text text-anchor="start" x="4334.6" y="-1489.3" font-family="Times,serif" font-size="14.00">name :string</text>
<text text-anchor="start" x="4334.6" y="-1475.3" font-family="Times,serif" font-size="14.00">created_at :datetime</text>
<text text-anchor="start" x="4334.6" y="-1461.3" font-family="Times,serif" font-size="14.00">updated_at :datetime</text>
</g>
<!-- School -->
<g id="node25" class="node"><title>School</title>
<path fill="none" stroke="black" d="M2806.66,-1405.5C2806.66,-1405.5 2947.56,-1405.5 2947.56,-1405.5 2953.56,-1405.5 2959.56,-1411.5 2959.56,-1417.5 2959.56,-1417.5 2959.56,-1577.5 2959.56,-1577.5 2959.56,-1583.5 2953.56,-1589.5 2947.56,-1589.5 2947.56,-1589.5 2806.66,-1589.5 2806.66,-1589.5 2800.66,-1589.5 2794.66,-1583.5 2794.66,-1577.5 2794.66,-1577.5 2794.66,-1417.5 2794.66,-1417.5 2794.66,-1411.5 2800.66,-1405.5 2806.66,-1405.5"/>
<text text-anchor="middle" x="2877.11" y="-1574.3" font-family="Times,serif" font-size="14.00">School</text>
<polyline fill="none" stroke="black" points="2794.66,-1567.5 2959.56,-1567.5 "/>
<text text-anchor="start" x="2802.66" y="-1552.3" font-family="Times,serif" font-size="14.00">id :integer</text>
<text text-anchor="start" x="2802.66" y="-1538.3" font-family="Times,serif" font-size="14.00">name :string</text>
<text text-anchor="start" x="2802.66" y="-1524.3" font-family="Times,serif" font-size="14.00">created_at :datetime</text>
<text text-anchor="start" x="2802.66" y="-1510.3" font-family="Times,serif" font-size="14.00">updated_at :datetime</text>
<text text-anchor="start" x="2802.66" y="-1496.3" font-family="Times,serif" font-size="14.00">logo_file_name :string</text>
<text text-anchor="start" x="2802.66" y="-1482.3" font-family="Times,serif" font-size="14.00">logo_content_type :string</text>
<text text-anchor="start" x="2802.66" y="-1468.3" font-family="Times,serif" font-size="14.00">logo_file_size :integer</text>
<text text-anchor="start" x="2802.66" y="-1454.3" font-family="Times,serif" font-size="14.00">logo_updated_at :datetime</text>
<text text-anchor="start" x="2802.66" y="-1440.3" font-family="Times,serif" font-size="14.00">color1 :string</text>
<text text-anchor="start" x="2802.66" y="-1426.3" font-family="Times,serif" font-size="14.00">color2 :string</text>
<text text-anchor="start" x="2802.66" y="-1412.3" font-family="Times,serif" font-size="14.00">domain :string</text>
</g>
<!-- School&#45;&gt;Article -->
<g id="edge6" class="edge"><title>School&#45;&gt;Article</title>
<path fill="none" stroke="#0f7bca" d="M2959.3,-1398.4C2962.21,-1395.84 2965.15,-1393.37 2968.11,-1391 3432.35,-1019.62 3723.13,-1176.73 4148.11,-761 4208.82,-701.609 4230.06,-603.308 4237.4,-535.847"/>
<polygon fill="#0f7bca" stroke="#0f7bca" points="2959.07,-1398.61 2948.65,-1402.02 2955.37,-1401.98 2951.68,-1405.35 2951.68,-1405.35 2951.68,-1405.35 2955.37,-1401.98 2954.71,-1408.67 2959.07,-1398.61 2959.07,-1398.61"/>
<polygon fill="#0f7bca" stroke="#0f7bca" points="4237.42,-535.66 4242.9,-526.163 4237.92,-530.686 4238.42,-525.711 4238.42,-525.711 4238.42,-525.711 4237.92,-530.686 4233.94,-525.259 4237.42,-535.66 4237.42,-535.66"/>
</g>
<!-- School&#45;&gt;Clerk -->
<g id="edge4" class="edge"><title>School&#45;&gt;Clerk</title>
<path fill="none" stroke="#25e1e6" d="M2877.11,-1396.86C2877.11,-1385.99 2877.11,-1374.84 2877.11,-1363.74"/>
<ellipse fill="none" stroke="#25e1e6" cx="2877.11" cy="-1401.16" rx="4" ry="4"/>
<polygon fill="#25e1e6" stroke="#25e1e6" points="2877.11,-1363.57 2881.61,-1353.57 2877.11,-1358.57 2877.11,-1353.57 2877.11,-1353.57 2877.11,-1353.57 2877.11,-1358.57 2872.61,-1353.57 2877.11,-1363.57 2877.11,-1363.57"/>
</g>
<!-- School&#45;&gt;Photo -->
<g id="edge7" class="edge"><title>School&#45;&gt;Photo</title>
<path fill="none" stroke="#8a74f8" d="M2797.05,-1399.09C2793.16,-1396.19 2789.18,-1393.48 2785.11,-1391 1777.51,-777.853 1191.45,-1410.83 207.109,-761 134.803,-713.266 106.064,-613.781 94.6413,-542.788"/>
<polygon fill="#8a74f8" stroke="#8a74f8" points="2797.05,-1399.09 2802.11,-1408.83 2800.97,-1402.2 2804.9,-1405.3 2804.9,-1405.3 2804.9,-1405.3 2800.97,-1402.2 2807.69,-1401.77 2797.05,-1399.09 2797.05,-1399.09"/>
<polygon fill="#8a74f8" stroke="#8a74f8" points="94.5847,-542.416 97.5273,-531.852 93.8317,-537.473 93.0786,-532.53 93.0786,-532.53 93.0786,-532.53 93.8317,-537.473 88.6299,-533.207 94.5847,-542.416 94.5847,-542.416"/>
</g>
<!-- School&#45;&gt;Project -->
<g id="edge5" class="edge"><title>School&#45;&gt;Project</title>
<path fill="none" stroke="#7c483f" d="M2954.87,-1399.23C2959.15,-1396.21 2963.57,-1393.44 2968.11,-1391 3081.77,-1329.88 3131.65,-1388.11 3256.11,-1354 3541.8,-1275.7 3614.37,-1242.86 3868.11,-1090 4087.44,-957.865 4170.14,-938.68 4317.11,-729 4323.01,-720.581 4328.56,-711.747 4333.76,-702.622"/>
<polygon fill="#7c483f" stroke="#7c483f" points="2954.77,-1399.3 2944.08,-1401.75 2950.79,-1402.32 2946.8,-1405.34 2946.8,-1405.34 2946.8,-1405.34 2950.79,-1402.32 2949.52,-1408.93 2954.77,-1399.3 2954.77,-1399.3"/>
<polygon fill="#7c483f" stroke="#7c483f" points="4333.81,-702.537 4342.59,-695.969 4336.23,-698.163 4338.66,-693.789 4338.66,-693.789 4338.66,-693.789 4336.23,-698.163 4334.72,-691.609 4333.81,-702.537 4333.81,-702.537"/>
</g>
<!-- School&#45;&gt;User -->
<g id="edge3" class="edge"><title>School&#45;&gt;User</title>
<path fill="none" stroke="#e669d8" d="M2794.13,-1398.64C2780.81,-1380.95 2770.07,-1364.74 2766.11,-1354 2736.46,-1273.68 2730.07,-1178.74 2731.8,-1099.61"/>
<ellipse fill="none" stroke="#e669d8" cx="2796.72" cy="-1402.03" rx="4.00002" ry="4.00002"/>
<polygon fill="#e669d8" stroke="#e669d8" points="2731.8,-1099.54 2736.57,-1089.66 2731.94,-1094.54 2732.07,-1089.54 2732.07,-1089.54 2732.07,-1089.54 2731.94,-1094.54 2727.57,-1089.42 2731.8,-1099.54 2731.8,-1099.54"/>
</g>
<!-- Sex -->
<g id="node26" class="node"><title>Sex</title>
<path fill="none" stroke="black" d="M4489.6,-1454.5C4489.6,-1454.5 4598.61,-1454.5 4598.61,-1454.5 4604.61,-1454.5 4610.61,-1460.5 4610.61,-1466.5 4610.61,-1466.5 4610.61,-1528.5 4610.61,-1528.5 4610.61,-1534.5 4604.61,-1540.5 4598.61,-1540.5 4598.61,-1540.5 4489.6,-1540.5 4489.6,-1540.5 4483.6,-1540.5 4477.6,-1534.5 4477.6,-1528.5 4477.6,-1528.5 4477.6,-1466.5 4477.6,-1466.5 4477.6,-1460.5 4483.6,-1454.5 4489.6,-1454.5"/>
<text text-anchor="middle" x="4544.11" y="-1525.3" font-family="Times,serif" font-size="14.00">Sex</text>
<polyline fill="none" stroke="black" points="4477.6,-1518.5 4610.61,-1518.5 "/>
<text text-anchor="start" x="4485.6" y="-1503.3" font-family="Times,serif" font-size="14.00">id :integer</text>
<text text-anchor="start" x="4485.6" y="-1489.3" font-family="Times,serif" font-size="14.00">name :string</text>
<text text-anchor="start" x="4485.6" y="-1475.3" font-family="Times,serif" font-size="14.00">created_at :datetime</text>
<text text-anchor="start" x="4485.6" y="-1461.3" font-family="Times,serif" font-size="14.00">updated_at :datetime</text>
</g>
<!-- Showcase -->
<g id="node27" class="node"><title>Showcase</title>
<path fill="none" stroke="black" d="M4640.6,-1447.5C4640.6,-1447.5 4763.61,-1447.5 4763.61,-1447.5 4769.61,-1447.5 4775.61,-1453.5 4775.61,-1459.5 4775.61,-1459.5 4775.61,-1535.5 4775.61,-1535.5 4775.61,-1541.5 4769.61,-1547.5 4763.61,-1547.5 4763.61,-1547.5 4640.6,-1547.5 4640.6,-1547.5 4634.6,-1547.5 4628.6,-1541.5 4628.6,-1535.5 4628.6,-1535.5 4628.6,-1459.5 4628.6,-1459.5 4628.6,-1453.5 4634.6,-1447.5 4640.6,-1447.5"/>
<text text-anchor="middle" x="4702.11" y="-1532.3" font-family="Times,serif" font-size="14.00">Showcase</text>
<polyline fill="none" stroke="black" points="4628.6,-1525.5 4775.61,-1525.5 "/>
<text text-anchor="start" x="4636.6" y="-1510.3" font-family="Times,serif" font-size="14.00">id :integer</text>
<text text-anchor="start" x="4636.6" y="-1496.3" font-family="Times,serif" font-size="14.00">showcase_type :integer</text>
<text text-anchor="start" x="4636.6" y="-1482.3" font-family="Times,serif" font-size="14.00">created_at :datetime</text>
<text text-anchor="start" x="4636.6" y="-1468.3" font-family="Times,serif" font-size="14.00">updated_at :datetime</text>
<text text-anchor="start" x="4636.6" y="-1454.3" font-family="Times,serif" font-size="14.00">user_id :integer</text>
</g>
<!-- Size -->
<g id="node28" class="node"><title>Size</title>
<path fill="none" stroke="black" d="M4805.6,-1454.5C4805.6,-1454.5 4914.61,-1454.5 4914.61,-1454.5 4920.61,-1454.5 4926.61,-1460.5 4926.61,-1466.5 4926.61,-1466.5 4926.61,-1528.5 4926.61,-1528.5 4926.61,-1534.5 4920.61,-1540.5 4914.61,-1540.5 4914.61,-1540.5 4805.6,-1540.5 4805.6,-1540.5 4799.6,-1540.5 4793.6,-1534.5 4793.6,-1528.5 4793.6,-1528.5 4793.6,-1466.5 4793.6,-1466.5 4793.6,-1460.5 4799.6,-1454.5 4805.6,-1454.5"/>
<text text-anchor="middle" x="4860.11" y="-1525.3" font-family="Times,serif" font-size="14.00">Size</text>
<polyline fill="none" stroke="black" points="4793.6,-1518.5 4926.61,-1518.5 "/>
<text text-anchor="start" x="4801.6" y="-1503.3" font-family="Times,serif" font-size="14.00">id :integer</text>
<text text-anchor="start" x="4801.6" y="-1489.3" font-family="Times,serif" font-size="14.00">name :string</text>
<text text-anchor="start" x="4801.6" y="-1475.3" font-family="Times,serif" font-size="14.00">created_at :datetime</text>
<text text-anchor="start" x="4801.6" y="-1461.3" font-family="Times,serif" font-size="14.00">updated_at :datetime</text>
</g>
<!-- Skill -->
<g id="node29" class="node"><title>Skill</title>
<path fill="none" stroke="black" d="M4956.6,-1454.5C4956.6,-1454.5 5065.61,-1454.5 5065.61,-1454.5 5071.61,-1454.5 5077.61,-1460.5 5077.61,-1466.5 5077.61,-1466.5 5077.61,-1528.5 5077.61,-1528.5 5077.61,-1534.5 5071.61,-1540.5 5065.61,-1540.5 5065.61,-1540.5 4956.6,-1540.5 4956.6,-1540.5 4950.6,-1540.5 4944.6,-1534.5 4944.6,-1528.5 4944.6,-1528.5 4944.6,-1466.5 4944.6,-1466.5 4944.6,-1460.5 4950.6,-1454.5 4956.6,-1454.5"/>
<text text-anchor="middle" x="5011.11" y="-1525.3" font-family="Times,serif" font-size="14.00">Skill</text>
<polyline fill="none" stroke="black" points="4944.6,-1518.5 5077.61,-1518.5 "/>
<text text-anchor="start" x="4952.6" y="-1503.3" font-family="Times,serif" font-size="14.00">id :integer</text>
<text text-anchor="start" x="4952.6" y="-1489.3" font-family="Times,serif" font-size="14.00">name :string</text>
<text text-anchor="start" x="4952.6" y="-1475.3" font-family="Times,serif" font-size="14.00">created_at :datetime</text>
<text text-anchor="start" x="4952.6" y="-1461.3" font-family="Times,serif" font-size="14.00">updated_at :datetime</text>
</g>
<!-- SocialLink -->
<g id="node30" class="node"><title>SocialLink</title>
<path fill="none" stroke="black" d="M997.476,-369.5C997.476,-369.5 1112.74,-369.5 1112.74,-369.5 1118.74,-369.5 1124.74,-375.5 1124.74,-381.5 1124.74,-381.5 1124.74,-541.5 1124.74,-541.5 1124.74,-547.5 1118.74,-553.5 1112.74,-553.5 1112.74,-553.5 997.476,-553.5 997.476,-553.5 991.476,-553.5 985.476,-547.5 985.476,-541.5 985.476,-541.5 985.476,-381.5 985.476,-381.5 985.476,-375.5 991.476,-369.5 997.476,-369.5"/>
<text text-anchor="middle" x="1055.11" y="-538.3" font-family="Times,serif" font-size="14.00">SocialLink</text>
<polyline fill="none" stroke="black" points="985.476,-531.5 1124.74,-531.5 "/>
<text text-anchor="start" x="993.476" y="-516.3" font-family="Times,serif" font-size="14.00">id :integer</text>
<text text-anchor="start" x="993.476" y="-502.3" font-family="Times,serif" font-size="14.00">link_linkedin :string</text>
<text text-anchor="start" x="993.476" y="-488.3" font-family="Times,serif" font-size="14.00">link_instagram :string</text>
<text text-anchor="start" x="993.476" y="-474.3" font-family="Times,serif" font-size="14.00">link_facebook :string</text>
<text text-anchor="start" x="993.476" y="-460.3" font-family="Times,serif" font-size="14.00">link_twitter :string</text>
<text text-anchor="start" x="993.476" y="-446.3" font-family="Times,serif" font-size="14.00">link_tumblr :string</text>
<text text-anchor="start" x="993.476" y="-432.3" font-family="Times,serif" font-size="14.00">link_github :string</text>
<text text-anchor="start" x="993.476" y="-418.3" font-family="Times,serif" font-size="14.00">link_alt_email :string</text>
<text text-anchor="start" x="993.476" y="-404.3" font-family="Times,serif" font-size="14.00">created_at :datetime</text>
<text text-anchor="start" x="993.476" y="-390.3" font-family="Times,serif" font-size="14.00">updated_at :datetime</text>
<text text-anchor="start" x="993.476" y="-376.3" font-family="Times,serif" font-size="14.00">user_id :integer</text>
</g>
<!-- State -->
<g id="node31" class="node"><title>State</title>
<path fill="none" stroke="black" d="M5107.6,-1454.5C5107.6,-1454.5 5216.61,-1454.5 5216.61,-1454.5 5222.61,-1454.5 5228.61,-1460.5 5228.61,-1466.5 5228.61,-1466.5 5228.61,-1528.5 5228.61,-1528.5 5228.61,-1534.5 5222.61,-1540.5 5216.61,-1540.5 5216.61,-1540.5 5107.6,-1540.5 5107.6,-1540.5 5101.6,-1540.5 5095.6,-1534.5 5095.6,-1528.5 5095.6,-1528.5 5095.6,-1466.5 5095.6,-1466.5 5095.6,-1460.5 5101.6,-1454.5 5107.6,-1454.5"/>
<text text-anchor="middle" x="5162.11" y="-1525.3" font-family="Times,serif" font-size="14.00">State</text>
<polyline fill="none" stroke="black" points="5095.6,-1518.5 5228.61,-1518.5 "/>
<text text-anchor="start" x="5103.6" y="-1503.3" font-family="Times,serif" font-size="14.00">id :integer</text>
<text text-anchor="start" x="5103.6" y="-1489.3" font-family="Times,serif" font-size="14.00">name :string</text>
<text text-anchor="start" x="5103.6" y="-1475.3" font-family="Times,serif" font-size="14.00">created_at :datetime</text>
<text text-anchor="start" x="5103.6" y="-1461.3" font-family="Times,serif" font-size="14.00">updated_at :datetime</text>
</g>
<!-- Travel -->
<g id="node32" class="node"><title>Travel</title>
<path fill="none" stroke="black" d="M5258.6,-1454.5C5258.6,-1454.5 5367.61,-1454.5 5367.61,-1454.5 5373.61,-1454.5 5379.61,-1460.5 5379.61,-1466.5 5379.61,-1466.5 5379.61,-1528.5 5379.61,-1528.5 5379.61,-1534.5 5373.61,-1540.5 5367.61,-1540.5 5367.61,-1540.5 5258.6,-1540.5 5258.6,-1540.5 5252.6,-1540.5 5246.6,-1534.5 5246.6,-1528.5 5246.6,-1528.5 5246.6,-1466.5 5246.6,-1466.5 5246.6,-1460.5 5252.6,-1454.5 5258.6,-1454.5"/>
<text text-anchor="middle" x="5313.11" y="-1525.3" font-family="Times,serif" font-size="14.00">Travel</text>
<polyline fill="none" stroke="black" points="5246.6,-1518.5 5379.61,-1518.5 "/>
<text text-anchor="start" x="5254.6" y="-1503.3" font-family="Times,serif" font-size="14.00">id :integer</text>
<text text-anchor="start" x="5254.6" y="-1489.3" font-family="Times,serif" font-size="14.00">name :string</text>
<text text-anchor="start" x="5254.6" y="-1475.3" font-family="Times,serif" font-size="14.00">created_at :datetime</text>
<text text-anchor="start" x="5254.6" y="-1461.3" font-family="Times,serif" font-size="14.00">updated_at :datetime</text>
</g>
<!-- Uconcentration -->
<g id="node33" class="node"><title>Uconcentration</title>
<path fill="none" stroke="black" d="M5409.6,-1454.5C5409.6,-1454.5 5518.61,-1454.5 5518.61,-1454.5 5524.61,-1454.5 5530.61,-1460.5 5530.61,-1466.5 5530.61,-1466.5 5530.61,-1528.5 5530.61,-1528.5 5530.61,-1534.5 5524.61,-1540.5 5518.61,-1540.5 5518.61,-1540.5 5409.6,-1540.5 5409.6,-1540.5 5403.6,-1540.5 5397.6,-1534.5 5397.6,-1528.5 5397.6,-1528.5 5397.6,-1466.5 5397.6,-1466.5 5397.6,-1460.5 5403.6,-1454.5 5409.6,-1454.5"/>
<text text-anchor="middle" x="5464.11" y="-1525.3" font-family="Times,serif" font-size="14.00">Uconcentration</text>
<polyline fill="none" stroke="black" points="5397.6,-1518.5 5530.61,-1518.5 "/>
<text text-anchor="start" x="5405.6" y="-1503.3" font-family="Times,serif" font-size="14.00">id :integer</text>
<text text-anchor="start" x="5405.6" y="-1489.3" font-family="Times,serif" font-size="14.00">name :string</text>
<text text-anchor="start" x="5405.6" y="-1475.3" font-family="Times,serif" font-size="14.00">created_at :datetime</text>
<text text-anchor="start" x="5405.6" y="-1461.3" font-family="Times,serif" font-size="14.00">updated_at :datetime</text>
</g>
<!-- Undergrad -->
<g id="node34" class="node"><title>Undergrad</title>
<path fill="none" stroke="black" d="M5560.6,-1454.5C5560.6,-1454.5 5669.61,-1454.5 5669.61,-1454.5 5675.61,-1454.5 5681.61,-1460.5 5681.61,-1466.5 5681.61,-1466.5 5681.61,-1528.5 5681.61,-1528.5 5681.61,-1534.5 5675.61,-1540.5 5669.61,-1540.5 5669.61,-1540.5 5560.6,-1540.5 5560.6,-1540.5 5554.6,-1540.5 5548.6,-1534.5 5548.6,-1528.5 5548.6,-1528.5 5548.6,-1466.5 5548.6,-1466.5 5548.6,-1460.5 5554.6,-1454.5 5560.6,-1454.5"/>
<text text-anchor="middle" x="5615.11" y="-1525.3" font-family="Times,serif" font-size="14.00">Undergrad</text>
<polyline fill="none" stroke="black" points="5548.6,-1518.5 5681.61,-1518.5 "/>
<text text-anchor="start" x="5556.6" y="-1503.3" font-family="Times,serif" font-size="14.00">id :integer</text>
<text text-anchor="start" x="5556.6" y="-1489.3" font-family="Times,serif" font-size="14.00">name :string</text>
<text text-anchor="start" x="5556.6" y="-1475.3" font-family="Times,serif" font-size="14.00">created_at :datetime</text>
<text text-anchor="start" x="5556.6" y="-1461.3" font-family="Times,serif" font-size="14.00">updated_at :datetime</text>
</g>
<!-- User&#45;&gt;Analytic -->
<g id="edge18" class="edge"><title>User&#45;&gt;Analytic</title>
<path fill="none" stroke="#27e864" d="M2857.74,-926.577C3151.46,-907.077 3933.69,-847.431 4009.11,-761 4013.2,-756.312 4011.71,-752.653 4009.11,-747 4003.97,-735.832 3994.72,-739.361 3988.11,-729 3946.81,-664.325 3927.86,-576.671 3919.44,-519.852"/>
<ellipse fill="none" stroke="#27e864" cx="2853.61" cy="-926.85" rx="4" ry="4"/>
<ellipse fill="#27e864" stroke="#27e864" cx="3918.83" cy="-515.659" rx="4.00001" ry="4.00001"/>
</g>
<!-- User&#45;&gt;Article -->
<g id="edge8" class="edge"><title>User&#45;&gt;Article</title>
<path fill="none" stroke="#f46256" d="M2857.8,-933.745C3158.64,-931.995 3981.11,-910.369 4166.11,-729 4217.62,-678.504 4234.51,-595.631 4239.67,-535.692"/>
<ellipse fill="none" stroke="#f46256" cx="2853.49" cy="-933.768" rx="4" ry="4"/>
<polygon fill="#f46256" stroke="#f46256" points="4239.68,-535.501 4244.94,-525.876 4240.07,-530.516 4240.45,-525.531 4240.45,-525.531 4240.45,-525.531 4240.07,-530.516 4235.96,-525.185 4239.68,-535.501 4239.68,-535.501"/>
</g>
<!-- User&#45;&gt;BackgroundInfo -->
<g id="edge9" class="edge"><title>User&#45;&gt;BackgroundInfo</title>
<path fill="none" stroke="#1e2782" d="M2857.72,-925.959C3152.51,-904.845 3940.32,-841.389 4024.11,-761 4088.8,-698.936 4090.87,-587.321 4085.01,-519.565"/>
<ellipse fill="none" stroke="#1e2782" cx="2853.56" cy="-926.256" rx="4" ry="4"/>
<ellipse fill="#1e2782" stroke="#1e2782" cx="4084.63" cy="-515.509" rx="4" ry="4"/>
</g>
<!-- User&#45;&gt;Domain -->
<g id="edge17" class="edge"><title>User&#45;&gt;Domain</title>
<path fill="none" stroke="#3838b2" d="M2636.46,-932.972C2187.75,-929.845 519.09,-908.324 340.109,-761 269.096,-702.547 256.849,-588.682 256.519,-519.724"/>
<ellipse fill="none" stroke="#3838b2" cx="2640.59" cy="-933" rx="4" ry="4"/>
<ellipse fill="#3838b2" stroke="#3838b2" cx="256.528" cy="-515.544" rx="4" ry="4"/>
</g>
<!-- User&#45;&gt;Experience -->
<g id="edge10" class="edge"><title>User&#45;&gt;Experience</title>
<path fill="none" stroke="#778bef" d="M2634.64,-932.666C2183.84,-928.161 524.767,-899.996 373.109,-729 333.665,-684.527 333.762,-238.559 373.109,-194 426.8,-133.196 967.43,-97.0538 1193.04,-84.5154"/>
<polygon fill="#778bef" stroke="#778bef" points="2634.74,-932.667 2644.69,-937.265 2639.74,-932.716 2644.74,-932.765 2644.74,-932.765 2644.74,-932.765 2639.74,-932.716 2644.78,-928.266 2634.74,-932.667 2634.74,-932.667"/>
<polygon fill="#778bef" stroke="#778bef" points="1193.23,-84.5049 1203.46,-88.4471 1198.22,-84.2294 1203.21,-83.954 1203.21,-83.954 1203.21,-83.954 1198.22,-84.2294 1202.96,-79.4608 1193.23,-84.5049 1193.23,-84.5049"/>
</g>
<!-- User&#45;&gt;HomepageInfo -->
<g id="edge11" class="edge"><title>User&#45;&gt;HomepageInfo</title>
<path fill="none" stroke="#a429d6" d="M2636.33,-927.469C2336.9,-910.365 1486.66,-856.503 785.109,-761 707.63,-750.453 673.55,-777.365 612.109,-729 557.715,-686.183 527.487,-613.169 511.122,-554.381"/>
<ellipse fill="none" stroke="#a429d6" cx="2640.61" cy="-927.712" rx="4" ry="4"/>
<ellipse fill="#a429d6" stroke="#a429d6" cx="510.047" cy="-550.413" rx="4.00001" ry="4.00001"/>
</g>
<!-- User&#45;&gt;PersonalInfo -->
<g id="edge12" class="edge"><title>User&#45;&gt;PersonalInfo</title>
<path fill="none" stroke="#b5034a" d="M2636.3,-930.947C2244.8,-920.948 942.497,-879.02 801.109,-761 791.89,-753.305 783.656,-744.679 776.305,-735.344"/>
<ellipse fill="none" stroke="#b5034a" cx="2640.54" cy="-931.054" rx="4" ry="4"/>
<ellipse fill="#b5034a" stroke="#b5034a" cx="773.762" cy="-731.966" rx="4.00002" ry="4.00002"/>
</g>
<!-- User&#45;&gt;Photo -->
<g id="edge19" class="edge"><title>User&#45;&gt;Photo</title>
<path fill="none" stroke="#0bb1ed" d="M2636.4,-931.601C2291.97,-924.416 1209.4,-892.193 324.109,-761 260.543,-751.58 231.246,-771.57 183.109,-729 129.741,-681.804 106.032,-602.681 95.5039,-542.879"/>
<ellipse fill="none" stroke="#0bb1ed" cx="2640.65" cy="-931.689" rx="4" ry="4"/>
<polygon fill="#0bb1ed" stroke="#0bb1ed" points="95.452,-542.568 98.2446,-531.963 94.629,-537.636 93.8059,-532.704 93.8059,-532.704 93.8059,-532.704 94.629,-537.636 89.3673,-533.445 95.452,-542.568 95.452,-542.568"/>
</g>
<!-- User&#45;&gt;PhotoLink -->
<g id="edge13" class="edge"><title>User&#45;&gt;PhotoLink</title>
<path fill="none" stroke="#f63938" d="M2636.49,-932.164C2243.44,-926.285 931.163,-896.574 807.109,-761 802.908,-756.41 804.65,-752.716 807.109,-747 811.705,-736.314 820.095,-738.957 826.109,-729 865.723,-663.416 885.084,-576.174 894.054,-519.677"/>
<ellipse fill="none" stroke="#f63938" cx="2640.75" cy="-932.227" rx="4" ry="4"/>
<ellipse fill="#f63938" stroke="#f63938" cx="894.693" cy="-515.524" rx="4.00001" ry="4.00001"/>
</g>
<!-- User&#45;&gt;Project -->
<g id="edge14" class="edge"><title>User&#45;&gt;Project</title>
<path fill="none" stroke="#473b2e" d="M2857.8,-934.38C3178.38,-934.637 4098.61,-918.501 4317.11,-729 4326.41,-720.929 4334.77,-711.866 4342.27,-702.083"/>
<ellipse fill="none" stroke="#473b2e" cx="2853.41" cy="-934.374" rx="4" ry="4"/>
<polygon fill="#473b2e" stroke="#473b2e" points="4342.49,-701.786 4352.01,-696.352 4345.43,-697.744 4348.38,-693.702 4348.38,-693.702 4348.38,-693.702 4345.43,-697.744 4344.74,-691.053 4342.49,-701.786 4342.49,-701.786"/>
</g>
<!-- User&#45;&gt;SocialLink -->
<g id="edge15" class="edge"><title>User&#45;&gt;SocialLink</title>
<path fill="none" stroke="#688668" d="M2636.55,-932.127C2244.51,-926.128 937.662,-896.07 814.109,-761 809.909,-756.409 809.958,-751.635 814.109,-747 838.422,-719.854 949.19,-752.422 977.109,-729 1025.61,-688.311 1044.88,-619.238 1052.14,-561.609"/>
<ellipse fill="none" stroke="#688668" cx="2640.79" cy="-932.191" rx="4" ry="4"/>
<ellipse fill="#688668" stroke="#688668" cx="1052.62" cy="-557.53" rx="4.00001" ry="4.00001"/>
</g>
<!-- WebsiteSetting -->
<g id="node37" class="node"><title>WebsiteSetting</title>
<path fill="none" stroke="black" d="M1154.81,-404.5C1154.81,-404.5 1265.4,-404.5 1265.4,-404.5 1271.4,-404.5 1277.4,-410.5 1277.4,-416.5 1277.4,-416.5 1277.4,-506.5 1277.4,-506.5 1277.4,-512.5 1271.4,-518.5 1265.4,-518.5 1265.4,-518.5 1154.81,-518.5 1154.81,-518.5 1148.81,-518.5 1142.81,-512.5 1142.81,-506.5 1142.81,-506.5 1142.81,-416.5 1142.81,-416.5 1142.81,-410.5 1148.81,-404.5 1154.81,-404.5"/>
<text text-anchor="middle" x="1210.11" y="-503.3" font-family="Times,serif" font-size="14.00">WebsiteSetting</text>
<polyline fill="none" stroke="black" points="1142.81,-496.5 1277.4,-496.5 "/>
<text text-anchor="start" x="1150.81" y="-481.3" font-family="Times,serif" font-size="14.00">id :integer</text>
<text text-anchor="start" x="1150.81" y="-467.3" font-family="Times,serif" font-size="14.00">domain_name :string</text>
<text text-anchor="start" x="1150.81" y="-453.3" font-family="Times,serif" font-size="14.00">color :integer</text>
<text text-anchor="start" x="1150.81" y="-439.3" font-family="Times,serif" font-size="14.00">created_at :datetime</text>
<text text-anchor="start" x="1150.81" y="-425.3" font-family="Times,serif" font-size="14.00">updated_at :datetime</text>
<text text-anchor="start" x="1150.81" y="-411.3" font-family="Times,serif" font-size="14.00">user_id :integer</text>
</g>
<!-- User&#45;&gt;WebsiteSetting -->
<g id="edge16" class="edge"><title>User&#45;&gt;WebsiteSetting</title>
<path fill="none" stroke="#aa116a" d="M2636.33,-932.08C2245.1,-925.932 945.06,-895.461 822.109,-761 775.076,-709.564 1079.71,-772.57 1134.11,-729 1194.13,-680.93 1208.83,-589.009 1211.4,-526.726"/>
<ellipse fill="none" stroke="#aa116a" cx="2640.56" cy="-932.145" rx="4" ry="4"/>
<ellipse fill="#aa116a" stroke="#aa116a" cx="1211.54" cy="-522.52" rx="4" ry="4"/>
</g>
<!-- ActsAsTaggableOn::Tagging -->
<g id="node39" class="node"><title>ActsAsTaggableOn::Tagging</title>
<ellipse fill="none" stroke="black" cx="1827.11" cy="-461.5" rx="113.006" ry="18"/>
<text text-anchor="middle" x="1827.11" y="-457.3" font-family="Times,serif" font-size="14.00">ActsAsTaggableOn::Tagging</text>
</g>
<!-- User&#45;&gt;ActsAsTaggableOn::Tagging -->
<g id="edge20" class="edge"><title>User&#45;&gt;ActsAsTaggableOn::Tagging</title>
<path fill="none" stroke="#c32a36" d="M2636.53,-927.978C2323.39,-911.217 1447.71,-856.171 1363.67,-761 1237.01,-617.569 1590.88,-516.102 1751.95,-478.54"/>
<ellipse fill="none" stroke="#c32a36" cx="2640.73" cy="-928.201" rx="4" ry="4"/>
<polygon fill="#c32a36" stroke="#c32a36" points="1752.06,-478.514 1762.82,-480.65 1756.93,-477.389 1761.8,-476.265 1761.8,-476.265 1761.8,-476.265 1756.93,-477.389 1760.79,-471.88 1752.06,-478.514 1752.06,-478.514"/>
<text text-anchor="middle" x="1386.83" y="-749.8" font-family="Times,serif" font-size="14.00">taggings</text>
</g>
<!-- User&#45;&gt;ActsAsTaggableOn::Tagging -->
<g id="edge22" class="edge"><title>User&#45;&gt;ActsAsTaggableOn::Tagging</title>
<path fill="none" stroke="#e48ad9" d="M2636.41,-927.185C2334.42,-908.838 1513.56,-851.055 1434.56,-761 1321.4,-631.991 1626.09,-522.01 1763.67,-480.348"/>
<ellipse fill="none" stroke="#e48ad9" cx="2640.76" cy="-927.449" rx="4" ry="4"/>
<polygon fill="#e48ad9" stroke="#e48ad9" points="1763.7,-480.339 1774.57,-481.777 1768.49,-478.903 1773.28,-477.467 1773.28,-477.467 1773.28,-477.467 1768.49,-478.903 1771.99,-473.156 1763.7,-480.339 1763.7,-480.339"/>
<text text-anchor="middle" x="1469.88" y="-749.8" font-family="Times,serif" font-size="14.00">tag_taggings</text>
</g>
<!-- User&#45;&gt;ActsAsTaggableOn::Tagging -->
<g id="edge24" class="edge"><title>User&#45;&gt;ActsAsTaggableOn::Tagging</title>
<path fill="none" stroke="#838a3d" d="M2636.29,-925.993C2349.66,-905.458 1601.1,-844.28 1528.78,-761 1432.25,-649.841 1671.05,-529.282 1778.24,-482.561"/>
<ellipse fill="none" stroke="#838a3d" cx="2640.64" cy="-926.304" rx="4" ry="4"/>
<polygon fill="#838a3d" stroke="#838a3d" points="1778.39,-482.496 1789.36,-482.667 1782.98,-480.516 1787.57,-478.535 1787.57,-478.535 1787.57,-478.535 1782.98,-480.516 1785.79,-474.403 1778.39,-482.496 1778.39,-482.496"/>
<text text-anchor="middle" x="1578.27" y="-749.8" font-family="Times,serif" font-size="14.00">industry_taggings</text>
</g>
<!-- User&#45;&gt;ActsAsTaggableOn::Tagging -->
<g id="edge26" class="edge"><title>User&#45;&gt;ActsAsTaggableOn::Tagging</title>
<path fill="none" stroke="#d51377" d="M2636.29,-933.405C2383.9,-930.591 1778.39,-908.292 1652.49,-761 1574.3,-669.527 1725.58,-538.316 1794.94,-485.66"/>
<ellipse fill="none" stroke="#d51377" cx="2640.38" cy="-933.448" rx="4" ry="4"/>
<polygon fill="#d51377" stroke="#d51377" points="1795.37,-485.342 1806.07,-482.945 1799.37,-482.343 1803.37,-479.345 1803.37,-479.345 1803.37,-479.345 1799.37,-482.343 1800.67,-475.744 1795.37,-485.342 1795.37,-485.342"/>
<text text-anchor="middle" x="1696.42" y="-749.8" font-family="Times,serif" font-size="14.00">career_taggings</text>
</g>
<!-- User&#45;&gt;ActsAsTaggableOn::Tagging -->
<g id="edge28" class="edge"><title>User&#45;&gt;ActsAsTaggableOn::Tagging</title>
<path fill="none" stroke="#dca76b" d="M2636.56,-931.207C2403.6,-923.797 1874.6,-892.537 1764.14,-761 1696.24,-680.152 1772.26,-544.228 1809.24,-488.016"/>
<ellipse fill="none" stroke="#dca76b" cx="2640.72" cy="-931.336" rx="4" ry="4"/>
<polygon fill="#dca76b" stroke="#dca76b" points="1809.25,-488.008 1818.55,-482.205 1812.03,-483.854 1814.81,-479.7 1814.81,-479.7 1814.81,-479.7 1812.03,-483.854 1811.07,-477.195 1809.25,-488.008 1809.25,-488.008"/>
<text text-anchor="middle" x="1816.6" y="-749.8" font-family="Times,serif" font-size="14.00">language_taggings</text>
</g>
<!-- User&#45;&gt;ActsAsTaggableOn::Tagging -->
<g id="edge30" class="edge"><title>User&#45;&gt;ActsAsTaggableOn::Tagging</title>
<path fill="none" stroke="#95cd97" d="M2636.29,-925.95C2429.44,-909.555 1996.07,-863.605 1891.94,-761 1816.9,-687.068 1819.28,-548.153 1824.11,-489.61"/>
<ellipse fill="none" stroke="#95cd97" cx="2640.47" cy="-926.278" rx="4" ry="4"/>
<polygon fill="#95cd97" stroke="#95cd97" points="1824.11,-489.606 1829.51,-480.058 1824.57,-484.627 1825.03,-479.648 1825.03,-479.648 1825.03,-479.648 1824.57,-484.627 1820.54,-479.237 1824.11,-489.606 1824.11,-489.606"/>
<text text-anchor="middle" x="1953.7" y="-749.8" font-family="Times,serif" font-size="14.00">wexperience_taggings</text>
</g>
<!-- User&#45;&gt;ActsAsTaggableOn::Tagging -->
<g id="edge32" class="edge"><title>User&#45;&gt;ActsAsTaggableOn::Tagging</title>
<path fill="none" stroke="#268b66" d="M2636.28,-929.957C2488.41,-920.312 2223.95,-885.423 2040.16,-761 1934.75,-689.637 1864.04,-547.673 1838.12,-488.913"/>
<ellipse fill="none" stroke="#268b66" cx="2640.54" cy="-930.226" rx="4" ry="4"/>
<polygon fill="#268b66" stroke="#268b66" points="1838.05,-488.755 1838.2,-477.79 1836.06,-484.167 1834.08,-479.58 1834.08,-479.58 1834.08,-479.58 1836.06,-484.167 1829.95,-481.37 1838.05,-488.755 1838.05,-488.755"/>
<text text-anchor="middle" x="2095.58" y="-749.8" font-family="Times,serif" font-size="14.00">undergrad_taggings</text>
</g>
<!-- User&#45;&gt;ActsAsTaggableOn::Tagging -->
<g id="edge34" class="edge"><title>User&#45;&gt;ActsAsTaggableOn::Tagging</title>
<path fill="none" stroke="#add9db" d="M2636.49,-914.424C2517.07,-890.663 2323.91,-842.872 2174.48,-761 2102.28,-721.439 1919.59,-550.56 1852.4,-486.699"/>
<ellipse fill="none" stroke="#add9db" cx="2640.67" cy="-915.25" rx="4.00001" ry="4.00001"/>
<polygon fill="#add9db" stroke="#add9db" points="1852.04,-486.354 1847.9,-476.199 1848.42,-482.906 1844.8,-479.458 1844.8,-479.458 1844.8,-479.458 1848.42,-482.906 1841.7,-482.717 1852.04,-486.354 1852.04,-486.354"/>
<text text-anchor="middle" x="2242.92" y="-749.8" font-family="Times,serif" font-size="14.00">uconcentration_taggings</text>
</g>
<!-- User&#45;&gt;ActsAsTaggableOn::Tagging -->
<g id="edge36" class="edge"><title>User&#45;&gt;ActsAsTaggableOn::Tagging</title>
<path fill="none" stroke="#fb5e74" d="M2637.16,-892.919C2552.86,-860.516 2434.46,-812.195 2334.8,-761 2324.26,-755.586 2322.26,-753.109 2312.11,-747 2146.2,-647.168 1946.22,-531.24 1864.57,-484.094"/>
<ellipse fill="none" stroke="#fb5e74" cx="2640.97" cy="-894.377" rx="4.00001" ry="4.00001"/>
<polygon fill="#fb5e74" stroke="#fb5e74" points="1864.33,-483.953 1857.92,-475.057 1860,-481.454 1855.67,-478.954 1855.67,-478.954 1855.67,-478.954 1860,-481.454 1853.42,-482.851 1864.33,-483.953 1864.33,-483.953"/>
<text text-anchor="middle" x="2377.26" y="-749.8" font-family="Times,serif" font-size="14.00">travel_taggings</text>
</g>
<!-- User&#45;&gt;ActsAsTaggableOn::Tagging -->
<g id="edge38" class="edge"><title>User&#45;&gt;ActsAsTaggableOn::Tagging</title>
<path fill="none" stroke="#08e5ed" d="M2637.6,-872.266C2579.78,-839.659 2507.78,-798.621 2444.01,-761 2433.74,-754.938 2431.59,-752.695 2421.11,-747 2221.58,-638.598 1974.15,-527.172 1873.22,-482.649"/>
<ellipse fill="none" stroke="#08e5ed" cx="2641.1" cy="-874.236" rx="4.00002" ry="4.00002"/>
<polygon fill="#08e5ed" stroke="#08e5ed" points="1873.07,-482.582 1865.73,-474.433 1868.49,-480.567 1863.92,-478.552 1863.92,-478.552 1863.92,-478.552 1868.49,-480.567 1862.1,-482.67 1873.07,-482.582 1873.07,-482.582"/>
<text text-anchor="middle" x="2483.16" y="-749.8" font-family="Times,serif" font-size="14.00">state_taggings</text>
</g>
<!-- User&#45;&gt;ActsAsTaggableOn::Tagging -->
<g id="edge40" class="edge"><title>User&#45;&gt;ActsAsTaggableOn::Tagging</title>
<path fill="none" stroke="#2690e0" d="M2638.27,-831.005C2603.48,-801.476 2563.69,-770.836 2524.11,-747 2305.26,-615.217 2014.29,-518.822 1888.9,-480.598"/>
<ellipse fill="none" stroke="#2690e0" cx="2641.67" cy="-833.905" rx="4.00002" ry="4.00002"/>
<polygon fill="#2690e0" stroke="#2690e0" points="1888.65,-480.523 1880.39,-473.315 1883.87,-479.072 1879.08,-477.621 1879.08,-477.621 1879.08,-477.621 1883.87,-479.072 1877.78,-481.928 1888.65,-480.523 1888.65,-480.523"/>
<text text-anchor="middle" x="2582.39" y="-749.8" font-family="Times,serif" font-size="14.00">skill_taggings</text>
</g>
<!-- User&#45;&gt;ActsAsTaggableOn::Tagging -->
<g id="edge42" class="edge"><title>User&#45;&gt;ActsAsTaggableOn::Tagging</title>
<path fill="none" stroke="#484673" d="M2654.14,-773.22C2645.37,-763.699 2636.02,-754.827 2626.11,-747 2408.48,-575.053 2078.54,-502.114 1919.38,-475.576"/>
<ellipse fill="none" stroke="#484673" cx="2656.86" cy="-776.251" rx="4.00002" ry="4.00002"/>
<polygon fill="#484673" stroke="#484673" points="1919.02,-475.516 1909.88,-469.454 1914.08,-474.705 1909.15,-473.894 1909.15,-473.894 1909.15,-473.894 1914.08,-474.705 1908.42,-478.335 1919.02,-475.516 1919.02,-475.516"/>
<text text-anchor="middle" x="2677.21" y="-749.8" font-family="Times,serif" font-size="14.00">size_taggings</text>
</g>
<!-- User&#45;&gt;ActsAsTaggableOn::Tagging -->
<g id="edge44" class="edge"><title>User&#45;&gt;ActsAsTaggableOn::Tagging</title>
<path fill="none" stroke="#095c78" d="M2735.1,-771.635C2730.77,-762.807 2725.49,-754.497 2719.11,-747 2524.21,-518.19 2145.49,-471.491 1950.18,-463.199"/>
<ellipse fill="none" stroke="#095c78" cx="2736.86" cy="-775.524" rx="4.00002" ry="4.00002"/>
<polygon fill="#095c78" stroke="#095c78" points="1950.15,-463.198 1940.34,-458.304 1945.15,-462.999 1940.16,-462.8 1940.16,-462.8 1940.16,-462.8 1945.15,-462.999 1939.98,-467.297 1950.15,-463.198 1950.15,-463.198"/>
<text text-anchor="middle" x="2763.66" y="-749.8" font-family="Times,serif" font-size="14.00">sex_taggings</text>
</g>
<!-- User&#45;&gt;ActsAsTaggableOn::Tagging -->
<g id="edge46" class="edge"><title>User&#45;&gt;ActsAsTaggableOn::Tagging</title>
<path fill="none" stroke="#9a84b8" d="M2815.74,-771.199C2813.55,-762.706 2809.79,-754.568 2804.11,-747 2696.23,-603.221 2142.51,-508.254 1919.92,-475.348"/>
<ellipse fill="none" stroke="#9a84b8" cx="2816.53" cy="-775.171" rx="4.00001" ry="4.00001"/>
<polygon fill="#9a84b8" stroke="#9a84b8" points="1919.79,-475.329 1910.55,-469.423 1914.84,-474.602 1909.9,-473.875 1909.9,-473.875 1909.9,-473.875 1914.84,-474.602 1909.24,-478.327 1919.79,-475.329 1919.79,-475.329"/>
<text text-anchor="middle" x="2856.21" y="-749.8" font-family="Times,serif" font-size="14.00">region_taggings</text>
</g>
<!-- User&#45;&gt;ActsAsTaggableOn::Tagging -->
<g id="edge48" class="edge"><title>User&#45;&gt;ActsAsTaggableOn::Tagging</title>
<path fill="none" stroke="#a3aa13" d="M2636.37,-932.045C2246.04,-925.784 951.076,-894.992 828.591,-761 824.393,-756.407 824.279,-751.485 828.591,-747 846.221,-728.663 1261.45,-735.257 1286.11,-729 1492.96,-676.509 1713.37,-538.666 1794.63,-484.658"/>
<ellipse fill="none" stroke="#a3aa13" cx="2640.58" cy="-932.111" rx="4" ry="4"/>
<polygon fill="#a3aa13" stroke="#a3aa13" points="1794.63,-484.653 1805.45,-482.837 1798.79,-481.874 1802.95,-479.096 1802.95,-479.096 1802.95,-479.096 1798.79,-481.874 1800.45,-475.355 1794.63,-484.653 1794.63,-484.653"/>
<text text-anchor="middle" x="899.868" y="-749.8" font-family="Times,serif" font-size="14.00">mconcentration_taggings</text>
</g>
<!-- User&#45;&gt;ActsAsTaggableOn::Tagging -->
<g id="edge50" class="edge"><title>User&#45;&gt;ActsAsTaggableOn::Tagging</title>
<path fill="none" stroke="#be8941" d="M2636.55,-931.055C2268.88,-921.795 1104.16,-882.984 993.584,-761 949.666,-712.549 1222.91,-745.785 1286.11,-729 1491.88,-674.353 1712.09,-538.38 1793.97,-484.753"/>
<ellipse fill="none" stroke="#be8941" cx="2640.56" cy="-931.155" rx="4" ry="4"/>
<polygon fill="#be8941" stroke="#be8941" points="1794.01,-484.726 1804.84,-482.985 1798.19,-481.976 1802.37,-479.227 1802.37,-479.227 1802.37,-479.227 1798.19,-481.976 1799.89,-475.468 1794.01,-484.726 1794.01,-484.726"/>
<text text-anchor="middle" x="1057.87" y="-749.8" font-family="Times,serif" font-size="14.00">demographic_taggings</text>
</g>
<!-- User&#45;&gt;ActsAsTaggableOn::Tagging -->
<g id="edge52" class="edge"><title>User&#45;&gt;ActsAsTaggableOn::Tagging</title>
<path fill="none" stroke="#83e186" d="M2636.6,-929.976C2290.37,-917.811 1243.68,-872.068 1143.92,-761 1139.76,-756.371 1139.81,-751.668 1143.92,-747 1164.98,-723.107 1255.61,-738.163 1286.11,-729 1489.28,-667.968 1709.74,-536.603 1792.85,-484.47"/>
<ellipse fill="none" stroke="#83e186" cx="2640.65" cy="-930.118" rx="4" ry="4"/>
<polygon fill="#83e186" stroke="#83e186" points="1792.92,-484.426 1803.78,-482.902 1797.15,-481.76 1801.38,-479.094 1801.38,-479.094 1801.38,-479.094 1797.15,-481.76 1798.98,-475.287 1792.92,-484.426 1792.92,-484.426"/>
<text text-anchor="middle" x="1192.7" y="-749.8" font-family="Times,serif" font-size="14.00">balance_taggings</text>
</g>
<!-- User&#45;&gt;ActsAsTaggableOn::Tagging -->
<g id="edge54" class="edge"><title>User&#45;&gt;ActsAsTaggableOn::Tagging</title>
<path fill="none" stroke="#ce63ac" d="M2636.52,-928.871C2309.4,-914.054 1363.61,-862.705 1273.12,-761 1234.69,-717.816 1638.42,-542.024 1779.5,-482.395"/>
<ellipse fill="none" stroke="#ce63ac" cx="2640.61" cy="-929.055" rx="4" ry="4"/>
<polygon fill="#ce63ac" stroke="#ce63ac" points="1779.59,-482.358 1790.55,-482.618 1784.2,-480.415 1788.8,-478.471 1788.8,-478.471 1788.8,-478.471 1784.2,-480.415 1787.05,-474.325 1779.59,-482.358 1779.59,-482.358"/>
<text text-anchor="middle" x="1311.61" y="-749.8" font-family="Times,serif" font-size="14.00">visa_taggings</text>
</g>
<!-- ActsAsTaggableOn::Tag -->
<g id="node40" class="node"><title>ActsAsTaggableOn::Tag</title>
<ellipse fill="none" stroke="black" cx="3534.11" cy="-461.5" rx="97.0617" ry="18"/>
<text text-anchor="middle" x="3534.11" y="-457.3" font-family="Times,serif" font-size="14.00">ActsAsTaggableOn::Tag</text>
</g>
<!-- User&#45;&gt;ActsAsTaggableOn::Tag -->
<g id="edge21" class="edge"><title>User&#45;&gt;ActsAsTaggableOn::Tag</title>
<path fill="none" stroke="#1b2899" d="M2859.52,-892.718C2940.53,-861.368 3051.13,-814.462 3142.11,-761 3218.6,-716.05 3428.52,-547.948 3505.4,-485.793"/>
<polygon fill="#1b2899" stroke="#1b2899" points="2859.13,-892.87 2848.18,-892.264 2854.46,-894.667 2849.79,-896.463 2849.79,-896.463 2849.79,-896.463 2854.46,-894.667 2851.41,-900.663 2859.13,-892.87 2859.13,-892.87"/>
<polygon fill="#1b2899" stroke="#1b2899" points="3505.49,-485.722 3516.1,-482.93 3509.38,-482.577 3513.27,-479.432 3513.27,-479.432 3513.27,-479.432 3509.38,-482.577 3510.44,-475.934 3505.49,-485.722 3505.49,-485.722"/>
<text text-anchor="middle" x="3188.32" y="-749.8" font-family="Times,serif" font-size="14.00">base_tags</text>
</g>
<!-- User&#45;&gt;ActsAsTaggableOn::Tag -->
<g id="edge23" class="edge"><title>User&#45;&gt;ActsAsTaggableOn::Tag</title>
<path fill="none" stroke="#a7d6cb" d="M2859.44,-906.406C2958.9,-879.261 3105.51,-831.346 3219.11,-761 3347.36,-681.581 3467.68,-543.798 3514.03,-487.526"/>
<polygon fill="#a7d6cb" stroke="#a7d6cb" points="2859.32,-906.44 2848.49,-904.705 2854.49,-907.744 2849.66,-909.049 2849.66,-909.049 2849.66,-909.049 2854.49,-907.744 2850.84,-913.393 2859.32,-906.44 2859.32,-906.44"/>
<polygon fill="#a7d6cb" stroke="#a7d6cb" points="3514.24,-487.265 3524.06,-482.372 3517.41,-483.395 3520.57,-479.524 3520.57,-479.524 3520.57,-479.524 3517.41,-483.395 3517.09,-476.675 3514.24,-487.265 3514.24,-487.265"/>
<text text-anchor="middle" x="3249.38" y="-749.8" font-family="Times,serif" font-size="14.00">tags</text>
</g>
<!-- User&#45;&gt;ActsAsTaggableOn::Tag -->
<g id="edge25" class="edge"><title>User&#45;&gt;ActsAsTaggableOn::Tag</title>
<path fill="none" stroke="#132908" d="M2859.39,-913.544C2969.56,-890.119 3138.94,-843.555 3265.11,-761 3382.03,-684.5 3480.65,-544.992 3518.04,-487.891"/>
<polygon fill="#132908" stroke="#132908" points="2859.36,-913.549 2848.65,-911.198 2854.47,-914.575 2849.58,-915.602 2849.58,-915.602 2849.58,-915.602 2854.47,-914.575 2850.5,-920.006 2859.36,-913.549 2859.36,-913.549"/>
<polygon fill="#132908" stroke="#132908" points="3518.07,-487.847 3527.29,-481.905 3520.79,-483.652 3523.51,-479.457 3523.51,-479.457 3523.51,-479.457 3520.79,-483.652 3519.74,-477.009 3518.07,-487.847 3518.07,-487.847"/>
<text text-anchor="middle" x="3305.05" y="-749.8" font-family="Times,serif" font-size="14.00">industry</text>
</g>
<!-- User&#45;&gt;ActsAsTaggableOn::Tag -->
<g id="edge27" class="edge"><title>User&#45;&gt;ActsAsTaggableOn::Tag</title>
<path fill="none" stroke="#ee23e8" d="M2859.46,-923.141C2985.16,-906.72 3189.8,-865.047 3332.11,-761 3432.86,-687.337 3499.24,-547.253 3523.65,-488.969"/>
<polygon fill="#ee23e8" stroke="#ee23e8" points="2859.34,-923.156 2848.85,-919.957 2854.38,-923.788 2849.42,-924.421 2849.42,-924.421 2849.42,-924.421 2854.38,-923.788 2849.99,-928.885 2859.34,-923.156 2859.34,-923.156"/>
<polygon fill="#ee23e8" stroke="#ee23e8" points="3523.65,-488.952 3531.62,-481.417 3525.56,-484.328 3527.46,-479.704 3527.46,-479.704 3527.46,-479.704 3525.56,-484.328 3523.3,-477.992 3523.65,-488.952 3523.65,-488.952"/>
<text text-anchor="middle" x="3364.2" y="-749.8" font-family="Times,serif" font-size="14.00">career</text>
</g>
<!-- User&#45;&gt;ActsAsTaggableOn::Tag -->
<g id="edge29" class="edge"><title>User&#45;&gt;ActsAsTaggableOn::Tag</title>
<path fill="none" stroke="#cba9b2" d="M2859.79,-930.278C2998.03,-920.733 3232.76,-885.7 3385.11,-761 3474.14,-688.126 3514.71,-548.627 3528.43,-489.769"/>
<polygon fill="#cba9b2" stroke="#cba9b2" points="2859.57,-930.292 2849.3,-926.457 2854.58,-930.62 2849.59,-930.947 2849.59,-930.947 2849.59,-930.947 2854.58,-930.62 2849.89,-935.438 2859.57,-930.292 2859.57,-930.292"/>
<polygon fill="#cba9b2" stroke="#cba9b2" points="3528.49,-489.508 3535.07,-480.74 3529.58,-484.63 3530.68,-479.752 3530.68,-479.752 3530.68,-479.752 3529.58,-484.63 3526.29,-478.764 3528.49,-489.508 3528.49,-489.508"/>
<text text-anchor="middle" x="3423.37" y="-749.8" font-family="Times,serif" font-size="14.00">language</text>
</g>
<!-- User&#45;&gt;ActsAsTaggableOn::Tag -->
<g id="edge31" class="edge"><title>User&#45;&gt;ActsAsTaggableOn::Tag</title>
<path fill="none" stroke="#9d0c5a" d="M2859.82,-919.961C3037.06,-896.44 3369.42,-842.598 3453.11,-761 3529.32,-686.695 3536.07,-548.491 3535.24,-489.895"/>
<polygon fill="#9d0c5a" stroke="#9d0c5a" points="2859.59,-919.992 2849.09,-916.835 2854.63,-920.644 2849.67,-921.297 2849.67,-921.297 2849.67,-921.297 2854.63,-920.644 2850.26,-925.758 2859.59,-919.992 2859.59,-919.992"/>
<polygon fill="#9d0c5a" stroke="#9d0c5a" points="3535.23,-489.593 3539.5,-479.491 3535.12,-484.594 3535,-479.596 3535,-479.596 3535,-479.596 3535.12,-484.594 3530.5,-479.7 3535.23,-489.593 3535.23,-489.593"/>
<text text-anchor="middle" x="3499.47" y="-749.8" font-family="Times,serif" font-size="14.00">wexperience</text>
</g>
<!-- User&#45;&gt;ActsAsTaggableOn::Tag -->
<g id="edge33" class="edge"><title>User&#45;&gt;ActsAsTaggableOn::Tag</title>
<path fill="none" stroke="#2a50a9" d="M2859.8,-925.885C3057.77,-909.905 3455.04,-865.346 3539.11,-761 3603.53,-681.042 3565.25,-546.08 3544.64,-489.126"/>
<polygon fill="#2a50a9" stroke="#2a50a9" points="2859.62,-925.899 2849.3,-922.207 2854.64,-926.296 2849.65,-926.693 2849.65,-926.693 2849.65,-926.693 2854.64,-926.296 2850.01,-931.178 2859.62,-925.899 2859.62,-925.899"/>
<polygon fill="#2a50a9" stroke="#2a50a9" points="3544.64,-489.112 3545.37,-478.17 3542.89,-484.426 3541.15,-479.74 3541.15,-479.74 3541.15,-479.74 3542.89,-484.426 3536.93,-481.31 3544.64,-489.112 3544.64,-489.112"/>
<text text-anchor="middle" x="3576.36" y="-749.8" font-family="Times,serif" font-size="14.00">undergrad</text>
</g>
<!-- User&#45;&gt;ActsAsTaggableOn::Tag -->
<g id="edge35" class="edge"><title>User&#45;&gt;ActsAsTaggableOn::Tag</title>
<path fill="none" stroke="#367ada" d="M2859.97,-928.062C3071.68,-915.244 3515.58,-875.099 3609.11,-761 3676.63,-678.626 3593.53,-543.552 3553.43,-487.792"/>
<polygon fill="#367ada" stroke="#367ada" points="2859.74,-928.076 2849.49,-924.178 2854.74,-928.373 2849.75,-928.67 2849.75,-928.67 2849.75,-928.67 2854.74,-928.373 2850.02,-933.162 2859.74,-928.076 2859.74,-928.076"/>
<polygon fill="#367ada" stroke="#367ada" points="3553.3,-487.614 3551.03,-476.886 3550.35,-483.579 3547.39,-479.544 3547.39,-479.544 3547.39,-479.544 3550.35,-483.579 3543.76,-482.202 3553.3,-487.614 3553.3,-487.614"/>
<text text-anchor="middle" x="3659.7" y="-749.8" font-family="Times,serif" font-size="14.00">uconcentration</text>
</g>
<!-- User&#45;&gt;ActsAsTaggableOn::Tag -->
<g id="edge37" class="edge"><title>User&#45;&gt;ActsAsTaggableOn::Tag</title>
<path fill="none" stroke="#05211c" d="M2859.48,-930.579C3088.86,-921.999 3598.37,-888.674 3705.11,-761 3781.89,-669.163 3633.63,-538.158 3565.64,-485.609"/>
<polygon fill="#05211c" stroke="#05211c" points="2859.43,-930.581 2849.27,-926.449 2854.44,-930.763 2849.44,-930.946 2849.44,-930.946 2849.44,-930.946 2854.44,-930.763 2849.6,-935.443 2859.43,-930.581 2859.43,-930.581"/>
<polygon fill="#05211c" stroke="#05211c" points="3565.33,-485.373 3560.11,-475.729 3561.35,-482.339 3557.38,-479.306 3557.38,-479.306 3557.38,-479.306 3561.35,-482.339 3554.65,-482.883 3565.33,-485.373 3565.33,-485.373"/>
<text text-anchor="middle" x="3726.04" y="-749.8" font-family="Times,serif" font-size="14.00">travel</text>
</g>
<!-- User&#45;&gt;ActsAsTaggableOn::Tag -->
<g id="edge39" class="edge"><title>User&#45;&gt;ActsAsTaggableOn::Tag</title>
<path fill="none" stroke="#c51835" d="M2859.43,-931.501C3096.14,-924.668 3633.71,-894.466 3746.11,-761 3828.41,-663.273 3650.77,-534.988 3570.65,-484.379"/>
<polygon fill="#c51835" stroke="#c51835" points="2859.42,-931.502 2849.3,-927.283 2854.42,-931.642 2849.42,-931.782 2849.42,-931.782 2849.42,-931.782 2854.42,-931.642 2849.55,-936.28 2859.42,-931.502 2859.42,-931.502"/>
<polygon fill="#c51835" stroke="#c51835" points="3570.33,-484.176 3564.23,-475.063 3566.09,-481.528 3561.84,-478.88 3561.84,-478.88 3561.84,-478.88 3566.09,-481.528 3559.46,-482.697 3570.33,-484.176 3570.33,-484.176"/>
<text text-anchor="middle" x="3763.94" y="-749.8" font-family="Times,serif" font-size="14.00">state</text>
</g>
<!-- User&#45;&gt;ActsAsTaggableOn::Tag -->
<g id="edge41" class="edge"><title>User&#45;&gt;ActsAsTaggableOn::Tag</title>
<path fill="none" stroke="#178734" d="M2859.7,-932.225C3102.7,-926.842 3663.92,-899.363 3781.11,-761 3868.64,-657.66 3665.71,-532.236 3575.06,-483.383"/>
<polygon fill="#178734" stroke="#178734" points="2859.42,-932.231 2849.33,-927.945 2854.42,-932.338 2849.42,-932.444 2849.42,-932.444 2849.42,-932.444 2854.42,-932.338 2849.52,-936.943 2859.42,-932.231 2859.42,-932.231"/>
<polygon fill="#178734" stroke="#178734" points="3574.96,-483.329 3568.25,-474.654 3570.54,-480.977 3566.13,-478.625 3566.13,-478.625 3566.13,-478.625 3570.54,-480.977 3564.02,-482.596 3574.96,-483.329 3574.96,-483.329"/>
<text text-anchor="middle" x="3799.17" y="-749.8" font-family="Times,serif" font-size="14.00">skill</text>
</g>
<!-- User&#45;&gt;ActsAsTaggableOn::Tag -->
<g id="edge43" class="edge"><title>User&#45;&gt;ActsAsTaggableOn::Tag</title>
<path fill="none" stroke="#10f366" d="M2859.75,-932.891C3108.67,-928.906 3693.21,-904.166 3815.11,-761 3908.06,-651.827 3680.69,-529.622 3579.59,-482.507"/>
<polygon fill="#10f366" stroke="#10f366" points="2859.59,-932.893 2849.52,-928.545 2854.59,-932.969 2849.59,-933.045 2849.59,-933.045 2849.59,-933.045 2854.59,-932.969 2849.66,-937.544 2859.59,-932.893 2859.59,-932.893"/>
<polygon fill="#10f366" stroke="#10f366" points="3579.59,-482.504 3572.39,-474.23 3575.05,-480.41 3570.51,-478.316 3570.51,-478.316 3570.51,-478.316 3575.05,-480.41 3568.62,-482.403 3579.59,-482.504 3579.59,-482.504"/>
<text text-anchor="middle" x="3831.99" y="-749.8" font-family="Times,serif" font-size="14.00">size</text>
</g>
<!-- User&#45;&gt;ActsAsTaggableOn::Tag -->
<g id="edge45" class="edge"><title>User&#45;&gt;ActsAsTaggableOn::Tag</title>
<path fill="none" stroke="#c7302c" d="M2859.79,-933.481C3114.2,-930.795 3720.77,-908.694 3847.11,-761 3872.68,-731.106 3646.66,-550.142 3563.81,-485.46"/>
<polygon fill="#c7302c" stroke="#c7302c" points="2859.42,-933.484 2849.38,-929.082 2854.42,-933.533 2849.42,-933.582 2849.42,-933.582 2849.42,-933.582 2854.42,-933.533 2849.46,-938.081 2859.42,-933.484 2859.42,-933.484"/>
<polygon fill="#c7302c" stroke="#c7302c" points="3563.68,-485.363 3558.56,-475.668 3559.74,-482.291 3555.79,-479.218 3555.79,-479.218 3555.79,-479.218 3559.74,-482.291 3553.03,-482.769 3563.68,-485.363 3563.68,-485.363"/>
<text text-anchor="middle" x="3857.44" y="-749.8" font-family="Times,serif" font-size="14.00">sex</text>
</g>
<!-- User&#45;&gt;ActsAsTaggableOn::Tag -->
<g id="edge47" class="edge"><title>User&#45;&gt;ActsAsTaggableOn::Tag</title>
<path fill="none" stroke="#077dfb" d="M2859.94,-933.902C3118.47,-932.173 3741.45,-912.073 3871.11,-761 3891.99,-736.672 3843.65,-733.516 3837.11,-729 3724.1,-650.994 3606.51,-536.204 3557.61,-486.691"/>
<polygon fill="#077dfb" stroke="#077dfb" points="2859.77,-933.903 2849.75,-929.461 2854.77,-933.932 2849.77,-933.961 2849.77,-933.961 2849.77,-933.961 2854.77,-933.932 2849.8,-938.461 2859.77,-933.903 2859.77,-933.903"/>
<polygon fill="#077dfb" stroke="#077dfb" points="3557.37,-486.451 3553.57,-476.166 3553.87,-482.886 3550.36,-479.321 3550.36,-479.321 3550.36,-479.321 3553.87,-482.886 3547.15,-482.476 3557.37,-486.451 3557.37,-486.451"/>
<text text-anchor="middle" x="3893.99" y="-749.8" font-family="Times,serif" font-size="14.00">region</text>
</g>
<!-- User&#45;&gt;ActsAsTaggableOn::Tag -->
<g id="edge49" class="edge"><title>User&#45;&gt;ActsAsTaggableOn::Tag</title>
<path fill="none" stroke="#2e60d9" d="M2859.76,-925.155C3139.34,-903.306 3847.42,-840.573 3916.11,-761 3920.17,-756.29 3919.99,-751.864 3916.11,-747 3893.65,-718.85 3869.17,-745.396 3837.11,-729 3713.37,-665.721 3599.45,-540.473 3554.44,-487.303"/>
<polygon fill="#2e60d9" stroke="#2e60d9" points="2859.57,-925.17 2849.25,-921.459 2854.58,-925.558 2849.6,-925.946 2849.6,-925.946 2849.6,-925.946 2854.58,-925.558 2849.95,-930.432 2859.57,-925.17 2859.57,-925.17"/>
<polygon fill="#2e60d9" stroke="#2e60d9" points="3554.24,-487.07 3551.26,-476.517 3551.03,-483.24 3547.82,-479.409 3547.82,-479.409 3547.82,-479.409 3551.03,-483.24 3544.37,-482.301 3554.24,-487.07 3554.24,-487.07"/>
<text text-anchor="middle" x="3961.65" y="-749.8" font-family="Times,serif" font-size="14.00">mconcentration</text>
</g>
<!-- User&#45;&gt;ActsAsTaggableOn::Tag -->
<g id="edge51" class="edge"><title>User&#45;&gt;ActsAsTaggableOn::Tag</title>
<path fill="none" stroke="#a5c896" d="M2857.4,-825.583C2888.29,-798.183 2922.81,-770.016 2957.03,-747 3139.06,-624.533 3381.47,-522.516 3484.46,-481.66"/>
<polygon fill="#a5c896" stroke="#a5c896" points="2857.09,-825.866 2846.63,-829.174 2853.36,-829.197 2849.63,-832.529 2849.63,-832.529 2849.63,-832.529 2853.36,-829.197 2852.63,-835.885 2857.09,-825.866 2857.09,-825.866"/>
<polygon fill="#a5c896" stroke="#a5c896" points="3484.68,-481.572 3495.63,-482.084 3489.33,-479.735 3493.98,-477.898 3493.98,-477.898 3493.98,-477.898 3489.33,-479.735 3492.33,-473.713 3484.68,-481.572 3484.68,-481.572"/>
<text text-anchor="middle" x="2992.65" y="-749.8" font-family="Times,serif" font-size="14.00">demographic</text>
</g>
<!-- User&#45;&gt;ActsAsTaggableOn::Tag -->
<g id="edge53" class="edge"><title>User&#45;&gt;ActsAsTaggableOn::Tag</title>
<path fill="none" stroke="#3bda49" d="M2858.51,-865.195C2916.51,-829.755 2988.64,-785.859 3053.36,-747 3218.49,-647.864 3416.74,-531.325 3497.34,-484.045"/>
<polygon fill="#3bda49" stroke="#3bda49" points="2858.23,-865.368 2847.35,-866.744 2853.96,-867.976 2849.7,-870.584 2849.7,-870.584 2849.7,-870.584 2853.96,-867.976 2852.04,-874.423 2858.23,-865.368 2858.23,-865.368"/>
<polygon fill="#3bda49" stroke="#3bda49" points="3497.5,-483.951 3508.4,-482.774 3501.81,-481.422 3506.13,-478.893 3506.13,-478.893 3506.13,-478.893 3501.81,-481.422 3503.85,-475.011 3497.5,-483.951 3497.5,-483.951"/>
<text text-anchor="middle" x="3074.48" y="-749.8" font-family="Times,serif" font-size="14.00">balance</text>
</g>
<!-- User&#45;&gt;ActsAsTaggableOn::Tag -->
<g id="edge55" class="edge"><title>User&#45;&gt;ActsAsTaggableOn::Tag</title>
<path fill="none" stroke="#328c85" d="M2858.75,-884.059C2928.51,-851.778 3019.34,-807.174 3096.11,-761 3105.24,-755.511 3106.83,-753.105 3115.56,-747 3257.78,-647.5 3429.75,-532.147 3500.86,-484.659"/>
<polygon fill="#328c85" stroke="#328c85" points="2858.57,-884.143 2847.6,-884.245 2854.03,-886.237 2849.49,-888.331 2849.49,-888.331 2849.49,-888.331 2854.03,-886.237 2851.37,-892.418 2858.57,-884.143 2858.57,-884.143"/>
<polygon fill="#328c85" stroke="#328c85" points="3501.1,-484.497 3511.92,-482.688 3505.26,-481.721 3509.42,-478.945 3509.42,-478.945 3509.42,-478.945 3505.26,-481.721 3506.92,-475.202 3501.1,-484.497 3501.1,-484.497"/>
<text text-anchor="middle" x="3126.38" y="-749.8" font-family="Times,serif" font-size="14.00">visa</text>
</g>
<!-- Visa -->
<g id="node36" class="node"><title>Visa</title>
<path fill="none" stroke="black" d="M5711.6,-1454.5C5711.6,-1454.5 5820.61,-1454.5 5820.61,-1454.5 5826.61,-1454.5 5832.61,-1460.5 5832.61,-1466.5 5832.61,-1466.5 5832.61,-1528.5 5832.61,-1528.5 5832.61,-1534.5 5826.61,-1540.5 5820.61,-1540.5 5820.61,-1540.5 5711.6,-1540.5 5711.6,-1540.5 5705.6,-1540.5 5699.6,-1534.5 5699.6,-1528.5 5699.6,-1528.5 5699.6,-1466.5 5699.6,-1466.5 5699.6,-1460.5 5705.6,-1454.5 5711.6,-1454.5"/>
<text text-anchor="middle" x="5766.11" y="-1525.3" font-family="Times,serif" font-size="14.00">Visa</text>
<polyline fill="none" stroke="black" points="5699.6,-1518.5 5832.61,-1518.5 "/>
<text text-anchor="start" x="5707.6" y="-1503.3" font-family="Times,serif" font-size="14.00">id :integer</text>
<text text-anchor="start" x="5707.6" y="-1489.3" font-family="Times,serif" font-size="14.00">name :string</text>
<text text-anchor="start" x="5707.6" y="-1475.3" font-family="Times,serif" font-size="14.00">created_at :datetime</text>
<text text-anchor="start" x="5707.6" y="-1461.3" font-family="Times,serif" font-size="14.00">updated_at :datetime</text>
</g>
<!-- Wexperience -->
<g id="node38" class="node"><title>Wexperience</title>
<path fill="none" stroke="black" d="M5862.6,-1454.5C5862.6,-1454.5 5971.61,-1454.5 5971.61,-1454.5 5977.61,-1454.5 5983.61,-1460.5 5983.61,-1466.5 5983.61,-1466.5 5983.61,-1528.5 5983.61,-1528.5 5983.61,-1534.5 5977.61,-1540.5 5971.61,-1540.5 5971.61,-1540.5 5862.6,-1540.5 5862.6,-1540.5 5856.6,-1540.5 5850.6,-1534.5 5850.6,-1528.5 5850.6,-1528.5 5850.6,-1466.5 5850.6,-1466.5 5850.6,-1460.5 5856.6,-1454.5 5862.6,-1454.5"/>
<text text-anchor="middle" x="5917.11" y="-1525.3" font-family="Times,serif" font-size="14.00">Wexperience</text>
<polyline fill="none" stroke="black" points="5850.6,-1518.5 5983.61,-1518.5 "/>
<text text-anchor="start" x="5858.6" y="-1503.3" font-family="Times,serif" font-size="14.00">id :integer</text>
<text text-anchor="start" x="5858.6" y="-1489.3" font-family="Times,serif" font-size="14.00">name :string</text>
<text text-anchor="start" x="5858.6" y="-1475.3" font-family="Times,serif" font-size="14.00">created_at :datetime</text>
<text text-anchor="start" x="5858.6" y="-1461.3" font-family="Times,serif" font-size="14.00">updated_at :datetime</text>
</g>
</g>
</svg>
