<?xml version="1.0" encoding="UTF-8" standalone="no"?>
<!DOCTYPE svg PUBLIC "-//W3C//DTD SVG 1.1//EN"
 "http://www.w3.org/Graphics/SVG/1.1/DTD/svg11.dtd">
<!-- Generated by graphviz version 2.38.0 (20140413.2041)
 -->
<!-- Title: models_diagram Pages: 1 -->
<svg width="1085pt" height="297pt"
 viewBox="0.00 0.00 1085.33 297.00" xmlns="http://www.w3.org/2000/svg" xmlns:xlink="http://www.w3.org/1999/xlink">
<g id="graph0" class="graph" transform="scale(1 1) rotate(0) translate(4 293)">
<title>models_diagram</title>
<polygon fill="none" stroke="none" points="-4,4 -4,-293 1081.33,-293 1081.33,4 -4,4"/>
<!-- _diagram_info -->
<g id="node1" class="node"><title>_diagram_info</title>
<text text-anchor="start" x="525.377" y="-274.6" font-family="Times,serif" font-size="13.00">Models diagram</text>
<text text-anchor="start" x="525.377" y="-261.6" font-family="Times,serif" font-size="13.00">Date: May 14 2016 &#45; 16:43</text>
<text text-anchor="start" x="525.377" y="-248.6" font-family="Times,serif" font-size="13.00">Migration version: 20160514204317</text>
<text text-anchor="start" x="525.377" y="-235.6" font-family="Times,serif" font-size="13.00">Generated by RailRoady 1.3.1</text>
<text text-anchor="start" x="525.377" y="-222.6" font-family="Times,serif" font-size="13.00">http://railroady.prestonlee.com</text>
</g>
<!-- Ability -->
<g id="node2" class="node"><title>Ability</title>
<polygon fill="none" stroke="black" points="798.734,-270.5 743.394,-270.5 743.394,-234.5 798.734,-234.5 798.734,-270.5"/>
<text text-anchor="middle" x="771.064" y="-248.3" font-family="Times,serif" font-size="14.00">Ability</text>
</g>
<!-- Article -->
<g id="node3" class="node"><title>Article</title>
<ellipse fill="none" stroke="black" cx="1019.06" cy="-90" rx="34.8198" ry="18"/>
<text text-anchor="middle" x="1019.06" y="-85.8" font-family="Times,serif" font-size="14.00">Article</text>
</g>
<!-- BackgroundInfo -->
<g id="node4" class="node"><title>BackgroundInfo</title>
<ellipse fill="none" stroke="black" cx="68.0643" cy="-90" rx="68.1287" ry="18"/>
<text text-anchor="middle" x="68.0643" y="-85.8" font-family="Times,serif" font-size="14.00">BackgroundInfo</text>
</g>
<!-- Experience -->
<g id="node5" class="node"><title>Experience</title>
<ellipse fill="none" stroke="black" cx="116.064" cy="-18" rx="49.7533" ry="18"/>
<text text-anchor="middle" x="116.064" y="-13.8" font-family="Times,serif" font-size="14.00">Experience</text>
</g>
<!-- BackgroundInfo&#45;&gt;Experience -->
<g id="edge1" class="edge"><title>BackgroundInfo&#45;&gt;Experience</title>
<path fill="none" stroke="#8017d9" d="M84.3295,-65.28C88.9989,-58.4704 94.1058,-51.0228 98.8315,-44.1312"/>
<ellipse fill="none" stroke="#8017d9" cx="81.9459" cy="-68.756" rx="4.00002" ry="4.00002"/>
<polygon fill="#8017d9" stroke="#8017d9" points="98.8966,-44.0363 108.263,-38.3339 101.724,-39.9127 104.552,-35.789 104.552,-35.789 104.552,-35.789 101.724,-39.9127 100.841,-33.2441 98.8966,-44.0363 98.8966,-44.0363"/>
</g>
<!-- HomepageInfo -->
<g id="node6" class="node"><title>HomepageInfo</title>
<ellipse fill="none" stroke="black" cx="364.064" cy="-90" rx="63.2924" ry="18"/>
<text text-anchor="middle" x="364.064" y="-85.8" font-family="Times,serif" font-size="14.00">HomepageInfo</text>
</g>
<!-- PersonalInfo -->
<g id="node7" class="node"><title>PersonalInfo</title>
<ellipse fill="none" stroke="black" cx="500.064" cy="-90" rx="55.0922" ry="18"/>
<text text-anchor="middle" x="500.064" y="-85.8" font-family="Times,serif" font-size="14.00">PersonalInfo</text>
</g>
<!-- PhotoLink -->
<g id="node8" class="node"><title>PhotoLink</title>
<ellipse fill="none" stroke="black" cx="621.064" cy="-90" rx="47.3995" ry="18"/>
<text text-anchor="middle" x="621.064" y="-85.8" font-family="Times,serif" font-size="14.00">PhotoLink</text>
</g>
<!-- Project -->
<g id="node9" class="node"><title>Project</title>
<ellipse fill="none" stroke="black" cx="696.064" cy="-18" rx="35.3129" ry="18"/>
<text text-anchor="middle" x="696.064" y="-13.8" font-family="Times,serif" font-size="14.00">Project</text>
</g>
<!-- School -->
<g id="node10" class="node"><title>School</title>
<ellipse fill="none" stroke="black" cx="852.064" cy="-252.5" rx="34.8458" ry="18"/>
<text text-anchor="middle" x="852.064" y="-248.3" font-family="Times,serif" font-size="14.00">School</text>
</g>
<!-- School&#45;&gt;Project -->
<g id="edge3" class="edge"><title>School&#45;&gt;Project</title>
<path fill="none" stroke="#e5f646" d="M890.509,-238.667C966.849,-211.247 1125.06,-143.59 1063.06,-72 1021.92,-24.4858 830.016,-18.62 741.281,-18.511"/>
<polygon fill="#e5f646" stroke="#e5f646" points="890.179,-238.784 879.251,-237.87 885.464,-240.449 880.749,-242.114 880.749,-242.114 880.749,-242.114 885.464,-240.449 882.248,-246.357 890.179,-238.784 890.179,-238.784"/>
<polygon fill="#e5f646" stroke="#e5f646" points="741.242,-18.5109 731.236,-14.0229 736.242,-18.5169 731.242,-18.5229 731.242,-18.5229 731.242,-18.5229 736.242,-18.5169 731.247,-23.0229 741.242,-18.5109 741.242,-18.5109"/>
</g>
<!-- User -->
<g id="node13" class="node"><title>User</title>
<ellipse fill="none" stroke="black" cx="621.064" cy="-162" rx="27" ry="18"/>
<text text-anchor="middle" x="621.064" y="-157.8" font-family="Times,serif" font-size="14.00">User</text>
</g>
<!-- School&#45;&gt;User -->
<g id="edge2" class="edge"><title>School&#45;&gt;User</title>
<path fill="none" stroke="#42a78d" d="M830.112,-230.922C823.418,-225.467 815.779,-219.992 808.064,-216 759.03,-190.626 696.287,-176.036 657.389,-168.811"/>
<ellipse fill="none" stroke="#42a78d" cx="833.41" cy="-233.724" rx="4.00002" ry="4.00002"/>
<polygon fill="#42a78d" stroke="#42a78d" points="656.924,-168.728 647.874,-162.536 652.003,-167.847 647.081,-166.966 647.081,-166.966 647.081,-166.966 652.003,-167.847 646.288,-171.395 656.924,-168.728 656.924,-168.728"/>
</g>
<!-- Showcase -->
<g id="node11" class="node"><title>Showcase</title>
<ellipse fill="none" stroke="black" cx="237.064" cy="-90" rx="45.4441" ry="18"/>
<text text-anchor="middle" x="237.064" y="-85.8" font-family="Times,serif" font-size="14.00">Showcase</text>
</g>
<!-- Showcase&#45;&gt;Project -->
<g id="edge4" class="edge"><title>Showcase&#45;&gt;Project</title>
<path fill="none" stroke="#abe8fa" d="M278.27,-75.4408C282.894,-74.1653 287.561,-72.984 292.064,-72 420.939,-43.8421 576.429,-28.5839 651.377,-22.3733"/>
<ellipse fill="none" stroke="#abe8fa" cx="274.409" cy="-76.5521" rx="4.00001" ry="4.00001"/>
<polygon fill="#abe8fa" stroke="#abe8fa" points="651.439,-22.3683 661.772,-26.0417 656.423,-21.9624 661.406,-21.5566 661.406,-21.5566 661.406,-21.5566 656.423,-21.9624 661.041,-17.0714 651.439,-22.3683 651.439,-22.3683"/>
</g>
<!-- SocialLink -->
<g id="node12" class="node"><title>SocialLink</title>
<ellipse fill="none" stroke="black" cx="773.064" cy="-90" rx="48.8273" ry="18"/>
<text text-anchor="middle" x="773.064" y="-85.8" font-family="Times,serif" font-size="14.00">SocialLink</text>
</g>
<!-- User&#45;&gt;Article -->
<g id="edge5" class="edge"><title>User&#45;&gt;Article</title>
<path fill="none" stroke="#a457d1" d="M656.304,-158.309C720.55,-152.836 860.65,-138.272 975.064,-108 977.719,-107.298 980.433,-106.488 983.145,-105.61"/>
<ellipse fill="none" stroke="#a457d1" cx="652.104" cy="-158.659" rx="4" ry="4"/>
<polygon fill="#a457d1" stroke="#a457d1" points="983.414,-105.516 994.34,-106.456 988.133,-103.863 992.852,-102.209 992.852,-102.209 992.852,-102.209 988.133,-103.863 991.364,-97.9626 983.414,-105.516 983.414,-105.516"/>
</g>
<!-- User&#45;&gt;BackgroundInfo -->
<g id="edge6" class="edge"><title>User&#45;&gt;BackgroundInfo</title>
<path fill="none" stroke="#ef3e32" d="M586.316,-158.197C508.098,-151.645 312.357,-133.897 150.064,-108 142.311,-106.763 134.181,-105.291 126.177,-103.739"/>
<ellipse fill="none" stroke="#ef3e32" cx="590.404" cy="-158.537" rx="4" ry="4"/>
<ellipse fill="#ef3e32" stroke="#ef3e32" cx="122.157" cy="-102.943" rx="4.00001" ry="4.00001"/>
</g>
<!-- User&#45;&gt;Experience -->
<g id="edge7" class="edge"><title>User&#45;&gt;Experience</title>
<path fill="none" stroke="#800026" d="M584.069,-160.2C491.257,-157.62 251.114,-147.23 183.064,-108 158.073,-93.5923 139.459,-65.7607 128.275,-45.0389"/>
<polygon fill="#800026" stroke="#800026" points="584.128,-160.202 594.006,-164.963 589.127,-160.333 594.125,-160.465 594.125,-160.465 594.125,-160.465 589.127,-160.333 594.243,-155.966 584.128,-160.202 584.128,-160.202"/>
<polygon fill="#800026" stroke="#800026" points="128.245,-44.9806 127.663,-34.0302 125.954,-40.5363 123.663,-36.0921 123.663,-36.0921 123.663,-36.0921 125.954,-40.5363 119.663,-38.154 128.245,-44.9806 128.245,-44.9806"/>
</g>
<!-- User&#45;&gt;HomepageInfo -->
<g id="edge8" class="edge"><title>User&#45;&gt;HomepageInfo</title>
<path fill="none" stroke="#bea38f" d="M588.619,-152.163C545.179,-140.331 467.619,-119.206 416.001,-105.146"/>
<ellipse fill="none" stroke="#bea38f" cx="592.563" cy="-153.237" rx="4.00001" ry="4.00001"/>
<ellipse fill="#bea38f" stroke="#bea38f" cx="412.124" cy="-104.09" rx="4.00001" ry="4.00001"/>
</g>
<!-- User&#45;&gt;PersonalInfo -->
<g id="edge9" class="edge"><title>User&#45;&gt;PersonalInfo</title>
<path fill="none" stroke="#172fdc" d="M594.239,-145.481C576.238,-135.068 552.401,-121.278 533.213,-110.177"/>
<ellipse fill="none" stroke="#172fdc" cx="597.892" cy="-147.594" rx="4.00002" ry="4.00002"/>
<ellipse fill="#172fdc" stroke="#172fdc" cx="529.571" cy="-108.07" rx="4.00002" ry="4.00002"/>
</g>
<!-- User&#45;&gt;PhotoLink -->
<g id="edge10" class="edge"><title>User&#45;&gt;PhotoLink</title>
<path fill="none" stroke="#817c9e" d="M621.064,-135.64C621.064,-129.348 621.064,-122.605 621.064,-116.316"/>
<ellipse fill="none" stroke="#817c9e" cx="621.064" cy="-139.697" rx="4" ry="4"/>
<ellipse fill="#817c9e" stroke="#817c9e" cx="621.064" cy="-112.104" rx="4" ry="4"/>
</g>
<!-- User&#45;&gt;Project -->
<g id="edge12" class="edge"><title>User&#45;&gt;Project</title>
<path fill="none" stroke="#dcea3e" d="M647.216,-142.054C658.013,-132.927 669.701,-121.115 677.064,-108 687.734,-88.9982 692.422,-64.6362 694.476,-46.2062"/>
<polygon fill="#dcea3e" stroke="#dcea3e" points="647.011,-142.218 636.399,-144.98 643.115,-145.353 639.219,-148.487 639.219,-148.487 639.219,-148.487 643.115,-145.353 642.04,-151.993 647.011,-142.218 647.011,-142.218"/>
<polygon fill="#dcea3e" stroke="#dcea3e" points="694.487,-46.0833 699.888,-36.5395 694.947,-41.1045 695.407,-36.1257 695.407,-36.1257 695.407,-36.1257 694.947,-41.1045 690.926,-35.7119 694.487,-46.0833 694.487,-46.0833"/>
</g>
<!-- User&#45;&gt;Showcase -->
<g id="edge11" class="edge"><title>User&#45;&gt;Showcase</title>
<path fill="none" stroke="#f9307f" d="M586.319,-157.029C525.965,-149.769 398.057,-132.79 292.064,-108 287.576,-106.95 282.919,-105.727 278.3,-104.426"/>
<ellipse fill="none" stroke="#f9307f" cx="590.406" cy="-157.515" rx="4.00001" ry="4.00001"/>
<ellipse fill="#f9307f" stroke="#f9307f" cx="274.441" cy="-103.302" rx="4.00001" ry="4.00001"/>
</g>
<!-- User&#45;&gt;SocialLink -->
<g id="edge13" class="edge"><title>User&#45;&gt;SocialLink</title>
<path fill="none" stroke="#302a51" d="M650.409,-147.486C674.883,-136.215 709.884,-120.096 736.237,-107.96"/>
<ellipse fill="none" stroke="#302a51" cx="646.475" cy="-149.297" rx="4.00002" ry="4.00002"/>
<ellipse fill="#302a51" stroke="#302a51" cx="740.137" cy="-106.164" rx="4.00002" ry="4.00002"/>
</g>
<!-- WebsiteSetting -->
<g id="node14" class="node"><title>WebsiteSetting</title>
<ellipse fill="none" stroke="black" cx="903.064" cy="-90" rx="63.3707" ry="18"/>
<text text-anchor="middle" x="903.064" y="-85.8" font-family="Times,serif" font-size="14.00">WebsiteSetting</text>
</g>
<!-- User&#45;&gt;WebsiteSetting -->
<g id="edge14" class="edge"><title>User&#45;&gt;WebsiteSetting</title>
<path fill="none" stroke="#b96cf7" d="M654.039,-152.815C702.004,-140.908 791.569,-118.676 849.196,-104.372"/>
<ellipse fill="none" stroke="#b96cf7" cx="649.972" cy="-153.824" rx="4.00001" ry="4.00001"/>
<ellipse fill="#b96cf7" stroke="#b96cf7" cx="853.225" cy="-103.371" rx="4.00001" ry="4.00001"/>
</g>
</g>
</svg>
