<?xml version="1.0" encoding="UTF-8" standalone="no"?>
<!DOCTYPE svg PUBLIC "-//W3C//DTD SVG 1.1//EN"
 "http://www.w3.org/Graphics/SVG/1.1/DTD/svg11.dtd">
<!-- Generated by graphviz version 2.38.0 (20140413.2041)
 -->
<!-- Title: models_diagram Pages: 1 -->
<svg width="1228pt" height="297pt"
 viewBox="0.00 0.00 1227.55 297.00" xmlns="http://www.w3.org/2000/svg" xmlns:xlink="http://www.w3.org/1999/xlink">
<g id="graph0" class="graph" transform="scale(1 1) rotate(0) translate(4 293)">
<title>models_diagram</title>
<polygon fill="none" stroke="none" points="-4,4 -4,-293 1223.55,-293 1223.55,4 -4,4"/>
<!-- _diagram_info -->
<g id="node1" class="node"><title>_diagram_info</title>
<text text-anchor="start" x="8" y="-274.6" font-family="Times,serif" font-size="13.00">Models diagram</text>
<text text-anchor="start" x="8" y="-261.6" font-family="Times,serif" font-size="13.00">Date: May 17 2016 &#45; 10:33</text>
<text text-anchor="start" x="8" y="-248.6" font-family="Times,serif" font-size="13.00">Migration version: 20160517132608</text>
<text text-anchor="start" x="8" y="-235.6" font-family="Times,serif" font-size="13.00">Generated by RailRoady 1.3.1</text>
<text text-anchor="start" x="8" y="-222.6" font-family="Times,serif" font-size="13.00">http://railroady.prestonlee.com</text>
</g>
<!-- Ability -->
<g id="node2" class="node"><title>Ability</title>
<polygon fill="none" stroke="black" points="281.358,-270.5 226.018,-270.5 226.018,-234.5 281.358,-234.5 281.358,-270.5"/>
<text text-anchor="middle" x="253.688" y="-248.3" font-family="Times,serif" font-size="14.00">Ability</text>
</g>
<!-- Article -->
<g id="node3" class="node"><title>Article</title>
<ellipse fill="none" stroke="black" cx="99.6877" cy="-90" rx="34.8198" ry="18"/>
<text text-anchor="middle" x="99.6877" y="-85.8" font-family="Times,serif" font-size="14.00">Article</text>
</g>
<!-- BackgroundInfo -->
<g id="node4" class="node"><title>BackgroundInfo</title>
<ellipse fill="none" stroke="black" cx="299.688" cy="-90" rx="68.1287" ry="18"/>
<text text-anchor="middle" x="299.688" y="-85.8" font-family="Times,serif" font-size="14.00">BackgroundInfo</text>
</g>
<!-- Experience -->
<g id="node5" class="node"><title>Experience</title>
<ellipse fill="none" stroke="black" cx="347.688" cy="-18" rx="49.7533" ry="18"/>
<text text-anchor="middle" x="347.688" y="-13.8" font-family="Times,serif" font-size="14.00">Experience</text>
</g>
<!-- BackgroundInfo&#45;&gt;Experience -->
<g id="edge1" class="edge"><title>BackgroundInfo&#45;&gt;Experience</title>
<path fill="none" stroke="#9fb24b" d="M315.953,-65.28C320.622,-58.4704 325.729,-51.0228 330.455,-44.1312"/>
<ellipse fill="none" stroke="#9fb24b" cx="313.569" cy="-68.756" rx="4.00002" ry="4.00002"/>
<polygon fill="#9fb24b" stroke="#9fb24b" points="330.52,-44.0363 339.887,-38.3339 333.348,-39.9127 336.175,-35.789 336.175,-35.789 336.175,-35.789 333.348,-39.9127 332.464,-33.2441 330.52,-44.0363 330.52,-44.0363"/>
</g>
<!-- HomepageInfo -->
<g id="node6" class="node"><title>HomepageInfo</title>
<ellipse fill="none" stroke="black" cx="486.688" cy="-90" rx="63.2924" ry="18"/>
<text text-anchor="middle" x="486.688" y="-85.8" font-family="Times,serif" font-size="14.00">HomepageInfo</text>
</g>
<!-- PersonalInfo -->
<g id="node7" class="node"><title>PersonalInfo</title>
<ellipse fill="none" stroke="black" cx="622.688" cy="-90" rx="55.0922" ry="18"/>
<text text-anchor="middle" x="622.688" y="-85.8" font-family="Times,serif" font-size="14.00">PersonalInfo</text>
</g>
<!-- Photo -->
<g id="node8" class="node"><title>Photo</title>
<ellipse fill="none" stroke="black" cx="182.688" cy="-90" rx="30.9967" ry="18"/>
<text text-anchor="middle" x="182.688" y="-85.8" font-family="Times,serif" font-size="14.00">Photo</text>
</g>
<!-- PhotoLink -->
<g id="node9" class="node"><title>PhotoLink</title>
<ellipse fill="none" stroke="black" cx="743.688" cy="-90" rx="47.3995" ry="18"/>
<text text-anchor="middle" x="743.688" y="-85.8" font-family="Times,serif" font-size="14.00">PhotoLink</text>
</g>
<!-- Project -->
<g id="node10" class="node"><title>Project</title>
<ellipse fill="none" stroke="black" cx="927.688" cy="-18" rx="35.3129" ry="18"/>
<text text-anchor="middle" x="927.688" y="-13.8" font-family="Times,serif" font-size="14.00">Project</text>
</g>
<!-- School -->
<g id="node11" class="node"><title>School</title>
<ellipse fill="none" stroke="black" cx="334.688" cy="-252.5" rx="34.8458" ry="18"/>
<text text-anchor="middle" x="334.688" y="-248.3" font-family="Times,serif" font-size="14.00">School</text>
</g>
<!-- School&#45;&gt;Article -->
<g id="edge4" class="edge"><title>School&#45;&gt;Article</title>
<path fill="none" stroke="#b2851a" d="M309.595,-230.375C303.517,-225.506 296.961,-220.452 290.688,-216 265.946,-198.441 258.188,-196.439 232.688,-180 196.393,-156.602 155.143,-128.808 128.334,-110.581"/>
<polygon fill="#b2851a" stroke="#b2851a" points="309.762,-230.511 314.673,-240.316 313.639,-233.669 317.515,-236.827 317.515,-236.827 317.515,-236.827 313.639,-233.669 320.358,-233.338 309.762,-230.511 309.762,-230.511"/>
<polygon fill="#b2851a" stroke="#b2851a" points="128.09,-110.415 122.357,-101.068 123.957,-107.601 119.825,-104.787 119.825,-104.787 119.825,-104.787 123.957,-107.601 117.292,-108.507 128.09,-110.415 128.09,-110.415"/>
</g>
<!-- School&#45;&gt;Photo -->
<g id="edge5" class="edge"><title>School&#45;&gt;Photo</title>
<path fill="none" stroke="#d00dfb" d="M313.063,-228.666C284.111,-198.095 233.059,-144.188 204.176,-113.69"/>
<polygon fill="#d00dfb" stroke="#d00dfb" points="313.237,-228.85 316.846,-239.205 316.675,-232.48 320.113,-236.111 320.113,-236.111 320.113,-236.111 316.675,-232.48 323.381,-233.016 313.237,-228.85 313.237,-228.85"/>
<polygon fill="#d00dfb" stroke="#d00dfb" points="203.872,-113.369 200.263,-103.014 200.434,-109.739 196.996,-106.108 196.996,-106.108 196.996,-106.108 200.434,-109.739 193.729,-109.203 203.872,-113.369 203.872,-113.369"/>
</g>
<!-- School&#45;&gt;Project -->
<g id="edge3" class="edge"><title>School&#45;&gt;Project</title>
<path fill="none" stroke="#8a84e4" d="M379.55,-251.38C542.402,-249.905 1098.48,-235.471 1206.69,-108 1272.1,-30.946 1067.67,-19.895 973.05,-18.8035"/>
<polygon fill="#8a84e4" stroke="#8a84e4" points="379.4,-251.381 369.365,-246.959 374.401,-251.42 369.401,-251.459 369.401,-251.459 369.401,-251.459 374.401,-251.42 369.436,-255.959 379.4,-251.381 379.4,-251.381"/>
<polygon fill="#8a84e4" stroke="#8a84e4" points="972.891,-18.8023 962.929,-14.2199 967.891,-18.761 962.892,-18.7198 962.892,-18.7198 962.892,-18.7198 967.891,-18.761 962.855,-23.2196 972.891,-18.8023 972.891,-18.8023"/>
</g>
<!-- User -->
<g id="node14" class="node"><title>User</title>
<ellipse fill="none" stroke="black" cx="554.688" cy="-162" rx="27" ry="18"/>
<text text-anchor="middle" x="554.688" y="-157.8" font-family="Times,serif" font-size="14.00">User</text>
</g>
<!-- School&#45;&gt;User -->
<g id="edge2" class="edge"><title>School&#45;&gt;User</title>
<path fill="none" stroke="#217ebf" d="M368.755,-237.796C410.715,-220.916 481.464,-192.456 522.529,-175.937"/>
<ellipse fill="none" stroke="#217ebf" cx="364.936" cy="-239.332" rx="4.00001" ry="4.00001"/>
<polygon fill="#217ebf" stroke="#217ebf" points="522.77,-175.84 533.727,-176.282 527.409,-173.973 532.048,-172.107 532.048,-172.107 532.048,-172.107 527.409,-173.973 530.368,-167.932 522.77,-175.84 522.77,-175.84"/>
</g>
<!-- Showcase -->
<g id="node12" class="node"><title>Showcase</title>
<ellipse fill="none" stroke="black" cx="854.688" cy="-90" rx="45.4441" ry="18"/>
<text text-anchor="middle" x="854.688" y="-85.8" font-family="Times,serif" font-size="14.00">Showcase</text>
</g>
<!-- Showcase&#45;&gt;Project -->
<g id="edge6" class="edge"><title>Showcase&#45;&gt;Project</title>
<path fill="none" stroke="#8341d1" d="M877.208,-67.4049C885.84,-59.1282 895.7,-49.6734 904.401,-41.3294"/>
<ellipse fill="none" stroke="#8341d1" cx="874.14" cy="-70.3474" rx="4.00002" ry="4.00002"/>
<polygon fill="#8341d1" stroke="#8341d1" points="904.472,-41.2614 914.805,-37.5882 908.081,-37.8008 911.69,-34.3402 911.69,-34.3402 911.69,-34.3402 908.081,-37.8008 908.576,-31.0921 904.472,-41.2614 904.472,-41.2614"/>
</g>
<!-- SocialLink -->
<g id="node13" class="node"><title>SocialLink</title>
<ellipse fill="none" stroke="black" cx="1004.69" cy="-90" rx="48.8273" ry="18"/>
<text text-anchor="middle" x="1004.69" y="-85.8" font-family="Times,serif" font-size="14.00">SocialLink</text>
</g>
<!-- User&#45;&gt;Article -->
<g id="edge7" class="edge"><title>User&#45;&gt;Article</title>
<path fill="none" stroke="#aac7a8" d="M519.464,-159.417C447.582,-155.546 279.252,-143.193 142.688,-108 140.081,-107.328 137.42,-106.541 134.762,-105.68"/>
<ellipse fill="none" stroke="#aac7a8" cx="523.748" cy="-159.64" rx="4" ry="4"/>
<polygon fill="#aac7a8" stroke="#aac7a8" points="134.689,-105.654 126.767,-98.0707 129.976,-103.983 125.264,-102.312 125.264,-102.312 125.264,-102.312 129.976,-103.983 123.76,-106.553 134.689,-105.654 134.689,-105.654"/>
</g>
<!-- User&#45;&gt;BackgroundInfo -->
<g id="edge8" class="edge"><title>User&#45;&gt;BackgroundInfo</title>
<path fill="none" stroke="#63f318" d="M522.311,-152.112C479.79,-140.44 404.549,-119.785 353.425,-105.751"/>
<ellipse fill="none" stroke="#63f318" cx="526.38" cy="-153.229" rx="4.00001" ry="4.00001"/>
<ellipse fill="#63f318" stroke="#63f318" cx="349.293" cy="-104.617" rx="4.00001" ry="4.00001"/>
</g>
<!-- User&#45;&gt;Experience -->
<g id="edge9" class="edge"><title>User&#45;&gt;Experience</title>
<path fill="none" stroke="#522279" d="M519.032,-153.411C488.991,-145.709 446.021,-131.51 414.688,-108 392.118,-91.0657 373.513,-64.5271 361.683,-44.8313"/>
<polygon fill="#522279" stroke="#522279" points="519.365,-153.492 528.009,-160.24 524.221,-154.68 529.078,-155.869 529.078,-155.869 529.078,-155.869 524.221,-154.68 530.148,-151.497 519.365,-153.492 519.365,-153.492"/>
<polygon fill="#522279" stroke="#522279" points="361.607,-44.7005 360.475,-33.7932 359.096,-40.3771 356.584,-36.0537 356.584,-36.0537 356.584,-36.0537 359.096,-40.3771 352.693,-38.3142 361.607,-44.7005 361.607,-44.7005"/>
</g>
<!-- User&#45;&gt;HomepageInfo -->
<g id="edge10" class="edge"><title>User&#45;&gt;HomepageInfo</title>
<path fill="none" stroke="#9206b1" d="M534.847,-140.576C526.528,-132.012 516.832,-122.031 508.33,-113.278"/>
<ellipse fill="none" stroke="#9206b1" cx="537.811" cy="-143.627" rx="4.00002" ry="4.00002"/>
<ellipse fill="#9206b1" stroke="#9206b1" cx="505.453" cy="-110.317" rx="4.00002" ry="4.00002"/>
</g>
<!-- User&#45;&gt;PersonalInfo -->
<g id="edge11" class="edge"><title>User&#45;&gt;PersonalInfo</title>
<path fill="none" stroke="#ef0bfe" d="M574.529,-140.576C582.848,-132.012 592.543,-122.031 601.046,-113.278"/>
<ellipse fill="none" stroke="#ef0bfe" cx="571.565" cy="-143.627" rx="4.00002" ry="4.00002"/>
<ellipse fill="#ef0bfe" stroke="#ef0bfe" cx="603.923" cy="-110.317" rx="4.00002" ry="4.00002"/>
</g>
<!-- User&#45;&gt;Photo -->
<g id="edge17" class="edge"><title>User&#45;&gt;Photo</title>
<path fill="none" stroke="#ab0e5d" d="M519.793,-158.244C458.628,-152.794 328.497,-138.436 222.688,-108 220.277,-107.306 217.817,-106.506 215.362,-105.639"/>
<ellipse fill="none" stroke="#ab0e5d" cx="523.971" cy="-158.607" rx="4" ry="4"/>
<polygon fill="#ab0e5d" stroke="#ab0e5d" points="215.362,-105.639 207.649,-97.8444 210.697,-103.841 206.031,-102.044 206.031,-102.044 206.031,-102.044 210.697,-103.841 204.413,-106.243 215.362,-105.639 215.362,-105.639"/>
</g>
<!-- User&#45;&gt;PhotoLink -->
<g id="edge12" class="edge"><title>User&#45;&gt;PhotoLink</title>
<path fill="none" stroke="#179221" d="M585.727,-149.504C617.77,-137.636 667.91,-119.066 703.084,-106.038"/>
<ellipse fill="none" stroke="#179221" cx="581.614" cy="-151.027" rx="4.00001" ry="4.00001"/>
<ellipse fill="#179221" stroke="#179221" cx="707.042" cy="-104.572" rx="4.00001" ry="4.00001"/>
</g>
<!-- User&#45;&gt;Project -->
<g id="edge14" class="edge"><title>User&#45;&gt;Project</title>
<path fill="none" stroke="#a4de49" d="M592.156,-160.6C673.689,-158.932 863.515,-150.468 908.688,-108 925.276,-92.4053 929.209,-66.1672 929.479,-46.2091"/>
<polygon fill="#a4de49" stroke="#a4de49" points="591.851,-160.606 581.771,-156.287 586.851,-160.696 581.852,-160.786 581.852,-160.786 581.852,-160.786 586.851,-160.696 581.933,-165.286 591.851,-160.606 591.851,-160.606"/>
<polygon fill="#a4de49" stroke="#a4de49" points="929.478,-46.1538 933.821,-36.0845 929.4,-41.1544 929.321,-36.155 929.321,-36.155 929.321,-36.155 929.4,-41.1544 924.822,-36.2256 929.478,-46.1538 929.478,-46.1538"/>
</g>
<!-- User&#45;&gt;Showcase -->
<g id="edge13" class="edge"><title>User&#45;&gt;Showcase</title>
<path fill="none" stroke="#047302" d="M588.712,-154.609C636.229,-145.464 725.03,-127.574 799.688,-108 803.917,-106.891 808.308,-105.665 812.68,-104.393"/>
<ellipse fill="none" stroke="#047302" cx="584.541" cy="-155.408" rx="4.00001" ry="4.00001"/>
<ellipse fill="#047302" stroke="#047302" cx="816.658" cy="-103.211" rx="4.00001" ry="4.00001"/>
</g>
<!-- User&#45;&gt;SocialLink -->
<g id="edge15" class="edge"><title>User&#45;&gt;SocialLink</title>
<path fill="none" stroke="#67f429" d="M589.908,-157.696C658.212,-150.953 813.254,-134.013 941.688,-108 947.489,-106.825 953.547,-105.421 959.515,-103.932"/>
<ellipse fill="none" stroke="#67f429" cx="585.61" cy="-158.116" rx="4" ry="4"/>
<ellipse fill="#67f429" stroke="#67f429" cx="963.69" cy="-102.857" rx="4.00001" ry="4.00001"/>
</g>
<!-- WebsiteSetting -->
<g id="node15" class="node"><title>WebsiteSetting</title>
<ellipse fill="none" stroke="black" cx="1134.69" cy="-90" rx="63.3707" ry="18"/>
<text text-anchor="middle" x="1134.69" y="-85.8" font-family="Times,serif" font-size="14.00">WebsiteSetting</text>
</g>
<!-- User&#45;&gt;WebsiteSetting -->
<g id="edge16" class="edge"><title>User&#45;&gt;WebsiteSetting</title>
<path fill="none" stroke="#1e9e68" d="M589.611,-158.902C672.278,-153.599 886.245,-137.908 1062.69,-108 1068.74,-106.974 1075.05,-105.738 1081.3,-104.406"/>
<ellipse fill="none" stroke="#1e9e68" cx="585.557" cy="-159.159" rx="4" ry="4"/>
<ellipse fill="#1e9e68" stroke="#1e9e68" cx="1085.25" cy="-103.536" rx="4.00001" ry="4.00001"/>
</g>
</g>
</svg>
