<?xml version="1.0" encoding="UTF-8" standalone="no"?>
<!DOCTYPE svg PUBLIC "-//W3C//DTD SVG 1.1//EN"
 "http://www.w3.org/Graphics/SVG/1.1/DTD/svg11.dtd">
<!-- Generated by graphviz version 2.38.0 (20140413.2041)
 -->
<!-- Title: models_diagram Pages: 1 -->
<svg width="1715pt" height="1514pt"
 viewBox="0.00 0.00 1715.27 1514.00" xmlns="http://www.w3.org/2000/svg" xmlns:xlink="http://www.w3.org/1999/xlink">
<g id="graph0" class="graph" transform="scale(1 1) rotate(0) translate(4 1510)">
<title>models_diagram</title>
<polygon fill="none" stroke="none" points="-4,4 -4,-1510 1711.27,-1510 1711.27,4 -4,4"/>
<!-- _diagram_info -->
<g id="node1" class="node"><title>_diagram_info</title>
<text text-anchor="start" x="80.8176" y="-1442.6" font-family="Times,serif" font-size="13.00">Models diagram</text>
<text text-anchor="start" x="80.8176" y="-1429.6" font-family="Times,serif" font-size="13.00">Date: May 17 2016 &#45; 10:32</text>
<text text-anchor="start" x="80.8176" y="-1416.6" font-family="Times,serif" font-size="13.00">Migration version: 20160517132608</text>
<text text-anchor="start" x="80.8176" y="-1403.6" font-family="Times,serif" font-size="13.00">Generated by RailRoady 1.3.1</text>
<text text-anchor="start" x="80.8176" y="-1390.6" font-family="Times,serif" font-size="13.00">http://railroady.prestonlee.com</text>
</g>
<!-- Ability -->
<g id="node2" class="node"><title>Ability</title>
<polygon fill="none" stroke="black" points="298.671,-1398.5 298.671,-1442.5 354.34,-1442.5 354.34,-1398.5 298.671,-1398.5"/>
<text text-anchor="middle" x="326.505" y="-1427.3" font-family="Times,serif" font-size="14.00">Ability</text>
<polyline fill="none" stroke="black" points="298.671,-1420.5 354.34,-1420.5 "/>
<text text-anchor="middle" x="326.505" y="-1405.3" font-family="Times,serif" font-size="14.00"> </text>
</g>
<!-- Article -->
<g id="node3" class="node"><title>Article</title>
<path fill="none" stroke="black" d="M12,-676.5C12,-676.5 121.011,-676.5 121.011,-676.5 127.011,-676.5 133.011,-682.5 133.011,-688.5 133.011,-688.5 133.011,-792.5 133.011,-792.5 133.011,-798.5 127.011,-804.5 121.011,-804.5 121.011,-804.5 12,-804.5 12,-804.5 6,-804.5 0,-798.5 0,-792.5 0,-792.5 0,-688.5 0,-688.5 0,-682.5 6,-676.5 12,-676.5"/>
<text text-anchor="middle" x="66.5054" y="-789.3" font-family="Times,serif" font-size="14.00">Article</text>
<polyline fill="none" stroke="black" points="0,-782.5 133.011,-782.5 "/>
<text text-anchor="start" x="8" y="-767.3" font-family="Times,serif" font-size="14.00">id :integer</text>
<text text-anchor="start" x="8" y="-753.3" font-family="Times,serif" font-size="14.00">title :string</text>
<text text-anchor="start" x="8" y="-739.3" font-family="Times,serif" font-size="14.00">summary :text</text>
<text text-anchor="start" x="8" y="-725.3" font-family="Times,serif" font-size="14.00">url :string</text>
<text text-anchor="start" x="8" y="-711.3" font-family="Times,serif" font-size="14.00">created_at :datetime</text>
<text text-anchor="start" x="8" y="-697.3" font-family="Times,serif" font-size="14.00">updated_at :datetime</text>
<text text-anchor="start" x="8" y="-683.3" font-family="Times,serif" font-size="14.00">user_id :integer</text>
</g>
<!-- BackgroundInfo -->
<g id="node4" class="node"><title>BackgroundInfo</title>
<path fill="none" stroke="black" d="M355.779,-690.5C355.779,-690.5 491.231,-690.5 491.231,-690.5 497.231,-690.5 503.231,-696.5 503.231,-702.5 503.231,-702.5 503.231,-778.5 503.231,-778.5 503.231,-784.5 497.231,-790.5 491.231,-790.5 491.231,-790.5 355.779,-790.5 355.779,-790.5 349.779,-790.5 343.779,-784.5 343.779,-778.5 343.779,-778.5 343.779,-702.5 343.779,-702.5 343.779,-696.5 349.779,-690.5 355.779,-690.5"/>
<text text-anchor="middle" x="423.505" y="-775.3" font-family="Times,serif" font-size="14.00">BackgroundInfo</text>
<polyline fill="none" stroke="black" points="343.779,-768.5 503.231,-768.5 "/>
<text text-anchor="start" x="351.779" y="-753.3" font-family="Times,serif" font-size="14.00">id :integer</text>
<text text-anchor="start" x="351.779" y="-739.3" font-family="Times,serif" font-size="14.00">background_type :integer</text>
<text text-anchor="start" x="351.779" y="-725.3" font-family="Times,serif" font-size="14.00">created_at :datetime</text>
<text text-anchor="start" x="351.779" y="-711.3" font-family="Times,serif" font-size="14.00">updated_at :datetime</text>
<text text-anchor="start" x="351.779" y="-697.3" font-family="Times,serif" font-size="14.00">user_id :integer</text>
</g>
<!-- Experience -->
<g id="node5" class="node"><title>Experience</title>
<path fill="none" stroke="black" d="M401.61,-154.5C401.61,-154.5 553.4,-154.5 553.4,-154.5 559.4,-154.5 565.4,-160.5 565.4,-166.5 565.4,-166.5 565.4,-298.5 565.4,-298.5 565.4,-304.5 559.4,-310.5 553.4,-310.5 553.4,-310.5 401.61,-310.5 401.61,-310.5 395.61,-310.5 389.61,-304.5 389.61,-298.5 389.61,-298.5 389.61,-166.5 389.61,-166.5 389.61,-160.5 395.61,-154.5 401.61,-154.5"/>
<text text-anchor="middle" x="477.505" y="-295.3" font-family="Times,serif" font-size="14.00">Experience</text>
<polyline fill="none" stroke="black" points="389.61,-288.5 565.4,-288.5 "/>
<text text-anchor="start" x="397.61" y="-273.3" font-family="Times,serif" font-size="14.00">id :integer</text>
<text text-anchor="start" x="397.61" y="-259.3" font-family="Times,serif" font-size="14.00">url :string</text>
<text text-anchor="start" x="397.61" y="-245.3" font-family="Times,serif" font-size="14.00">created_at :datetime</text>
<text text-anchor="start" x="397.61" y="-231.3" font-family="Times,serif" font-size="14.00">updated_at :datetime</text>
<text text-anchor="start" x="397.61" y="-217.3" font-family="Times,serif" font-size="14.00">img_file_name :string</text>
<text text-anchor="start" x="397.61" y="-203.3" font-family="Times,serif" font-size="14.00">img_content_type :string</text>
<text text-anchor="start" x="397.61" y="-189.3" font-family="Times,serif" font-size="14.00">img_file_size :integer</text>
<text text-anchor="start" x="397.61" y="-175.3" font-family="Times,serif" font-size="14.00">img_updated_at :datetime</text>
<text text-anchor="start" x="397.61" y="-161.3" font-family="Times,serif" font-size="14.00">background_info_id :integer</text>
</g>
<!-- BackgroundInfo&#45;&gt;Experience -->
<g id="edge1" class="edge"><title>BackgroundInfo&#45;&gt;Experience</title>
<path fill="none" stroke="#4ea0a5" d="M429.637,-682.045C439.056,-593.781 457.153,-424.207 468.197,-320.726"/>
<ellipse fill="none" stroke="#4ea0a5" cx="429.206" cy="-686.084" rx="4" ry="4"/>
<polygon fill="#4ea0a5" stroke="#4ea0a5" points="468.215,-320.557 473.75,-311.091 468.745,-315.586 469.276,-310.614 469.276,-310.614 469.276,-310.614 468.745,-315.586 464.801,-310.136 468.215,-320.557 468.215,-320.557"/>
</g>
<!-- HomepageInfo -->
<g id="node6" class="node"><title>HomepageInfo</title>
<path fill="none" stroke="black" d="M571.683,-655.5C571.683,-655.5 769.328,-655.5 769.328,-655.5 775.328,-655.5 781.328,-661.5 781.328,-667.5 781.328,-667.5 781.328,-813.5 781.328,-813.5 781.328,-819.5 775.328,-825.5 769.328,-825.5 769.328,-825.5 571.683,-825.5 571.683,-825.5 565.683,-825.5 559.683,-819.5 559.683,-813.5 559.683,-813.5 559.683,-667.5 559.683,-667.5 559.683,-661.5 565.683,-655.5 571.683,-655.5"/>
<text text-anchor="middle" x="670.505" y="-810.3" font-family="Times,serif" font-size="14.00">HomepageInfo</text>
<polyline fill="none" stroke="black" points="559.683,-803.5 781.328,-803.5 "/>
<text text-anchor="start" x="567.683" y="-788.3" font-family="Times,serif" font-size="14.00">id :integer</text>
<text text-anchor="start" x="567.683" y="-774.3" font-family="Times,serif" font-size="14.00">homepage_header :string</text>
<text text-anchor="start" x="567.683" y="-760.3" font-family="Times,serif" font-size="14.00">homepage_display_name :string</text>
<text text-anchor="start" x="567.683" y="-746.3" font-family="Times,serif" font-size="14.00">user_id :integer</text>
<text text-anchor="start" x="567.683" y="-732.3" font-family="Times,serif" font-size="14.00">created_at :datetime</text>
<text text-anchor="start" x="567.683" y="-718.3" font-family="Times,serif" font-size="14.00">updated_at :datetime</text>
<text text-anchor="start" x="567.683" y="-704.3" font-family="Times,serif" font-size="14.00">homepage_pic_file_name :string</text>
<text text-anchor="start" x="567.683" y="-690.3" font-family="Times,serif" font-size="14.00">homepage_pic_content_type :string</text>
<text text-anchor="start" x="567.683" y="-676.3" font-family="Times,serif" font-size="14.00">homepage_pic_file_size :integer</text>
<text text-anchor="start" x="567.683" y="-662.3" font-family="Times,serif" font-size="14.00">homepage_pic_updated_at :datetime</text>
</g>
<!-- PersonalInfo -->
<g id="node7" class="node"><title>PersonalInfo</title>
<path fill="none" stroke="black" d="M810.896,-501.5C810.896,-501.5 982.114,-501.5 982.114,-501.5 988.114,-501.5 994.114,-507.5 994.114,-513.5 994.114,-513.5 994.114,-967.5 994.114,-967.5 994.114,-973.5 988.114,-979.5 982.114,-979.5 982.114,-979.5 810.896,-979.5 810.896,-979.5 804.896,-979.5 798.896,-973.5 798.896,-967.5 798.896,-967.5 798.896,-513.5 798.896,-513.5 798.896,-507.5 804.896,-501.5 810.896,-501.5"/>
<text text-anchor="middle" x="896.505" y="-964.3" font-family="Times,serif" font-size="14.00">PersonalInfo</text>
<polyline fill="none" stroke="black" points="798.896,-957.5 994.114,-957.5 "/>
<text text-anchor="start" x="806.896" y="-942.3" font-family="Times,serif" font-size="14.00">id :integer</text>
<text text-anchor="start" x="806.896" y="-928.3" font-family="Times,serif" font-size="14.00">name_first :string</text>
<text text-anchor="start" x="806.896" y="-914.3" font-family="Times,serif" font-size="14.00">name_last :string</text>
<text text-anchor="start" x="806.896" y="-900.3" font-family="Times,serif" font-size="14.00">intro_paragraph :text</text>
<text text-anchor="start" x="806.896" y="-886.3" font-family="Times,serif" font-size="14.00">created_at :datetime</text>
<text text-anchor="start" x="806.896" y="-872.3" font-family="Times,serif" font-size="14.00">updated_at :datetime</text>
<text text-anchor="start" x="806.896" y="-858.3" font-family="Times,serif" font-size="14.00">about_pic_file_name :string</text>
<text text-anchor="start" x="806.896" y="-844.3" font-family="Times,serif" font-size="14.00">about_pic_content_type :string</text>
<text text-anchor="start" x="806.896" y="-830.3" font-family="Times,serif" font-size="14.00">about_pic_file_size :integer</text>
<text text-anchor="start" x="806.896" y="-816.3" font-family="Times,serif" font-size="14.00">about_pic_updated_at :datetime</text>
<text text-anchor="start" x="806.896" y="-802.3" font-family="Times,serif" font-size="14.00">user_id :integer</text>
<text text-anchor="start" x="806.896" y="-788.3" font-family="Times,serif" font-size="14.00">resume_file_name :string</text>
<text text-anchor="start" x="806.896" y="-774.3" font-family="Times,serif" font-size="14.00">resume_content_type :string</text>
<text text-anchor="start" x="806.896" y="-760.3" font-family="Times,serif" font-size="14.00">resume_file_size :integer</text>
<text text-anchor="start" x="806.896" y="-746.3" font-family="Times,serif" font-size="14.00">resume_updated_at :datetime</text>
<text text-anchor="start" x="806.896" y="-732.3" font-family="Times,serif" font-size="14.00">vertical :boolean</text>
<text text-anchor="start" x="806.896" y="-718.3" font-family="Times,serif" font-size="14.00">exp1_file_name :string</text>
<text text-anchor="start" x="806.896" y="-704.3" font-family="Times,serif" font-size="14.00">exp1_content_type :string</text>
<text text-anchor="start" x="806.896" y="-690.3" font-family="Times,serif" font-size="14.00">exp1_file_size :integer</text>
<text text-anchor="start" x="806.896" y="-676.3" font-family="Times,serif" font-size="14.00">exp1_updated_at :datetime</text>
<text text-anchor="start" x="806.896" y="-662.3" font-family="Times,serif" font-size="14.00">exp2_file_name :string</text>
<text text-anchor="start" x="806.896" y="-648.3" font-family="Times,serif" font-size="14.00">exp2_content_type :string</text>
<text text-anchor="start" x="806.896" y="-634.3" font-family="Times,serif" font-size="14.00">exp2_file_size :integer</text>
<text text-anchor="start" x="806.896" y="-620.3" font-family="Times,serif" font-size="14.00">exp2_updated_at :datetime</text>
<text text-anchor="start" x="806.896" y="-606.3" font-family="Times,serif" font-size="14.00">exp3_file_name :string</text>
<text text-anchor="start" x="806.896" y="-592.3" font-family="Times,serif" font-size="14.00">exp3_content_type :string</text>
<text text-anchor="start" x="806.896" y="-578.3" font-family="Times,serif" font-size="14.00">exp3_file_size :integer</text>
<text text-anchor="start" x="806.896" y="-564.3" font-family="Times,serif" font-size="14.00">exp3_updated_at :datetime</text>
<text text-anchor="start" x="806.896" y="-550.3" font-family="Times,serif" font-size="14.00">exp4_file_name :string</text>
<text text-anchor="start" x="806.896" y="-536.3" font-family="Times,serif" font-size="14.00">exp4_content_type :string</text>
<text text-anchor="start" x="806.896" y="-522.3" font-family="Times,serif" font-size="14.00">exp4_file_size :integer</text>
<text text-anchor="start" x="806.896" y="-508.3" font-family="Times,serif" font-size="14.00">exp4_updated_at :datetime</text>
</g>
<!-- Photo -->
<g id="node8" class="node"><title>Photo</title>
<path fill="none" stroke="black" d="M163.396,-669.5C163.396,-669.5 313.614,-669.5 313.614,-669.5 319.614,-669.5 325.614,-675.5 325.614,-681.5 325.614,-681.5 325.614,-799.5 325.614,-799.5 325.614,-805.5 319.614,-811.5 313.614,-811.5 313.614,-811.5 163.396,-811.5 163.396,-811.5 157.396,-811.5 151.396,-805.5 151.396,-799.5 151.396,-799.5 151.396,-681.5 151.396,-681.5 151.396,-675.5 157.396,-669.5 163.396,-669.5"/>
<text text-anchor="middle" x="238.505" y="-796.3" font-family="Times,serif" font-size="14.00">Photo</text>
<polyline fill="none" stroke="black" points="151.396,-789.5 325.614,-789.5 "/>
<text text-anchor="start" x="159.396" y="-774.3" font-family="Times,serif" font-size="14.00">id :integer</text>
<text text-anchor="start" x="159.396" y="-760.3" font-family="Times,serif" font-size="14.00">created_at :datetime</text>
<text text-anchor="start" x="159.396" y="-746.3" font-family="Times,serif" font-size="14.00">updated_at :datetime</text>
<text text-anchor="start" x="159.396" y="-732.3" font-family="Times,serif" font-size="14.00">image_file_name :string</text>
<text text-anchor="start" x="159.396" y="-718.3" font-family="Times,serif" font-size="14.00">image_content_type :string</text>
<text text-anchor="start" x="159.396" y="-704.3" font-family="Times,serif" font-size="14.00">image_file_size :integer</text>
<text text-anchor="start" x="159.396" y="-690.3" font-family="Times,serif" font-size="14.00">image_updated_at :datetime</text>
<text text-anchor="start" x="159.396" y="-676.3" font-family="Times,serif" font-size="14.00">user_id :integer</text>
</g>
<!-- PhotoLink -->
<g id="node9" class="node"><title>PhotoLink</title>
<path fill="none" stroke="black" d="M1024,-690.5C1024,-690.5 1133.01,-690.5 1133.01,-690.5 1139.01,-690.5 1145.01,-696.5 1145.01,-702.5 1145.01,-702.5 1145.01,-778.5 1145.01,-778.5 1145.01,-784.5 1139.01,-790.5 1133.01,-790.5 1133.01,-790.5 1024,-790.5 1024,-790.5 1018,-790.5 1012,-784.5 1012,-778.5 1012,-778.5 1012,-702.5 1012,-702.5 1012,-696.5 1018,-690.5 1024,-690.5"/>
<text text-anchor="middle" x="1078.51" y="-775.3" font-family="Times,serif" font-size="14.00">PhotoLink</text>
<polyline fill="none" stroke="black" points="1012,-768.5 1145.01,-768.5 "/>
<text text-anchor="start" x="1020" y="-753.3" font-family="Times,serif" font-size="14.00">id :integer</text>
<text text-anchor="start" x="1020" y="-739.3" font-family="Times,serif" font-size="14.00">tumblr_url :string</text>
<text text-anchor="start" x="1020" y="-725.3" font-family="Times,serif" font-size="14.00">user_id :integer</text>
<text text-anchor="start" x="1020" y="-711.3" font-family="Times,serif" font-size="14.00">created_at :datetime</text>
<text text-anchor="start" x="1020" y="-697.3" font-family="Times,serif" font-size="14.00">updated_at :datetime</text>
</g>
<!-- Project -->
<g id="node10" class="node"><title>Project</title>
<path fill="none" stroke="black" d="M1268.06,-0.5C1268.06,-0.5 1408.96,-0.5 1408.96,-0.5 1414.96,-0.5 1420.96,-6.5 1420.96,-12.5 1420.96,-12.5 1420.96,-452.5 1420.96,-452.5 1420.96,-458.5 1414.96,-464.5 1408.96,-464.5 1408.96,-464.5 1268.06,-464.5 1268.06,-464.5 1262.06,-464.5 1256.06,-458.5 1256.06,-452.5 1256.06,-452.5 1256.06,-12.5 1256.06,-12.5 1256.06,-6.5 1262.06,-0.5 1268.06,-0.5"/>
<text text-anchor="middle" x="1338.51" y="-449.3" font-family="Times,serif" font-size="14.00">Project</text>
<polyline fill="none" stroke="black" points="1256.06,-442.5 1420.96,-442.5 "/>
<text text-anchor="start" x="1264.06" y="-427.3" font-family="Times,serif" font-size="14.00">id :integer</text>
<text text-anchor="start" x="1264.06" y="-413.3" font-family="Times,serif" font-size="14.00">title :string</text>
<text text-anchor="start" x="1264.06" y="-399.3" font-family="Times,serif" font-size="14.00">paragraph :text</text>
<text text-anchor="start" x="1264.06" y="-385.3" font-family="Times,serif" font-size="14.00">created_at :datetime</text>
<text text-anchor="start" x="1264.06" y="-371.3" font-family="Times,serif" font-size="14.00">updated_at :datetime</text>
<text text-anchor="start" x="1264.06" y="-357.3" font-family="Times,serif" font-size="14.00">file1_file_name :string</text>
<text text-anchor="start" x="1264.06" y="-343.3" font-family="Times,serif" font-size="14.00">file1_content_type :string</text>
<text text-anchor="start" x="1264.06" y="-329.3" font-family="Times,serif" font-size="14.00">file1_file_size :integer</text>
<text text-anchor="start" x="1264.06" y="-315.3" font-family="Times,serif" font-size="14.00">file1_updated_at :datetime</text>
<text text-anchor="start" x="1264.06" y="-301.3" font-family="Times,serif" font-size="14.00">file2_file_name :string</text>
<text text-anchor="start" x="1264.06" y="-287.3" font-family="Times,serif" font-size="14.00">file2_content_type :string</text>
<text text-anchor="start" x="1264.06" y="-273.3" font-family="Times,serif" font-size="14.00">file2_file_size :integer</text>
<text text-anchor="start" x="1264.06" y="-259.3" font-family="Times,serif" font-size="14.00">file2_updated_at :datetime</text>
<text text-anchor="start" x="1264.06" y="-245.3" font-family="Times,serif" font-size="14.00">file3_file_name :string</text>
<text text-anchor="start" x="1264.06" y="-231.3" font-family="Times,serif" font-size="14.00">file3_content_type :string</text>
<text text-anchor="start" x="1264.06" y="-217.3" font-family="Times,serif" font-size="14.00">file3_file_size :integer</text>
<text text-anchor="start" x="1264.06" y="-203.3" font-family="Times,serif" font-size="14.00">file3_updated_at :datetime</text>
<text text-anchor="start" x="1264.06" y="-189.3" font-family="Times,serif" font-size="14.00">file4_file_name :string</text>
<text text-anchor="start" x="1264.06" y="-175.3" font-family="Times,serif" font-size="14.00">file4_content_type :string</text>
<text text-anchor="start" x="1264.06" y="-161.3" font-family="Times,serif" font-size="14.00">file4_file_size :integer</text>
<text text-anchor="start" x="1264.06" y="-147.3" font-family="Times,serif" font-size="14.00">file4_updated_at :datetime</text>
<text text-anchor="start" x="1264.06" y="-133.3" font-family="Times,serif" font-size="14.00">showcase_id :integer</text>
<text text-anchor="start" x="1264.06" y="-119.3" font-family="Times,serif" font-size="14.00">file1_type :integer</text>
<text text-anchor="start" x="1264.06" y="-105.3" font-family="Times,serif" font-size="14.00">file2_type :integer</text>
<text text-anchor="start" x="1264.06" y="-91.3" font-family="Times,serif" font-size="14.00">file3_type :integer</text>
<text text-anchor="start" x="1264.06" y="-77.3" font-family="Times,serif" font-size="14.00">file4_type :integer</text>
<text text-anchor="start" x="1264.06" y="-63.3" font-family="Times,serif" font-size="14.00">file1_title :string</text>
<text text-anchor="start" x="1264.06" y="-49.3" font-family="Times,serif" font-size="14.00">file2_title :string</text>
<text text-anchor="start" x="1264.06" y="-35.3" font-family="Times,serif" font-size="14.00">file3_title :string</text>
<text text-anchor="start" x="1264.06" y="-21.3" font-family="Times,serif" font-size="14.00">file4_title :string</text>
<text text-anchor="start" x="1264.06" y="-7.3" font-family="Times,serif" font-size="14.00">url :string</text>
</g>
<!-- School -->
<g id="node11" class="node"><title>School</title>
<path fill="none" stroke="black" d="M384.055,-1335.5C384.055,-1335.5 524.956,-1335.5 524.956,-1335.5 530.956,-1335.5 536.956,-1341.5 536.956,-1347.5 536.956,-1347.5 536.956,-1493.5 536.956,-1493.5 536.956,-1499.5 530.956,-1505.5 524.956,-1505.5 524.956,-1505.5 384.055,-1505.5 384.055,-1505.5 378.055,-1505.5 372.055,-1499.5 372.055,-1493.5 372.055,-1493.5 372.055,-1347.5 372.055,-1347.5 372.055,-1341.5 378.055,-1335.5 384.055,-1335.5"/>
<text text-anchor="middle" x="454.505" y="-1490.3" font-family="Times,serif" font-size="14.00">School</text>
<polyline fill="none" stroke="black" points="372.055,-1483.5 536.956,-1483.5 "/>
<text text-anchor="start" x="380.055" y="-1468.3" font-family="Times,serif" font-size="14.00">id :integer</text>
<text text-anchor="start" x="380.055" y="-1454.3" font-family="Times,serif" font-size="14.00">name :string</text>
<text text-anchor="start" x="380.055" y="-1440.3" font-family="Times,serif" font-size="14.00">created_at :datetime</text>
<text text-anchor="start" x="380.055" y="-1426.3" font-family="Times,serif" font-size="14.00">updated_at :datetime</text>
<text text-anchor="start" x="380.055" y="-1412.3" font-family="Times,serif" font-size="14.00">logo_file_name :string</text>
<text text-anchor="start" x="380.055" y="-1398.3" font-family="Times,serif" font-size="14.00">logo_content_type :string</text>
<text text-anchor="start" x="380.055" y="-1384.3" font-family="Times,serif" font-size="14.00">logo_file_size :integer</text>
<text text-anchor="start" x="380.055" y="-1370.3" font-family="Times,serif" font-size="14.00">logo_updated_at :datetime</text>
<text text-anchor="start" x="380.055" y="-1356.3" font-family="Times,serif" font-size="14.00">color1 :string</text>
<text text-anchor="start" x="380.055" y="-1342.3" font-family="Times,serif" font-size="14.00">color2 :string</text>
</g>
<!-- School&#45;&gt;Article -->
<g id="edge4" class="edge"><title>School&#45;&gt;Article</title>
<path fill="none" stroke="#4e04ad" d="M364.267,-1335.7C364.013,-1335.46 363.759,-1335.23 363.505,-1335 345.853,-1318.86 338.489,-1317.64 323.505,-1299 221.381,-1171.95 207.825,-1129.35 142.505,-980 118.883,-925.988 98.9548,-862.248 85.4393,-814.257"/>
<polygon fill="#4e04ad" stroke="#4e04ad" points="364.357,-1335.78 368.689,-1345.85 368.043,-1339.16 371.729,-1342.53 371.729,-1342.53 371.729,-1342.53 368.043,-1339.16 374.769,-1339.22 364.357,-1335.78 364.357,-1335.78"/>
<polygon fill="#4e04ad" stroke="#4e04ad" points="85.4244,-814.203 87.0727,-803.362 84.0812,-809.387 82.7381,-804.571 82.7381,-804.571 82.7381,-804.571 84.0812,-809.387 78.4035,-805.779 85.4244,-814.203 85.4244,-814.203"/>
</g>
<!-- School&#45;&gt;Photo -->
<g id="edge5" class="edge"><title>School&#45;&gt;Photo</title>
<path fill="none" stroke="#1a92ab" d="M424.602,-1325.64C381.86,-1191.47 304.044,-947.219 263.926,-821.294"/>
<polygon fill="#1a92ab" stroke="#1a92ab" points="424.659,-1325.81 423.407,-1336.71 426.177,-1330.58 427.694,-1335.34 427.694,-1335.34 427.694,-1335.34 426.177,-1330.58 431.982,-1333.98 424.659,-1325.81 424.659,-1325.81"/>
<polygon fill="#1a92ab" stroke="#1a92ab" points="263.905,-821.225 265.157,-810.331 262.387,-816.461 260.869,-811.697 260.869,-811.697 260.869,-811.697 262.387,-816.461 256.581,-813.063 263.905,-821.225 263.905,-821.225"/>
</g>
<!-- School&#45;&gt;Project -->
<g id="edge3" class="edge"><title>School&#45;&gt;Project</title>
<path fill="none" stroke="#59ca75" d="M547.368,-1419.6C784.458,-1414.17 1411.44,-1362.68 1667.51,-980 1726.7,-891.533 1713.24,-597.121 1667.51,-501 1618.78,-398.586 1509.55,-322.558 1430.28,-278.249"/>
<polygon fill="#59ca75" stroke="#59ca75" points="547.053,-1419.61 536.962,-1415.32 542.054,-1419.71 537.055,-1419.82 537.055,-1419.82 537.055,-1419.82 542.054,-1419.71 537.148,-1424.32 547.053,-1419.61 547.053,-1419.61"/>
<polygon fill="#59ca75" stroke="#59ca75" points="1430.01,-278.1 1423.43,-269.328 1425.63,-275.684 1421.26,-273.268 1421.26,-273.268 1421.26,-273.268 1425.63,-275.684 1419.08,-277.207 1430.01,-278.1 1430.01,-278.1"/>
</g>
<!-- User -->
<g id="node14" class="node"><title>User</title>
<path fill="none" stroke="black" d="M693.228,-1016.5C693.228,-1016.5 873.783,-1016.5 873.783,-1016.5 879.783,-1016.5 885.783,-1022.5 885.783,-1028.5 885.783,-1028.5 885.783,-1286.5 885.783,-1286.5 885.783,-1292.5 879.783,-1298.5 873.783,-1298.5 873.783,-1298.5 693.228,-1298.5 693.228,-1298.5 687.228,-1298.5 681.228,-1292.5 681.228,-1286.5 681.228,-1286.5 681.228,-1028.5 681.228,-1028.5 681.228,-1022.5 687.228,-1016.5 693.228,-1016.5"/>
<text text-anchor="middle" x="783.505" y="-1283.3" font-family="Times,serif" font-size="14.00">User</text>
<polyline fill="none" stroke="black" points="681.228,-1276.5 885.783,-1276.5 "/>
<text text-anchor="start" x="689.228" y="-1261.3" font-family="Times,serif" font-size="14.00">id :integer</text>
<text text-anchor="start" x="689.228" y="-1247.3" font-family="Times,serif" font-size="14.00">created_at :datetime</text>
<text text-anchor="start" x="689.228" y="-1233.3" font-family="Times,serif" font-size="14.00">updated_at :datetime</text>
<text text-anchor="start" x="689.228" y="-1219.3" font-family="Times,serif" font-size="14.00">email :string</text>
<text text-anchor="start" x="689.228" y="-1205.3" font-family="Times,serif" font-size="14.00">encrypted_password :string</text>
<text text-anchor="start" x="689.228" y="-1191.3" font-family="Times,serif" font-size="14.00">reset_password_token :string</text>
<text text-anchor="start" x="689.228" y="-1177.3" font-family="Times,serif" font-size="14.00">reset_password_sent_at :datetime</text>
<text text-anchor="start" x="689.228" y="-1163.3" font-family="Times,serif" font-size="14.00">remember_created_at :datetime</text>
<text text-anchor="start" x="689.228" y="-1149.3" font-family="Times,serif" font-size="14.00">sign_in_count :integer</text>
<text text-anchor="start" x="689.228" y="-1135.3" font-family="Times,serif" font-size="14.00">current_sign_in_at :datetime</text>
<text text-anchor="start" x="689.228" y="-1121.3" font-family="Times,serif" font-size="14.00">last_sign_in_at :datetime</text>
<text text-anchor="start" x="689.228" y="-1107.3" font-family="Times,serif" font-size="14.00">current_sign_in_ip :inet</text>
<text text-anchor="start" x="689.228" y="-1093.3" font-family="Times,serif" font-size="14.00">last_sign_in_ip :inet</text>
<text text-anchor="start" x="689.228" y="-1079.3" font-family="Times,serif" font-size="14.00">confirmation_token :string</text>
<text text-anchor="start" x="689.228" y="-1065.3" font-family="Times,serif" font-size="14.00">confirmed_at :datetime</text>
<text text-anchor="start" x="689.228" y="-1051.3" font-family="Times,serif" font-size="14.00">confirmation_sent_at :datetime</text>
<text text-anchor="start" x="689.228" y="-1037.3" font-family="Times,serif" font-size="14.00">unconfirmed_email :string</text>
<text text-anchor="start" x="689.228" y="-1023.3" font-family="Times,serif" font-size="14.00">school_id :integer</text>
</g>
<!-- School&#45;&gt;User -->
<g id="edge2" class="edge"><title>School&#45;&gt;User</title>
<path fill="none" stroke="#f969e0" d="M543.572,-1348.84C583.472,-1317.19 630.928,-1279.54 673.062,-1246.12"/>
<ellipse fill="none" stroke="#f969e0" cx="540.235" cy="-1351.49" rx="4.00002" ry="4.00002"/>
<polygon fill="#f969e0" stroke="#f969e0" points="673.304,-1245.92 683.935,-1243.23 677.222,-1242.82 681.139,-1239.71 681.139,-1239.71 681.139,-1239.71 677.222,-1242.82 678.342,-1236.18 673.304,-1245.92 673.304,-1245.92"/>
</g>
<!-- Showcase -->
<g id="node12" class="node"><title>Showcase</title>
<path fill="none" stroke="black" d="M1175,-690.5C1175,-690.5 1298.01,-690.5 1298.01,-690.5 1304.01,-690.5 1310.01,-696.5 1310.01,-702.5 1310.01,-702.5 1310.01,-778.5 1310.01,-778.5 1310.01,-784.5 1304.01,-790.5 1298.01,-790.5 1298.01,-790.5 1175,-790.5 1175,-790.5 1169,-790.5 1163,-784.5 1163,-778.5 1163,-778.5 1163,-702.5 1163,-702.5 1163,-696.5 1169,-690.5 1175,-690.5"/>
<text text-anchor="middle" x="1236.51" y="-775.3" font-family="Times,serif" font-size="14.00">Showcase</text>
<polyline fill="none" stroke="black" points="1163,-768.5 1310.01,-768.5 "/>
<text text-anchor="start" x="1171" y="-753.3" font-family="Times,serif" font-size="14.00">id :integer</text>
<text text-anchor="start" x="1171" y="-739.3" font-family="Times,serif" font-size="14.00">showcase_type :integer</text>
<text text-anchor="start" x="1171" y="-725.3" font-family="Times,serif" font-size="14.00">created_at :datetime</text>
<text text-anchor="start" x="1171" y="-711.3" font-family="Times,serif" font-size="14.00">updated_at :datetime</text>
<text text-anchor="start" x="1171" y="-697.3" font-family="Times,serif" font-size="14.00">user_id :integer</text>
</g>
<!-- Showcase&#45;&gt;Project -->
<g id="edge6" class="edge"><title>Showcase&#45;&gt;Project</title>
<path fill="none" stroke="#a05e42" d="M1248.08,-682.057C1258.44,-630.712 1274.33,-551.844 1289.93,-474.479"/>
<ellipse fill="none" stroke="#a05e42" cx="1247.26" cy="-686.14" rx="4.00001" ry="4.00001"/>
<polygon fill="#a05e42" stroke="#a05e42" points="1289.95,-474.366 1296.34,-465.453 1290.94,-469.465 1291.93,-464.563 1291.93,-464.563 1291.93,-464.563 1290.94,-469.465 1287.52,-463.674 1289.95,-474.366 1289.95,-474.366"/>
</g>
<!-- SocialLink -->
<g id="node13" class="node"><title>SocialLink</title>
<path fill="none" stroke="black" d="M1378.87,-648.5C1378.87,-648.5 1494.14,-648.5 1494.14,-648.5 1500.14,-648.5 1506.14,-654.5 1506.14,-660.5 1506.14,-660.5 1506.14,-820.5 1506.14,-820.5 1506.14,-826.5 1500.14,-832.5 1494.14,-832.5 1494.14,-832.5 1378.87,-832.5 1378.87,-832.5 1372.87,-832.5 1366.87,-826.5 1366.87,-820.5 1366.87,-820.5 1366.87,-660.5 1366.87,-660.5 1366.87,-654.5 1372.87,-648.5 1378.87,-648.5"/>
<text text-anchor="middle" x="1436.51" y="-817.3" font-family="Times,serif" font-size="14.00">SocialLink</text>
<polyline fill="none" stroke="black" points="1366.87,-810.5 1506.14,-810.5 "/>
<text text-anchor="start" x="1374.87" y="-795.3" font-family="Times,serif" font-size="14.00">id :integer</text>
<text text-anchor="start" x="1374.87" y="-781.3" font-family="Times,serif" font-size="14.00">link_linkedin :string</text>
<text text-anchor="start" x="1374.87" y="-767.3" font-family="Times,serif" font-size="14.00">link_instagram :string</text>
<text text-anchor="start" x="1374.87" y="-753.3" font-family="Times,serif" font-size="14.00">link_facebook :string</text>
<text text-anchor="start" x="1374.87" y="-739.3" font-family="Times,serif" font-size="14.00">link_twitter :string</text>
<text text-anchor="start" x="1374.87" y="-725.3" font-family="Times,serif" font-size="14.00">link_tumblr :string</text>
<text text-anchor="start" x="1374.87" y="-711.3" font-family="Times,serif" font-size="14.00">link_github :string</text>
<text text-anchor="start" x="1374.87" y="-697.3" font-family="Times,serif" font-size="14.00">link_alt_email :string</text>
<text text-anchor="start" x="1374.87" y="-683.3" font-family="Times,serif" font-size="14.00">created_at :datetime</text>
<text text-anchor="start" x="1374.87" y="-669.3" font-family="Times,serif" font-size="14.00">updated_at :datetime</text>
<text text-anchor="start" x="1374.87" y="-655.3" font-family="Times,serif" font-size="14.00">user_id :integer</text>
</g>
<!-- User&#45;&gt;Article -->
<g id="edge7" class="edge"><title>User&#45;&gt;Article</title>
<path fill="none" stroke="#bd87ad" d="M673.084,-1127.52C492.343,-1079.9 152.269,-989.383 142.505,-980 97.6871,-936.931 79.2258,-867.537 71.6599,-814.68"/>
<ellipse fill="none" stroke="#bd87ad" cx="677.169" cy="-1128.6" rx="4.00001" ry="4.00001"/>
<polygon fill="#bd87ad" stroke="#bd87ad" points="71.6481,-814.59 74.7894,-804.084 70.9884,-809.634 70.3287,-804.677 70.3287,-804.677 70.3287,-804.677 70.9884,-809.634 65.868,-805.271 71.6481,-814.59 71.6481,-814.59"/>
</g>
<!-- User&#45;&gt;BackgroundInfo -->
<g id="edge8" class="edge"><title>User&#45;&gt;BackgroundInfo</title>
<path fill="none" stroke="#68dce6" d="M673.929,-1104.03C620.749,-1073.96 559.455,-1031.85 517.505,-980 474.106,-926.354 448.797,-850.209 435.584,-798.493"/>
<ellipse fill="none" stroke="#68dce6" cx="677.549" cy="-1106.05" rx="4.00002" ry="4.00002"/>
<ellipse fill="#68dce6" stroke="#68dce6" cx="434.613" cy="-794.609" rx="4.00001" ry="4.00001"/>
</g>
<!-- User&#45;&gt;Experience -->
<g id="edge9" class="edge"><title>User&#45;&gt;Experience</title>
<path fill="none" stroke="#d12c8e" d="M672.643,-1100.05C626.84,-1070.73 578.089,-1030.39 550.505,-980 499.235,-886.336 523.658,-607.195 512.505,-501 506.177,-440.736 497.306,-373.064 490.078,-320.863"/>
<polygon fill="#d12c8e" stroke="#d12c8e" points="672.687,-1100.08 678.762,-1109.21 676.921,-1102.74 681.155,-1105.4 681.155,-1105.4 681.155,-1105.4 676.921,-1102.74 683.549,-1101.59 672.687,-1100.08 672.687,-1100.08"/>
<polygon fill="#d12c8e" stroke="#d12c8e" points="490.033,-320.54 493.113,-310.016 489.345,-315.588 488.656,-310.636 488.656,-310.636 488.656,-310.636 489.345,-315.588 484.199,-311.256 490.033,-320.54 490.033,-320.54"/>
</g>
<!-- User&#45;&gt;HomepageInfo -->
<g id="edge10" class="edge"><title>User&#45;&gt;HomepageInfo</title>
<path fill="none" stroke="#1f61d1" d="M743.195,-1008.46C727.3,-950.081 709.537,-884.847 695.55,-833.477"/>
<ellipse fill="none" stroke="#1f61d1" cx="744.277" cy="-1012.43" rx="4.00001" ry="4.00001"/>
<ellipse fill="#1f61d1" stroke="#1f61d1" cx="694.477" cy="-829.538" rx="4.00001" ry="4.00001"/>
</g>
<!-- User&#45;&gt;PersonalInfo -->
<g id="edge11" class="edge"><title>User&#45;&gt;PersonalInfo</title>
<path fill="none" stroke="#b67bcb" d="M823.818,-1008.45C825.655,-1001.7 827.517,-994.863 829.395,-987.966"/>
<ellipse fill="none" stroke="#b67bcb" cx="822.734" cy="-1012.43" rx="4.00001" ry="4.00001"/>
<ellipse fill="#b67bcb" stroke="#b67bcb" cx="830.556" cy="-983.702" rx="4.00001" ry="4.00001"/>
</g>
<!-- User&#45;&gt;Photo -->
<g id="edge17" class="edge"><title>User&#45;&gt;Photo</title>
<path fill="none" stroke="#302143" d="M673.068,-1138.68C572.843,-1117.16 426.998,-1071.74 334.505,-980 291.412,-937.256 267.012,-872.625 253.606,-821.422"/>
<ellipse fill="none" stroke="#302143" cx="677.194" cy="-1139.55" rx="4.00001" ry="4.00001"/>
<polygon fill="#302143" stroke="#302143" points="253.599,-821.394 255.512,-810.596 252.374,-816.546 251.149,-811.698 251.149,-811.698 251.149,-811.698 252.374,-816.546 246.786,-812.801 253.599,-821.394 253.599,-821.394"/>
</g>
<!-- User&#45;&gt;PhotoLink -->
<g id="edge12" class="edge"><title>User&#45;&gt;PhotoLink</title>
<path fill="none" stroke="#ba1e24" d="M892.896,-1088.76C932.51,-1059.55 974.573,-1022.32 1003.51,-980 1041.17,-924.9 1060.65,-849.941 1070.2,-798.861"/>
<ellipse fill="none" stroke="#ba1e24" cx="889.281" cy="-1091.4" rx="4.00002" ry="4.00002"/>
<ellipse fill="#ba1e24" stroke="#ba1e24" cx="1070.93" cy="-794.81" rx="4.00001" ry="4.00001"/>
</g>
<!-- User&#45;&gt;Project -->
<g id="edge14" class="edge"><title>User&#45;&gt;Project</title>
<path fill="none" stroke="#64fa46" d="M896.101,-1155.04C1022.16,-1146.67 1221.58,-1111.78 1319.51,-980 1349.3,-939.899 1350.11,-677.431 1346.03,-474.927"/>
<polygon fill="#64fa46" stroke="#64fa46" points="896.005,-1155.05 885.746,-1151.17 891.015,-1155.36 886.024,-1155.66 886.024,-1155.66 886.024,-1155.66 891.015,-1155.36 886.302,-1160.16 896.005,-1155.05 896.005,-1155.05"/>
<polygon fill="#64fa46" stroke="#64fa46" points="1346.02,-474.722 1350.32,-464.631 1345.92,-469.723 1345.82,-464.724 1345.82,-464.724 1345.82,-464.724 1345.92,-469.723 1341.32,-464.817 1346.02,-474.722 1346.02,-474.722"/>
</g>
<!-- User&#45;&gt;Showcase -->
<g id="edge13" class="edge"><title>User&#45;&gt;Showcase</title>
<path fill="none" stroke="#31a0c0" d="M893.706,-1129.14C976.003,-1103.41 1085.7,-1057.05 1154.51,-980 1200.14,-928.9 1220.62,-851.169 1229.65,-798.45"/>
<ellipse fill="none" stroke="#31a0c0" cx="889.652" cy="-1130.39" rx="4.00001" ry="4.00001"/>
<ellipse fill="#31a0c0" stroke="#31a0c0" cx="1230.3" cy="-794.483" rx="4.00001" ry="4.00001"/>
</g>
<!-- User&#45;&gt;SocialLink -->
<g id="edge15" class="edge"><title>User&#45;&gt;SocialLink</title>
<path fill="none" stroke="#0893ab" d="M894.203,-1151.03C1020.96,-1138.95 1227.2,-1100.65 1352.51,-980 1390.55,-943.37 1411.39,-888.497 1422.79,-840.617"/>
<ellipse fill="none" stroke="#0893ab" cx="889.954" cy="-1151.42" rx="4" ry="4"/>
<ellipse fill="#0893ab" stroke="#0893ab" cx="1423.71" cy="-836.589" rx="4.00001" ry="4.00001"/>
</g>
<!-- WebsiteSetting -->
<g id="node15" class="node"><title>WebsiteSetting</title>
<path fill="none" stroke="black" d="M1536.21,-683.5C1536.21,-683.5 1646.8,-683.5 1646.8,-683.5 1652.8,-683.5 1658.8,-689.5 1658.8,-695.5 1658.8,-695.5 1658.8,-785.5 1658.8,-785.5 1658.8,-791.5 1652.8,-797.5 1646.8,-797.5 1646.8,-797.5 1536.21,-797.5 1536.21,-797.5 1530.21,-797.5 1524.21,-791.5 1524.21,-785.5 1524.21,-785.5 1524.21,-695.5 1524.21,-695.5 1524.21,-689.5 1530.21,-683.5 1536.21,-683.5"/>
<text text-anchor="middle" x="1591.51" y="-782.3" font-family="Times,serif" font-size="14.00">WebsiteSetting</text>
<polyline fill="none" stroke="black" points="1524.21,-775.5 1658.8,-775.5 "/>
<text text-anchor="start" x="1532.21" y="-760.3" font-family="Times,serif" font-size="14.00">id :integer</text>
<text text-anchor="start" x="1532.21" y="-746.3" font-family="Times,serif" font-size="14.00">domain_name :string</text>
<text text-anchor="start" x="1532.21" y="-732.3" font-family="Times,serif" font-size="14.00">color :integer</text>
<text text-anchor="start" x="1532.21" y="-718.3" font-family="Times,serif" font-size="14.00">created_at :datetime</text>
<text text-anchor="start" x="1532.21" y="-704.3" font-family="Times,serif" font-size="14.00">updated_at :datetime</text>
<text text-anchor="start" x="1532.21" y="-690.3" font-family="Times,serif" font-size="14.00">user_id :integer</text>
</g>
<!-- User&#45;&gt;WebsiteSetting -->
<g id="edge16" class="edge"><title>User&#45;&gt;WebsiteSetting</title>
<path fill="none" stroke="#205c68" d="M893.881,-1143.22C1075.42,-1119.27 1425.86,-1063.42 1515.51,-980 1563.69,-935.156 1581.47,-859.88 1587.94,-805.885"/>
<ellipse fill="none" stroke="#205c68" cx="889.865" cy="-1143.75" rx="4.00001" ry="4.00001"/>
<ellipse fill="#205c68" stroke="#205c68" cx="1588.41" cy="-801.72" rx="4.00001" ry="4.00001"/>
</g>
</g>
</svg>
