<?xml version="1.0" encoding="UTF-8" standalone="no"?>
<!DOCTYPE svg PUBLIC "-//W3C//DTD SVG 1.1//EN"
 "http://www.w3.org/Graphics/SVG/1.1/DTD/svg11.dtd">
<!-- Generated by graphviz version 2.38.0 (20140413.2041)
 -->
<!-- Title: models_diagram Pages: 1 -->
<svg width="1191pt" height="297pt"
 viewBox="0.00 0.00 1190.82 297.00" xmlns="http://www.w3.org/2000/svg" xmlns:xlink="http://www.w3.org/1999/xlink">
<g id="graph0" class="graph" transform="scale(1 1) rotate(0) translate(4 293)">
<title>models_diagram</title>
<polygon fill="none" stroke="none" points="-4,4 -4,-293 1186.82,-293 1186.82,4 -4,4"/>
<!-- _diagram_info -->
<g id="node1" class="node"><title>_diagram_info</title>
<text text-anchor="start" x="138.972" y="-274.6" font-family="Times,serif" font-size="13.00">Models diagram</text>
<text text-anchor="start" x="138.972" y="-261.6" font-family="Times,serif" font-size="13.00">Date: May 17 2016 &#45; 11:27</text>
<text text-anchor="start" x="138.972" y="-248.6" font-family="Times,serif" font-size="13.00">Migration version: 20160517152708</text>
<text text-anchor="start" x="138.972" y="-235.6" font-family="Times,serif" font-size="13.00">Generated by RailRoady 1.3.1</text>
<text text-anchor="start" x="138.972" y="-222.6" font-family="Times,serif" font-size="13.00">http://railroady.prestonlee.com</text>
</g>
<!-- Ability -->
<g id="node2" class="node"><title>Ability</title>
<polygon fill="none" stroke="black" points="412.329,-270.5 356.99,-270.5 356.99,-234.5 412.329,-234.5 412.329,-270.5"/>
<text text-anchor="middle" x="384.66" y="-248.3" font-family="Times,serif" font-size="14.00">Ability</text>
</g>
<!-- Article -->
<g id="node3" class="node"><title>Article</title>
<ellipse fill="none" stroke="black" cx="34.6595" cy="-90" rx="34.8198" ry="18"/>
<text text-anchor="middle" x="34.6595" y="-85.8" font-family="Times,serif" font-size="14.00">Article</text>
</g>
<!-- BackgroundInfo -->
<g id="node4" class="node"><title>BackgroundInfo</title>
<ellipse fill="none" stroke="black" cx="234.66" cy="-90" rx="68.1287" ry="18"/>
<text text-anchor="middle" x="234.66" y="-85.8" font-family="Times,serif" font-size="14.00">BackgroundInfo</text>
</g>
<!-- Experience -->
<g id="node5" class="node"><title>Experience</title>
<ellipse fill="none" stroke="black" cx="659.66" cy="-18" rx="49.7533" ry="18"/>
<text text-anchor="middle" x="659.66" y="-13.8" font-family="Times,serif" font-size="14.00">Experience</text>
</g>
<!-- BackgroundInfo&#45;&gt;Experience -->
<g id="edge1" class="edge"><title>BackgroundInfo&#45;&gt;Experience</title>
<path fill="none" stroke="#0f0c92" d="M292.427,-75.8135C298.903,-74.4642 305.414,-73.1637 311.66,-72 414.093,-52.9137 534.444,-35.7417 603.411,-26.4001"/>
<ellipse fill="none" stroke="#0f0c92" cx="288.179" cy="-76.7133" rx="4.00001" ry="4.00001"/>
<polygon fill="#0f0c92" stroke="#0f0c92" points="603.706,-26.3604 614.217,-29.4838 608.661,-25.6923 613.616,-25.0242 613.616,-25.0242 613.616,-25.0242 608.661,-25.6923 613.015,-20.5645 603.706,-26.3604 603.706,-26.3604"/>
</g>
<!-- HomepageInfo -->
<g id="node6" class="node"><title>HomepageInfo</title>
<ellipse fill="none" stroke="black" cx="383.66" cy="-90" rx="63.2924" ry="18"/>
<text text-anchor="middle" x="383.66" y="-85.8" font-family="Times,serif" font-size="14.00">HomepageInfo</text>
</g>
<!-- PersonalInfo -->
<g id="node7" class="node"><title>PersonalInfo</title>
<ellipse fill="none" stroke="black" cx="519.66" cy="-90" rx="55.0922" ry="18"/>
<text text-anchor="middle" x="519.66" y="-85.8" font-family="Times,serif" font-size="14.00">PersonalInfo</text>
</g>
<!-- Photo -->
<g id="node8" class="node"><title>Photo</title>
<ellipse fill="none" stroke="black" cx="117.66" cy="-90" rx="30.9967" ry="18"/>
<text text-anchor="middle" x="117.66" y="-85.8" font-family="Times,serif" font-size="14.00">Photo</text>
</g>
<!-- PhotoLink -->
<g id="node9" class="node"><title>PhotoLink</title>
<ellipse fill="none" stroke="black" cx="640.66" cy="-90" rx="47.3995" ry="18"/>
<text text-anchor="middle" x="640.66" y="-85.8" font-family="Times,serif" font-size="14.00">PhotoLink</text>
</g>
<!-- Project -->
<g id="node10" class="node"><title>Project</title>
<ellipse fill="none" stroke="black" cx="1147.66" cy="-90" rx="35.3129" ry="18"/>
<text text-anchor="middle" x="1147.66" y="-85.8" font-family="Times,serif" font-size="14.00">Project</text>
</g>
<!-- School -->
<g id="node11" class="node"><title>School</title>
<ellipse fill="none" stroke="black" cx="465.66" cy="-252.5" rx="34.8458" ry="18"/>
<text text-anchor="middle" x="465.66" y="-248.3" font-family="Times,serif" font-size="14.00">School</text>
</g>
<!-- School&#45;&gt;Article -->
<g id="edge4" class="edge"><title>School&#45;&gt;Article</title>
<path fill="none" stroke="#cf406a" d="M442.167,-229.252C435.889,-224.266 428.84,-219.441 421.66,-216 353.971,-183.565 328.409,-202.041 256.66,-180 188.575,-159.085 112.064,-126.242 68.9833,-106.844"/>
<polygon fill="#cf406a" stroke="#cf406a" points="442.556,-229.581 447.287,-239.474 446.374,-232.809 450.192,-236.037 450.192,-236.037 450.192,-236.037 446.374,-232.809 453.097,-232.601 442.556,-229.581 442.556,-229.581"/>
<polygon fill="#cf406a" stroke="#cf406a" points="68.9096,-106.811 61.6572,-98.5858 64.3551,-104.748 59.8005,-102.685 59.8005,-102.685 59.8005,-102.685 64.3551,-104.748 57.9438,-106.784 68.9096,-106.811 68.9096,-106.811"/>
</g>
<!-- School&#45;&gt;Photo -->
<g id="edge5" class="edge"><title>School&#45;&gt;Photo</title>
<path fill="none" stroke="#81731d" d="M441.393,-229.851C435.209,-224.927 428.399,-219.981 421.66,-216 312.511,-151.519 274.665,-156.794 157.66,-108 155.485,-107.093 153.247,-106.155 150.991,-105.206"/>
<polygon fill="#81731d" stroke="#81731d" points="441.668,-230.079 446.5,-239.923 445.519,-233.268 449.37,-236.457 449.37,-236.457 449.37,-236.457 445.519,-233.268 452.24,-232.991 441.668,-230.079 441.668,-230.079"/>
<polygon fill="#81731d" stroke="#81731d" points="150.962,-105.194 143.502,-97.156 146.356,-103.247 141.751,-101.301 141.751,-101.301 141.751,-101.301 146.356,-103.247 139.999,-105.446 150.962,-105.194 150.962,-105.194"/>
</g>
<!-- School&#45;&gt;Project -->
<g id="edge3" class="edge"><title>School&#45;&gt;Project</title>
<path fill="none" stroke="#3af68c" d="M506.791,-242.341C606.024,-220.157 866.368,-161.426 1082.66,-108 1090.71,-106.011 1099.3,-103.816 1107.51,-101.683"/>
<polygon fill="#3af68c" stroke="#3af68c" points="506.63,-242.377 495.889,-240.166 501.75,-243.468 496.87,-244.558 496.87,-244.558 496.87,-244.558 501.75,-243.468 497.851,-248.949 506.63,-242.377 506.63,-242.377"/>
<polygon fill="#3af68c" stroke="#3af68c" points="1107.61,-101.659 1118.42,-103.482 1112.44,-100.394 1117.28,-99.1286 1117.28,-99.1286 1117.28,-99.1286 1112.44,-100.394 1116.14,-94.775 1107.61,-101.659 1107.61,-101.659"/>
</g>
<!-- User -->
<g id="node14" class="node"><title>User</title>
<ellipse fill="none" stroke="black" cx="579.66" cy="-162" rx="27" ry="18"/>
<text text-anchor="middle" x="579.66" y="-157.8" font-family="Times,serif" font-size="14.00">User</text>
</g>
<!-- School&#45;&gt;User -->
<g id="edge2" class="edge"><title>School&#45;&gt;User</title>
<path fill="none" stroke="#f01e7d" d="M490.677,-232.079C509.672,-217.332 535.674,-197.146 554.664,-182.404"/>
<ellipse fill="none" stroke="#f01e7d" cx="487.389" cy="-234.631" rx="4.00002" ry="4.00002"/>
<polygon fill="#f01e7d" stroke="#f01e7d" points="554.69,-182.385 565.348,-179.807 558.639,-179.318 562.589,-176.252 562.589,-176.252 562.589,-176.252 558.639,-179.318 559.829,-172.698 554.69,-182.385 554.69,-182.385"/>
</g>
<!-- Showcase -->
<g id="node12" class="node"><title>Showcase</title>
<ellipse fill="none" stroke="black" cx="751.66" cy="-90" rx="45.4441" ry="18"/>
<text text-anchor="middle" x="751.66" y="-85.8" font-family="Times,serif" font-size="14.00">Showcase</text>
</g>
<!-- SocialLink -->
<g id="node13" class="node"><title>SocialLink</title>
<ellipse fill="none" stroke="black" cx="863.66" cy="-90" rx="48.8273" ry="18"/>
<text text-anchor="middle" x="863.66" y="-85.8" font-family="Times,serif" font-size="14.00">SocialLink</text>
</g>
<!-- User&#45;&gt;Article -->
<g id="edge6" class="edge"><title>User&#45;&gt;Article</title>
<path fill="none" stroke="#0f2ed5" d="M544.504,-160.545C461.85,-158.776 249.217,-150.136 77.6595,-108 75.0455,-107.358 72.3785,-106.592 69.7173,-105.747"/>
<ellipse fill="none" stroke="#0f2ed5" cx="548.553" cy="-160.625" rx="4" ry="4"/>
<polygon fill="#0f2ed5" stroke="#0f2ed5" points="69.6465,-105.722 61.7003,-98.1651 64.9285,-104.067 60.2105,-102.411 60.2105,-102.411 60.2105,-102.411 64.9285,-104.067 58.7206,-106.658 69.6465,-105.722 69.6465,-105.722"/>
</g>
<!-- User&#45;&gt;BackgroundInfo -->
<g id="edge7" class="edge"><title>User&#45;&gt;BackgroundInfo</title>
<path fill="none" stroke="#acaa84" d="M546.104,-154.61C495.305,-144.882 395.872,-125.621 311.66,-108 305.535,-106.719 299.144,-105.353 292.775,-103.974"/>
<ellipse fill="none" stroke="#acaa84" cx="550.196" cy="-155.393" rx="4.00001" ry="4.00001"/>
<ellipse fill="#acaa84" stroke="#acaa84" cx="288.651" cy="-103.076" rx="4.00001" ry="4.00001"/>
</g>
<!-- User&#45;&gt;Experience -->
<g id="edge8" class="edge"><title>User&#45;&gt;Experience</title>
<path fill="none" stroke="#7fcb06" d="M616.699,-159.751C725.067,-155.719 1035.77,-141.326 1065.66,-108 1076.34,-96.0888 1076.22,-84.0237 1065.66,-72 1043.14,-46.3519 825.905,-29.3574 718.785,-22.4677"/>
<polygon fill="#7fcb06" stroke="#7fcb06" points="616.557,-159.756 606.4,-155.623 611.561,-159.938 606.564,-160.12 606.564,-160.12 606.564,-160.12 611.561,-159.938 606.728,-164.617 616.557,-159.756 616.557,-159.756"/>
<polygon fill="#7fcb06" stroke="#7fcb06" points="718.752,-22.4657 709.057,-17.3416 713.762,-22.1492 708.772,-21.8326 708.772,-21.8326 708.772,-21.8326 713.762,-22.1492 708.487,-26.3235 718.752,-22.4657 718.752,-22.4657"/>
</g>
<!-- User&#45;&gt;HomepageInfo -->
<g id="edge9" class="edge"><title>User&#45;&gt;HomepageInfo</title>
<path fill="none" stroke="#8d6046" d="M548.554,-149.891C516.416,-138.413 465.918,-120.378 429.267,-107.288"/>
<ellipse fill="none" stroke="#8d6046" cx="552.639" cy="-151.35" rx="4.00001" ry="4.00001"/>
<ellipse fill="#8d6046" stroke="#8d6046" cx="425.435" cy="-105.92" rx="4.00001" ry="4.00001"/>
</g>
<!-- User&#45;&gt;PersonalInfo -->
<g id="edge10" class="edge"><title>User&#45;&gt;PersonalInfo</title>
<path fill="none" stroke="#e6a847" d="M561.389,-139.684C554.358,-131.482 546.307,-122.089 539.165,-113.756"/>
<ellipse fill="none" stroke="#e6a847" cx="564.037" cy="-142.774" rx="4.00002" ry="4.00002"/>
<ellipse fill="#e6a847" stroke="#e6a847" cx="536.515" cy="-110.665" rx="4.00002" ry="4.00002"/>
</g>
<!-- User&#45;&gt;Photo -->
<g id="edge16" class="edge"><title>User&#45;&gt;Photo</title>
<path fill="none" stroke="#74faf4" d="M544.491,-159.861C471.288,-156.779 297.699,-145.765 157.66,-108 155.324,-107.37 152.945,-106.631 150.572,-105.821"/>
<ellipse fill="none" stroke="#74faf4" cx="548.503" cy="-160.022" rx="4" ry="4"/>
<polygon fill="#74faf4" stroke="#74faf4" points="150.316,-105.724 142.559,-97.9722 145.64,-103.952 140.965,-102.18 140.965,-102.18 140.965,-102.18 145.64,-103.952 139.37,-106.388 150.316,-105.724 150.316,-105.724"/>
</g>
<!-- User&#45;&gt;PhotoLink -->
<g id="edge11" class="edge"><title>User&#45;&gt;PhotoLink</title>
<path fill="none" stroke="#6df834" d="M598.015,-139.937C605.283,-131.596 613.651,-121.993 621.039,-113.515"/>
<ellipse fill="none" stroke="#6df834" cx="595.224" cy="-143.139" rx="4.00002" ry="4.00002"/>
<ellipse fill="#6df834" stroke="#6df834" cx="623.836" cy="-110.306" rx="4.00002" ry="4.00002"/>
</g>
<!-- User&#45;&gt;Project -->
<g id="edge13" class="edge"><title>User&#45;&gt;Project</title>
<path fill="none" stroke="#a7537f" d="M616.784,-160.156C702.614,-157.567 921.025,-147.323 1098.66,-108 1102.6,-107.127 1106.67,-106.039 1110.69,-104.837"/>
<polygon fill="#a7537f" stroke="#a7537f" points="616.745,-160.157 606.621,-155.943 611.747,-160.299 606.749,-160.441 606.749,-160.441 606.749,-160.441 611.747,-160.299 606.877,-164.939 616.745,-160.157 616.745,-160.157"/>
<polygon fill="#a7537f" stroke="#a7537f" points="1110.99,-104.739 1121.89,-105.956 1115.75,-103.206 1120.51,-101.673 1120.51,-101.673 1120.51,-101.673 1115.75,-103.206 1119.13,-97.3897 1110.99,-104.739 1110.99,-104.739"/>
</g>
<!-- User&#45;&gt;Showcase -->
<g id="edge12" class="edge"><title>User&#45;&gt;Showcase</title>
<path fill="none" stroke="#8bfc07" d="M609.691,-148.778C638.489,-137.058 682.088,-119.314 713.369,-106.583"/>
<ellipse fill="none" stroke="#8bfc07" cx="605.85" cy="-150.341" rx="4.00001" ry="4.00001"/>
<ellipse fill="#8bfc07" stroke="#8bfc07" cx="717.335" cy="-104.969" rx="4.00001" ry="4.00001"/>
</g>
<!-- User&#45;&gt;SocialLink -->
<g id="edge14" class="edge"><title>User&#45;&gt;SocialLink</title>
<path fill="none" stroke="#c71b8c" d="M613.016,-153.777C657.234,-144.066 737.607,-125.938 805.66,-108 809.972,-106.863 814.451,-105.635 818.922,-104.378"/>
<ellipse fill="none" stroke="#c71b8c" cx="609.099" cy="-154.635" rx="4.00001" ry="4.00001"/>
<ellipse fill="#c71b8c" stroke="#c71b8c" cx="823.079" cy="-103.193" rx="4.00001" ry="4.00001"/>
</g>
<!-- WebsiteSetting -->
<g id="node15" class="node"><title>WebsiteSetting</title>
<ellipse fill="none" stroke="black" cx="993.66" cy="-90" rx="63.3707" ry="18"/>
<text text-anchor="middle" x="993.66" y="-85.8" font-family="Times,serif" font-size="14.00">WebsiteSetting</text>
</g>
<!-- User&#45;&gt;WebsiteSetting -->
<g id="edge15" class="edge"><title>User&#45;&gt;WebsiteSetting</title>
<path fill="none" stroke="#913260" d="M614.199,-156.556C676.087,-148.392 809.862,-129.826 921.66,-108 927.466,-106.866 933.514,-105.59 939.529,-104.26"/>
<ellipse fill="none" stroke="#913260" cx="609.92" cy="-157.118" rx="4.00001" ry="4.00001"/>
<ellipse fill="#913260" stroke="#913260" cx="943.782" cy="-103.3" rx="4.00001" ry="4.00001"/>
</g>
</g>
</svg>
