<?xml version="1.0" encoding="UTF-8" standalone="no"?>
<!DOCTYPE svg PUBLIC "-//W3C//DTD SVG 1.1//EN"
 "http://www.w3.org/Graphics/SVG/1.1/DTD/svg11.dtd">
<!-- Generated by graphviz version 2.38.0 (20140413.2041)
 -->
<!-- Title: models_diagram Pages: 1 -->
<svg width="1548pt" height="1514pt"
 viewBox="0.00 0.00 1548.15 1514.00" xmlns="http://www.w3.org/2000/svg" xmlns:xlink="http://www.w3.org/1999/xlink">
<g id="graph0" class="graph" transform="scale(1 1) rotate(0) translate(4 1510)">
<title>models_diagram</title>
<polygon fill="none" stroke="none" points="-4,4 -4,-1510 1544.15,-1510 1544.15,4 -4,4"/>
<!-- _diagram_info -->
<g id="node1" class="node"><title>_diagram_info</title>
<text text-anchor="start" x="824.038" y="-1442.6" font-family="Times,serif" font-size="13.00">Models diagram</text>
<text text-anchor="start" x="824.038" y="-1429.6" font-family="Times,serif" font-size="13.00">Date: May 14 2016 &#45; 16:43</text>
<text text-anchor="start" x="824.038" y="-1416.6" font-family="Times,serif" font-size="13.00">Migration version: 20160514204317</text>
<text text-anchor="start" x="824.038" y="-1403.6" font-family="Times,serif" font-size="13.00">Generated by RailRoady 1.3.1</text>
<text text-anchor="start" x="824.038" y="-1390.6" font-family="Times,serif" font-size="13.00">http://railroady.prestonlee.com</text>
</g>
<!-- Ability -->
<g id="node2" class="node"><title>Ability</title>
<polygon fill="none" stroke="black" points="1041.89,-1398.5 1041.89,-1442.5 1097.56,-1442.5 1097.56,-1398.5 1041.89,-1398.5"/>
<text text-anchor="middle" x="1069.73" y="-1427.3" font-family="Times,serif" font-size="14.00">Ability</text>
<polyline fill="none" stroke="black" points="1041.89,-1420.5 1097.56,-1420.5 "/>
<text text-anchor="middle" x="1069.73" y="-1405.3" font-family="Times,serif" font-size="14.00"> </text>
</g>
<!-- Article -->
<g id="node3" class="node"><title>Article</title>
<path fill="none" stroke="black" d="M1345.22,-676.5C1345.22,-676.5 1454.23,-676.5 1454.23,-676.5 1460.23,-676.5 1466.23,-682.5 1466.23,-688.5 1466.23,-688.5 1466.23,-792.5 1466.23,-792.5 1466.23,-798.5 1460.23,-804.5 1454.23,-804.5 1454.23,-804.5 1345.22,-804.5 1345.22,-804.5 1339.22,-804.5 1333.22,-798.5 1333.22,-792.5 1333.22,-792.5 1333.22,-688.5 1333.22,-688.5 1333.22,-682.5 1339.22,-676.5 1345.22,-676.5"/>
<text text-anchor="middle" x="1399.73" y="-789.3" font-family="Times,serif" font-size="14.00">Article</text>
<polyline fill="none" stroke="black" points="1333.22,-782.5 1466.23,-782.5 "/>
<text text-anchor="start" x="1341.22" y="-767.3" font-family="Times,serif" font-size="14.00">id :integer</text>
<text text-anchor="start" x="1341.22" y="-753.3" font-family="Times,serif" font-size="14.00">title :string</text>
<text text-anchor="start" x="1341.22" y="-739.3" font-family="Times,serif" font-size="14.00">summary :text</text>
<text text-anchor="start" x="1341.22" y="-725.3" font-family="Times,serif" font-size="14.00">url :string</text>
<text text-anchor="start" x="1341.22" y="-711.3" font-family="Times,serif" font-size="14.00">created_at :datetime</text>
<text text-anchor="start" x="1341.22" y="-697.3" font-family="Times,serif" font-size="14.00">updated_at :datetime</text>
<text text-anchor="start" x="1341.22" y="-683.3" font-family="Times,serif" font-size="14.00">user_id :integer</text>
</g>
<!-- BackgroundInfo -->
<g id="node4" class="node"><title>BackgroundInfo</title>
<path fill="none" stroke="black" d="M12,-690.5C12,-690.5 147.452,-690.5 147.452,-690.5 153.452,-690.5 159.452,-696.5 159.452,-702.5 159.452,-702.5 159.452,-778.5 159.452,-778.5 159.452,-784.5 153.452,-790.5 147.452,-790.5 147.452,-790.5 12,-790.5 12,-790.5 6,-790.5 0,-784.5 0,-778.5 0,-778.5 0,-702.5 0,-702.5 0,-696.5 6,-690.5 12,-690.5"/>
<text text-anchor="middle" x="79.7261" y="-775.3" font-family="Times,serif" font-size="14.00">BackgroundInfo</text>
<polyline fill="none" stroke="black" points="0,-768.5 159.452,-768.5 "/>
<text text-anchor="start" x="8" y="-753.3" font-family="Times,serif" font-size="14.00">id :integer</text>
<text text-anchor="start" x="8" y="-739.3" font-family="Times,serif" font-size="14.00">background_type :integer</text>
<text text-anchor="start" x="8" y="-725.3" font-family="Times,serif" font-size="14.00">created_at :datetime</text>
<text text-anchor="start" x="8" y="-711.3" font-family="Times,serif" font-size="14.00">updated_at :datetime</text>
<text text-anchor="start" x="8" y="-697.3" font-family="Times,serif" font-size="14.00">user_id :integer</text>
</g>
<!-- Experience -->
<g id="node5" class="node"><title>Experience</title>
<path fill="none" stroke="black" d="M57.8311,-154.5C57.8311,-154.5 209.621,-154.5 209.621,-154.5 215.621,-154.5 221.621,-160.5 221.621,-166.5 221.621,-166.5 221.621,-298.5 221.621,-298.5 221.621,-304.5 215.621,-310.5 209.621,-310.5 209.621,-310.5 57.8311,-310.5 57.8311,-310.5 51.8311,-310.5 45.8311,-304.5 45.8311,-298.5 45.8311,-298.5 45.8311,-166.5 45.8311,-166.5 45.8311,-160.5 51.8311,-154.5 57.8311,-154.5"/>
<text text-anchor="middle" x="133.726" y="-295.3" font-family="Times,serif" font-size="14.00">Experience</text>
<polyline fill="none" stroke="black" points="45.8311,-288.5 221.621,-288.5 "/>
<text text-anchor="start" x="53.8311" y="-273.3" font-family="Times,serif" font-size="14.00">id :integer</text>
<text text-anchor="start" x="53.8311" y="-259.3" font-family="Times,serif" font-size="14.00">url :string</text>
<text text-anchor="start" x="53.8311" y="-245.3" font-family="Times,serif" font-size="14.00">created_at :datetime</text>
<text text-anchor="start" x="53.8311" y="-231.3" font-family="Times,serif" font-size="14.00">updated_at :datetime</text>
<text text-anchor="start" x="53.8311" y="-217.3" font-family="Times,serif" font-size="14.00">img_file_name :string</text>
<text text-anchor="start" x="53.8311" y="-203.3" font-family="Times,serif" font-size="14.00">img_content_type :string</text>
<text text-anchor="start" x="53.8311" y="-189.3" font-family="Times,serif" font-size="14.00">img_file_size :integer</text>
<text text-anchor="start" x="53.8311" y="-175.3" font-family="Times,serif" font-size="14.00">img_updated_at :datetime</text>
<text text-anchor="start" x="53.8311" y="-161.3" font-family="Times,serif" font-size="14.00">background_info_id :integer</text>
</g>
<!-- BackgroundInfo&#45;&gt;Experience -->
<g id="edge1" class="edge"><title>BackgroundInfo&#45;&gt;Experience</title>
<path fill="none" stroke="#2238d4" d="M85.8576,-682.045C95.2771,-593.781 113.374,-424.207 124.417,-320.726"/>
<ellipse fill="none" stroke="#2238d4" cx="85.4267" cy="-686.084" rx="4" ry="4"/>
<polygon fill="#2238d4" stroke="#2238d4" points="124.435,-320.557 129.971,-311.091 124.966,-315.586 125.497,-310.614 125.497,-310.614 125.497,-310.614 124.966,-315.586 121.022,-310.136 124.435,-320.557 124.435,-320.557"/>
</g>
<!-- HomepageInfo -->
<g id="node6" class="node"><title>HomepageInfo</title>
<path fill="none" stroke="black" d="M392.903,-655.5C392.903,-655.5 590.549,-655.5 590.549,-655.5 596.549,-655.5 602.549,-661.5 602.549,-667.5 602.549,-667.5 602.549,-813.5 602.549,-813.5 602.549,-819.5 596.549,-825.5 590.549,-825.5 590.549,-825.5 392.903,-825.5 392.903,-825.5 386.903,-825.5 380.903,-819.5 380.903,-813.5 380.903,-813.5 380.903,-667.5 380.903,-667.5 380.903,-661.5 386.903,-655.5 392.903,-655.5"/>
<text text-anchor="middle" x="491.726" y="-810.3" font-family="Times,serif" font-size="14.00">HomepageInfo</text>
<polyline fill="none" stroke="black" points="380.903,-803.5 602.549,-803.5 "/>
<text text-anchor="start" x="388.903" y="-788.3" font-family="Times,serif" font-size="14.00">id :integer</text>
<text text-anchor="start" x="388.903" y="-774.3" font-family="Times,serif" font-size="14.00">homepage_header :string</text>
<text text-anchor="start" x="388.903" y="-760.3" font-family="Times,serif" font-size="14.00">homepage_display_name :string</text>
<text text-anchor="start" x="388.903" y="-746.3" font-family="Times,serif" font-size="14.00">user_id :integer</text>
<text text-anchor="start" x="388.903" y="-732.3" font-family="Times,serif" font-size="14.00">created_at :datetime</text>
<text text-anchor="start" x="388.903" y="-718.3" font-family="Times,serif" font-size="14.00">updated_at :datetime</text>
<text text-anchor="start" x="388.903" y="-704.3" font-family="Times,serif" font-size="14.00">homepage_pic_file_name :string</text>
<text text-anchor="start" x="388.903" y="-690.3" font-family="Times,serif" font-size="14.00">homepage_pic_content_type :string</text>
<text text-anchor="start" x="388.903" y="-676.3" font-family="Times,serif" font-size="14.00">homepage_pic_file_size :integer</text>
<text text-anchor="start" x="388.903" y="-662.3" font-family="Times,serif" font-size="14.00">homepage_pic_updated_at :datetime</text>
</g>
<!-- PersonalInfo -->
<g id="node7" class="node"><title>PersonalInfo</title>
<path fill="none" stroke="black" d="M632.117,-501.5C632.117,-501.5 803.335,-501.5 803.335,-501.5 809.335,-501.5 815.335,-507.5 815.335,-513.5 815.335,-513.5 815.335,-967.5 815.335,-967.5 815.335,-973.5 809.335,-979.5 803.335,-979.5 803.335,-979.5 632.117,-979.5 632.117,-979.5 626.117,-979.5 620.117,-973.5 620.117,-967.5 620.117,-967.5 620.117,-513.5 620.117,-513.5 620.117,-507.5 626.117,-501.5 632.117,-501.5"/>
<text text-anchor="middle" x="717.726" y="-964.3" font-family="Times,serif" font-size="14.00">PersonalInfo</text>
<polyline fill="none" stroke="black" points="620.117,-957.5 815.335,-957.5 "/>
<text text-anchor="start" x="628.117" y="-942.3" font-family="Times,serif" font-size="14.00">id :integer</text>
<text text-anchor="start" x="628.117" y="-928.3" font-family="Times,serif" font-size="14.00">name_first :string</text>
<text text-anchor="start" x="628.117" y="-914.3" font-family="Times,serif" font-size="14.00">name_last :string</text>
<text text-anchor="start" x="628.117" y="-900.3" font-family="Times,serif" font-size="14.00">intro_paragraph :text</text>
<text text-anchor="start" x="628.117" y="-886.3" font-family="Times,serif" font-size="14.00">created_at :datetime</text>
<text text-anchor="start" x="628.117" y="-872.3" font-family="Times,serif" font-size="14.00">updated_at :datetime</text>
<text text-anchor="start" x="628.117" y="-858.3" font-family="Times,serif" font-size="14.00">about_pic_file_name :string</text>
<text text-anchor="start" x="628.117" y="-844.3" font-family="Times,serif" font-size="14.00">about_pic_content_type :string</text>
<text text-anchor="start" x="628.117" y="-830.3" font-family="Times,serif" font-size="14.00">about_pic_file_size :integer</text>
<text text-anchor="start" x="628.117" y="-816.3" font-family="Times,serif" font-size="14.00">about_pic_updated_at :datetime</text>
<text text-anchor="start" x="628.117" y="-802.3" font-family="Times,serif" font-size="14.00">user_id :integer</text>
<text text-anchor="start" x="628.117" y="-788.3" font-family="Times,serif" font-size="14.00">resume_file_name :string</text>
<text text-anchor="start" x="628.117" y="-774.3" font-family="Times,serif" font-size="14.00">resume_content_type :string</text>
<text text-anchor="start" x="628.117" y="-760.3" font-family="Times,serif" font-size="14.00">resume_file_size :integer</text>
<text text-anchor="start" x="628.117" y="-746.3" font-family="Times,serif" font-size="14.00">resume_updated_at :datetime</text>
<text text-anchor="start" x="628.117" y="-732.3" font-family="Times,serif" font-size="14.00">vertical :boolean</text>
<text text-anchor="start" x="628.117" y="-718.3" font-family="Times,serif" font-size="14.00">exp1_file_name :string</text>
<text text-anchor="start" x="628.117" y="-704.3" font-family="Times,serif" font-size="14.00">exp1_content_type :string</text>
<text text-anchor="start" x="628.117" y="-690.3" font-family="Times,serif" font-size="14.00">exp1_file_size :integer</text>
<text text-anchor="start" x="628.117" y="-676.3" font-family="Times,serif" font-size="14.00">exp1_updated_at :datetime</text>
<text text-anchor="start" x="628.117" y="-662.3" font-family="Times,serif" font-size="14.00">exp2_file_name :string</text>
<text text-anchor="start" x="628.117" y="-648.3" font-family="Times,serif" font-size="14.00">exp2_content_type :string</text>
<text text-anchor="start" x="628.117" y="-634.3" font-family="Times,serif" font-size="14.00">exp2_file_size :integer</text>
<text text-anchor="start" x="628.117" y="-620.3" font-family="Times,serif" font-size="14.00">exp2_updated_at :datetime</text>
<text text-anchor="start" x="628.117" y="-606.3" font-family="Times,serif" font-size="14.00">exp3_file_name :string</text>
<text text-anchor="start" x="628.117" y="-592.3" font-family="Times,serif" font-size="14.00">exp3_content_type :string</text>
<text text-anchor="start" x="628.117" y="-578.3" font-family="Times,serif" font-size="14.00">exp3_file_size :integer</text>
<text text-anchor="start" x="628.117" y="-564.3" font-family="Times,serif" font-size="14.00">exp3_updated_at :datetime</text>
<text text-anchor="start" x="628.117" y="-550.3" font-family="Times,serif" font-size="14.00">exp4_file_name :string</text>
<text text-anchor="start" x="628.117" y="-536.3" font-family="Times,serif" font-size="14.00">exp4_content_type :string</text>
<text text-anchor="start" x="628.117" y="-522.3" font-family="Times,serif" font-size="14.00">exp4_file_size :integer</text>
<text text-anchor="start" x="628.117" y="-508.3" font-family="Times,serif" font-size="14.00">exp4_updated_at :datetime</text>
</g>
<!-- PhotoLink -->
<g id="node8" class="node"><title>PhotoLink</title>
<path fill="none" stroke="black" d="M845.221,-690.5C845.221,-690.5 954.231,-690.5 954.231,-690.5 960.231,-690.5 966.231,-696.5 966.231,-702.5 966.231,-702.5 966.231,-778.5 966.231,-778.5 966.231,-784.5 960.231,-790.5 954.231,-790.5 954.231,-790.5 845.221,-790.5 845.221,-790.5 839.221,-790.5 833.221,-784.5 833.221,-778.5 833.221,-778.5 833.221,-702.5 833.221,-702.5 833.221,-696.5 839.221,-690.5 845.221,-690.5"/>
<text text-anchor="middle" x="899.726" y="-775.3" font-family="Times,serif" font-size="14.00">PhotoLink</text>
<polyline fill="none" stroke="black" points="833.221,-768.5 966.231,-768.5 "/>
<text text-anchor="start" x="841.221" y="-753.3" font-family="Times,serif" font-size="14.00">id :integer</text>
<text text-anchor="start" x="841.221" y="-739.3" font-family="Times,serif" font-size="14.00">tumblr_url :string</text>
<text text-anchor="start" x="841.221" y="-725.3" font-family="Times,serif" font-size="14.00">user_id :integer</text>
<text text-anchor="start" x="841.221" y="-711.3" font-family="Times,serif" font-size="14.00">created_at :datetime</text>
<text text-anchor="start" x="841.221" y="-697.3" font-family="Times,serif" font-size="14.00">updated_at :datetime</text>
</g>
<!-- Project -->
<g id="node9" class="node"><title>Project</title>
<path fill="none" stroke="black" d="M924.276,-0.5C924.276,-0.5 1065.18,-0.5 1065.18,-0.5 1071.18,-0.5 1077.18,-6.5 1077.18,-12.5 1077.18,-12.5 1077.18,-452.5 1077.18,-452.5 1077.18,-458.5 1071.18,-464.5 1065.18,-464.5 1065.18,-464.5 924.276,-464.5 924.276,-464.5 918.276,-464.5 912.276,-458.5 912.276,-452.5 912.276,-452.5 912.276,-12.5 912.276,-12.5 912.276,-6.5 918.276,-0.5 924.276,-0.5"/>
<text text-anchor="middle" x="994.726" y="-449.3" font-family="Times,serif" font-size="14.00">Project</text>
<polyline fill="none" stroke="black" points="912.276,-442.5 1077.18,-442.5 "/>
<text text-anchor="start" x="920.276" y="-427.3" font-family="Times,serif" font-size="14.00">id :integer</text>
<text text-anchor="start" x="920.276" y="-413.3" font-family="Times,serif" font-size="14.00">title :string</text>
<text text-anchor="start" x="920.276" y="-399.3" font-family="Times,serif" font-size="14.00">paragraph :text</text>
<text text-anchor="start" x="920.276" y="-385.3" font-family="Times,serif" font-size="14.00">created_at :datetime</text>
<text text-anchor="start" x="920.276" y="-371.3" font-family="Times,serif" font-size="14.00">updated_at :datetime</text>
<text text-anchor="start" x="920.276" y="-357.3" font-family="Times,serif" font-size="14.00">file1_file_name :string</text>
<text text-anchor="start" x="920.276" y="-343.3" font-family="Times,serif" font-size="14.00">file1_content_type :string</text>
<text text-anchor="start" x="920.276" y="-329.3" font-family="Times,serif" font-size="14.00">file1_file_size :integer</text>
<text text-anchor="start" x="920.276" y="-315.3" font-family="Times,serif" font-size="14.00">file1_updated_at :datetime</text>
<text text-anchor="start" x="920.276" y="-301.3" font-family="Times,serif" font-size="14.00">file2_file_name :string</text>
<text text-anchor="start" x="920.276" y="-287.3" font-family="Times,serif" font-size="14.00">file2_content_type :string</text>
<text text-anchor="start" x="920.276" y="-273.3" font-family="Times,serif" font-size="14.00">file2_file_size :integer</text>
<text text-anchor="start" x="920.276" y="-259.3" font-family="Times,serif" font-size="14.00">file2_updated_at :datetime</text>
<text text-anchor="start" x="920.276" y="-245.3" font-family="Times,serif" font-size="14.00">file3_file_name :string</text>
<text text-anchor="start" x="920.276" y="-231.3" font-family="Times,serif" font-size="14.00">file3_content_type :string</text>
<text text-anchor="start" x="920.276" y="-217.3" font-family="Times,serif" font-size="14.00">file3_file_size :integer</text>
<text text-anchor="start" x="920.276" y="-203.3" font-family="Times,serif" font-size="14.00">file3_updated_at :datetime</text>
<text text-anchor="start" x="920.276" y="-189.3" font-family="Times,serif" font-size="14.00">file4_file_name :string</text>
<text text-anchor="start" x="920.276" y="-175.3" font-family="Times,serif" font-size="14.00">file4_content_type :string</text>
<text text-anchor="start" x="920.276" y="-161.3" font-family="Times,serif" font-size="14.00">file4_file_size :integer</text>
<text text-anchor="start" x="920.276" y="-147.3" font-family="Times,serif" font-size="14.00">file4_updated_at :datetime</text>
<text text-anchor="start" x="920.276" y="-133.3" font-family="Times,serif" font-size="14.00">showcase_id :integer</text>
<text text-anchor="start" x="920.276" y="-119.3" font-family="Times,serif" font-size="14.00">file1_type :integer</text>
<text text-anchor="start" x="920.276" y="-105.3" font-family="Times,serif" font-size="14.00">file2_type :integer</text>
<text text-anchor="start" x="920.276" y="-91.3" font-family="Times,serif" font-size="14.00">file3_type :integer</text>
<text text-anchor="start" x="920.276" y="-77.3" font-family="Times,serif" font-size="14.00">file4_type :integer</text>
<text text-anchor="start" x="920.276" y="-63.3" font-family="Times,serif" font-size="14.00">file1_title :string</text>
<text text-anchor="start" x="920.276" y="-49.3" font-family="Times,serif" font-size="14.00">file2_title :string</text>
<text text-anchor="start" x="920.276" y="-35.3" font-family="Times,serif" font-size="14.00">file3_title :string</text>
<text text-anchor="start" x="920.276" y="-21.3" font-family="Times,serif" font-size="14.00">file4_title :string</text>
<text text-anchor="start" x="920.276" y="-7.3" font-family="Times,serif" font-size="14.00">url :string</text>
</g>
<!-- School -->
<g id="node10" class="node"><title>School</title>
<path fill="none" stroke="black" d="M1127.28,-1335.5C1127.28,-1335.5 1268.18,-1335.5 1268.18,-1335.5 1274.18,-1335.5 1280.18,-1341.5 1280.18,-1347.5 1280.18,-1347.5 1280.18,-1493.5 1280.18,-1493.5 1280.18,-1499.5 1274.18,-1505.5 1268.18,-1505.5 1268.18,-1505.5 1127.28,-1505.5 1127.28,-1505.5 1121.28,-1505.5 1115.28,-1499.5 1115.28,-1493.5 1115.28,-1493.5 1115.28,-1347.5 1115.28,-1347.5 1115.28,-1341.5 1121.28,-1335.5 1127.28,-1335.5"/>
<text text-anchor="middle" x="1197.73" y="-1490.3" font-family="Times,serif" font-size="14.00">School</text>
<polyline fill="none" stroke="black" points="1115.28,-1483.5 1280.18,-1483.5 "/>
<text text-anchor="start" x="1123.28" y="-1468.3" font-family="Times,serif" font-size="14.00">id :integer</text>
<text text-anchor="start" x="1123.28" y="-1454.3" font-family="Times,serif" font-size="14.00">name :string</text>
<text text-anchor="start" x="1123.28" y="-1440.3" font-family="Times,serif" font-size="14.00">created_at :datetime</text>
<text text-anchor="start" x="1123.28" y="-1426.3" font-family="Times,serif" font-size="14.00">updated_at :datetime</text>
<text text-anchor="start" x="1123.28" y="-1412.3" font-family="Times,serif" font-size="14.00">logo_file_name :string</text>
<text text-anchor="start" x="1123.28" y="-1398.3" font-family="Times,serif" font-size="14.00">logo_content_type :string</text>
<text text-anchor="start" x="1123.28" y="-1384.3" font-family="Times,serif" font-size="14.00">logo_file_size :integer</text>
<text text-anchor="start" x="1123.28" y="-1370.3" font-family="Times,serif" font-size="14.00">logo_updated_at :datetime</text>
<text text-anchor="start" x="1123.28" y="-1356.3" font-family="Times,serif" font-size="14.00">color1 :string</text>
<text text-anchor="start" x="1123.28" y="-1342.3" font-family="Times,serif" font-size="14.00">color2 :string</text>
</g>
<!-- School&#45;&gt;Project -->
<g id="edge3" class="edge"><title>School&#45;&gt;Project</title>
<path fill="none" stroke="#a3edea" d="M1278.09,-1327.45C1345.71,-1243.44 1437.33,-1112.52 1475.73,-980 1534.97,-775.52 1583.65,-684.507 1475.73,-501 1391.95,-358.544 1201.81,-286.476 1087.28,-254.712"/>
<polygon fill="#a3edea" stroke="#a3edea" points="1277.92,-1327.66 1268.13,-1332.6 1274.77,-1331.55 1271.63,-1335.43 1271.63,-1335.43 1271.63,-1335.43 1274.77,-1331.55 1275.12,-1338.26 1277.92,-1327.66 1277.92,-1327.66"/>
<polygon fill="#a3edea" stroke="#a3edea" points="1087.11,-254.665 1078.65,-247.694 1082.29,-253.351 1077.46,-252.036 1077.46,-252.036 1077.46,-252.036 1082.29,-253.351 1076.28,-256.378 1087.11,-254.665 1087.11,-254.665"/>
</g>
<!-- User -->
<g id="node13" class="node"><title>User</title>
<path fill="none" stroke="black" d="M809.448,-1016.5C809.448,-1016.5 990.004,-1016.5 990.004,-1016.5 996.004,-1016.5 1002,-1022.5 1002,-1028.5 1002,-1028.5 1002,-1286.5 1002,-1286.5 1002,-1292.5 996.004,-1298.5 990.004,-1298.5 990.004,-1298.5 809.448,-1298.5 809.448,-1298.5 803.448,-1298.5 797.448,-1292.5 797.448,-1286.5 797.448,-1286.5 797.448,-1028.5 797.448,-1028.5 797.448,-1022.5 803.448,-1016.5 809.448,-1016.5"/>
<text text-anchor="middle" x="899.726" y="-1283.3" font-family="Times,serif" font-size="14.00">User</text>
<polyline fill="none" stroke="black" points="797.448,-1276.5 1002,-1276.5 "/>
<text text-anchor="start" x="805.448" y="-1261.3" font-family="Times,serif" font-size="14.00">id :integer</text>
<text text-anchor="start" x="805.448" y="-1247.3" font-family="Times,serif" font-size="14.00">created_at :datetime</text>
<text text-anchor="start" x="805.448" y="-1233.3" font-family="Times,serif" font-size="14.00">updated_at :datetime</text>
<text text-anchor="start" x="805.448" y="-1219.3" font-family="Times,serif" font-size="14.00">email :string</text>
<text text-anchor="start" x="805.448" y="-1205.3" font-family="Times,serif" font-size="14.00">encrypted_password :string</text>
<text text-anchor="start" x="805.448" y="-1191.3" font-family="Times,serif" font-size="14.00">reset_password_token :string</text>
<text text-anchor="start" x="805.448" y="-1177.3" font-family="Times,serif" font-size="14.00">reset_password_sent_at :datetime</text>
<text text-anchor="start" x="805.448" y="-1163.3" font-family="Times,serif" font-size="14.00">remember_created_at :datetime</text>
<text text-anchor="start" x="805.448" y="-1149.3" font-family="Times,serif" font-size="14.00">sign_in_count :integer</text>
<text text-anchor="start" x="805.448" y="-1135.3" font-family="Times,serif" font-size="14.00">current_sign_in_at :datetime</text>
<text text-anchor="start" x="805.448" y="-1121.3" font-family="Times,serif" font-size="14.00">last_sign_in_at :datetime</text>
<text text-anchor="start" x="805.448" y="-1107.3" font-family="Times,serif" font-size="14.00">current_sign_in_ip :inet</text>
<text text-anchor="start" x="805.448" y="-1093.3" font-family="Times,serif" font-size="14.00">last_sign_in_ip :inet</text>
<text text-anchor="start" x="805.448" y="-1079.3" font-family="Times,serif" font-size="14.00">confirmation_token :string</text>
<text text-anchor="start" x="805.448" y="-1065.3" font-family="Times,serif" font-size="14.00">confirmed_at :datetime</text>
<text text-anchor="start" x="805.448" y="-1051.3" font-family="Times,serif" font-size="14.00">confirmation_sent_at :datetime</text>
<text text-anchor="start" x="805.448" y="-1037.3" font-family="Times,serif" font-size="14.00">unconfirmed_email :string</text>
<text text-anchor="start" x="805.448" y="-1023.3" font-family="Times,serif" font-size="14.00">school_id :integer</text>
</g>
<!-- School&#45;&gt;User -->
<g id="edge2" class="edge"><title>School&#45;&gt;User</title>
<path fill="none" stroke="#b0ca35" d="M1109.04,-1337.07C1108.27,-1336.37 1107.5,-1335.69 1106.73,-1335 1075.67,-1307.36 1041.49,-1277.86 1010.01,-1251.04"/>
<ellipse fill="none" stroke="#b0ca35" cx="1112.06" cy="-1339.77" rx="4.00002" ry="4.00002"/>
<polygon fill="#b0ca35" stroke="#b0ca35" points="1009.68,-1250.76 1004.98,-1240.85 1005.87,-1247.52 1002.07,-1244.28 1002.07,-1244.28 1002.07,-1244.28 1005.87,-1247.52 999.15,-1247.71 1009.68,-1250.76 1009.68,-1250.76"/>
</g>
<!-- Showcase -->
<g id="node11" class="node"><title>Showcase</title>
<path fill="none" stroke="black" d="M228.221,-690.5C228.221,-690.5 351.231,-690.5 351.231,-690.5 357.231,-690.5 363.231,-696.5 363.231,-702.5 363.231,-702.5 363.231,-778.5 363.231,-778.5 363.231,-784.5 357.231,-790.5 351.231,-790.5 351.231,-790.5 228.221,-790.5 228.221,-790.5 222.221,-790.5 216.221,-784.5 216.221,-778.5 216.221,-778.5 216.221,-702.5 216.221,-702.5 216.221,-696.5 222.221,-690.5 228.221,-690.5"/>
<text text-anchor="middle" x="289.726" y="-775.3" font-family="Times,serif" font-size="14.00">Showcase</text>
<polyline fill="none" stroke="black" points="216.221,-768.5 363.231,-768.5 "/>
<text text-anchor="start" x="224.221" y="-753.3" font-family="Times,serif" font-size="14.00">id :integer</text>
<text text-anchor="start" x="224.221" y="-739.3" font-family="Times,serif" font-size="14.00">showcase_type :integer</text>
<text text-anchor="start" x="224.221" y="-725.3" font-family="Times,serif" font-size="14.00">created_at :datetime</text>
<text text-anchor="start" x="224.221" y="-711.3" font-family="Times,serif" font-size="14.00">updated_at :datetime</text>
<text text-anchor="start" x="224.221" y="-697.3" font-family="Times,serif" font-size="14.00">user_id :integer</text>
</g>
<!-- Showcase&#45;&gt;Project -->
<g id="edge4" class="edge"><title>Showcase&#45;&gt;Project</title>
<path fill="none" stroke="#faeda2" d="M296.137,-682.147C304.851,-629.141 325.118,-551.212 371.726,-501 516.45,-345.085 767.329,-275.992 902.351,-248.841"/>
<ellipse fill="none" stroke="#faeda2" cx="295.507" cy="-686.155" rx="4.00001" ry="4.00001"/>
<polygon fill="#faeda2" stroke="#faeda2" points="902.457,-248.82 913.14,-251.296 907.362,-247.851 912.267,-246.881 912.267,-246.881 912.267,-246.881 907.362,-247.851 911.394,-242.466 902.457,-248.82 902.457,-248.82"/>
</g>
<!-- SocialLink -->
<g id="node12" class="node"><title>SocialLink</title>
<path fill="none" stroke="black" d="M1035.09,-648.5C1035.09,-648.5 1150.36,-648.5 1150.36,-648.5 1156.36,-648.5 1162.36,-654.5 1162.36,-660.5 1162.36,-660.5 1162.36,-820.5 1162.36,-820.5 1162.36,-826.5 1156.36,-832.5 1150.36,-832.5 1150.36,-832.5 1035.09,-832.5 1035.09,-832.5 1029.09,-832.5 1023.09,-826.5 1023.09,-820.5 1023.09,-820.5 1023.09,-660.5 1023.09,-660.5 1023.09,-654.5 1029.09,-648.5 1035.09,-648.5"/>
<text text-anchor="middle" x="1092.73" y="-817.3" font-family="Times,serif" font-size="14.00">SocialLink</text>
<polyline fill="none" stroke="black" points="1023.09,-810.5 1162.36,-810.5 "/>
<text text-anchor="start" x="1031.09" y="-795.3" font-family="Times,serif" font-size="14.00">id :integer</text>
<text text-anchor="start" x="1031.09" y="-781.3" font-family="Times,serif" font-size="14.00">link_linkedin :string</text>
<text text-anchor="start" x="1031.09" y="-767.3" font-family="Times,serif" font-size="14.00">link_instagram :string</text>
<text text-anchor="start" x="1031.09" y="-753.3" font-family="Times,serif" font-size="14.00">link_facebook :string</text>
<text text-anchor="start" x="1031.09" y="-739.3" font-family="Times,serif" font-size="14.00">link_twitter :string</text>
<text text-anchor="start" x="1031.09" y="-725.3" font-family="Times,serif" font-size="14.00">link_tumblr :string</text>
<text text-anchor="start" x="1031.09" y="-711.3" font-family="Times,serif" font-size="14.00">link_github :string</text>
<text text-anchor="start" x="1031.09" y="-697.3" font-family="Times,serif" font-size="14.00">link_alt_email :string</text>
<text text-anchor="start" x="1031.09" y="-683.3" font-family="Times,serif" font-size="14.00">created_at :datetime</text>
<text text-anchor="start" x="1031.09" y="-669.3" font-family="Times,serif" font-size="14.00">updated_at :datetime</text>
<text text-anchor="start" x="1031.09" y="-655.3" font-family="Times,serif" font-size="14.00">user_id :integer</text>
</g>
<!-- User&#45;&gt;Article -->
<g id="edge5" class="edge"><title>User&#45;&gt;Article</title>
<path fill="none" stroke="#55adb4" d="M1009.99,-1137.51C1105.57,-1115.49 1241.15,-1070 1323.73,-980 1365.32,-934.67 1384.15,-866.543 1392.68,-814.693"/>
<ellipse fill="none" stroke="#55adb4" cx="1005.93" cy="-1138.43" rx="4.00001" ry="4.00001"/>
<polygon fill="#55adb4" stroke="#55adb4" points="1392.72,-814.434 1398.69,-805.241 1393.48,-809.493 1394.25,-804.552 1394.25,-804.552 1394.25,-804.552 1393.48,-809.493 1389.8,-803.863 1392.72,-814.434 1392.72,-814.434"/>
</g>
<!-- User&#45;&gt;BackgroundInfo -->
<g id="edge6" class="edge"><title>User&#45;&gt;BackgroundInfo</title>
<path fill="none" stroke="#11a033" d="M789.15,-1142.21C609.487,-1116.99 265.032,-1059.59 173.726,-980 120.593,-933.687 97.225,-853.4 87.1294,-798.898"/>
<ellipse fill="none" stroke="#11a033" cx="793.354" cy="-1142.8" rx="4.00001" ry="4.00001"/>
<ellipse fill="#11a033" stroke="#11a033" cx="86.3764" cy="-794.655" rx="4.00001" ry="4.00001"/>
</g>
<!-- User&#45;&gt;Experience -->
<g id="edge7" class="edge"><title>User&#45;&gt;Experience</title>
<path fill="none" stroke="#870f77" d="M787.253,-1143.67C610.675,-1121.04 280.846,-1067.95 206.726,-980 172.32,-939.175 174.302,-554.097 168.726,-501 162.397,-440.736 153.526,-373.064 146.299,-320.863"/>
<polygon fill="#870f77" stroke="#870f77" points="787.44,-1143.69 796.793,-1149.42 792.4,-1144.32 797.36,-1144.95 797.36,-1144.95 797.36,-1144.95 792.4,-1144.32 797.927,-1140.49 787.44,-1143.69 787.44,-1143.69"/>
<polygon fill="#870f77" stroke="#870f77" points="146.254,-320.54 149.334,-310.016 145.565,-315.588 144.877,-310.636 144.877,-310.636 144.877,-310.636 145.565,-315.588 140.42,-311.256 146.254,-320.54 146.254,-320.54"/>
</g>
<!-- User&#45;&gt;HomepageInfo -->
<g id="edge8" class="edge"><title>User&#45;&gt;HomepageInfo</title>
<path fill="none" stroke="#aa1e3b" d="M789.732,-1107.96C730.925,-1077.75 660.577,-1034.3 610.726,-980 572.111,-937.935 543.073,-881.008 523.352,-833.32"/>
<ellipse fill="none" stroke="#aa1e3b" cx="793.646" cy="-1109.95" rx="4.00002" ry="4.00002"/>
<ellipse fill="#aa1e3b" stroke="#aa1e3b" cx="521.776" cy="-829.454" rx="4.00001" ry="4.00001"/>
</g>
<!-- User&#45;&gt;PersonalInfo -->
<g id="edge9" class="edge"><title>User&#45;&gt;PersonalInfo</title>
<path fill="none" stroke="#48f663" d="M834.933,-1008.76C829.625,-996.653 824.186,-984.252 818.699,-971.74"/>
<ellipse fill="none" stroke="#48f663" cx="836.63" cy="-1012.63" rx="4.00002" ry="4.00002"/>
<ellipse fill="#48f663" stroke="#48f663" cx="817.069" cy="-968.024" rx="4.00002" ry="4.00002"/>
</g>
<!-- User&#45;&gt;PhotoLink -->
<g id="edge10" class="edge"><title>User&#45;&gt;PhotoLink</title>
<path fill="none" stroke="#57bd72" d="M899.726,-1008C899.726,-935.469 899.726,-852.445 899.726,-798.607"/>
<ellipse fill="none" stroke="#57bd72" cx="899.726" cy="-1012.29" rx="4" ry="4"/>
<ellipse fill="#57bd72" stroke="#57bd72" cx="899.726" cy="-794.552" rx="4" ry="4"/>
</g>
<!-- User&#45;&gt;Project -->
<g id="edge12" class="edge"><title>User&#45;&gt;Project</title>
<path fill="none" stroke="#fa5281" d="M968.682,-1006.77C971.396,-997.818 973.783,-988.854 975.726,-980 1012.13,-814.128 1016.25,-622.556 1011.6,-475.013"/>
<polygon fill="#fa5281" stroke="#fa5281" points="968.63,-1006.93 961.323,-1015.11 967.121,-1011.7 965.613,-1016.47 965.613,-1016.47 965.613,-1016.47 967.121,-1011.7 969.904,-1017.82 968.63,-1006.93 968.63,-1006.93"/>
<polygon fill="#fa5281" stroke="#fa5281" points="1011.6,-474.908 1015.76,-464.765 1011.43,-469.911 1011.26,-464.914 1011.26,-464.914 1011.26,-464.914 1011.43,-469.911 1006.77,-465.063 1011.6,-474.908 1011.6,-474.908"/>
</g>
<!-- User&#45;&gt;Showcase -->
<g id="edge11" class="edge"><title>User&#45;&gt;Showcase</title>
<path fill="none" stroke="#829e7f" d="M789.323,-1147.94C670.937,-1133.01 484.779,-1092.09 371.726,-980 322.78,-931.471 303.023,-852.442 295.066,-798.773"/>
<ellipse fill="none" stroke="#829e7f" cx="793.404" cy="-1148.44" rx="4.00001" ry="4.00001"/>
<ellipse fill="#829e7f" stroke="#829e7f" cx="294.489" cy="-794.677" rx="4.00001" ry="4.00001"/>
</g>
<!-- User&#45;&gt;SocialLink -->
<g id="edge13" class="edge"><title>User&#45;&gt;SocialLink</title>
<path fill="none" stroke="#6721ac" d="M993.811,-1009.27C999.078,-999.486 1004.1,-989.674 1008.73,-980 1030.03,-935.445 1048.83,-883.992 1063.21,-840.309"/>
<ellipse fill="none" stroke="#6721ac" cx="991.848" cy="-1012.88" rx="4.00002" ry="4.00002"/>
<ellipse fill="#6721ac" stroke="#6721ac" cx="1064.51" cy="-836.329" rx="4.00001" ry="4.00001"/>
</g>
<!-- WebsiteSetting -->
<g id="node14" class="node"><title>WebsiteSetting</title>
<path fill="none" stroke="black" d="M1192.43,-683.5C1192.43,-683.5 1303.02,-683.5 1303.02,-683.5 1309.02,-683.5 1315.02,-689.5 1315.02,-695.5 1315.02,-695.5 1315.02,-785.5 1315.02,-785.5 1315.02,-791.5 1309.02,-797.5 1303.02,-797.5 1303.02,-797.5 1192.43,-797.5 1192.43,-797.5 1186.43,-797.5 1180.43,-791.5 1180.43,-785.5 1180.43,-785.5 1180.43,-695.5 1180.43,-695.5 1180.43,-689.5 1186.43,-683.5 1192.43,-683.5"/>
<text text-anchor="middle" x="1247.73" y="-782.3" font-family="Times,serif" font-size="14.00">WebsiteSetting</text>
<polyline fill="none" stroke="black" points="1180.43,-775.5 1315.02,-775.5 "/>
<text text-anchor="start" x="1188.43" y="-760.3" font-family="Times,serif" font-size="14.00">id :integer</text>
<text text-anchor="start" x="1188.43" y="-746.3" font-family="Times,serif" font-size="14.00">domain_name :string</text>
<text text-anchor="start" x="1188.43" y="-732.3" font-family="Times,serif" font-size="14.00">color :integer</text>
<text text-anchor="start" x="1188.43" y="-718.3" font-family="Times,serif" font-size="14.00">created_at :datetime</text>
<text text-anchor="start" x="1188.43" y="-704.3" font-family="Times,serif" font-size="14.00">updated_at :datetime</text>
<text text-anchor="start" x="1188.43" y="-690.3" font-family="Times,serif" font-size="14.00">user_id :integer</text>
</g>
<!-- User&#45;&gt;WebsiteSetting -->
<g id="edge14" class="edge"><title>User&#45;&gt;WebsiteSetting</title>
<path fill="none" stroke="#118a5a" d="M1009.37,-1107.82C1065.05,-1078.1 1129.64,-1035.15 1171.73,-980 1210.76,-928.843 1230.07,-857.07 1239.41,-805.647"/>
<ellipse fill="none" stroke="#118a5a" cx="1005.81" cy="-1109.69" rx="4.00002" ry="4.00002"/>
<ellipse fill="#118a5a" stroke="#118a5a" cx="1240.13" cy="-801.514" rx="4.00001" ry="4.00001"/>
</g>
</g>
</svg>
