<?xml version="1.0" encoding="UTF-8" standalone="no"?>
<!DOCTYPE svg PUBLIC "-//W3C//DTD SVG 1.1//EN"
 "http://www.w3.org/Graphics/SVG/1.1/DTD/svg11.dtd">
<!-- Generated by graphviz version 2.38.0 (20140413.2041)
 -->
<!-- Title: models_diagram Pages: 1 -->
<svg width="1474pt" height="1055pt"
 viewBox="0.00 0.00 1473.80 1055.00" xmlns="http://www.w3.org/2000/svg" xmlns:xlink="http://www.w3.org/1999/xlink">
<g id="graph0" class="graph" transform="scale(1 1) rotate(0) translate(4 1051)">
<title>models_diagram</title>
<polygon fill="none" stroke="none" points="-4,4 -4,-1051 1469.8,-1051 1469.8,4 -4,4"/>
<!-- _diagram_info -->
<g id="node1" class="node"><title>_diagram_info</title>
<text text-anchor="start" x="400.818" y="-934.6" font-family="Times,serif" font-size="13.00">Models diagram</text>
<text text-anchor="start" x="400.818" y="-921.6" font-family="Times,serif" font-size="13.00">Date: Apr 30 2016 &#45; 21:36</text>
<text text-anchor="start" x="400.818" y="-908.6" font-family="Times,serif" font-size="13.00">Migration version: 20150622142447</text>
<text text-anchor="start" x="400.818" y="-895.6" font-family="Times,serif" font-size="13.00">Generated by RailRoady 1.3.1</text>
<text text-anchor="start" x="400.818" y="-882.6" font-family="Times,serif" font-size="13.00">http://railroady.prestonlee.com</text>
</g>
<!-- Ability -->
<g id="node2" class="node"><title>Ability</title>
<polygon fill="none" stroke="black" points="618.671,-890.5 618.671,-934.5 674.34,-934.5 674.34,-890.5 618.671,-890.5"/>
<text text-anchor="middle" x="646.505" y="-919.3" font-family="Times,serif" font-size="14.00">Ability</text>
<polyline fill="none" stroke="black" points="618.671,-912.5 674.34,-912.5 "/>
<text text-anchor="middle" x="646.505" y="-897.3" font-family="Times,serif" font-size="14.00"> </text>
</g>
<!-- Article -->
<g id="node3" class="node"><title>Article</title>
<path fill="none" stroke="black" d="M12,-557.5C12,-557.5 121.011,-557.5 121.011,-557.5 127.011,-557.5 133.011,-563.5 133.011,-569.5 133.011,-569.5 133.011,-673.5 133.011,-673.5 133.011,-679.5 127.011,-685.5 121.011,-685.5 121.011,-685.5 12,-685.5 12,-685.5 6,-685.5 0,-679.5 0,-673.5 0,-673.5 0,-569.5 0,-569.5 0,-563.5 6,-557.5 12,-557.5"/>
<text text-anchor="middle" x="66.5054" y="-670.3" font-family="Times,serif" font-size="14.00">Article</text>
<polyline fill="none" stroke="black" points="0,-663.5 133.011,-663.5 "/>
<text text-anchor="start" x="8" y="-648.3" font-family="Times,serif" font-size="14.00">id :integer</text>
<text text-anchor="start" x="8" y="-634.3" font-family="Times,serif" font-size="14.00">title :string</text>
<text text-anchor="start" x="8" y="-620.3" font-family="Times,serif" font-size="14.00">summary :text</text>
<text text-anchor="start" x="8" y="-606.3" font-family="Times,serif" font-size="14.00">url :string</text>
<text text-anchor="start" x="8" y="-592.3" font-family="Times,serif" font-size="14.00">created_at :datetime</text>
<text text-anchor="start" x="8" y="-578.3" font-family="Times,serif" font-size="14.00">updated_at :datetime</text>
<text text-anchor="start" x="8" y="-564.3" font-family="Times,serif" font-size="14.00">user_id :integer</text>
</g>
<!-- BackgroundInfo -->
<g id="node4" class="node"><title>BackgroundInfo</title>
<path fill="none" stroke="black" d="M162.779,-571.5C162.779,-571.5 298.231,-571.5 298.231,-571.5 304.231,-571.5 310.231,-577.5 310.231,-583.5 310.231,-583.5 310.231,-659.5 310.231,-659.5 310.231,-665.5 304.231,-671.5 298.231,-671.5 298.231,-671.5 162.779,-671.5 162.779,-671.5 156.779,-671.5 150.779,-665.5 150.779,-659.5 150.779,-659.5 150.779,-583.5 150.779,-583.5 150.779,-577.5 156.779,-571.5 162.779,-571.5"/>
<text text-anchor="middle" x="230.505" y="-656.3" font-family="Times,serif" font-size="14.00">BackgroundInfo</text>
<polyline fill="none" stroke="black" points="150.779,-649.5 310.231,-649.5 "/>
<text text-anchor="start" x="158.779" y="-634.3" font-family="Times,serif" font-size="14.00">id :integer</text>
<text text-anchor="start" x="158.779" y="-620.3" font-family="Times,serif" font-size="14.00">background_type :integer</text>
<text text-anchor="start" x="158.779" y="-606.3" font-family="Times,serif" font-size="14.00">created_at :datetime</text>
<text text-anchor="start" x="158.779" y="-592.3" font-family="Times,serif" font-size="14.00">updated_at :datetime</text>
<text text-anchor="start" x="158.779" y="-578.3" font-family="Times,serif" font-size="14.00">user_id :integer</text>
</g>
<!-- Experience -->
<g id="node5" class="node"><title>Experience</title>
<path fill="none" stroke="black" d="M208.61,-154.5C208.61,-154.5 360.4,-154.5 360.4,-154.5 366.4,-154.5 372.4,-160.5 372.4,-166.5 372.4,-166.5 372.4,-298.5 372.4,-298.5 372.4,-304.5 366.4,-310.5 360.4,-310.5 360.4,-310.5 208.61,-310.5 208.61,-310.5 202.61,-310.5 196.61,-304.5 196.61,-298.5 196.61,-298.5 196.61,-166.5 196.61,-166.5 196.61,-160.5 202.61,-154.5 208.61,-154.5"/>
<text text-anchor="middle" x="284.505" y="-295.3" font-family="Times,serif" font-size="14.00">Experience</text>
<polyline fill="none" stroke="black" points="196.61,-288.5 372.4,-288.5 "/>
<text text-anchor="start" x="204.61" y="-273.3" font-family="Times,serif" font-size="14.00">id :integer</text>
<text text-anchor="start" x="204.61" y="-259.3" font-family="Times,serif" font-size="14.00">url :string</text>
<text text-anchor="start" x="204.61" y="-245.3" font-family="Times,serif" font-size="14.00">created_at :datetime</text>
<text text-anchor="start" x="204.61" y="-231.3" font-family="Times,serif" font-size="14.00">updated_at :datetime</text>
<text text-anchor="start" x="204.61" y="-217.3" font-family="Times,serif" font-size="14.00">img_file_name :string</text>
<text text-anchor="start" x="204.61" y="-203.3" font-family="Times,serif" font-size="14.00">img_content_type :string</text>
<text text-anchor="start" x="204.61" y="-189.3" font-family="Times,serif" font-size="14.00">img_file_size :integer</text>
<text text-anchor="start" x="204.61" y="-175.3" font-family="Times,serif" font-size="14.00">img_updated_at :datetime</text>
<text text-anchor="start" x="204.61" y="-161.3" font-family="Times,serif" font-size="14.00">background_info_id :integer</text>
</g>
<!-- BackgroundInfo&#45;&gt;Experience -->
<g id="edge1" class="edge"><title>BackgroundInfo&#45;&gt;Experience</title>
<path fill="none" stroke="#f6072a" d="M238.451,-563.557C247.363,-499.69 261.923,-395.343 272.285,-321.081"/>
<ellipse fill="none" stroke="#f6072a" cx="237.897" cy="-567.525" rx="4.00001" ry="4.00001"/>
<polygon fill="#f6072a" stroke="#f6072a" points="272.336,-320.713 278.175,-311.431 273.027,-315.761 273.718,-310.809 273.718,-310.809 273.718,-310.809 273.027,-315.761 269.261,-310.187 272.336,-320.713 272.336,-320.713"/>
</g>
<!-- HomepageInfo -->
<g id="node6" class="node"><title>HomepageInfo</title>
<path fill="none" stroke="black" d="M378.683,-536.5C378.683,-536.5 576.328,-536.5 576.328,-536.5 582.328,-536.5 588.328,-542.5 588.328,-548.5 588.328,-548.5 588.328,-694.5 588.328,-694.5 588.328,-700.5 582.328,-706.5 576.328,-706.5 576.328,-706.5 378.683,-706.5 378.683,-706.5 372.683,-706.5 366.683,-700.5 366.683,-694.5 366.683,-694.5 366.683,-548.5 366.683,-548.5 366.683,-542.5 372.683,-536.5 378.683,-536.5"/>
<text text-anchor="middle" x="477.505" y="-691.3" font-family="Times,serif" font-size="14.00">HomepageInfo</text>
<polyline fill="none" stroke="black" points="366.683,-684.5 588.328,-684.5 "/>
<text text-anchor="start" x="374.683" y="-669.3" font-family="Times,serif" font-size="14.00">id :integer</text>
<text text-anchor="start" x="374.683" y="-655.3" font-family="Times,serif" font-size="14.00">homepage_header :string</text>
<text text-anchor="start" x="374.683" y="-641.3" font-family="Times,serif" font-size="14.00">homepage_display_name :string</text>
<text text-anchor="start" x="374.683" y="-627.3" font-family="Times,serif" font-size="14.00">user_id :integer</text>
<text text-anchor="start" x="374.683" y="-613.3" font-family="Times,serif" font-size="14.00">created_at :datetime</text>
<text text-anchor="start" x="374.683" y="-599.3" font-family="Times,serif" font-size="14.00">updated_at :datetime</text>
<text text-anchor="start" x="374.683" y="-585.3" font-family="Times,serif" font-size="14.00">homepage_pic_file_name :string</text>
<text text-anchor="start" x="374.683" y="-571.3" font-family="Times,serif" font-size="14.00">homepage_pic_content_type :string</text>
<text text-anchor="start" x="374.683" y="-557.3" font-family="Times,serif" font-size="14.00">homepage_pic_file_size :integer</text>
<text text-anchor="start" x="374.683" y="-543.3" font-family="Times,serif" font-size="14.00">homepage_pic_updated_at :datetime</text>
</g>
<!-- PersonalInfo -->
<g id="node7" class="node"><title>PersonalInfo</title>
<path fill="none" stroke="black" d="M617.896,-501.5C617.896,-501.5 789.114,-501.5 789.114,-501.5 795.114,-501.5 801.114,-507.5 801.114,-513.5 801.114,-513.5 801.114,-729.5 801.114,-729.5 801.114,-735.5 795.114,-741.5 789.114,-741.5 789.114,-741.5 617.896,-741.5 617.896,-741.5 611.896,-741.5 605.896,-735.5 605.896,-729.5 605.896,-729.5 605.896,-513.5 605.896,-513.5 605.896,-507.5 611.896,-501.5 617.896,-501.5"/>
<text text-anchor="middle" x="703.505" y="-726.3" font-family="Times,serif" font-size="14.00">PersonalInfo</text>
<polyline fill="none" stroke="black" points="605.896,-719.5 801.114,-719.5 "/>
<text text-anchor="start" x="613.896" y="-704.3" font-family="Times,serif" font-size="14.00">id :integer</text>
<text text-anchor="start" x="613.896" y="-690.3" font-family="Times,serif" font-size="14.00">name_first :string</text>
<text text-anchor="start" x="613.896" y="-676.3" font-family="Times,serif" font-size="14.00">name_last :string</text>
<text text-anchor="start" x="613.896" y="-662.3" font-family="Times,serif" font-size="14.00">intro_paragraph :text</text>
<text text-anchor="start" x="613.896" y="-648.3" font-family="Times,serif" font-size="14.00">created_at :datetime</text>
<text text-anchor="start" x="613.896" y="-634.3" font-family="Times,serif" font-size="14.00">updated_at :datetime</text>
<text text-anchor="start" x="613.896" y="-620.3" font-family="Times,serif" font-size="14.00">about_pic_file_name :string</text>
<text text-anchor="start" x="613.896" y="-606.3" font-family="Times,serif" font-size="14.00">about_pic_content_type :string</text>
<text text-anchor="start" x="613.896" y="-592.3" font-family="Times,serif" font-size="14.00">about_pic_file_size :integer</text>
<text text-anchor="start" x="613.896" y="-578.3" font-family="Times,serif" font-size="14.00">about_pic_updated_at :datetime</text>
<text text-anchor="start" x="613.896" y="-564.3" font-family="Times,serif" font-size="14.00">user_id :integer</text>
<text text-anchor="start" x="613.896" y="-550.3" font-family="Times,serif" font-size="14.00">resume_file_name :string</text>
<text text-anchor="start" x="613.896" y="-536.3" font-family="Times,serif" font-size="14.00">resume_content_type :string</text>
<text text-anchor="start" x="613.896" y="-522.3" font-family="Times,serif" font-size="14.00">resume_file_size :integer</text>
<text text-anchor="start" x="613.896" y="-508.3" font-family="Times,serif" font-size="14.00">resume_updated_at :datetime</text>
</g>
<!-- PhotoLink -->
<g id="node8" class="node"><title>PhotoLink</title>
<path fill="none" stroke="black" d="M831,-571.5C831,-571.5 940.011,-571.5 940.011,-571.5 946.011,-571.5 952.011,-577.5 952.011,-583.5 952.011,-583.5 952.011,-659.5 952.011,-659.5 952.011,-665.5 946.011,-671.5 940.011,-671.5 940.011,-671.5 831,-671.5 831,-671.5 825,-671.5 819,-665.5 819,-659.5 819,-659.5 819,-583.5 819,-583.5 819,-577.5 825,-571.5 831,-571.5"/>
<text text-anchor="middle" x="885.505" y="-656.3" font-family="Times,serif" font-size="14.00">PhotoLink</text>
<polyline fill="none" stroke="black" points="819,-649.5 952.011,-649.5 "/>
<text text-anchor="start" x="827" y="-634.3" font-family="Times,serif" font-size="14.00">id :integer</text>
<text text-anchor="start" x="827" y="-620.3" font-family="Times,serif" font-size="14.00">tumblr_url :string</text>
<text text-anchor="start" x="827" y="-606.3" font-family="Times,serif" font-size="14.00">user_id :integer</text>
<text text-anchor="start" x="827" y="-592.3" font-family="Times,serif" font-size="14.00">created_at :datetime</text>
<text text-anchor="start" x="827" y="-578.3" font-family="Times,serif" font-size="14.00">updated_at :datetime</text>
</g>
<!-- Project -->
<g id="node9" class="node"><title>Project</title>
<path fill="none" stroke="black" d="M961.055,-0.5C961.055,-0.5 1101.96,-0.5 1101.96,-0.5 1107.96,-0.5 1113.96,-6.5 1113.96,-12.5 1113.96,-12.5 1113.96,-452.5 1113.96,-452.5 1113.96,-458.5 1107.96,-464.5 1101.96,-464.5 1101.96,-464.5 961.055,-464.5 961.055,-464.5 955.055,-464.5 949.055,-458.5 949.055,-452.5 949.055,-452.5 949.055,-12.5 949.055,-12.5 949.055,-6.5 955.055,-0.5 961.055,-0.5"/>
<text text-anchor="middle" x="1031.51" y="-449.3" font-family="Times,serif" font-size="14.00">Project</text>
<polyline fill="none" stroke="black" points="949.055,-442.5 1113.96,-442.5 "/>
<text text-anchor="start" x="957.055" y="-427.3" font-family="Times,serif" font-size="14.00">id :integer</text>
<text text-anchor="start" x="957.055" y="-413.3" font-family="Times,serif" font-size="14.00">title :string</text>
<text text-anchor="start" x="957.055" y="-399.3" font-family="Times,serif" font-size="14.00">paragraph :text</text>
<text text-anchor="start" x="957.055" y="-385.3" font-family="Times,serif" font-size="14.00">created_at :datetime</text>
<text text-anchor="start" x="957.055" y="-371.3" font-family="Times,serif" font-size="14.00">updated_at :datetime</text>
<text text-anchor="start" x="957.055" y="-357.3" font-family="Times,serif" font-size="14.00">file1_file_name :string</text>
<text text-anchor="start" x="957.055" y="-343.3" font-family="Times,serif" font-size="14.00">file1_content_type :string</text>
<text text-anchor="start" x="957.055" y="-329.3" font-family="Times,serif" font-size="14.00">file1_file_size :integer</text>
<text text-anchor="start" x="957.055" y="-315.3" font-family="Times,serif" font-size="14.00">file1_updated_at :datetime</text>
<text text-anchor="start" x="957.055" y="-301.3" font-family="Times,serif" font-size="14.00">file2_file_name :string</text>
<text text-anchor="start" x="957.055" y="-287.3" font-family="Times,serif" font-size="14.00">file2_content_type :string</text>
<text text-anchor="start" x="957.055" y="-273.3" font-family="Times,serif" font-size="14.00">file2_file_size :integer</text>
<text text-anchor="start" x="957.055" y="-259.3" font-family="Times,serif" font-size="14.00">file2_updated_at :datetime</text>
<text text-anchor="start" x="957.055" y="-245.3" font-family="Times,serif" font-size="14.00">file3_file_name :string</text>
<text text-anchor="start" x="957.055" y="-231.3" font-family="Times,serif" font-size="14.00">file3_content_type :string</text>
<text text-anchor="start" x="957.055" y="-217.3" font-family="Times,serif" font-size="14.00">file3_file_size :integer</text>
<text text-anchor="start" x="957.055" y="-203.3" font-family="Times,serif" font-size="14.00">file3_updated_at :datetime</text>
<text text-anchor="start" x="957.055" y="-189.3" font-family="Times,serif" font-size="14.00">file4_file_name :string</text>
<text text-anchor="start" x="957.055" y="-175.3" font-family="Times,serif" font-size="14.00">file4_content_type :string</text>
<text text-anchor="start" x="957.055" y="-161.3" font-family="Times,serif" font-size="14.00">file4_file_size :integer</text>
<text text-anchor="start" x="957.055" y="-147.3" font-family="Times,serif" font-size="14.00">file4_updated_at :datetime</text>
<text text-anchor="start" x="957.055" y="-133.3" font-family="Times,serif" font-size="14.00">showcase_id :integer</text>
<text text-anchor="start" x="957.055" y="-119.3" font-family="Times,serif" font-size="14.00">file1_type :integer</text>
<text text-anchor="start" x="957.055" y="-105.3" font-family="Times,serif" font-size="14.00">file2_type :integer</text>
<text text-anchor="start" x="957.055" y="-91.3" font-family="Times,serif" font-size="14.00">file3_type :integer</text>
<text text-anchor="start" x="957.055" y="-77.3" font-family="Times,serif" font-size="14.00">file4_type :integer</text>
<text text-anchor="start" x="957.055" y="-63.3" font-family="Times,serif" font-size="14.00">file1_title :string</text>
<text text-anchor="start" x="957.055" y="-49.3" font-family="Times,serif" font-size="14.00">file2_title :string</text>
<text text-anchor="start" x="957.055" y="-35.3" font-family="Times,serif" font-size="14.00">file3_title :string</text>
<text text-anchor="start" x="957.055" y="-21.3" font-family="Times,serif" font-size="14.00">file4_title :string</text>
<text text-anchor="start" x="957.055" y="-7.3" font-family="Times,serif" font-size="14.00">url :string</text>
</g>
<!-- Showcase -->
<g id="node10" class="node"><title>Showcase</title>
<path fill="none" stroke="black" d="M1021,-571.5C1021,-571.5 1144.01,-571.5 1144.01,-571.5 1150.01,-571.5 1156.01,-577.5 1156.01,-583.5 1156.01,-583.5 1156.01,-659.5 1156.01,-659.5 1156.01,-665.5 1150.01,-671.5 1144.01,-671.5 1144.01,-671.5 1021,-671.5 1021,-671.5 1015,-671.5 1009,-665.5 1009,-659.5 1009,-659.5 1009,-583.5 1009,-583.5 1009,-577.5 1015,-571.5 1021,-571.5"/>
<text text-anchor="middle" x="1082.51" y="-656.3" font-family="Times,serif" font-size="14.00">Showcase</text>
<polyline fill="none" stroke="black" points="1009,-649.5 1156.01,-649.5 "/>
<text text-anchor="start" x="1017" y="-634.3" font-family="Times,serif" font-size="14.00">id :integer</text>
<text text-anchor="start" x="1017" y="-620.3" font-family="Times,serif" font-size="14.00">showcase_type :integer</text>
<text text-anchor="start" x="1017" y="-606.3" font-family="Times,serif" font-size="14.00">created_at :datetime</text>
<text text-anchor="start" x="1017" y="-592.3" font-family="Times,serif" font-size="14.00">updated_at :datetime</text>
<text text-anchor="start" x="1017" y="-578.3" font-family="Times,serif" font-size="14.00">user_id :integer</text>
</g>
<!-- Showcase&#45;&gt;Project -->
<g id="edge2" class="edge"><title>Showcase&#45;&gt;Project</title>
<path fill="none" stroke="#033c5a" d="M1074.96,-563.258C1071.7,-538.526 1067.65,-507.764 1063.34,-475.045"/>
<ellipse fill="none" stroke="#033c5a" cx="1075.52" cy="-567.52" rx="4.00001" ry="4.00001"/>
<polygon fill="#033c5a" stroke="#033c5a" points="1063.3,-474.747 1066.45,-464.245 1062.64,-469.79 1061.99,-464.833 1061.99,-464.833 1061.99,-464.833 1062.64,-469.79 1057.53,-465.421 1063.3,-474.747 1063.3,-474.747"/>
</g>
<!-- SocialLink -->
<g id="node11" class="node"><title>SocialLink</title>
<path fill="none" stroke="black" d="M1185.87,-529.5C1185.87,-529.5 1301.14,-529.5 1301.14,-529.5 1307.14,-529.5 1313.14,-535.5 1313.14,-541.5 1313.14,-541.5 1313.14,-701.5 1313.14,-701.5 1313.14,-707.5 1307.14,-713.5 1301.14,-713.5 1301.14,-713.5 1185.87,-713.5 1185.87,-713.5 1179.87,-713.5 1173.87,-707.5 1173.87,-701.5 1173.87,-701.5 1173.87,-541.5 1173.87,-541.5 1173.87,-535.5 1179.87,-529.5 1185.87,-529.5"/>
<text text-anchor="middle" x="1243.51" y="-698.3" font-family="Times,serif" font-size="14.00">SocialLink</text>
<polyline fill="none" stroke="black" points="1173.87,-691.5 1313.14,-691.5 "/>
<text text-anchor="start" x="1181.87" y="-676.3" font-family="Times,serif" font-size="14.00">id :integer</text>
<text text-anchor="start" x="1181.87" y="-662.3" font-family="Times,serif" font-size="14.00">link_linkedin :string</text>
<text text-anchor="start" x="1181.87" y="-648.3" font-family="Times,serif" font-size="14.00">link_instagram :string</text>
<text text-anchor="start" x="1181.87" y="-634.3" font-family="Times,serif" font-size="14.00">link_facebook :string</text>
<text text-anchor="start" x="1181.87" y="-620.3" font-family="Times,serif" font-size="14.00">link_twitter :string</text>
<text text-anchor="start" x="1181.87" y="-606.3" font-family="Times,serif" font-size="14.00">link_tumblr :string</text>
<text text-anchor="start" x="1181.87" y="-592.3" font-family="Times,serif" font-size="14.00">link_github :string</text>
<text text-anchor="start" x="1181.87" y="-578.3" font-family="Times,serif" font-size="14.00">link_alt_email :string</text>
<text text-anchor="start" x="1181.87" y="-564.3" font-family="Times,serif" font-size="14.00">created_at :datetime</text>
<text text-anchor="start" x="1181.87" y="-550.3" font-family="Times,serif" font-size="14.00">updated_at :datetime</text>
<text text-anchor="start" x="1181.87" y="-536.3" font-family="Times,serif" font-size="14.00">user_id :integer</text>
</g>
<!-- User -->
<g id="node12" class="node"><title>User</title>
<path fill="none" stroke="black" d="M704.228,-778.5C704.228,-778.5 884.783,-778.5 884.783,-778.5 890.783,-778.5 896.783,-784.5 896.783,-790.5 896.783,-790.5 896.783,-1034.5 896.783,-1034.5 896.783,-1040.5 890.783,-1046.5 884.783,-1046.5 884.783,-1046.5 704.228,-1046.5 704.228,-1046.5 698.228,-1046.5 692.228,-1040.5 692.228,-1034.5 692.228,-1034.5 692.228,-790.5 692.228,-790.5 692.228,-784.5 698.228,-778.5 704.228,-778.5"/>
<text text-anchor="middle" x="794.505" y="-1031.3" font-family="Times,serif" font-size="14.00">User</text>
<polyline fill="none" stroke="black" points="692.228,-1024.5 896.783,-1024.5 "/>
<text text-anchor="start" x="700.228" y="-1009.3" font-family="Times,serif" font-size="14.00">id :integer</text>
<text text-anchor="start" x="700.228" y="-995.3" font-family="Times,serif" font-size="14.00">created_at :datetime</text>
<text text-anchor="start" x="700.228" y="-981.3" font-family="Times,serif" font-size="14.00">updated_at :datetime</text>
<text text-anchor="start" x="700.228" y="-967.3" font-family="Times,serif" font-size="14.00">email :string</text>
<text text-anchor="start" x="700.228" y="-953.3" font-family="Times,serif" font-size="14.00">encrypted_password :string</text>
<text text-anchor="start" x="700.228" y="-939.3" font-family="Times,serif" font-size="14.00">reset_password_token :string</text>
<text text-anchor="start" x="700.228" y="-925.3" font-family="Times,serif" font-size="14.00">reset_password_sent_at :datetime</text>
<text text-anchor="start" x="700.228" y="-911.3" font-family="Times,serif" font-size="14.00">remember_created_at :datetime</text>
<text text-anchor="start" x="700.228" y="-897.3" font-family="Times,serif" font-size="14.00">sign_in_count :integer</text>
<text text-anchor="start" x="700.228" y="-883.3" font-family="Times,serif" font-size="14.00">current_sign_in_at :datetime</text>
<text text-anchor="start" x="700.228" y="-869.3" font-family="Times,serif" font-size="14.00">last_sign_in_at :datetime</text>
<text text-anchor="start" x="700.228" y="-855.3" font-family="Times,serif" font-size="14.00">current_sign_in_ip :inet</text>
<text text-anchor="start" x="700.228" y="-841.3" font-family="Times,serif" font-size="14.00">last_sign_in_ip :inet</text>
<text text-anchor="start" x="700.228" y="-827.3" font-family="Times,serif" font-size="14.00">confirmation_token :string</text>
<text text-anchor="start" x="700.228" y="-813.3" font-family="Times,serif" font-size="14.00">confirmed_at :datetime</text>
<text text-anchor="start" x="700.228" y="-799.3" font-family="Times,serif" font-size="14.00">confirmation_sent_at :datetime</text>
<text text-anchor="start" x="700.228" y="-785.3" font-family="Times,serif" font-size="14.00">unconfirmed_email :string</text>
</g>
<!-- User&#45;&gt;Article -->
<g id="edge3" class="edge"><title>User&#45;&gt;Article</title>
<path fill="none" stroke="#12b502" d="M685.162,-778.86C684.611,-778.569 684.059,-778.283 683.505,-778 575.98,-723.145 245.143,-803.887 141.505,-742 122.806,-730.834 108.048,-713.008 96.7502,-694.495"/>
<ellipse fill="none" stroke="#12b502" cx="688.738" cy="-780.886" rx="4.00002" ry="4.00002"/>
<polygon fill="#12b502" stroke="#12b502" points="96.652,-694.325 95.5349,-683.417 94.1464,-689.999 91.6407,-685.672 91.6407,-685.672 91.6407,-685.672 94.1464,-689.999 87.7465,-687.927 96.652,-694.325 96.652,-694.325"/>
</g>
<!-- User&#45;&gt;BackgroundInfo -->
<g id="edge4" class="edge"><title>User&#45;&gt;BackgroundInfo</title>
<path fill="none" stroke="#d277dc" d="M685.147,-778.887C684.602,-778.588 684.054,-778.292 683.505,-778 541.909,-702.737 465.068,-819.175 324.505,-742 298.076,-727.489 276.518,-702.137 260.745,-678.507"/>
<ellipse fill="none" stroke="#d277dc" cx="688.697" cy="-780.97" rx="4.00002" ry="4.00002"/>
<ellipse fill="#d277dc" stroke="#d277dc" cx="258.422" cy="-674.927" rx="4.00002" ry="4.00002"/>
</g>
<!-- User&#45;&gt;Experience -->
<g id="edge5" class="edge"><title>User&#45;&gt;Experience</title>
<path fill="none" stroke="#39c9b4" d="M682.986,-778.793C603.197,-747.162 407.83,-790.71 357.505,-742 353.736,-738.351 316.043,-465.152 296.351,-320.767"/>
<polygon fill="#39c9b4" stroke="#39c9b4" points="683.055,-778.825 690.231,-787.116 687.59,-780.93 692.126,-783.035 692.126,-783.035 692.126,-783.035 687.59,-780.93 694.02,-778.953 683.055,-778.825 683.055,-778.825"/>
<polygon fill="#39c9b4" stroke="#39c9b4" points="296.316,-320.508 299.424,-309.992 295.64,-315.554 294.965,-310.6 294.965,-310.6 294.965,-310.6 295.64,-315.554 290.506,-311.207 296.316,-320.508 296.316,-320.508"/>
</g>
<!-- User&#45;&gt;HomepageInfo -->
<g id="edge6" class="edge"><title>User&#45;&gt;HomepageInfo</title>
<path fill="none" stroke="#a1db64" d="M685.684,-779.626C684.96,-779.078 684.233,-778.536 683.505,-778 649.81,-753.186 631.279,-765.279 596.505,-742 583.556,-733.331 570.848,-723.102 558.84,-712.336"/>
<ellipse fill="none" stroke="#a1db64" cx="689.004" cy="-782.229" rx="4.00002" ry="4.00002"/>
<ellipse fill="#a1db64" stroke="#a1db64" cx="555.58" cy="-709.359" rx="4.00002" ry="4.00002"/>
</g>
<!-- User&#45;&gt;PersonalInfo -->
<g id="edge7" class="edge"><title>User&#45;&gt;PersonalInfo</title>
<path fill="none" stroke="#57c356" d="M750.148,-770.627C747.898,-763.484 745.646,-756.33 743.411,-749.233"/>
<ellipse fill="none" stroke="#57c356" cx="751.4" cy="-774.604" rx="4.00001" ry="4.00001"/>
<ellipse fill="#57c356" stroke="#57c356" cx="742.196" cy="-745.374" rx="4.00001" ry="4.00001"/>
</g>
<!-- User&#45;&gt;PhotoLink -->
<g id="edge8" class="edge"><title>User&#45;&gt;PhotoLink</title>
<path fill="none" stroke="#9537a9" d="M838.942,-770.377C849.068,-738.218 859.265,-705.836 867.524,-679.607"/>
<ellipse fill="none" stroke="#9537a9" cx="837.611" cy="-774.604" rx="4.00001" ry="4.00001"/>
<ellipse fill="#9537a9" stroke="#9537a9" cx="868.821" cy="-675.487" rx="4.00001" ry="4.00001"/>
</g>
<!-- User&#45;&gt;Project -->
<g id="edge10" class="edge"><title>User&#45;&gt;Project</title>
<path fill="none" stroke="#ac5bb6" d="M903.859,-821.491C926.248,-797.895 947.287,-770.887 961.505,-742 967.857,-729.095 985.611,-599.833 1001.65,-474.88"/>
<polygon fill="#ac5bb6" stroke="#ac5bb6" points="903.83,-821.52 893.641,-825.572 900.352,-825.112 896.873,-828.703 896.873,-828.703 896.873,-828.703 900.352,-825.112 900.105,-831.834 903.83,-821.52 903.83,-821.52"/>
<polygon fill="#ac5bb6" stroke="#ac5bb6" points="1001.68,-474.659 1007.41,-465.312 1002.31,-469.7 1002.95,-464.74 1002.95,-464.74 1002.95,-464.74 1002.31,-469.7 998.484,-464.168 1001.68,-474.659 1001.68,-474.659"/>
</g>
<!-- User&#45;&gt;Showcase -->
<g id="edge9" class="edge"><title>User&#45;&gt;Showcase</title>
<path fill="none" stroke="#724625" d="M902.945,-827.474C933.87,-801.464 966.691,-771.782 994.505,-742 1012.75,-722.46 1030.67,-699.127 1045.52,-678.285"/>
<ellipse fill="none" stroke="#724625" cx="899.856" cy="-830.059" rx="4.00002" ry="4.00002"/>
<ellipse fill="#724625" stroke="#724625" cx="1047.92" cy="-674.881" rx="4.00002" ry="4.00002"/>
</g>
<!-- User&#45;&gt;SocialLink -->
<g id="edge11" class="edge"><title>User&#45;&gt;SocialLink</title>
<path fill="none" stroke="#b90836" d="M904.957,-879.408C984.014,-852.333 1089.48,-807.418 1165.51,-742 1173.21,-735.368 1180.45,-727.792 1187.18,-719.744"/>
<ellipse fill="none" stroke="#b90836" cx="900.696" cy="-880.851" rx="4.00001" ry="4.00001"/>
<ellipse fill="#b90836" stroke="#b90836" cx="1189.71" cy="-716.617" rx="4.00002" ry="4.00002"/>
</g>
<!-- WebsiteSetting -->
<g id="node13" class="node"><title>WebsiteSetting</title>
<path fill="none" stroke="black" d="M1343.21,-564.5C1343.21,-564.5 1453.8,-564.5 1453.8,-564.5 1459.8,-564.5 1465.8,-570.5 1465.8,-576.5 1465.8,-576.5 1465.8,-666.5 1465.8,-666.5 1465.8,-672.5 1459.8,-678.5 1453.8,-678.5 1453.8,-678.5 1343.21,-678.5 1343.21,-678.5 1337.21,-678.5 1331.21,-672.5 1331.21,-666.5 1331.21,-666.5 1331.21,-576.5 1331.21,-576.5 1331.21,-570.5 1337.21,-564.5 1343.21,-564.5"/>
<text text-anchor="middle" x="1398.51" y="-663.3" font-family="Times,serif" font-size="14.00">WebsiteSetting</text>
<polyline fill="none" stroke="black" points="1331.21,-656.5 1465.8,-656.5 "/>
<text text-anchor="start" x="1339.21" y="-641.3" font-family="Times,serif" font-size="14.00">id :integer</text>
<text text-anchor="start" x="1339.21" y="-627.3" font-family="Times,serif" font-size="14.00">domain_name :string</text>
<text text-anchor="start" x="1339.21" y="-613.3" font-family="Times,serif" font-size="14.00">color :integer</text>
<text text-anchor="start" x="1339.21" y="-599.3" font-family="Times,serif" font-size="14.00">created_at :datetime</text>
<text text-anchor="start" x="1339.21" y="-585.3" font-family="Times,serif" font-size="14.00">updated_at :datetime</text>
<text text-anchor="start" x="1339.21" y="-571.3" font-family="Times,serif" font-size="14.00">user_id :integer</text>
</g>
<!-- User&#45;&gt;WebsiteSetting -->
<g id="edge12" class="edge"><title>User&#45;&gt;WebsiteSetting</title>
<path fill="none" stroke="#e9a67a" d="M905.109,-898.396C1019.63,-880.058 1198.79,-837.522 1322.51,-742 1341.65,-727.215 1357.31,-706.141 1369.33,-685.797"/>
<ellipse fill="none" stroke="#e9a67a" cx="900.929" cy="-899.054" rx="4.00001" ry="4.00001"/>
<ellipse fill="#e9a67a" stroke="#e9a67a" cx="1371.44" cy="-682.113" rx="4.00002" ry="4.00002"/>
</g>
</g>
</svg>
