<?xml version="1.0" encoding="UTF-8" standalone="no"?>
<!DOCTYPE svg PUBLIC "-//W3C//DTD SVG 1.1//EN"
 "http://www.w3.org/Graphics/SVG/1.1/DTD/svg11.dtd">
<!-- Generated by graphviz version 2.38.0 (20140413.2041)
 -->
<!-- Title: models_diagram Pages: 1 -->
<svg width="2080pt" height="313pt"
 viewBox="0.00 0.00 2080.16 313.00" xmlns="http://www.w3.org/2000/svg" xmlns:xlink="http://www.w3.org/1999/xlink">
<g id="graph0" class="graph" transform="scale(1 1) rotate(0) translate(4 309)">
<title>models_diagram</title>
<polygon fill="none" stroke="none" points="-4,4 -4,-309 2076.16,-309 2076.16,4 -4,4"/>
<!-- _diagram_info -->
<g id="node1" class="node"><title>_diagram_info</title>
<text text-anchor="start" x="8" y="-290.6" font-family="Times,serif" font-size="13.00">Models diagram</text>
<text text-anchor="start" x="8" y="-277.6" font-family="Times,serif" font-size="13.00">Date: Jun 13 2016 &#45; 09:52</text>
<text text-anchor="start" x="8" y="-264.6" font-family="Times,serif" font-size="13.00">Migration version: 20160613134916</text>
<text text-anchor="start" x="8" y="-251.6" font-family="Times,serif" font-size="13.00">Generated by RailRoady 1.3.1</text>
<text text-anchor="start" x="8" y="-238.6" font-family="Times,serif" font-size="13.00">http://railroady.prestonlee.com</text>
</g>
<!-- Ability -->
<g id="node2" class="node"><title>Ability</title>
<polygon fill="none" stroke="black" points="281.358,-286.5 226.018,-286.5 226.018,-250.5 281.358,-250.5 281.358,-286.5"/>
<text text-anchor="middle" x="253.688" y="-264.3" font-family="Times,serif" font-size="14.00">Ability</text>
</g>
<!-- Admin -->
<g id="node3" class="node"><title>Admin</title>
<ellipse fill="none" stroke="black" cx="334.688" cy="-268.5" rx="34.8458" ry="18"/>
<text text-anchor="middle" x="334.688" y="-264.3" font-family="Times,serif" font-size="14.00">Admin</text>
</g>
<!-- Article -->
<g id="node4" class="node"><title>Article</title>
<ellipse fill="none" stroke="black" cx="1768.69" cy="-91" rx="34.8198" ry="18"/>
<text text-anchor="middle" x="1768.69" y="-86.8" font-family="Times,serif" font-size="14.00">Article</text>
</g>
<!-- BackgroundInfo -->
<g id="node5" class="node"><title>BackgroundInfo</title>
<ellipse fill="none" stroke="black" cx="420.688" cy="-91" rx="68.1287" ry="18"/>
<text text-anchor="middle" x="420.688" y="-86.8" font-family="Times,serif" font-size="14.00">BackgroundInfo</text>
</g>
<!-- Experience -->
<g id="node9" class="node"><title>Experience</title>
<ellipse fill="none" stroke="black" cx="486.688" cy="-18" rx="49.7533" ry="18"/>
<text text-anchor="middle" x="486.688" y="-13.8" font-family="Times,serif" font-size="14.00">Experience</text>
</g>
<!-- BackgroundInfo&#45;&gt;Experience -->
<g id="edge1" class="edge"><title>BackgroundInfo&#45;&gt;Experience</title>
<path fill="none" stroke="#bd1747" d="M441.825,-67.2612C449.097,-59.4382 457.256,-50.6615 464.602,-42.7594"/>
<ellipse fill="none" stroke="#bd1747" cx="439.052" cy="-70.2443" rx="4.00002" ry="4.00002"/>
<polygon fill="#bd1747" stroke="#bd1747" points="464.805,-42.5408 474.909,-38.2803 468.209,-38.8787 471.613,-35.2165 471.613,-35.2165 471.613,-35.2165 468.209,-38.8787 468.317,-32.1527 464.805,-42.5408 464.805,-42.5408"/>
</g>
<!-- Career -->
<g id="node6" class="node"><title>Career</title>
<ellipse fill="none" stroke="black" cx="1610.69" cy="-268.5" rx="33.8422" ry="18"/>
<text text-anchor="middle" x="1610.69" y="-264.3" font-family="Times,serif" font-size="14.00">Career</text>
</g>
<!-- Clerk -->
<g id="node7" class="node"><title>Clerk</title>
<ellipse fill="none" stroke="black" cx="416.688" cy="-268.5" rx="29.5104" ry="18"/>
<text text-anchor="middle" x="416.688" y="-264.3" font-family="Times,serif" font-size="14.00">Clerk</text>
</g>
<!-- User -->
<g id="node20" class="node"><title>User</title>
<ellipse fill="none" stroke="black" cx="1082.69" cy="-177" rx="27" ry="18"/>
<text text-anchor="middle" x="1082.69" y="-172.8" font-family="Times,serif" font-size="14.00">User</text>
</g>
<!-- Clerk&#45;&gt;User -->
<g id="edge2" class="edge"><title>Clerk&#45;&gt;User</title>
<path fill="none" stroke="#dd2ff8" d="M453.974,-262.489C571.062,-246.754 930.486,-198.454 1046.31,-182.889"/>
<ellipse fill="none" stroke="#dd2ff8" cx="449.698" cy="-263.064" rx="4.00001" ry="4.00001"/>
<polygon fill="#dd2ff8" stroke="#dd2ff8" points="1046.52,-182.86 1057.03,-185.988 1051.48,-182.195 1056.43,-181.529 1056.43,-181.529 1056.43,-181.529 1051.48,-182.195 1055.83,-177.069 1046.52,-182.86 1046.52,-182.86"/>
</g>
<!-- Demo -->
<g id="node8" class="node"><title>Demo</title>
<ellipse fill="none" stroke="black" cx="1693.69" cy="-268.5" rx="31.9393" ry="18"/>
<text text-anchor="middle" x="1693.69" y="-264.3" font-family="Times,serif" font-size="14.00">Demo</text>
</g>
<!-- GoodnessValidator -->
<g id="node10" class="node"><title>GoodnessValidator</title>
<polygon fill="none" stroke="black" points="1865.73,-286.5 1743.65,-286.5 1743.65,-250.5 1865.73,-250.5 1865.73,-286.5"/>
<text text-anchor="middle" x="1804.69" y="-264.3" font-family="Times,serif" font-size="14.00">GoodnessValidator</text>
</g>
<!-- HomepageInfo -->
<g id="node11" class="node"><title>HomepageInfo</title>
<ellipse fill="none" stroke="black" cx="607.688" cy="-91" rx="63.2924" ry="18"/>
<text text-anchor="middle" x="607.688" y="-86.8" font-family="Times,serif" font-size="14.00">HomepageInfo</text>
</g>
<!-- Industry -->
<g id="node12" class="node"><title>Industry</title>
<ellipse fill="none" stroke="black" cx="1923.69" cy="-268.5" rx="39.6645" ry="18"/>
<text text-anchor="middle" x="1923.69" y="-264.3" font-family="Times,serif" font-size="14.00">Industry</text>
</g>
<!-- PersonalInfo -->
<g id="node13" class="node"><title>PersonalInfo</title>
<ellipse fill="none" stroke="black" cx="743.688" cy="-91" rx="55.0922" ry="18"/>
<text text-anchor="middle" x="743.688" y="-86.8" font-family="Times,serif" font-size="14.00">PersonalInfo</text>
</g>
<!-- Photo -->
<g id="node14" class="node"><title>Photo</title>
<ellipse fill="none" stroke="black" cx="303.688" cy="-91" rx="30.9967" ry="18"/>
<text text-anchor="middle" x="303.688" y="-86.8" font-family="Times,serif" font-size="14.00">Photo</text>
</g>
<!-- PhotoLink -->
<g id="node15" class="node"><title>PhotoLink</title>
<ellipse fill="none" stroke="black" cx="864.688" cy="-91" rx="47.3995" ry="18"/>
<text text-anchor="middle" x="864.688" y="-86.8" font-family="Times,serif" font-size="14.00">PhotoLink</text>
</g>
<!-- Project -->
<g id="node16" class="node"><title>Project</title>
<ellipse fill="none" stroke="black" cx="1680.69" cy="-91" rx="35.3129" ry="18"/>
<text text-anchor="middle" x="1680.69" y="-86.8" font-family="Times,serif" font-size="14.00">Project</text>
</g>
<!-- School -->
<g id="node17" class="node"><title>School</title>
<ellipse fill="none" stroke="black" cx="1524.69" cy="-268.5" rx="34.8458" ry="18"/>
<text text-anchor="middle" x="1524.69" y="-264.3" font-family="Times,serif" font-size="14.00">School</text>
</g>
<!-- School&#45;&gt;Article -->
<g id="edge5" class="edge"><title>School&#45;&gt;Article</title>
<path fill="none" stroke="#d8c0ac" d="M1550.05,-245.986C1555.78,-241.287 1561.89,-236.404 1567.69,-232 1599.5,-207.856 1692.82,-143.787 1740.27,-111.368"/>
<polygon fill="#d8c0ac" stroke="#d8c0ac" points="1549.7,-246.277 1539.13,-249.198 1545.85,-249.469 1542,-252.662 1542,-252.662 1542,-252.662 1545.85,-249.469 1544.87,-256.125 1549.7,-246.277 1549.7,-246.277"/>
<polygon fill="#d8c0ac" stroke="#d8c0ac" points="1740.32,-111.339 1751.11,-109.417 1744.45,-108.519 1748.57,-105.7 1748.57,-105.7 1748.57,-105.7 1744.45,-108.519 1746.04,-101.984 1740.32,-111.339 1740.32,-111.339"/>
</g>
<!-- School&#45;&gt;Photo -->
<g id="edge6" class="edge"><title>School&#45;&gt;Photo</title>
<path fill="none" stroke="#1e0961" d="M1480.21,-264.804C1332.97,-255.334 848.456,-219.818 455.688,-141 404.93,-130.814 392.492,-126.269 343.688,-109 341.467,-108.214 339.193,-107.367 336.912,-106.486"/>
<polygon fill="#1e0961" stroke="#1e0961" points="1480.24,-264.806 1489.93,-269.932 1485.23,-265.123 1490.22,-265.441 1490.22,-265.441 1490.22,-265.441 1485.23,-265.123 1490.5,-260.95 1480.24,-264.806 1480.24,-264.806"/>
<polygon fill="#1e0961" stroke="#1e0961" points="336.886,-106.475 329.294,-98.5621 332.249,-104.605 327.611,-102.736 327.611,-102.736 327.611,-102.736 332.249,-104.605 325.929,-106.909 336.886,-106.475 336.886,-106.475"/>
</g>
<!-- School&#45;&gt;Project -->
<g id="edge4" class="edge"><title>School&#45;&gt;Project</title>
<path fill="none" stroke="#a8267c" d="M1545.32,-244.292C1575.16,-210.716 1630.07,-148.941 1659.97,-115.309"/>
<polygon fill="#a8267c" stroke="#a8267c" points="1545.18,-244.451 1535.17,-248.936 1541.85,-248.188 1538.53,-251.926 1538.53,-251.926 1538.53,-251.926 1541.85,-248.188 1541.9,-254.915 1545.18,-244.451 1545.18,-244.451"/>
<polygon fill="#a8267c" stroke="#a8267c" points="1660.01,-115.266 1670.01,-110.781 1663.33,-111.529 1666.65,-107.792 1666.65,-107.792 1666.65,-107.792 1663.33,-111.529 1663.29,-104.802 1660.01,-115.266 1660.01,-115.266"/>
</g>
<!-- School&#45;&gt;User -->
<g id="edge3" class="edge"><title>School&#45;&gt;User</title>
<path fill="none" stroke="#a47d3d" d="M1484.92,-259.448C1399.62,-242.175 1200.17,-201.788 1118.51,-185.253"/>
<ellipse fill="none" stroke="#a47d3d" cx="1488.98" cy="-260.269" rx="4.00001" ry="4.00001"/>
<polygon fill="#a47d3d" stroke="#a47d3d" points="1118.04,-185.159 1109.14,-178.764 1113.14,-184.167 1108.24,-183.175 1108.24,-183.175 1108.24,-183.175 1113.14,-184.167 1107.35,-187.585 1118.04,-185.159 1118.04,-185.159"/>
</g>
<!-- Showcase -->
<g id="node18" class="node"><title>Showcase</title>
<ellipse fill="none" stroke="black" cx="2026.69" cy="-268.5" rx="45.4441" ry="18"/>
<text text-anchor="middle" x="2026.69" y="-264.3" font-family="Times,serif" font-size="14.00">Showcase</text>
</g>
<!-- SocialLink -->
<g id="node19" class="node"><title>SocialLink</title>
<ellipse fill="none" stroke="black" cx="978.688" cy="-91" rx="48.8273" ry="18"/>
<text text-anchor="middle" x="978.688" y="-86.8" font-family="Times,serif" font-size="14.00">SocialLink</text>
</g>
<!-- User&#45;&gt;Article -->
<g id="edge7" class="edge"><title>User&#45;&gt;Article</title>
<path fill="none" stroke="#7685cc" d="M1117.89,-176.175C1203.13,-176.058 1427.11,-172.498 1610.69,-141 1653.47,-133.659 1700.81,-117.907 1732.41,-106.233"/>
<ellipse fill="none" stroke="#7685cc" cx="1113.85" cy="-176.176" rx="4" ry="4"/>
<polygon fill="#7685cc" stroke="#7685cc" points="1732.73,-106.114 1743.67,-106.816 1737.41,-104.358 1742.09,-102.603 1742.09,-102.603 1742.09,-102.603 1737.41,-104.358 1740.51,-98.3891 1732.73,-106.114 1732.73,-106.114"/>
</g>
<!-- User&#45;&gt;BackgroundInfo -->
<g id="edge8" class="edge"><title>User&#45;&gt;BackgroundInfo</title>
<path fill="none" stroke="#c4ec4d" d="M1047.54,-175.97C938.612,-175.547 607.912,-171.701 505.688,-141 499.972,-139.283 475.037,-124.759 453.64,-111.966"/>
<ellipse fill="none" stroke="#c4ec4d" cx="1051.59" cy="-175.983" rx="4" ry="4"/>
<ellipse fill="#c4ec4d" stroke="#c4ec4d" cx="449.983" cy="-109.772" rx="4.00002" ry="4.00002"/>
</g>
<!-- User&#45;&gt;Experience -->
<g id="edge9" class="edge"><title>User&#45;&gt;Experience</title>
<path fill="none" stroke="#e8b2f7" d="M1045.22,-175.816C935.714,-174.609 618.737,-166.143 535.688,-109 514.024,-94.0939 501.041,-66.3968 493.937,-45.6489"/>
<polygon fill="#e8b2f7" stroke="#e8b2f7" points="1045.45,-175.818 1055.41,-180.414 1050.45,-175.866 1055.45,-175.914 1055.45,-175.914 1055.45,-175.914 1050.45,-175.866 1055.49,-171.414 1045.45,-175.818 1045.45,-175.818"/>
<polygon fill="#e8b2f7" stroke="#e8b2f7" points="493.935,-45.64 495.199,-34.7472 492.422,-40.8741 490.91,-36.1083 490.91,-36.1083 490.91,-36.1083 492.422,-40.8741 486.621,-37.4694 493.935,-45.64 493.935,-45.64"/>
</g>
<!-- User&#45;&gt;HomepageInfo -->
<g id="edge10" class="edge"><title>User&#45;&gt;HomepageInfo</title>
<path fill="none" stroke="#006989" d="M1048.12,-171.053C978.251,-160.877 815.331,-136.257 679.688,-109 673.888,-107.834 667.844,-106.538 661.831,-105.195"/>
<ellipse fill="none" stroke="#006989" cx="1052.21" cy="-171.647" rx="4.00001" ry="4.00001"/>
<ellipse fill="#006989" stroke="#006989" cx="657.579" cy="-104.23" rx="4.00001" ry="4.00001"/>
</g>
<!-- User&#45;&gt;PersonalInfo -->
<g id="edge11" class="edge"><title>User&#45;&gt;PersonalInfo</title>
<path fill="none" stroke="#076199" d="M1049.92,-168.166C998.474,-155.828 895.661,-131.006 808.688,-109 803.716,-107.742 798.534,-106.415 793.362,-105.079"/>
<ellipse fill="none" stroke="#076199" cx="1053.83" cy="-169.104" rx="4.00001" ry="4.00001"/>
<ellipse fill="#076199" stroke="#076199" cx="789.145" cy="-103.986" rx="4.00001" ry="4.00001"/>
</g>
<!-- User&#45;&gt;Photo -->
<g id="edge16" class="edge"><title>User&#45;&gt;Photo</title>
<path fill="none" stroke="#ab786d" d="M1047.25,-175.809C935.052,-174.911 588.633,-169.815 480.688,-141 467.245,-137.412 465.922,-131.293 452.688,-127 405.983,-111.851 390.838,-122.7 343.688,-109 341.278,-108.3 338.82,-107.495 336.366,-106.624"/>
<ellipse fill="none" stroke="#ab786d" cx="1051.54" cy="-175.841" rx="4" ry="4"/>
<polygon fill="#ab786d" stroke="#ab786d" points="336.366,-106.624 328.658,-98.8237 331.701,-104.823 327.037,-103.022 327.037,-103.022 327.037,-103.022 331.701,-104.823 325.416,-107.22 336.366,-106.624 336.366,-106.624"/>
</g>
<!-- User&#45;&gt;PhotoLink -->
<g id="edge12" class="edge"><title>User&#45;&gt;PhotoLink</title>
<path fill="none" stroke="#2972bc" d="M1052.25,-164.273C1013.65,-149.4 947.005,-123.719 904.427,-107.312"/>
<ellipse fill="none" stroke="#2972bc" cx="1056.04" cy="-165.731" rx="4.00001" ry="4.00001"/>
<ellipse fill="#2972bc" stroke="#2972bc" cx="900.502" cy="-105.8" rx="4.00001" ry="4.00001"/>
</g>
<!-- User&#45;&gt;Project -->
<g id="edge13" class="edge"><title>User&#45;&gt;Project</title>
<path fill="none" stroke="#f4bc5f" d="M1117.94,-175.208C1216.03,-172.733 1490.66,-163.901 1577.69,-141 1603.31,-134.257 1630.29,-121.176 1650.2,-110.225"/>
<ellipse fill="none" stroke="#f4bc5f" cx="1113.82" cy="-175.309" rx="4" ry="4"/>
<polygon fill="#f4bc5f" stroke="#f4bc5f" points="1650.39,-110.122 1661.31,-109.137 1654.74,-107.669 1659.1,-105.216 1659.1,-105.216 1659.1,-105.216 1654.74,-107.669 1656.89,-101.294 1650.39,-110.122 1650.39,-110.122"/>
</g>
<!-- User&#45;&gt;SocialLink -->
<g id="edge14" class="edge"><title>User&#45;&gt;SocialLink</title>
<path fill="none" stroke="#cf6130" d="M1059.54,-157.3C1043.26,-144.156 1021.47,-126.559 1004.62,-112.944"/>
<ellipse fill="none" stroke="#cf6130" cx="1062.87" cy="-159.991" rx="4.00002" ry="4.00002"/>
<ellipse fill="#cf6130" stroke="#cf6130" cx="1001.3" cy="-110.265" rx="4.00002" ry="4.00002"/>
</g>
<!-- WebsiteSetting -->
<g id="node21" class="node"><title>WebsiteSetting</title>
<ellipse fill="none" stroke="black" cx="1108.69" cy="-91" rx="63.3707" ry="18"/>
<text text-anchor="middle" x="1108.69" y="-86.8" font-family="Times,serif" font-size="14.00">WebsiteSetting</text>
</g>
<!-- User&#45;&gt;WebsiteSetting -->
<g id="edge15" class="edge"><title>User&#45;&gt;WebsiteSetting</title>
<path fill="none" stroke="#a0643c" d="M1078.09,-150.671C1077.62,-142.896 1078.08,-134.434 1080.69,-127 1082.17,-122.778 1084.4,-118.687 1086.96,-114.881"/>
<ellipse fill="none" stroke="#a0643c" cx="1078.51" cy="-154.778" rx="4" ry="4"/>
<ellipse fill="#a0643c" stroke="#a0643c" cx="1089.45" cy="-111.568" rx="4.00002" ry="4.00002"/>
</g>
<!-- ActsAsTaggableOn::Tagging -->
<g id="node22" class="node"><title>ActsAsTaggableOn::Tagging</title>
<ellipse fill="none" stroke="black" cx="1302.69" cy="-91" rx="113.006" ry="18"/>
<text text-anchor="middle" x="1302.69" y="-86.8" font-family="Times,serif" font-size="14.00">ActsAsTaggableOn::Tagging</text>
</g>
<!-- User&#45;&gt;ActsAsTaggableOn::Tagging -->
<g id="edge17" class="edge"><title>User&#45;&gt;ActsAsTaggableOn::Tagging</title>
<path fill="none" stroke="#b80070" d="M1118.17,-175.989C1176.35,-175.132 1288.04,-169.686 1312.69,-141 1317.94,-134.888 1318.07,-126.768 1316.1,-118.898"/>
<ellipse fill="none" stroke="#b80070" cx="1113.99" cy="-176.038" rx="4" ry="4"/>
<polygon fill="#b80070" stroke="#b80070" points="1316.02,-118.67 1316.96,-107.745 1314.37,-113.952 1312.71,-109.234 1312.71,-109.234 1312.71,-109.234 1314.37,-113.952 1308.46,-110.723 1316.02,-118.67 1316.02,-118.67"/>
<text text-anchor="middle" x="1340.41" y="-129.8" font-family="Times,serif" font-size="14.00">taggings</text>
</g>
<!-- User&#45;&gt;ActsAsTaggableOn::Tagging -->
<g id="edge19" class="edge"><title>User&#45;&gt;ActsAsTaggableOn::Tagging</title>
<path fill="none" stroke="#d98690" d="M1086.35,-151.115C1088.87,-142.287 1093.14,-133.052 1100.36,-127 1104.98,-123.126 1161.21,-113.572 1213.23,-105.424"/>
<ellipse fill="none" stroke="#d98690" cx="1085.4" cy="-155.111" rx="4.00001" ry="4.00001"/>
<polygon fill="#d98690" stroke="#d98690" points="1213.33,-105.407 1223.91,-108.314 1218.27,-104.637 1223.21,-103.868 1223.21,-103.868 1223.21,-103.868 1218.27,-104.637 1222.52,-99.4214 1213.33,-105.407 1213.33,-105.407"/>
<text text-anchor="middle" x="1149.85" y="-129.8" font-family="Times,serif" font-size="14.00">industry_taggings</text>
</g>
<!-- User&#45;&gt;ActsAsTaggableOn::Tagging -->
<g id="edge21" class="edge"><title>User&#45;&gt;ActsAsTaggableOn::Tagging</title>
<path fill="none" stroke="#ee9404" d="M1116.33,-169.212C1140.57,-163.569 1173.64,-154.3 1200.69,-141 1210.22,-136.312 1210.81,-132.216 1220.07,-127 1229.73,-121.555 1240.41,-116.431 1250.79,-111.871"/>
<ellipse fill="none" stroke="#ee9404" cx="1112.37" cy="-170.106" rx="4.00001" ry="4.00001"/>
<polygon fill="#ee9404" stroke="#ee9404" points="1251.01,-111.778 1261.97,-111.987 1255.61,-109.813 1260.21,-107.849 1260.21,-107.849 1260.21,-107.849 1255.61,-109.813 1258.44,-103.71 1251.01,-111.778 1251.01,-111.778"/>
<text text-anchor="middle" x="1264" y="-129.8" font-family="Times,serif" font-size="14.00">career_taggings</text>
</g>
<!-- ActsAsTaggableOn::Tag -->
<g id="node23" class="node"><title>ActsAsTaggableOn::Tag</title>
<ellipse fill="none" stroke="black" cx="1530.69" cy="-91" rx="97.0617" ry="18"/>
<text text-anchor="middle" x="1530.69" y="-86.8" font-family="Times,serif" font-size="14.00">ActsAsTaggableOn::Tag</text>
</g>
<!-- User&#45;&gt;ActsAsTaggableOn::Tag -->
<g id="edge18" class="edge"><title>User&#45;&gt;ActsAsTaggableOn::Tag</title>
<path fill="none" stroke="#559692" d="M1119.8,-175.088C1217.65,-172.388 1477.3,-163.19 1508.69,-141 1516.13,-135.738 1521.1,-127.35 1524.39,-118.991"/>
<polygon fill="#559692" stroke="#559692" points="1119.77,-175.089 1109.65,-170.86 1114.77,-175.224 1109.77,-175.358 1109.77,-175.358 1109.77,-175.358 1114.77,-175.224 1109.89,-179.856 1119.77,-175.089 1119.77,-175.089"/>
<polygon fill="#559692" stroke="#559692" points="1524.43,-118.883 1531.82,-110.782 1525.99,-114.132 1527.54,-109.38 1527.54,-109.38 1527.54,-109.38 1525.99,-114.132 1523.27,-107.979 1524.43,-118.883 1524.43,-118.883"/>
<text text-anchor="middle" x="1546.9" y="-129.8" font-family="Times,serif" font-size="14.00">base_tags</text>
</g>
<!-- User&#45;&gt;ActsAsTaggableOn::Tag -->
<g id="edge20" class="edge"><title>User&#45;&gt;ActsAsTaggableOn::Tag</title>
<path fill="none" stroke="#f41581" d="M1120.07,-174.151C1175,-170.819 1280.47,-162.079 1367.69,-141 1385.23,-136.761 1388.63,-132.55 1405.8,-127 1425.59,-120.601 1447.37,-114.262 1467.11,-108.774"/>
<polygon fill="#f41581" stroke="#f41581" points="1119.76,-174.168 1109.51,-170.254 1114.77,-174.458 1109.77,-174.747 1109.77,-174.747 1109.77,-174.747 1114.77,-174.458 1110.04,-179.239 1119.76,-174.168 1119.76,-174.168"/>
<polygon fill="#f41581" stroke="#f41581" points="1467.29,-108.725 1478.12,-110.406 1472.11,-107.397 1476.93,-106.068 1476.93,-106.068 1476.93,-106.068 1472.11,-107.397 1475.73,-101.73 1467.29,-108.725 1467.29,-108.725"/>
<text text-anchor="middle" x="1428.63" y="-129.8" font-family="Times,serif" font-size="14.00">industry</text>
</g>
<!-- User&#45;&gt;ActsAsTaggableOn::Tag -->
<g id="edge22" class="edge"><title>User&#45;&gt;ActsAsTaggableOn::Tag</title>
<path fill="none" stroke="#e4f37e" d="M1119.87,-175.006C1201.07,-172.427 1391.76,-164.041 1451.69,-141 1461.42,-137.259 1461.81,-132.741 1470.51,-127 1477.39,-122.461 1484.87,-117.856 1492.16,-113.542"/>
<polygon fill="#e4f37e" stroke="#e4f37e" points="1119.61,-175.014 1109.48,-170.821 1114.62,-175.166 1109.62,-175.319 1109.62,-175.319 1109.62,-175.319 1114.62,-175.166 1109.76,-179.817 1119.61,-175.014 1119.61,-175.014"/>
<polygon fill="#e4f37e" stroke="#e4f37e" points="1492.57,-113.301 1503.47,-112.149 1496.89,-110.782 1501.21,-108.262 1501.21,-108.262 1501.21,-108.262 1496.89,-110.782 1498.94,-104.375 1492.57,-113.301 1492.57,-113.301"/>
<text text-anchor="middle" x="1486.78" y="-129.8" font-family="Times,serif" font-size="14.00">career</text>
</g>
</g>
</svg>
