<?xml version="1.0" encoding="UTF-8" standalone="no"?>
<!DOCTYPE svg PUBLIC "-//W3C//DTD SVG 1.1//EN"
 "http://www.w3.org/Graphics/SVG/1.1/DTD/svg11.dtd">
<!-- Generated by graphviz version 2.38.0 (20140413.2041)
 -->
<!-- Title: models_diagram Pages: 1 -->
<svg width="1061pt" height="297pt"
 viewBox="0.00 0.00 1061.09 297.00" xmlns="http://www.w3.org/2000/svg" xmlns:xlink="http://www.w3.org/1999/xlink">
<g id="graph0" class="graph" transform="scale(1 1) rotate(0) translate(4 293)">
<title>models_diagram</title>
<polygon fill="none" stroke="none" points="-4,4 -4,-293 1057.09,-293 1057.09,4 -4,4"/>
<!-- _diagram_info -->
<g id="node1" class="node"><title>_diagram_info</title>
<text text-anchor="start" x="211.972" y="-274.6" font-family="Times,serif" font-size="13.00">Models diagram</text>
<text text-anchor="start" x="211.972" y="-261.6" font-family="Times,serif" font-size="13.00">Date: May 14 2016 &#45; 15:14</text>
<text text-anchor="start" x="211.972" y="-248.6" font-family="Times,serif" font-size="13.00">Migration version: 20160514191334</text>
<text text-anchor="start" x="211.972" y="-235.6" font-family="Times,serif" font-size="13.00">Generated by RailRoady 1.3.1</text>
<text text-anchor="start" x="211.972" y="-222.6" font-family="Times,serif" font-size="13.00">http://railroady.prestonlee.com</text>
</g>
<!-- Ability -->
<g id="node2" class="node"><title>Ability</title>
<polygon fill="none" stroke="black" points="485.329,-270.5 429.99,-270.5 429.99,-234.5 485.329,-234.5 485.329,-270.5"/>
<text text-anchor="middle" x="457.66" y="-248.3" font-family="Times,serif" font-size="14.00">Ability</text>
</g>
<!-- Article -->
<g id="node3" class="node"><title>Article</title>
<ellipse fill="none" stroke="black" cx="34.6595" cy="-90" rx="34.8198" ry="18"/>
<text text-anchor="middle" x="34.6595" y="-85.8" font-family="Times,serif" font-size="14.00">Article</text>
</g>
<!-- BackgroundInfo -->
<g id="node4" class="node"><title>BackgroundInfo</title>
<ellipse fill="none" stroke="black" cx="155.66" cy="-90" rx="68.1287" ry="18"/>
<text text-anchor="middle" x="155.66" y="-85.8" font-family="Times,serif" font-size="14.00">BackgroundInfo</text>
</g>
<!-- Experience -->
<g id="node5" class="node"><title>Experience</title>
<ellipse fill="none" stroke="black" cx="203.66" cy="-18" rx="49.7533" ry="18"/>
<text text-anchor="middle" x="203.66" y="-13.8" font-family="Times,serif" font-size="14.00">Experience</text>
</g>
<!-- BackgroundInfo&#45;&gt;Experience -->
<g id="edge1" class="edge"><title>BackgroundInfo&#45;&gt;Experience</title>
<path fill="none" stroke="#1b5076" d="M171.925,-65.28C176.594,-58.4704 181.701,-51.0228 186.427,-44.1312"/>
<ellipse fill="none" stroke="#1b5076" cx="169.541" cy="-68.756" rx="4.00002" ry="4.00002"/>
<polygon fill="#1b5076" stroke="#1b5076" points="186.492,-44.0363 195.858,-38.3339 189.319,-39.9127 192.147,-35.789 192.147,-35.789 192.147,-35.789 189.319,-39.9127 188.436,-33.2441 186.492,-44.0363 186.492,-44.0363"/>
</g>
<!-- HomepageInfo -->
<g id="node6" class="node"><title>HomepageInfo</title>
<ellipse fill="none" stroke="black" cx="342.66" cy="-90" rx="63.2924" ry="18"/>
<text text-anchor="middle" x="342.66" y="-85.8" font-family="Times,serif" font-size="14.00">HomepageInfo</text>
</g>
<!-- PersonalInfo -->
<g id="node7" class="node"><title>PersonalInfo</title>
<ellipse fill="none" stroke="black" cx="478.66" cy="-90" rx="55.0922" ry="18"/>
<text text-anchor="middle" x="478.66" y="-85.8" font-family="Times,serif" font-size="14.00">PersonalInfo</text>
</g>
<!-- PhotoLink -->
<g id="node8" class="node"><title>PhotoLink</title>
<ellipse fill="none" stroke="black" cx="599.66" cy="-90" rx="47.3995" ry="18"/>
<text text-anchor="middle" x="599.66" y="-85.8" font-family="Times,serif" font-size="14.00">PhotoLink</text>
</g>
<!-- Project -->
<g id="node9" class="node"><title>Project</title>
<ellipse fill="none" stroke="black" cx="710.66" cy="-18" rx="35.3129" ry="18"/>
<text text-anchor="middle" x="710.66" y="-13.8" font-family="Times,serif" font-size="14.00">Project</text>
</g>
<!-- School -->
<g id="node10" class="node"><title>School</title>
<ellipse fill="none" stroke="black" cx="538.66" cy="-252.5" rx="34.8458" ry="18"/>
<text text-anchor="middle" x="538.66" y="-248.3" font-family="Times,serif" font-size="14.00">School</text>
</g>
<!-- User -->
<g id="node13" class="node"><title>User</title>
<ellipse fill="none" stroke="black" cx="538.66" cy="-162" rx="27" ry="18"/>
<text text-anchor="middle" x="538.66" y="-157.8" font-family="Times,serif" font-size="14.00">User</text>
</g>
<!-- School&#45;&gt;User -->
<g id="edge2" class="edge"><title>School&#45;&gt;User</title>
<path fill="none" stroke="#6492ef" d="M538.66,-226.189C538.66,-214.971 538.66,-201.752 538.66,-190.311"/>
<ellipse fill="none" stroke="#6492ef" cx="538.66" cy="-230.436" rx="4" ry="4"/>
<polygon fill="#6492ef" stroke="#6492ef" points="538.66,-190.011 543.16,-180.011 538.66,-185.011 538.66,-180.011 538.66,-180.011 538.66,-180.011 538.66,-185.011 534.16,-180.011 538.66,-190.011 538.66,-190.011"/>
</g>
<!-- Showcase -->
<g id="node11" class="node"><title>Showcase</title>
<ellipse fill="none" stroke="black" cx="747.66" cy="-90" rx="45.4441" ry="18"/>
<text text-anchor="middle" x="747.66" y="-85.8" font-family="Times,serif" font-size="14.00">Showcase</text>
</g>
<!-- Showcase&#45;&gt;Project -->
<g id="edge3" class="edge"><title>Showcase&#45;&gt;Project</title>
<path fill="none" stroke="#d22f50" d="M734.823,-64.7144C731.433,-58.3016 727.763,-51.3577 724.331,-44.8648"/>
<ellipse fill="none" stroke="#d22f50" cx="736.834" cy="-68.5186" rx="4.00002" ry="4.00002"/>
<polygon fill="#d22f50" stroke="#d22f50" points="724.207,-44.63 723.512,-33.6861 721.87,-40.2095 719.534,-35.789 719.534,-35.789 719.534,-35.789 721.87,-40.2095 715.555,-37.8919 724.207,-44.63 724.207,-44.63"/>
</g>
<!-- SocialLink -->
<g id="node12" class="node"><title>SocialLink</title>
<ellipse fill="none" stroke="black" cx="859.66" cy="-90" rx="48.8273" ry="18"/>
<text text-anchor="middle" x="859.66" y="-85.8" font-family="Times,serif" font-size="14.00">SocialLink</text>
</g>
<!-- User&#45;&gt;Article -->
<g id="edge4" class="edge"><title>User&#45;&gt;Article</title>
<path fill="none" stroke="#662f71" d="M503.5,-159.982C425.787,-157.077 233.984,-146.291 78.6595,-108 75.8269,-107.302 72.9306,-106.469 70.0432,-105.552"/>
<ellipse fill="none" stroke="#662f71" cx="507.536" cy="-160.127" rx="4" ry="4"/>
<polygon fill="#662f71" stroke="#662f71" points="69.8106,-105.471 61.8442,-97.9351 65.0882,-103.828 60.3657,-102.185 60.3657,-102.185 60.3657,-102.185 65.0882,-103.828 58.8873,-106.435 69.8106,-105.471 69.8106,-105.471"/>
</g>
<!-- User&#45;&gt;BackgroundInfo -->
<g id="edge5" class="edge"><title>User&#45;&gt;BackgroundInfo</title>
<path fill="none" stroke="#f09a04" d="M504.724,-155.367C448.919,-146.028 334.317,-126.525 237.66,-108 230.424,-106.613 222.84,-105.11 215.33,-103.589"/>
<ellipse fill="none" stroke="#f09a04" cx="508.897" cy="-156.065" rx="4.00001" ry="4.00001"/>
<ellipse fill="#f09a04" stroke="#f09a04" cx="211.148" cy="-102.737" rx="4.00001" ry="4.00001"/>
</g>
<!-- User&#45;&gt;Experience -->
<g id="edge6" class="edge"><title>User&#45;&gt;Experience</title>
<path fill="none" stroke="#a3a0ad" d="M501.372,-161.762C446.629,-161.184 343.163,-153.493 270.66,-108 246.476,-92.8255 227.904,-65.5573 216.514,-45.1889"/>
<polygon fill="#a3a0ad" stroke="#a3a0ad" points="501.647,-161.763 511.634,-166.292 506.647,-161.777 511.647,-161.792 511.647,-161.792 511.647,-161.792 506.647,-161.777 511.66,-157.292 501.647,-161.763 501.647,-161.763"/>
<polygon fill="#a3a0ad" stroke="#a3a0ad" points="216.37,-44.9212 215.615,-33.9813 214.009,-40.5137 211.649,-36.1061 211.649,-36.1061 211.649,-36.1061 214.009,-40.5137 207.682,-38.231 216.37,-44.9212 216.37,-44.9212"/>
</g>
<!-- User&#45;&gt;HomepageInfo -->
<g id="edge7" class="edge"><title>User&#45;&gt;HomepageInfo</title>
<path fill="none" stroke="#e766ec" d="M507.554,-149.891C475.416,-138.413 424.918,-120.378 388.267,-107.288"/>
<ellipse fill="none" stroke="#e766ec" cx="511.639" cy="-151.35" rx="4.00001" ry="4.00001"/>
<ellipse fill="#e766ec" stroke="#e766ec" cx="384.435" cy="-105.92" rx="4.00001" ry="4.00001"/>
</g>
<!-- User&#45;&gt;PersonalInfo -->
<g id="edge8" class="edge"><title>User&#45;&gt;PersonalInfo</title>
<path fill="none" stroke="#fac7f7" d="M520.389,-139.684C513.358,-131.482 505.307,-122.089 498.165,-113.756"/>
<ellipse fill="none" stroke="#fac7f7" cx="523.037" cy="-142.774" rx="4.00002" ry="4.00002"/>
<ellipse fill="#fac7f7" stroke="#fac7f7" cx="495.515" cy="-110.665" rx="4.00002" ry="4.00002"/>
</g>
<!-- User&#45;&gt;PhotoLink -->
<g id="edge9" class="edge"><title>User&#45;&gt;PhotoLink</title>
<path fill="none" stroke="#2868d3" d="M557.015,-139.937C564.283,-131.596 572.651,-121.993 580.039,-113.515"/>
<ellipse fill="none" stroke="#2868d3" cx="554.224" cy="-143.139" rx="4.00002" ry="4.00002"/>
<ellipse fill="#2868d3" stroke="#2868d3" cx="582.836" cy="-110.306" rx="4.00002" ry="4.00002"/>
</g>
<!-- User&#45;&gt;Project -->
<g id="edge11" class="edge"><title>User&#45;&gt;Project</title>
<path fill="none" stroke="#e86d2c" d="M573.252,-151.337C598.303,-143.006 631.817,-128.967 655.66,-108 675.379,-90.6588 690.367,-64.5191 699.679,-45.0493"/>
<polygon fill="#e86d2c" stroke="#e86d2c" points="572.957,-151.431 562.064,-150.171 568.192,-152.945 563.426,-154.459 563.426,-154.459 563.426,-154.459 568.192,-152.945 564.789,-158.748 572.957,-151.431 572.957,-151.431"/>
<polygon fill="#e86d2c" stroke="#e86d2c" points="699.739,-44.9168 707.998,-37.7025 701.823,-40.3719 703.907,-35.8269 703.907,-35.8269 703.907,-35.8269 701.823,-40.3719 699.817,-33.9512 699.739,-44.9168 699.739,-44.9168"/>
</g>
<!-- User&#45;&gt;Showcase -->
<g id="edge10" class="edge"><title>User&#45;&gt;Showcase</title>
<path fill="none" stroke="#e06aa5" d="M570.076,-150.478C606.428,-138.302 666.413,-118.212 706.473,-104.794"/>
<ellipse fill="none" stroke="#e06aa5" cx="566.021" cy="-151.836" rx="4.00001" ry="4.00001"/>
<ellipse fill="#e06aa5" stroke="#e06aa5" cx="710.414" cy="-103.475" rx="4.00001" ry="4.00001"/>
</g>
<!-- User&#45;&gt;SocialLink -->
<g id="edge12" class="edge"><title>User&#45;&gt;SocialLink</title>
<path fill="none" stroke="#885c92" d="M572.533,-155.14C622.818,-146.222 720.057,-128.141 801.66,-108 806.163,-106.889 810.84,-105.654 815.497,-104.372"/>
<ellipse fill="none" stroke="#885c92" cx="568.521" cy="-155.847" rx="4.00001" ry="4.00001"/>
<ellipse fill="#885c92" stroke="#885c92" cx="819.43" cy="-103.266" rx="4.00001" ry="4.00001"/>
</g>
<!-- WebsiteSetting -->
<g id="node14" class="node"><title>WebsiteSetting</title>
<ellipse fill="none" stroke="black" cx="989.66" cy="-90" rx="63.3707" ry="18"/>
<text text-anchor="middle" x="989.66" y="-85.8" font-family="Times,serif" font-size="14.00">WebsiteSetting</text>
</g>
<!-- User&#45;&gt;WebsiteSetting -->
<g id="edge13" class="edge"><title>User&#45;&gt;WebsiteSetting</title>
<path fill="none" stroke="#5f685e" d="M573.578,-157.217C640.598,-149.712 791.789,-131.608 917.66,-108 923.474,-106.909 929.528,-105.661 935.545,-104.347"/>
<ellipse fill="none" stroke="#5f685e" cx="569.424" cy="-157.679" rx="4.00001" ry="4.00001"/>
<ellipse fill="#5f685e" stroke="#5f685e" cx="939.8" cy="-103.395" rx="4.00001" ry="4.00001"/>
</g>
</g>
</svg>
