<?xml version="1.0" encoding="UTF-8" standalone="no"?>
<!DOCTYPE svg PUBLIC "-//W3C//DTD SVG 1.1//EN"
 "http://www.w3.org/Graphics/SVG/1.1/DTD/svg11.dtd">
<!-- Generated by graphviz version 2.38.0 (20140413.2041)
 -->
<!-- Title: models_diagram Pages: 1 -->
<svg width="1474pt" height="1430pt"
 viewBox="0.00 0.00 1473.80 1430.00" xmlns="http://www.w3.org/2000/svg" xmlns:xlink="http://www.w3.org/1999/xlink">
<g id="graph0" class="graph" transform="scale(1 1) rotate(0) translate(4 1426)">
<title>models_diagram</title>
<polygon fill="none" stroke="none" points="-4,4 -4,-1426 1469.8,-1426 1469.8,4 -4,4"/>
<!-- _diagram_info -->
<g id="node1" class="node"><title>_diagram_info</title>
<text text-anchor="start" x="436.818" y="-1400.6" font-family="Times,serif" font-size="13.00">Models diagram</text>
<text text-anchor="start" x="436.818" y="-1387.6" font-family="Times,serif" font-size="13.00">Date: May 14 2016 &#45; 15:14</text>
<text text-anchor="start" x="436.818" y="-1374.6" font-family="Times,serif" font-size="13.00">Migration version: 20160514191334</text>
<text text-anchor="start" x="436.818" y="-1361.6" font-family="Times,serif" font-size="13.00">Generated by RailRoady 1.3.1</text>
<text text-anchor="start" x="436.818" y="-1348.6" font-family="Times,serif" font-size="13.00">http://railroady.prestonlee.com</text>
</g>
<!-- Ability -->
<g id="node2" class="node"><title>Ability</title>
<polygon fill="none" stroke="black" points="654.671,-1356.5 654.671,-1400.5 710.34,-1400.5 710.34,-1356.5 654.671,-1356.5"/>
<text text-anchor="middle" x="682.505" y="-1385.3" font-family="Times,serif" font-size="14.00">Ability</text>
<polyline fill="none" stroke="black" points="654.671,-1378.5 710.34,-1378.5 "/>
<text text-anchor="middle" x="682.505" y="-1363.3" font-family="Times,serif" font-size="14.00"> </text>
</g>
<!-- Article -->
<g id="node3" class="node"><title>Article</title>
<path fill="none" stroke="black" d="M12,-676.5C12,-676.5 121.011,-676.5 121.011,-676.5 127.011,-676.5 133.011,-682.5 133.011,-688.5 133.011,-688.5 133.011,-792.5 133.011,-792.5 133.011,-798.5 127.011,-804.5 121.011,-804.5 121.011,-804.5 12,-804.5 12,-804.5 6,-804.5 0,-798.5 0,-792.5 0,-792.5 0,-688.5 0,-688.5 0,-682.5 6,-676.5 12,-676.5"/>
<text text-anchor="middle" x="66.5054" y="-789.3" font-family="Times,serif" font-size="14.00">Article</text>
<polyline fill="none" stroke="black" points="0,-782.5 133.011,-782.5 "/>
<text text-anchor="start" x="8" y="-767.3" font-family="Times,serif" font-size="14.00">id :integer</text>
<text text-anchor="start" x="8" y="-753.3" font-family="Times,serif" font-size="14.00">title :string</text>
<text text-anchor="start" x="8" y="-739.3" font-family="Times,serif" font-size="14.00">summary :text</text>
<text text-anchor="start" x="8" y="-725.3" font-family="Times,serif" font-size="14.00">url :string</text>
<text text-anchor="start" x="8" y="-711.3" font-family="Times,serif" font-size="14.00">created_at :datetime</text>
<text text-anchor="start" x="8" y="-697.3" font-family="Times,serif" font-size="14.00">updated_at :datetime</text>
<text text-anchor="start" x="8" y="-683.3" font-family="Times,serif" font-size="14.00">user_id :integer</text>
</g>
<!-- BackgroundInfo -->
<g id="node4" class="node"><title>BackgroundInfo</title>
<path fill="none" stroke="black" d="M162.779,-690.5C162.779,-690.5 298.231,-690.5 298.231,-690.5 304.231,-690.5 310.231,-696.5 310.231,-702.5 310.231,-702.5 310.231,-778.5 310.231,-778.5 310.231,-784.5 304.231,-790.5 298.231,-790.5 298.231,-790.5 162.779,-790.5 162.779,-790.5 156.779,-790.5 150.779,-784.5 150.779,-778.5 150.779,-778.5 150.779,-702.5 150.779,-702.5 150.779,-696.5 156.779,-690.5 162.779,-690.5"/>
<text text-anchor="middle" x="230.505" y="-775.3" font-family="Times,serif" font-size="14.00">BackgroundInfo</text>
<polyline fill="none" stroke="black" points="150.779,-768.5 310.231,-768.5 "/>
<text text-anchor="start" x="158.779" y="-753.3" font-family="Times,serif" font-size="14.00">id :integer</text>
<text text-anchor="start" x="158.779" y="-739.3" font-family="Times,serif" font-size="14.00">background_type :integer</text>
<text text-anchor="start" x="158.779" y="-725.3" font-family="Times,serif" font-size="14.00">created_at :datetime</text>
<text text-anchor="start" x="158.779" y="-711.3" font-family="Times,serif" font-size="14.00">updated_at :datetime</text>
<text text-anchor="start" x="158.779" y="-697.3" font-family="Times,serif" font-size="14.00">user_id :integer</text>
</g>
<!-- Experience -->
<g id="node5" class="node"><title>Experience</title>
<path fill="none" stroke="black" d="M208.61,-154.5C208.61,-154.5 360.4,-154.5 360.4,-154.5 366.4,-154.5 372.4,-160.5 372.4,-166.5 372.4,-166.5 372.4,-298.5 372.4,-298.5 372.4,-304.5 366.4,-310.5 360.4,-310.5 360.4,-310.5 208.61,-310.5 208.61,-310.5 202.61,-310.5 196.61,-304.5 196.61,-298.5 196.61,-298.5 196.61,-166.5 196.61,-166.5 196.61,-160.5 202.61,-154.5 208.61,-154.5"/>
<text text-anchor="middle" x="284.505" y="-295.3" font-family="Times,serif" font-size="14.00">Experience</text>
<polyline fill="none" stroke="black" points="196.61,-288.5 372.4,-288.5 "/>
<text text-anchor="start" x="204.61" y="-273.3" font-family="Times,serif" font-size="14.00">id :integer</text>
<text text-anchor="start" x="204.61" y="-259.3" font-family="Times,serif" font-size="14.00">url :string</text>
<text text-anchor="start" x="204.61" y="-245.3" font-family="Times,serif" font-size="14.00">created_at :datetime</text>
<text text-anchor="start" x="204.61" y="-231.3" font-family="Times,serif" font-size="14.00">updated_at :datetime</text>
<text text-anchor="start" x="204.61" y="-217.3" font-family="Times,serif" font-size="14.00">img_file_name :string</text>
<text text-anchor="start" x="204.61" y="-203.3" font-family="Times,serif" font-size="14.00">img_content_type :string</text>
<text text-anchor="start" x="204.61" y="-189.3" font-family="Times,serif" font-size="14.00">img_file_size :integer</text>
<text text-anchor="start" x="204.61" y="-175.3" font-family="Times,serif" font-size="14.00">img_updated_at :datetime</text>
<text text-anchor="start" x="204.61" y="-161.3" font-family="Times,serif" font-size="14.00">background_info_id :integer</text>
</g>
<!-- BackgroundInfo&#45;&gt;Experience -->
<g id="edge1" class="edge"><title>BackgroundInfo&#45;&gt;Experience</title>
<path fill="none" stroke="#99fb1b" d="M236.637,-682.045C246.056,-593.781 264.153,-424.207 275.197,-320.726"/>
<ellipse fill="none" stroke="#99fb1b" cx="236.206" cy="-686.084" rx="4" ry="4"/>
<polygon fill="#99fb1b" stroke="#99fb1b" points="275.215,-320.557 280.75,-311.091 275.745,-315.586 276.276,-310.614 276.276,-310.614 276.276,-310.614 275.745,-315.586 271.801,-310.136 275.215,-320.557 275.215,-320.557"/>
</g>
<!-- HomepageInfo -->
<g id="node6" class="node"><title>HomepageInfo</title>
<path fill="none" stroke="black" d="M378.683,-655.5C378.683,-655.5 576.328,-655.5 576.328,-655.5 582.328,-655.5 588.328,-661.5 588.328,-667.5 588.328,-667.5 588.328,-813.5 588.328,-813.5 588.328,-819.5 582.328,-825.5 576.328,-825.5 576.328,-825.5 378.683,-825.5 378.683,-825.5 372.683,-825.5 366.683,-819.5 366.683,-813.5 366.683,-813.5 366.683,-667.5 366.683,-667.5 366.683,-661.5 372.683,-655.5 378.683,-655.5"/>
<text text-anchor="middle" x="477.505" y="-810.3" font-family="Times,serif" font-size="14.00">HomepageInfo</text>
<polyline fill="none" stroke="black" points="366.683,-803.5 588.328,-803.5 "/>
<text text-anchor="start" x="374.683" y="-788.3" font-family="Times,serif" font-size="14.00">id :integer</text>
<text text-anchor="start" x="374.683" y="-774.3" font-family="Times,serif" font-size="14.00">homepage_header :string</text>
<text text-anchor="start" x="374.683" y="-760.3" font-family="Times,serif" font-size="14.00">homepage_display_name :string</text>
<text text-anchor="start" x="374.683" y="-746.3" font-family="Times,serif" font-size="14.00">user_id :integer</text>
<text text-anchor="start" x="374.683" y="-732.3" font-family="Times,serif" font-size="14.00">created_at :datetime</text>
<text text-anchor="start" x="374.683" y="-718.3" font-family="Times,serif" font-size="14.00">updated_at :datetime</text>
<text text-anchor="start" x="374.683" y="-704.3" font-family="Times,serif" font-size="14.00">homepage_pic_file_name :string</text>
<text text-anchor="start" x="374.683" y="-690.3" font-family="Times,serif" font-size="14.00">homepage_pic_content_type :string</text>
<text text-anchor="start" x="374.683" y="-676.3" font-family="Times,serif" font-size="14.00">homepage_pic_file_size :integer</text>
<text text-anchor="start" x="374.683" y="-662.3" font-family="Times,serif" font-size="14.00">homepage_pic_updated_at :datetime</text>
</g>
<!-- PersonalInfo -->
<g id="node7" class="node"><title>PersonalInfo</title>
<path fill="none" stroke="black" d="M617.896,-501.5C617.896,-501.5 789.114,-501.5 789.114,-501.5 795.114,-501.5 801.114,-507.5 801.114,-513.5 801.114,-513.5 801.114,-967.5 801.114,-967.5 801.114,-973.5 795.114,-979.5 789.114,-979.5 789.114,-979.5 617.896,-979.5 617.896,-979.5 611.896,-979.5 605.896,-973.5 605.896,-967.5 605.896,-967.5 605.896,-513.5 605.896,-513.5 605.896,-507.5 611.896,-501.5 617.896,-501.5"/>
<text text-anchor="middle" x="703.505" y="-964.3" font-family="Times,serif" font-size="14.00">PersonalInfo</text>
<polyline fill="none" stroke="black" points="605.896,-957.5 801.114,-957.5 "/>
<text text-anchor="start" x="613.896" y="-942.3" font-family="Times,serif" font-size="14.00">id :integer</text>
<text text-anchor="start" x="613.896" y="-928.3" font-family="Times,serif" font-size="14.00">name_first :string</text>
<text text-anchor="start" x="613.896" y="-914.3" font-family="Times,serif" font-size="14.00">name_last :string</text>
<text text-anchor="start" x="613.896" y="-900.3" font-family="Times,serif" font-size="14.00">intro_paragraph :text</text>
<text text-anchor="start" x="613.896" y="-886.3" font-family="Times,serif" font-size="14.00">created_at :datetime</text>
<text text-anchor="start" x="613.896" y="-872.3" font-family="Times,serif" font-size="14.00">updated_at :datetime</text>
<text text-anchor="start" x="613.896" y="-858.3" font-family="Times,serif" font-size="14.00">about_pic_file_name :string</text>
<text text-anchor="start" x="613.896" y="-844.3" font-family="Times,serif" font-size="14.00">about_pic_content_type :string</text>
<text text-anchor="start" x="613.896" y="-830.3" font-family="Times,serif" font-size="14.00">about_pic_file_size :integer</text>
<text text-anchor="start" x="613.896" y="-816.3" font-family="Times,serif" font-size="14.00">about_pic_updated_at :datetime</text>
<text text-anchor="start" x="613.896" y="-802.3" font-family="Times,serif" font-size="14.00">user_id :integer</text>
<text text-anchor="start" x="613.896" y="-788.3" font-family="Times,serif" font-size="14.00">resume_file_name :string</text>
<text text-anchor="start" x="613.896" y="-774.3" font-family="Times,serif" font-size="14.00">resume_content_type :string</text>
<text text-anchor="start" x="613.896" y="-760.3" font-family="Times,serif" font-size="14.00">resume_file_size :integer</text>
<text text-anchor="start" x="613.896" y="-746.3" font-family="Times,serif" font-size="14.00">resume_updated_at :datetime</text>
<text text-anchor="start" x="613.896" y="-732.3" font-family="Times,serif" font-size="14.00">vertical :boolean</text>
<text text-anchor="start" x="613.896" y="-718.3" font-family="Times,serif" font-size="14.00">exp1_file_name :string</text>
<text text-anchor="start" x="613.896" y="-704.3" font-family="Times,serif" font-size="14.00">exp1_content_type :string</text>
<text text-anchor="start" x="613.896" y="-690.3" font-family="Times,serif" font-size="14.00">exp1_file_size :integer</text>
<text text-anchor="start" x="613.896" y="-676.3" font-family="Times,serif" font-size="14.00">exp1_updated_at :datetime</text>
<text text-anchor="start" x="613.896" y="-662.3" font-family="Times,serif" font-size="14.00">exp2_file_name :string</text>
<text text-anchor="start" x="613.896" y="-648.3" font-family="Times,serif" font-size="14.00">exp2_content_type :string</text>
<text text-anchor="start" x="613.896" y="-634.3" font-family="Times,serif" font-size="14.00">exp2_file_size :integer</text>
<text text-anchor="start" x="613.896" y="-620.3" font-family="Times,serif" font-size="14.00">exp2_updated_at :datetime</text>
<text text-anchor="start" x="613.896" y="-606.3" font-family="Times,serif" font-size="14.00">exp3_file_name :string</text>
<text text-anchor="start" x="613.896" y="-592.3" font-family="Times,serif" font-size="14.00">exp3_content_type :string</text>
<text text-anchor="start" x="613.896" y="-578.3" font-family="Times,serif" font-size="14.00">exp3_file_size :integer</text>
<text text-anchor="start" x="613.896" y="-564.3" font-family="Times,serif" font-size="14.00">exp3_updated_at :datetime</text>
<text text-anchor="start" x="613.896" y="-550.3" font-family="Times,serif" font-size="14.00">exp4_file_name :string</text>
<text text-anchor="start" x="613.896" y="-536.3" font-family="Times,serif" font-size="14.00">exp4_content_type :string</text>
<text text-anchor="start" x="613.896" y="-522.3" font-family="Times,serif" font-size="14.00">exp4_file_size :integer</text>
<text text-anchor="start" x="613.896" y="-508.3" font-family="Times,serif" font-size="14.00">exp4_updated_at :datetime</text>
</g>
<!-- PhotoLink -->
<g id="node8" class="node"><title>PhotoLink</title>
<path fill="none" stroke="black" d="M831,-690.5C831,-690.5 940.011,-690.5 940.011,-690.5 946.011,-690.5 952.011,-696.5 952.011,-702.5 952.011,-702.5 952.011,-778.5 952.011,-778.5 952.011,-784.5 946.011,-790.5 940.011,-790.5 940.011,-790.5 831,-790.5 831,-790.5 825,-790.5 819,-784.5 819,-778.5 819,-778.5 819,-702.5 819,-702.5 819,-696.5 825,-690.5 831,-690.5"/>
<text text-anchor="middle" x="885.505" y="-775.3" font-family="Times,serif" font-size="14.00">PhotoLink</text>
<polyline fill="none" stroke="black" points="819,-768.5 952.011,-768.5 "/>
<text text-anchor="start" x="827" y="-753.3" font-family="Times,serif" font-size="14.00">id :integer</text>
<text text-anchor="start" x="827" y="-739.3" font-family="Times,serif" font-size="14.00">tumblr_url :string</text>
<text text-anchor="start" x="827" y="-725.3" font-family="Times,serif" font-size="14.00">user_id :integer</text>
<text text-anchor="start" x="827" y="-711.3" font-family="Times,serif" font-size="14.00">created_at :datetime</text>
<text text-anchor="start" x="827" y="-697.3" font-family="Times,serif" font-size="14.00">updated_at :datetime</text>
</g>
<!-- Project -->
<g id="node9" class="node"><title>Project</title>
<path fill="none" stroke="black" d="M961.055,-0.5C961.055,-0.5 1101.96,-0.5 1101.96,-0.5 1107.96,-0.5 1113.96,-6.5 1113.96,-12.5 1113.96,-12.5 1113.96,-452.5 1113.96,-452.5 1113.96,-458.5 1107.96,-464.5 1101.96,-464.5 1101.96,-464.5 961.055,-464.5 961.055,-464.5 955.055,-464.5 949.055,-458.5 949.055,-452.5 949.055,-452.5 949.055,-12.5 949.055,-12.5 949.055,-6.5 955.055,-0.5 961.055,-0.5"/>
<text text-anchor="middle" x="1031.51" y="-449.3" font-family="Times,serif" font-size="14.00">Project</text>
<polyline fill="none" stroke="black" points="949.055,-442.5 1113.96,-442.5 "/>
<text text-anchor="start" x="957.055" y="-427.3" font-family="Times,serif" font-size="14.00">id :integer</text>
<text text-anchor="start" x="957.055" y="-413.3" font-family="Times,serif" font-size="14.00">title :string</text>
<text text-anchor="start" x="957.055" y="-399.3" font-family="Times,serif" font-size="14.00">paragraph :text</text>
<text text-anchor="start" x="957.055" y="-385.3" font-family="Times,serif" font-size="14.00">created_at :datetime</text>
<text text-anchor="start" x="957.055" y="-371.3" font-family="Times,serif" font-size="14.00">updated_at :datetime</text>
<text text-anchor="start" x="957.055" y="-357.3" font-family="Times,serif" font-size="14.00">file1_file_name :string</text>
<text text-anchor="start" x="957.055" y="-343.3" font-family="Times,serif" font-size="14.00">file1_content_type :string</text>
<text text-anchor="start" x="957.055" y="-329.3" font-family="Times,serif" font-size="14.00">file1_file_size :integer</text>
<text text-anchor="start" x="957.055" y="-315.3" font-family="Times,serif" font-size="14.00">file1_updated_at :datetime</text>
<text text-anchor="start" x="957.055" y="-301.3" font-family="Times,serif" font-size="14.00">file2_file_name :string</text>
<text text-anchor="start" x="957.055" y="-287.3" font-family="Times,serif" font-size="14.00">file2_content_type :string</text>
<text text-anchor="start" x="957.055" y="-273.3" font-family="Times,serif" font-size="14.00">file2_file_size :integer</text>
<text text-anchor="start" x="957.055" y="-259.3" font-family="Times,serif" font-size="14.00">file2_updated_at :datetime</text>
<text text-anchor="start" x="957.055" y="-245.3" font-family="Times,serif" font-size="14.00">file3_file_name :string</text>
<text text-anchor="start" x="957.055" y="-231.3" font-family="Times,serif" font-size="14.00">file3_content_type :string</text>
<text text-anchor="start" x="957.055" y="-217.3" font-family="Times,serif" font-size="14.00">file3_file_size :integer</text>
<text text-anchor="start" x="957.055" y="-203.3" font-family="Times,serif" font-size="14.00">file3_updated_at :datetime</text>
<text text-anchor="start" x="957.055" y="-189.3" font-family="Times,serif" font-size="14.00">file4_file_name :string</text>
<text text-anchor="start" x="957.055" y="-175.3" font-family="Times,serif" font-size="14.00">file4_content_type :string</text>
<text text-anchor="start" x="957.055" y="-161.3" font-family="Times,serif" font-size="14.00">file4_file_size :integer</text>
<text text-anchor="start" x="957.055" y="-147.3" font-family="Times,serif" font-size="14.00">file4_updated_at :datetime</text>
<text text-anchor="start" x="957.055" y="-133.3" font-family="Times,serif" font-size="14.00">showcase_id :integer</text>
<text text-anchor="start" x="957.055" y="-119.3" font-family="Times,serif" font-size="14.00">file1_type :integer</text>
<text text-anchor="start" x="957.055" y="-105.3" font-family="Times,serif" font-size="14.00">file2_type :integer</text>
<text text-anchor="start" x="957.055" y="-91.3" font-family="Times,serif" font-size="14.00">file3_type :integer</text>
<text text-anchor="start" x="957.055" y="-77.3" font-family="Times,serif" font-size="14.00">file4_type :integer</text>
<text text-anchor="start" x="957.055" y="-63.3" font-family="Times,serif" font-size="14.00">file1_title :string</text>
<text text-anchor="start" x="957.055" y="-49.3" font-family="Times,serif" font-size="14.00">file2_title :string</text>
<text text-anchor="start" x="957.055" y="-35.3" font-family="Times,serif" font-size="14.00">file3_title :string</text>
<text text-anchor="start" x="957.055" y="-21.3" font-family="Times,serif" font-size="14.00">file4_title :string</text>
<text text-anchor="start" x="957.055" y="-7.3" font-family="Times,serif" font-size="14.00">url :string</text>
</g>
<!-- School -->
<g id="node10" class="node"><title>School</title>
<path fill="none" stroke="black" d="M740,-1335.5C740,-1335.5 849.011,-1335.5 849.011,-1335.5 855.011,-1335.5 861.011,-1341.5 861.011,-1347.5 861.011,-1347.5 861.011,-1409.5 861.011,-1409.5 861.011,-1415.5 855.011,-1421.5 849.011,-1421.5 849.011,-1421.5 740,-1421.5 740,-1421.5 734,-1421.5 728,-1415.5 728,-1409.5 728,-1409.5 728,-1347.5 728,-1347.5 728,-1341.5 734,-1335.5 740,-1335.5"/>
<text text-anchor="middle" x="794.505" y="-1406.3" font-family="Times,serif" font-size="14.00">School</text>
<polyline fill="none" stroke="black" points="728,-1399.5 861.011,-1399.5 "/>
<text text-anchor="start" x="736" y="-1384.3" font-family="Times,serif" font-size="14.00">id :integer</text>
<text text-anchor="start" x="736" y="-1370.3" font-family="Times,serif" font-size="14.00">name :string</text>
<text text-anchor="start" x="736" y="-1356.3" font-family="Times,serif" font-size="14.00">created_at :datetime</text>
<text text-anchor="start" x="736" y="-1342.3" font-family="Times,serif" font-size="14.00">updated_at :datetime</text>
</g>
<!-- User -->
<g id="node13" class="node"><title>User</title>
<path fill="none" stroke="black" d="M704.228,-1016.5C704.228,-1016.5 884.783,-1016.5 884.783,-1016.5 890.783,-1016.5 896.783,-1022.5 896.783,-1028.5 896.783,-1028.5 896.783,-1286.5 896.783,-1286.5 896.783,-1292.5 890.783,-1298.5 884.783,-1298.5 884.783,-1298.5 704.228,-1298.5 704.228,-1298.5 698.228,-1298.5 692.228,-1292.5 692.228,-1286.5 692.228,-1286.5 692.228,-1028.5 692.228,-1028.5 692.228,-1022.5 698.228,-1016.5 704.228,-1016.5"/>
<text text-anchor="middle" x="794.505" y="-1283.3" font-family="Times,serif" font-size="14.00">User</text>
<polyline fill="none" stroke="black" points="692.228,-1276.5 896.783,-1276.5 "/>
<text text-anchor="start" x="700.228" y="-1261.3" font-family="Times,serif" font-size="14.00">id :integer</text>
<text text-anchor="start" x="700.228" y="-1247.3" font-family="Times,serif" font-size="14.00">created_at :datetime</text>
<text text-anchor="start" x="700.228" y="-1233.3" font-family="Times,serif" font-size="14.00">updated_at :datetime</text>
<text text-anchor="start" x="700.228" y="-1219.3" font-family="Times,serif" font-size="14.00">email :string</text>
<text text-anchor="start" x="700.228" y="-1205.3" font-family="Times,serif" font-size="14.00">encrypted_password :string</text>
<text text-anchor="start" x="700.228" y="-1191.3" font-family="Times,serif" font-size="14.00">reset_password_token :string</text>
<text text-anchor="start" x="700.228" y="-1177.3" font-family="Times,serif" font-size="14.00">reset_password_sent_at :datetime</text>
<text text-anchor="start" x="700.228" y="-1163.3" font-family="Times,serif" font-size="14.00">remember_created_at :datetime</text>
<text text-anchor="start" x="700.228" y="-1149.3" font-family="Times,serif" font-size="14.00">sign_in_count :integer</text>
<text text-anchor="start" x="700.228" y="-1135.3" font-family="Times,serif" font-size="14.00">current_sign_in_at :datetime</text>
<text text-anchor="start" x="700.228" y="-1121.3" font-family="Times,serif" font-size="14.00">last_sign_in_at :datetime</text>
<text text-anchor="start" x="700.228" y="-1107.3" font-family="Times,serif" font-size="14.00">current_sign_in_ip :inet</text>
<text text-anchor="start" x="700.228" y="-1093.3" font-family="Times,serif" font-size="14.00">last_sign_in_ip :inet</text>
<text text-anchor="start" x="700.228" y="-1079.3" font-family="Times,serif" font-size="14.00">confirmation_token :string</text>
<text text-anchor="start" x="700.228" y="-1065.3" font-family="Times,serif" font-size="14.00">confirmed_at :datetime</text>
<text text-anchor="start" x="700.228" y="-1051.3" font-family="Times,serif" font-size="14.00">confirmation_sent_at :datetime</text>
<text text-anchor="start" x="700.228" y="-1037.3" font-family="Times,serif" font-size="14.00">unconfirmed_email :string</text>
<text text-anchor="start" x="700.228" y="-1023.3" font-family="Times,serif" font-size="14.00">school_id :integer</text>
</g>
<!-- School&#45;&gt;User -->
<g id="edge2" class="edge"><title>School&#45;&gt;User</title>
<path fill="none" stroke="#9cc3d8" d="M794.505,-1327.08C794.505,-1321.31 794.505,-1315.23 794.505,-1308.94"/>
<ellipse fill="none" stroke="#9cc3d8" cx="794.505" cy="-1331.27" rx="4" ry="4"/>
<polygon fill="#9cc3d8" stroke="#9cc3d8" points="794.505,-1308.9 799.005,-1298.9 794.505,-1303.9 794.505,-1298.9 794.505,-1298.9 794.505,-1298.9 794.505,-1303.9 790.005,-1298.9 794.505,-1308.9 794.505,-1308.9"/>
</g>
<!-- Showcase -->
<g id="node11" class="node"><title>Showcase</title>
<path fill="none" stroke="black" d="M1021,-690.5C1021,-690.5 1144.01,-690.5 1144.01,-690.5 1150.01,-690.5 1156.01,-696.5 1156.01,-702.5 1156.01,-702.5 1156.01,-778.5 1156.01,-778.5 1156.01,-784.5 1150.01,-790.5 1144.01,-790.5 1144.01,-790.5 1021,-790.5 1021,-790.5 1015,-790.5 1009,-784.5 1009,-778.5 1009,-778.5 1009,-702.5 1009,-702.5 1009,-696.5 1015,-690.5 1021,-690.5"/>
<text text-anchor="middle" x="1082.51" y="-775.3" font-family="Times,serif" font-size="14.00">Showcase</text>
<polyline fill="none" stroke="black" points="1009,-768.5 1156.01,-768.5 "/>
<text text-anchor="start" x="1017" y="-753.3" font-family="Times,serif" font-size="14.00">id :integer</text>
<text text-anchor="start" x="1017" y="-739.3" font-family="Times,serif" font-size="14.00">showcase_type :integer</text>
<text text-anchor="start" x="1017" y="-725.3" font-family="Times,serif" font-size="14.00">created_at :datetime</text>
<text text-anchor="start" x="1017" y="-711.3" font-family="Times,serif" font-size="14.00">updated_at :datetime</text>
<text text-anchor="start" x="1017" y="-697.3" font-family="Times,serif" font-size="14.00">user_id :integer</text>
</g>
<!-- Showcase&#45;&gt;Project -->
<g id="edge3" class="edge"><title>Showcase&#45;&gt;Project</title>
<path fill="none" stroke="#acd9b5" d="M1076.72,-682.057C1071.55,-630.816 1063.62,-552.166 1055.84,-474.952"/>
<ellipse fill="none" stroke="#acd9b5" cx="1077.12" cy="-686.081" rx="4" ry="4"/>
<polygon fill="#acd9b5" stroke="#acd9b5" points="1055.8,-474.513 1059.27,-464.112 1055.3,-469.538 1054.79,-464.563 1054.79,-464.563 1054.79,-464.563 1055.3,-469.538 1050.32,-465.015 1055.8,-474.513 1055.8,-474.513"/>
</g>
<!-- SocialLink -->
<g id="node12" class="node"><title>SocialLink</title>
<path fill="none" stroke="black" d="M1185.87,-648.5C1185.87,-648.5 1301.14,-648.5 1301.14,-648.5 1307.14,-648.5 1313.14,-654.5 1313.14,-660.5 1313.14,-660.5 1313.14,-820.5 1313.14,-820.5 1313.14,-826.5 1307.14,-832.5 1301.14,-832.5 1301.14,-832.5 1185.87,-832.5 1185.87,-832.5 1179.87,-832.5 1173.87,-826.5 1173.87,-820.5 1173.87,-820.5 1173.87,-660.5 1173.87,-660.5 1173.87,-654.5 1179.87,-648.5 1185.87,-648.5"/>
<text text-anchor="middle" x="1243.51" y="-817.3" font-family="Times,serif" font-size="14.00">SocialLink</text>
<polyline fill="none" stroke="black" points="1173.87,-810.5 1313.14,-810.5 "/>
<text text-anchor="start" x="1181.87" y="-795.3" font-family="Times,serif" font-size="14.00">id :integer</text>
<text text-anchor="start" x="1181.87" y="-781.3" font-family="Times,serif" font-size="14.00">link_linkedin :string</text>
<text text-anchor="start" x="1181.87" y="-767.3" font-family="Times,serif" font-size="14.00">link_instagram :string</text>
<text text-anchor="start" x="1181.87" y="-753.3" font-family="Times,serif" font-size="14.00">link_facebook :string</text>
<text text-anchor="start" x="1181.87" y="-739.3" font-family="Times,serif" font-size="14.00">link_twitter :string</text>
<text text-anchor="start" x="1181.87" y="-725.3" font-family="Times,serif" font-size="14.00">link_tumblr :string</text>
<text text-anchor="start" x="1181.87" y="-711.3" font-family="Times,serif" font-size="14.00">link_github :string</text>
<text text-anchor="start" x="1181.87" y="-697.3" font-family="Times,serif" font-size="14.00">link_alt_email :string</text>
<text text-anchor="start" x="1181.87" y="-683.3" font-family="Times,serif" font-size="14.00">created_at :datetime</text>
<text text-anchor="start" x="1181.87" y="-669.3" font-family="Times,serif" font-size="14.00">updated_at :datetime</text>
<text text-anchor="start" x="1181.87" y="-655.3" font-family="Times,serif" font-size="14.00">user_id :integer</text>
</g>
<!-- User&#45;&gt;Article -->
<g id="edge4" class="edge"><title>User&#45;&gt;Article</title>
<path fill="none" stroke="#657228" d="M683.831,-1139.69C518.703,-1112.5 218.928,-1054.33 141.505,-980 96.7218,-937.003 78.5686,-867.601 71.2679,-814.722"/>
<ellipse fill="none" stroke="#657228" cx="688.13" cy="-1140.39" rx="4.00001" ry="4.00001"/>
<polygon fill="#657228" stroke="#657228" points="71.2568,-814.634 74.4509,-804.144 70.622,-809.675 69.9873,-804.715 69.9873,-804.715 69.9873,-804.715 70.622,-809.675 65.5237,-805.286 71.2568,-814.634 71.2568,-814.634"/>
</g>
<!-- User&#45;&gt;BackgroundInfo -->
<g id="edge5" class="edge"><title>User&#45;&gt;BackgroundInfo</title>
<path fill="none" stroke="#3009bc" d="M684.026,-1141.22C578.953,-1121.26 422.751,-1076.67 324.505,-980 274.716,-931.011 250.645,-852.45 239.472,-798.988"/>
<ellipse fill="none" stroke="#3009bc" cx="688.2" cy="-1142" rx="4.00001" ry="4.00001"/>
<ellipse fill="#3009bc" stroke="#3009bc" cx="238.643" cy="-794.881" rx="4.00001" ry="4.00001"/>
</g>
<!-- User&#45;&gt;Experience -->
<g id="edge6" class="edge"><title>User&#45;&gt;Experience</title>
<path fill="none" stroke="#0190b9" d="M681.706,-1143.95C579.328,-1126.1 433.163,-1083.1 357.505,-980 325.92,-936.956 325.082,-554.097 319.505,-501 313.177,-440.736 304.306,-373.064 297.078,-320.863"/>
<polygon fill="#0190b9" stroke="#0190b9" points="681.923,-1143.99 691.035,-1150.09 686.853,-1144.82 691.784,-1145.66 691.784,-1145.66 691.784,-1145.66 686.853,-1144.82 692.533,-1141.22 681.923,-1143.99 681.923,-1143.99"/>
<polygon fill="#0190b9" stroke="#0190b9" points="297.033,-320.54 300.113,-310.016 296.345,-315.588 295.656,-310.636 295.656,-310.636 295.656,-310.636 296.345,-315.588 291.199,-311.256 297.033,-320.54 297.033,-320.54"/>
</g>
<!-- User&#45;&gt;HomepageInfo -->
<g id="edge7" class="edge"><title>User&#45;&gt;HomepageInfo</title>
<path fill="none" stroke="#f4f550" d="M685.914,-1072.9C654.624,-1045.5 622.072,-1013.44 596.505,-980 562.422,-935.424 533.928,-879.564 513.375,-833.112"/>
<ellipse fill="none" stroke="#f4f550" cx="689.132" cy="-1075.7" rx="4.00002" ry="4.00002"/>
<ellipse fill="#f4f550" stroke="#f4f550" cx="511.75" cy="-829.404" rx="4.00002" ry="4.00002"/>
</g>
<!-- User&#45;&gt;PersonalInfo -->
<g id="edge8" class="edge"><title>User&#45;&gt;PersonalInfo</title>
<path fill="none" stroke="#4668d1" d="M762.041,-1008.45C760.562,-1001.7 759.062,-994.863 757.55,-987.966"/>
<ellipse fill="none" stroke="#4668d1" cx="762.904" cy="-1012.38" rx="4.00001" ry="4.00001"/>
<ellipse fill="#4668d1" stroke="#4668d1" cx="756.625" cy="-983.75" rx="4.00001" ry="4.00001"/>
</g>
<!-- User&#45;&gt;PhotoLink -->
<g id="edge9" class="edge"><title>User&#45;&gt;PhotoLink</title>
<path fill="none" stroke="#6de3f5" d="M826.966,-1008.46C842.893,-935.83 861.149,-852.577 872.979,-798.624"/>
<ellipse fill="none" stroke="#6de3f5" cx="826.107" cy="-1012.38" rx="4.00001" ry="4.00001"/>
<ellipse fill="#6de3f5" stroke="#6de3f5" cx="873.893" cy="-794.459" rx="4.00001" ry="4.00001"/>
</g>
<!-- User&#45;&gt;Project -->
<g id="edge11" class="edge"><title>User&#45;&gt;Project</title>
<path fill="none" stroke="#b3a7d1" d="M903.934,-1064C926.717,-1039.13 947.912,-1010.56 961.505,-980 1004.9,-882.434 988.939,-607.255 999.505,-501 1000.36,-492.377 1001.26,-483.601 1002.2,-474.739"/>
<polygon fill="#b3a7d1" stroke="#b3a7d1" points="903.654,-1064.3 893.534,-1068.52 900.236,-1067.95 896.819,-1071.6 896.819,-1071.6 896.819,-1071.6 900.236,-1067.95 900.103,-1074.67 903.654,-1064.3 903.654,-1064.3"/>
<polygon fill="#b3a7d1" stroke="#b3a7d1" points="1002.21,-474.645 1007.74,-465.177 1002.74,-469.673 1003.26,-464.701 1003.26,-464.701 1003.26,-464.701 1002.74,-469.673 998.79,-464.225 1002.21,-474.645 1002.21,-474.645"/>
</g>
<!-- User&#45;&gt;Showcase -->
<g id="edge10" class="edge"><title>User&#45;&gt;Showcase</title>
<path fill="none" stroke="#35ee45" d="M903.387,-1077.46C936.081,-1049.57 969.786,-1016.09 994.505,-980 1032.74,-924.182 1056.74,-849.691 1069.84,-798.906"/>
<ellipse fill="none" stroke="#35ee45" cx="899.922" cy="-1080.38" rx="4.00002" ry="4.00002"/>
<ellipse fill="#35ee45" stroke="#35ee45" cx="1070.87" cy="-794.843" rx="4.00001" ry="4.00001"/>
</g>
<!-- User&#45;&gt;SocialLink -->
<g id="edge12" class="edge"><title>User&#45;&gt;SocialLink</title>
<path fill="none" stroke="#20c321" d="M905.036,-1129.44C987.509,-1103.86 1097.28,-1057.57 1165.51,-980 1199.57,-941.27 1218.81,-887.348 1229.65,-840.572"/>
<ellipse fill="none" stroke="#20c321" cx="900.967" cy="-1130.68" rx="4.00001" ry="4.00001"/>
<ellipse fill="#20c321" stroke="#20c321" cx="1230.58" cy="-836.433" rx="4.00001" ry="4.00001"/>
</g>
<!-- WebsiteSetting -->
<g id="node14" class="node"><title>WebsiteSetting</title>
<path fill="none" stroke="black" d="M1343.21,-683.5C1343.21,-683.5 1453.8,-683.5 1453.8,-683.5 1459.8,-683.5 1465.8,-689.5 1465.8,-695.5 1465.8,-695.5 1465.8,-785.5 1465.8,-785.5 1465.8,-791.5 1459.8,-797.5 1453.8,-797.5 1453.8,-797.5 1343.21,-797.5 1343.21,-797.5 1337.21,-797.5 1331.21,-791.5 1331.21,-785.5 1331.21,-785.5 1331.21,-695.5 1331.21,-695.5 1331.21,-689.5 1337.21,-683.5 1343.21,-683.5"/>
<text text-anchor="middle" x="1398.51" y="-782.3" font-family="Times,serif" font-size="14.00">WebsiteSetting</text>
<polyline fill="none" stroke="black" points="1331.21,-775.5 1465.8,-775.5 "/>
<text text-anchor="start" x="1339.21" y="-760.3" font-family="Times,serif" font-size="14.00">id :integer</text>
<text text-anchor="start" x="1339.21" y="-746.3" font-family="Times,serif" font-size="14.00">domain_name :string</text>
<text text-anchor="start" x="1339.21" y="-732.3" font-family="Times,serif" font-size="14.00">color :integer</text>
<text text-anchor="start" x="1339.21" y="-718.3" font-family="Times,serif" font-size="14.00">created_at :datetime</text>
<text text-anchor="start" x="1339.21" y="-704.3" font-family="Times,serif" font-size="14.00">updated_at :datetime</text>
<text text-anchor="start" x="1339.21" y="-690.3" font-family="Times,serif" font-size="14.00">user_id :integer</text>
</g>
<!-- User&#45;&gt;WebsiteSetting -->
<g id="edge13" class="edge"><title>User&#45;&gt;WebsiteSetting</title>
<path fill="none" stroke="#38b7b7" d="M904.868,-1148.49C1023.65,-1134.04 1210.56,-1093.53 1322.51,-980 1368.5,-933.347 1386.68,-858.927 1393.86,-805.625"/>
<ellipse fill="none" stroke="#38b7b7" cx="900.762" cy="-1148.97" rx="4.00001" ry="4.00001"/>
<ellipse fill="#38b7b7" stroke="#38b7b7" cx="1394.37" cy="-801.558" rx="4.00001" ry="4.00001"/>
</g>
</g>
</svg>
