<?xml version="1.0" encoding="UTF-8" standalone="no"?>
<!DOCTYPE svg PUBLIC "-//W3C//DTD SVG 1.1//EN"
 "http://www.w3.org/Graphics/SVG/1.1/DTD/svg11.dtd">
<!-- Generated by graphviz version 2.38.0 (20140413.2041)
 -->
<!-- Title: models_diagram Pages: 1 -->
<svg width="1353pt" height="297pt"
 viewBox="0.00 0.00 1352.56 297.00" xmlns="http://www.w3.org/2000/svg" xmlns:xlink="http://www.w3.org/1999/xlink">
<g id="graph0" class="graph" transform="scale(1 1) rotate(0) translate(4 293)">
<title>models_diagram</title>
<polygon fill="none" stroke="none" points="-4,4 -4,-293 1348.56,-293 1348.56,4 -4,4"/>
<!-- _diagram_info -->
<g id="node1" class="node"><title>_diagram_info</title>
<text text-anchor="start" x="8" y="-274.6" font-family="Times,serif" font-size="13.00">Models diagram</text>
<text text-anchor="start" x="8" y="-261.6" font-family="Times,serif" font-size="13.00">Date: May 14 2016 &#45; 17:44</text>
<text text-anchor="start" x="8" y="-248.6" font-family="Times,serif" font-size="13.00">Migration version: 20160514204317</text>
<text text-anchor="start" x="8" y="-235.6" font-family="Times,serif" font-size="13.00">Generated by RailRoady 1.3.1</text>
<text text-anchor="start" x="8" y="-222.6" font-family="Times,serif" font-size="13.00">http://railroady.prestonlee.com</text>
</g>
<!-- Ability -->
<g id="node2" class="node"><title>Ability</title>
<polygon fill="none" stroke="black" points="281.358,-270.5 226.018,-270.5 226.018,-234.5 281.358,-234.5 281.358,-270.5"/>
<text text-anchor="middle" x="253.688" y="-248.3" font-family="Times,serif" font-size="14.00">Ability</text>
</g>
<!-- Article -->
<g id="node3" class="node"><title>Article</title>
<ellipse fill="none" stroke="black" cx="334.688" cy="-90" rx="34.8198" ry="18"/>
<text text-anchor="middle" x="334.688" y="-85.8" font-family="Times,serif" font-size="14.00">Article</text>
</g>
<!-- BackgroundInfo -->
<g id="node4" class="node"><title>BackgroundInfo</title>
<ellipse fill="none" stroke="black" cx="1246.69" cy="-90" rx="68.1287" ry="18"/>
<text text-anchor="middle" x="1246.69" y="-85.8" font-family="Times,serif" font-size="14.00">BackgroundInfo</text>
</g>
<!-- Experience -->
<g id="node5" class="node"><title>Experience</title>
<ellipse fill="none" stroke="black" cx="1294.69" cy="-18" rx="49.7533" ry="18"/>
<text text-anchor="middle" x="1294.69" y="-13.8" font-family="Times,serif" font-size="14.00">Experience</text>
</g>
<!-- BackgroundInfo&#45;&gt;Experience -->
<g id="edge1" class="edge"><title>BackgroundInfo&#45;&gt;Experience</title>
<path fill="none" stroke="#45857b" d="M1262.95,-65.28C1267.62,-58.4704 1272.73,-51.0228 1277.45,-44.1312"/>
<ellipse fill="none" stroke="#45857b" cx="1260.57" cy="-68.756" rx="4.00002" ry="4.00002"/>
<polygon fill="#45857b" stroke="#45857b" points="1277.52,-44.0363 1286.89,-38.3339 1280.35,-39.9127 1283.18,-35.789 1283.18,-35.789 1283.18,-35.789 1280.35,-39.9127 1279.46,-33.2441 1277.52,-44.0363 1277.52,-44.0363"/>
</g>
<!-- HomepageInfo -->
<g id="node6" class="node"><title>HomepageInfo</title>
<ellipse fill="none" stroke="black" cx="450.688" cy="-90" rx="63.2924" ry="18"/>
<text text-anchor="middle" x="450.688" y="-85.8" font-family="Times,serif" font-size="14.00">HomepageInfo</text>
</g>
<!-- PersonalInfo -->
<g id="node7" class="node"><title>PersonalInfo</title>
<ellipse fill="none" stroke="black" cx="586.688" cy="-90" rx="55.0922" ry="18"/>
<text text-anchor="middle" x="586.688" y="-85.8" font-family="Times,serif" font-size="14.00">PersonalInfo</text>
</g>
<!-- PhotoLink -->
<g id="node8" class="node"><title>PhotoLink</title>
<ellipse fill="none" stroke="black" cx="707.688" cy="-90" rx="47.3995" ry="18"/>
<text text-anchor="middle" x="707.688" y="-85.8" font-family="Times,serif" font-size="14.00">PhotoLink</text>
</g>
<!-- Project -->
<g id="node9" class="node"><title>Project</title>
<ellipse fill="none" stroke="black" cx="782.688" cy="-18" rx="35.3129" ry="18"/>
<text text-anchor="middle" x="782.688" y="-13.8" font-family="Times,serif" font-size="14.00">Project</text>
</g>
<!-- School -->
<g id="node10" class="node"><title>School</title>
<ellipse fill="none" stroke="black" cx="334.688" cy="-252.5" rx="34.8458" ry="18"/>
<text text-anchor="middle" x="334.688" y="-248.3" font-family="Times,serif" font-size="14.00">School</text>
</g>
<!-- School&#45;&gt;Article -->
<g id="edge4" class="edge"><title>School&#45;&gt;Article</title>
<path fill="none" stroke="#795479" d="M334.688,-223.94C334.688,-194.433 334.688,-147.895 334.688,-118.436"/>
<polygon fill="#795479" stroke="#795479" points="334.688,-224.324 330.188,-234.324 334.688,-229.324 334.688,-234.324 334.688,-234.324 334.688,-234.324 334.688,-229.324 339.188,-234.324 334.688,-224.324 334.688,-224.324"/>
<polygon fill="#795479" stroke="#795479" points="334.688,-118.053 339.188,-108.053 334.688,-113.053 334.688,-108.053 334.688,-108.053 334.688,-108.053 334.688,-113.053 330.188,-108.053 334.688,-118.053 334.688,-118.053"/>
</g>
<!-- School&#45;&gt;Project -->
<g id="edge3" class="edge"><title>School&#45;&gt;Project</title>
<path fill="none" stroke="#a2e36f" d="M316.746,-227.17C291.128,-189.252 251.29,-115.869 290.688,-72 320.26,-39.0712 621.012,-24.8135 737.211,-20.5042"/>
<polygon fill="#a2e36f" stroke="#a2e36f" points="316.878,-227.361 318.889,-238.141 319.732,-231.467 322.585,-235.573 322.585,-235.573 322.585,-235.573 319.732,-231.467 326.28,-233.005 316.878,-227.361 316.878,-227.361"/>
<polygon fill="#a2e36f" stroke="#a2e36f" points="737.546,-20.4921 747.703,-24.6265 742.543,-20.3108 747.54,-20.1295 747.54,-20.1295 747.54,-20.1295 742.543,-20.3108 747.377,-15.6324 737.546,-20.4921 737.546,-20.4921"/>
</g>
<!-- User -->
<g id="node13" class="node"><title>User</title>
<ellipse fill="none" stroke="black" cx="782.688" cy="-162" rx="27" ry="18"/>
<text text-anchor="middle" x="782.688" y="-157.8" font-family="Times,serif" font-size="14.00">User</text>
</g>
<!-- School&#45;&gt;User -->
<g id="edge2" class="edge"><title>School&#45;&gt;User</title>
<path fill="none" stroke="#046dc0" d="M374.616,-243.612C461.125,-226.523 664.69,-186.31 747.11,-170.028"/>
<ellipse fill="none" stroke="#046dc0" cx="370.472" cy="-244.431" rx="4.00001" ry="4.00001"/>
<polygon fill="#046dc0" stroke="#046dc0" points="747.191,-170.012 757.874,-172.489 752.097,-169.043 757.002,-168.074 757.002,-168.074 757.002,-168.074 752.097,-169.043 756.13,-163.659 747.191,-170.012 747.191,-170.012"/>
</g>
<!-- Showcase -->
<g id="node11" class="node"><title>Showcase</title>
<ellipse fill="none" stroke="black" cx="855.688" cy="-90" rx="45.4441" ry="18"/>
<text text-anchor="middle" x="855.688" y="-85.8" font-family="Times,serif" font-size="14.00">Showcase</text>
</g>
<!-- Showcase&#45;&gt;Project -->
<g id="edge5" class="edge"><title>Showcase&#45;&gt;Project</title>
<path fill="none" stroke="#263146" d="M833.167,-67.4049C824.536,-59.1282 814.676,-49.6734 805.974,-41.3294"/>
<ellipse fill="none" stroke="#263146" cx="836.236" cy="-70.3474" rx="4.00002" ry="4.00002"/>
<polygon fill="#263146" stroke="#263146" points="805.903,-41.2614 801.8,-31.0921 802.294,-37.8008 798.685,-34.3402 798.685,-34.3402 798.685,-34.3402 802.294,-37.8008 795.571,-37.5882 805.903,-41.2614 805.903,-41.2614"/>
</g>
<!-- SocialLink -->
<g id="node12" class="node"><title>SocialLink</title>
<ellipse fill="none" stroke="black" cx="967.688" cy="-90" rx="48.8273" ry="18"/>
<text text-anchor="middle" x="967.688" y="-85.8" font-family="Times,serif" font-size="14.00">SocialLink</text>
</g>
<!-- User&#45;&gt;Article -->
<g id="edge6" class="edge"><title>User&#45;&gt;Article</title>
<path fill="none" stroke="#cfcebb" d="M747.649,-159.214C676.915,-154.997 512.405,-142.082 378.688,-108 375.861,-107.279 372.968,-106.43 370.084,-105.502"/>
<ellipse fill="none" stroke="#cfcebb" cx="751.809" cy="-159.455" rx="4" ry="4"/>
<polygon fill="#cfcebb" stroke="#cfcebb" points="369.85,-105.42 361.899,-97.8677 365.131,-103.767 360.412,-102.115 360.412,-102.115 360.412,-102.115 365.131,-103.767 358.924,-106.362 369.85,-105.42 369.85,-105.42"/>
</g>
<!-- User&#45;&gt;BackgroundInfo -->
<g id="edge7" class="edge"><title>User&#45;&gt;BackgroundInfo</title>
<path fill="none" stroke="#d35e5a" d="M817.301,-157.215C885.166,-149.584 1040.37,-131.092 1169.69,-108 1176.18,-106.841 1182.95,-105.517 1189.67,-104.13"/>
<ellipse fill="none" stroke="#d35e5a" cx="813.056" cy="-157.69" rx="4.00001" ry="4.00001"/>
<ellipse fill="#d35e5a" stroke="#d35e5a" cx="1193.6" cy="-103.303" rx="4.00001" ry="4.00001"/>
</g>
<!-- User&#45;&gt;Experience -->
<g id="edge8" class="edge"><title>User&#45;&gt;Experience</title>
<path fill="none" stroke="#9ee6b8" d="M819.934,-160.181C936.701,-157.235 1289.88,-145.286 1323.69,-108 1339.85,-90.1729 1327.61,-63.1895 1314.42,-43.6081"/>
<polygon fill="#9ee6b8" stroke="#9ee6b8" points="819.703,-160.187 809.596,-155.933 814.704,-160.309 809.706,-160.432 809.706,-160.432 809.706,-160.432 814.704,-160.309 809.816,-164.93 819.703,-160.187 819.703,-160.187"/>
<polygon fill="#9ee6b8" stroke="#9ee6b8" points="1314.41,-43.5892 1312.25,-32.8374 1311.5,-39.5221 1308.59,-35.455 1308.59,-35.455 1308.59,-35.455 1311.5,-39.5221 1304.93,-38.0725 1314.41,-43.5892 1314.41,-43.5892"/>
</g>
<!-- User&#45;&gt;HomepageInfo -->
<g id="edge9" class="edge"><title>User&#45;&gt;HomepageInfo</title>
<path fill="none" stroke="#fa71ac" d="M749.029,-154.483C699.4,-144.795 603.71,-125.819 522.688,-108 517.082,-106.767 511.24,-105.447 505.414,-104.107"/>
<ellipse fill="none" stroke="#fa71ac" cx="753.242" cy="-155.303" rx="4.00001" ry="4.00001"/>
<ellipse fill="#fa71ac" stroke="#fa71ac" cx="501.4" cy="-103.177" rx="4.00001" ry="4.00001"/>
</g>
<!-- User&#45;&gt;PersonalInfo -->
<g id="edge10" class="edge"><title>User&#45;&gt;PersonalInfo</title>
<path fill="none" stroke="#0471cd" d="M751.874,-149.995C719.124,-138.299 667.073,-119.709 630.161,-106.526"/>
<ellipse fill="none" stroke="#0471cd" cx="755.667" cy="-151.35" rx="4.00001" ry="4.00001"/>
<ellipse fill="#0471cd" stroke="#0471cd" cx="626.294" cy="-105.145" rx="4.00001" ry="4.00001"/>
</g>
<!-- User&#45;&gt;PhotoLink -->
<g id="edge11" class="edge"><title>User&#45;&gt;PhotoLink</title>
<path fill="none" stroke="#c68e2d" d="M761.353,-141.088C751.727,-132.103 740.343,-121.478 730.542,-112.331"/>
<ellipse fill="none" stroke="#c68e2d" cx="764.586" cy="-144.105" rx="4.00002" ry="4.00002"/>
<ellipse fill="#c68e2d" stroke="#c68e2d" cx="727.598" cy="-109.583" rx="4.00002" ry="4.00002"/>
</g>
<!-- User&#45;&gt;Project -->
<g id="edge13" class="edge"><title>User&#45;&gt;Project</title>
<path fill="none" stroke="#afec71" d="M782.688,-133.679C782.688,-108.599 782.688,-71.6271 782.688,-46.4929"/>
<polygon fill="#afec71" stroke="#afec71" points="782.688,-133.871 778.188,-143.871 782.688,-138.871 782.688,-143.871 782.688,-143.871 782.688,-143.871 782.688,-138.871 787.188,-143.872 782.688,-133.871 782.688,-133.871"/>
<polygon fill="#afec71" stroke="#afec71" points="782.688,-46.1893 787.188,-36.1892 782.688,-41.1893 782.688,-36.1893 782.688,-36.1893 782.688,-36.1893 782.688,-41.1893 778.188,-36.1893 782.688,-46.1893 782.688,-46.1893"/>
</g>
<!-- User&#45;&gt;Showcase -->
<g id="edge12" class="edge"><title>User&#45;&gt;Showcase</title>
<path fill="none" stroke="#a56c99" d="M803.453,-141.088C812.735,-132.188 823.695,-121.678 833.173,-112.59"/>
<ellipse fill="none" stroke="#a56c99" cx="800.348" cy="-144.066" rx="4.00002" ry="4.00002"/>
<ellipse fill="#a56c99" stroke="#a56c99" cx="836.267" cy="-109.623" rx="4.00002" ry="4.00002"/>
</g>
<!-- User&#45;&gt;SocialLink -->
<g id="edge14" class="edge"><title>User&#45;&gt;SocialLink</title>
<path fill="none" stroke="#40c4a2" d="M813.393,-149.382C844.521,-137.604 892.854,-119.315 927.121,-106.35"/>
<ellipse fill="none" stroke="#40c4a2" cx="809.485" cy="-150.86" rx="4.00001" ry="4.00001"/>
<ellipse fill="#40c4a2" stroke="#40c4a2" cx="930.9" cy="-104.92" rx="4.00001" ry="4.00001"/>
</g>
<!-- WebsiteSetting -->
<g id="node14" class="node"><title>WebsiteSetting</title>
<ellipse fill="none" stroke="black" cx="1097.69" cy="-90" rx="63.3707" ry="18"/>
<text text-anchor="middle" x="1097.69" y="-85.8" font-family="Times,serif" font-size="14.00">WebsiteSetting</text>
</g>
<!-- User&#45;&gt;WebsiteSetting -->
<g id="edge15" class="edge"><title>User&#45;&gt;WebsiteSetting</title>
<path fill="none" stroke="#5cf14a" d="M816.256,-153.868C863.176,-143.857 951.01,-124.959 1025.69,-108 1031.28,-106.729 1037.12,-105.384 1042.94,-104.029"/>
<ellipse fill="none" stroke="#5cf14a" cx="812.171" cy="-154.739" rx="4.00001" ry="4.00001"/>
<ellipse fill="#5cf14a" stroke="#5cf14a" cx="1046.96" cy="-103.091" rx="4.00001" ry="4.00001"/>
</g>
</g>
</svg>
