<?xml version="1.0" encoding="UTF-8" standalone="no"?>
<!DOCTYPE svg PUBLIC "-//W3C//DTD SVG 1.1//EN"
 "http://www.w3.org/Graphics/SVG/1.1/DTD/svg11.dtd">
<!-- Generated by graphviz version 2.38.0 (20140413.2041)
 -->
<!-- Title: models_diagram Pages: 1 -->
<svg width="1810pt" height="1206pt"
 viewBox="0.00 0.00 1809.96 1206.00" xmlns="http://www.w3.org/2000/svg" xmlns:xlink="http://www.w3.org/1999/xlink">
<g id="graph0" class="graph" transform="scale(1 1) rotate(0) translate(4 1202)">
<title>models_diagram</title>
<polygon fill="none" stroke="none" points="-4,4 -4,-1202 1805.96,-1202 1805.96,4 -4,4"/>
<!-- _diagram_info -->
<g id="node1" class="node"><title>_diagram_info</title>
<text text-anchor="start" x="388.818" y="-1134.6" font-family="Times,serif" font-size="13.00">Models diagram</text>
<text text-anchor="start" x="388.818" y="-1121.6" font-family="Times,serif" font-size="13.00">Date: May 17 2016 &#45; 11:27</text>
<text text-anchor="start" x="388.818" y="-1108.6" font-family="Times,serif" font-size="13.00">Migration version: 20160517152708</text>
<text text-anchor="start" x="388.818" y="-1095.6" font-family="Times,serif" font-size="13.00">Generated by RailRoady 1.3.1</text>
<text text-anchor="start" x="388.818" y="-1082.6" font-family="Times,serif" font-size="13.00">http://railroady.prestonlee.com</text>
</g>
<!-- Ability -->
<g id="node2" class="node"><title>Ability</title>
<polygon fill="none" stroke="black" points="606.671,-1090.5 606.671,-1134.5 662.34,-1134.5 662.34,-1090.5 606.671,-1090.5"/>
<text text-anchor="middle" x="634.505" y="-1119.3" font-family="Times,serif" font-size="14.00">Ability</text>
<polyline fill="none" stroke="black" points="606.671,-1112.5 662.34,-1112.5 "/>
<text text-anchor="middle" x="634.505" y="-1097.3" font-family="Times,serif" font-size="14.00"> </text>
</g>
<!-- Article -->
<g id="node3" class="node"><title>Article</title>
<path fill="none" stroke="black" d="M12,-368.5C12,-368.5 121.011,-368.5 121.011,-368.5 127.011,-368.5 133.011,-374.5 133.011,-380.5 133.011,-380.5 133.011,-484.5 133.011,-484.5 133.011,-490.5 127.011,-496.5 121.011,-496.5 121.011,-496.5 12,-496.5 12,-496.5 6,-496.5 0,-490.5 0,-484.5 0,-484.5 0,-380.5 0,-380.5 0,-374.5 6,-368.5 12,-368.5"/>
<text text-anchor="middle" x="66.5054" y="-481.3" font-family="Times,serif" font-size="14.00">Article</text>
<polyline fill="none" stroke="black" points="0,-474.5 133.011,-474.5 "/>
<text text-anchor="start" x="8" y="-459.3" font-family="Times,serif" font-size="14.00">id :integer</text>
<text text-anchor="start" x="8" y="-445.3" font-family="Times,serif" font-size="14.00">title :string</text>
<text text-anchor="start" x="8" y="-431.3" font-family="Times,serif" font-size="14.00">summary :text</text>
<text text-anchor="start" x="8" y="-417.3" font-family="Times,serif" font-size="14.00">url :string</text>
<text text-anchor="start" x="8" y="-403.3" font-family="Times,serif" font-size="14.00">created_at :datetime</text>
<text text-anchor="start" x="8" y="-389.3" font-family="Times,serif" font-size="14.00">updated_at :datetime</text>
<text text-anchor="start" x="8" y="-375.3" font-family="Times,serif" font-size="14.00">user_id :integer</text>
</g>
<!-- BackgroundInfo -->
<g id="node4" class="node"><title>BackgroundInfo</title>
<path fill="none" stroke="black" d="M355.779,-382.5C355.779,-382.5 491.231,-382.5 491.231,-382.5 497.231,-382.5 503.231,-388.5 503.231,-394.5 503.231,-394.5 503.231,-470.5 503.231,-470.5 503.231,-476.5 497.231,-482.5 491.231,-482.5 491.231,-482.5 355.779,-482.5 355.779,-482.5 349.779,-482.5 343.779,-476.5 343.779,-470.5 343.779,-470.5 343.779,-394.5 343.779,-394.5 343.779,-388.5 349.779,-382.5 355.779,-382.5"/>
<text text-anchor="middle" x="423.505" y="-467.3" font-family="Times,serif" font-size="14.00">BackgroundInfo</text>
<polyline fill="none" stroke="black" points="343.779,-460.5 503.231,-460.5 "/>
<text text-anchor="start" x="351.779" y="-445.3" font-family="Times,serif" font-size="14.00">id :integer</text>
<text text-anchor="start" x="351.779" y="-431.3" font-family="Times,serif" font-size="14.00">background_type :integer</text>
<text text-anchor="start" x="351.779" y="-417.3" font-family="Times,serif" font-size="14.00">created_at :datetime</text>
<text text-anchor="start" x="351.779" y="-403.3" font-family="Times,serif" font-size="14.00">updated_at :datetime</text>
<text text-anchor="start" x="351.779" y="-389.3" font-family="Times,serif" font-size="14.00">user_id :integer</text>
</g>
<!-- Experience -->
<g id="node5" class="node"><title>Experience</title>
<path fill="none" stroke="black" d="M940.61,-0.5C940.61,-0.5 1092.4,-0.5 1092.4,-0.5 1098.4,-0.5 1104.4,-6.5 1104.4,-12.5 1104.4,-12.5 1104.4,-144.5 1104.4,-144.5 1104.4,-150.5 1098.4,-156.5 1092.4,-156.5 1092.4,-156.5 940.61,-156.5 940.61,-156.5 934.61,-156.5 928.61,-150.5 928.61,-144.5 928.61,-144.5 928.61,-12.5 928.61,-12.5 928.61,-6.5 934.61,-0.5 940.61,-0.5"/>
<text text-anchor="middle" x="1016.51" y="-141.3" font-family="Times,serif" font-size="14.00">Experience</text>
<polyline fill="none" stroke="black" points="928.61,-134.5 1104.4,-134.5 "/>
<text text-anchor="start" x="936.61" y="-119.3" font-family="Times,serif" font-size="14.00">id :integer</text>
<text text-anchor="start" x="936.61" y="-105.3" font-family="Times,serif" font-size="14.00">url :string</text>
<text text-anchor="start" x="936.61" y="-91.3" font-family="Times,serif" font-size="14.00">created_at :datetime</text>
<text text-anchor="start" x="936.61" y="-77.3" font-family="Times,serif" font-size="14.00">updated_at :datetime</text>
<text text-anchor="start" x="936.61" y="-63.3" font-family="Times,serif" font-size="14.00">img_file_name :string</text>
<text text-anchor="start" x="936.61" y="-49.3" font-family="Times,serif" font-size="14.00">img_content_type :string</text>
<text text-anchor="start" x="936.61" y="-35.3" font-family="Times,serif" font-size="14.00">img_file_size :integer</text>
<text text-anchor="start" x="936.61" y="-21.3" font-family="Times,serif" font-size="14.00">img_updated_at :datetime</text>
<text text-anchor="start" x="936.61" y="-7.3" font-family="Times,serif" font-size="14.00">background_info_id :integer</text>
</g>
<!-- BackgroundInfo&#45;&gt;Experience -->
<g id="edge1" class="edge"><title>BackgroundInfo&#45;&gt;Experience</title>
<path fill="none" stroke="#e921b7" d="M429.457,-373.976C438.224,-319.379 459.773,-239.024 512.505,-193 572.13,-140.961 789.046,-106.733 918.067,-90.489"/>
<ellipse fill="none" stroke="#e921b7" cx="428.809" cy="-378.218" rx="4.00001" ry="4.00001"/>
<polygon fill="#e921b7" stroke="#e921b7" points="918.428,-90.4442 928.907,-93.6744 923.389,-89.8265 928.351,-89.2088 928.351,-89.2088 928.351,-89.2088 923.389,-89.8265 927.795,-84.7433 918.428,-90.4442 918.428,-90.4442"/>
</g>
<!-- HomepageInfo -->
<g id="node6" class="node"><title>HomepageInfo</title>
<path fill="none" stroke="black" d="M533.683,-347.5C533.683,-347.5 731.328,-347.5 731.328,-347.5 737.328,-347.5 743.328,-353.5 743.328,-359.5 743.328,-359.5 743.328,-505.5 743.328,-505.5 743.328,-511.5 737.328,-517.5 731.328,-517.5 731.328,-517.5 533.683,-517.5 533.683,-517.5 527.683,-517.5 521.683,-511.5 521.683,-505.5 521.683,-505.5 521.683,-359.5 521.683,-359.5 521.683,-353.5 527.683,-347.5 533.683,-347.5"/>
<text text-anchor="middle" x="632.505" y="-502.3" font-family="Times,serif" font-size="14.00">HomepageInfo</text>
<polyline fill="none" stroke="black" points="521.683,-495.5 743.328,-495.5 "/>
<text text-anchor="start" x="529.683" y="-480.3" font-family="Times,serif" font-size="14.00">id :integer</text>
<text text-anchor="start" x="529.683" y="-466.3" font-family="Times,serif" font-size="14.00">homepage_header :string</text>
<text text-anchor="start" x="529.683" y="-452.3" font-family="Times,serif" font-size="14.00">homepage_display_name :string</text>
<text text-anchor="start" x="529.683" y="-438.3" font-family="Times,serif" font-size="14.00">user_id :integer</text>
<text text-anchor="start" x="529.683" y="-424.3" font-family="Times,serif" font-size="14.00">created_at :datetime</text>
<text text-anchor="start" x="529.683" y="-410.3" font-family="Times,serif" font-size="14.00">updated_at :datetime</text>
<text text-anchor="start" x="529.683" y="-396.3" font-family="Times,serif" font-size="14.00">homepage_pic_file_name :string</text>
<text text-anchor="start" x="529.683" y="-382.3" font-family="Times,serif" font-size="14.00">homepage_pic_content_type :string</text>
<text text-anchor="start" x="529.683" y="-368.3" font-family="Times,serif" font-size="14.00">homepage_pic_file_size :integer</text>
<text text-anchor="start" x="529.683" y="-354.3" font-family="Times,serif" font-size="14.00">homepage_pic_updated_at :datetime</text>
</g>
<!-- PersonalInfo -->
<g id="node7" class="node"><title>PersonalInfo</title>
<path fill="none" stroke="black" d="M772.896,-193.5C772.896,-193.5 944.114,-193.5 944.114,-193.5 950.114,-193.5 956.114,-199.5 956.114,-205.5 956.114,-205.5 956.114,-659.5 956.114,-659.5 956.114,-665.5 950.114,-671.5 944.114,-671.5 944.114,-671.5 772.896,-671.5 772.896,-671.5 766.896,-671.5 760.896,-665.5 760.896,-659.5 760.896,-659.5 760.896,-205.5 760.896,-205.5 760.896,-199.5 766.896,-193.5 772.896,-193.5"/>
<text text-anchor="middle" x="858.505" y="-656.3" font-family="Times,serif" font-size="14.00">PersonalInfo</text>
<polyline fill="none" stroke="black" points="760.896,-649.5 956.114,-649.5 "/>
<text text-anchor="start" x="768.896" y="-634.3" font-family="Times,serif" font-size="14.00">id :integer</text>
<text text-anchor="start" x="768.896" y="-620.3" font-family="Times,serif" font-size="14.00">name_first :string</text>
<text text-anchor="start" x="768.896" y="-606.3" font-family="Times,serif" font-size="14.00">name_last :string</text>
<text text-anchor="start" x="768.896" y="-592.3" font-family="Times,serif" font-size="14.00">intro_paragraph :text</text>
<text text-anchor="start" x="768.896" y="-578.3" font-family="Times,serif" font-size="14.00">created_at :datetime</text>
<text text-anchor="start" x="768.896" y="-564.3" font-family="Times,serif" font-size="14.00">updated_at :datetime</text>
<text text-anchor="start" x="768.896" y="-550.3" font-family="Times,serif" font-size="14.00">about_pic_file_name :string</text>
<text text-anchor="start" x="768.896" y="-536.3" font-family="Times,serif" font-size="14.00">about_pic_content_type :string</text>
<text text-anchor="start" x="768.896" y="-522.3" font-family="Times,serif" font-size="14.00">about_pic_file_size :integer</text>
<text text-anchor="start" x="768.896" y="-508.3" font-family="Times,serif" font-size="14.00">about_pic_updated_at :datetime</text>
<text text-anchor="start" x="768.896" y="-494.3" font-family="Times,serif" font-size="14.00">user_id :integer</text>
<text text-anchor="start" x="768.896" y="-480.3" font-family="Times,serif" font-size="14.00">resume_file_name :string</text>
<text text-anchor="start" x="768.896" y="-466.3" font-family="Times,serif" font-size="14.00">resume_content_type :string</text>
<text text-anchor="start" x="768.896" y="-452.3" font-family="Times,serif" font-size="14.00">resume_file_size :integer</text>
<text text-anchor="start" x="768.896" y="-438.3" font-family="Times,serif" font-size="14.00">resume_updated_at :datetime</text>
<text text-anchor="start" x="768.896" y="-424.3" font-family="Times,serif" font-size="14.00">vertical :boolean</text>
<text text-anchor="start" x="768.896" y="-410.3" font-family="Times,serif" font-size="14.00">exp1_file_name :string</text>
<text text-anchor="start" x="768.896" y="-396.3" font-family="Times,serif" font-size="14.00">exp1_content_type :string</text>
<text text-anchor="start" x="768.896" y="-382.3" font-family="Times,serif" font-size="14.00">exp1_file_size :integer</text>
<text text-anchor="start" x="768.896" y="-368.3" font-family="Times,serif" font-size="14.00">exp1_updated_at :datetime</text>
<text text-anchor="start" x="768.896" y="-354.3" font-family="Times,serif" font-size="14.00">exp2_file_name :string</text>
<text text-anchor="start" x="768.896" y="-340.3" font-family="Times,serif" font-size="14.00">exp2_content_type :string</text>
<text text-anchor="start" x="768.896" y="-326.3" font-family="Times,serif" font-size="14.00">exp2_file_size :integer</text>
<text text-anchor="start" x="768.896" y="-312.3" font-family="Times,serif" font-size="14.00">exp2_updated_at :datetime</text>
<text text-anchor="start" x="768.896" y="-298.3" font-family="Times,serif" font-size="14.00">exp3_file_name :string</text>
<text text-anchor="start" x="768.896" y="-284.3" font-family="Times,serif" font-size="14.00">exp3_content_type :string</text>
<text text-anchor="start" x="768.896" y="-270.3" font-family="Times,serif" font-size="14.00">exp3_file_size :integer</text>
<text text-anchor="start" x="768.896" y="-256.3" font-family="Times,serif" font-size="14.00">exp3_updated_at :datetime</text>
<text text-anchor="start" x="768.896" y="-242.3" font-family="Times,serif" font-size="14.00">exp4_file_name :string</text>
<text text-anchor="start" x="768.896" y="-228.3" font-family="Times,serif" font-size="14.00">exp4_content_type :string</text>
<text text-anchor="start" x="768.896" y="-214.3" font-family="Times,serif" font-size="14.00">exp4_file_size :integer</text>
<text text-anchor="start" x="768.896" y="-200.3" font-family="Times,serif" font-size="14.00">exp4_updated_at :datetime</text>
</g>
<!-- Photo -->
<g id="node8" class="node"><title>Photo</title>
<path fill="none" stroke="black" d="M163.396,-361.5C163.396,-361.5 313.614,-361.5 313.614,-361.5 319.614,-361.5 325.614,-367.5 325.614,-373.5 325.614,-373.5 325.614,-491.5 325.614,-491.5 325.614,-497.5 319.614,-503.5 313.614,-503.5 313.614,-503.5 163.396,-503.5 163.396,-503.5 157.396,-503.5 151.396,-497.5 151.396,-491.5 151.396,-491.5 151.396,-373.5 151.396,-373.5 151.396,-367.5 157.396,-361.5 163.396,-361.5"/>
<text text-anchor="middle" x="238.505" y="-488.3" font-family="Times,serif" font-size="14.00">Photo</text>
<polyline fill="none" stroke="black" points="151.396,-481.5 325.614,-481.5 "/>
<text text-anchor="start" x="159.396" y="-466.3" font-family="Times,serif" font-size="14.00">id :integer</text>
<text text-anchor="start" x="159.396" y="-452.3" font-family="Times,serif" font-size="14.00">created_at :datetime</text>
<text text-anchor="start" x="159.396" y="-438.3" font-family="Times,serif" font-size="14.00">updated_at :datetime</text>
<text text-anchor="start" x="159.396" y="-424.3" font-family="Times,serif" font-size="14.00">image_file_name :string</text>
<text text-anchor="start" x="159.396" y="-410.3" font-family="Times,serif" font-size="14.00">image_content_type :string</text>
<text text-anchor="start" x="159.396" y="-396.3" font-family="Times,serif" font-size="14.00">image_file_size :integer</text>
<text text-anchor="start" x="159.396" y="-382.3" font-family="Times,serif" font-size="14.00">image_updated_at :datetime</text>
<text text-anchor="start" x="159.396" y="-368.3" font-family="Times,serif" font-size="14.00">user_id :integer</text>
</g>
<!-- PhotoLink -->
<g id="node9" class="node"><title>PhotoLink</title>
<path fill="none" stroke="black" d="M986,-382.5C986,-382.5 1095.01,-382.5 1095.01,-382.5 1101.01,-382.5 1107.01,-388.5 1107.01,-394.5 1107.01,-394.5 1107.01,-470.5 1107.01,-470.5 1107.01,-476.5 1101.01,-482.5 1095.01,-482.5 1095.01,-482.5 986,-482.5 986,-482.5 980,-482.5 974,-476.5 974,-470.5 974,-470.5 974,-394.5 974,-394.5 974,-388.5 980,-382.5 986,-382.5"/>
<text text-anchor="middle" x="1040.51" y="-467.3" font-family="Times,serif" font-size="14.00">PhotoLink</text>
<polyline fill="none" stroke="black" points="974,-460.5 1107.01,-460.5 "/>
<text text-anchor="start" x="982" y="-445.3" font-family="Times,serif" font-size="14.00">id :integer</text>
<text text-anchor="start" x="982" y="-431.3" font-family="Times,serif" font-size="14.00">tumblr_url :string</text>
<text text-anchor="start" x="982" y="-417.3" font-family="Times,serif" font-size="14.00">user_id :integer</text>
<text text-anchor="start" x="982" y="-403.3" font-family="Times,serif" font-size="14.00">created_at :datetime</text>
<text text-anchor="start" x="982" y="-389.3" font-family="Times,serif" font-size="14.00">updated_at :datetime</text>
</g>
<!-- Project -->
<g id="node10" class="node"><title>Project</title>
<path fill="none" stroke="black" d="M1649.06,-200.5C1649.06,-200.5 1789.96,-200.5 1789.96,-200.5 1795.96,-200.5 1801.96,-206.5 1801.96,-212.5 1801.96,-212.5 1801.96,-652.5 1801.96,-652.5 1801.96,-658.5 1795.96,-664.5 1789.96,-664.5 1789.96,-664.5 1649.06,-664.5 1649.06,-664.5 1643.06,-664.5 1637.06,-658.5 1637.06,-652.5 1637.06,-652.5 1637.06,-212.5 1637.06,-212.5 1637.06,-206.5 1643.06,-200.5 1649.06,-200.5"/>
<text text-anchor="middle" x="1719.51" y="-649.3" font-family="Times,serif" font-size="14.00">Project</text>
<polyline fill="none" stroke="black" points="1637.06,-642.5 1801.96,-642.5 "/>
<text text-anchor="start" x="1645.06" y="-627.3" font-family="Times,serif" font-size="14.00">id :integer</text>
<text text-anchor="start" x="1645.06" y="-613.3" font-family="Times,serif" font-size="14.00">title :string</text>
<text text-anchor="start" x="1645.06" y="-599.3" font-family="Times,serif" font-size="14.00">paragraph :text</text>
<text text-anchor="start" x="1645.06" y="-585.3" font-family="Times,serif" font-size="14.00">created_at :datetime</text>
<text text-anchor="start" x="1645.06" y="-571.3" font-family="Times,serif" font-size="14.00">updated_at :datetime</text>
<text text-anchor="start" x="1645.06" y="-557.3" font-family="Times,serif" font-size="14.00">file1_file_name :string</text>
<text text-anchor="start" x="1645.06" y="-543.3" font-family="Times,serif" font-size="14.00">file1_content_type :string</text>
<text text-anchor="start" x="1645.06" y="-529.3" font-family="Times,serif" font-size="14.00">file1_file_size :integer</text>
<text text-anchor="start" x="1645.06" y="-515.3" font-family="Times,serif" font-size="14.00">file1_updated_at :datetime</text>
<text text-anchor="start" x="1645.06" y="-501.3" font-family="Times,serif" font-size="14.00">file2_file_name :string</text>
<text text-anchor="start" x="1645.06" y="-487.3" font-family="Times,serif" font-size="14.00">file2_content_type :string</text>
<text text-anchor="start" x="1645.06" y="-473.3" font-family="Times,serif" font-size="14.00">file2_file_size :integer</text>
<text text-anchor="start" x="1645.06" y="-459.3" font-family="Times,serif" font-size="14.00">file2_updated_at :datetime</text>
<text text-anchor="start" x="1645.06" y="-445.3" font-family="Times,serif" font-size="14.00">file3_file_name :string</text>
<text text-anchor="start" x="1645.06" y="-431.3" font-family="Times,serif" font-size="14.00">file3_content_type :string</text>
<text text-anchor="start" x="1645.06" y="-417.3" font-family="Times,serif" font-size="14.00">file3_file_size :integer</text>
<text text-anchor="start" x="1645.06" y="-403.3" font-family="Times,serif" font-size="14.00">file3_updated_at :datetime</text>
<text text-anchor="start" x="1645.06" y="-389.3" font-family="Times,serif" font-size="14.00">file4_file_name :string</text>
<text text-anchor="start" x="1645.06" y="-375.3" font-family="Times,serif" font-size="14.00">file4_content_type :string</text>
<text text-anchor="start" x="1645.06" y="-361.3" font-family="Times,serif" font-size="14.00">file4_file_size :integer</text>
<text text-anchor="start" x="1645.06" y="-347.3" font-family="Times,serif" font-size="14.00">file4_updated_at :datetime</text>
<text text-anchor="start" x="1645.06" y="-333.3" font-family="Times,serif" font-size="14.00">file1_type :integer</text>
<text text-anchor="start" x="1645.06" y="-319.3" font-family="Times,serif" font-size="14.00">file2_type :integer</text>
<text text-anchor="start" x="1645.06" y="-305.3" font-family="Times,serif" font-size="14.00">file3_type :integer</text>
<text text-anchor="start" x="1645.06" y="-291.3" font-family="Times,serif" font-size="14.00">file4_type :integer</text>
<text text-anchor="start" x="1645.06" y="-277.3" font-family="Times,serif" font-size="14.00">file1_title :string</text>
<text text-anchor="start" x="1645.06" y="-263.3" font-family="Times,serif" font-size="14.00">file2_title :string</text>
<text text-anchor="start" x="1645.06" y="-249.3" font-family="Times,serif" font-size="14.00">file3_title :string</text>
<text text-anchor="start" x="1645.06" y="-235.3" font-family="Times,serif" font-size="14.00">file4_title :string</text>
<text text-anchor="start" x="1645.06" y="-221.3" font-family="Times,serif" font-size="14.00">url :string</text>
<text text-anchor="start" x="1645.06" y="-207.3" font-family="Times,serif" font-size="14.00">user_id :integer</text>
</g>
<!-- School -->
<g id="node11" class="node"><title>School</title>
<path fill="none" stroke="black" d="M692.055,-1027.5C692.055,-1027.5 832.956,-1027.5 832.956,-1027.5 838.956,-1027.5 844.956,-1033.5 844.956,-1039.5 844.956,-1039.5 844.956,-1185.5 844.956,-1185.5 844.956,-1191.5 838.956,-1197.5 832.956,-1197.5 832.956,-1197.5 692.055,-1197.5 692.055,-1197.5 686.055,-1197.5 680.055,-1191.5 680.055,-1185.5 680.055,-1185.5 680.055,-1039.5 680.055,-1039.5 680.055,-1033.5 686.055,-1027.5 692.055,-1027.5"/>
<text text-anchor="middle" x="762.505" y="-1182.3" font-family="Times,serif" font-size="14.00">School</text>
<polyline fill="none" stroke="black" points="680.055,-1175.5 844.956,-1175.5 "/>
<text text-anchor="start" x="688.055" y="-1160.3" font-family="Times,serif" font-size="14.00">id :integer</text>
<text text-anchor="start" x="688.055" y="-1146.3" font-family="Times,serif" font-size="14.00">name :string</text>
<text text-anchor="start" x="688.055" y="-1132.3" font-family="Times,serif" font-size="14.00">created_at :datetime</text>
<text text-anchor="start" x="688.055" y="-1118.3" font-family="Times,serif" font-size="14.00">updated_at :datetime</text>
<text text-anchor="start" x="688.055" y="-1104.3" font-family="Times,serif" font-size="14.00">logo_file_name :string</text>
<text text-anchor="start" x="688.055" y="-1090.3" font-family="Times,serif" font-size="14.00">logo_content_type :string</text>
<text text-anchor="start" x="688.055" y="-1076.3" font-family="Times,serif" font-size="14.00">logo_file_size :integer</text>
<text text-anchor="start" x="688.055" y="-1062.3" font-family="Times,serif" font-size="14.00">logo_updated_at :datetime</text>
<text text-anchor="start" x="688.055" y="-1048.3" font-family="Times,serif" font-size="14.00">color1 :string</text>
<text text-anchor="start" x="688.055" y="-1034.3" font-family="Times,serif" font-size="14.00">color2 :string</text>
</g>
<!-- School&#45;&gt;Article -->
<g id="edge4" class="edge"><title>School&#45;&gt;Article</title>
<path fill="none" stroke="#6f84e2" d="M670.591,-1027.15C542.456,-973.227 477.517,-1060.92 361.505,-991 184.585,-884.372 108.22,-632.17 80.2823,-506.833"/>
<polygon fill="#6f84e2" stroke="#6f84e2" points="670.783,-1027.23 678.107,-1035.39 675.355,-1029.25 679.927,-1031.28 679.927,-1031.28 679.927,-1031.28 675.355,-1029.25 681.748,-1027.16 670.783,-1027.23 670.783,-1027.23"/>
<polygon fill="#6f84e2" stroke="#6f84e2" points="80.2542,-506.704 82.5142,-495.974 79.1861,-501.819 78.1181,-496.935 78.1181,-496.935 78.1181,-496.935 79.1861,-501.819 73.7219,-497.896 80.2542,-506.704 80.2542,-506.704"/>
</g>
<!-- School&#45;&gt;Photo -->
<g id="edge5" class="edge"><title>School&#45;&gt;Photo</title>
<path fill="none" stroke="#c53518" d="M672.146,-1026.8C562.121,-922.323 384.729,-749.093 334.505,-672 302.537,-622.929 278.12,-561.507 261.911,-513.284"/>
<polygon fill="#c53518" stroke="#c53518" points="672.366,-1027.01 676.524,-1037.16 675.994,-1030.45 679.621,-1033.89 679.621,-1033.89 679.621,-1033.89 675.994,-1030.45 682.718,-1030.63 672.366,-1027.01 672.366,-1027.01"/>
<polygon fill="#c53518" stroke="#c53518" points="261.82,-513.008 262.951,-502.1 260.249,-508.261 258.678,-503.514 258.678,-503.514 258.678,-503.514 260.249,-508.261 254.406,-504.928 261.82,-513.008 261.82,-513.008"/>
</g>
<!-- School&#45;&gt;Project -->
<g id="edge3" class="edge"><title>School&#45;&gt;Project</title>
<path fill="none" stroke="#d7a2f7" d="M854.91,-1087.91C1028.01,-1039.15 1402.86,-911.313 1616.51,-672 1621.51,-666.391 1626.31,-660.5 1630.89,-654.39"/>
<polygon fill="#d7a2f7" stroke="#d7a2f7" points="854.692,-1087.97 843.85,-1086.32 849.876,-1089.31 845.06,-1090.66 845.06,-1090.66 845.06,-1090.66 849.876,-1089.31 846.27,-1094.99 854.692,-1087.97 854.692,-1087.97"/>
<polygon fill="#d7a2f7" stroke="#d7a2f7" points="1631.15,-654.028 1640.66,-648.563 1634.08,-649.977 1637.01,-645.926 1637.01,-645.926 1637.01,-645.926 1634.08,-649.977 1633.36,-643.288 1631.15,-654.028 1631.15,-654.028"/>
</g>
<!-- User -->
<g id="node14" class="node"><title>User</title>
<path fill="none" stroke="black" d="M859.228,-708.5C859.228,-708.5 1039.78,-708.5 1039.78,-708.5 1045.78,-708.5 1051.78,-714.5 1051.78,-720.5 1051.78,-720.5 1051.78,-978.5 1051.78,-978.5 1051.78,-984.5 1045.78,-990.5 1039.78,-990.5 1039.78,-990.5 859.228,-990.5 859.228,-990.5 853.228,-990.5 847.228,-984.5 847.228,-978.5 847.228,-978.5 847.228,-720.5 847.228,-720.5 847.228,-714.5 853.228,-708.5 859.228,-708.5"/>
<text text-anchor="middle" x="949.505" y="-975.3" font-family="Times,serif" font-size="14.00">User</text>
<polyline fill="none" stroke="black" points="847.228,-968.5 1051.78,-968.5 "/>
<text text-anchor="start" x="855.228" y="-953.3" font-family="Times,serif" font-size="14.00">id :integer</text>
<text text-anchor="start" x="855.228" y="-939.3" font-family="Times,serif" font-size="14.00">created_at :datetime</text>
<text text-anchor="start" x="855.228" y="-925.3" font-family="Times,serif" font-size="14.00">updated_at :datetime</text>
<text text-anchor="start" x="855.228" y="-911.3" font-family="Times,serif" font-size="14.00">email :string</text>
<text text-anchor="start" x="855.228" y="-897.3" font-family="Times,serif" font-size="14.00">encrypted_password :string</text>
<text text-anchor="start" x="855.228" y="-883.3" font-family="Times,serif" font-size="14.00">reset_password_token :string</text>
<text text-anchor="start" x="855.228" y="-869.3" font-family="Times,serif" font-size="14.00">reset_password_sent_at :datetime</text>
<text text-anchor="start" x="855.228" y="-855.3" font-family="Times,serif" font-size="14.00">remember_created_at :datetime</text>
<text text-anchor="start" x="855.228" y="-841.3" font-family="Times,serif" font-size="14.00">sign_in_count :integer</text>
<text text-anchor="start" x="855.228" y="-827.3" font-family="Times,serif" font-size="14.00">current_sign_in_at :datetime</text>
<text text-anchor="start" x="855.228" y="-813.3" font-family="Times,serif" font-size="14.00">last_sign_in_at :datetime</text>
<text text-anchor="start" x="855.228" y="-799.3" font-family="Times,serif" font-size="14.00">current_sign_in_ip :inet</text>
<text text-anchor="start" x="855.228" y="-785.3" font-family="Times,serif" font-size="14.00">last_sign_in_ip :inet</text>
<text text-anchor="start" x="855.228" y="-771.3" font-family="Times,serif" font-size="14.00">confirmation_token :string</text>
<text text-anchor="start" x="855.228" y="-757.3" font-family="Times,serif" font-size="14.00">confirmed_at :datetime</text>
<text text-anchor="start" x="855.228" y="-743.3" font-family="Times,serif" font-size="14.00">confirmation_sent_at :datetime</text>
<text text-anchor="start" x="855.228" y="-729.3" font-family="Times,serif" font-size="14.00">unconfirmed_email :string</text>
<text text-anchor="start" x="855.228" y="-715.3" font-family="Times,serif" font-size="14.00">school_id :integer</text>
</g>
<!-- School&#45;&gt;User -->
<g id="edge2" class="edge"><title>School&#45;&gt;User</title>
<path fill="none" stroke="#51600f" d="M827.489,-1020.8C832.499,-1013.81 837.63,-1006.65 842.816,-999.408"/>
<ellipse fill="none" stroke="#51600f" cx="825.032" cy="-1024.23" rx="4.00002" ry="4.00002"/>
<polygon fill="#51600f" stroke="#51600f" points="843.102,-999.01 852.584,-993.502 846.014,-994.946 848.926,-990.881 848.926,-990.881 848.926,-990.881 846.014,-994.946 845.268,-988.26 843.102,-999.01 843.102,-999.01"/>
</g>
<!-- Showcase -->
<g id="node12" class="node"><title>Showcase</title>
<path fill="none" stroke="black" d="M1137,-382.5C1137,-382.5 1260.01,-382.5 1260.01,-382.5 1266.01,-382.5 1272.01,-388.5 1272.01,-394.5 1272.01,-394.5 1272.01,-470.5 1272.01,-470.5 1272.01,-476.5 1266.01,-482.5 1260.01,-482.5 1260.01,-482.5 1137,-482.5 1137,-482.5 1131,-482.5 1125,-476.5 1125,-470.5 1125,-470.5 1125,-394.5 1125,-394.5 1125,-388.5 1131,-382.5 1137,-382.5"/>
<text text-anchor="middle" x="1198.51" y="-467.3" font-family="Times,serif" font-size="14.00">Showcase</text>
<polyline fill="none" stroke="black" points="1125,-460.5 1272.01,-460.5 "/>
<text text-anchor="start" x="1133" y="-445.3" font-family="Times,serif" font-size="14.00">id :integer</text>
<text text-anchor="start" x="1133" y="-431.3" font-family="Times,serif" font-size="14.00">showcase_type :integer</text>
<text text-anchor="start" x="1133" y="-417.3" font-family="Times,serif" font-size="14.00">created_at :datetime</text>
<text text-anchor="start" x="1133" y="-403.3" font-family="Times,serif" font-size="14.00">updated_at :datetime</text>
<text text-anchor="start" x="1133" y="-389.3" font-family="Times,serif" font-size="14.00">user_id :integer</text>
</g>
<!-- SocialLink -->
<g id="node13" class="node"><title>SocialLink</title>
<path fill="none" stroke="black" d="M1301.87,-340.5C1301.87,-340.5 1417.14,-340.5 1417.14,-340.5 1423.14,-340.5 1429.14,-346.5 1429.14,-352.5 1429.14,-352.5 1429.14,-512.5 1429.14,-512.5 1429.14,-518.5 1423.14,-524.5 1417.14,-524.5 1417.14,-524.5 1301.87,-524.5 1301.87,-524.5 1295.87,-524.5 1289.87,-518.5 1289.87,-512.5 1289.87,-512.5 1289.87,-352.5 1289.87,-352.5 1289.87,-346.5 1295.87,-340.5 1301.87,-340.5"/>
<text text-anchor="middle" x="1359.51" y="-509.3" font-family="Times,serif" font-size="14.00">SocialLink</text>
<polyline fill="none" stroke="black" points="1289.87,-502.5 1429.14,-502.5 "/>
<text text-anchor="start" x="1297.87" y="-487.3" font-family="Times,serif" font-size="14.00">id :integer</text>
<text text-anchor="start" x="1297.87" y="-473.3" font-family="Times,serif" font-size="14.00">link_linkedin :string</text>
<text text-anchor="start" x="1297.87" y="-459.3" font-family="Times,serif" font-size="14.00">link_instagram :string</text>
<text text-anchor="start" x="1297.87" y="-445.3" font-family="Times,serif" font-size="14.00">link_facebook :string</text>
<text text-anchor="start" x="1297.87" y="-431.3" font-family="Times,serif" font-size="14.00">link_twitter :string</text>
<text text-anchor="start" x="1297.87" y="-417.3" font-family="Times,serif" font-size="14.00">link_tumblr :string</text>
<text text-anchor="start" x="1297.87" y="-403.3" font-family="Times,serif" font-size="14.00">link_github :string</text>
<text text-anchor="start" x="1297.87" y="-389.3" font-family="Times,serif" font-size="14.00">link_alt_email :string</text>
<text text-anchor="start" x="1297.87" y="-375.3" font-family="Times,serif" font-size="14.00">created_at :datetime</text>
<text text-anchor="start" x="1297.87" y="-361.3" font-family="Times,serif" font-size="14.00">updated_at :datetime</text>
<text text-anchor="start" x="1297.87" y="-347.3" font-family="Times,serif" font-size="14.00">user_id :integer</text>
</g>
<!-- User&#45;&gt;Article -->
<g id="edge6" class="edge"><title>User&#45;&gt;Article</title>
<path fill="none" stroke="#b3fb12" d="M838.98,-837.933C642.535,-817.006 243.68,-764.162 142.505,-672 96.3275,-629.936 78.0457,-559.92 70.8919,-506.602"/>
<ellipse fill="none" stroke="#b3fb12" cx="843.054" cy="-838.364" rx="4" ry="4"/>
<polygon fill="#b3fb12" stroke="#b3fb12" points="70.8716,-506.437 74.1088,-495.96 70.2572,-501.475 69.6429,-496.513 69.6429,-496.513 69.6429,-496.513 70.2572,-501.475 65.177,-497.066 70.8716,-506.437 70.8716,-506.437"/>
</g>
<!-- User&#45;&gt;BackgroundInfo -->
<g id="edge7" class="edge"><title>User&#45;&gt;BackgroundInfo</title>
<path fill="none" stroke="#d999af" d="M839.139,-829.903C741.278,-808.004 600.591,-762.469 512.505,-672 464.118,-622.304 441.61,-543.903 431.435,-490.67"/>
<ellipse fill="none" stroke="#d999af" cx="843.087" cy="-830.771" rx="4.00001" ry="4.00001"/>
<ellipse fill="#d999af" stroke="#d999af" cx="430.688" cy="-486.612" rx="4.00001" ry="4.00001"/>
</g>
<!-- User&#45;&gt;Experience -->
<g id="edge8" class="edge"><title>User&#45;&gt;Experience</title>
<path fill="none" stroke="#dc97cf" d="M1062.04,-813.454C1159.17,-783.728 1303.47,-740.811 1430.51,-708 1501.08,-689.773 1544.97,-728.917 1590.51,-672 1623.75,-630.44 1624.29,-234.122 1590.51,-193 1531.37,-121.023 1262.33,-93.922 1114.52,-84.3403"/>
<polygon fill="#dc97cf" stroke="#dc97cf" points="1061.76,-813.538 1050.88,-812.166 1056.98,-815.004 1052.2,-816.469 1052.2,-816.469 1052.2,-816.469 1056.98,-815.004 1053.52,-820.771 1061.76,-813.538 1061.76,-813.538"/>
<polygon fill="#dc97cf" stroke="#dc97cf" points="1114.51,-84.3396 1104.81,-79.2162 1109.52,-84.0234 1104.53,-83.7072 1104.53,-83.7072 1104.53,-83.7072 1109.52,-84.0234 1104.24,-88.1982 1114.51,-84.3396 1114.51,-84.3396"/>
</g>
<!-- User&#45;&gt;HomepageInfo -->
<g id="edge9" class="edge"><title>User&#45;&gt;HomepageInfo</title>
<path fill="none" stroke="#e780d3" d="M840.914,-764.904C809.624,-737.5 777.072,-705.438 751.505,-672 717.422,-627.424 688.928,-571.564 668.375,-525.112"/>
<ellipse fill="none" stroke="#e780d3" cx="844.132" cy="-767.7" rx="4.00002" ry="4.00002"/>
<ellipse fill="#e780d3" stroke="#e780d3" cx="666.75" cy="-521.404" rx="4.00002" ry="4.00002"/>
</g>
<!-- User&#45;&gt;PersonalInfo -->
<g id="edge10" class="edge"><title>User&#45;&gt;PersonalInfo</title>
<path fill="none" stroke="#245cbf" d="M917.041,-700.448C915.562,-693.702 914.062,-686.863 912.55,-679.966"/>
<ellipse fill="none" stroke="#245cbf" cx="917.904" cy="-704.382" rx="4.00001" ry="4.00001"/>
<ellipse fill="#245cbf" stroke="#245cbf" cx="911.625" cy="-675.75" rx="4.00001" ry="4.00001"/>
</g>
<!-- User&#45;&gt;Photo -->
<g id="edge16" class="edge"><title>User&#45;&gt;Photo</title>
<path fill="none" stroke="#d6bd0c" d="M839.143,-811.345C748.086,-781.381 615.202,-739.23 497.505,-708 425.797,-688.972 391.118,-719.95 334.505,-672 287.549,-632.229 263.326,-566.124 250.97,-513.584"/>
<ellipse fill="none" stroke="#d6bd0c" cx="843.197" cy="-812.682" rx="4.00001" ry="4.00001"/>
<polygon fill="#d6bd0c" stroke="#d6bd0c" points="250.92,-513.361 253.116,-502.617 249.822,-508.483 248.725,-503.605 248.725,-503.605 248.725,-503.605 249.822,-508.483 244.335,-504.592 250.92,-513.361 250.92,-513.361"/>
</g>
<!-- User&#45;&gt;PhotoLink -->
<g id="edge11" class="edge"><title>User&#45;&gt;PhotoLink</title>
<path fill="none" stroke="#de82d6" d="M981.966,-700.465C997.893,-627.83 1016.15,-544.577 1027.98,-490.624"/>
<ellipse fill="none" stroke="#de82d6" cx="981.107" cy="-704.382" rx="4.00001" ry="4.00001"/>
<ellipse fill="#de82d6" stroke="#de82d6" cx="1028.89" cy="-486.459" rx="4.00001" ry="4.00001"/>
</g>
<!-- User&#45;&gt;Project -->
<g id="edge13" class="edge"><title>User&#45;&gt;Project</title>
<path fill="none" stroke="#59d2df" d="M1061.74,-812.264C1158.69,-781.797 1302.88,-738.462 1430.51,-708 1515.38,-687.742 1556,-727.291 1623.51,-672 1625.54,-670.33 1627.54,-668.609 1629.5,-666.842"/>
<polygon fill="#59d2df" stroke="#59d2df" points="1061.46,-812.352 1050.57,-811.064 1056.69,-813.854 1051.92,-815.356 1051.92,-815.356 1051.92,-815.356 1056.69,-813.854 1053.27,-819.648 1061.46,-812.352 1061.46,-812.352"/>
<polygon fill="#59d2df" stroke="#59d2df" points="1629.61,-666.728 1639.94,-663.048 1633.22,-663.265 1636.83,-659.802 1636.83,-659.802 1636.83,-659.802 1633.22,-663.265 1633.71,-656.556 1629.61,-666.728 1629.61,-666.728"/>
</g>
<!-- User&#45;&gt;Showcase -->
<g id="edge12" class="edge"><title>User&#45;&gt;Showcase</title>
<path fill="none" stroke="#b81014" d="M1057.61,-748.846C1079.18,-725.189 1100.19,-698.946 1116.51,-672 1151.16,-614.761 1173.66,-540.867 1186.17,-490.601"/>
<ellipse fill="none" stroke="#b81014" cx="1054.83" cy="-751.864" rx="4.00002" ry="4.00002"/>
<ellipse fill="#b81014" stroke="#b81014" cx="1187.14" cy="-486.629" rx="4.00001" ry="4.00001"/>
</g>
<!-- User&#45;&gt;SocialLink -->
<g id="edge14" class="edge"><title>User&#45;&gt;SocialLink</title>
<path fill="none" stroke="#54df3b" d="M1059.94,-814.212C1132.27,-786.513 1223.75,-740.696 1281.51,-672 1314.5,-632.756 1333.64,-579.188 1344.7,-532.76"/>
<ellipse fill="none" stroke="#54df3b" cx="1055.86" cy="-815.754" rx="4.00001" ry="4.00001"/>
<ellipse fill="#54df3b" stroke="#54df3b" cx="1345.64" cy="-528.676" rx="4.00001" ry="4.00001"/>
</g>
<!-- WebsiteSetting -->
<g id="node15" class="node"><title>WebsiteSetting</title>
<path fill="none" stroke="black" d="M1459.21,-375.5C1459.21,-375.5 1569.8,-375.5 1569.8,-375.5 1575.8,-375.5 1581.8,-381.5 1581.8,-387.5 1581.8,-387.5 1581.8,-477.5 1581.8,-477.5 1581.8,-483.5 1575.8,-489.5 1569.8,-489.5 1569.8,-489.5 1459.21,-489.5 1459.21,-489.5 1453.21,-489.5 1447.21,-483.5 1447.21,-477.5 1447.21,-477.5 1447.21,-387.5 1447.21,-387.5 1447.21,-381.5 1453.21,-375.5 1459.21,-375.5"/>
<text text-anchor="middle" x="1514.51" y="-474.3" font-family="Times,serif" font-size="14.00">WebsiteSetting</text>
<polyline fill="none" stroke="black" points="1447.21,-467.5 1581.8,-467.5 "/>
<text text-anchor="start" x="1455.21" y="-452.3" font-family="Times,serif" font-size="14.00">id :integer</text>
<text text-anchor="start" x="1455.21" y="-438.3" font-family="Times,serif" font-size="14.00">domain_name :string</text>
<text text-anchor="start" x="1455.21" y="-424.3" font-family="Times,serif" font-size="14.00">color :integer</text>
<text text-anchor="start" x="1455.21" y="-410.3" font-family="Times,serif" font-size="14.00">created_at :datetime</text>
<text text-anchor="start" x="1455.21" y="-396.3" font-family="Times,serif" font-size="14.00">updated_at :datetime</text>
<text text-anchor="start" x="1455.21" y="-382.3" font-family="Times,serif" font-size="14.00">user_id :integer</text>
</g>
<!-- User&#45;&gt;WebsiteSetting -->
<g id="edge15" class="edge"><title>User&#45;&gt;WebsiteSetting</title>
<path fill="none" stroke="#51a8d6" d="M1059.97,-836.86C1170.35,-819.487 1337.74,-776.662 1438.51,-672 1483.88,-624.877 1502.17,-550.715 1509.54,-497.601"/>
<ellipse fill="none" stroke="#51a8d6" cx="1055.74" cy="-837.509" rx="4.00001" ry="4.00001"/>
<ellipse fill="#51a8d6" stroke="#51a8d6" cx="1510.07" cy="-493.56" rx="4.00001" ry="4.00001"/>
</g>
</g>
</svg>
