<?xml version="1.0" encoding="UTF-8" standalone="no"?>
<!DOCTYPE svg PUBLIC "-//W3C//DTD SVG 1.1//EN"
 "http://www.w3.org/Graphics/SVG/1.1/DTD/svg11.dtd">
<!-- Generated by graphviz version 2.38.0 (20140413.2041)
 -->
<!-- Title: models_diagram Pages: 1 -->
<svg width="1123pt" height="297pt"
 viewBox="0.00 0.00 1122.84 297.00" xmlns="http://www.w3.org/2000/svg" xmlns:xlink="http://www.w3.org/1999/xlink">
<g id="graph0" class="graph" transform="scale(1 1) rotate(0) translate(4 293)">
<title>models_diagram</title>
<polygon fill="none" stroke="none" points="-4,4 -4,-293 1118.84,-293 1118.84,4 -4,4"/>
<!-- _diagram_info -->
<g id="node1" class="node"><title>_diagram_info</title>
<text text-anchor="start" x="8" y="-274.6" font-family="Times,serif" font-size="13.00">Models diagram</text>
<text text-anchor="start" x="8" y="-261.6" font-family="Times,serif" font-size="13.00">Date: May 23 2016 &#45; 19:39</text>
<text text-anchor="start" x="8" y="-248.6" font-family="Times,serif" font-size="13.00">Migration version: 20160523232025</text>
<text text-anchor="start" x="8" y="-235.6" font-family="Times,serif" font-size="13.00">Generated by RailRoady 1.3.1</text>
<text text-anchor="start" x="8" y="-222.6" font-family="Times,serif" font-size="13.00">http://railroady.prestonlee.com</text>
</g>
<!-- Ability -->
<g id="node2" class="node"><title>Ability</title>
<polygon fill="none" stroke="black" points="281.358,-270.5 226.018,-270.5 226.018,-234.5 281.358,-234.5 281.358,-270.5"/>
<text text-anchor="middle" x="253.688" y="-248.3" font-family="Times,serif" font-size="14.00">Ability</text>
</g>
<!-- Admin -->
<g id="node3" class="node"><title>Admin</title>
<ellipse fill="none" stroke="black" cx="334.688" cy="-252.5" rx="34.8458" ry="18"/>
<text text-anchor="middle" x="334.688" y="-248.3" font-family="Times,serif" font-size="14.00">Admin</text>
</g>
<!-- Article -->
<g id="node4" class="node"><title>Article</title>
<ellipse fill="none" stroke="black" cx="75.6877" cy="-90" rx="34.8198" ry="18"/>
<text text-anchor="middle" x="75.6877" y="-85.8" font-family="Times,serif" font-size="14.00">Article</text>
</g>
<!-- BackgroundInfo -->
<g id="node5" class="node"><title>BackgroundInfo</title>
<ellipse fill="none" stroke="black" cx="920.688" cy="-90" rx="68.1287" ry="18"/>
<text text-anchor="middle" x="920.688" y="-85.8" font-family="Times,serif" font-size="14.00">BackgroundInfo</text>
</g>
<!-- Experience -->
<g id="node6" class="node"><title>Experience</title>
<ellipse fill="none" stroke="black" cx="968.688" cy="-18" rx="49.7533" ry="18"/>
<text text-anchor="middle" x="968.688" y="-13.8" font-family="Times,serif" font-size="14.00">Experience</text>
</g>
<!-- BackgroundInfo&#45;&gt;Experience -->
<g id="edge1" class="edge"><title>BackgroundInfo&#45;&gt;Experience</title>
<path fill="none" stroke="#74fe66" d="M936.953,-65.28C941.622,-58.4704 946.729,-51.0228 951.455,-44.1312"/>
<ellipse fill="none" stroke="#74fe66" cx="934.569" cy="-68.756" rx="4.00002" ry="4.00002"/>
<polygon fill="#74fe66" stroke="#74fe66" points="951.52,-44.0363 960.887,-38.3339 954.348,-39.9127 957.175,-35.789 957.175,-35.789 957.175,-35.789 954.348,-39.9127 953.464,-33.2441 951.52,-44.0363 951.52,-44.0363"/>
</g>
<!-- HomepageInfo -->
<g id="node7" class="node"><title>HomepageInfo</title>
<ellipse fill="none" stroke="black" cx="270.688" cy="-90" rx="63.2924" ry="18"/>
<text text-anchor="middle" x="270.688" y="-85.8" font-family="Times,serif" font-size="14.00">HomepageInfo</text>
</g>
<!-- PersonalInfo -->
<g id="node8" class="node"><title>PersonalInfo</title>
<ellipse fill="none" stroke="black" cx="406.688" cy="-90" rx="55.0922" ry="18"/>
<text text-anchor="middle" x="406.688" y="-85.8" font-family="Times,serif" font-size="14.00">PersonalInfo</text>
</g>
<!-- Photo -->
<g id="node9" class="node"><title>Photo</title>
<ellipse fill="none" stroke="black" cx="158.688" cy="-90" rx="30.9967" ry="18"/>
<text text-anchor="middle" x="158.688" y="-85.8" font-family="Times,serif" font-size="14.00">Photo</text>
</g>
<!-- PhotoLink -->
<g id="node10" class="node"><title>PhotoLink</title>
<ellipse fill="none" stroke="black" cx="527.688" cy="-90" rx="47.3995" ry="18"/>
<text text-anchor="middle" x="527.688" y="-85.8" font-family="Times,serif" font-size="14.00">PhotoLink</text>
</g>
<!-- Project -->
<g id="node11" class="node"><title>Project</title>
<ellipse fill="none" stroke="black" cx="1079.69" cy="-90" rx="35.3129" ry="18"/>
<text text-anchor="middle" x="1079.69" y="-85.8" font-family="Times,serif" font-size="14.00">Project</text>
</g>
<!-- School -->
<g id="node12" class="node"><title>School</title>
<ellipse fill="none" stroke="black" cx="421.688" cy="-252.5" rx="34.8458" ry="18"/>
<text text-anchor="middle" x="421.688" y="-248.3" font-family="Times,serif" font-size="14.00">School</text>
</g>
<!-- School&#45;&gt;Article -->
<g id="edge4" class="edge"><title>School&#45;&gt;Article</title>
<path fill="none" stroke="#681200" d="M398.295,-229.352C392.242,-224.445 385.501,-219.631 378.688,-216 329.173,-189.611 309.958,-200.394 257.688,-180 203.395,-158.817 143.14,-127.771 107.385,-108.504"/>
<polygon fill="#681200" stroke="#681200" points="398.466,-229.499 403.139,-239.419 402.265,-232.749 406.065,-236 406.065,-236 406.065,-236 402.265,-232.749 408.99,-232.581 398.466,-229.499 398.466,-229.499"/>
<polygon fill="#681200" stroke="#681200" points="107.199,-108.403 100.553,-99.6801 102.803,-106.019 98.4079,-103.636 98.4079,-103.636 98.4079,-103.636 102.803,-106.019 96.2628,-107.592 107.199,-108.403 107.199,-108.403"/>
</g>
<!-- School&#45;&gt;Photo -->
<g id="edge5" class="edge"><title>School&#45;&gt;Photo</title>
<path fill="none" stroke="#713acc" d="M397.334,-230.163C391.387,-225.302 384.935,-220.305 378.688,-216 314.66,-171.874 233.993,-129.007 190.31,-106.755"/>
<polygon fill="#713acc" stroke="#713acc" points="397.393,-230.212 402.174,-240.081 401.228,-233.421 405.062,-236.63 405.062,-236.63 405.062,-236.63 401.228,-233.421 407.95,-233.179 397.393,-230.212 397.393,-230.212"/>
<polygon fill="#713acc" stroke="#713acc" points="190.233,-106.716 183.346,-98.1825 185.773,-104.456 181.312,-102.197 181.312,-102.197 181.312,-102.197 185.773,-104.456 179.279,-106.211 190.233,-106.716 190.233,-106.716"/>
</g>
<!-- School&#45;&gt;Project -->
<g id="edge3" class="edge"><title>School&#45;&gt;Project</title>
<path fill="none" stroke="#c33e3d" d="M445.131,-229.149C451.411,-224.165 458.472,-219.367 465.688,-216 578.364,-163.426 893.484,-135.744 1014.69,-108 1022.77,-106.15 1031.38,-104.016 1039.59,-101.899"/>
<polygon fill="#c33e3d" stroke="#c33e3d" points="444.741,-229.479 434.202,-232.51 440.926,-232.711 437.111,-235.943 437.111,-235.943 437.111,-235.943 440.926,-232.711 440.02,-239.377 444.741,-229.479 444.741,-229.479"/>
<polygon fill="#c33e3d" stroke="#c33e3d" points="1039.69,-101.875 1050.5,-103.699 1044.52,-100.61 1049.36,-99.3452 1049.36,-99.3452 1049.36,-99.3452 1044.52,-100.61 1048.22,-94.9916 1039.69,-101.875 1039.69,-101.875"/>
</g>
<!-- User -->
<g id="node15" class="node"><title>User</title>
<ellipse fill="none" stroke="black" cx="527.688" cy="-162" rx="27" ry="18"/>
<text text-anchor="middle" x="527.688" y="-157.8" font-family="Times,serif" font-size="14.00">User</text>
</g>
<!-- School&#45;&gt;User -->
<g id="edge2" class="edge"><title>School&#45;&gt;User</title>
<path fill="none" stroke="#9fd70c" d="M445.42,-231.686C462.735,-217.229 486.121,-197.704 503.534,-183.166"/>
<ellipse fill="none" stroke="#9fd70c" cx="442.262" cy="-234.322" rx="4.00002" ry="4.00002"/>
<polygon fill="#9fd70c" stroke="#9fd70c" points="503.873,-182.883 514.433,-179.929 507.711,-179.679 511.549,-176.474 511.549,-176.474 511.549,-176.474 507.711,-179.679 508.665,-173.02 503.873,-182.883 503.873,-182.883"/>
</g>
<!-- Showcase -->
<g id="node13" class="node"><title>Showcase</title>
<ellipse fill="none" stroke="black" cx="519.688" cy="-252.5" rx="45.4441" ry="18"/>
<text text-anchor="middle" x="519.688" y="-248.3" font-family="Times,serif" font-size="14.00">Showcase</text>
</g>
<!-- SocialLink -->
<g id="node14" class="node"><title>SocialLink</title>
<ellipse fill="none" stroke="black" cx="641.688" cy="-90" rx="48.8273" ry="18"/>
<text text-anchor="middle" x="641.688" y="-85.8" font-family="Times,serif" font-size="14.00">SocialLink</text>
</g>
<!-- User&#45;&gt;Article -->
<g id="edge6" class="edge"><title>User&#45;&gt;Article</title>
<path fill="none" stroke="#1a9ff2" d="M492.193,-159.356C420.541,-155.395 253.924,-142.918 118.688,-108 116.081,-107.327 113.42,-106.539 110.763,-105.677"/>
<ellipse fill="none" stroke="#1a9ff2" cx="496.457" cy="-159.584" rx="4" ry="4"/>
<polygon fill="#1a9ff2" stroke="#1a9ff2" points="110.689,-105.651 102.769,-98.0668 105.977,-103.979 101.265,-102.308 101.265,-102.308 101.265,-102.308 105.977,-103.979 99.7604,-106.549 110.689,-105.651 110.689,-105.651"/>
</g>
<!-- User&#45;&gt;BackgroundInfo -->
<g id="edge7" class="edge"><title>User&#45;&gt;BackgroundInfo</title>
<path fill="none" stroke="#9ecca6" d="M562.102,-155.818C620.271,-146.927 741.673,-127.803 843.688,-108 849.924,-106.789 856.43,-105.459 862.903,-104.092"/>
<ellipse fill="none" stroke="#9ecca6" cx="557.942" cy="-156.452" rx="4.00001" ry="4.00001"/>
<ellipse fill="#9ecca6" stroke="#9ecca6" cx="867.149" cy="-103.184" rx="4.00001" ry="4.00001"/>
</g>
<!-- User&#45;&gt;Experience -->
<g id="edge8" class="edge"><title>User&#45;&gt;Experience</title>
<path fill="none" stroke="#37623c" d="M564.922,-159.597C670.992,-155.222 968.958,-140.152 997.688,-108 1013.65,-90.1356 1001.61,-63.3318 988.528,-43.8087"/>
<polygon fill="#37623c" stroke="#37623c" points="564.683,-159.607 554.509,-155.514 559.687,-159.809 554.691,-160.01 554.691,-160.01 554.691,-160.01 559.687,-159.809 554.873,-164.507 564.683,-159.607 564.683,-159.607"/>
<polygon fill="#37623c" stroke="#37623c" points="988.345,-43.5517 986.204,-32.7969 985.442,-39.4805 982.539,-35.4092 982.539,-35.4092 982.539,-35.4092 985.442,-39.4805 978.875,-38.0215 988.345,-43.5517 988.345,-43.5517"/>
</g>
<!-- User&#45;&gt;HomepageInfo -->
<g id="edge9" class="edge"><title>User&#45;&gt;HomepageInfo</title>
<path fill="none" stroke="#77ac8c" d="M495.242,-152.163C451.803,-140.331 374.242,-119.206 322.624,-105.146"/>
<ellipse fill="none" stroke="#77ac8c" cx="499.186" cy="-153.237" rx="4.00001" ry="4.00001"/>
<ellipse fill="#77ac8c" stroke="#77ac8c" cx="318.748" cy="-104.09" rx="4.00001" ry="4.00001"/>
</g>
<!-- User&#45;&gt;PersonalInfo -->
<g id="edge10" class="edge"><title>User&#45;&gt;PersonalInfo</title>
<path fill="none" stroke="#d36fd2" d="M500.862,-145.481C482.862,-135.068 459.025,-121.278 439.837,-110.177"/>
<ellipse fill="none" stroke="#d36fd2" cx="504.515" cy="-147.594" rx="4.00002" ry="4.00002"/>
<ellipse fill="#d36fd2" stroke="#d36fd2" cx="436.195" cy="-108.07" rx="4.00002" ry="4.00002"/>
</g>
<!-- User&#45;&gt;Photo -->
<g id="edge15" class="edge"><title>User&#45;&gt;Photo</title>
<path fill="none" stroke="#a450ee" d="M492.647,-158.161C431.844,-152.619 303.278,-138.166 198.688,-108 196.277,-107.305 193.818,-106.503 191.363,-105.635"/>
<ellipse fill="none" stroke="#a450ee" cx="496.783" cy="-158.53" rx="4" ry="4"/>
<polygon fill="#a450ee" stroke="#a450ee" points="191.363,-105.635 183.651,-97.8389 186.698,-103.836 182.033,-102.038 182.033,-102.038 182.033,-102.038 186.698,-103.836 180.414,-106.237 191.363,-105.635 191.363,-105.635"/>
</g>
<!-- User&#45;&gt;PhotoLink -->
<g id="edge11" class="edge"><title>User&#45;&gt;PhotoLink</title>
<path fill="none" stroke="#c7f45e" d="M527.688,-135.64C527.688,-129.348 527.688,-122.605 527.688,-116.316"/>
<ellipse fill="none" stroke="#c7f45e" cx="527.688" cy="-139.697" rx="4" ry="4"/>
<ellipse fill="#c7f45e" stroke="#c7f45e" cx="527.688" cy="-112.104" rx="4" ry="4"/>
</g>
<!-- User&#45;&gt;Project -->
<g id="edge12" class="edge"><title>User&#45;&gt;Project</title>
<path fill="none" stroke="#a191be" d="M562.797,-160.057C645.366,-157.245 857.929,-146.535 1030.69,-108 1034.63,-107.121 1038.69,-106.028 1042.72,-104.824"/>
<ellipse fill="none" stroke="#a191be" cx="558.755" cy="-160.189" rx="4" ry="4"/>
<polygon fill="#a191be" stroke="#a191be" points="1043.02,-104.726 1053.92,-105.94 1047.78,-103.191 1052.54,-101.657 1052.54,-101.657 1052.54,-101.657 1047.78,-103.191 1051.16,-97.3741 1043.02,-104.726 1043.02,-104.726"/>
</g>
<!-- User&#45;&gt;SocialLink -->
<g id="edge13" class="edge"><title>User&#45;&gt;SocialLink</title>
<path fill="none" stroke="#a9dc98" d="M554.011,-144.837C570.907,-134.462 592.925,-120.942 610.669,-110.047"/>
<ellipse fill="none" stroke="#a9dc98" cx="550.435" cy="-147.032" rx="4.00002" ry="4.00002"/>
<ellipse fill="#a9dc98" stroke="#a9dc98" cx="614.079" cy="-107.953" rx="4.00002" ry="4.00002"/>
</g>
<!-- WebsiteSetting -->
<g id="node16" class="node"><title>WebsiteSetting</title>
<ellipse fill="none" stroke="black" cx="771.688" cy="-90" rx="63.3707" ry="18"/>
<text text-anchor="middle" x="771.688" y="-85.8" font-family="Times,serif" font-size="14.00">WebsiteSetting</text>
</g>
<!-- User&#45;&gt;WebsiteSetting -->
<g id="edge14" class="edge"><title>User&#45;&gt;WebsiteSetting</title>
<path fill="none" stroke="#a138d8" d="M559.919,-151.753C600.988,-139.971 672.443,-119.472 720.875,-105.577"/>
<ellipse fill="none" stroke="#a138d8" cx="555.82" cy="-152.929" rx="4.00001" ry="4.00001"/>
<ellipse fill="#a138d8" stroke="#a138d8" cx="724.896" cy="-104.424" rx="4.00001" ry="4.00001"/>
</g>
</g>
</svg>
