<?xml version="1.0" encoding="UTF-8" standalone="no"?>
<!DOCTYPE svg PUBLIC "-//W3C//DTD SVG 1.1//EN"
 "http://www.w3.org/Graphics/SVG/1.1/DTD/svg11.dtd">
<!-- Generated by graphviz version 2.38.0 (20140413.2041)
 -->
<!-- Title: models_diagram Pages: 1 -->
<svg width="1061pt" height="225pt"
 viewBox="0.00 0.00 1061.09 225.00" xmlns="http://www.w3.org/2000/svg" xmlns:xlink="http://www.w3.org/1999/xlink">
<g id="graph0" class="graph" transform="scale(1 1) rotate(0) translate(4 221)">
<title>models_diagram</title>
<polygon fill="none" stroke="none" points="-4,4 -4,-221 1057.09,-221 1057.09,4 -4,4"/>
<!-- _diagram_info -->
<g id="node1" class="node"><title>_diagram_info</title>
<text text-anchor="start" x="220.972" y="-202.6" font-family="Times,serif" font-size="13.00">Models diagram</text>
<text text-anchor="start" x="220.972" y="-189.6" font-family="Times,serif" font-size="13.00">Date: Apr 30 2016 &#45; 21:36</text>
<text text-anchor="start" x="220.972" y="-176.6" font-family="Times,serif" font-size="13.00">Migration version: 20150622142447</text>
<text text-anchor="start" x="220.972" y="-163.6" font-family="Times,serif" font-size="13.00">Generated by RailRoady 1.3.1</text>
<text text-anchor="start" x="220.972" y="-150.6" font-family="Times,serif" font-size="13.00">http://railroady.prestonlee.com</text>
</g>
<!-- Ability -->
<g id="node2" class="node"><title>Ability</title>
<polygon fill="none" stroke="black" points="494.329,-198.5 438.99,-198.5 438.99,-162.5 494.329,-162.5 494.329,-198.5"/>
<text text-anchor="middle" x="466.66" y="-176.3" font-family="Times,serif" font-size="14.00">Ability</text>
</g>
<!-- Article -->
<g id="node3" class="node"><title>Article</title>
<ellipse fill="none" stroke="black" cx="34.6595" cy="-90" rx="34.8198" ry="18"/>
<text text-anchor="middle" x="34.6595" y="-85.8" font-family="Times,serif" font-size="14.00">Article</text>
</g>
<!-- BackgroundInfo -->
<g id="node4" class="node"><title>BackgroundInfo</title>
<ellipse fill="none" stroke="black" cx="155.66" cy="-90" rx="68.1287" ry="18"/>
<text text-anchor="middle" x="155.66" y="-85.8" font-family="Times,serif" font-size="14.00">BackgroundInfo</text>
</g>
<!-- Experience -->
<g id="node5" class="node"><title>Experience</title>
<ellipse fill="none" stroke="black" cx="203.66" cy="-18" rx="49.7533" ry="18"/>
<text text-anchor="middle" x="203.66" y="-13.8" font-family="Times,serif" font-size="14.00">Experience</text>
</g>
<!-- BackgroundInfo&#45;&gt;Experience -->
<g id="edge1" class="edge"><title>BackgroundInfo&#45;&gt;Experience</title>
<path fill="none" stroke="#7a5eb6" d="M171.925,-65.28C176.594,-58.4704 181.701,-51.0228 186.427,-44.1312"/>
<ellipse fill="none" stroke="#7a5eb6" cx="169.541" cy="-68.756" rx="4.00002" ry="4.00002"/>
<polygon fill="#7a5eb6" stroke="#7a5eb6" points="186.492,-44.0363 195.858,-38.3339 189.319,-39.9127 192.147,-35.789 192.147,-35.789 192.147,-35.789 189.319,-39.9127 188.436,-33.2441 186.492,-44.0363 186.492,-44.0363"/>
</g>
<!-- HomepageInfo -->
<g id="node6" class="node"><title>HomepageInfo</title>
<ellipse fill="none" stroke="black" cx="342.66" cy="-90" rx="63.2924" ry="18"/>
<text text-anchor="middle" x="342.66" y="-85.8" font-family="Times,serif" font-size="14.00">HomepageInfo</text>
</g>
<!-- PersonalInfo -->
<g id="node7" class="node"><title>PersonalInfo</title>
<ellipse fill="none" stroke="black" cx="478.66" cy="-90" rx="55.0922" ry="18"/>
<text text-anchor="middle" x="478.66" y="-85.8" font-family="Times,serif" font-size="14.00">PersonalInfo</text>
</g>
<!-- PhotoLink -->
<g id="node8" class="node"><title>PhotoLink</title>
<ellipse fill="none" stroke="black" cx="599.66" cy="-90" rx="47.3995" ry="18"/>
<text text-anchor="middle" x="599.66" y="-85.8" font-family="Times,serif" font-size="14.00">PhotoLink</text>
</g>
<!-- Project -->
<g id="node9" class="node"><title>Project</title>
<ellipse fill="none" stroke="black" cx="710.66" cy="-18" rx="35.3129" ry="18"/>
<text text-anchor="middle" x="710.66" y="-13.8" font-family="Times,serif" font-size="14.00">Project</text>
</g>
<!-- Showcase -->
<g id="node10" class="node"><title>Showcase</title>
<ellipse fill="none" stroke="black" cx="747.66" cy="-90" rx="45.4441" ry="18"/>
<text text-anchor="middle" x="747.66" y="-85.8" font-family="Times,serif" font-size="14.00">Showcase</text>
</g>
<!-- Showcase&#45;&gt;Project -->
<g id="edge2" class="edge"><title>Showcase&#45;&gt;Project</title>
<path fill="none" stroke="#166466" d="M734.823,-64.7144C731.433,-58.3016 727.763,-51.3577 724.331,-44.8648"/>
<ellipse fill="none" stroke="#166466" cx="736.834" cy="-68.5186" rx="4.00002" ry="4.00002"/>
<polygon fill="#166466" stroke="#166466" points="724.207,-44.63 723.512,-33.6861 721.87,-40.2095 719.534,-35.789 719.534,-35.789 719.534,-35.789 721.87,-40.2095 715.555,-37.8919 724.207,-44.63 724.207,-44.63"/>
</g>
<!-- SocialLink -->
<g id="node11" class="node"><title>SocialLink</title>
<ellipse fill="none" stroke="black" cx="859.66" cy="-90" rx="48.8273" ry="18"/>
<text text-anchor="middle" x="859.66" y="-85.8" font-family="Times,serif" font-size="14.00">SocialLink</text>
</g>
<!-- User -->
<g id="node12" class="node"><title>User</title>
<ellipse fill="none" stroke="black" cx="539.66" cy="-180.5" rx="27" ry="18"/>
<text text-anchor="middle" x="539.66" y="-176.3" font-family="Times,serif" font-size="14.00">User</text>
</g>
<!-- User&#45;&gt;Article -->
<g id="edge3" class="edge"><title>User&#45;&gt;Article</title>
<path fill="none" stroke="#651cd9" d="M522.585,-157.897C517.141,-152.449 510.686,-147.235 503.66,-144 331.466,-64.7252 263.379,-150.589 78.6595,-108 75.8167,-107.345 72.913,-106.542 70.0204,-105.647"/>
<ellipse fill="none" stroke="#651cd9" cx="525.355" cy="-160.885" rx="4.00002" ry="4.00002"/>
<polygon fill="#651cd9" stroke="#651cd9" points="69.7914,-105.568 61.7947,-98.0648 65.0624,-103.945 60.3334,-102.321 60.3334,-102.321 60.3334,-102.321 65.0624,-103.945 58.872,-106.577 69.7914,-105.568 69.7914,-105.568"/>
</g>
<!-- User&#45;&gt;BackgroundInfo -->
<g id="edge4" class="edge"><title>User&#45;&gt;BackgroundInfo</title>
<path fill="none" stroke="#766bfe" d="M522.478,-158.123C517.032,-152.678 510.603,-147.41 503.66,-144 396.574,-91.4154 355.25,-128.121 237.66,-108 230.187,-106.721 222.358,-105.258 214.625,-103.739"/>
<ellipse fill="none" stroke="#766bfe" cx="525.251" cy="-161.094" rx="4.00002" ry="4.00002"/>
<ellipse fill="#766bfe" stroke="#766bfe" cx="210.218" cy="-102.859" rx="4.00001" ry="4.00001"/>
</g>
<!-- User&#45;&gt;Experience -->
<g id="edge5" class="edge"><title>User&#45;&gt;Experience</title>
<path fill="none" stroke="#ef19da" d="M521.025,-156.821C515.893,-151.877 509.982,-147.179 503.66,-144 410.041,-96.9328 360.566,-161.819 270.66,-108 245.908,-93.1835 227.254,-65.4195 215.995,-44.8252"/>
<polygon fill="#ef19da" stroke="#ef19da" points="521.05,-156.848 524.681,-167.195 524.496,-160.471 527.942,-164.094 527.942,-164.094 527.942,-164.094 524.496,-160.471 531.203,-160.993 521.05,-156.848 521.05,-156.848"/>
<polygon fill="#ef19da" stroke="#ef19da" points="215.983,-44.8007 215.335,-33.8539 213.665,-40.3702 211.347,-35.9398 211.347,-35.9398 211.347,-35.9398 213.665,-40.3702 207.36,-38.0257 215.983,-44.8007 215.983,-44.8007"/>
</g>
<!-- User&#45;&gt;HomepageInfo -->
<g id="edge6" class="edge"><title>User&#45;&gt;HomepageInfo</title>
<path fill="none" stroke="#f7c933" d="M521.419,-158.312C516.108,-153.085 510.013,-147.88 503.66,-144 485.059,-132.642 434.082,-116.683 394.422,-105.251"/>
<ellipse fill="none" stroke="#f7c933" cx="524.486" cy="-161.498" rx="4.00002" ry="4.00002"/>
<ellipse fill="#f7c933" stroke="#f7c933" cx="390.5" cy="-104.128" rx="4.00001" ry="4.00001"/>
</g>
<!-- User&#45;&gt;PersonalInfo -->
<g id="edge7" class="edge"><title>User&#45;&gt;PersonalInfo</title>
<path fill="none" stroke="#129497" d="M524.163,-157.017C515.273,-144.12 504.118,-127.936 495.078,-114.821"/>
<ellipse fill="none" stroke="#129497" cx="526.484" cy="-160.385" rx="4.00002" ry="4.00002"/>
<ellipse fill="#129497" stroke="#129497" cx="492.572" cy="-111.184" rx="4.00002" ry="4.00002"/>
</g>
<!-- User&#45;&gt;PhotoLink -->
<g id="edge8" class="edge"><title>User&#45;&gt;PhotoLink</title>
<path fill="none" stroke="#de1748" d="M554.932,-156.973C563.737,-143.986 574.792,-127.679 583.709,-114.527"/>
<ellipse fill="none" stroke="#de1748" cx="552.631" cy="-160.367" rx="4.00002" ry="4.00002"/>
<ellipse fill="#de1748" stroke="#de1748" cx="586.17" cy="-110.897" rx="4.00002" ry="4.00002"/>
</g>
<!-- User&#45;&gt;Project -->
<g id="edge10" class="edge"><title>User&#45;&gt;Project</title>
<path fill="none" stroke="#3b7283" d="M570.908,-165.293C595.949,-152.797 630.874,-132.757 655.66,-108 674.129,-89.5519 689.195,-63.7671 698.859,-44.6976"/>
<polygon fill="#3b7283" stroke="#3b7283" points="570.829,-165.331 559.868,-165.66 566.333,-167.519 561.837,-169.707 561.837,-169.707 561.837,-169.707 566.333,-167.519 563.806,-173.753 570.829,-165.331 570.829,-165.331"/>
<polygon fill="#3b7283" stroke="#3b7283" points="698.88,-44.6532 707.324,-37.6567 701.082,-40.1641 703.284,-35.675 703.284,-35.675 703.284,-35.675 701.082,-40.1641 699.244,-33.6934 698.88,-44.6532 698.88,-44.6532"/>
</g>
<!-- User&#45;&gt;Showcase -->
<g id="edge9" class="edge"><title>User&#45;&gt;Showcase</title>
<path fill="none" stroke="#192d68" d="M569.408,-166.843C606.539,-151.044 670.061,-124.017 710.396,-106.855"/>
<ellipse fill="none" stroke="#192d68" cx="565.6" cy="-168.463" rx="4.00002" ry="4.00002"/>
<ellipse fill="#192d68" stroke="#192d68" cx="714.212" cy="-105.231" rx="4.00002" ry="4.00002"/>
</g>
<!-- User&#45;&gt;SocialLink -->
<g id="edge11" class="edge"><title>User&#45;&gt;SocialLink</title>
<path fill="none" stroke="#20fdfa" d="M572.083,-170.861C621.635,-157.61 719.146,-131.349 801.66,-108 805.951,-106.786 810.415,-105.506 814.878,-104.216"/>
<ellipse fill="none" stroke="#20fdfa" cx="568.129" cy="-171.917" rx="4.00001" ry="4.00001"/>
<ellipse fill="#20fdfa" stroke="#20fdfa" cx="819.029" cy="-103.011" rx="4.00001" ry="4.00001"/>
</g>
<!-- WebsiteSetting -->
<g id="node13" class="node"><title>WebsiteSetting</title>
<ellipse fill="none" stroke="black" cx="989.66" cy="-90" rx="63.3707" ry="18"/>
<text text-anchor="middle" x="989.66" y="-85.8" font-family="Times,serif" font-size="14.00">WebsiteSetting</text>
</g>
<!-- User&#45;&gt;WebsiteSetting -->
<g id="edge12" class="edge"><title>User&#45;&gt;WebsiteSetting</title>
<path fill="none" stroke="#e0fae9" d="M573.425,-173.638C639.638,-162.028 791.106,-134.895 917.66,-108 923.36,-106.789 929.302,-105.472 935.22,-104.127"/>
<ellipse fill="none" stroke="#e0fae9" cx="569.346" cy="-174.352" rx="4.00001" ry="4.00001"/>
<ellipse fill="#e0fae9" stroke="#e0fae9" cx="939.353" cy="-103.177" rx="4.00001" ry="4.00001"/>
</g>
</g>
</svg>
