<?xml version="1.0" encoding="UTF-8" standalone="no"?>
<!DOCTYPE svg PUBLIC "-//W3C//DTD SVG 1.1//EN"
 "http://www.w3.org/Graphics/SVG/1.1/DTD/svg11.dtd">
<!-- Generated by graphviz version 2.38.0 (20140413.2041)
 -->
<!-- Title: models_diagram Pages: 1 -->
<svg width="1645pt" height="1304pt"
 viewBox="0.00 0.00 1644.96 1304.00" xmlns="http://www.w3.org/2000/svg" xmlns:xlink="http://www.w3.org/1999/xlink">
<g id="graph0" class="graph" transform="scale(1 1) rotate(0) translate(4 1300)">
<title>models_diagram</title>
<polygon fill="none" stroke="none" points="-4,4 -4,-1300 1640.96,-1300 1640.96,4 -4,4"/>
<!-- _diagram_info -->
<g id="node1" class="node"><title>_diagram_info</title>
<text text-anchor="start" x="77.8176" y="-1211.6" font-family="Times,serif" font-size="13.00">Models diagram</text>
<text text-anchor="start" x="77.8176" y="-1198.6" font-family="Times,serif" font-size="13.00">Date: May 23 2016 &#45; 19:39</text>
<text text-anchor="start" x="77.8176" y="-1185.6" font-family="Times,serif" font-size="13.00">Migration version: 20160523232025</text>
<text text-anchor="start" x="77.8176" y="-1172.6" font-family="Times,serif" font-size="13.00">Generated by RailRoady 1.3.1</text>
<text text-anchor="start" x="77.8176" y="-1159.6" font-family="Times,serif" font-size="13.00">http://railroady.prestonlee.com</text>
</g>
<!-- Ability -->
<g id="node2" class="node"><title>Ability</title>
<polygon fill="none" stroke="black" points="295.671,-1167.5 295.671,-1211.5 351.34,-1211.5 351.34,-1167.5 295.671,-1167.5"/>
<text text-anchor="middle" x="323.505" y="-1196.3" font-family="Times,serif" font-size="14.00">Ability</text>
<polyline fill="none" stroke="black" points="295.671,-1189.5 351.34,-1189.5 "/>
<text text-anchor="middle" x="323.505" y="-1174.3" font-family="Times,serif" font-size="14.00"> </text>
</g>
<!-- Admin -->
<g id="node3" class="node"><title>Admin</title>
<path fill="none" stroke="black" d="M381.228,-1083.5C381.228,-1083.5 561.783,-1083.5 561.783,-1083.5 567.783,-1083.5 573.783,-1089.5 573.783,-1095.5 573.783,-1095.5 573.783,-1283.5 573.783,-1283.5 573.783,-1289.5 567.783,-1295.5 561.783,-1295.5 561.783,-1295.5 381.228,-1295.5 381.228,-1295.5 375.228,-1295.5 369.228,-1289.5 369.228,-1283.5 369.228,-1283.5 369.228,-1095.5 369.228,-1095.5 369.228,-1089.5 375.228,-1083.5 381.228,-1083.5"/>
<text text-anchor="middle" x="471.505" y="-1280.3" font-family="Times,serif" font-size="14.00">Admin</text>
<polyline fill="none" stroke="black" points="369.228,-1273.5 573.783,-1273.5 "/>
<text text-anchor="start" x="377.228" y="-1258.3" font-family="Times,serif" font-size="14.00">id :integer</text>
<text text-anchor="start" x="377.228" y="-1244.3" font-family="Times,serif" font-size="14.00">email :string</text>
<text text-anchor="start" x="377.228" y="-1230.3" font-family="Times,serif" font-size="14.00">encrypted_password :string</text>
<text text-anchor="start" x="377.228" y="-1216.3" font-family="Times,serif" font-size="14.00">reset_password_token :string</text>
<text text-anchor="start" x="377.228" y="-1202.3" font-family="Times,serif" font-size="14.00">reset_password_sent_at :datetime</text>
<text text-anchor="start" x="377.228" y="-1188.3" font-family="Times,serif" font-size="14.00">remember_created_at :datetime</text>
<text text-anchor="start" x="377.228" y="-1174.3" font-family="Times,serif" font-size="14.00">sign_in_count :integer</text>
<text text-anchor="start" x="377.228" y="-1160.3" font-family="Times,serif" font-size="14.00">current_sign_in_at :datetime</text>
<text text-anchor="start" x="377.228" y="-1146.3" font-family="Times,serif" font-size="14.00">last_sign_in_at :datetime</text>
<text text-anchor="start" x="377.228" y="-1132.3" font-family="Times,serif" font-size="14.00">current_sign_in_ip :inet</text>
<text text-anchor="start" x="377.228" y="-1118.3" font-family="Times,serif" font-size="14.00">last_sign_in_ip :inet</text>
<text text-anchor="start" x="377.228" y="-1104.3" font-family="Times,serif" font-size="14.00">created_at :datetime</text>
<text text-anchor="start" x="377.228" y="-1090.3" font-family="Times,serif" font-size="14.00">updated_at :datetime</text>
</g>
<!-- Article -->
<g id="node4" class="node"><title>Article</title>
<path fill="none" stroke="black" d="M12,-396.5C12,-396.5 121.011,-396.5 121.011,-396.5 127.011,-396.5 133.011,-402.5 133.011,-408.5 133.011,-408.5 133.011,-512.5 133.011,-512.5 133.011,-518.5 127.011,-524.5 121.011,-524.5 121.011,-524.5 12,-524.5 12,-524.5 6,-524.5 0,-518.5 0,-512.5 0,-512.5 0,-408.5 0,-408.5 0,-402.5 6,-396.5 12,-396.5"/>
<text text-anchor="middle" x="66.5054" y="-509.3" font-family="Times,serif" font-size="14.00">Article</text>
<polyline fill="none" stroke="black" points="0,-502.5 133.011,-502.5 "/>
<text text-anchor="start" x="8" y="-487.3" font-family="Times,serif" font-size="14.00">id :integer</text>
<text text-anchor="start" x="8" y="-473.3" font-family="Times,serif" font-size="14.00">title :string</text>
<text text-anchor="start" x="8" y="-459.3" font-family="Times,serif" font-size="14.00">summary :text</text>
<text text-anchor="start" x="8" y="-445.3" font-family="Times,serif" font-size="14.00">url :string</text>
<text text-anchor="start" x="8" y="-431.3" font-family="Times,serif" font-size="14.00">created_at :datetime</text>
<text text-anchor="start" x="8" y="-417.3" font-family="Times,serif" font-size="14.00">updated_at :datetime</text>
<text text-anchor="start" x="8" y="-403.3" font-family="Times,serif" font-size="14.00">user_id :integer</text>
</g>
<!-- BackgroundInfo -->
<g id="node5" class="node"><title>BackgroundInfo</title>
<path fill="none" stroke="black" d="M1268.78,-410.5C1268.78,-410.5 1404.23,-410.5 1404.23,-410.5 1410.23,-410.5 1416.23,-416.5 1416.23,-422.5 1416.23,-422.5 1416.23,-498.5 1416.23,-498.5 1416.23,-504.5 1410.23,-510.5 1404.23,-510.5 1404.23,-510.5 1268.78,-510.5 1268.78,-510.5 1262.78,-510.5 1256.78,-504.5 1256.78,-498.5 1256.78,-498.5 1256.78,-422.5 1256.78,-422.5 1256.78,-416.5 1262.78,-410.5 1268.78,-410.5"/>
<text text-anchor="middle" x="1336.51" y="-495.3" font-family="Times,serif" font-size="14.00">BackgroundInfo</text>
<polyline fill="none" stroke="black" points="1256.78,-488.5 1416.23,-488.5 "/>
<text text-anchor="start" x="1264.78" y="-473.3" font-family="Times,serif" font-size="14.00">id :integer</text>
<text text-anchor="start" x="1264.78" y="-459.3" font-family="Times,serif" font-size="14.00">background_type :integer</text>
<text text-anchor="start" x="1264.78" y="-445.3" font-family="Times,serif" font-size="14.00">created_at :datetime</text>
<text text-anchor="start" x="1264.78" y="-431.3" font-family="Times,serif" font-size="14.00">updated_at :datetime</text>
<text text-anchor="start" x="1264.78" y="-417.3" font-family="Times,serif" font-size="14.00">user_id :integer</text>
</g>
<!-- Experience -->
<g id="node6" class="node"><title>Experience</title>
<path fill="none" stroke="black" d="M1314.61,-0.5C1314.61,-0.5 1466.4,-0.5 1466.4,-0.5 1472.4,-0.5 1478.4,-6.5 1478.4,-12.5 1478.4,-12.5 1478.4,-144.5 1478.4,-144.5 1478.4,-150.5 1472.4,-156.5 1466.4,-156.5 1466.4,-156.5 1314.61,-156.5 1314.61,-156.5 1308.61,-156.5 1302.61,-150.5 1302.61,-144.5 1302.61,-144.5 1302.61,-12.5 1302.61,-12.5 1302.61,-6.5 1308.61,-0.5 1314.61,-0.5"/>
<text text-anchor="middle" x="1390.51" y="-141.3" font-family="Times,serif" font-size="14.00">Experience</text>
<polyline fill="none" stroke="black" points="1302.61,-134.5 1478.4,-134.5 "/>
<text text-anchor="start" x="1310.61" y="-119.3" font-family="Times,serif" font-size="14.00">id :integer</text>
<text text-anchor="start" x="1310.61" y="-105.3" font-family="Times,serif" font-size="14.00">url :string</text>
<text text-anchor="start" x="1310.61" y="-91.3" font-family="Times,serif" font-size="14.00">created_at :datetime</text>
<text text-anchor="start" x="1310.61" y="-77.3" font-family="Times,serif" font-size="14.00">updated_at :datetime</text>
<text text-anchor="start" x="1310.61" y="-63.3" font-family="Times,serif" font-size="14.00">img_file_name :string</text>
<text text-anchor="start" x="1310.61" y="-49.3" font-family="Times,serif" font-size="14.00">img_content_type :string</text>
<text text-anchor="start" x="1310.61" y="-35.3" font-family="Times,serif" font-size="14.00">img_file_size :integer</text>
<text text-anchor="start" x="1310.61" y="-21.3" font-family="Times,serif" font-size="14.00">img_updated_at :datetime</text>
<text text-anchor="start" x="1310.61" y="-7.3" font-family="Times,serif" font-size="14.00">background_info_id :integer</text>
</g>
<!-- BackgroundInfo&#45;&gt;Experience -->
<g id="edge1" class="edge"><title>BackgroundInfo&#45;&gt;Experience</title>
<path fill="none" stroke="#42f25a" d="M1344.67,-402.05C1353.55,-339.552 1367.85,-238.919 1378.12,-166.673"/>
<ellipse fill="none" stroke="#42f25a" cx="1344.07" cy="-406.251" rx="4.00001" ry="4.00001"/>
<polygon fill="#42f25a" stroke="#42f25a" points="1378.13,-166.574 1383.99,-157.307 1378.84,-161.624 1379.54,-156.674 1379.54,-156.674 1379.54,-156.674 1378.84,-161.624 1375.08,-156.04 1378.13,-166.574 1378.13,-166.574"/>
</g>
<!-- HomepageInfo -->
<g id="node7" class="node"><title>HomepageInfo</title>
<path fill="none" stroke="black" d="M355.683,-375.5C355.683,-375.5 553.328,-375.5 553.328,-375.5 559.328,-375.5 565.328,-381.5 565.328,-387.5 565.328,-387.5 565.328,-533.5 565.328,-533.5 565.328,-539.5 559.328,-545.5 553.328,-545.5 553.328,-545.5 355.683,-545.5 355.683,-545.5 349.683,-545.5 343.683,-539.5 343.683,-533.5 343.683,-533.5 343.683,-387.5 343.683,-387.5 343.683,-381.5 349.683,-375.5 355.683,-375.5"/>
<text text-anchor="middle" x="454.505" y="-530.3" font-family="Times,serif" font-size="14.00">HomepageInfo</text>
<polyline fill="none" stroke="black" points="343.683,-523.5 565.328,-523.5 "/>
<text text-anchor="start" x="351.683" y="-508.3" font-family="Times,serif" font-size="14.00">id :integer</text>
<text text-anchor="start" x="351.683" y="-494.3" font-family="Times,serif" font-size="14.00">homepage_header :string</text>
<text text-anchor="start" x="351.683" y="-480.3" font-family="Times,serif" font-size="14.00">homepage_display_name :string</text>
<text text-anchor="start" x="351.683" y="-466.3" font-family="Times,serif" font-size="14.00">user_id :integer</text>
<text text-anchor="start" x="351.683" y="-452.3" font-family="Times,serif" font-size="14.00">created_at :datetime</text>
<text text-anchor="start" x="351.683" y="-438.3" font-family="Times,serif" font-size="14.00">updated_at :datetime</text>
<text text-anchor="start" x="351.683" y="-424.3" font-family="Times,serif" font-size="14.00">homepage_pic_file_name :string</text>
<text text-anchor="start" x="351.683" y="-410.3" font-family="Times,serif" font-size="14.00">homepage_pic_content_type :string</text>
<text text-anchor="start" x="351.683" y="-396.3" font-family="Times,serif" font-size="14.00">homepage_pic_file_size :integer</text>
<text text-anchor="start" x="351.683" y="-382.3" font-family="Times,serif" font-size="14.00">homepage_pic_updated_at :datetime</text>
</g>
<!-- PersonalInfo -->
<g id="node8" class="node"><title>PersonalInfo</title>
<path fill="none" stroke="black" d="M594.896,-193.5C594.896,-193.5 766.114,-193.5 766.114,-193.5 772.114,-193.5 778.114,-199.5 778.114,-205.5 778.114,-205.5 778.114,-715.5 778.114,-715.5 778.114,-721.5 772.114,-727.5 766.114,-727.5 766.114,-727.5 594.896,-727.5 594.896,-727.5 588.896,-727.5 582.896,-721.5 582.896,-715.5 582.896,-715.5 582.896,-205.5 582.896,-205.5 582.896,-199.5 588.896,-193.5 594.896,-193.5"/>
<text text-anchor="middle" x="680.505" y="-712.3" font-family="Times,serif" font-size="14.00">PersonalInfo</text>
<polyline fill="none" stroke="black" points="582.896,-705.5 778.114,-705.5 "/>
<text text-anchor="start" x="590.896" y="-690.3" font-family="Times,serif" font-size="14.00">id :integer</text>
<text text-anchor="start" x="590.896" y="-676.3" font-family="Times,serif" font-size="14.00">name_first :string</text>
<text text-anchor="start" x="590.896" y="-662.3" font-family="Times,serif" font-size="14.00">name_last :string</text>
<text text-anchor="start" x="590.896" y="-648.3" font-family="Times,serif" font-size="14.00">intro_paragraph :text</text>
<text text-anchor="start" x="590.896" y="-634.3" font-family="Times,serif" font-size="14.00">created_at :datetime</text>
<text text-anchor="start" x="590.896" y="-620.3" font-family="Times,serif" font-size="14.00">updated_at :datetime</text>
<text text-anchor="start" x="590.896" y="-606.3" font-family="Times,serif" font-size="14.00">about_pic_file_name :string</text>
<text text-anchor="start" x="590.896" y="-592.3" font-family="Times,serif" font-size="14.00">about_pic_content_type :string</text>
<text text-anchor="start" x="590.896" y="-578.3" font-family="Times,serif" font-size="14.00">about_pic_file_size :integer</text>
<text text-anchor="start" x="590.896" y="-564.3" font-family="Times,serif" font-size="14.00">about_pic_updated_at :datetime</text>
<text text-anchor="start" x="590.896" y="-550.3" font-family="Times,serif" font-size="14.00">user_id :integer</text>
<text text-anchor="start" x="590.896" y="-536.3" font-family="Times,serif" font-size="14.00">resume_file_name :string</text>
<text text-anchor="start" x="590.896" y="-522.3" font-family="Times,serif" font-size="14.00">resume_content_type :string</text>
<text text-anchor="start" x="590.896" y="-508.3" font-family="Times,serif" font-size="14.00">resume_file_size :integer</text>
<text text-anchor="start" x="590.896" y="-494.3" font-family="Times,serif" font-size="14.00">resume_updated_at :datetime</text>
<text text-anchor="start" x="590.896" y="-480.3" font-family="Times,serif" font-size="14.00">vertical :boolean</text>
<text text-anchor="start" x="590.896" y="-466.3" font-family="Times,serif" font-size="14.00">exp1_file_name :string</text>
<text text-anchor="start" x="590.896" y="-452.3" font-family="Times,serif" font-size="14.00">exp1_content_type :string</text>
<text text-anchor="start" x="590.896" y="-438.3" font-family="Times,serif" font-size="14.00">exp1_file_size :integer</text>
<text text-anchor="start" x="590.896" y="-424.3" font-family="Times,serif" font-size="14.00">exp1_updated_at :datetime</text>
<text text-anchor="start" x="590.896" y="-410.3" font-family="Times,serif" font-size="14.00">exp2_file_name :string</text>
<text text-anchor="start" x="590.896" y="-396.3" font-family="Times,serif" font-size="14.00">exp2_content_type :string</text>
<text text-anchor="start" x="590.896" y="-382.3" font-family="Times,serif" font-size="14.00">exp2_file_size :integer</text>
<text text-anchor="start" x="590.896" y="-368.3" font-family="Times,serif" font-size="14.00">exp2_updated_at :datetime</text>
<text text-anchor="start" x="590.896" y="-354.3" font-family="Times,serif" font-size="14.00">exp3_file_name :string</text>
<text text-anchor="start" x="590.896" y="-340.3" font-family="Times,serif" font-size="14.00">exp3_content_type :string</text>
<text text-anchor="start" x="590.896" y="-326.3" font-family="Times,serif" font-size="14.00">exp3_file_size :integer</text>
<text text-anchor="start" x="590.896" y="-312.3" font-family="Times,serif" font-size="14.00">exp3_updated_at :datetime</text>
<text text-anchor="start" x="590.896" y="-298.3" font-family="Times,serif" font-size="14.00">exp4_file_name :string</text>
<text text-anchor="start" x="590.896" y="-284.3" font-family="Times,serif" font-size="14.00">exp4_content_type :string</text>
<text text-anchor="start" x="590.896" y="-270.3" font-family="Times,serif" font-size="14.00">exp4_file_size :integer</text>
<text text-anchor="start" x="590.896" y="-256.3" font-family="Times,serif" font-size="14.00">exp4_updated_at :datetime</text>
<text text-anchor="start" x="590.896" y="-242.3" font-family="Times,serif" font-size="14.00">remove_exp1 :boolean</text>
<text text-anchor="start" x="590.896" y="-228.3" font-family="Times,serif" font-size="14.00">remove_exp2 :boolean</text>
<text text-anchor="start" x="590.896" y="-214.3" font-family="Times,serif" font-size="14.00">remove_exp3 :boolean</text>
<text text-anchor="start" x="590.896" y="-200.3" font-family="Times,serif" font-size="14.00">remove_exp4 :boolean</text>
</g>
<!-- Photo -->
<g id="node9" class="node"><title>Photo</title>
<path fill="none" stroke="black" d="M163.396,-389.5C163.396,-389.5 313.614,-389.5 313.614,-389.5 319.614,-389.5 325.614,-395.5 325.614,-401.5 325.614,-401.5 325.614,-519.5 325.614,-519.5 325.614,-525.5 319.614,-531.5 313.614,-531.5 313.614,-531.5 163.396,-531.5 163.396,-531.5 157.396,-531.5 151.396,-525.5 151.396,-519.5 151.396,-519.5 151.396,-401.5 151.396,-401.5 151.396,-395.5 157.396,-389.5 163.396,-389.5"/>
<text text-anchor="middle" x="238.505" y="-516.3" font-family="Times,serif" font-size="14.00">Photo</text>
<polyline fill="none" stroke="black" points="151.396,-509.5 325.614,-509.5 "/>
<text text-anchor="start" x="159.396" y="-494.3" font-family="Times,serif" font-size="14.00">id :integer</text>
<text text-anchor="start" x="159.396" y="-480.3" font-family="Times,serif" font-size="14.00">created_at :datetime</text>
<text text-anchor="start" x="159.396" y="-466.3" font-family="Times,serif" font-size="14.00">updated_at :datetime</text>
<text text-anchor="start" x="159.396" y="-452.3" font-family="Times,serif" font-size="14.00">image_file_name :string</text>
<text text-anchor="start" x="159.396" y="-438.3" font-family="Times,serif" font-size="14.00">image_content_type :string</text>
<text text-anchor="start" x="159.396" y="-424.3" font-family="Times,serif" font-size="14.00">image_file_size :integer</text>
<text text-anchor="start" x="159.396" y="-410.3" font-family="Times,serif" font-size="14.00">image_updated_at :datetime</text>
<text text-anchor="start" x="159.396" y="-396.3" font-family="Times,serif" font-size="14.00">user_id :integer</text>
</g>
<!-- PhotoLink -->
<g id="node10" class="node"><title>PhotoLink</title>
<path fill="none" stroke="black" d="M808,-410.5C808,-410.5 917.011,-410.5 917.011,-410.5 923.011,-410.5 929.011,-416.5 929.011,-422.5 929.011,-422.5 929.011,-498.5 929.011,-498.5 929.011,-504.5 923.011,-510.5 917.011,-510.5 917.011,-510.5 808,-510.5 808,-510.5 802,-510.5 796,-504.5 796,-498.5 796,-498.5 796,-422.5 796,-422.5 796,-416.5 802,-410.5 808,-410.5"/>
<text text-anchor="middle" x="862.505" y="-495.3" font-family="Times,serif" font-size="14.00">PhotoLink</text>
<polyline fill="none" stroke="black" points="796,-488.5 929.011,-488.5 "/>
<text text-anchor="start" x="804" y="-473.3" font-family="Times,serif" font-size="14.00">id :integer</text>
<text text-anchor="start" x="804" y="-459.3" font-family="Times,serif" font-size="14.00">tumblr_url :string</text>
<text text-anchor="start" x="804" y="-445.3" font-family="Times,serif" font-size="14.00">user_id :integer</text>
<text text-anchor="start" x="804" y="-431.3" font-family="Times,serif" font-size="14.00">created_at :datetime</text>
<text text-anchor="start" x="804" y="-417.3" font-family="Times,serif" font-size="14.00">updated_at :datetime</text>
</g>
<!-- Project -->
<g id="node11" class="node"><title>Project</title>
<path fill="none" stroke="black" d="M1484.06,-228.5C1484.06,-228.5 1624.96,-228.5 1624.96,-228.5 1630.96,-228.5 1636.96,-234.5 1636.96,-240.5 1636.96,-240.5 1636.96,-680.5 1636.96,-680.5 1636.96,-686.5 1630.96,-692.5 1624.96,-692.5 1624.96,-692.5 1484.06,-692.5 1484.06,-692.5 1478.06,-692.5 1472.06,-686.5 1472.06,-680.5 1472.06,-680.5 1472.06,-240.5 1472.06,-240.5 1472.06,-234.5 1478.06,-228.5 1484.06,-228.5"/>
<text text-anchor="middle" x="1554.51" y="-677.3" font-family="Times,serif" font-size="14.00">Project</text>
<polyline fill="none" stroke="black" points="1472.06,-670.5 1636.96,-670.5 "/>
<text text-anchor="start" x="1480.06" y="-655.3" font-family="Times,serif" font-size="14.00">id :integer</text>
<text text-anchor="start" x="1480.06" y="-641.3" font-family="Times,serif" font-size="14.00">title :string</text>
<text text-anchor="start" x="1480.06" y="-627.3" font-family="Times,serif" font-size="14.00">paragraph :text</text>
<text text-anchor="start" x="1480.06" y="-613.3" font-family="Times,serif" font-size="14.00">created_at :datetime</text>
<text text-anchor="start" x="1480.06" y="-599.3" font-family="Times,serif" font-size="14.00">updated_at :datetime</text>
<text text-anchor="start" x="1480.06" y="-585.3" font-family="Times,serif" font-size="14.00">file1_file_name :string</text>
<text text-anchor="start" x="1480.06" y="-571.3" font-family="Times,serif" font-size="14.00">file1_content_type :string</text>
<text text-anchor="start" x="1480.06" y="-557.3" font-family="Times,serif" font-size="14.00">file1_file_size :integer</text>
<text text-anchor="start" x="1480.06" y="-543.3" font-family="Times,serif" font-size="14.00">file1_updated_at :datetime</text>
<text text-anchor="start" x="1480.06" y="-529.3" font-family="Times,serif" font-size="14.00">file2_file_name :string</text>
<text text-anchor="start" x="1480.06" y="-515.3" font-family="Times,serif" font-size="14.00">file2_content_type :string</text>
<text text-anchor="start" x="1480.06" y="-501.3" font-family="Times,serif" font-size="14.00">file2_file_size :integer</text>
<text text-anchor="start" x="1480.06" y="-487.3" font-family="Times,serif" font-size="14.00">file2_updated_at :datetime</text>
<text text-anchor="start" x="1480.06" y="-473.3" font-family="Times,serif" font-size="14.00">file3_file_name :string</text>
<text text-anchor="start" x="1480.06" y="-459.3" font-family="Times,serif" font-size="14.00">file3_content_type :string</text>
<text text-anchor="start" x="1480.06" y="-445.3" font-family="Times,serif" font-size="14.00">file3_file_size :integer</text>
<text text-anchor="start" x="1480.06" y="-431.3" font-family="Times,serif" font-size="14.00">file3_updated_at :datetime</text>
<text text-anchor="start" x="1480.06" y="-417.3" font-family="Times,serif" font-size="14.00">file4_file_name :string</text>
<text text-anchor="start" x="1480.06" y="-403.3" font-family="Times,serif" font-size="14.00">file4_content_type :string</text>
<text text-anchor="start" x="1480.06" y="-389.3" font-family="Times,serif" font-size="14.00">file4_file_size :integer</text>
<text text-anchor="start" x="1480.06" y="-375.3" font-family="Times,serif" font-size="14.00">file4_updated_at :datetime</text>
<text text-anchor="start" x="1480.06" y="-361.3" font-family="Times,serif" font-size="14.00">file1_type :integer</text>
<text text-anchor="start" x="1480.06" y="-347.3" font-family="Times,serif" font-size="14.00">file2_type :integer</text>
<text text-anchor="start" x="1480.06" y="-333.3" font-family="Times,serif" font-size="14.00">file3_type :integer</text>
<text text-anchor="start" x="1480.06" y="-319.3" font-family="Times,serif" font-size="14.00">file4_type :integer</text>
<text text-anchor="start" x="1480.06" y="-305.3" font-family="Times,serif" font-size="14.00">file1_title :string</text>
<text text-anchor="start" x="1480.06" y="-291.3" font-family="Times,serif" font-size="14.00">file2_title :string</text>
<text text-anchor="start" x="1480.06" y="-277.3" font-family="Times,serif" font-size="14.00">file3_title :string</text>
<text text-anchor="start" x="1480.06" y="-263.3" font-family="Times,serif" font-size="14.00">file4_title :string</text>
<text text-anchor="start" x="1480.06" y="-249.3" font-family="Times,serif" font-size="14.00">url :string</text>
<text text-anchor="start" x="1480.06" y="-235.3" font-family="Times,serif" font-size="14.00">user_id :integer</text>
</g>
<!-- School -->
<g id="node12" class="node"><title>School</title>
<path fill="none" stroke="black" d="M604.055,-1104.5C604.055,-1104.5 744.956,-1104.5 744.956,-1104.5 750.956,-1104.5 756.956,-1110.5 756.956,-1116.5 756.956,-1116.5 756.956,-1262.5 756.956,-1262.5 756.956,-1268.5 750.956,-1274.5 744.956,-1274.5 744.956,-1274.5 604.055,-1274.5 604.055,-1274.5 598.055,-1274.5 592.055,-1268.5 592.055,-1262.5 592.055,-1262.5 592.055,-1116.5 592.055,-1116.5 592.055,-1110.5 598.055,-1104.5 604.055,-1104.5"/>
<text text-anchor="middle" x="674.505" y="-1259.3" font-family="Times,serif" font-size="14.00">School</text>
<polyline fill="none" stroke="black" points="592.055,-1252.5 756.956,-1252.5 "/>
<text text-anchor="start" x="600.055" y="-1237.3" font-family="Times,serif" font-size="14.00">id :integer</text>
<text text-anchor="start" x="600.055" y="-1223.3" font-family="Times,serif" font-size="14.00">name :string</text>
<text text-anchor="start" x="600.055" y="-1209.3" font-family="Times,serif" font-size="14.00">created_at :datetime</text>
<text text-anchor="start" x="600.055" y="-1195.3" font-family="Times,serif" font-size="14.00">updated_at :datetime</text>
<text text-anchor="start" x="600.055" y="-1181.3" font-family="Times,serif" font-size="14.00">logo_file_name :string</text>
<text text-anchor="start" x="600.055" y="-1167.3" font-family="Times,serif" font-size="14.00">logo_content_type :string</text>
<text text-anchor="start" x="600.055" y="-1153.3" font-family="Times,serif" font-size="14.00">logo_file_size :integer</text>
<text text-anchor="start" x="600.055" y="-1139.3" font-family="Times,serif" font-size="14.00">logo_updated_at :datetime</text>
<text text-anchor="start" x="600.055" y="-1125.3" font-family="Times,serif" font-size="14.00">color1 :string</text>
<text text-anchor="start" x="600.055" y="-1111.3" font-family="Times,serif" font-size="14.00">color2 :string</text>
</g>
<!-- School&#45;&gt;Article -->
<g id="edge4" class="edge"><title>School&#45;&gt;Article</title>
<path fill="none" stroke="#cc3c3a" d="M603.966,-1097.68C597.168,-1092.14 589.997,-1087.14 582.505,-1083 492.328,-1033.17 440.179,-1102.7 353.505,-1047 172.462,-930.656 102.037,-664.239 77.7774,-534.789"/>
<polygon fill="#cc3c3a" stroke="#cc3c3a" points="604.2,-1097.88 608.831,-1107.82 607.985,-1101.15 611.771,-1104.41 611.771,-1104.41 611.771,-1104.41 607.985,-1101.15 614.711,-1101 604.2,-1097.88 604.2,-1097.88"/>
<polygon fill="#cc3c3a" stroke="#cc3c3a" points="77.7091,-534.415 80.3331,-523.768 76.8079,-529.497 75.9068,-524.579 75.9068,-524.579 75.9068,-524.579 76.8079,-529.497 71.4804,-525.39 77.7091,-534.415 77.7091,-534.415"/>
</g>
<!-- School&#45;&gt;Photo -->
<g id="edge5" class="edge"><title>School&#45;&gt;Photo</title>
<path fill="none" stroke="#19a251" d="M594.182,-1096.77C519.165,-1007.49 408.019,-865.536 334.505,-728 302.577,-668.265 277.216,-595.666 260.598,-541.336"/>
<polygon fill="#19a251" stroke="#19a251" points="594.203,-1096.79 597.207,-1107.34 597.425,-1100.62 600.648,-1104.44 600.648,-1104.44 600.648,-1104.44 597.425,-1100.62 604.089,-1101.54 594.203,-1096.79 594.203,-1096.79"/>
<polygon fill="#19a251" stroke="#19a251" points="260.595,-541.326 262.007,-530.452 259.148,-536.54 257.7,-531.754 257.7,-531.754 257.7,-531.754 259.148,-536.54 253.393,-533.057 260.595,-541.326 260.595,-541.326"/>
</g>
<!-- School&#45;&gt;Project -->
<g id="edge3" class="edge"><title>School&#45;&gt;Project</title>
<path fill="none" stroke="#6124a2" d="M744.478,-1097.64C751.142,-1092.13 758.168,-1087.15 765.505,-1083 847.145,-1036.77 886.277,-1081.54 973.505,-1047 1213.04,-952.143 1297.81,-930.166 1457.51,-728 1464.16,-719.569 1470.39,-710.64 1476.22,-701.357"/>
<polygon fill="#6124a2" stroke="#6124a2" points="744.357,-1097.74 733.865,-1100.93 740.591,-1101.03 736.824,-1104.32 736.824,-1104.32 736.824,-1104.32 740.591,-1101.03 739.783,-1107.71 744.357,-1097.74 744.357,-1097.74"/>
<polygon fill="#6124a2" stroke="#6124a2" points="1476.26,-701.285 1485.3,-695.074 1478.86,-697.012 1481.45,-692.738 1481.45,-692.738 1481.45,-692.738 1478.86,-697.012 1477.61,-690.402 1476.26,-701.285 1476.26,-701.285"/>
</g>
<!-- User -->
<g id="node15" class="node"><title>User</title>
<path fill="none" stroke="black" d="M772.228,-764.5C772.228,-764.5 952.783,-764.5 952.783,-764.5 958.783,-764.5 964.783,-770.5 964.783,-776.5 964.783,-776.5 964.783,-1034.5 964.783,-1034.5 964.783,-1040.5 958.783,-1046.5 952.783,-1046.5 952.783,-1046.5 772.228,-1046.5 772.228,-1046.5 766.228,-1046.5 760.228,-1040.5 760.228,-1034.5 760.228,-1034.5 760.228,-776.5 760.228,-776.5 760.228,-770.5 766.228,-764.5 772.228,-764.5"/>
<text text-anchor="middle" x="862.505" y="-1031.3" font-family="Times,serif" font-size="14.00">User</text>
<polyline fill="none" stroke="black" points="760.228,-1024.5 964.783,-1024.5 "/>
<text text-anchor="start" x="768.228" y="-1009.3" font-family="Times,serif" font-size="14.00">id :integer</text>
<text text-anchor="start" x="768.228" y="-995.3" font-family="Times,serif" font-size="14.00">created_at :datetime</text>
<text text-anchor="start" x="768.228" y="-981.3" font-family="Times,serif" font-size="14.00">updated_at :datetime</text>
<text text-anchor="start" x="768.228" y="-967.3" font-family="Times,serif" font-size="14.00">email :string</text>
<text text-anchor="start" x="768.228" y="-953.3" font-family="Times,serif" font-size="14.00">encrypted_password :string</text>
<text text-anchor="start" x="768.228" y="-939.3" font-family="Times,serif" font-size="14.00">reset_password_token :string</text>
<text text-anchor="start" x="768.228" y="-925.3" font-family="Times,serif" font-size="14.00">reset_password_sent_at :datetime</text>
<text text-anchor="start" x="768.228" y="-911.3" font-family="Times,serif" font-size="14.00">remember_created_at :datetime</text>
<text text-anchor="start" x="768.228" y="-897.3" font-family="Times,serif" font-size="14.00">sign_in_count :integer</text>
<text text-anchor="start" x="768.228" y="-883.3" font-family="Times,serif" font-size="14.00">current_sign_in_at :datetime</text>
<text text-anchor="start" x="768.228" y="-869.3" font-family="Times,serif" font-size="14.00">last_sign_in_at :datetime</text>
<text text-anchor="start" x="768.228" y="-855.3" font-family="Times,serif" font-size="14.00">current_sign_in_ip :inet</text>
<text text-anchor="start" x="768.228" y="-841.3" font-family="Times,serif" font-size="14.00">last_sign_in_ip :inet</text>
<text text-anchor="start" x="768.228" y="-827.3" font-family="Times,serif" font-size="14.00">confirmation_token :string</text>
<text text-anchor="start" x="768.228" y="-813.3" font-family="Times,serif" font-size="14.00">confirmed_at :datetime</text>
<text text-anchor="start" x="768.228" y="-799.3" font-family="Times,serif" font-size="14.00">confirmation_sent_at :datetime</text>
<text text-anchor="start" x="768.228" y="-785.3" font-family="Times,serif" font-size="14.00">unconfirmed_email :string</text>
<text text-anchor="start" x="768.228" y="-771.3" font-family="Times,serif" font-size="14.00">school_id :integer</text>
</g>
<!-- School&#45;&gt;User -->
<g id="edge2" class="edge"><title>School&#45;&gt;User</title>
<path fill="none" stroke="#757f66" d="M735.246,-1097.39C744.283,-1083.83 753.79,-1069.57 763.368,-1055.21"/>
<ellipse fill="none" stroke="#757f66" cx="732.876" cy="-1100.94" rx="4.00002" ry="4.00002"/>
<polygon fill="#757f66" stroke="#757f66" points="763.466,-1055.06 772.757,-1049.23 766.24,-1050.9 769.013,-1046.74 769.013,-1046.74 769.013,-1046.74 766.24,-1050.9 765.269,-1044.24 763.466,-1055.06 763.466,-1055.06"/>
</g>
<!-- Showcase -->
<g id="node13" class="node"><title>Showcase</title>
<path fill="none" stroke="black" d="M787,-1139.5C787,-1139.5 910.011,-1139.5 910.011,-1139.5 916.011,-1139.5 922.011,-1145.5 922.011,-1151.5 922.011,-1151.5 922.011,-1227.5 922.011,-1227.5 922.011,-1233.5 916.011,-1239.5 910.011,-1239.5 910.011,-1239.5 787,-1239.5 787,-1239.5 781,-1239.5 775,-1233.5 775,-1227.5 775,-1227.5 775,-1151.5 775,-1151.5 775,-1145.5 781,-1139.5 787,-1139.5"/>
<text text-anchor="middle" x="848.505" y="-1224.3" font-family="Times,serif" font-size="14.00">Showcase</text>
<polyline fill="none" stroke="black" points="775,-1217.5 922.011,-1217.5 "/>
<text text-anchor="start" x="783" y="-1202.3" font-family="Times,serif" font-size="14.00">id :integer</text>
<text text-anchor="start" x="783" y="-1188.3" font-family="Times,serif" font-size="14.00">showcase_type :integer</text>
<text text-anchor="start" x="783" y="-1174.3" font-family="Times,serif" font-size="14.00">created_at :datetime</text>
<text text-anchor="start" x="783" y="-1160.3" font-family="Times,serif" font-size="14.00">updated_at :datetime</text>
<text text-anchor="start" x="783" y="-1146.3" font-family="Times,serif" font-size="14.00">user_id :integer</text>
</g>
<!-- SocialLink -->
<g id="node14" class="node"><title>SocialLink</title>
<path fill="none" stroke="black" d="M958.873,-368.5C958.873,-368.5 1074.14,-368.5 1074.14,-368.5 1080.14,-368.5 1086.14,-374.5 1086.14,-380.5 1086.14,-380.5 1086.14,-540.5 1086.14,-540.5 1086.14,-546.5 1080.14,-552.5 1074.14,-552.5 1074.14,-552.5 958.873,-552.5 958.873,-552.5 952.873,-552.5 946.873,-546.5 946.873,-540.5 946.873,-540.5 946.873,-380.5 946.873,-380.5 946.873,-374.5 952.873,-368.5 958.873,-368.5"/>
<text text-anchor="middle" x="1016.51" y="-537.3" font-family="Times,serif" font-size="14.00">SocialLink</text>
<polyline fill="none" stroke="black" points="946.873,-530.5 1086.14,-530.5 "/>
<text text-anchor="start" x="954.873" y="-515.3" font-family="Times,serif" font-size="14.00">id :integer</text>
<text text-anchor="start" x="954.873" y="-501.3" font-family="Times,serif" font-size="14.00">link_linkedin :string</text>
<text text-anchor="start" x="954.873" y="-487.3" font-family="Times,serif" font-size="14.00">link_instagram :string</text>
<text text-anchor="start" x="954.873" y="-473.3" font-family="Times,serif" font-size="14.00">link_facebook :string</text>
<text text-anchor="start" x="954.873" y="-459.3" font-family="Times,serif" font-size="14.00">link_twitter :string</text>
<text text-anchor="start" x="954.873" y="-445.3" font-family="Times,serif" font-size="14.00">link_tumblr :string</text>
<text text-anchor="start" x="954.873" y="-431.3" font-family="Times,serif" font-size="14.00">link_github :string</text>
<text text-anchor="start" x="954.873" y="-417.3" font-family="Times,serif" font-size="14.00">link_alt_email :string</text>
<text text-anchor="start" x="954.873" y="-403.3" font-family="Times,serif" font-size="14.00">created_at :datetime</text>
<text text-anchor="start" x="954.873" y="-389.3" font-family="Times,serif" font-size="14.00">updated_at :datetime</text>
<text text-anchor="start" x="954.873" y="-375.3" font-family="Times,serif" font-size="14.00">user_id :integer</text>
</g>
<!-- User&#45;&gt;Article -->
<g id="edge6" class="edge"><title>User&#45;&gt;Article</title>
<path fill="none" stroke="#d4688b" d="M751.966,-891.045C572.502,-867.034 229.058,-811.374 142.505,-728 90.5058,-677.91 73.3547,-594.967 68.0643,-534.901"/>
<ellipse fill="none" stroke="#d4688b" cx="756.158" cy="-891.603" rx="4.00001" ry="4.00001"/>
<polygon fill="#d4688b" stroke="#d4688b" points="68.0474,-534.686 71.7468,-524.363 67.6541,-529.701 67.2607,-524.717 67.2607,-524.717 67.2607,-524.717 67.6541,-529.701 62.7747,-525.071 68.0474,-534.686 68.0474,-534.686"/>
</g>
<!-- User&#45;&gt;BackgroundInfo -->
<g id="edge7" class="edge"><title>User&#45;&gt;BackgroundInfo</title>
<path fill="none" stroke="#795cd6" d="M972.912,-879.576C1058.82,-854.784 1175.22,-808.512 1247.51,-728 1300.42,-669.069 1322.01,-577.69 1330.73,-518.727"/>
<ellipse fill="none" stroke="#795cd6" cx="968.805" cy="-880.742" rx="4.00001" ry="4.00001"/>
<ellipse fill="#795cd6" stroke="#795cd6" cx="1331.32" cy="-514.59" rx="4.00001" ry="4.00001"/>
</g>
<!-- User&#45;&gt;Experience -->
<g id="edge8" class="edge"><title>User&#45;&gt;Experience</title>
<path fill="none" stroke="#06b0ed" d="M974.469,-860.597C1053.33,-830.731 1161.85,-791.749 1259.51,-764 1332.12,-743.365 1378.12,-786.767 1425.51,-728 1500.13,-635.452 1443.22,-310.562 1425.51,-193 1424.2,-184.333 1422.36,-175.416 1420.21,-166.57"/>
<polygon fill="#06b0ed" stroke="#06b0ed" points="974.35,-860.642 963.404,-859.985 969.676,-862.417 965.001,-864.192 965.001,-864.192 965.001,-864.192 969.676,-862.417 966.599,-868.399 974.35,-860.642 974.35,-860.642"/>
<polygon fill="#06b0ed" stroke="#06b0ed" points="1420.14,-166.314 1422.01,-155.508 1418.89,-161.472 1417.65,-156.629 1417.65,-156.629 1417.65,-156.629 1418.89,-161.472 1413.29,-157.751 1420.14,-166.314 1420.14,-166.314"/>
</g>
<!-- User&#45;&gt;HomepageInfo -->
<g id="edge9" class="edge"><title>User&#45;&gt;HomepageInfo</title>
<path fill="none" stroke="#f1023c" d="M752.972,-857.477C693.602,-827.508 622.56,-783.79 573.505,-728 529.407,-677.846 499.173,-608.695 480.217,-553.402"/>
<ellipse fill="none" stroke="#f1023c" cx="756.574" cy="-859.276" rx="4.00002" ry="4.00002"/>
<ellipse fill="#f1023c" stroke="#f1023c" cx="478.895" cy="-549.486" rx="4.00001" ry="4.00001"/>
</g>
<!-- User&#45;&gt;PersonalInfo -->
<g id="edge10" class="edge"><title>User&#45;&gt;PersonalInfo</title>
<path fill="none" stroke="#f30077" d="M798.619,-756.975C794.49,-747.182 790.421,-737.457 786.505,-728 784.779,-723.831 783.042,-719.623 781.297,-715.384"/>
<ellipse fill="none" stroke="#f30077" cx="800.23" cy="-760.789" rx="4.00002" ry="4.00002"/>
<ellipse fill="#f30077" stroke="#f30077" cx="779.67" cy="-711.422" rx="4.00001" ry="4.00001"/>
</g>
<!-- User&#45;&gt;Photo -->
<g id="edge15" class="edge"><title>User&#45;&gt;Photo</title>
<path fill="none" stroke="#4b3253" d="M752.253,-856.705C681.09,-827.14 585.985,-790 499.505,-764 427.625,-742.389 390.938,-777.488 334.505,-728 280.853,-680.95 257.18,-601.616 246.738,-541.712"/>
<ellipse fill="none" stroke="#4b3253" cx="756.242" cy="-858.367" rx="4.00001" ry="4.00001"/>
<polygon fill="#4b3253" stroke="#4b3253" points="246.684,-541.387 249.495,-530.788 245.87,-536.454 245.055,-531.521 245.055,-531.521 245.055,-531.521 245.87,-536.454 240.616,-532.254 246.684,-541.387 246.684,-541.387"/>
</g>
<!-- User&#45;&gt;PhotoLink -->
<g id="edge11" class="edge"><title>User&#45;&gt;PhotoLink</title>
<path fill="none" stroke="#195e59" d="M862.505,-756.138C862.505,-674.749 862.505,-578.52 862.505,-518.737"/>
<ellipse fill="none" stroke="#195e59" cx="862.505" cy="-760.332" rx="4" ry="4"/>
<ellipse fill="#195e59" stroke="#195e59" cx="862.505" cy="-514.548" rx="4" ry="4"/>
</g>
<!-- User&#45;&gt;Project -->
<g id="edge12" class="edge"><title>User&#45;&gt;Project</title>
<path fill="none" stroke="#6e616f" d="M972.672,-860.113C1051.52,-829.682 1160.76,-790.222 1259.51,-764 1346.37,-740.932 1389.88,-786.04 1458.51,-728 1468.13,-719.856 1476.8,-710.67 1484.59,-700.731"/>
<ellipse fill="none" stroke="#6e616f" cx="968.868" cy="-861.586" rx="4.00001" ry="4.00001"/>
<polygon fill="#6e616f" stroke="#6e616f" points="1484.68,-700.618 1494.27,-695.297 1487.67,-696.612 1490.66,-692.605 1490.66,-692.605 1490.66,-692.605 1487.67,-696.612 1487.05,-689.913 1484.68,-700.618 1484.68,-700.618"/>
</g>
<!-- User&#45;&gt;SocialLink -->
<g id="edge13" class="edge"><title>User&#45;&gt;SocialLink</title>
<path fill="none" stroke="#0a0611" d="M927.584,-756.992C931.406,-747.231 935.082,-737.505 938.505,-728 958.157,-673.43 976.566,-611.289 990.559,-560.747"/>
<ellipse fill="none" stroke="#0a0611" cx="926.103" cy="-760.741" rx="4.00001" ry="4.00001"/>
<ellipse fill="#0a0611" stroke="#0a0611" cx="991.704" cy="-556.594" rx="4.00001" ry="4.00001"/>
</g>
<!-- WebsiteSetting -->
<g id="node16" class="node"><title>WebsiteSetting</title>
<path fill="none" stroke="black" d="M1116.21,-403.5C1116.21,-403.5 1226.8,-403.5 1226.8,-403.5 1232.8,-403.5 1238.8,-409.5 1238.8,-415.5 1238.8,-415.5 1238.8,-505.5 1238.8,-505.5 1238.8,-511.5 1232.8,-517.5 1226.8,-517.5 1226.8,-517.5 1116.21,-517.5 1116.21,-517.5 1110.21,-517.5 1104.21,-511.5 1104.21,-505.5 1104.21,-505.5 1104.21,-415.5 1104.21,-415.5 1104.21,-409.5 1110.21,-403.5 1116.21,-403.5"/>
<text text-anchor="middle" x="1171.51" y="-502.3" font-family="Times,serif" font-size="14.00">WebsiteSetting</text>
<polyline fill="none" stroke="black" points="1104.21,-495.5 1238.8,-495.5 "/>
<text text-anchor="start" x="1112.21" y="-480.3" font-family="Times,serif" font-size="14.00">id :integer</text>
<text text-anchor="start" x="1112.21" y="-466.3" font-family="Times,serif" font-size="14.00">domain_name :string</text>
<text text-anchor="start" x="1112.21" y="-452.3" font-family="Times,serif" font-size="14.00">color :integer</text>
<text text-anchor="start" x="1112.21" y="-438.3" font-family="Times,serif" font-size="14.00">created_at :datetime</text>
<text text-anchor="start" x="1112.21" y="-424.3" font-family="Times,serif" font-size="14.00">updated_at :datetime</text>
<text text-anchor="start" x="1112.21" y="-410.3" font-family="Times,serif" font-size="14.00">user_id :integer</text>
</g>
<!-- User&#45;&gt;WebsiteSetting -->
<g id="edge14" class="edge"><title>User&#45;&gt;WebsiteSetting</title>
<path fill="none" stroke="#b141f5" d="M971.685,-843.361C1015.83,-813.708 1063.75,-774.407 1095.51,-728 1137.27,-666.978 1156.28,-583.172 1164.8,-525.933"/>
<ellipse fill="none" stroke="#b141f5" cx="968.252" cy="-845.639" rx="4.00002" ry="4.00002"/>
<ellipse fill="#b141f5" stroke="#b141f5" cx="1165.42" cy="-521.646" rx="4.00001" ry="4.00001"/>
</g>
</g>
</svg>
